M48
; DRILL file {KiCad 8.0.1} date 2024-06-18T21:20:26-0400
; FORMAT={-:-/ absolute / inch / decimal}
; #@! TF.CreationDate,2024-06-18T21:20:26-04:00
; #@! TF.GenerationSoftware,Kicad,Pcbnew,8.0.1
; #@! TF.FileFunction,Plated,1,2,PTH
FMAT,2
INCH
; #@! TA.AperFunction,Plated,PTH,ComponentDrill
T1C0.0315
; #@! TA.AperFunction,Plated,PTH,ComponentDrill
T2C0.0394
%
G90
G05
T1
X5.4Y-3.18
X5.4Y-3.34
X5.4Y-3.5
X5.4Y-3.72
X5.4Y-3.88
X5.4Y-4.06
X5.4Y-4.44
X5.4Y-4.6
X5.4Y-4.78
X5.4031Y-4.24
X5.5969Y-3.5
X5.5969Y-4.44
X5.6Y-4.24
X5.7Y-3.18
X5.7Y-3.34
X5.7Y-3.72
X5.7Y-3.88
X5.7Y-4.06
X5.7Y-4.6
X5.7Y-4.78
X5.8231Y-3.18
X5.92Y-3.38
X5.92Y-3.48
X5.92Y-3.58
X5.92Y-3.72
X5.92Y-3.82
X5.92Y-3.92
X5.94Y-4.22
X5.94Y-4.32
X5.94Y-4.42
X5.94Y-4.56
X5.94Y-4.66
X5.94Y-4.76
X6.02Y-3.18
T2
X6.22Y-3.17
X6.22Y-3.27
M30
