G04 #@! TF.GenerationSoftware,KiCad,Pcbnew,8.0.1*
G04 #@! TF.CreationDate,2024-06-18T21:20:24-04:00*
G04 #@! TF.ProjectId,OdysseyDaughterCardFlipFlop,4f647973-7365-4794-9461-756768746572,1.2*
G04 #@! TF.SameCoordinates,Original*
G04 #@! TF.FileFunction,Soldermask,Top*
G04 #@! TF.FilePolarity,Negative*
%FSLAX46Y46*%
G04 Gerber Fmt 4.6, Leading zero omitted, Abs format (unit mm)*
G04 Created by KiCad (PCBNEW 8.0.1) date 2024-06-18 21:20:24*
%MOMM*%
%LPD*%
G01*
G04 APERTURE LIST*
G04 APERTURE END LIST*
G36*
X137208724Y-120416799D02*
G01*
X137252218Y-120416799D01*
X137300658Y-120425853D01*
X137355090Y-120431215D01*
X137396438Y-120443757D01*
X137433518Y-120450689D01*
X137484868Y-120470582D01*
X137542683Y-120488120D01*
X137575720Y-120505778D01*
X137605501Y-120517316D01*
X137657245Y-120549354D01*
X137715570Y-120580530D01*
X137740076Y-120600641D01*
X137762311Y-120614409D01*
X137811575Y-120659319D01*
X137867107Y-120704893D01*
X137883563Y-120724945D01*
X137898611Y-120738663D01*
X137942297Y-120796513D01*
X137991470Y-120856430D01*
X138000977Y-120874218D01*
X138009762Y-120885850D01*
X138044713Y-120956040D01*
X138083880Y-121029317D01*
X138088056Y-121043086D01*
X138091972Y-121050949D01*
X138115105Y-121132255D01*
X138140785Y-121216910D01*
X138141628Y-121225473D01*
X138142446Y-121228347D01*
X138150943Y-121320047D01*
X138160000Y-121412000D01*
X138150942Y-121503960D01*
X138142446Y-121595652D01*
X138141628Y-121598524D01*
X138140785Y-121607090D01*
X138115100Y-121691759D01*
X138091972Y-121773050D01*
X138088057Y-121780911D01*
X138083880Y-121794683D01*
X138044705Y-121867972D01*
X138009762Y-121938149D01*
X138000979Y-121949778D01*
X137991470Y-121967570D01*
X137942288Y-122027498D01*
X137898611Y-122085336D01*
X137883566Y-122099050D01*
X137867107Y-122119107D01*
X137811564Y-122164689D01*
X137762311Y-122209590D01*
X137740081Y-122223354D01*
X137715570Y-122243470D01*
X137657233Y-122274651D01*
X137605501Y-122306683D01*
X137575727Y-122318217D01*
X137542683Y-122335880D01*
X137484856Y-122353421D01*
X137433518Y-122373310D01*
X137396445Y-122380240D01*
X137355090Y-122392785D01*
X137300655Y-122398146D01*
X137252218Y-122407201D01*
X137208724Y-122407201D01*
X137160000Y-122412000D01*
X137111276Y-122407201D01*
X137067782Y-122407201D01*
X137019343Y-122398146D01*
X136964910Y-122392785D01*
X136923555Y-122380240D01*
X136886481Y-122373310D01*
X136835139Y-122353419D01*
X136777317Y-122335880D01*
X136744275Y-122318218D01*
X136714498Y-122306683D01*
X136662759Y-122274647D01*
X136604430Y-122243470D01*
X136579921Y-122223356D01*
X136557688Y-122209590D01*
X136508425Y-122164681D01*
X136452893Y-122119107D01*
X136436436Y-122099054D01*
X136421388Y-122085336D01*
X136377699Y-122027482D01*
X136328530Y-121967570D01*
X136319022Y-121949783D01*
X136310237Y-121938149D01*
X136275279Y-121867945D01*
X136236120Y-121794683D01*
X136231943Y-121780916D01*
X136228027Y-121773050D01*
X136204882Y-121691706D01*
X136179215Y-121607090D01*
X136178371Y-121598530D01*
X136177553Y-121595652D01*
X136169040Y-121503788D01*
X136160000Y-121412000D01*
X136169039Y-121320219D01*
X136177553Y-121228347D01*
X136178372Y-121225468D01*
X136179215Y-121216910D01*
X136204878Y-121132308D01*
X136228027Y-121050949D01*
X136231944Y-121043081D01*
X136236120Y-121029317D01*
X136275272Y-120956068D01*
X136310237Y-120885850D01*
X136319024Y-120874213D01*
X136328530Y-120856430D01*
X136377689Y-120796528D01*
X136421388Y-120738663D01*
X136436439Y-120724941D01*
X136452893Y-120704893D01*
X136508414Y-120659327D01*
X136557688Y-120614409D01*
X136579926Y-120600639D01*
X136604430Y-120580530D01*
X136662747Y-120549358D01*
X136714498Y-120517316D01*
X136744282Y-120505777D01*
X136777317Y-120488120D01*
X136835127Y-120470583D01*
X136886481Y-120450689D01*
X136923562Y-120443757D01*
X136964910Y-120431215D01*
X137019340Y-120425853D01*
X137067782Y-120416799D01*
X137111276Y-120416799D01*
X137160000Y-120412000D01*
X137208724Y-120416799D01*
G37*
G36*
X144828724Y-120416799D02*
G01*
X144872218Y-120416799D01*
X144920658Y-120425853D01*
X144975090Y-120431215D01*
X145016438Y-120443757D01*
X145053518Y-120450689D01*
X145104868Y-120470582D01*
X145162683Y-120488120D01*
X145195720Y-120505778D01*
X145225501Y-120517316D01*
X145277245Y-120549354D01*
X145335570Y-120580530D01*
X145360076Y-120600641D01*
X145382311Y-120614409D01*
X145431575Y-120659319D01*
X145487107Y-120704893D01*
X145503563Y-120724945D01*
X145518611Y-120738663D01*
X145562297Y-120796513D01*
X145611470Y-120856430D01*
X145620977Y-120874218D01*
X145629762Y-120885850D01*
X145664713Y-120956040D01*
X145703880Y-121029317D01*
X145708056Y-121043086D01*
X145711972Y-121050949D01*
X145735105Y-121132255D01*
X145760785Y-121216910D01*
X145761628Y-121225473D01*
X145762446Y-121228347D01*
X145770943Y-121320047D01*
X145780000Y-121412000D01*
X145770942Y-121503960D01*
X145762446Y-121595652D01*
X145761628Y-121598524D01*
X145760785Y-121607090D01*
X145735100Y-121691759D01*
X145711972Y-121773050D01*
X145708057Y-121780911D01*
X145703880Y-121794683D01*
X145664705Y-121867972D01*
X145629762Y-121938149D01*
X145620979Y-121949778D01*
X145611470Y-121967570D01*
X145562288Y-122027498D01*
X145518611Y-122085336D01*
X145503566Y-122099050D01*
X145487107Y-122119107D01*
X145431564Y-122164689D01*
X145382311Y-122209590D01*
X145360081Y-122223354D01*
X145335570Y-122243470D01*
X145277233Y-122274651D01*
X145225501Y-122306683D01*
X145195727Y-122318217D01*
X145162683Y-122335880D01*
X145104856Y-122353421D01*
X145053518Y-122373310D01*
X145016445Y-122380240D01*
X144975090Y-122392785D01*
X144920655Y-122398146D01*
X144872218Y-122407201D01*
X144828724Y-122407201D01*
X144780000Y-122412000D01*
X144731276Y-122407201D01*
X144687782Y-122407201D01*
X144639343Y-122398146D01*
X144584910Y-122392785D01*
X144543555Y-122380240D01*
X144506481Y-122373310D01*
X144455139Y-122353419D01*
X144397317Y-122335880D01*
X144364275Y-122318218D01*
X144334498Y-122306683D01*
X144282759Y-122274647D01*
X144224430Y-122243470D01*
X144199921Y-122223356D01*
X144177688Y-122209590D01*
X144128425Y-122164681D01*
X144072893Y-122119107D01*
X144056436Y-122099054D01*
X144041388Y-122085336D01*
X143997699Y-122027482D01*
X143948530Y-121967570D01*
X143939022Y-121949783D01*
X143930237Y-121938149D01*
X143895279Y-121867945D01*
X143856120Y-121794683D01*
X143851943Y-121780916D01*
X143848027Y-121773050D01*
X143824882Y-121691706D01*
X143799215Y-121607090D01*
X143798371Y-121598530D01*
X143797553Y-121595652D01*
X143789040Y-121503788D01*
X143780000Y-121412000D01*
X143789039Y-121320219D01*
X143797553Y-121228347D01*
X143798372Y-121225468D01*
X143799215Y-121216910D01*
X143824878Y-121132308D01*
X143848027Y-121050949D01*
X143851944Y-121043081D01*
X143856120Y-121029317D01*
X143895272Y-120956068D01*
X143930237Y-120885850D01*
X143939024Y-120874213D01*
X143948530Y-120856430D01*
X143997689Y-120796528D01*
X144041388Y-120738663D01*
X144056439Y-120724941D01*
X144072893Y-120704893D01*
X144128414Y-120659327D01*
X144177688Y-120614409D01*
X144199926Y-120600639D01*
X144224430Y-120580530D01*
X144282747Y-120549358D01*
X144334498Y-120517316D01*
X144364282Y-120505777D01*
X144397317Y-120488120D01*
X144455127Y-120470583D01*
X144506481Y-120450689D01*
X144543562Y-120443757D01*
X144584910Y-120431215D01*
X144639340Y-120425853D01*
X144687782Y-120416799D01*
X144731276Y-120416799D01*
X144780000Y-120412000D01*
X144828724Y-120416799D01*
G37*
G36*
X150922562Y-119958586D02*
G01*
X150963604Y-119958586D01*
X151009313Y-119967130D01*
X151061336Y-119972254D01*
X151100852Y-119984241D01*
X151135834Y-119990780D01*
X151184283Y-120009549D01*
X151239549Y-120026314D01*
X151271128Y-120043193D01*
X151299214Y-120054074D01*
X151348016Y-120084291D01*
X151403792Y-120114104D01*
X151427225Y-120133335D01*
X151448180Y-120146310D01*
X151494612Y-120188639D01*
X151547751Y-120232249D01*
X151563498Y-120251436D01*
X151577661Y-120264348D01*
X151618775Y-120318791D01*
X151665896Y-120376208D01*
X151675007Y-120393255D01*
X151683249Y-120404168D01*
X151716031Y-120470005D01*
X151753686Y-120540451D01*
X151757702Y-120553691D01*
X151761350Y-120561017D01*
X151782897Y-120636749D01*
X151807746Y-120718664D01*
X151808562Y-120726951D01*
X151809297Y-120729534D01*
X151816938Y-120811994D01*
X151826000Y-120904000D01*
X151816937Y-120996013D01*
X151809297Y-121078465D01*
X151808562Y-121081046D01*
X151807746Y-121089336D01*
X151782893Y-121171265D01*
X151761350Y-121246982D01*
X151757703Y-121254305D01*
X151753686Y-121267549D01*
X151716024Y-121338008D01*
X151683249Y-121403831D01*
X151675009Y-121414741D01*
X151665896Y-121431792D01*
X151618765Y-121489219D01*
X151577661Y-121543651D01*
X151563501Y-121556559D01*
X151547751Y-121575751D01*
X151494601Y-121619369D01*
X151448180Y-121661689D01*
X151427230Y-121674660D01*
X151403792Y-121693896D01*
X151348004Y-121723715D01*
X151299214Y-121753925D01*
X151271134Y-121764802D01*
X151239549Y-121781686D01*
X151184271Y-121798454D01*
X151135834Y-121817219D01*
X151100859Y-121823756D01*
X151061336Y-121835746D01*
X151009310Y-121840870D01*
X150963604Y-121849414D01*
X150922562Y-121849414D01*
X150876000Y-121854000D01*
X150829438Y-121849414D01*
X150788396Y-121849414D01*
X150742688Y-121840869D01*
X150690664Y-121835746D01*
X150651142Y-121823757D01*
X150616165Y-121817219D01*
X150567723Y-121798452D01*
X150512451Y-121781686D01*
X150480867Y-121764804D01*
X150452785Y-121753925D01*
X150403988Y-121723711D01*
X150348208Y-121693896D01*
X150324772Y-121674663D01*
X150303819Y-121661689D01*
X150257388Y-121619361D01*
X150204249Y-121575751D01*
X150188501Y-121556562D01*
X150174338Y-121543651D01*
X150133221Y-121489204D01*
X150086104Y-121431792D01*
X150076992Y-121414746D01*
X150068750Y-121403831D01*
X150035960Y-121337981D01*
X149998314Y-121267549D01*
X149994298Y-121254310D01*
X149990649Y-121246982D01*
X149969090Y-121171212D01*
X149944254Y-121089336D01*
X149943438Y-121081052D01*
X149942702Y-121078465D01*
X149935045Y-120995841D01*
X149926000Y-120904000D01*
X149935044Y-120812166D01*
X149942702Y-120729534D01*
X149943438Y-120726946D01*
X149944254Y-120718664D01*
X149969086Y-120636802D01*
X149990649Y-120561017D01*
X149994298Y-120553686D01*
X149998314Y-120540451D01*
X150035953Y-120470032D01*
X150068750Y-120404168D01*
X150076994Y-120393250D01*
X150086104Y-120376208D01*
X150133212Y-120318806D01*
X150174338Y-120264348D01*
X150188504Y-120251433D01*
X150204249Y-120232249D01*
X150257377Y-120188647D01*
X150303819Y-120146310D01*
X150324777Y-120133332D01*
X150348208Y-120114104D01*
X150403976Y-120084295D01*
X150452785Y-120054074D01*
X150480874Y-120043191D01*
X150512451Y-120026314D01*
X150567712Y-120009550D01*
X150616165Y-119990780D01*
X150651149Y-119984240D01*
X150690664Y-119972254D01*
X150742685Y-119967130D01*
X150788396Y-119958586D01*
X150829438Y-119958586D01*
X150876000Y-119954000D01*
X150922562Y-119958586D01*
G37*
G36*
X150922562Y-117418586D02*
G01*
X150963604Y-117418586D01*
X151009313Y-117427130D01*
X151061336Y-117432254D01*
X151100852Y-117444241D01*
X151135834Y-117450780D01*
X151184283Y-117469549D01*
X151239549Y-117486314D01*
X151271128Y-117503193D01*
X151299214Y-117514074D01*
X151348016Y-117544291D01*
X151403792Y-117574104D01*
X151427225Y-117593335D01*
X151448180Y-117606310D01*
X151494612Y-117648639D01*
X151547751Y-117692249D01*
X151563498Y-117711436D01*
X151577661Y-117724348D01*
X151618775Y-117778791D01*
X151665896Y-117836208D01*
X151675007Y-117853255D01*
X151683249Y-117864168D01*
X151716031Y-117930005D01*
X151753686Y-118000451D01*
X151757702Y-118013691D01*
X151761350Y-118021017D01*
X151782897Y-118096749D01*
X151807746Y-118178664D01*
X151808562Y-118186951D01*
X151809297Y-118189534D01*
X151816938Y-118271994D01*
X151826000Y-118364000D01*
X151816937Y-118456013D01*
X151809297Y-118538465D01*
X151808562Y-118541046D01*
X151807746Y-118549336D01*
X151782893Y-118631265D01*
X151761350Y-118706982D01*
X151757703Y-118714305D01*
X151753686Y-118727549D01*
X151716024Y-118798008D01*
X151683249Y-118863831D01*
X151675009Y-118874741D01*
X151665896Y-118891792D01*
X151618765Y-118949219D01*
X151577661Y-119003651D01*
X151563501Y-119016559D01*
X151547751Y-119035751D01*
X151494601Y-119079369D01*
X151448180Y-119121689D01*
X151427230Y-119134660D01*
X151403792Y-119153896D01*
X151348004Y-119183715D01*
X151299214Y-119213925D01*
X151271134Y-119224802D01*
X151239549Y-119241686D01*
X151184271Y-119258454D01*
X151135834Y-119277219D01*
X151100859Y-119283756D01*
X151061336Y-119295746D01*
X151009310Y-119300870D01*
X150963604Y-119309414D01*
X150922562Y-119309414D01*
X150876000Y-119314000D01*
X150829438Y-119309414D01*
X150788396Y-119309414D01*
X150742688Y-119300869D01*
X150690664Y-119295746D01*
X150651142Y-119283757D01*
X150616165Y-119277219D01*
X150567723Y-119258452D01*
X150512451Y-119241686D01*
X150480867Y-119224804D01*
X150452785Y-119213925D01*
X150403988Y-119183711D01*
X150348208Y-119153896D01*
X150324772Y-119134663D01*
X150303819Y-119121689D01*
X150257388Y-119079361D01*
X150204249Y-119035751D01*
X150188501Y-119016562D01*
X150174338Y-119003651D01*
X150133221Y-118949204D01*
X150086104Y-118891792D01*
X150076992Y-118874746D01*
X150068750Y-118863831D01*
X150035960Y-118797981D01*
X149998314Y-118727549D01*
X149994298Y-118714310D01*
X149990649Y-118706982D01*
X149969090Y-118631212D01*
X149944254Y-118549336D01*
X149943438Y-118541052D01*
X149942702Y-118538465D01*
X149935045Y-118455841D01*
X149926000Y-118364000D01*
X149935044Y-118272166D01*
X149942702Y-118189534D01*
X149943438Y-118186946D01*
X149944254Y-118178664D01*
X149969086Y-118096802D01*
X149990649Y-118021017D01*
X149994298Y-118013686D01*
X149998314Y-118000451D01*
X150035953Y-117930032D01*
X150068750Y-117864168D01*
X150076994Y-117853250D01*
X150086104Y-117836208D01*
X150133212Y-117778806D01*
X150174338Y-117724348D01*
X150188504Y-117711433D01*
X150204249Y-117692249D01*
X150257377Y-117648647D01*
X150303819Y-117606310D01*
X150324777Y-117593332D01*
X150348208Y-117574104D01*
X150403976Y-117544295D01*
X150452785Y-117514074D01*
X150480874Y-117503191D01*
X150512451Y-117486314D01*
X150567712Y-117469550D01*
X150616165Y-117450780D01*
X150651149Y-117444240D01*
X150690664Y-117432254D01*
X150742685Y-117427130D01*
X150788396Y-117418586D01*
X150829438Y-117418586D01*
X150876000Y-117414000D01*
X150922562Y-117418586D01*
G37*
G36*
X137208724Y-115844799D02*
G01*
X137252218Y-115844799D01*
X137300658Y-115853853D01*
X137355090Y-115859215D01*
X137396438Y-115871757D01*
X137433518Y-115878689D01*
X137484868Y-115898582D01*
X137542683Y-115916120D01*
X137575720Y-115933778D01*
X137605501Y-115945316D01*
X137657245Y-115977354D01*
X137715570Y-116008530D01*
X137740076Y-116028641D01*
X137762311Y-116042409D01*
X137811575Y-116087319D01*
X137867107Y-116132893D01*
X137883563Y-116152945D01*
X137898611Y-116166663D01*
X137942297Y-116224513D01*
X137991470Y-116284430D01*
X138000977Y-116302218D01*
X138009762Y-116313850D01*
X138044713Y-116384040D01*
X138083880Y-116457317D01*
X138088056Y-116471086D01*
X138091972Y-116478949D01*
X138115105Y-116560255D01*
X138140785Y-116644910D01*
X138141628Y-116653473D01*
X138142446Y-116656347D01*
X138150943Y-116748047D01*
X138160000Y-116840000D01*
X138150942Y-116931960D01*
X138142446Y-117023652D01*
X138141628Y-117026524D01*
X138140785Y-117035090D01*
X138115100Y-117119759D01*
X138091972Y-117201050D01*
X138088057Y-117208911D01*
X138083880Y-117222683D01*
X138044705Y-117295972D01*
X138009762Y-117366149D01*
X138000979Y-117377778D01*
X137991470Y-117395570D01*
X137942288Y-117455498D01*
X137898611Y-117513336D01*
X137883566Y-117527050D01*
X137867107Y-117547107D01*
X137811564Y-117592689D01*
X137762311Y-117637590D01*
X137740081Y-117651354D01*
X137715570Y-117671470D01*
X137657233Y-117702651D01*
X137605501Y-117734683D01*
X137575727Y-117746217D01*
X137542683Y-117763880D01*
X137484856Y-117781421D01*
X137433518Y-117801310D01*
X137396445Y-117808240D01*
X137355090Y-117820785D01*
X137300655Y-117826146D01*
X137252218Y-117835201D01*
X137208724Y-117835201D01*
X137160000Y-117840000D01*
X137111276Y-117835201D01*
X137067782Y-117835201D01*
X137019343Y-117826146D01*
X136964910Y-117820785D01*
X136923555Y-117808240D01*
X136886481Y-117801310D01*
X136835139Y-117781419D01*
X136777317Y-117763880D01*
X136744275Y-117746218D01*
X136714498Y-117734683D01*
X136662759Y-117702647D01*
X136604430Y-117671470D01*
X136579921Y-117651356D01*
X136557688Y-117637590D01*
X136508425Y-117592681D01*
X136452893Y-117547107D01*
X136436436Y-117527054D01*
X136421388Y-117513336D01*
X136377699Y-117455482D01*
X136328530Y-117395570D01*
X136319022Y-117377783D01*
X136310237Y-117366149D01*
X136275279Y-117295945D01*
X136236120Y-117222683D01*
X136231943Y-117208916D01*
X136228027Y-117201050D01*
X136204882Y-117119706D01*
X136179215Y-117035090D01*
X136178371Y-117026530D01*
X136177553Y-117023652D01*
X136169040Y-116931788D01*
X136160000Y-116840000D01*
X136169039Y-116748219D01*
X136177553Y-116656347D01*
X136178372Y-116653468D01*
X136179215Y-116644910D01*
X136204878Y-116560308D01*
X136228027Y-116478949D01*
X136231944Y-116471081D01*
X136236120Y-116457317D01*
X136275272Y-116384068D01*
X136310237Y-116313850D01*
X136319024Y-116302213D01*
X136328530Y-116284430D01*
X136377689Y-116224528D01*
X136421388Y-116166663D01*
X136436439Y-116152941D01*
X136452893Y-116132893D01*
X136508414Y-116087327D01*
X136557688Y-116042409D01*
X136579926Y-116028639D01*
X136604430Y-116008530D01*
X136662747Y-115977358D01*
X136714498Y-115945316D01*
X136744282Y-115933777D01*
X136777317Y-115916120D01*
X136835127Y-115898583D01*
X136886481Y-115878689D01*
X136923562Y-115871757D01*
X136964910Y-115859215D01*
X137019340Y-115853853D01*
X137067782Y-115844799D01*
X137111276Y-115844799D01*
X137160000Y-115840000D01*
X137208724Y-115844799D01*
G37*
G36*
X144828724Y-115844799D02*
G01*
X144872218Y-115844799D01*
X144920658Y-115853853D01*
X144975090Y-115859215D01*
X145016438Y-115871757D01*
X145053518Y-115878689D01*
X145104868Y-115898582D01*
X145162683Y-115916120D01*
X145195720Y-115933778D01*
X145225501Y-115945316D01*
X145277245Y-115977354D01*
X145335570Y-116008530D01*
X145360076Y-116028641D01*
X145382311Y-116042409D01*
X145431575Y-116087319D01*
X145487107Y-116132893D01*
X145503563Y-116152945D01*
X145518611Y-116166663D01*
X145562297Y-116224513D01*
X145611470Y-116284430D01*
X145620977Y-116302218D01*
X145629762Y-116313850D01*
X145664713Y-116384040D01*
X145703880Y-116457317D01*
X145708056Y-116471086D01*
X145711972Y-116478949D01*
X145735105Y-116560255D01*
X145760785Y-116644910D01*
X145761628Y-116653473D01*
X145762446Y-116656347D01*
X145770943Y-116748047D01*
X145780000Y-116840000D01*
X145770942Y-116931960D01*
X145762446Y-117023652D01*
X145761628Y-117026524D01*
X145760785Y-117035090D01*
X145735100Y-117119759D01*
X145711972Y-117201050D01*
X145708057Y-117208911D01*
X145703880Y-117222683D01*
X145664705Y-117295972D01*
X145629762Y-117366149D01*
X145620979Y-117377778D01*
X145611470Y-117395570D01*
X145562288Y-117455498D01*
X145518611Y-117513336D01*
X145503566Y-117527050D01*
X145487107Y-117547107D01*
X145431564Y-117592689D01*
X145382311Y-117637590D01*
X145360081Y-117651354D01*
X145335570Y-117671470D01*
X145277233Y-117702651D01*
X145225501Y-117734683D01*
X145195727Y-117746217D01*
X145162683Y-117763880D01*
X145104856Y-117781421D01*
X145053518Y-117801310D01*
X145016445Y-117808240D01*
X144975090Y-117820785D01*
X144920655Y-117826146D01*
X144872218Y-117835201D01*
X144828724Y-117835201D01*
X144780000Y-117840000D01*
X144731276Y-117835201D01*
X144687782Y-117835201D01*
X144639343Y-117826146D01*
X144584910Y-117820785D01*
X144543555Y-117808240D01*
X144506481Y-117801310D01*
X144455139Y-117781419D01*
X144397317Y-117763880D01*
X144364275Y-117746218D01*
X144334498Y-117734683D01*
X144282759Y-117702647D01*
X144224430Y-117671470D01*
X144199921Y-117651356D01*
X144177688Y-117637590D01*
X144128425Y-117592681D01*
X144072893Y-117547107D01*
X144056436Y-117527054D01*
X144041388Y-117513336D01*
X143997699Y-117455482D01*
X143948530Y-117395570D01*
X143939022Y-117377783D01*
X143930237Y-117366149D01*
X143895279Y-117295945D01*
X143856120Y-117222683D01*
X143851943Y-117208916D01*
X143848027Y-117201050D01*
X143824882Y-117119706D01*
X143799215Y-117035090D01*
X143798371Y-117026530D01*
X143797553Y-117023652D01*
X143789040Y-116931788D01*
X143780000Y-116840000D01*
X143789039Y-116748219D01*
X143797553Y-116656347D01*
X143798372Y-116653468D01*
X143799215Y-116644910D01*
X143824878Y-116560308D01*
X143848027Y-116478949D01*
X143851944Y-116471081D01*
X143856120Y-116457317D01*
X143895272Y-116384068D01*
X143930237Y-116313850D01*
X143939024Y-116302213D01*
X143948530Y-116284430D01*
X143997689Y-116224528D01*
X144041388Y-116166663D01*
X144056439Y-116152941D01*
X144072893Y-116132893D01*
X144128414Y-116087327D01*
X144177688Y-116042409D01*
X144199926Y-116028639D01*
X144224430Y-116008530D01*
X144282747Y-115977358D01*
X144334498Y-115945316D01*
X144364282Y-115933777D01*
X144397317Y-115916120D01*
X144455127Y-115898583D01*
X144506481Y-115878689D01*
X144543562Y-115871757D01*
X144584910Y-115859215D01*
X144639340Y-115853853D01*
X144687782Y-115844799D01*
X144731276Y-115844799D01*
X144780000Y-115840000D01*
X144828724Y-115844799D01*
G37*
G36*
X151642043Y-114877191D02*
G01*
X151674727Y-114881494D01*
X151682948Y-114885327D01*
X151702537Y-114889224D01*
X151728480Y-114906559D01*
X151739608Y-114911748D01*
X151746378Y-114918518D01*
X151767421Y-114932579D01*
X151781481Y-114953621D01*
X151788251Y-114960391D01*
X151793438Y-114971516D01*
X151810776Y-114997463D01*
X151814672Y-115017053D01*
X151818505Y-115025272D01*
X151822806Y-115057945D01*
X151826000Y-115074000D01*
X151826000Y-116574000D01*
X151822805Y-116590058D01*
X151818505Y-116622727D01*
X151814673Y-116630944D01*
X151810776Y-116650537D01*
X151793437Y-116676485D01*
X151788251Y-116687608D01*
X151781483Y-116694375D01*
X151767421Y-116715421D01*
X151746375Y-116729483D01*
X151739608Y-116736251D01*
X151728485Y-116741437D01*
X151702537Y-116758776D01*
X151682944Y-116762673D01*
X151674727Y-116766505D01*
X151642056Y-116770806D01*
X151626000Y-116774000D01*
X150126000Y-116774000D01*
X150109943Y-116770806D01*
X150077272Y-116766505D01*
X150069053Y-116762672D01*
X150049463Y-116758776D01*
X150023516Y-116741438D01*
X150012391Y-116736251D01*
X150005621Y-116729481D01*
X149984579Y-116715421D01*
X149970518Y-116694378D01*
X149963748Y-116687608D01*
X149958559Y-116676480D01*
X149941224Y-116650537D01*
X149937327Y-116630948D01*
X149933494Y-116622727D01*
X149929190Y-116590041D01*
X149926000Y-116574000D01*
X149926000Y-115074000D01*
X149929190Y-115057958D01*
X149933494Y-115025272D01*
X149937327Y-115017049D01*
X149941224Y-114997463D01*
X149958557Y-114971521D01*
X149963748Y-114960391D01*
X149970520Y-114953618D01*
X149984579Y-114932579D01*
X150005618Y-114918520D01*
X150012391Y-114911748D01*
X150023521Y-114906557D01*
X150049463Y-114889224D01*
X150069049Y-114885327D01*
X150077272Y-114881494D01*
X150109960Y-114877190D01*
X150126000Y-114874000D01*
X151626000Y-114874000D01*
X151642043Y-114877191D01*
G37*
G36*
X137208724Y-111780799D02*
G01*
X137252218Y-111780799D01*
X137300658Y-111789853D01*
X137355090Y-111795215D01*
X137396438Y-111807757D01*
X137433518Y-111814689D01*
X137484868Y-111834582D01*
X137542683Y-111852120D01*
X137575720Y-111869778D01*
X137605501Y-111881316D01*
X137657245Y-111913354D01*
X137715570Y-111944530D01*
X137740076Y-111964641D01*
X137762311Y-111978409D01*
X137811575Y-112023319D01*
X137867107Y-112068893D01*
X137883563Y-112088945D01*
X137898611Y-112102663D01*
X137942297Y-112160513D01*
X137991470Y-112220430D01*
X138000977Y-112238218D01*
X138009762Y-112249850D01*
X138044713Y-112320040D01*
X138083880Y-112393317D01*
X138088056Y-112407086D01*
X138091972Y-112414949D01*
X138115105Y-112496255D01*
X138140785Y-112580910D01*
X138141628Y-112589473D01*
X138142446Y-112592347D01*
X138150943Y-112684047D01*
X138160000Y-112776000D01*
X138150942Y-112867960D01*
X138142446Y-112959652D01*
X138141628Y-112962524D01*
X138140785Y-112971090D01*
X138115100Y-113055759D01*
X138091972Y-113137050D01*
X138088057Y-113144911D01*
X138083880Y-113158683D01*
X138044705Y-113231972D01*
X138009762Y-113302149D01*
X138000979Y-113313778D01*
X137991470Y-113331570D01*
X137942288Y-113391498D01*
X137898611Y-113449336D01*
X137883566Y-113463050D01*
X137867107Y-113483107D01*
X137811564Y-113528689D01*
X137762311Y-113573590D01*
X137740081Y-113587354D01*
X137715570Y-113607470D01*
X137657233Y-113638651D01*
X137605501Y-113670683D01*
X137575727Y-113682217D01*
X137542683Y-113699880D01*
X137484856Y-113717421D01*
X137433518Y-113737310D01*
X137396445Y-113744240D01*
X137355090Y-113756785D01*
X137300655Y-113762146D01*
X137252218Y-113771201D01*
X137208724Y-113771201D01*
X137160000Y-113776000D01*
X137111276Y-113771201D01*
X137067782Y-113771201D01*
X137019343Y-113762146D01*
X136964910Y-113756785D01*
X136923555Y-113744240D01*
X136886481Y-113737310D01*
X136835139Y-113717419D01*
X136777317Y-113699880D01*
X136744275Y-113682218D01*
X136714498Y-113670683D01*
X136662759Y-113638647D01*
X136604430Y-113607470D01*
X136579921Y-113587356D01*
X136557688Y-113573590D01*
X136508425Y-113528681D01*
X136452893Y-113483107D01*
X136436436Y-113463054D01*
X136421388Y-113449336D01*
X136377699Y-113391482D01*
X136328530Y-113331570D01*
X136319022Y-113313783D01*
X136310237Y-113302149D01*
X136275279Y-113231945D01*
X136236120Y-113158683D01*
X136231943Y-113144916D01*
X136228027Y-113137050D01*
X136204882Y-113055706D01*
X136179215Y-112971090D01*
X136178371Y-112962530D01*
X136177553Y-112959652D01*
X136169040Y-112867788D01*
X136160000Y-112776000D01*
X136169039Y-112684219D01*
X136177553Y-112592347D01*
X136178372Y-112589468D01*
X136179215Y-112580910D01*
X136204878Y-112496308D01*
X136228027Y-112414949D01*
X136231944Y-112407081D01*
X136236120Y-112393317D01*
X136275272Y-112320068D01*
X136310237Y-112249850D01*
X136319024Y-112238213D01*
X136328530Y-112220430D01*
X136377689Y-112160528D01*
X136421388Y-112102663D01*
X136436439Y-112088941D01*
X136452893Y-112068893D01*
X136508414Y-112023327D01*
X136557688Y-111978409D01*
X136579926Y-111964639D01*
X136604430Y-111944530D01*
X136662747Y-111913358D01*
X136714498Y-111881316D01*
X136744282Y-111869777D01*
X136777317Y-111852120D01*
X136835127Y-111834583D01*
X136886481Y-111814689D01*
X136923562Y-111807757D01*
X136964910Y-111795215D01*
X137019340Y-111789853D01*
X137067782Y-111780799D01*
X137111276Y-111780799D01*
X137160000Y-111776000D01*
X137208724Y-111780799D01*
G37*
G36*
X142208724Y-111780799D02*
G01*
X142252218Y-111780799D01*
X142300658Y-111789853D01*
X142355090Y-111795215D01*
X142396438Y-111807757D01*
X142433518Y-111814689D01*
X142484868Y-111834582D01*
X142542683Y-111852120D01*
X142575720Y-111869778D01*
X142605501Y-111881316D01*
X142657245Y-111913354D01*
X142715570Y-111944530D01*
X142740076Y-111964641D01*
X142762311Y-111978409D01*
X142811575Y-112023319D01*
X142867107Y-112068893D01*
X142883563Y-112088945D01*
X142898611Y-112102663D01*
X142942297Y-112160513D01*
X142991470Y-112220430D01*
X143000977Y-112238218D01*
X143009762Y-112249850D01*
X143044713Y-112320040D01*
X143083880Y-112393317D01*
X143088056Y-112407086D01*
X143091972Y-112414949D01*
X143115105Y-112496255D01*
X143140785Y-112580910D01*
X143141628Y-112589473D01*
X143142446Y-112592347D01*
X143150943Y-112684047D01*
X143160000Y-112776000D01*
X143150942Y-112867960D01*
X143142446Y-112959652D01*
X143141628Y-112962524D01*
X143140785Y-112971090D01*
X143115100Y-113055759D01*
X143091972Y-113137050D01*
X143088057Y-113144911D01*
X143083880Y-113158683D01*
X143044705Y-113231972D01*
X143009762Y-113302149D01*
X143000979Y-113313778D01*
X142991470Y-113331570D01*
X142942288Y-113391498D01*
X142898611Y-113449336D01*
X142883566Y-113463050D01*
X142867107Y-113483107D01*
X142811564Y-113528689D01*
X142762311Y-113573590D01*
X142740081Y-113587354D01*
X142715570Y-113607470D01*
X142657233Y-113638651D01*
X142605501Y-113670683D01*
X142575727Y-113682217D01*
X142542683Y-113699880D01*
X142484856Y-113717421D01*
X142433518Y-113737310D01*
X142396445Y-113744240D01*
X142355090Y-113756785D01*
X142300655Y-113762146D01*
X142252218Y-113771201D01*
X142208724Y-113771201D01*
X142160000Y-113776000D01*
X142111276Y-113771201D01*
X142067782Y-113771201D01*
X142019343Y-113762146D01*
X141964910Y-113756785D01*
X141923555Y-113744240D01*
X141886481Y-113737310D01*
X141835139Y-113717419D01*
X141777317Y-113699880D01*
X141744275Y-113682218D01*
X141714498Y-113670683D01*
X141662759Y-113638647D01*
X141604430Y-113607470D01*
X141579921Y-113587356D01*
X141557688Y-113573590D01*
X141508425Y-113528681D01*
X141452893Y-113483107D01*
X141436436Y-113463054D01*
X141421388Y-113449336D01*
X141377699Y-113391482D01*
X141328530Y-113331570D01*
X141319022Y-113313783D01*
X141310237Y-113302149D01*
X141275279Y-113231945D01*
X141236120Y-113158683D01*
X141231943Y-113144916D01*
X141228027Y-113137050D01*
X141204882Y-113055706D01*
X141179215Y-112971090D01*
X141178371Y-112962530D01*
X141177553Y-112959652D01*
X141169040Y-112867788D01*
X141160000Y-112776000D01*
X141169039Y-112684219D01*
X141177553Y-112592347D01*
X141178372Y-112589468D01*
X141179215Y-112580910D01*
X141204878Y-112496308D01*
X141228027Y-112414949D01*
X141231944Y-112407081D01*
X141236120Y-112393317D01*
X141275272Y-112320068D01*
X141310237Y-112249850D01*
X141319024Y-112238213D01*
X141328530Y-112220430D01*
X141377689Y-112160528D01*
X141421388Y-112102663D01*
X141436439Y-112088941D01*
X141452893Y-112068893D01*
X141508414Y-112023327D01*
X141557688Y-111978409D01*
X141579926Y-111964639D01*
X141604430Y-111944530D01*
X141662747Y-111913358D01*
X141714498Y-111881316D01*
X141744282Y-111869777D01*
X141777317Y-111852120D01*
X141835127Y-111834583D01*
X141886481Y-111814689D01*
X141923562Y-111807757D01*
X141964910Y-111795215D01*
X142019340Y-111789853D01*
X142067782Y-111780799D01*
X142111276Y-111780799D01*
X142160000Y-111776000D01*
X142208724Y-111780799D01*
G37*
G36*
X150922562Y-111322586D02*
G01*
X150963604Y-111322586D01*
X151009313Y-111331130D01*
X151061336Y-111336254D01*
X151100852Y-111348241D01*
X151135834Y-111354780D01*
X151184283Y-111373549D01*
X151239549Y-111390314D01*
X151271128Y-111407193D01*
X151299214Y-111418074D01*
X151348016Y-111448291D01*
X151403792Y-111478104D01*
X151427225Y-111497335D01*
X151448180Y-111510310D01*
X151494612Y-111552639D01*
X151547751Y-111596249D01*
X151563498Y-111615436D01*
X151577661Y-111628348D01*
X151618775Y-111682791D01*
X151665896Y-111740208D01*
X151675007Y-111757255D01*
X151683249Y-111768168D01*
X151716031Y-111834005D01*
X151753686Y-111904451D01*
X151757702Y-111917691D01*
X151761350Y-111925017D01*
X151782897Y-112000749D01*
X151807746Y-112082664D01*
X151808562Y-112090951D01*
X151809297Y-112093534D01*
X151816938Y-112175994D01*
X151826000Y-112268000D01*
X151816937Y-112360013D01*
X151809297Y-112442465D01*
X151808562Y-112445046D01*
X151807746Y-112453336D01*
X151782893Y-112535265D01*
X151761350Y-112610982D01*
X151757703Y-112618305D01*
X151753686Y-112631549D01*
X151716024Y-112702008D01*
X151683249Y-112767831D01*
X151675009Y-112778741D01*
X151665896Y-112795792D01*
X151618765Y-112853219D01*
X151577661Y-112907651D01*
X151563501Y-112920559D01*
X151547751Y-112939751D01*
X151494601Y-112983369D01*
X151448180Y-113025689D01*
X151427230Y-113038660D01*
X151403792Y-113057896D01*
X151348004Y-113087715D01*
X151299214Y-113117925D01*
X151271134Y-113128802D01*
X151239549Y-113145686D01*
X151184271Y-113162454D01*
X151135834Y-113181219D01*
X151100859Y-113187756D01*
X151061336Y-113199746D01*
X151009310Y-113204870D01*
X150963604Y-113213414D01*
X150922562Y-113213414D01*
X150876000Y-113218000D01*
X150829438Y-113213414D01*
X150788396Y-113213414D01*
X150742688Y-113204869D01*
X150690664Y-113199746D01*
X150651142Y-113187757D01*
X150616165Y-113181219D01*
X150567723Y-113162452D01*
X150512451Y-113145686D01*
X150480867Y-113128804D01*
X150452785Y-113117925D01*
X150403988Y-113087711D01*
X150348208Y-113057896D01*
X150324772Y-113038663D01*
X150303819Y-113025689D01*
X150257388Y-112983361D01*
X150204249Y-112939751D01*
X150188501Y-112920562D01*
X150174338Y-112907651D01*
X150133221Y-112853204D01*
X150086104Y-112795792D01*
X150076992Y-112778746D01*
X150068750Y-112767831D01*
X150035960Y-112701981D01*
X149998314Y-112631549D01*
X149994298Y-112618310D01*
X149990649Y-112610982D01*
X149969090Y-112535212D01*
X149944254Y-112453336D01*
X149943438Y-112445052D01*
X149942702Y-112442465D01*
X149935045Y-112359841D01*
X149926000Y-112268000D01*
X149935044Y-112176166D01*
X149942702Y-112093534D01*
X149943438Y-112090946D01*
X149944254Y-112082664D01*
X149969086Y-112000802D01*
X149990649Y-111925017D01*
X149994298Y-111917686D01*
X149998314Y-111904451D01*
X150035953Y-111834032D01*
X150068750Y-111768168D01*
X150076994Y-111757250D01*
X150086104Y-111740208D01*
X150133212Y-111682806D01*
X150174338Y-111628348D01*
X150188504Y-111615433D01*
X150204249Y-111596249D01*
X150257377Y-111552647D01*
X150303819Y-111510310D01*
X150324777Y-111497332D01*
X150348208Y-111478104D01*
X150403976Y-111448295D01*
X150452785Y-111418074D01*
X150480874Y-111407191D01*
X150512451Y-111390314D01*
X150567712Y-111373550D01*
X150616165Y-111354780D01*
X150651149Y-111348240D01*
X150690664Y-111336254D01*
X150742685Y-111331130D01*
X150788396Y-111322586D01*
X150829438Y-111322586D01*
X150876000Y-111318000D01*
X150922562Y-111322586D01*
G37*
G36*
X150922562Y-108782586D02*
G01*
X150963604Y-108782586D01*
X151009313Y-108791130D01*
X151061336Y-108796254D01*
X151100852Y-108808241D01*
X151135834Y-108814780D01*
X151184283Y-108833549D01*
X151239549Y-108850314D01*
X151271128Y-108867193D01*
X151299214Y-108878074D01*
X151348016Y-108908291D01*
X151403792Y-108938104D01*
X151427225Y-108957335D01*
X151448180Y-108970310D01*
X151494612Y-109012639D01*
X151547751Y-109056249D01*
X151563498Y-109075436D01*
X151577661Y-109088348D01*
X151618775Y-109142791D01*
X151665896Y-109200208D01*
X151675007Y-109217255D01*
X151683249Y-109228168D01*
X151716031Y-109294005D01*
X151753686Y-109364451D01*
X151757702Y-109377691D01*
X151761350Y-109385017D01*
X151782897Y-109460749D01*
X151807746Y-109542664D01*
X151808562Y-109550951D01*
X151809297Y-109553534D01*
X151816938Y-109635994D01*
X151826000Y-109728000D01*
X151816937Y-109820013D01*
X151809297Y-109902465D01*
X151808562Y-109905046D01*
X151807746Y-109913336D01*
X151782893Y-109995265D01*
X151761350Y-110070982D01*
X151757703Y-110078305D01*
X151753686Y-110091549D01*
X151716024Y-110162008D01*
X151683249Y-110227831D01*
X151675009Y-110238741D01*
X151665896Y-110255792D01*
X151618765Y-110313219D01*
X151577661Y-110367651D01*
X151563501Y-110380559D01*
X151547751Y-110399751D01*
X151494601Y-110443369D01*
X151448180Y-110485689D01*
X151427230Y-110498660D01*
X151403792Y-110517896D01*
X151348004Y-110547715D01*
X151299214Y-110577925D01*
X151271134Y-110588802D01*
X151239549Y-110605686D01*
X151184271Y-110622454D01*
X151135834Y-110641219D01*
X151100859Y-110647756D01*
X151061336Y-110659746D01*
X151009310Y-110664870D01*
X150963604Y-110673414D01*
X150922562Y-110673414D01*
X150876000Y-110678000D01*
X150829438Y-110673414D01*
X150788396Y-110673414D01*
X150742688Y-110664869D01*
X150690664Y-110659746D01*
X150651142Y-110647757D01*
X150616165Y-110641219D01*
X150567723Y-110622452D01*
X150512451Y-110605686D01*
X150480867Y-110588804D01*
X150452785Y-110577925D01*
X150403988Y-110547711D01*
X150348208Y-110517896D01*
X150324772Y-110498663D01*
X150303819Y-110485689D01*
X150257388Y-110443361D01*
X150204249Y-110399751D01*
X150188501Y-110380562D01*
X150174338Y-110367651D01*
X150133221Y-110313204D01*
X150086104Y-110255792D01*
X150076992Y-110238746D01*
X150068750Y-110227831D01*
X150035960Y-110161981D01*
X149998314Y-110091549D01*
X149994298Y-110078310D01*
X149990649Y-110070982D01*
X149969090Y-109995212D01*
X149944254Y-109913336D01*
X149943438Y-109905052D01*
X149942702Y-109902465D01*
X149935045Y-109819841D01*
X149926000Y-109728000D01*
X149935044Y-109636166D01*
X149942702Y-109553534D01*
X149943438Y-109550946D01*
X149944254Y-109542664D01*
X149969086Y-109460802D01*
X149990649Y-109385017D01*
X149994298Y-109377686D01*
X149998314Y-109364451D01*
X150035953Y-109294032D01*
X150068750Y-109228168D01*
X150076994Y-109217250D01*
X150086104Y-109200208D01*
X150133212Y-109142806D01*
X150174338Y-109088348D01*
X150188504Y-109075433D01*
X150204249Y-109056249D01*
X150257377Y-109012647D01*
X150303819Y-108970310D01*
X150324777Y-108957332D01*
X150348208Y-108938104D01*
X150403976Y-108908295D01*
X150452785Y-108878074D01*
X150480874Y-108867191D01*
X150512451Y-108850314D01*
X150567712Y-108833550D01*
X150616165Y-108814780D01*
X150651149Y-108808240D01*
X150690664Y-108796254D01*
X150742685Y-108791130D01*
X150788396Y-108782586D01*
X150829438Y-108782586D01*
X150876000Y-108778000D01*
X150922562Y-108782586D01*
G37*
G36*
X137288724Y-106700799D02*
G01*
X137332218Y-106700799D01*
X137380658Y-106709853D01*
X137435090Y-106715215D01*
X137476438Y-106727757D01*
X137513518Y-106734689D01*
X137564868Y-106754582D01*
X137622683Y-106772120D01*
X137655720Y-106789778D01*
X137685501Y-106801316D01*
X137737245Y-106833354D01*
X137795570Y-106864530D01*
X137820076Y-106884641D01*
X137842311Y-106898409D01*
X137891575Y-106943319D01*
X137947107Y-106988893D01*
X137963563Y-107008945D01*
X137978611Y-107022663D01*
X138022297Y-107080513D01*
X138071470Y-107140430D01*
X138080977Y-107158218D01*
X138089762Y-107169850D01*
X138124713Y-107240040D01*
X138163880Y-107313317D01*
X138168056Y-107327086D01*
X138171972Y-107334949D01*
X138195105Y-107416255D01*
X138220785Y-107500910D01*
X138221628Y-107509473D01*
X138222446Y-107512347D01*
X138230943Y-107604047D01*
X138240000Y-107696000D01*
X138230942Y-107787960D01*
X138222446Y-107879652D01*
X138221628Y-107882524D01*
X138220785Y-107891090D01*
X138195100Y-107975759D01*
X138171972Y-108057050D01*
X138168057Y-108064911D01*
X138163880Y-108078683D01*
X138124705Y-108151972D01*
X138089762Y-108222149D01*
X138080979Y-108233778D01*
X138071470Y-108251570D01*
X138022288Y-108311498D01*
X137978611Y-108369336D01*
X137963566Y-108383050D01*
X137947107Y-108403107D01*
X137891564Y-108448689D01*
X137842311Y-108493590D01*
X137820081Y-108507354D01*
X137795570Y-108527470D01*
X137737233Y-108558651D01*
X137685501Y-108590683D01*
X137655727Y-108602217D01*
X137622683Y-108619880D01*
X137564856Y-108637421D01*
X137513518Y-108657310D01*
X137476445Y-108664240D01*
X137435090Y-108676785D01*
X137380655Y-108682146D01*
X137332218Y-108691201D01*
X137288724Y-108691201D01*
X137240000Y-108696000D01*
X137191276Y-108691201D01*
X137147782Y-108691201D01*
X137099343Y-108682146D01*
X137044910Y-108676785D01*
X137003555Y-108664240D01*
X136966481Y-108657310D01*
X136915139Y-108637419D01*
X136857317Y-108619880D01*
X136824275Y-108602218D01*
X136794498Y-108590683D01*
X136742759Y-108558647D01*
X136684430Y-108527470D01*
X136659921Y-108507356D01*
X136637688Y-108493590D01*
X136588425Y-108448681D01*
X136532893Y-108403107D01*
X136516436Y-108383054D01*
X136501388Y-108369336D01*
X136457699Y-108311482D01*
X136408530Y-108251570D01*
X136399022Y-108233783D01*
X136390237Y-108222149D01*
X136355279Y-108151945D01*
X136316120Y-108078683D01*
X136311943Y-108064916D01*
X136308027Y-108057050D01*
X136284882Y-107975706D01*
X136259215Y-107891090D01*
X136258371Y-107882530D01*
X136257553Y-107879652D01*
X136249040Y-107787788D01*
X136240000Y-107696000D01*
X136249039Y-107604219D01*
X136257553Y-107512347D01*
X136258372Y-107509468D01*
X136259215Y-107500910D01*
X136284878Y-107416308D01*
X136308027Y-107334949D01*
X136311944Y-107327081D01*
X136316120Y-107313317D01*
X136355272Y-107240068D01*
X136390237Y-107169850D01*
X136399024Y-107158213D01*
X136408530Y-107140430D01*
X136457689Y-107080528D01*
X136501388Y-107022663D01*
X136516439Y-107008941D01*
X136532893Y-106988893D01*
X136588414Y-106943327D01*
X136637688Y-106898409D01*
X136659926Y-106884639D01*
X136684430Y-106864530D01*
X136742747Y-106833358D01*
X136794498Y-106801316D01*
X136824282Y-106789777D01*
X136857317Y-106772120D01*
X136915127Y-106754583D01*
X136966481Y-106734689D01*
X137003562Y-106727757D01*
X137044910Y-106715215D01*
X137099340Y-106709853D01*
X137147782Y-106700799D01*
X137191276Y-106700799D01*
X137240000Y-106696000D01*
X137288724Y-106700799D01*
G37*
G36*
X142288724Y-106700799D02*
G01*
X142332218Y-106700799D01*
X142380658Y-106709853D01*
X142435090Y-106715215D01*
X142476438Y-106727757D01*
X142513518Y-106734689D01*
X142564868Y-106754582D01*
X142622683Y-106772120D01*
X142655720Y-106789778D01*
X142685501Y-106801316D01*
X142737245Y-106833354D01*
X142795570Y-106864530D01*
X142820076Y-106884641D01*
X142842311Y-106898409D01*
X142891575Y-106943319D01*
X142947107Y-106988893D01*
X142963563Y-107008945D01*
X142978611Y-107022663D01*
X143022297Y-107080513D01*
X143071470Y-107140430D01*
X143080977Y-107158218D01*
X143089762Y-107169850D01*
X143124713Y-107240040D01*
X143163880Y-107313317D01*
X143168056Y-107327086D01*
X143171972Y-107334949D01*
X143195105Y-107416255D01*
X143220785Y-107500910D01*
X143221628Y-107509473D01*
X143222446Y-107512347D01*
X143230943Y-107604047D01*
X143240000Y-107696000D01*
X143230942Y-107787960D01*
X143222446Y-107879652D01*
X143221628Y-107882524D01*
X143220785Y-107891090D01*
X143195100Y-107975759D01*
X143171972Y-108057050D01*
X143168057Y-108064911D01*
X143163880Y-108078683D01*
X143124705Y-108151972D01*
X143089762Y-108222149D01*
X143080979Y-108233778D01*
X143071470Y-108251570D01*
X143022288Y-108311498D01*
X142978611Y-108369336D01*
X142963566Y-108383050D01*
X142947107Y-108403107D01*
X142891564Y-108448689D01*
X142842311Y-108493590D01*
X142820081Y-108507354D01*
X142795570Y-108527470D01*
X142737233Y-108558651D01*
X142685501Y-108590683D01*
X142655727Y-108602217D01*
X142622683Y-108619880D01*
X142564856Y-108637421D01*
X142513518Y-108657310D01*
X142476445Y-108664240D01*
X142435090Y-108676785D01*
X142380655Y-108682146D01*
X142332218Y-108691201D01*
X142288724Y-108691201D01*
X142240000Y-108696000D01*
X142191276Y-108691201D01*
X142147782Y-108691201D01*
X142099343Y-108682146D01*
X142044910Y-108676785D01*
X142003555Y-108664240D01*
X141966481Y-108657310D01*
X141915139Y-108637419D01*
X141857317Y-108619880D01*
X141824275Y-108602218D01*
X141794498Y-108590683D01*
X141742759Y-108558647D01*
X141684430Y-108527470D01*
X141659921Y-108507356D01*
X141637688Y-108493590D01*
X141588425Y-108448681D01*
X141532893Y-108403107D01*
X141516436Y-108383054D01*
X141501388Y-108369336D01*
X141457699Y-108311482D01*
X141408530Y-108251570D01*
X141399022Y-108233783D01*
X141390237Y-108222149D01*
X141355279Y-108151945D01*
X141316120Y-108078683D01*
X141311943Y-108064916D01*
X141308027Y-108057050D01*
X141284882Y-107975706D01*
X141259215Y-107891090D01*
X141258371Y-107882530D01*
X141257553Y-107879652D01*
X141249040Y-107787788D01*
X141240000Y-107696000D01*
X141249039Y-107604219D01*
X141257553Y-107512347D01*
X141258372Y-107509468D01*
X141259215Y-107500910D01*
X141284878Y-107416308D01*
X141308027Y-107334949D01*
X141311944Y-107327081D01*
X141316120Y-107313317D01*
X141355272Y-107240068D01*
X141390237Y-107169850D01*
X141399024Y-107158213D01*
X141408530Y-107140430D01*
X141457689Y-107080528D01*
X141501388Y-107022663D01*
X141516439Y-107008941D01*
X141532893Y-106988893D01*
X141588414Y-106943327D01*
X141637688Y-106898409D01*
X141659926Y-106884639D01*
X141684430Y-106864530D01*
X141742747Y-106833358D01*
X141794498Y-106801316D01*
X141824282Y-106789777D01*
X141857317Y-106772120D01*
X141915127Y-106754583D01*
X141966481Y-106734689D01*
X142003562Y-106727757D01*
X142044910Y-106715215D01*
X142099340Y-106709853D01*
X142147782Y-106700799D01*
X142191276Y-106700799D01*
X142240000Y-106696000D01*
X142288724Y-106700799D01*
G37*
G36*
X151642043Y-106241191D02*
G01*
X151674727Y-106245494D01*
X151682948Y-106249327D01*
X151702537Y-106253224D01*
X151728480Y-106270559D01*
X151739608Y-106275748D01*
X151746378Y-106282518D01*
X151767421Y-106296579D01*
X151781481Y-106317621D01*
X151788251Y-106324391D01*
X151793438Y-106335516D01*
X151810776Y-106361463D01*
X151814672Y-106381053D01*
X151818505Y-106389272D01*
X151822806Y-106421945D01*
X151826000Y-106438000D01*
X151826000Y-107938000D01*
X151822805Y-107954058D01*
X151818505Y-107986727D01*
X151814673Y-107994944D01*
X151810776Y-108014537D01*
X151793437Y-108040485D01*
X151788251Y-108051608D01*
X151781483Y-108058375D01*
X151767421Y-108079421D01*
X151746375Y-108093483D01*
X151739608Y-108100251D01*
X151728485Y-108105437D01*
X151702537Y-108122776D01*
X151682944Y-108126673D01*
X151674727Y-108130505D01*
X151642056Y-108134806D01*
X151626000Y-108138000D01*
X150126000Y-108138000D01*
X150109943Y-108134806D01*
X150077272Y-108130505D01*
X150069053Y-108126672D01*
X150049463Y-108122776D01*
X150023516Y-108105438D01*
X150012391Y-108100251D01*
X150005621Y-108093481D01*
X149984579Y-108079421D01*
X149970518Y-108058378D01*
X149963748Y-108051608D01*
X149958559Y-108040480D01*
X149941224Y-108014537D01*
X149937327Y-107994948D01*
X149933494Y-107986727D01*
X149929190Y-107954041D01*
X149926000Y-107938000D01*
X149926000Y-106438000D01*
X149929190Y-106421958D01*
X149933494Y-106389272D01*
X149937327Y-106381049D01*
X149941224Y-106361463D01*
X149958557Y-106335521D01*
X149963748Y-106324391D01*
X149970520Y-106317618D01*
X149984579Y-106296579D01*
X150005618Y-106282520D01*
X150012391Y-106275748D01*
X150023521Y-106270557D01*
X150049463Y-106253224D01*
X150069049Y-106249327D01*
X150077272Y-106245494D01*
X150109960Y-106241190D01*
X150126000Y-106238000D01*
X151626000Y-106238000D01*
X151642043Y-106241191D01*
G37*
G36*
X137208724Y-102128799D02*
G01*
X137252218Y-102128799D01*
X137300658Y-102137853D01*
X137355090Y-102143215D01*
X137396438Y-102155757D01*
X137433518Y-102162689D01*
X137484868Y-102182582D01*
X137542683Y-102200120D01*
X137575720Y-102217778D01*
X137605501Y-102229316D01*
X137657245Y-102261354D01*
X137715570Y-102292530D01*
X137740076Y-102312641D01*
X137762311Y-102326409D01*
X137811575Y-102371319D01*
X137867107Y-102416893D01*
X137883563Y-102436945D01*
X137898611Y-102450663D01*
X137942297Y-102508513D01*
X137991470Y-102568430D01*
X138000977Y-102586218D01*
X138009762Y-102597850D01*
X138044713Y-102668040D01*
X138083880Y-102741317D01*
X138088056Y-102755086D01*
X138091972Y-102762949D01*
X138115105Y-102844255D01*
X138140785Y-102928910D01*
X138141628Y-102937473D01*
X138142446Y-102940347D01*
X138150943Y-103032047D01*
X138160000Y-103124000D01*
X138150942Y-103215960D01*
X138142446Y-103307652D01*
X138141628Y-103310524D01*
X138140785Y-103319090D01*
X138115100Y-103403759D01*
X138091972Y-103485050D01*
X138088057Y-103492911D01*
X138083880Y-103506683D01*
X138044705Y-103579972D01*
X138009762Y-103650149D01*
X138000979Y-103661778D01*
X137991470Y-103679570D01*
X137942288Y-103739498D01*
X137898611Y-103797336D01*
X137883566Y-103811050D01*
X137867107Y-103831107D01*
X137811564Y-103876689D01*
X137762311Y-103921590D01*
X137740081Y-103935354D01*
X137715570Y-103955470D01*
X137657233Y-103986651D01*
X137605501Y-104018683D01*
X137575727Y-104030217D01*
X137542683Y-104047880D01*
X137484856Y-104065421D01*
X137433518Y-104085310D01*
X137396445Y-104092240D01*
X137355090Y-104104785D01*
X137300655Y-104110146D01*
X137252218Y-104119201D01*
X137208724Y-104119201D01*
X137160000Y-104124000D01*
X137111276Y-104119201D01*
X137067782Y-104119201D01*
X137019343Y-104110146D01*
X136964910Y-104104785D01*
X136923555Y-104092240D01*
X136886481Y-104085310D01*
X136835139Y-104065419D01*
X136777317Y-104047880D01*
X136744275Y-104030218D01*
X136714498Y-104018683D01*
X136662759Y-103986647D01*
X136604430Y-103955470D01*
X136579921Y-103935356D01*
X136557688Y-103921590D01*
X136508425Y-103876681D01*
X136452893Y-103831107D01*
X136436436Y-103811054D01*
X136421388Y-103797336D01*
X136377699Y-103739482D01*
X136328530Y-103679570D01*
X136319022Y-103661783D01*
X136310237Y-103650149D01*
X136275279Y-103579945D01*
X136236120Y-103506683D01*
X136231943Y-103492916D01*
X136228027Y-103485050D01*
X136204882Y-103403706D01*
X136179215Y-103319090D01*
X136178371Y-103310530D01*
X136177553Y-103307652D01*
X136169040Y-103215788D01*
X136160000Y-103124000D01*
X136169039Y-103032219D01*
X136177553Y-102940347D01*
X136178372Y-102937468D01*
X136179215Y-102928910D01*
X136204878Y-102844308D01*
X136228027Y-102762949D01*
X136231944Y-102755081D01*
X136236120Y-102741317D01*
X136275272Y-102668068D01*
X136310237Y-102597850D01*
X136319024Y-102586213D01*
X136328530Y-102568430D01*
X136377689Y-102508528D01*
X136421388Y-102450663D01*
X136436439Y-102436941D01*
X136452893Y-102416893D01*
X136508414Y-102371327D01*
X136557688Y-102326409D01*
X136579926Y-102312639D01*
X136604430Y-102292530D01*
X136662747Y-102261358D01*
X136714498Y-102229316D01*
X136744282Y-102217777D01*
X136777317Y-102200120D01*
X136835127Y-102182583D01*
X136886481Y-102162689D01*
X136923562Y-102155757D01*
X136964910Y-102143215D01*
X137019340Y-102137853D01*
X137067782Y-102128799D01*
X137111276Y-102128799D01*
X137160000Y-102124000D01*
X137208724Y-102128799D01*
G37*
G36*
X144828724Y-102128799D02*
G01*
X144872218Y-102128799D01*
X144920658Y-102137853D01*
X144975090Y-102143215D01*
X145016438Y-102155757D01*
X145053518Y-102162689D01*
X145104868Y-102182582D01*
X145162683Y-102200120D01*
X145195720Y-102217778D01*
X145225501Y-102229316D01*
X145277245Y-102261354D01*
X145335570Y-102292530D01*
X145360076Y-102312641D01*
X145382311Y-102326409D01*
X145431575Y-102371319D01*
X145487107Y-102416893D01*
X145503563Y-102436945D01*
X145518611Y-102450663D01*
X145562297Y-102508513D01*
X145611470Y-102568430D01*
X145620977Y-102586218D01*
X145629762Y-102597850D01*
X145664713Y-102668040D01*
X145703880Y-102741317D01*
X145708056Y-102755086D01*
X145711972Y-102762949D01*
X145735105Y-102844255D01*
X145760785Y-102928910D01*
X145761628Y-102937473D01*
X145762446Y-102940347D01*
X145770943Y-103032047D01*
X145780000Y-103124000D01*
X145770942Y-103215960D01*
X145762446Y-103307652D01*
X145761628Y-103310524D01*
X145760785Y-103319090D01*
X145735100Y-103403759D01*
X145711972Y-103485050D01*
X145708057Y-103492911D01*
X145703880Y-103506683D01*
X145664705Y-103579972D01*
X145629762Y-103650149D01*
X145620979Y-103661778D01*
X145611470Y-103679570D01*
X145562288Y-103739498D01*
X145518611Y-103797336D01*
X145503566Y-103811050D01*
X145487107Y-103831107D01*
X145431564Y-103876689D01*
X145382311Y-103921590D01*
X145360081Y-103935354D01*
X145335570Y-103955470D01*
X145277233Y-103986651D01*
X145225501Y-104018683D01*
X145195727Y-104030217D01*
X145162683Y-104047880D01*
X145104856Y-104065421D01*
X145053518Y-104085310D01*
X145016445Y-104092240D01*
X144975090Y-104104785D01*
X144920655Y-104110146D01*
X144872218Y-104119201D01*
X144828724Y-104119201D01*
X144780000Y-104124000D01*
X144731276Y-104119201D01*
X144687782Y-104119201D01*
X144639343Y-104110146D01*
X144584910Y-104104785D01*
X144543555Y-104092240D01*
X144506481Y-104085310D01*
X144455139Y-104065419D01*
X144397317Y-104047880D01*
X144364275Y-104030218D01*
X144334498Y-104018683D01*
X144282759Y-103986647D01*
X144224430Y-103955470D01*
X144199921Y-103935356D01*
X144177688Y-103921590D01*
X144128425Y-103876681D01*
X144072893Y-103831107D01*
X144056436Y-103811054D01*
X144041388Y-103797336D01*
X143997699Y-103739482D01*
X143948530Y-103679570D01*
X143939022Y-103661783D01*
X143930237Y-103650149D01*
X143895279Y-103579945D01*
X143856120Y-103506683D01*
X143851943Y-103492916D01*
X143848027Y-103485050D01*
X143824882Y-103403706D01*
X143799215Y-103319090D01*
X143798371Y-103310530D01*
X143797553Y-103307652D01*
X143789040Y-103215788D01*
X143780000Y-103124000D01*
X143789039Y-103032219D01*
X143797553Y-102940347D01*
X143798372Y-102937468D01*
X143799215Y-102928910D01*
X143824878Y-102844308D01*
X143848027Y-102762949D01*
X143851944Y-102755081D01*
X143856120Y-102741317D01*
X143895272Y-102668068D01*
X143930237Y-102597850D01*
X143939024Y-102586213D01*
X143948530Y-102568430D01*
X143997689Y-102508528D01*
X144041388Y-102450663D01*
X144056439Y-102436941D01*
X144072893Y-102416893D01*
X144128414Y-102371327D01*
X144177688Y-102326409D01*
X144199926Y-102312639D01*
X144224430Y-102292530D01*
X144282747Y-102261358D01*
X144334498Y-102229316D01*
X144364282Y-102217777D01*
X144397317Y-102200120D01*
X144455127Y-102182583D01*
X144506481Y-102162689D01*
X144543562Y-102155757D01*
X144584910Y-102143215D01*
X144639340Y-102137853D01*
X144687782Y-102128799D01*
X144731276Y-102128799D01*
X144780000Y-102124000D01*
X144828724Y-102128799D01*
G37*
G36*
X150414562Y-98622586D02*
G01*
X150455604Y-98622586D01*
X150501313Y-98631130D01*
X150553336Y-98636254D01*
X150592852Y-98648241D01*
X150627834Y-98654780D01*
X150676283Y-98673549D01*
X150731549Y-98690314D01*
X150763128Y-98707193D01*
X150791214Y-98718074D01*
X150840016Y-98748291D01*
X150895792Y-98778104D01*
X150919225Y-98797335D01*
X150940180Y-98810310D01*
X150986612Y-98852639D01*
X151039751Y-98896249D01*
X151055498Y-98915436D01*
X151069661Y-98928348D01*
X151110775Y-98982791D01*
X151157896Y-99040208D01*
X151167007Y-99057255D01*
X151175249Y-99068168D01*
X151208031Y-99134005D01*
X151245686Y-99204451D01*
X151249702Y-99217691D01*
X151253350Y-99225017D01*
X151274897Y-99300749D01*
X151299746Y-99382664D01*
X151300562Y-99390951D01*
X151301297Y-99393534D01*
X151308938Y-99475994D01*
X151318000Y-99568000D01*
X151308937Y-99660013D01*
X151301297Y-99742465D01*
X151300562Y-99745046D01*
X151299746Y-99753336D01*
X151274893Y-99835265D01*
X151253350Y-99910982D01*
X151249703Y-99918305D01*
X151245686Y-99931549D01*
X151208024Y-100002008D01*
X151175249Y-100067831D01*
X151167009Y-100078741D01*
X151157896Y-100095792D01*
X151110765Y-100153219D01*
X151069661Y-100207651D01*
X151055501Y-100220559D01*
X151039751Y-100239751D01*
X150986601Y-100283369D01*
X150940180Y-100325689D01*
X150919230Y-100338660D01*
X150895792Y-100357896D01*
X150840004Y-100387715D01*
X150791214Y-100417925D01*
X150763134Y-100428802D01*
X150731549Y-100445686D01*
X150676271Y-100462454D01*
X150627834Y-100481219D01*
X150592859Y-100487756D01*
X150553336Y-100499746D01*
X150501310Y-100504870D01*
X150455604Y-100513414D01*
X150414562Y-100513414D01*
X150368000Y-100518000D01*
X150321438Y-100513414D01*
X150280396Y-100513414D01*
X150234688Y-100504869D01*
X150182664Y-100499746D01*
X150143142Y-100487757D01*
X150108165Y-100481219D01*
X150059723Y-100462452D01*
X150004451Y-100445686D01*
X149972867Y-100428804D01*
X149944785Y-100417925D01*
X149895988Y-100387711D01*
X149840208Y-100357896D01*
X149816772Y-100338663D01*
X149795819Y-100325689D01*
X149749388Y-100283361D01*
X149696249Y-100239751D01*
X149680501Y-100220562D01*
X149666338Y-100207651D01*
X149625221Y-100153204D01*
X149578104Y-100095792D01*
X149568992Y-100078746D01*
X149560750Y-100067831D01*
X149527960Y-100001981D01*
X149490314Y-99931549D01*
X149486298Y-99918310D01*
X149482649Y-99910982D01*
X149461090Y-99835212D01*
X149436254Y-99753336D01*
X149435438Y-99745052D01*
X149434702Y-99742465D01*
X149427045Y-99659841D01*
X149418000Y-99568000D01*
X149427044Y-99476166D01*
X149434702Y-99393534D01*
X149435438Y-99390946D01*
X149436254Y-99382664D01*
X149461086Y-99300802D01*
X149482649Y-99225017D01*
X149486298Y-99217686D01*
X149490314Y-99204451D01*
X149527953Y-99134032D01*
X149560750Y-99068168D01*
X149568994Y-99057250D01*
X149578104Y-99040208D01*
X149625212Y-98982806D01*
X149666338Y-98928348D01*
X149680504Y-98915433D01*
X149696249Y-98896249D01*
X149749377Y-98852647D01*
X149795819Y-98810310D01*
X149816777Y-98797332D01*
X149840208Y-98778104D01*
X149895976Y-98748295D01*
X149944785Y-98718074D01*
X149972874Y-98707191D01*
X150004451Y-98690314D01*
X150059712Y-98673550D01*
X150108165Y-98654780D01*
X150143149Y-98648240D01*
X150182664Y-98636254D01*
X150234685Y-98631130D01*
X150280396Y-98622586D01*
X150321438Y-98622586D01*
X150368000Y-98618000D01*
X150414562Y-98622586D01*
G37*
G36*
X137208724Y-97556799D02*
G01*
X137252218Y-97556799D01*
X137300658Y-97565853D01*
X137355090Y-97571215D01*
X137396438Y-97583757D01*
X137433518Y-97590689D01*
X137484868Y-97610582D01*
X137542683Y-97628120D01*
X137575720Y-97645778D01*
X137605501Y-97657316D01*
X137657245Y-97689354D01*
X137715570Y-97720530D01*
X137740076Y-97740641D01*
X137762311Y-97754409D01*
X137811575Y-97799319D01*
X137867107Y-97844893D01*
X137883563Y-97864945D01*
X137898611Y-97878663D01*
X137942297Y-97936513D01*
X137991470Y-97996430D01*
X138000977Y-98014218D01*
X138009762Y-98025850D01*
X138044713Y-98096040D01*
X138083880Y-98169317D01*
X138088056Y-98183086D01*
X138091972Y-98190949D01*
X138115105Y-98272255D01*
X138140785Y-98356910D01*
X138141628Y-98365473D01*
X138142446Y-98368347D01*
X138150943Y-98460047D01*
X138160000Y-98552000D01*
X138150942Y-98643960D01*
X138142446Y-98735652D01*
X138141628Y-98738524D01*
X138140785Y-98747090D01*
X138115100Y-98831759D01*
X138091972Y-98913050D01*
X138088057Y-98920911D01*
X138083880Y-98934683D01*
X138044705Y-99007972D01*
X138009762Y-99078149D01*
X138000979Y-99089778D01*
X137991470Y-99107570D01*
X137942288Y-99167498D01*
X137898611Y-99225336D01*
X137883566Y-99239050D01*
X137867107Y-99259107D01*
X137811564Y-99304689D01*
X137762311Y-99349590D01*
X137740081Y-99363354D01*
X137715570Y-99383470D01*
X137657233Y-99414651D01*
X137605501Y-99446683D01*
X137575727Y-99458217D01*
X137542683Y-99475880D01*
X137484856Y-99493421D01*
X137433518Y-99513310D01*
X137396445Y-99520240D01*
X137355090Y-99532785D01*
X137300655Y-99538146D01*
X137252218Y-99547201D01*
X137208724Y-99547201D01*
X137160000Y-99552000D01*
X137111276Y-99547201D01*
X137067782Y-99547201D01*
X137019343Y-99538146D01*
X136964910Y-99532785D01*
X136923555Y-99520240D01*
X136886481Y-99513310D01*
X136835139Y-99493419D01*
X136777317Y-99475880D01*
X136744275Y-99458218D01*
X136714498Y-99446683D01*
X136662759Y-99414647D01*
X136604430Y-99383470D01*
X136579921Y-99363356D01*
X136557688Y-99349590D01*
X136508425Y-99304681D01*
X136452893Y-99259107D01*
X136436436Y-99239054D01*
X136421388Y-99225336D01*
X136377699Y-99167482D01*
X136328530Y-99107570D01*
X136319022Y-99089783D01*
X136310237Y-99078149D01*
X136275279Y-99007945D01*
X136236120Y-98934683D01*
X136231943Y-98920916D01*
X136228027Y-98913050D01*
X136204882Y-98831706D01*
X136179215Y-98747090D01*
X136178371Y-98738530D01*
X136177553Y-98735652D01*
X136169040Y-98643788D01*
X136160000Y-98552000D01*
X136169039Y-98460219D01*
X136177553Y-98368347D01*
X136178372Y-98365468D01*
X136179215Y-98356910D01*
X136204878Y-98272308D01*
X136228027Y-98190949D01*
X136231944Y-98183081D01*
X136236120Y-98169317D01*
X136275272Y-98096068D01*
X136310237Y-98025850D01*
X136319024Y-98014213D01*
X136328530Y-97996430D01*
X136377689Y-97936528D01*
X136421388Y-97878663D01*
X136436439Y-97864941D01*
X136452893Y-97844893D01*
X136508414Y-97799327D01*
X136557688Y-97754409D01*
X136579926Y-97740639D01*
X136604430Y-97720530D01*
X136662747Y-97689358D01*
X136714498Y-97657316D01*
X136744282Y-97645777D01*
X136777317Y-97628120D01*
X136835127Y-97610583D01*
X136886481Y-97590689D01*
X136923562Y-97583757D01*
X136964910Y-97571215D01*
X137019340Y-97565853D01*
X137067782Y-97556799D01*
X137111276Y-97556799D01*
X137160000Y-97552000D01*
X137208724Y-97556799D01*
G37*
G36*
X144828724Y-97556799D02*
G01*
X144872218Y-97556799D01*
X144920658Y-97565853D01*
X144975090Y-97571215D01*
X145016438Y-97583757D01*
X145053518Y-97590689D01*
X145104868Y-97610582D01*
X145162683Y-97628120D01*
X145195720Y-97645778D01*
X145225501Y-97657316D01*
X145277245Y-97689354D01*
X145335570Y-97720530D01*
X145360076Y-97740641D01*
X145382311Y-97754409D01*
X145431575Y-97799319D01*
X145487107Y-97844893D01*
X145503563Y-97864945D01*
X145518611Y-97878663D01*
X145562297Y-97936513D01*
X145611470Y-97996430D01*
X145620977Y-98014218D01*
X145629762Y-98025850D01*
X145664713Y-98096040D01*
X145703880Y-98169317D01*
X145708056Y-98183086D01*
X145711972Y-98190949D01*
X145735105Y-98272255D01*
X145760785Y-98356910D01*
X145761628Y-98365473D01*
X145762446Y-98368347D01*
X145770943Y-98460047D01*
X145780000Y-98552000D01*
X145770942Y-98643960D01*
X145762446Y-98735652D01*
X145761628Y-98738524D01*
X145760785Y-98747090D01*
X145735100Y-98831759D01*
X145711972Y-98913050D01*
X145708057Y-98920911D01*
X145703880Y-98934683D01*
X145664705Y-99007972D01*
X145629762Y-99078149D01*
X145620979Y-99089778D01*
X145611470Y-99107570D01*
X145562288Y-99167498D01*
X145518611Y-99225336D01*
X145503566Y-99239050D01*
X145487107Y-99259107D01*
X145431564Y-99304689D01*
X145382311Y-99349590D01*
X145360081Y-99363354D01*
X145335570Y-99383470D01*
X145277233Y-99414651D01*
X145225501Y-99446683D01*
X145195727Y-99458217D01*
X145162683Y-99475880D01*
X145104856Y-99493421D01*
X145053518Y-99513310D01*
X145016445Y-99520240D01*
X144975090Y-99532785D01*
X144920655Y-99538146D01*
X144872218Y-99547201D01*
X144828724Y-99547201D01*
X144780000Y-99552000D01*
X144731276Y-99547201D01*
X144687782Y-99547201D01*
X144639343Y-99538146D01*
X144584910Y-99532785D01*
X144543555Y-99520240D01*
X144506481Y-99513310D01*
X144455139Y-99493419D01*
X144397317Y-99475880D01*
X144364275Y-99458218D01*
X144334498Y-99446683D01*
X144282759Y-99414647D01*
X144224430Y-99383470D01*
X144199921Y-99363356D01*
X144177688Y-99349590D01*
X144128425Y-99304681D01*
X144072893Y-99259107D01*
X144056436Y-99239054D01*
X144041388Y-99225336D01*
X143997699Y-99167482D01*
X143948530Y-99107570D01*
X143939022Y-99089783D01*
X143930237Y-99078149D01*
X143895279Y-99007945D01*
X143856120Y-98934683D01*
X143851943Y-98920916D01*
X143848027Y-98913050D01*
X143824882Y-98831706D01*
X143799215Y-98747090D01*
X143798371Y-98738530D01*
X143797553Y-98735652D01*
X143789040Y-98643788D01*
X143780000Y-98552000D01*
X143789039Y-98460219D01*
X143797553Y-98368347D01*
X143798372Y-98365468D01*
X143799215Y-98356910D01*
X143824878Y-98272308D01*
X143848027Y-98190949D01*
X143851944Y-98183081D01*
X143856120Y-98169317D01*
X143895272Y-98096068D01*
X143930237Y-98025850D01*
X143939024Y-98014213D01*
X143948530Y-97996430D01*
X143997689Y-97936528D01*
X144041388Y-97878663D01*
X144056439Y-97864941D01*
X144072893Y-97844893D01*
X144128414Y-97799327D01*
X144177688Y-97754409D01*
X144199926Y-97740639D01*
X144224430Y-97720530D01*
X144282747Y-97689358D01*
X144334498Y-97657316D01*
X144364282Y-97645777D01*
X144397317Y-97628120D01*
X144455127Y-97610583D01*
X144506481Y-97590689D01*
X144543562Y-97583757D01*
X144584910Y-97571215D01*
X144639340Y-97565853D01*
X144687782Y-97556799D01*
X144731276Y-97556799D01*
X144780000Y-97552000D01*
X144828724Y-97556799D01*
G37*
G36*
X150414562Y-96082586D02*
G01*
X150455604Y-96082586D01*
X150501313Y-96091130D01*
X150553336Y-96096254D01*
X150592852Y-96108241D01*
X150627834Y-96114780D01*
X150676283Y-96133549D01*
X150731549Y-96150314D01*
X150763128Y-96167193D01*
X150791214Y-96178074D01*
X150840016Y-96208291D01*
X150895792Y-96238104D01*
X150919225Y-96257335D01*
X150940180Y-96270310D01*
X150986612Y-96312639D01*
X151039751Y-96356249D01*
X151055498Y-96375436D01*
X151069661Y-96388348D01*
X151110775Y-96442791D01*
X151157896Y-96500208D01*
X151167007Y-96517255D01*
X151175249Y-96528168D01*
X151208031Y-96594005D01*
X151245686Y-96664451D01*
X151249702Y-96677691D01*
X151253350Y-96685017D01*
X151274897Y-96760749D01*
X151299746Y-96842664D01*
X151300562Y-96850951D01*
X151301297Y-96853534D01*
X151308938Y-96935994D01*
X151318000Y-97028000D01*
X151308937Y-97120013D01*
X151301297Y-97202465D01*
X151300562Y-97205046D01*
X151299746Y-97213336D01*
X151274893Y-97295265D01*
X151253350Y-97370982D01*
X151249703Y-97378305D01*
X151245686Y-97391549D01*
X151208024Y-97462008D01*
X151175249Y-97527831D01*
X151167009Y-97538741D01*
X151157896Y-97555792D01*
X151110765Y-97613219D01*
X151069661Y-97667651D01*
X151055501Y-97680559D01*
X151039751Y-97699751D01*
X150986601Y-97743369D01*
X150940180Y-97785689D01*
X150919230Y-97798660D01*
X150895792Y-97817896D01*
X150840004Y-97847715D01*
X150791214Y-97877925D01*
X150763134Y-97888802D01*
X150731549Y-97905686D01*
X150676271Y-97922454D01*
X150627834Y-97941219D01*
X150592859Y-97947756D01*
X150553336Y-97959746D01*
X150501310Y-97964870D01*
X150455604Y-97973414D01*
X150414562Y-97973414D01*
X150368000Y-97978000D01*
X150321438Y-97973414D01*
X150280396Y-97973414D01*
X150234688Y-97964869D01*
X150182664Y-97959746D01*
X150143142Y-97947757D01*
X150108165Y-97941219D01*
X150059723Y-97922452D01*
X150004451Y-97905686D01*
X149972867Y-97888804D01*
X149944785Y-97877925D01*
X149895988Y-97847711D01*
X149840208Y-97817896D01*
X149816772Y-97798663D01*
X149795819Y-97785689D01*
X149749388Y-97743361D01*
X149696249Y-97699751D01*
X149680501Y-97680562D01*
X149666338Y-97667651D01*
X149625221Y-97613204D01*
X149578104Y-97555792D01*
X149568992Y-97538746D01*
X149560750Y-97527831D01*
X149527960Y-97461981D01*
X149490314Y-97391549D01*
X149486298Y-97378310D01*
X149482649Y-97370982D01*
X149461090Y-97295212D01*
X149436254Y-97213336D01*
X149435438Y-97205052D01*
X149434702Y-97202465D01*
X149427045Y-97119841D01*
X149418000Y-97028000D01*
X149427044Y-96936166D01*
X149434702Y-96853534D01*
X149435438Y-96850946D01*
X149436254Y-96842664D01*
X149461086Y-96760802D01*
X149482649Y-96685017D01*
X149486298Y-96677686D01*
X149490314Y-96664451D01*
X149527953Y-96594032D01*
X149560750Y-96528168D01*
X149568994Y-96517250D01*
X149578104Y-96500208D01*
X149625212Y-96442806D01*
X149666338Y-96388348D01*
X149680504Y-96375433D01*
X149696249Y-96356249D01*
X149749377Y-96312647D01*
X149795819Y-96270310D01*
X149816777Y-96257332D01*
X149840208Y-96238104D01*
X149895976Y-96208295D01*
X149944785Y-96178074D01*
X149972874Y-96167191D01*
X150004451Y-96150314D01*
X150059712Y-96133550D01*
X150108165Y-96114780D01*
X150143149Y-96108240D01*
X150182664Y-96096254D01*
X150234685Y-96091130D01*
X150280396Y-96082586D01*
X150321438Y-96082586D01*
X150368000Y-96078000D01*
X150414562Y-96082586D01*
G37*
G36*
X137208724Y-93492799D02*
G01*
X137252218Y-93492799D01*
X137300658Y-93501853D01*
X137355090Y-93507215D01*
X137396438Y-93519757D01*
X137433518Y-93526689D01*
X137484868Y-93546582D01*
X137542683Y-93564120D01*
X137575720Y-93581778D01*
X137605501Y-93593316D01*
X137657245Y-93625354D01*
X137715570Y-93656530D01*
X137740076Y-93676641D01*
X137762311Y-93690409D01*
X137811575Y-93735319D01*
X137867107Y-93780893D01*
X137883563Y-93800945D01*
X137898611Y-93814663D01*
X137942297Y-93872513D01*
X137991470Y-93932430D01*
X138000977Y-93950218D01*
X138009762Y-93961850D01*
X138044713Y-94032040D01*
X138083880Y-94105317D01*
X138088056Y-94119086D01*
X138091972Y-94126949D01*
X138115105Y-94208255D01*
X138140785Y-94292910D01*
X138141628Y-94301473D01*
X138142446Y-94304347D01*
X138150943Y-94396047D01*
X138160000Y-94488000D01*
X138150942Y-94579960D01*
X138142446Y-94671652D01*
X138141628Y-94674524D01*
X138140785Y-94683090D01*
X138115100Y-94767759D01*
X138091972Y-94849050D01*
X138088057Y-94856911D01*
X138083880Y-94870683D01*
X138044705Y-94943972D01*
X138009762Y-95014149D01*
X138000979Y-95025778D01*
X137991470Y-95043570D01*
X137942288Y-95103498D01*
X137898611Y-95161336D01*
X137883566Y-95175050D01*
X137867107Y-95195107D01*
X137811564Y-95240689D01*
X137762311Y-95285590D01*
X137740081Y-95299354D01*
X137715570Y-95319470D01*
X137657233Y-95350651D01*
X137605501Y-95382683D01*
X137575727Y-95394217D01*
X137542683Y-95411880D01*
X137484856Y-95429421D01*
X137433518Y-95449310D01*
X137396445Y-95456240D01*
X137355090Y-95468785D01*
X137300655Y-95474146D01*
X137252218Y-95483201D01*
X137208724Y-95483201D01*
X137160000Y-95488000D01*
X137111276Y-95483201D01*
X137067782Y-95483201D01*
X137019343Y-95474146D01*
X136964910Y-95468785D01*
X136923555Y-95456240D01*
X136886481Y-95449310D01*
X136835139Y-95429419D01*
X136777317Y-95411880D01*
X136744275Y-95394218D01*
X136714498Y-95382683D01*
X136662759Y-95350647D01*
X136604430Y-95319470D01*
X136579921Y-95299356D01*
X136557688Y-95285590D01*
X136508425Y-95240681D01*
X136452893Y-95195107D01*
X136436436Y-95175054D01*
X136421388Y-95161336D01*
X136377699Y-95103482D01*
X136328530Y-95043570D01*
X136319022Y-95025783D01*
X136310237Y-95014149D01*
X136275279Y-94943945D01*
X136236120Y-94870683D01*
X136231943Y-94856916D01*
X136228027Y-94849050D01*
X136204882Y-94767706D01*
X136179215Y-94683090D01*
X136178371Y-94674530D01*
X136177553Y-94671652D01*
X136169040Y-94579788D01*
X136160000Y-94488000D01*
X136169039Y-94396219D01*
X136177553Y-94304347D01*
X136178372Y-94301468D01*
X136179215Y-94292910D01*
X136204878Y-94208308D01*
X136228027Y-94126949D01*
X136231944Y-94119081D01*
X136236120Y-94105317D01*
X136275272Y-94032068D01*
X136310237Y-93961850D01*
X136319024Y-93950213D01*
X136328530Y-93932430D01*
X136377689Y-93872528D01*
X136421388Y-93814663D01*
X136436439Y-93800941D01*
X136452893Y-93780893D01*
X136508414Y-93735327D01*
X136557688Y-93690409D01*
X136579926Y-93676639D01*
X136604430Y-93656530D01*
X136662747Y-93625358D01*
X136714498Y-93593316D01*
X136744282Y-93581777D01*
X136777317Y-93564120D01*
X136835127Y-93546583D01*
X136886481Y-93526689D01*
X136923562Y-93519757D01*
X136964910Y-93507215D01*
X137019340Y-93501853D01*
X137067782Y-93492799D01*
X137111276Y-93492799D01*
X137160000Y-93488000D01*
X137208724Y-93492799D01*
G37*
G36*
X144828724Y-93492799D02*
G01*
X144872218Y-93492799D01*
X144920658Y-93501853D01*
X144975090Y-93507215D01*
X145016438Y-93519757D01*
X145053518Y-93526689D01*
X145104868Y-93546582D01*
X145162683Y-93564120D01*
X145195720Y-93581778D01*
X145225501Y-93593316D01*
X145277245Y-93625354D01*
X145335570Y-93656530D01*
X145360076Y-93676641D01*
X145382311Y-93690409D01*
X145431575Y-93735319D01*
X145487107Y-93780893D01*
X145503563Y-93800945D01*
X145518611Y-93814663D01*
X145562297Y-93872513D01*
X145611470Y-93932430D01*
X145620977Y-93950218D01*
X145629762Y-93961850D01*
X145664713Y-94032040D01*
X145703880Y-94105317D01*
X145708056Y-94119086D01*
X145711972Y-94126949D01*
X145735105Y-94208255D01*
X145760785Y-94292910D01*
X145761628Y-94301473D01*
X145762446Y-94304347D01*
X145770943Y-94396047D01*
X145780000Y-94488000D01*
X145770942Y-94579960D01*
X145762446Y-94671652D01*
X145761628Y-94674524D01*
X145760785Y-94683090D01*
X145735100Y-94767759D01*
X145711972Y-94849050D01*
X145708057Y-94856911D01*
X145703880Y-94870683D01*
X145664705Y-94943972D01*
X145629762Y-95014149D01*
X145620979Y-95025778D01*
X145611470Y-95043570D01*
X145562288Y-95103498D01*
X145518611Y-95161336D01*
X145503566Y-95175050D01*
X145487107Y-95195107D01*
X145431564Y-95240689D01*
X145382311Y-95285590D01*
X145360081Y-95299354D01*
X145335570Y-95319470D01*
X145277233Y-95350651D01*
X145225501Y-95382683D01*
X145195727Y-95394217D01*
X145162683Y-95411880D01*
X145104856Y-95429421D01*
X145053518Y-95449310D01*
X145016445Y-95456240D01*
X144975090Y-95468785D01*
X144920655Y-95474146D01*
X144872218Y-95483201D01*
X144828724Y-95483201D01*
X144780000Y-95488000D01*
X144731276Y-95483201D01*
X144687782Y-95483201D01*
X144639343Y-95474146D01*
X144584910Y-95468785D01*
X144543555Y-95456240D01*
X144506481Y-95449310D01*
X144455139Y-95429419D01*
X144397317Y-95411880D01*
X144364275Y-95394218D01*
X144334498Y-95382683D01*
X144282759Y-95350647D01*
X144224430Y-95319470D01*
X144199921Y-95299356D01*
X144177688Y-95285590D01*
X144128425Y-95240681D01*
X144072893Y-95195107D01*
X144056436Y-95175054D01*
X144041388Y-95161336D01*
X143997699Y-95103482D01*
X143948530Y-95043570D01*
X143939022Y-95025783D01*
X143930237Y-95014149D01*
X143895279Y-94943945D01*
X143856120Y-94870683D01*
X143851943Y-94856916D01*
X143848027Y-94849050D01*
X143824882Y-94767706D01*
X143799215Y-94683090D01*
X143798371Y-94674530D01*
X143797553Y-94671652D01*
X143789040Y-94579788D01*
X143780000Y-94488000D01*
X143789039Y-94396219D01*
X143797553Y-94304347D01*
X143798372Y-94301468D01*
X143799215Y-94292910D01*
X143824878Y-94208308D01*
X143848027Y-94126949D01*
X143851944Y-94119081D01*
X143856120Y-94105317D01*
X143895272Y-94032068D01*
X143930237Y-93961850D01*
X143939024Y-93950213D01*
X143948530Y-93932430D01*
X143997689Y-93872528D01*
X144041388Y-93814663D01*
X144056439Y-93800941D01*
X144072893Y-93780893D01*
X144128414Y-93735327D01*
X144177688Y-93690409D01*
X144199926Y-93676639D01*
X144224430Y-93656530D01*
X144282747Y-93625358D01*
X144334498Y-93593316D01*
X144364282Y-93581777D01*
X144397317Y-93564120D01*
X144455127Y-93546583D01*
X144506481Y-93526689D01*
X144543562Y-93519757D01*
X144584910Y-93507215D01*
X144639340Y-93501853D01*
X144687782Y-93492799D01*
X144731276Y-93492799D01*
X144780000Y-93488000D01*
X144828724Y-93492799D01*
G37*
G36*
X151134043Y-93541191D02*
G01*
X151166727Y-93545494D01*
X151174948Y-93549327D01*
X151194537Y-93553224D01*
X151220480Y-93570559D01*
X151231608Y-93575748D01*
X151238378Y-93582518D01*
X151259421Y-93596579D01*
X151273481Y-93617621D01*
X151280251Y-93624391D01*
X151285438Y-93635516D01*
X151302776Y-93661463D01*
X151306672Y-93681053D01*
X151310505Y-93689272D01*
X151314806Y-93721945D01*
X151318000Y-93738000D01*
X151318000Y-95238000D01*
X151314805Y-95254058D01*
X151310505Y-95286727D01*
X151306673Y-95294944D01*
X151302776Y-95314537D01*
X151285437Y-95340485D01*
X151280251Y-95351608D01*
X151273483Y-95358375D01*
X151259421Y-95379421D01*
X151238375Y-95393483D01*
X151231608Y-95400251D01*
X151220485Y-95405437D01*
X151194537Y-95422776D01*
X151174944Y-95426673D01*
X151166727Y-95430505D01*
X151134056Y-95434806D01*
X151118000Y-95438000D01*
X149618000Y-95438000D01*
X149601943Y-95434806D01*
X149569272Y-95430505D01*
X149561053Y-95426672D01*
X149541463Y-95422776D01*
X149515516Y-95405438D01*
X149504391Y-95400251D01*
X149497621Y-95393481D01*
X149476579Y-95379421D01*
X149462518Y-95358378D01*
X149455748Y-95351608D01*
X149450559Y-95340480D01*
X149433224Y-95314537D01*
X149429327Y-95294948D01*
X149425494Y-95286727D01*
X149421190Y-95254041D01*
X149418000Y-95238000D01*
X149418000Y-93738000D01*
X149421190Y-93721958D01*
X149425494Y-93689272D01*
X149429327Y-93681049D01*
X149433224Y-93661463D01*
X149450557Y-93635521D01*
X149455748Y-93624391D01*
X149462520Y-93617618D01*
X149476579Y-93596579D01*
X149497618Y-93582520D01*
X149504391Y-93575748D01*
X149515521Y-93570557D01*
X149541463Y-93553224D01*
X149561049Y-93549327D01*
X149569272Y-93545494D01*
X149601960Y-93541190D01*
X149618000Y-93538000D01*
X151118000Y-93538000D01*
X151134043Y-93541191D01*
G37*
G36*
X150414562Y-89986586D02*
G01*
X150455604Y-89986586D01*
X150501313Y-89995130D01*
X150553336Y-90000254D01*
X150592852Y-90012241D01*
X150627834Y-90018780D01*
X150676283Y-90037549D01*
X150731549Y-90054314D01*
X150763128Y-90071193D01*
X150791214Y-90082074D01*
X150840016Y-90112291D01*
X150895792Y-90142104D01*
X150919225Y-90161335D01*
X150940180Y-90174310D01*
X150986612Y-90216639D01*
X151039751Y-90260249D01*
X151055498Y-90279436D01*
X151069661Y-90292348D01*
X151110775Y-90346791D01*
X151157896Y-90404208D01*
X151167007Y-90421255D01*
X151175249Y-90432168D01*
X151208031Y-90498005D01*
X151245686Y-90568451D01*
X151249702Y-90581691D01*
X151253350Y-90589017D01*
X151274897Y-90664749D01*
X151299746Y-90746664D01*
X151300562Y-90754951D01*
X151301297Y-90757534D01*
X151308938Y-90839994D01*
X151318000Y-90932000D01*
X151308937Y-91024013D01*
X151301297Y-91106465D01*
X151300562Y-91109046D01*
X151299746Y-91117336D01*
X151274893Y-91199265D01*
X151253350Y-91274982D01*
X151249703Y-91282305D01*
X151245686Y-91295549D01*
X151208024Y-91366008D01*
X151175249Y-91431831D01*
X151167009Y-91442741D01*
X151157896Y-91459792D01*
X151110765Y-91517219D01*
X151069661Y-91571651D01*
X151055501Y-91584559D01*
X151039751Y-91603751D01*
X150986601Y-91647369D01*
X150940180Y-91689689D01*
X150919230Y-91702660D01*
X150895792Y-91721896D01*
X150840004Y-91751715D01*
X150791214Y-91781925D01*
X150763134Y-91792802D01*
X150731549Y-91809686D01*
X150676271Y-91826454D01*
X150627834Y-91845219D01*
X150592859Y-91851756D01*
X150553336Y-91863746D01*
X150501310Y-91868870D01*
X150455604Y-91877414D01*
X150414562Y-91877414D01*
X150368000Y-91882000D01*
X150321438Y-91877414D01*
X150280396Y-91877414D01*
X150234688Y-91868869D01*
X150182664Y-91863746D01*
X150143142Y-91851757D01*
X150108165Y-91845219D01*
X150059723Y-91826452D01*
X150004451Y-91809686D01*
X149972867Y-91792804D01*
X149944785Y-91781925D01*
X149895988Y-91751711D01*
X149840208Y-91721896D01*
X149816772Y-91702663D01*
X149795819Y-91689689D01*
X149749388Y-91647361D01*
X149696249Y-91603751D01*
X149680501Y-91584562D01*
X149666338Y-91571651D01*
X149625221Y-91517204D01*
X149578104Y-91459792D01*
X149568992Y-91442746D01*
X149560750Y-91431831D01*
X149527960Y-91365981D01*
X149490314Y-91295549D01*
X149486298Y-91282310D01*
X149482649Y-91274982D01*
X149461090Y-91199212D01*
X149436254Y-91117336D01*
X149435438Y-91109052D01*
X149434702Y-91106465D01*
X149427045Y-91023841D01*
X149418000Y-90932000D01*
X149427044Y-90840166D01*
X149434702Y-90757534D01*
X149435438Y-90754946D01*
X149436254Y-90746664D01*
X149461086Y-90664802D01*
X149482649Y-90589017D01*
X149486298Y-90581686D01*
X149490314Y-90568451D01*
X149527953Y-90498032D01*
X149560750Y-90432168D01*
X149568994Y-90421250D01*
X149578104Y-90404208D01*
X149625212Y-90346806D01*
X149666338Y-90292348D01*
X149680504Y-90279433D01*
X149696249Y-90260249D01*
X149749377Y-90216647D01*
X149795819Y-90174310D01*
X149816777Y-90161332D01*
X149840208Y-90142104D01*
X149895976Y-90112295D01*
X149944785Y-90082074D01*
X149972874Y-90071191D01*
X150004451Y-90054314D01*
X150059712Y-90037550D01*
X150108165Y-90018780D01*
X150143149Y-90012240D01*
X150182664Y-90000254D01*
X150234685Y-89995130D01*
X150280396Y-89986586D01*
X150321438Y-89986586D01*
X150368000Y-89982000D01*
X150414562Y-89986586D01*
G37*
G36*
X137208724Y-87904799D02*
G01*
X137252218Y-87904799D01*
X137300658Y-87913853D01*
X137355090Y-87919215D01*
X137396438Y-87931757D01*
X137433518Y-87938689D01*
X137484868Y-87958582D01*
X137542683Y-87976120D01*
X137575720Y-87993778D01*
X137605501Y-88005316D01*
X137657245Y-88037354D01*
X137715570Y-88068530D01*
X137740076Y-88088641D01*
X137762311Y-88102409D01*
X137811575Y-88147319D01*
X137867107Y-88192893D01*
X137883563Y-88212945D01*
X137898611Y-88226663D01*
X137942297Y-88284513D01*
X137991470Y-88344430D01*
X138000977Y-88362218D01*
X138009762Y-88373850D01*
X138044713Y-88444040D01*
X138083880Y-88517317D01*
X138088056Y-88531086D01*
X138091972Y-88538949D01*
X138115105Y-88620255D01*
X138140785Y-88704910D01*
X138141628Y-88713473D01*
X138142446Y-88716347D01*
X138150943Y-88808047D01*
X138160000Y-88900000D01*
X138150942Y-88991960D01*
X138142446Y-89083652D01*
X138141628Y-89086524D01*
X138140785Y-89095090D01*
X138115100Y-89179759D01*
X138091972Y-89261050D01*
X138088057Y-89268911D01*
X138083880Y-89282683D01*
X138044705Y-89355972D01*
X138009762Y-89426149D01*
X138000979Y-89437778D01*
X137991470Y-89455570D01*
X137942288Y-89515498D01*
X137898611Y-89573336D01*
X137883566Y-89587050D01*
X137867107Y-89607107D01*
X137811564Y-89652689D01*
X137762311Y-89697590D01*
X137740081Y-89711354D01*
X137715570Y-89731470D01*
X137657233Y-89762651D01*
X137605501Y-89794683D01*
X137575727Y-89806217D01*
X137542683Y-89823880D01*
X137484856Y-89841421D01*
X137433518Y-89861310D01*
X137396445Y-89868240D01*
X137355090Y-89880785D01*
X137300655Y-89886146D01*
X137252218Y-89895201D01*
X137208724Y-89895201D01*
X137160000Y-89900000D01*
X137111276Y-89895201D01*
X137067782Y-89895201D01*
X137019343Y-89886146D01*
X136964910Y-89880785D01*
X136923555Y-89868240D01*
X136886481Y-89861310D01*
X136835139Y-89841419D01*
X136777317Y-89823880D01*
X136744275Y-89806218D01*
X136714498Y-89794683D01*
X136662759Y-89762647D01*
X136604430Y-89731470D01*
X136579921Y-89711356D01*
X136557688Y-89697590D01*
X136508425Y-89652681D01*
X136452893Y-89607107D01*
X136436436Y-89587054D01*
X136421388Y-89573336D01*
X136377699Y-89515482D01*
X136328530Y-89455570D01*
X136319022Y-89437783D01*
X136310237Y-89426149D01*
X136275279Y-89355945D01*
X136236120Y-89282683D01*
X136231943Y-89268916D01*
X136228027Y-89261050D01*
X136204882Y-89179706D01*
X136179215Y-89095090D01*
X136178371Y-89086530D01*
X136177553Y-89083652D01*
X136169040Y-88991788D01*
X136160000Y-88900000D01*
X136169039Y-88808219D01*
X136177553Y-88716347D01*
X136178372Y-88713468D01*
X136179215Y-88704910D01*
X136204878Y-88620308D01*
X136228027Y-88538949D01*
X136231944Y-88531081D01*
X136236120Y-88517317D01*
X136275272Y-88444068D01*
X136310237Y-88373850D01*
X136319024Y-88362213D01*
X136328530Y-88344430D01*
X136377689Y-88284528D01*
X136421388Y-88226663D01*
X136436439Y-88212941D01*
X136452893Y-88192893D01*
X136508414Y-88147327D01*
X136557688Y-88102409D01*
X136579926Y-88088639D01*
X136604430Y-88068530D01*
X136662747Y-88037358D01*
X136714498Y-88005316D01*
X136744282Y-87993777D01*
X136777317Y-87976120D01*
X136835127Y-87958583D01*
X136886481Y-87938689D01*
X136923562Y-87931757D01*
X136964910Y-87919215D01*
X137019340Y-87913853D01*
X137067782Y-87904799D01*
X137111276Y-87904799D01*
X137160000Y-87900000D01*
X137208724Y-87904799D01*
G37*
G36*
X142208724Y-87904799D02*
G01*
X142252218Y-87904799D01*
X142300658Y-87913853D01*
X142355090Y-87919215D01*
X142396438Y-87931757D01*
X142433518Y-87938689D01*
X142484868Y-87958582D01*
X142542683Y-87976120D01*
X142575720Y-87993778D01*
X142605501Y-88005316D01*
X142657245Y-88037354D01*
X142715570Y-88068530D01*
X142740076Y-88088641D01*
X142762311Y-88102409D01*
X142811575Y-88147319D01*
X142867107Y-88192893D01*
X142883563Y-88212945D01*
X142898611Y-88226663D01*
X142942297Y-88284513D01*
X142991470Y-88344430D01*
X143000977Y-88362218D01*
X143009762Y-88373850D01*
X143044713Y-88444040D01*
X143083880Y-88517317D01*
X143088056Y-88531086D01*
X143091972Y-88538949D01*
X143115105Y-88620255D01*
X143140785Y-88704910D01*
X143141628Y-88713473D01*
X143142446Y-88716347D01*
X143150943Y-88808047D01*
X143160000Y-88900000D01*
X143150942Y-88991960D01*
X143142446Y-89083652D01*
X143141628Y-89086524D01*
X143140785Y-89095090D01*
X143115100Y-89179759D01*
X143091972Y-89261050D01*
X143088057Y-89268911D01*
X143083880Y-89282683D01*
X143044705Y-89355972D01*
X143009762Y-89426149D01*
X143000979Y-89437778D01*
X142991470Y-89455570D01*
X142942288Y-89515498D01*
X142898611Y-89573336D01*
X142883566Y-89587050D01*
X142867107Y-89607107D01*
X142811564Y-89652689D01*
X142762311Y-89697590D01*
X142740081Y-89711354D01*
X142715570Y-89731470D01*
X142657233Y-89762651D01*
X142605501Y-89794683D01*
X142575727Y-89806217D01*
X142542683Y-89823880D01*
X142484856Y-89841421D01*
X142433518Y-89861310D01*
X142396445Y-89868240D01*
X142355090Y-89880785D01*
X142300655Y-89886146D01*
X142252218Y-89895201D01*
X142208724Y-89895201D01*
X142160000Y-89900000D01*
X142111276Y-89895201D01*
X142067782Y-89895201D01*
X142019343Y-89886146D01*
X141964910Y-89880785D01*
X141923555Y-89868240D01*
X141886481Y-89861310D01*
X141835139Y-89841419D01*
X141777317Y-89823880D01*
X141744275Y-89806218D01*
X141714498Y-89794683D01*
X141662759Y-89762647D01*
X141604430Y-89731470D01*
X141579921Y-89711356D01*
X141557688Y-89697590D01*
X141508425Y-89652681D01*
X141452893Y-89607107D01*
X141436436Y-89587054D01*
X141421388Y-89573336D01*
X141377699Y-89515482D01*
X141328530Y-89455570D01*
X141319022Y-89437783D01*
X141310237Y-89426149D01*
X141275279Y-89355945D01*
X141236120Y-89282683D01*
X141231943Y-89268916D01*
X141228027Y-89261050D01*
X141204882Y-89179706D01*
X141179215Y-89095090D01*
X141178371Y-89086530D01*
X141177553Y-89083652D01*
X141169040Y-88991788D01*
X141160000Y-88900000D01*
X141169039Y-88808219D01*
X141177553Y-88716347D01*
X141178372Y-88713468D01*
X141179215Y-88704910D01*
X141204878Y-88620308D01*
X141228027Y-88538949D01*
X141231944Y-88531081D01*
X141236120Y-88517317D01*
X141275272Y-88444068D01*
X141310237Y-88373850D01*
X141319024Y-88362213D01*
X141328530Y-88344430D01*
X141377689Y-88284528D01*
X141421388Y-88226663D01*
X141436439Y-88212941D01*
X141452893Y-88192893D01*
X141508414Y-88147327D01*
X141557688Y-88102409D01*
X141579926Y-88088639D01*
X141604430Y-88068530D01*
X141662747Y-88037358D01*
X141714498Y-88005316D01*
X141744282Y-87993777D01*
X141777317Y-87976120D01*
X141835127Y-87958583D01*
X141886481Y-87938689D01*
X141923562Y-87931757D01*
X141964910Y-87919215D01*
X142019340Y-87913853D01*
X142067782Y-87904799D01*
X142111276Y-87904799D01*
X142160000Y-87900000D01*
X142208724Y-87904799D01*
G37*
G36*
X150414562Y-87446586D02*
G01*
X150455604Y-87446586D01*
X150501313Y-87455130D01*
X150553336Y-87460254D01*
X150592852Y-87472241D01*
X150627834Y-87478780D01*
X150676283Y-87497549D01*
X150731549Y-87514314D01*
X150763128Y-87531193D01*
X150791214Y-87542074D01*
X150840016Y-87572291D01*
X150895792Y-87602104D01*
X150919225Y-87621335D01*
X150940180Y-87634310D01*
X150986612Y-87676639D01*
X151039751Y-87720249D01*
X151055498Y-87739436D01*
X151069661Y-87752348D01*
X151110775Y-87806791D01*
X151157896Y-87864208D01*
X151167007Y-87881255D01*
X151175249Y-87892168D01*
X151208031Y-87958005D01*
X151245686Y-88028451D01*
X151249702Y-88041691D01*
X151253350Y-88049017D01*
X151274897Y-88124749D01*
X151299746Y-88206664D01*
X151300562Y-88214951D01*
X151301297Y-88217534D01*
X151308938Y-88299994D01*
X151318000Y-88392000D01*
X151308937Y-88484013D01*
X151301297Y-88566465D01*
X151300562Y-88569046D01*
X151299746Y-88577336D01*
X151274893Y-88659265D01*
X151253350Y-88734982D01*
X151249703Y-88742305D01*
X151245686Y-88755549D01*
X151208024Y-88826008D01*
X151175249Y-88891831D01*
X151167009Y-88902741D01*
X151157896Y-88919792D01*
X151110765Y-88977219D01*
X151069661Y-89031651D01*
X151055501Y-89044559D01*
X151039751Y-89063751D01*
X150986601Y-89107369D01*
X150940180Y-89149689D01*
X150919230Y-89162660D01*
X150895792Y-89181896D01*
X150840004Y-89211715D01*
X150791214Y-89241925D01*
X150763134Y-89252802D01*
X150731549Y-89269686D01*
X150676271Y-89286454D01*
X150627834Y-89305219D01*
X150592859Y-89311756D01*
X150553336Y-89323746D01*
X150501310Y-89328870D01*
X150455604Y-89337414D01*
X150414562Y-89337414D01*
X150368000Y-89342000D01*
X150321438Y-89337414D01*
X150280396Y-89337414D01*
X150234688Y-89328869D01*
X150182664Y-89323746D01*
X150143142Y-89311757D01*
X150108165Y-89305219D01*
X150059723Y-89286452D01*
X150004451Y-89269686D01*
X149972867Y-89252804D01*
X149944785Y-89241925D01*
X149895988Y-89211711D01*
X149840208Y-89181896D01*
X149816772Y-89162663D01*
X149795819Y-89149689D01*
X149749388Y-89107361D01*
X149696249Y-89063751D01*
X149680501Y-89044562D01*
X149666338Y-89031651D01*
X149625221Y-88977204D01*
X149578104Y-88919792D01*
X149568992Y-88902746D01*
X149560750Y-88891831D01*
X149527960Y-88825981D01*
X149490314Y-88755549D01*
X149486298Y-88742310D01*
X149482649Y-88734982D01*
X149461090Y-88659212D01*
X149436254Y-88577336D01*
X149435438Y-88569052D01*
X149434702Y-88566465D01*
X149427045Y-88483841D01*
X149418000Y-88392000D01*
X149427044Y-88300166D01*
X149434702Y-88217534D01*
X149435438Y-88214946D01*
X149436254Y-88206664D01*
X149461086Y-88124802D01*
X149482649Y-88049017D01*
X149486298Y-88041686D01*
X149490314Y-88028451D01*
X149527953Y-87958032D01*
X149560750Y-87892168D01*
X149568994Y-87881250D01*
X149578104Y-87864208D01*
X149625212Y-87806806D01*
X149666338Y-87752348D01*
X149680504Y-87739433D01*
X149696249Y-87720249D01*
X149749377Y-87676647D01*
X149795819Y-87634310D01*
X149816777Y-87621332D01*
X149840208Y-87602104D01*
X149895976Y-87572295D01*
X149944785Y-87542074D01*
X149972874Y-87531191D01*
X150004451Y-87514314D01*
X150059712Y-87497550D01*
X150108165Y-87478780D01*
X150143149Y-87472240D01*
X150182664Y-87460254D01*
X150234685Y-87455130D01*
X150280396Y-87446586D01*
X150321438Y-87446586D01*
X150368000Y-87442000D01*
X150414562Y-87446586D01*
G37*
G36*
X151134043Y-84905191D02*
G01*
X151166727Y-84909494D01*
X151174948Y-84913327D01*
X151194537Y-84917224D01*
X151220480Y-84934559D01*
X151231608Y-84939748D01*
X151238378Y-84946518D01*
X151259421Y-84960579D01*
X151273481Y-84981621D01*
X151280251Y-84988391D01*
X151285438Y-84999516D01*
X151302776Y-85025463D01*
X151306672Y-85045053D01*
X151310505Y-85053272D01*
X151314806Y-85085945D01*
X151318000Y-85102000D01*
X151318000Y-86602000D01*
X151314805Y-86618058D01*
X151310505Y-86650727D01*
X151306673Y-86658944D01*
X151302776Y-86678537D01*
X151285437Y-86704485D01*
X151280251Y-86715608D01*
X151273483Y-86722375D01*
X151259421Y-86743421D01*
X151238375Y-86757483D01*
X151231608Y-86764251D01*
X151220485Y-86769437D01*
X151194537Y-86786776D01*
X151174944Y-86790673D01*
X151166727Y-86794505D01*
X151134056Y-86798806D01*
X151118000Y-86802000D01*
X149618000Y-86802000D01*
X149601943Y-86798806D01*
X149569272Y-86794505D01*
X149561053Y-86790672D01*
X149541463Y-86786776D01*
X149515516Y-86769438D01*
X149504391Y-86764251D01*
X149497621Y-86757481D01*
X149476579Y-86743421D01*
X149462518Y-86722378D01*
X149455748Y-86715608D01*
X149450559Y-86704480D01*
X149433224Y-86678537D01*
X149429327Y-86658948D01*
X149425494Y-86650727D01*
X149421190Y-86618041D01*
X149418000Y-86602000D01*
X149418000Y-85102000D01*
X149421190Y-85085958D01*
X149425494Y-85053272D01*
X149429327Y-85045049D01*
X149433224Y-85025463D01*
X149450557Y-84999521D01*
X149455748Y-84988391D01*
X149462520Y-84981618D01*
X149476579Y-84960579D01*
X149497618Y-84946520D01*
X149504391Y-84939748D01*
X149515521Y-84934557D01*
X149541463Y-84917224D01*
X149561049Y-84913327D01*
X149569272Y-84909494D01*
X149601960Y-84905190D01*
X149618000Y-84902000D01*
X151118000Y-84902000D01*
X151134043Y-84905191D01*
G37*
G36*
X137208724Y-83840799D02*
G01*
X137252218Y-83840799D01*
X137300658Y-83849853D01*
X137355090Y-83855215D01*
X137396438Y-83867757D01*
X137433518Y-83874689D01*
X137484868Y-83894582D01*
X137542683Y-83912120D01*
X137575720Y-83929778D01*
X137605501Y-83941316D01*
X137657245Y-83973354D01*
X137715570Y-84004530D01*
X137740076Y-84024641D01*
X137762311Y-84038409D01*
X137811575Y-84083319D01*
X137867107Y-84128893D01*
X137883563Y-84148945D01*
X137898611Y-84162663D01*
X137942297Y-84220513D01*
X137991470Y-84280430D01*
X138000977Y-84298218D01*
X138009762Y-84309850D01*
X138044713Y-84380040D01*
X138083880Y-84453317D01*
X138088056Y-84467086D01*
X138091972Y-84474949D01*
X138115105Y-84556255D01*
X138140785Y-84640910D01*
X138141628Y-84649473D01*
X138142446Y-84652347D01*
X138150943Y-84744047D01*
X138160000Y-84836000D01*
X138150942Y-84927960D01*
X138142446Y-85019652D01*
X138141628Y-85022524D01*
X138140785Y-85031090D01*
X138115100Y-85115759D01*
X138091972Y-85197050D01*
X138088057Y-85204911D01*
X138083880Y-85218683D01*
X138044705Y-85291972D01*
X138009762Y-85362149D01*
X138000979Y-85373778D01*
X137991470Y-85391570D01*
X137942288Y-85451498D01*
X137898611Y-85509336D01*
X137883566Y-85523050D01*
X137867107Y-85543107D01*
X137811564Y-85588689D01*
X137762311Y-85633590D01*
X137740081Y-85647354D01*
X137715570Y-85667470D01*
X137657233Y-85698651D01*
X137605501Y-85730683D01*
X137575727Y-85742217D01*
X137542683Y-85759880D01*
X137484856Y-85777421D01*
X137433518Y-85797310D01*
X137396445Y-85804240D01*
X137355090Y-85816785D01*
X137300655Y-85822146D01*
X137252218Y-85831201D01*
X137208724Y-85831201D01*
X137160000Y-85836000D01*
X137111276Y-85831201D01*
X137067782Y-85831201D01*
X137019343Y-85822146D01*
X136964910Y-85816785D01*
X136923555Y-85804240D01*
X136886481Y-85797310D01*
X136835139Y-85777419D01*
X136777317Y-85759880D01*
X136744275Y-85742218D01*
X136714498Y-85730683D01*
X136662759Y-85698647D01*
X136604430Y-85667470D01*
X136579921Y-85647356D01*
X136557688Y-85633590D01*
X136508425Y-85588681D01*
X136452893Y-85543107D01*
X136436436Y-85523054D01*
X136421388Y-85509336D01*
X136377699Y-85451482D01*
X136328530Y-85391570D01*
X136319022Y-85373783D01*
X136310237Y-85362149D01*
X136275279Y-85291945D01*
X136236120Y-85218683D01*
X136231943Y-85204916D01*
X136228027Y-85197050D01*
X136204882Y-85115706D01*
X136179215Y-85031090D01*
X136178371Y-85022530D01*
X136177553Y-85019652D01*
X136169040Y-84927788D01*
X136160000Y-84836000D01*
X136169039Y-84744219D01*
X136177553Y-84652347D01*
X136178372Y-84649468D01*
X136179215Y-84640910D01*
X136204878Y-84556308D01*
X136228027Y-84474949D01*
X136231944Y-84467081D01*
X136236120Y-84453317D01*
X136275272Y-84380068D01*
X136310237Y-84309850D01*
X136319024Y-84298213D01*
X136328530Y-84280430D01*
X136377689Y-84220528D01*
X136421388Y-84162663D01*
X136436439Y-84148941D01*
X136452893Y-84128893D01*
X136508414Y-84083327D01*
X136557688Y-84038409D01*
X136579926Y-84024639D01*
X136604430Y-84004530D01*
X136662747Y-83973358D01*
X136714498Y-83941316D01*
X136744282Y-83929777D01*
X136777317Y-83912120D01*
X136835127Y-83894583D01*
X136886481Y-83874689D01*
X136923562Y-83867757D01*
X136964910Y-83855215D01*
X137019340Y-83849853D01*
X137067782Y-83840799D01*
X137111276Y-83840799D01*
X137160000Y-83836000D01*
X137208724Y-83840799D01*
G37*
G36*
X144828724Y-83840799D02*
G01*
X144872218Y-83840799D01*
X144920658Y-83849853D01*
X144975090Y-83855215D01*
X145016438Y-83867757D01*
X145053518Y-83874689D01*
X145104868Y-83894582D01*
X145162683Y-83912120D01*
X145195720Y-83929778D01*
X145225501Y-83941316D01*
X145277245Y-83973354D01*
X145335570Y-84004530D01*
X145360076Y-84024641D01*
X145382311Y-84038409D01*
X145431575Y-84083319D01*
X145487107Y-84128893D01*
X145503563Y-84148945D01*
X145518611Y-84162663D01*
X145562297Y-84220513D01*
X145611470Y-84280430D01*
X145620977Y-84298218D01*
X145629762Y-84309850D01*
X145664713Y-84380040D01*
X145703880Y-84453317D01*
X145708056Y-84467086D01*
X145711972Y-84474949D01*
X145735105Y-84556255D01*
X145760785Y-84640910D01*
X145761628Y-84649473D01*
X145762446Y-84652347D01*
X145770943Y-84744047D01*
X145780000Y-84836000D01*
X145770942Y-84927960D01*
X145762446Y-85019652D01*
X145761628Y-85022524D01*
X145760785Y-85031090D01*
X145735100Y-85115759D01*
X145711972Y-85197050D01*
X145708057Y-85204911D01*
X145703880Y-85218683D01*
X145664705Y-85291972D01*
X145629762Y-85362149D01*
X145620979Y-85373778D01*
X145611470Y-85391570D01*
X145562288Y-85451498D01*
X145518611Y-85509336D01*
X145503566Y-85523050D01*
X145487107Y-85543107D01*
X145431564Y-85588689D01*
X145382311Y-85633590D01*
X145360081Y-85647354D01*
X145335570Y-85667470D01*
X145277233Y-85698651D01*
X145225501Y-85730683D01*
X145195727Y-85742217D01*
X145162683Y-85759880D01*
X145104856Y-85777421D01*
X145053518Y-85797310D01*
X145016445Y-85804240D01*
X144975090Y-85816785D01*
X144920655Y-85822146D01*
X144872218Y-85831201D01*
X144828724Y-85831201D01*
X144780000Y-85836000D01*
X144731276Y-85831201D01*
X144687782Y-85831201D01*
X144639343Y-85822146D01*
X144584910Y-85816785D01*
X144543555Y-85804240D01*
X144506481Y-85797310D01*
X144455139Y-85777419D01*
X144397317Y-85759880D01*
X144364275Y-85742218D01*
X144334498Y-85730683D01*
X144282759Y-85698647D01*
X144224430Y-85667470D01*
X144199921Y-85647356D01*
X144177688Y-85633590D01*
X144128425Y-85588681D01*
X144072893Y-85543107D01*
X144056436Y-85523054D01*
X144041388Y-85509336D01*
X143997699Y-85451482D01*
X143948530Y-85391570D01*
X143939022Y-85373783D01*
X143930237Y-85362149D01*
X143895279Y-85291945D01*
X143856120Y-85218683D01*
X143851943Y-85204916D01*
X143848027Y-85197050D01*
X143824882Y-85115706D01*
X143799215Y-85031090D01*
X143798371Y-85022530D01*
X143797553Y-85019652D01*
X143789040Y-84927788D01*
X143780000Y-84836000D01*
X143789039Y-84744219D01*
X143797553Y-84652347D01*
X143798372Y-84649468D01*
X143799215Y-84640910D01*
X143824878Y-84556308D01*
X143848027Y-84474949D01*
X143851944Y-84467081D01*
X143856120Y-84453317D01*
X143895272Y-84380068D01*
X143930237Y-84309850D01*
X143939024Y-84298213D01*
X143948530Y-84280430D01*
X143997689Y-84220528D01*
X144041388Y-84162663D01*
X144056439Y-84148941D01*
X144072893Y-84128893D01*
X144128414Y-84083327D01*
X144177688Y-84038409D01*
X144199926Y-84024639D01*
X144224430Y-84004530D01*
X144282747Y-83973358D01*
X144334498Y-83941316D01*
X144364282Y-83929777D01*
X144397317Y-83912120D01*
X144455127Y-83894583D01*
X144506481Y-83874689D01*
X144543562Y-83867757D01*
X144584910Y-83855215D01*
X144639340Y-83849853D01*
X144687782Y-83840799D01*
X144731276Y-83840799D01*
X144780000Y-83836000D01*
X144828724Y-83840799D01*
G37*
G36*
X158038889Y-82013012D02*
G01*
X158084830Y-82013012D01*
X158135988Y-82022575D01*
X158192845Y-82028175D01*
X158236042Y-82041278D01*
X158275202Y-82048599D01*
X158329438Y-82069609D01*
X158389818Y-82087926D01*
X158424315Y-82106365D01*
X158455786Y-82118557D01*
X158510469Y-82152415D01*
X158571349Y-82184957D01*
X158596929Y-82205950D01*
X158620442Y-82220509D01*
X158672546Y-82268008D01*
X158730462Y-82315538D01*
X158747621Y-82336446D01*
X158763564Y-82350980D01*
X158809838Y-82412258D01*
X158861043Y-82474651D01*
X158870947Y-82493180D01*
X158880273Y-82505530D01*
X158917372Y-82580034D01*
X158958074Y-82656182D01*
X158962415Y-82670492D01*
X158966596Y-82678889D01*
X158991295Y-82765697D01*
X159017825Y-82853155D01*
X159018696Y-82862003D01*
X159019594Y-82865158D01*
X159028933Y-82965944D01*
X159038000Y-83058000D01*
X159028932Y-83150063D01*
X159019594Y-83250841D01*
X159018696Y-83253994D01*
X159017825Y-83262845D01*
X158991290Y-83350317D01*
X158966596Y-83437110D01*
X158962415Y-83445504D01*
X158958074Y-83459818D01*
X158917364Y-83535979D01*
X158880273Y-83610469D01*
X158870949Y-83622815D01*
X158861043Y-83641349D01*
X158809829Y-83703752D01*
X158763564Y-83765019D01*
X158747624Y-83779549D01*
X158730462Y-83800462D01*
X158672535Y-83848000D01*
X158620442Y-83895490D01*
X158596934Y-83910045D01*
X158571349Y-83931043D01*
X158510457Y-83963590D01*
X158455786Y-83997442D01*
X158424321Y-84009631D01*
X158389818Y-84028074D01*
X158329426Y-84046393D01*
X158275202Y-84067400D01*
X158236049Y-84074719D01*
X158192845Y-84087825D01*
X158135985Y-84093425D01*
X158084830Y-84102988D01*
X158038889Y-84102988D01*
X157988000Y-84108000D01*
X157937111Y-84102988D01*
X157891170Y-84102988D01*
X157840014Y-84093424D01*
X157783155Y-84087825D01*
X157739952Y-84074719D01*
X157700797Y-84067400D01*
X157646569Y-84046392D01*
X157586182Y-84028074D01*
X157551680Y-84009632D01*
X157520213Y-83997442D01*
X157465535Y-83963586D01*
X157404651Y-83931043D01*
X157379068Y-83910047D01*
X157355557Y-83895490D01*
X157303454Y-83847992D01*
X157245538Y-83800462D01*
X157228378Y-83779553D01*
X157212435Y-83765019D01*
X157166158Y-83703737D01*
X157114957Y-83641349D01*
X157105053Y-83622820D01*
X157095726Y-83610469D01*
X157058620Y-83535951D01*
X157017926Y-83459818D01*
X157013585Y-83445509D01*
X157009403Y-83437110D01*
X156984693Y-83350264D01*
X156958175Y-83262845D01*
X156957303Y-83254000D01*
X156956405Y-83250841D01*
X156947050Y-83149891D01*
X156938000Y-83058000D01*
X156947049Y-82966116D01*
X156956405Y-82865158D01*
X156957304Y-82861998D01*
X156958175Y-82853155D01*
X156984688Y-82765750D01*
X157009403Y-82678889D01*
X157013586Y-82670487D01*
X157017926Y-82656182D01*
X157058613Y-82580061D01*
X157095726Y-82505530D01*
X157105054Y-82493176D01*
X157114957Y-82474651D01*
X157166148Y-82412274D01*
X157212435Y-82350980D01*
X157228381Y-82336442D01*
X157245538Y-82315538D01*
X157303443Y-82268016D01*
X157355557Y-82220509D01*
X157379073Y-82205948D01*
X157404651Y-82184957D01*
X157465523Y-82152419D01*
X157520213Y-82118557D01*
X157551687Y-82106363D01*
X157586182Y-82087926D01*
X157646557Y-82069611D01*
X157700797Y-82048599D01*
X157739959Y-82041278D01*
X157783155Y-82028175D01*
X157840011Y-82022575D01*
X157891170Y-82013012D01*
X157937111Y-82013012D01*
X157988000Y-82008000D01*
X158038889Y-82013012D01*
G37*
G36*
X137208724Y-79776799D02*
G01*
X137252218Y-79776799D01*
X137300658Y-79785853D01*
X137355090Y-79791215D01*
X137396438Y-79803757D01*
X137433518Y-79810689D01*
X137484868Y-79830582D01*
X137542683Y-79848120D01*
X137575720Y-79865778D01*
X137605501Y-79877316D01*
X137657245Y-79909354D01*
X137715570Y-79940530D01*
X137740076Y-79960641D01*
X137762311Y-79974409D01*
X137811575Y-80019319D01*
X137867107Y-80064893D01*
X137883563Y-80084945D01*
X137898611Y-80098663D01*
X137942297Y-80156513D01*
X137991470Y-80216430D01*
X138000977Y-80234218D01*
X138009762Y-80245850D01*
X138044713Y-80316040D01*
X138083880Y-80389317D01*
X138088056Y-80403086D01*
X138091972Y-80410949D01*
X138115105Y-80492255D01*
X138140785Y-80576910D01*
X138141628Y-80585473D01*
X138142446Y-80588347D01*
X138150943Y-80680047D01*
X138160000Y-80772000D01*
X138150942Y-80863960D01*
X138142446Y-80955652D01*
X138141628Y-80958524D01*
X138140785Y-80967090D01*
X138115100Y-81051759D01*
X138091972Y-81133050D01*
X138088057Y-81140911D01*
X138083880Y-81154683D01*
X138044705Y-81227972D01*
X138009762Y-81298149D01*
X138000979Y-81309778D01*
X137991470Y-81327570D01*
X137942288Y-81387498D01*
X137898611Y-81445336D01*
X137883566Y-81459050D01*
X137867107Y-81479107D01*
X137811564Y-81524689D01*
X137762311Y-81569590D01*
X137740081Y-81583354D01*
X137715570Y-81603470D01*
X137657233Y-81634651D01*
X137605501Y-81666683D01*
X137575727Y-81678217D01*
X137542683Y-81695880D01*
X137484856Y-81713421D01*
X137433518Y-81733310D01*
X137396445Y-81740240D01*
X137355090Y-81752785D01*
X137300655Y-81758146D01*
X137252218Y-81767201D01*
X137208724Y-81767201D01*
X137160000Y-81772000D01*
X137111276Y-81767201D01*
X137067782Y-81767201D01*
X137019343Y-81758146D01*
X136964910Y-81752785D01*
X136923555Y-81740240D01*
X136886481Y-81733310D01*
X136835139Y-81713419D01*
X136777317Y-81695880D01*
X136744275Y-81678218D01*
X136714498Y-81666683D01*
X136662759Y-81634647D01*
X136604430Y-81603470D01*
X136579921Y-81583356D01*
X136557688Y-81569590D01*
X136508425Y-81524681D01*
X136452893Y-81479107D01*
X136436436Y-81459054D01*
X136421388Y-81445336D01*
X136377699Y-81387482D01*
X136328530Y-81327570D01*
X136319022Y-81309783D01*
X136310237Y-81298149D01*
X136275279Y-81227945D01*
X136236120Y-81154683D01*
X136231943Y-81140916D01*
X136228027Y-81133050D01*
X136204882Y-81051706D01*
X136179215Y-80967090D01*
X136178371Y-80958530D01*
X136177553Y-80955652D01*
X136169040Y-80863788D01*
X136160000Y-80772000D01*
X136169039Y-80680219D01*
X136177553Y-80588347D01*
X136178372Y-80585468D01*
X136179215Y-80576910D01*
X136204878Y-80492308D01*
X136228027Y-80410949D01*
X136231944Y-80403081D01*
X136236120Y-80389317D01*
X136275272Y-80316068D01*
X136310237Y-80245850D01*
X136319024Y-80234213D01*
X136328530Y-80216430D01*
X136377689Y-80156528D01*
X136421388Y-80098663D01*
X136436439Y-80084941D01*
X136452893Y-80064893D01*
X136508414Y-80019327D01*
X136557688Y-79974409D01*
X136579926Y-79960639D01*
X136604430Y-79940530D01*
X136662747Y-79909358D01*
X136714498Y-79877316D01*
X136744282Y-79865777D01*
X136777317Y-79848120D01*
X136835127Y-79830583D01*
X136886481Y-79810689D01*
X136923562Y-79803757D01*
X136964910Y-79791215D01*
X137019340Y-79785853D01*
X137067782Y-79776799D01*
X137111276Y-79776799D01*
X137160000Y-79772000D01*
X137208724Y-79776799D01*
G37*
G36*
X144828724Y-79776799D02*
G01*
X144872218Y-79776799D01*
X144920658Y-79785853D01*
X144975090Y-79791215D01*
X145016438Y-79803757D01*
X145053518Y-79810689D01*
X145104868Y-79830582D01*
X145162683Y-79848120D01*
X145195720Y-79865778D01*
X145225501Y-79877316D01*
X145277245Y-79909354D01*
X145335570Y-79940530D01*
X145360076Y-79960641D01*
X145382311Y-79974409D01*
X145431575Y-80019319D01*
X145487107Y-80064893D01*
X145503563Y-80084945D01*
X145518611Y-80098663D01*
X145562297Y-80156513D01*
X145611470Y-80216430D01*
X145620977Y-80234218D01*
X145629762Y-80245850D01*
X145664713Y-80316040D01*
X145703880Y-80389317D01*
X145708056Y-80403086D01*
X145711972Y-80410949D01*
X145735105Y-80492255D01*
X145760785Y-80576910D01*
X145761628Y-80585473D01*
X145762446Y-80588347D01*
X145770943Y-80680047D01*
X145780000Y-80772000D01*
X145770942Y-80863960D01*
X145762446Y-80955652D01*
X145761628Y-80958524D01*
X145760785Y-80967090D01*
X145735100Y-81051759D01*
X145711972Y-81133050D01*
X145708057Y-81140911D01*
X145703880Y-81154683D01*
X145664705Y-81227972D01*
X145629762Y-81298149D01*
X145620979Y-81309778D01*
X145611470Y-81327570D01*
X145562288Y-81387498D01*
X145518611Y-81445336D01*
X145503566Y-81459050D01*
X145487107Y-81479107D01*
X145431564Y-81524689D01*
X145382311Y-81569590D01*
X145360081Y-81583354D01*
X145335570Y-81603470D01*
X145277233Y-81634651D01*
X145225501Y-81666683D01*
X145195727Y-81678217D01*
X145162683Y-81695880D01*
X145104856Y-81713421D01*
X145053518Y-81733310D01*
X145016445Y-81740240D01*
X144975090Y-81752785D01*
X144920655Y-81758146D01*
X144872218Y-81767201D01*
X144828724Y-81767201D01*
X144780000Y-81772000D01*
X144731276Y-81767201D01*
X144687782Y-81767201D01*
X144639343Y-81758146D01*
X144584910Y-81752785D01*
X144543555Y-81740240D01*
X144506481Y-81733310D01*
X144455139Y-81713419D01*
X144397317Y-81695880D01*
X144364275Y-81678218D01*
X144334498Y-81666683D01*
X144282759Y-81634647D01*
X144224430Y-81603470D01*
X144199921Y-81583356D01*
X144177688Y-81569590D01*
X144128425Y-81524681D01*
X144072893Y-81479107D01*
X144056436Y-81459054D01*
X144041388Y-81445336D01*
X143997699Y-81387482D01*
X143948530Y-81327570D01*
X143939022Y-81309783D01*
X143930237Y-81298149D01*
X143895279Y-81227945D01*
X143856120Y-81154683D01*
X143851943Y-81140916D01*
X143848027Y-81133050D01*
X143824882Y-81051706D01*
X143799215Y-80967090D01*
X143798371Y-80958530D01*
X143797553Y-80955652D01*
X143789040Y-80863788D01*
X143780000Y-80772000D01*
X143789039Y-80680219D01*
X143797553Y-80588347D01*
X143798372Y-80585468D01*
X143799215Y-80576910D01*
X143824878Y-80492308D01*
X143848027Y-80410949D01*
X143851944Y-80403081D01*
X143856120Y-80389317D01*
X143895272Y-80316068D01*
X143930237Y-80245850D01*
X143939024Y-80234213D01*
X143948530Y-80216430D01*
X143997689Y-80156528D01*
X144041388Y-80098663D01*
X144056439Y-80084941D01*
X144072893Y-80064893D01*
X144128414Y-80019327D01*
X144177688Y-79974409D01*
X144199926Y-79960639D01*
X144224430Y-79940530D01*
X144282747Y-79909358D01*
X144334498Y-79877316D01*
X144364282Y-79865777D01*
X144397317Y-79848120D01*
X144455127Y-79830583D01*
X144506481Y-79810689D01*
X144543562Y-79803757D01*
X144584910Y-79791215D01*
X144639340Y-79785853D01*
X144687782Y-79776799D01*
X144731276Y-79776799D01*
X144780000Y-79772000D01*
X144828724Y-79776799D01*
G37*
G36*
X147956724Y-79776799D02*
G01*
X148000218Y-79776799D01*
X148048658Y-79785853D01*
X148103090Y-79791215D01*
X148144438Y-79803757D01*
X148181518Y-79810689D01*
X148232868Y-79830582D01*
X148290683Y-79848120D01*
X148323720Y-79865778D01*
X148353501Y-79877316D01*
X148405245Y-79909354D01*
X148463570Y-79940530D01*
X148488076Y-79960641D01*
X148510311Y-79974409D01*
X148559575Y-80019319D01*
X148615107Y-80064893D01*
X148631563Y-80084945D01*
X148646611Y-80098663D01*
X148690297Y-80156513D01*
X148739470Y-80216430D01*
X148748977Y-80234218D01*
X148757762Y-80245850D01*
X148792713Y-80316040D01*
X148831880Y-80389317D01*
X148836056Y-80403086D01*
X148839972Y-80410949D01*
X148863105Y-80492255D01*
X148888785Y-80576910D01*
X148889628Y-80585473D01*
X148890446Y-80588347D01*
X148898943Y-80680047D01*
X148908000Y-80772000D01*
X148898942Y-80863960D01*
X148890446Y-80955652D01*
X148889628Y-80958524D01*
X148888785Y-80967090D01*
X148863100Y-81051759D01*
X148839972Y-81133050D01*
X148836057Y-81140911D01*
X148831880Y-81154683D01*
X148792705Y-81227972D01*
X148757762Y-81298149D01*
X148748979Y-81309778D01*
X148739470Y-81327570D01*
X148690288Y-81387498D01*
X148646611Y-81445336D01*
X148631566Y-81459050D01*
X148615107Y-81479107D01*
X148559564Y-81524689D01*
X148510311Y-81569590D01*
X148488081Y-81583354D01*
X148463570Y-81603470D01*
X148405233Y-81634651D01*
X148353501Y-81666683D01*
X148323727Y-81678217D01*
X148290683Y-81695880D01*
X148232856Y-81713421D01*
X148181518Y-81733310D01*
X148144445Y-81740240D01*
X148103090Y-81752785D01*
X148048655Y-81758146D01*
X148000218Y-81767201D01*
X147956724Y-81767201D01*
X147908000Y-81772000D01*
X147859276Y-81767201D01*
X147815782Y-81767201D01*
X147767343Y-81758146D01*
X147712910Y-81752785D01*
X147671555Y-81740240D01*
X147634481Y-81733310D01*
X147583139Y-81713419D01*
X147525317Y-81695880D01*
X147492275Y-81678218D01*
X147462498Y-81666683D01*
X147410759Y-81634647D01*
X147352430Y-81603470D01*
X147327921Y-81583356D01*
X147305688Y-81569590D01*
X147256425Y-81524681D01*
X147200893Y-81479107D01*
X147184436Y-81459054D01*
X147169388Y-81445336D01*
X147125699Y-81387482D01*
X147076530Y-81327570D01*
X147067022Y-81309783D01*
X147058237Y-81298149D01*
X147023279Y-81227945D01*
X146984120Y-81154683D01*
X146979943Y-81140916D01*
X146976027Y-81133050D01*
X146952882Y-81051706D01*
X146927215Y-80967090D01*
X146926371Y-80958530D01*
X146925553Y-80955652D01*
X146917040Y-80863788D01*
X146908000Y-80772000D01*
X146917039Y-80680219D01*
X146925553Y-80588347D01*
X146926372Y-80585468D01*
X146927215Y-80576910D01*
X146952878Y-80492308D01*
X146976027Y-80410949D01*
X146979944Y-80403081D01*
X146984120Y-80389317D01*
X147023272Y-80316068D01*
X147058237Y-80245850D01*
X147067024Y-80234213D01*
X147076530Y-80216430D01*
X147125689Y-80156528D01*
X147169388Y-80098663D01*
X147184439Y-80084941D01*
X147200893Y-80064893D01*
X147256414Y-80019327D01*
X147305688Y-79974409D01*
X147327926Y-79960639D01*
X147352430Y-79940530D01*
X147410747Y-79909358D01*
X147462498Y-79877316D01*
X147492282Y-79865777D01*
X147525317Y-79848120D01*
X147583127Y-79830583D01*
X147634481Y-79810689D01*
X147671562Y-79803757D01*
X147712910Y-79791215D01*
X147767340Y-79785853D01*
X147815782Y-79776799D01*
X147859276Y-79776799D01*
X147908000Y-79772000D01*
X147956724Y-79776799D01*
G37*
G36*
X152956724Y-79776799D02*
G01*
X153000218Y-79776799D01*
X153048658Y-79785853D01*
X153103090Y-79791215D01*
X153144438Y-79803757D01*
X153181518Y-79810689D01*
X153232868Y-79830582D01*
X153290683Y-79848120D01*
X153323720Y-79865778D01*
X153353501Y-79877316D01*
X153405245Y-79909354D01*
X153463570Y-79940530D01*
X153488076Y-79960641D01*
X153510311Y-79974409D01*
X153559575Y-80019319D01*
X153615107Y-80064893D01*
X153631563Y-80084945D01*
X153646611Y-80098663D01*
X153690297Y-80156513D01*
X153739470Y-80216430D01*
X153748977Y-80234218D01*
X153757762Y-80245850D01*
X153792713Y-80316040D01*
X153831880Y-80389317D01*
X153836056Y-80403086D01*
X153839972Y-80410949D01*
X153863105Y-80492255D01*
X153888785Y-80576910D01*
X153889628Y-80585473D01*
X153890446Y-80588347D01*
X153898943Y-80680047D01*
X153908000Y-80772000D01*
X153898942Y-80863960D01*
X153890446Y-80955652D01*
X153889628Y-80958524D01*
X153888785Y-80967090D01*
X153863100Y-81051759D01*
X153839972Y-81133050D01*
X153836057Y-81140911D01*
X153831880Y-81154683D01*
X153792705Y-81227972D01*
X153757762Y-81298149D01*
X153748979Y-81309778D01*
X153739470Y-81327570D01*
X153690288Y-81387498D01*
X153646611Y-81445336D01*
X153631566Y-81459050D01*
X153615107Y-81479107D01*
X153559564Y-81524689D01*
X153510311Y-81569590D01*
X153488081Y-81583354D01*
X153463570Y-81603470D01*
X153405233Y-81634651D01*
X153353501Y-81666683D01*
X153323727Y-81678217D01*
X153290683Y-81695880D01*
X153232856Y-81713421D01*
X153181518Y-81733310D01*
X153144445Y-81740240D01*
X153103090Y-81752785D01*
X153048655Y-81758146D01*
X153000218Y-81767201D01*
X152956724Y-81767201D01*
X152908000Y-81772000D01*
X152859276Y-81767201D01*
X152815782Y-81767201D01*
X152767343Y-81758146D01*
X152712910Y-81752785D01*
X152671555Y-81740240D01*
X152634481Y-81733310D01*
X152583139Y-81713419D01*
X152525317Y-81695880D01*
X152492275Y-81678218D01*
X152462498Y-81666683D01*
X152410759Y-81634647D01*
X152352430Y-81603470D01*
X152327921Y-81583356D01*
X152305688Y-81569590D01*
X152256425Y-81524681D01*
X152200893Y-81479107D01*
X152184436Y-81459054D01*
X152169388Y-81445336D01*
X152125699Y-81387482D01*
X152076530Y-81327570D01*
X152067022Y-81309783D01*
X152058237Y-81298149D01*
X152023279Y-81227945D01*
X151984120Y-81154683D01*
X151979943Y-81140916D01*
X151976027Y-81133050D01*
X151952882Y-81051706D01*
X151927215Y-80967090D01*
X151926371Y-80958530D01*
X151925553Y-80955652D01*
X151917040Y-80863788D01*
X151908000Y-80772000D01*
X151917039Y-80680219D01*
X151925553Y-80588347D01*
X151926372Y-80585468D01*
X151927215Y-80576910D01*
X151952878Y-80492308D01*
X151976027Y-80410949D01*
X151979944Y-80403081D01*
X151984120Y-80389317D01*
X152023272Y-80316068D01*
X152058237Y-80245850D01*
X152067024Y-80234213D01*
X152076530Y-80216430D01*
X152125689Y-80156528D01*
X152169388Y-80098663D01*
X152184439Y-80084941D01*
X152200893Y-80064893D01*
X152256414Y-80019327D01*
X152305688Y-79974409D01*
X152327926Y-79960639D01*
X152352430Y-79940530D01*
X152410747Y-79909358D01*
X152462498Y-79877316D01*
X152492282Y-79865777D01*
X152525317Y-79848120D01*
X152583127Y-79830583D01*
X152634481Y-79810689D01*
X152671562Y-79803757D01*
X152712910Y-79791215D01*
X152767340Y-79785853D01*
X152815782Y-79776799D01*
X152859276Y-79776799D01*
X152908000Y-79772000D01*
X152956724Y-79776799D01*
G37*
G36*
X158854043Y-79471191D02*
G01*
X158886727Y-79475494D01*
X158894948Y-79479327D01*
X158914537Y-79483224D01*
X158940480Y-79500559D01*
X158951608Y-79505748D01*
X158958378Y-79512518D01*
X158979421Y-79526579D01*
X158993481Y-79547621D01*
X159000251Y-79554391D01*
X159005438Y-79565516D01*
X159022776Y-79591463D01*
X159026672Y-79611053D01*
X159030505Y-79619272D01*
X159034806Y-79651945D01*
X159038000Y-79668000D01*
X159038000Y-81368000D01*
X159034805Y-81384058D01*
X159030505Y-81416727D01*
X159026673Y-81424944D01*
X159022776Y-81444537D01*
X159005437Y-81470485D01*
X159000251Y-81481608D01*
X158993483Y-81488375D01*
X158979421Y-81509421D01*
X158958375Y-81523483D01*
X158951608Y-81530251D01*
X158940485Y-81535437D01*
X158914537Y-81552776D01*
X158894944Y-81556673D01*
X158886727Y-81560505D01*
X158854056Y-81564806D01*
X158838000Y-81568000D01*
X157138000Y-81568000D01*
X157121943Y-81564806D01*
X157089272Y-81560505D01*
X157081053Y-81556672D01*
X157061463Y-81552776D01*
X157035516Y-81535438D01*
X157024391Y-81530251D01*
X157017621Y-81523481D01*
X156996579Y-81509421D01*
X156982518Y-81488378D01*
X156975748Y-81481608D01*
X156970559Y-81470480D01*
X156953224Y-81444537D01*
X156949327Y-81424948D01*
X156945494Y-81416727D01*
X156941190Y-81384041D01*
X156938000Y-81368000D01*
X156938000Y-79668000D01*
X156941190Y-79651958D01*
X156945494Y-79619272D01*
X156949327Y-79611049D01*
X156953224Y-79591463D01*
X156970557Y-79565521D01*
X156975748Y-79554391D01*
X156982520Y-79547618D01*
X156996579Y-79526579D01*
X157017618Y-79512520D01*
X157024391Y-79505748D01*
X157035521Y-79500557D01*
X157061463Y-79483224D01*
X157081049Y-79479327D01*
X157089272Y-79475494D01*
X157121960Y-79471190D01*
X157138000Y-79468000D01*
X158838000Y-79468000D01*
X158854043Y-79471191D01*
G37*
M02*
