G04 #@! TF.GenerationSoftware,KiCad,Pcbnew,(5.0.1)-3*
G04 #@! TF.CreationDate,2019-02-16T16:59:46-05:00*
G04 #@! TF.ProjectId,OdysseyDaughterCardFlipFlop,4F647973736579446175676874657243,1.1*
G04 #@! TF.SameCoordinates,Original*
G04 #@! TF.FileFunction,Legend,Top*
G04 #@! TF.FilePolarity,Positive*
%FSLAX46Y46*%
G04 Gerber Fmt 4.6, Leading zero omitted, Abs format (unit mm)*
G04 Created by KiCad (PCBNEW (5.0.1)-3) date 2/16/2019 4:59:46 PM*
%MOMM*%
%LPD*%
G01*
G04 APERTURE LIST*
%ADD10C,0.100000*%
%ADD11C,0.200000*%
%ADD12C,0.120000*%
%ADD13C,0.150000*%
G04 APERTURE END LIST*
D10*
X155108714Y-80611285D02*
X155108714Y-80182714D01*
X155108714Y-80397000D02*
X155858714Y-80397000D01*
X155751571Y-80325571D01*
X155680142Y-80254142D01*
X155644428Y-80182714D01*
X155180142Y-81361285D02*
X155144428Y-81325571D01*
X155108714Y-81218428D01*
X155108714Y-81147000D01*
X155144428Y-81039857D01*
X155215857Y-80968428D01*
X155287285Y-80932714D01*
X155430142Y-80897000D01*
X155537285Y-80897000D01*
X155680142Y-80932714D01*
X155751571Y-80968428D01*
X155823000Y-81039857D01*
X155858714Y-81147000D01*
X155858714Y-81218428D01*
X155823000Y-81325571D01*
X155787285Y-81361285D01*
X155787285Y-82722714D02*
X155823000Y-82758428D01*
X155858714Y-82829857D01*
X155858714Y-83008428D01*
X155823000Y-83079857D01*
X155787285Y-83115571D01*
X155715857Y-83151285D01*
X155644428Y-83151285D01*
X155537285Y-83115571D01*
X155108714Y-82687000D01*
X155108714Y-83151285D01*
X155180142Y-83901285D02*
X155144428Y-83865571D01*
X155108714Y-83758428D01*
X155108714Y-83687000D01*
X155144428Y-83579857D01*
X155215857Y-83508428D01*
X155287285Y-83472714D01*
X155430142Y-83437000D01*
X155537285Y-83437000D01*
X155680142Y-83472714D01*
X155751571Y-83508428D01*
X155823000Y-83579857D01*
X155858714Y-83687000D01*
X155858714Y-83758428D01*
X155823000Y-83865571D01*
X155787285Y-83901285D01*
X160938714Y-78127285D02*
X160938714Y-78555857D01*
X160188714Y-78341571D02*
X160938714Y-78341571D01*
X160188714Y-78913000D02*
X160224428Y-78841571D01*
X160260142Y-78805857D01*
X160331571Y-78770142D01*
X160545857Y-78770142D01*
X160617285Y-78805857D01*
X160653000Y-78841571D01*
X160688714Y-78913000D01*
X160688714Y-79020142D01*
X160653000Y-79091571D01*
X160617285Y-79127285D01*
X160545857Y-79163000D01*
X160331571Y-79163000D01*
X160260142Y-79127285D01*
X160224428Y-79091571D01*
X160188714Y-79020142D01*
X160188714Y-78913000D01*
X160581571Y-80055857D02*
X160581571Y-80305857D01*
X160188714Y-80413000D02*
X160188714Y-80055857D01*
X160938714Y-80055857D01*
X160938714Y-80413000D01*
X160188714Y-80663000D02*
X160688714Y-81055857D01*
X160688714Y-80663000D02*
X160188714Y-81055857D01*
X160188714Y-81913000D02*
X160938714Y-81913000D01*
X160938714Y-82198714D01*
X160903000Y-82270142D01*
X160867285Y-82305857D01*
X160795857Y-82341571D01*
X160688714Y-82341571D01*
X160617285Y-82305857D01*
X160581571Y-82270142D01*
X160545857Y-82198714D01*
X160545857Y-81913000D01*
X160188714Y-82770142D02*
X160224428Y-82698714D01*
X160295857Y-82663000D01*
X160938714Y-82663000D01*
X160903000Y-84020142D02*
X160938714Y-83948714D01*
X160938714Y-83841571D01*
X160903000Y-83734428D01*
X160831571Y-83663000D01*
X160760142Y-83627285D01*
X160617285Y-83591571D01*
X160510142Y-83591571D01*
X160367285Y-83627285D01*
X160295857Y-83663000D01*
X160224428Y-83734428D01*
X160188714Y-83841571D01*
X160188714Y-83913000D01*
X160224428Y-84020142D01*
X160260142Y-84055857D01*
X160510142Y-84055857D01*
X160510142Y-83913000D01*
X160224428Y-84663000D02*
X160188714Y-84591571D01*
X160188714Y-84448714D01*
X160224428Y-84377285D01*
X160295857Y-84341571D01*
X160581571Y-84341571D01*
X160653000Y-84377285D01*
X160688714Y-84448714D01*
X160688714Y-84591571D01*
X160653000Y-84663000D01*
X160581571Y-84698714D01*
X160510142Y-84698714D01*
X160438714Y-84341571D01*
X160688714Y-85020142D02*
X160188714Y-85020142D01*
X160617285Y-85020142D02*
X160653000Y-85055857D01*
X160688714Y-85127285D01*
X160688714Y-85234428D01*
X160653000Y-85305857D01*
X160581571Y-85341571D01*
X160188714Y-85341571D01*
D11*
X133267142Y-79790714D02*
X134467142Y-79790714D01*
X134467142Y-80076428D01*
X134410000Y-80247857D01*
X134295714Y-80362142D01*
X134181428Y-80419285D01*
X133952857Y-80476428D01*
X133781428Y-80476428D01*
X133552857Y-80419285D01*
X133438571Y-80362142D01*
X133324285Y-80247857D01*
X133267142Y-80076428D01*
X133267142Y-79790714D01*
X133267142Y-81505000D02*
X133895714Y-81505000D01*
X134010000Y-81447857D01*
X134067142Y-81333571D01*
X134067142Y-81105000D01*
X134010000Y-80990714D01*
X133324285Y-81505000D02*
X133267142Y-81390714D01*
X133267142Y-81105000D01*
X133324285Y-80990714D01*
X133438571Y-80933571D01*
X133552857Y-80933571D01*
X133667142Y-80990714D01*
X133724285Y-81105000D01*
X133724285Y-81390714D01*
X133781428Y-81505000D01*
X134067142Y-82590714D02*
X133267142Y-82590714D01*
X134067142Y-82076428D02*
X133438571Y-82076428D01*
X133324285Y-82133571D01*
X133267142Y-82247857D01*
X133267142Y-82419285D01*
X133324285Y-82533571D01*
X133381428Y-82590714D01*
X134067142Y-83676428D02*
X133095714Y-83676428D01*
X132981428Y-83619285D01*
X132924285Y-83562142D01*
X132867142Y-83447857D01*
X132867142Y-83276428D01*
X132924285Y-83162142D01*
X133324285Y-83676428D02*
X133267142Y-83562142D01*
X133267142Y-83333571D01*
X133324285Y-83219285D01*
X133381428Y-83162142D01*
X133495714Y-83105000D01*
X133838571Y-83105000D01*
X133952857Y-83162142D01*
X134010000Y-83219285D01*
X134067142Y-83333571D01*
X134067142Y-83562142D01*
X134010000Y-83676428D01*
X133267142Y-84247857D02*
X134467142Y-84247857D01*
X133267142Y-84762142D02*
X133895714Y-84762142D01*
X134010000Y-84705000D01*
X134067142Y-84590714D01*
X134067142Y-84419285D01*
X134010000Y-84305000D01*
X133952857Y-84247857D01*
X134067142Y-85162142D02*
X134067142Y-85619285D01*
X134467142Y-85333571D02*
X133438571Y-85333571D01*
X133324285Y-85390714D01*
X133267142Y-85505000D01*
X133267142Y-85619285D01*
X133324285Y-86476428D02*
X133267142Y-86362142D01*
X133267142Y-86133571D01*
X133324285Y-86019285D01*
X133438571Y-85962142D01*
X133895714Y-85962142D01*
X134010000Y-86019285D01*
X134067142Y-86133571D01*
X134067142Y-86362142D01*
X134010000Y-86476428D01*
X133895714Y-86533571D01*
X133781428Y-86533571D01*
X133667142Y-85962142D01*
X133267142Y-87047857D02*
X134067142Y-87047857D01*
X133838571Y-87047857D02*
X133952857Y-87105000D01*
X134010000Y-87162142D01*
X134067142Y-87276428D01*
X134067142Y-87390714D01*
X133381428Y-89390714D02*
X133324285Y-89333571D01*
X133267142Y-89162142D01*
X133267142Y-89047857D01*
X133324285Y-88876428D01*
X133438571Y-88762142D01*
X133552857Y-88705000D01*
X133781428Y-88647857D01*
X133952857Y-88647857D01*
X134181428Y-88705000D01*
X134295714Y-88762142D01*
X134410000Y-88876428D01*
X134467142Y-89047857D01*
X134467142Y-89162142D01*
X134410000Y-89333571D01*
X134352857Y-89390714D01*
X133267142Y-90419285D02*
X133895714Y-90419285D01*
X134010000Y-90362142D01*
X134067142Y-90247857D01*
X134067142Y-90019285D01*
X134010000Y-89905000D01*
X133324285Y-90419285D02*
X133267142Y-90305000D01*
X133267142Y-90019285D01*
X133324285Y-89905000D01*
X133438571Y-89847857D01*
X133552857Y-89847857D01*
X133667142Y-89905000D01*
X133724285Y-90019285D01*
X133724285Y-90305000D01*
X133781428Y-90419285D01*
X133267142Y-90990714D02*
X134067142Y-90990714D01*
X133838571Y-90990714D02*
X133952857Y-91047857D01*
X134010000Y-91105000D01*
X134067142Y-91219285D01*
X134067142Y-91333571D01*
X133267142Y-92247857D02*
X134467142Y-92247857D01*
X133324285Y-92247857D02*
X133267142Y-92133571D01*
X133267142Y-91905000D01*
X133324285Y-91790714D01*
X133381428Y-91733571D01*
X133495714Y-91676428D01*
X133838571Y-91676428D01*
X133952857Y-91733571D01*
X134010000Y-91790714D01*
X134067142Y-91905000D01*
X134067142Y-92133571D01*
X134010000Y-92247857D01*
X133895714Y-94133571D02*
X133895714Y-93733571D01*
X133267142Y-93733571D02*
X134467142Y-93733571D01*
X134467142Y-94305000D01*
X133267142Y-94933571D02*
X133324285Y-94819285D01*
X133438571Y-94762142D01*
X134467142Y-94762142D01*
X133267142Y-95390714D02*
X134067142Y-95390714D01*
X134467142Y-95390714D02*
X134410000Y-95333571D01*
X134352857Y-95390714D01*
X134410000Y-95447857D01*
X134467142Y-95390714D01*
X134352857Y-95390714D01*
X134067142Y-95962142D02*
X132867142Y-95962142D01*
X134010000Y-95962142D02*
X134067142Y-96076428D01*
X134067142Y-96305000D01*
X134010000Y-96419285D01*
X133952857Y-96476428D01*
X133838571Y-96533571D01*
X133495714Y-96533571D01*
X133381428Y-96476428D01*
X133324285Y-96419285D01*
X133267142Y-96305000D01*
X133267142Y-96076428D01*
X133324285Y-95962142D01*
X133895714Y-98362142D02*
X133895714Y-97962142D01*
X133267142Y-97962142D02*
X134467142Y-97962142D01*
X134467142Y-98533571D01*
X133267142Y-99162142D02*
X133324285Y-99047857D01*
X133438571Y-98990714D01*
X134467142Y-98990714D01*
X133267142Y-99790714D02*
X133324285Y-99676428D01*
X133381428Y-99619285D01*
X133495714Y-99562142D01*
X133838571Y-99562142D01*
X133952857Y-99619285D01*
X134010000Y-99676428D01*
X134067142Y-99790714D01*
X134067142Y-99962142D01*
X134010000Y-100076428D01*
X133952857Y-100133571D01*
X133838571Y-100190714D01*
X133495714Y-100190714D01*
X133381428Y-100133571D01*
X133324285Y-100076428D01*
X133267142Y-99962142D01*
X133267142Y-99790714D01*
X134067142Y-100705000D02*
X132867142Y-100705000D01*
X134010000Y-100705000D02*
X134067142Y-100819285D01*
X134067142Y-101047857D01*
X134010000Y-101162142D01*
X133952857Y-101219285D01*
X133838571Y-101276428D01*
X133495714Y-101276428D01*
X133381428Y-101219285D01*
X133324285Y-101162142D01*
X133267142Y-101047857D01*
X133267142Y-100819285D01*
X133324285Y-100705000D01*
X132352857Y-79733571D02*
X132410000Y-79790714D01*
X132467142Y-79905000D01*
X132467142Y-80190714D01*
X132410000Y-80305000D01*
X132352857Y-80362142D01*
X132238571Y-80419285D01*
X132124285Y-80419285D01*
X131952857Y-80362142D01*
X131267142Y-79676428D01*
X131267142Y-80419285D01*
X131724285Y-80933571D02*
X131724285Y-81847857D01*
X131267142Y-83047857D02*
X131267142Y-82362142D01*
X131267142Y-82705000D02*
X132467142Y-82705000D01*
X132295714Y-82590714D01*
X132181428Y-82476428D01*
X132124285Y-82362142D01*
X132467142Y-84076428D02*
X132467142Y-83847857D01*
X132410000Y-83733571D01*
X132352857Y-83676428D01*
X132181428Y-83562142D01*
X131952857Y-83505000D01*
X131495714Y-83505000D01*
X131381428Y-83562142D01*
X131324285Y-83619285D01*
X131267142Y-83733571D01*
X131267142Y-83962142D01*
X131324285Y-84076428D01*
X131381428Y-84133571D01*
X131495714Y-84190714D01*
X131781428Y-84190714D01*
X131895714Y-84133571D01*
X131952857Y-84076428D01*
X132010000Y-83962142D01*
X132010000Y-83733571D01*
X131952857Y-83619285D01*
X131895714Y-83562142D01*
X131781428Y-83505000D01*
X131724285Y-84705000D02*
X131724285Y-85619285D01*
X132352857Y-86133571D02*
X132410000Y-86190714D01*
X132467142Y-86305000D01*
X132467142Y-86590714D01*
X132410000Y-86705000D01*
X132352857Y-86762142D01*
X132238571Y-86819285D01*
X132124285Y-86819285D01*
X131952857Y-86762142D01*
X131267142Y-86076428D01*
X131267142Y-86819285D01*
X132467142Y-87562142D02*
X132467142Y-87676428D01*
X132410000Y-87790714D01*
X132352857Y-87847857D01*
X132238571Y-87905000D01*
X132010000Y-87962142D01*
X131724285Y-87962142D01*
X131495714Y-87905000D01*
X131381428Y-87847857D01*
X131324285Y-87790714D01*
X131267142Y-87676428D01*
X131267142Y-87562142D01*
X131324285Y-87447857D01*
X131381428Y-87390714D01*
X131495714Y-87333571D01*
X131724285Y-87276428D01*
X132010000Y-87276428D01*
X132238571Y-87333571D01*
X132352857Y-87390714D01*
X132410000Y-87447857D01*
X132467142Y-87562142D01*
X131267142Y-89105000D02*
X131267142Y-88419285D01*
X131267142Y-88762142D02*
X132467142Y-88762142D01*
X132295714Y-88647857D01*
X132181428Y-88533571D01*
X132124285Y-88419285D01*
X131267142Y-89676428D02*
X131267142Y-89905000D01*
X131324285Y-90019285D01*
X131381428Y-90076428D01*
X131552857Y-90190714D01*
X131781428Y-90247857D01*
X132238571Y-90247857D01*
X132352857Y-90190714D01*
X132410000Y-90133571D01*
X132467142Y-90019285D01*
X132467142Y-89790714D01*
X132410000Y-89676428D01*
X132352857Y-89619285D01*
X132238571Y-89562142D01*
X131952857Y-89562142D01*
X131838571Y-89619285D01*
X131781428Y-89676428D01*
X131724285Y-89790714D01*
X131724285Y-90019285D01*
X131781428Y-90133571D01*
X131838571Y-90190714D01*
X131952857Y-90247857D01*
X131267142Y-91676428D02*
X132067142Y-91676428D01*
X131838571Y-91676428D02*
X131952857Y-91733571D01*
X132010000Y-91790714D01*
X132067142Y-91905000D01*
X132067142Y-92019285D01*
X131267142Y-93047857D02*
X131267142Y-92362142D01*
X131267142Y-92705000D02*
X132467142Y-92705000D01*
X132295714Y-92590714D01*
X132181428Y-92476428D01*
X132124285Y-92362142D01*
X131381428Y-93562142D02*
X131324285Y-93619285D01*
X131267142Y-93562142D01*
X131324285Y-93505000D01*
X131381428Y-93562142D01*
X131267142Y-93562142D01*
X131267142Y-94762142D02*
X131267142Y-94076428D01*
X131267142Y-94419285D02*
X132467142Y-94419285D01*
X132295714Y-94305000D01*
X132181428Y-94190714D01*
X132124285Y-94076428D01*
X130467142Y-79790714D02*
X129495714Y-79790714D01*
X129381428Y-79847857D01*
X129324285Y-79905000D01*
X129267142Y-80019285D01*
X129267142Y-80247857D01*
X129324285Y-80362142D01*
X129381428Y-80419285D01*
X129495714Y-80476428D01*
X130467142Y-80476428D01*
X130067142Y-81047857D02*
X129267142Y-81047857D01*
X129952857Y-81047857D02*
X130010000Y-81105000D01*
X130067142Y-81219285D01*
X130067142Y-81390714D01*
X130010000Y-81505000D01*
X129895714Y-81562142D01*
X129267142Y-81562142D01*
X129267142Y-82133571D02*
X130067142Y-82133571D01*
X130467142Y-82133571D02*
X130410000Y-82076428D01*
X130352857Y-82133571D01*
X130410000Y-82190714D01*
X130467142Y-82133571D01*
X130352857Y-82133571D01*
X130067142Y-82590714D02*
X129267142Y-82876428D01*
X130067142Y-83162142D01*
X129324285Y-84076428D02*
X129267142Y-83962142D01*
X129267142Y-83733571D01*
X129324285Y-83619285D01*
X129438571Y-83562142D01*
X129895714Y-83562142D01*
X130010000Y-83619285D01*
X130067142Y-83733571D01*
X130067142Y-83962142D01*
X130010000Y-84076428D01*
X129895714Y-84133571D01*
X129781428Y-84133571D01*
X129667142Y-83562142D01*
X129267142Y-84647857D02*
X130067142Y-84647857D01*
X129838571Y-84647857D02*
X129952857Y-84705000D01*
X130010000Y-84762142D01*
X130067142Y-84876428D01*
X130067142Y-84990714D01*
X129324285Y-85333571D02*
X129267142Y-85447857D01*
X129267142Y-85676428D01*
X129324285Y-85790714D01*
X129438571Y-85847857D01*
X129495714Y-85847857D01*
X129610000Y-85790714D01*
X129667142Y-85676428D01*
X129667142Y-85505000D01*
X129724285Y-85390714D01*
X129838571Y-85333571D01*
X129895714Y-85333571D01*
X130010000Y-85390714D01*
X130067142Y-85505000D01*
X130067142Y-85676428D01*
X130010000Y-85790714D01*
X129267142Y-86362142D02*
X130067142Y-86362142D01*
X130467142Y-86362142D02*
X130410000Y-86305000D01*
X130352857Y-86362142D01*
X130410000Y-86419285D01*
X130467142Y-86362142D01*
X130352857Y-86362142D01*
X130067142Y-86762142D02*
X130067142Y-87219285D01*
X130467142Y-86933571D02*
X129438571Y-86933571D01*
X129324285Y-86990714D01*
X129267142Y-87105000D01*
X129267142Y-87219285D01*
X130067142Y-87505000D02*
X129267142Y-87790714D01*
X130067142Y-88076428D02*
X129267142Y-87790714D01*
X128981428Y-87676428D01*
X128924285Y-87619285D01*
X128867142Y-87505000D01*
X129267142Y-89619285D02*
X129324285Y-89505000D01*
X129381428Y-89447857D01*
X129495714Y-89390714D01*
X129838571Y-89390714D01*
X129952857Y-89447857D01*
X130010000Y-89505000D01*
X130067142Y-89619285D01*
X130067142Y-89790714D01*
X130010000Y-89905000D01*
X129952857Y-89962142D01*
X129838571Y-90019285D01*
X129495714Y-90019285D01*
X129381428Y-89962142D01*
X129324285Y-89905000D01*
X129267142Y-89790714D01*
X129267142Y-89619285D01*
X130067142Y-90362142D02*
X130067142Y-90819285D01*
X129267142Y-90533571D02*
X130295714Y-90533571D01*
X130410000Y-90590714D01*
X130467142Y-90705000D01*
X130467142Y-90819285D01*
X129267142Y-92133571D02*
X130467142Y-92133571D01*
X130467142Y-92590714D01*
X130410000Y-92705000D01*
X130352857Y-92762142D01*
X130238571Y-92819285D01*
X130067142Y-92819285D01*
X129952857Y-92762142D01*
X129895714Y-92705000D01*
X129838571Y-92590714D01*
X129838571Y-92133571D01*
X129267142Y-93333571D02*
X130067142Y-93333571D01*
X130467142Y-93333571D02*
X130410000Y-93276428D01*
X130352857Y-93333571D01*
X130410000Y-93390714D01*
X130467142Y-93333571D01*
X130352857Y-93333571D01*
X130067142Y-93733571D02*
X130067142Y-94190714D01*
X130467142Y-93905000D02*
X129438571Y-93905000D01*
X129324285Y-93962142D01*
X129267142Y-94076428D01*
X129267142Y-94190714D01*
X130067142Y-94419285D02*
X130067142Y-94876428D01*
X130467142Y-94590714D02*
X129438571Y-94590714D01*
X129324285Y-94647857D01*
X129267142Y-94762142D01*
X129267142Y-94876428D01*
X129324285Y-95219285D02*
X129267142Y-95333571D01*
X129267142Y-95562142D01*
X129324285Y-95676428D01*
X129438571Y-95733571D01*
X129495714Y-95733571D01*
X129610000Y-95676428D01*
X129667142Y-95562142D01*
X129667142Y-95390714D01*
X129724285Y-95276428D01*
X129838571Y-95219285D01*
X129895714Y-95219285D01*
X130010000Y-95276428D01*
X130067142Y-95390714D01*
X130067142Y-95562142D01*
X130010000Y-95676428D01*
X129267142Y-96247857D02*
X130467142Y-96247857D01*
X130010000Y-96247857D02*
X130067142Y-96362142D01*
X130067142Y-96590714D01*
X130010000Y-96705000D01*
X129952857Y-96762142D01*
X129838571Y-96819285D01*
X129495714Y-96819285D01*
X129381428Y-96762142D01*
X129324285Y-96705000D01*
X129267142Y-96590714D01*
X129267142Y-96362142D01*
X129324285Y-96247857D01*
X130067142Y-97847857D02*
X129267142Y-97847857D01*
X130067142Y-97333571D02*
X129438571Y-97333571D01*
X129324285Y-97390714D01*
X129267142Y-97505000D01*
X129267142Y-97676428D01*
X129324285Y-97790714D01*
X129381428Y-97847857D01*
X129267142Y-98419285D02*
X130067142Y-98419285D01*
X129838571Y-98419285D02*
X129952857Y-98476428D01*
X130010000Y-98533571D01*
X130067142Y-98647857D01*
X130067142Y-98762142D01*
X130067142Y-99676428D02*
X129095714Y-99676428D01*
X128981428Y-99619285D01*
X128924285Y-99562142D01*
X128867142Y-99447857D01*
X128867142Y-99276428D01*
X128924285Y-99162142D01*
X129324285Y-99676428D02*
X129267142Y-99562142D01*
X129267142Y-99333571D01*
X129324285Y-99219285D01*
X129381428Y-99162142D01*
X129495714Y-99105000D01*
X129838571Y-99105000D01*
X129952857Y-99162142D01*
X130010000Y-99219285D01*
X130067142Y-99333571D01*
X130067142Y-99562142D01*
X130010000Y-99676428D01*
X129267142Y-100247857D02*
X130467142Y-100247857D01*
X129267142Y-100762142D02*
X129895714Y-100762142D01*
X130010000Y-100705000D01*
X130067142Y-100590714D01*
X130067142Y-100419285D01*
X130010000Y-100305000D01*
X129952857Y-100247857D01*
X128467142Y-80019285D02*
X128467142Y-80247857D01*
X128410000Y-80362142D01*
X128295714Y-80476428D01*
X128067142Y-80533571D01*
X127667142Y-80533571D01*
X127438571Y-80476428D01*
X127324285Y-80362142D01*
X127267142Y-80247857D01*
X127267142Y-80019285D01*
X127324285Y-79905000D01*
X127438571Y-79790714D01*
X127667142Y-79733571D01*
X128067142Y-79733571D01*
X128295714Y-79790714D01*
X128410000Y-79905000D01*
X128467142Y-80019285D01*
X127267142Y-81562142D02*
X128467142Y-81562142D01*
X127324285Y-81562142D02*
X127267142Y-81447857D01*
X127267142Y-81219285D01*
X127324285Y-81105000D01*
X127381428Y-81047857D01*
X127495714Y-80990714D01*
X127838571Y-80990714D01*
X127952857Y-81047857D01*
X128010000Y-81105000D01*
X128067142Y-81219285D01*
X128067142Y-81447857D01*
X128010000Y-81562142D01*
X128067142Y-82019285D02*
X127267142Y-82305000D01*
X128067142Y-82590714D02*
X127267142Y-82305000D01*
X126981428Y-82190714D01*
X126924285Y-82133571D01*
X126867142Y-82019285D01*
X127324285Y-82990714D02*
X127267142Y-83105000D01*
X127267142Y-83333571D01*
X127324285Y-83447857D01*
X127438571Y-83505000D01*
X127495714Y-83505000D01*
X127610000Y-83447857D01*
X127667142Y-83333571D01*
X127667142Y-83162142D01*
X127724285Y-83047857D01*
X127838571Y-82990714D01*
X127895714Y-82990714D01*
X128010000Y-83047857D01*
X128067142Y-83162142D01*
X128067142Y-83333571D01*
X128010000Y-83447857D01*
X127324285Y-83962142D02*
X127267142Y-84076428D01*
X127267142Y-84305000D01*
X127324285Y-84419285D01*
X127438571Y-84476428D01*
X127495714Y-84476428D01*
X127610000Y-84419285D01*
X127667142Y-84305000D01*
X127667142Y-84133571D01*
X127724285Y-84019285D01*
X127838571Y-83962142D01*
X127895714Y-83962142D01*
X128010000Y-84019285D01*
X128067142Y-84133571D01*
X128067142Y-84305000D01*
X128010000Y-84419285D01*
X127324285Y-85447857D02*
X127267142Y-85333571D01*
X127267142Y-85105000D01*
X127324285Y-84990714D01*
X127438571Y-84933571D01*
X127895714Y-84933571D01*
X128010000Y-84990714D01*
X128067142Y-85105000D01*
X128067142Y-85333571D01*
X128010000Y-85447857D01*
X127895714Y-85505000D01*
X127781428Y-85505000D01*
X127667142Y-84933571D01*
X128067142Y-85905000D02*
X127267142Y-86190714D01*
X128067142Y-86476428D02*
X127267142Y-86190714D01*
X126981428Y-86076428D01*
X126924285Y-86019285D01*
X126867142Y-85905000D01*
X127267142Y-88533571D02*
X127838571Y-88133571D01*
X127267142Y-87847857D02*
X128467142Y-87847857D01*
X128467142Y-88305000D01*
X128410000Y-88419285D01*
X128352857Y-88476428D01*
X128238571Y-88533571D01*
X128067142Y-88533571D01*
X127952857Y-88476428D01*
X127895714Y-88419285D01*
X127838571Y-88305000D01*
X127838571Y-87847857D01*
X127324285Y-89505000D02*
X127267142Y-89390714D01*
X127267142Y-89162142D01*
X127324285Y-89047857D01*
X127438571Y-88990714D01*
X127895714Y-88990714D01*
X128010000Y-89047857D01*
X128067142Y-89162142D01*
X128067142Y-89390714D01*
X128010000Y-89505000D01*
X127895714Y-89562142D01*
X127781428Y-89562142D01*
X127667142Y-88990714D01*
X127324285Y-90019285D02*
X127267142Y-90133571D01*
X127267142Y-90362142D01*
X127324285Y-90476428D01*
X127438571Y-90533571D01*
X127495714Y-90533571D01*
X127610000Y-90476428D01*
X127667142Y-90362142D01*
X127667142Y-90190714D01*
X127724285Y-90076428D01*
X127838571Y-90019285D01*
X127895714Y-90019285D01*
X128010000Y-90076428D01*
X128067142Y-90190714D01*
X128067142Y-90362142D01*
X128010000Y-90476428D01*
X128067142Y-90876428D02*
X128067142Y-91333571D01*
X128467142Y-91047857D02*
X127438571Y-91047857D01*
X127324285Y-91105000D01*
X127267142Y-91219285D01*
X127267142Y-91333571D01*
X127267142Y-91905000D02*
X127324285Y-91790714D01*
X127381428Y-91733571D01*
X127495714Y-91676428D01*
X127838571Y-91676428D01*
X127952857Y-91733571D01*
X128010000Y-91790714D01*
X128067142Y-91905000D01*
X128067142Y-92076428D01*
X128010000Y-92190714D01*
X127952857Y-92247857D01*
X127838571Y-92305000D01*
X127495714Y-92305000D01*
X127381428Y-92247857D01*
X127324285Y-92190714D01*
X127267142Y-92076428D01*
X127267142Y-91905000D01*
X127267142Y-92819285D02*
X128067142Y-92819285D01*
X127838571Y-92819285D02*
X127952857Y-92876428D01*
X128010000Y-92933571D01*
X128067142Y-93047857D01*
X128067142Y-93162142D01*
X127267142Y-94076428D02*
X127895714Y-94076428D01*
X128010000Y-94019285D01*
X128067142Y-93905000D01*
X128067142Y-93676428D01*
X128010000Y-93562142D01*
X127324285Y-94076428D02*
X127267142Y-93962142D01*
X127267142Y-93676428D01*
X127324285Y-93562142D01*
X127438571Y-93505000D01*
X127552857Y-93505000D01*
X127667142Y-93562142D01*
X127724285Y-93676428D01*
X127724285Y-93962142D01*
X127781428Y-94076428D01*
X128067142Y-94476428D02*
X128067142Y-94933571D01*
X128467142Y-94647857D02*
X127438571Y-94647857D01*
X127324285Y-94705000D01*
X127267142Y-94819285D01*
X127267142Y-94933571D01*
X127267142Y-95333571D02*
X128067142Y-95333571D01*
X128467142Y-95333571D02*
X128410000Y-95276428D01*
X128352857Y-95333571D01*
X128410000Y-95390714D01*
X128467142Y-95333571D01*
X128352857Y-95333571D01*
X127267142Y-96076428D02*
X127324285Y-95962142D01*
X127381428Y-95905000D01*
X127495714Y-95847857D01*
X127838571Y-95847857D01*
X127952857Y-95905000D01*
X128010000Y-95962142D01*
X128067142Y-96076428D01*
X128067142Y-96247857D01*
X128010000Y-96362142D01*
X127952857Y-96419285D01*
X127838571Y-96476428D01*
X127495714Y-96476428D01*
X127381428Y-96419285D01*
X127324285Y-96362142D01*
X127267142Y-96247857D01*
X127267142Y-96076428D01*
X128067142Y-96990714D02*
X127267142Y-96990714D01*
X127952857Y-96990714D02*
X128010000Y-97047857D01*
X128067142Y-97162142D01*
X128067142Y-97333571D01*
X128010000Y-97447857D01*
X127895714Y-97505000D01*
X127267142Y-97505000D01*
X127267142Y-98990714D02*
X128467142Y-98990714D01*
X128467142Y-99447857D01*
X128410000Y-99562142D01*
X128352857Y-99619285D01*
X128238571Y-99676428D01*
X128067142Y-99676428D01*
X127952857Y-99619285D01*
X127895714Y-99562142D01*
X127838571Y-99447857D01*
X127838571Y-98990714D01*
X127267142Y-100190714D02*
X128067142Y-100190714D01*
X127838571Y-100190714D02*
X127952857Y-100247857D01*
X128010000Y-100305000D01*
X128067142Y-100419285D01*
X128067142Y-100533571D01*
X127267142Y-101105000D02*
X127324285Y-100990714D01*
X127381428Y-100933571D01*
X127495714Y-100876428D01*
X127838571Y-100876428D01*
X127952857Y-100933571D01*
X128010000Y-100990714D01*
X128067142Y-101105000D01*
X128067142Y-101276428D01*
X128010000Y-101390714D01*
X127952857Y-101447857D01*
X127838571Y-101505000D01*
X127495714Y-101505000D01*
X127381428Y-101447857D01*
X127324285Y-101390714D01*
X127267142Y-101276428D01*
X127267142Y-101105000D01*
X128067142Y-102019285D02*
X127038571Y-102019285D01*
X126924285Y-101962142D01*
X126867142Y-101847857D01*
X126867142Y-101790714D01*
X128467142Y-102019285D02*
X128410000Y-101962142D01*
X128352857Y-102019285D01*
X128410000Y-102076428D01*
X128467142Y-102019285D01*
X128352857Y-102019285D01*
X127324285Y-103047857D02*
X127267142Y-102933571D01*
X127267142Y-102705000D01*
X127324285Y-102590714D01*
X127438571Y-102533571D01*
X127895714Y-102533571D01*
X128010000Y-102590714D01*
X128067142Y-102705000D01*
X128067142Y-102933571D01*
X128010000Y-103047857D01*
X127895714Y-103105000D01*
X127781428Y-103105000D01*
X127667142Y-102533571D01*
X127324285Y-104133571D02*
X127267142Y-104019285D01*
X127267142Y-103790714D01*
X127324285Y-103676428D01*
X127381428Y-103619285D01*
X127495714Y-103562142D01*
X127838571Y-103562142D01*
X127952857Y-103619285D01*
X128010000Y-103676428D01*
X128067142Y-103790714D01*
X128067142Y-104019285D01*
X128010000Y-104133571D01*
X128067142Y-104476428D02*
X128067142Y-104933571D01*
X128467142Y-104647857D02*
X127438571Y-104647857D01*
X127324285Y-104705000D01*
X127267142Y-104819285D01*
X127267142Y-104933571D01*
D12*
G04 #@! TO.C,C1*
X142270000Y-89896000D02*
X142270000Y-90560000D01*
X142270000Y-87240000D02*
X142270000Y-87904000D01*
X137050000Y-89896000D02*
X137050000Y-90560000D01*
X137050000Y-87240000D02*
X137050000Y-87904000D01*
X137050000Y-90560000D02*
X142270000Y-90560000D01*
X137050000Y-87240000D02*
X142270000Y-87240000D01*
G04 #@! TO.C,C2*
X147798000Y-79776000D02*
X147798000Y-79112000D01*
X147798000Y-82432000D02*
X147798000Y-81768000D01*
X153018000Y-79776000D02*
X153018000Y-79112000D01*
X153018000Y-82432000D02*
X153018000Y-81768000D01*
X153018000Y-79112000D02*
X147798000Y-79112000D01*
X153018000Y-82432000D02*
X147798000Y-82432000D01*
G04 #@! TO.C,C3*
X142350000Y-109356000D02*
X137130000Y-109356000D01*
X142350000Y-106036000D02*
X137130000Y-106036000D01*
X142350000Y-109356000D02*
X142350000Y-108692000D01*
X142350000Y-106700000D02*
X142350000Y-106036000D01*
X137130000Y-109356000D02*
X137130000Y-108692000D01*
X137130000Y-106700000D02*
X137130000Y-106036000D01*
G04 #@! TO.C,C4*
X137050000Y-111116000D02*
X142270000Y-111116000D01*
X137050000Y-114436000D02*
X142270000Y-114436000D01*
X137050000Y-111116000D02*
X137050000Y-111780000D01*
X137050000Y-113772000D02*
X137050000Y-114436000D01*
X142270000Y-111116000D02*
X142270000Y-111780000D01*
X142270000Y-113772000D02*
X142270000Y-114436000D01*
G04 #@! TO.C,Q1*
X148518000Y-85322000D02*
X148518000Y-88922000D01*
X148529522Y-85283522D02*
G75*
G02X152968000Y-87122000I1838478J-1838478D01*
G01*
X148529522Y-88960478D02*
G75*
G03X152968000Y-87122000I1838478J1838478D01*
G01*
G04 #@! TO.C,Q2*
X148529522Y-97596478D02*
G75*
G03X152968000Y-95758000I1838478J1838478D01*
G01*
X148529522Y-93919522D02*
G75*
G02X152968000Y-95758000I1838478J-1838478D01*
G01*
X148518000Y-93958000D02*
X148518000Y-97558000D01*
G04 #@! TO.C,Q3*
X149026000Y-106658000D02*
X149026000Y-110258000D01*
X149037522Y-106619522D02*
G75*
G02X153476000Y-108458000I1838478J-1838478D01*
G01*
X149037522Y-110296478D02*
G75*
G03X153476000Y-108458000I1838478J1838478D01*
G01*
G04 #@! TO.C,Q4*
X149037522Y-118932478D02*
G75*
G03X153476000Y-117094000I1838478J1838478D01*
G01*
X149037522Y-115255522D02*
G75*
G02X153476000Y-117094000I1838478J-1838478D01*
G01*
X149026000Y-115294000D02*
X149026000Y-118894000D01*
G04 #@! TO.C,R1*
X137700000Y-83796000D02*
X137700000Y-83466000D01*
X137700000Y-83466000D02*
X144240000Y-83466000D01*
X144240000Y-83466000D02*
X144240000Y-83796000D01*
X137700000Y-85876000D02*
X137700000Y-86206000D01*
X137700000Y-86206000D02*
X144240000Y-86206000D01*
X144240000Y-86206000D02*
X144240000Y-85876000D01*
G04 #@! TO.C,R2*
X144240000Y-82142000D02*
X144240000Y-81812000D01*
X137700000Y-82142000D02*
X144240000Y-82142000D01*
X137700000Y-81812000D02*
X137700000Y-82142000D01*
X144240000Y-79402000D02*
X144240000Y-79732000D01*
X137700000Y-79402000D02*
X144240000Y-79402000D01*
X137700000Y-79732000D02*
X137700000Y-79402000D01*
G04 #@! TO.C,R3*
X137700000Y-93118000D02*
X137700000Y-93448000D01*
X144240000Y-93118000D02*
X137700000Y-93118000D01*
X144240000Y-93448000D02*
X144240000Y-93118000D01*
X137700000Y-95858000D02*
X137700000Y-95528000D01*
X144240000Y-95858000D02*
X137700000Y-95858000D01*
X144240000Y-95528000D02*
X144240000Y-95858000D01*
G04 #@! TO.C,R4*
X144240000Y-122782000D02*
X144240000Y-122452000D01*
X137700000Y-122782000D02*
X144240000Y-122782000D01*
X137700000Y-122452000D02*
X137700000Y-122782000D01*
X144240000Y-120042000D02*
X144240000Y-120372000D01*
X137700000Y-120042000D02*
X144240000Y-120042000D01*
X137700000Y-120372000D02*
X137700000Y-120042000D01*
G04 #@! TO.C,R5*
X137700000Y-102084000D02*
X137700000Y-101754000D01*
X137700000Y-101754000D02*
X144240000Y-101754000D01*
X144240000Y-101754000D02*
X144240000Y-102084000D01*
X137700000Y-104164000D02*
X137700000Y-104494000D01*
X137700000Y-104494000D02*
X144240000Y-104494000D01*
X144240000Y-104494000D02*
X144240000Y-104164000D01*
G04 #@! TO.C,R6*
X137700000Y-97512000D02*
X137700000Y-97182000D01*
X137700000Y-97182000D02*
X144240000Y-97182000D01*
X144240000Y-97182000D02*
X144240000Y-97512000D01*
X137700000Y-99592000D02*
X137700000Y-99922000D01*
X137700000Y-99922000D02*
X144240000Y-99922000D01*
X144240000Y-99922000D02*
X144240000Y-99592000D01*
G04 #@! TO.C,R7*
X144240000Y-117880000D02*
X144240000Y-118210000D01*
X144240000Y-118210000D02*
X137700000Y-118210000D01*
X137700000Y-118210000D02*
X137700000Y-117880000D01*
X144240000Y-115800000D02*
X144240000Y-115470000D01*
X144240000Y-115470000D02*
X137700000Y-115470000D01*
X137700000Y-115470000D02*
X137700000Y-115800000D01*
G04 #@! TO.C,J1*
X156658000Y-84388000D02*
X159318000Y-84388000D01*
X156658000Y-81788000D02*
X156658000Y-84388000D01*
X159318000Y-81788000D02*
X159318000Y-84388000D01*
X156658000Y-81788000D02*
X159318000Y-81788000D01*
X156658000Y-80518000D02*
X156658000Y-79188000D01*
X156658000Y-79188000D02*
X157988000Y-79188000D01*
G04 #@! TO.C,C1*
D13*
X144105333Y-89257142D02*
X144057714Y-89304761D01*
X143914857Y-89352380D01*
X143819619Y-89352380D01*
X143676761Y-89304761D01*
X143581523Y-89209523D01*
X143533904Y-89114285D01*
X143486285Y-88923809D01*
X143486285Y-88780952D01*
X143533904Y-88590476D01*
X143581523Y-88495238D01*
X143676761Y-88400000D01*
X143819619Y-88352380D01*
X143914857Y-88352380D01*
X144057714Y-88400000D01*
X144105333Y-88447619D01*
X145057714Y-89352380D02*
X144486285Y-89352380D01*
X144772000Y-89352380D02*
X144772000Y-88352380D01*
X144676761Y-88495238D01*
X144581523Y-88590476D01*
X144486285Y-88638095D01*
G04 #@! TO.C,C2*
X150241333Y-83669142D02*
X150193714Y-83716761D01*
X150050857Y-83764380D01*
X149955619Y-83764380D01*
X149812761Y-83716761D01*
X149717523Y-83621523D01*
X149669904Y-83526285D01*
X149622285Y-83335809D01*
X149622285Y-83192952D01*
X149669904Y-83002476D01*
X149717523Y-82907238D01*
X149812761Y-82812000D01*
X149955619Y-82764380D01*
X150050857Y-82764380D01*
X150193714Y-82812000D01*
X150241333Y-82859619D01*
X150622285Y-82859619D02*
X150669904Y-82812000D01*
X150765142Y-82764380D01*
X151003238Y-82764380D01*
X151098476Y-82812000D01*
X151146095Y-82859619D01*
X151193714Y-82954857D01*
X151193714Y-83050095D01*
X151146095Y-83192952D01*
X150574666Y-83764380D01*
X151193714Y-83764380D01*
G04 #@! TO.C,C3*
X144105333Y-108053142D02*
X144057714Y-108100761D01*
X143914857Y-108148380D01*
X143819619Y-108148380D01*
X143676761Y-108100761D01*
X143581523Y-108005523D01*
X143533904Y-107910285D01*
X143486285Y-107719809D01*
X143486285Y-107576952D01*
X143533904Y-107386476D01*
X143581523Y-107291238D01*
X143676761Y-107196000D01*
X143819619Y-107148380D01*
X143914857Y-107148380D01*
X144057714Y-107196000D01*
X144105333Y-107243619D01*
X144438666Y-107148380D02*
X145057714Y-107148380D01*
X144724380Y-107529333D01*
X144867238Y-107529333D01*
X144962476Y-107576952D01*
X145010095Y-107624571D01*
X145057714Y-107719809D01*
X145057714Y-107957904D01*
X145010095Y-108053142D01*
X144962476Y-108100761D01*
X144867238Y-108148380D01*
X144581523Y-108148380D01*
X144486285Y-108100761D01*
X144438666Y-108053142D01*
G04 #@! TO.C,C4*
X144105333Y-113133142D02*
X144057714Y-113180761D01*
X143914857Y-113228380D01*
X143819619Y-113228380D01*
X143676761Y-113180761D01*
X143581523Y-113085523D01*
X143533904Y-112990285D01*
X143486285Y-112799809D01*
X143486285Y-112656952D01*
X143533904Y-112466476D01*
X143581523Y-112371238D01*
X143676761Y-112276000D01*
X143819619Y-112228380D01*
X143914857Y-112228380D01*
X144057714Y-112276000D01*
X144105333Y-112323619D01*
X144962476Y-112561714D02*
X144962476Y-113228380D01*
X144724380Y-112180761D02*
X144486285Y-112895047D01*
X145105333Y-112895047D01*
G04 #@! TO.C,Q1*
X149002761Y-91225619D02*
X148907523Y-91178000D01*
X148812285Y-91082761D01*
X148669428Y-90939904D01*
X148574190Y-90892285D01*
X148478952Y-90892285D01*
X148526571Y-91130380D02*
X148431333Y-91082761D01*
X148336095Y-90987523D01*
X148288476Y-90797047D01*
X148288476Y-90463714D01*
X148336095Y-90273238D01*
X148431333Y-90178000D01*
X148526571Y-90130380D01*
X148717047Y-90130380D01*
X148812285Y-90178000D01*
X148907523Y-90273238D01*
X148955142Y-90463714D01*
X148955142Y-90797047D01*
X148907523Y-90987523D01*
X148812285Y-91082761D01*
X148717047Y-91130380D01*
X148526571Y-91130380D01*
X149907523Y-91130380D02*
X149336095Y-91130380D01*
X149621809Y-91130380D02*
X149621809Y-90130380D01*
X149526571Y-90273238D01*
X149431333Y-90368476D01*
X149336095Y-90416095D01*
X148288714Y-91622619D02*
X148336333Y-91575000D01*
X148431571Y-91527380D01*
X148669666Y-91527380D01*
X148764904Y-91575000D01*
X148812523Y-91622619D01*
X148860142Y-91717857D01*
X148860142Y-91813095D01*
X148812523Y-91955952D01*
X148241095Y-92527380D01*
X148860142Y-92527380D01*
X149288714Y-92527380D02*
X149288714Y-91527380D01*
X149860142Y-92527380D01*
X149860142Y-91527380D01*
X150241095Y-91527380D02*
X150860142Y-91527380D01*
X150526809Y-91908333D01*
X150669666Y-91908333D01*
X150764904Y-91955952D01*
X150812523Y-92003571D01*
X150860142Y-92098809D01*
X150860142Y-92336904D01*
X150812523Y-92432142D01*
X150764904Y-92479761D01*
X150669666Y-92527380D01*
X150383952Y-92527380D01*
X150288714Y-92479761D01*
X150241095Y-92432142D01*
X151336333Y-92527380D02*
X151526809Y-92527380D01*
X151622047Y-92479761D01*
X151669666Y-92432142D01*
X151764904Y-92289285D01*
X151812523Y-92098809D01*
X151812523Y-91717857D01*
X151764904Y-91622619D01*
X151717285Y-91575000D01*
X151622047Y-91527380D01*
X151431571Y-91527380D01*
X151336333Y-91575000D01*
X151288714Y-91622619D01*
X151241095Y-91717857D01*
X151241095Y-91955952D01*
X151288714Y-92051190D01*
X151336333Y-92098809D01*
X151431571Y-92146428D01*
X151622047Y-92146428D01*
X151717285Y-92098809D01*
X151764904Y-92051190D01*
X151812523Y-91955952D01*
X152431571Y-91527380D02*
X152526809Y-91527380D01*
X152622047Y-91575000D01*
X152669666Y-91622619D01*
X152717285Y-91717857D01*
X152764904Y-91908333D01*
X152764904Y-92146428D01*
X152717285Y-92336904D01*
X152669666Y-92432142D01*
X152622047Y-92479761D01*
X152526809Y-92527380D01*
X152431571Y-92527380D01*
X152336333Y-92479761D01*
X152288714Y-92432142D01*
X152241095Y-92336904D01*
X152193476Y-92146428D01*
X152193476Y-91908333D01*
X152241095Y-91717857D01*
X152288714Y-91622619D01*
X152336333Y-91575000D01*
X152431571Y-91527380D01*
X153622047Y-91527380D02*
X153431571Y-91527380D01*
X153336333Y-91575000D01*
X153288714Y-91622619D01*
X153193476Y-91765476D01*
X153145857Y-91955952D01*
X153145857Y-92336904D01*
X153193476Y-92432142D01*
X153241095Y-92479761D01*
X153336333Y-92527380D01*
X153526809Y-92527380D01*
X153622047Y-92479761D01*
X153669666Y-92432142D01*
X153717285Y-92336904D01*
X153717285Y-92098809D01*
X153669666Y-92003571D01*
X153622047Y-91955952D01*
X153526809Y-91908333D01*
X153336333Y-91908333D01*
X153241095Y-91955952D01*
X153193476Y-92003571D01*
X153145857Y-92098809D01*
G04 #@! TO.C,Q2*
X149256761Y-99861619D02*
X149161523Y-99814000D01*
X149066285Y-99718761D01*
X148923428Y-99575904D01*
X148828190Y-99528285D01*
X148732952Y-99528285D01*
X148780571Y-99766380D02*
X148685333Y-99718761D01*
X148590095Y-99623523D01*
X148542476Y-99433047D01*
X148542476Y-99099714D01*
X148590095Y-98909238D01*
X148685333Y-98814000D01*
X148780571Y-98766380D01*
X148971047Y-98766380D01*
X149066285Y-98814000D01*
X149161523Y-98909238D01*
X149209142Y-99099714D01*
X149209142Y-99433047D01*
X149161523Y-99623523D01*
X149066285Y-99718761D01*
X148971047Y-99766380D01*
X148780571Y-99766380D01*
X149590095Y-98861619D02*
X149637714Y-98814000D01*
X149732952Y-98766380D01*
X149971047Y-98766380D01*
X150066285Y-98814000D01*
X150113904Y-98861619D01*
X150161523Y-98956857D01*
X150161523Y-99052095D01*
X150113904Y-99194952D01*
X149542476Y-99766380D01*
X150161523Y-99766380D01*
X148542714Y-100131619D02*
X148590333Y-100084000D01*
X148685571Y-100036380D01*
X148923666Y-100036380D01*
X149018904Y-100084000D01*
X149066523Y-100131619D01*
X149114142Y-100226857D01*
X149114142Y-100322095D01*
X149066523Y-100464952D01*
X148495095Y-101036380D01*
X149114142Y-101036380D01*
X149542714Y-101036380D02*
X149542714Y-100036380D01*
X150114142Y-101036380D01*
X150114142Y-100036380D01*
X150495095Y-100036380D02*
X151114142Y-100036380D01*
X150780809Y-100417333D01*
X150923666Y-100417333D01*
X151018904Y-100464952D01*
X151066523Y-100512571D01*
X151114142Y-100607809D01*
X151114142Y-100845904D01*
X151066523Y-100941142D01*
X151018904Y-100988761D01*
X150923666Y-101036380D01*
X150637952Y-101036380D01*
X150542714Y-100988761D01*
X150495095Y-100941142D01*
X151590333Y-101036380D02*
X151780809Y-101036380D01*
X151876047Y-100988761D01*
X151923666Y-100941142D01*
X152018904Y-100798285D01*
X152066523Y-100607809D01*
X152066523Y-100226857D01*
X152018904Y-100131619D01*
X151971285Y-100084000D01*
X151876047Y-100036380D01*
X151685571Y-100036380D01*
X151590333Y-100084000D01*
X151542714Y-100131619D01*
X151495095Y-100226857D01*
X151495095Y-100464952D01*
X151542714Y-100560190D01*
X151590333Y-100607809D01*
X151685571Y-100655428D01*
X151876047Y-100655428D01*
X151971285Y-100607809D01*
X152018904Y-100560190D01*
X152066523Y-100464952D01*
X152685571Y-100036380D02*
X152780809Y-100036380D01*
X152876047Y-100084000D01*
X152923666Y-100131619D01*
X152971285Y-100226857D01*
X153018904Y-100417333D01*
X153018904Y-100655428D01*
X152971285Y-100845904D01*
X152923666Y-100941142D01*
X152876047Y-100988761D01*
X152780809Y-101036380D01*
X152685571Y-101036380D01*
X152590333Y-100988761D01*
X152542714Y-100941142D01*
X152495095Y-100845904D01*
X152447476Y-100655428D01*
X152447476Y-100417333D01*
X152495095Y-100226857D01*
X152542714Y-100131619D01*
X152590333Y-100084000D01*
X152685571Y-100036380D01*
X153876047Y-100036380D02*
X153685571Y-100036380D01*
X153590333Y-100084000D01*
X153542714Y-100131619D01*
X153447476Y-100274476D01*
X153399857Y-100464952D01*
X153399857Y-100845904D01*
X153447476Y-100941142D01*
X153495095Y-100988761D01*
X153590333Y-101036380D01*
X153780809Y-101036380D01*
X153876047Y-100988761D01*
X153923666Y-100941142D01*
X153971285Y-100845904D01*
X153971285Y-100607809D01*
X153923666Y-100512571D01*
X153876047Y-100464952D01*
X153780809Y-100417333D01*
X153590333Y-100417333D01*
X153495095Y-100464952D01*
X153447476Y-100512571D01*
X153399857Y-100607809D01*
G04 #@! TO.C,Q3*
X149510761Y-112561619D02*
X149415523Y-112514000D01*
X149320285Y-112418761D01*
X149177428Y-112275904D01*
X149082190Y-112228285D01*
X148986952Y-112228285D01*
X149034571Y-112466380D02*
X148939333Y-112418761D01*
X148844095Y-112323523D01*
X148796476Y-112133047D01*
X148796476Y-111799714D01*
X148844095Y-111609238D01*
X148939333Y-111514000D01*
X149034571Y-111466380D01*
X149225047Y-111466380D01*
X149320285Y-111514000D01*
X149415523Y-111609238D01*
X149463142Y-111799714D01*
X149463142Y-112133047D01*
X149415523Y-112323523D01*
X149320285Y-112418761D01*
X149225047Y-112466380D01*
X149034571Y-112466380D01*
X149796476Y-111466380D02*
X150415523Y-111466380D01*
X150082190Y-111847333D01*
X150225047Y-111847333D01*
X150320285Y-111894952D01*
X150367904Y-111942571D01*
X150415523Y-112037809D01*
X150415523Y-112275904D01*
X150367904Y-112371142D01*
X150320285Y-112418761D01*
X150225047Y-112466380D01*
X149939333Y-112466380D01*
X149844095Y-112418761D01*
X149796476Y-112371142D01*
X149280857Y-113212571D02*
X149423714Y-113260190D01*
X149471333Y-113307809D01*
X149518952Y-113403047D01*
X149518952Y-113545904D01*
X149471333Y-113641142D01*
X149423714Y-113688761D01*
X149328476Y-113736380D01*
X148947523Y-113736380D01*
X148947523Y-112736380D01*
X149280857Y-112736380D01*
X149376095Y-112784000D01*
X149423714Y-112831619D01*
X149471333Y-112926857D01*
X149471333Y-113022095D01*
X149423714Y-113117333D01*
X149376095Y-113164952D01*
X149280857Y-113212571D01*
X148947523Y-113212571D01*
X150518952Y-113641142D02*
X150471333Y-113688761D01*
X150328476Y-113736380D01*
X150233238Y-113736380D01*
X150090380Y-113688761D01*
X149995142Y-113593523D01*
X149947523Y-113498285D01*
X149899904Y-113307809D01*
X149899904Y-113164952D01*
X149947523Y-112974476D01*
X149995142Y-112879238D01*
X150090380Y-112784000D01*
X150233238Y-112736380D01*
X150328476Y-112736380D01*
X150471333Y-112784000D01*
X150518952Y-112831619D01*
X151423714Y-112736380D02*
X150947523Y-112736380D01*
X150899904Y-113212571D01*
X150947523Y-113164952D01*
X151042761Y-113117333D01*
X151280857Y-113117333D01*
X151376095Y-113164952D01*
X151423714Y-113212571D01*
X151471333Y-113307809D01*
X151471333Y-113545904D01*
X151423714Y-113641142D01*
X151376095Y-113688761D01*
X151280857Y-113736380D01*
X151042761Y-113736380D01*
X150947523Y-113688761D01*
X150899904Y-113641142D01*
X152328476Y-113069714D02*
X152328476Y-113736380D01*
X152090380Y-112688761D02*
X151852285Y-113403047D01*
X152471333Y-113403047D01*
X152757047Y-112736380D02*
X153423714Y-112736380D01*
X152995142Y-113736380D01*
X154376095Y-113641142D02*
X154328476Y-113688761D01*
X154185619Y-113736380D01*
X154090380Y-113736380D01*
X153947523Y-113688761D01*
X153852285Y-113593523D01*
X153804666Y-113498285D01*
X153757047Y-113307809D01*
X153757047Y-113164952D01*
X153804666Y-112974476D01*
X153852285Y-112879238D01*
X153947523Y-112784000D01*
X154090380Y-112736380D01*
X154185619Y-112736380D01*
X154328476Y-112784000D01*
X154376095Y-112831619D01*
G04 #@! TO.C,Q4*
X149764761Y-121197619D02*
X149669523Y-121150000D01*
X149574285Y-121054761D01*
X149431428Y-120911904D01*
X149336190Y-120864285D01*
X149240952Y-120864285D01*
X149288571Y-121102380D02*
X149193333Y-121054761D01*
X149098095Y-120959523D01*
X149050476Y-120769047D01*
X149050476Y-120435714D01*
X149098095Y-120245238D01*
X149193333Y-120150000D01*
X149288571Y-120102380D01*
X149479047Y-120102380D01*
X149574285Y-120150000D01*
X149669523Y-120245238D01*
X149717142Y-120435714D01*
X149717142Y-120769047D01*
X149669523Y-120959523D01*
X149574285Y-121054761D01*
X149479047Y-121102380D01*
X149288571Y-121102380D01*
X150574285Y-120435714D02*
X150574285Y-121102380D01*
X150336190Y-120054761D02*
X150098095Y-120769047D01*
X150717142Y-120769047D01*
X149534857Y-121848571D02*
X149677714Y-121896190D01*
X149725333Y-121943809D01*
X149772952Y-122039047D01*
X149772952Y-122181904D01*
X149725333Y-122277142D01*
X149677714Y-122324761D01*
X149582476Y-122372380D01*
X149201523Y-122372380D01*
X149201523Y-121372380D01*
X149534857Y-121372380D01*
X149630095Y-121420000D01*
X149677714Y-121467619D01*
X149725333Y-121562857D01*
X149725333Y-121658095D01*
X149677714Y-121753333D01*
X149630095Y-121800952D01*
X149534857Y-121848571D01*
X149201523Y-121848571D01*
X150772952Y-122277142D02*
X150725333Y-122324761D01*
X150582476Y-122372380D01*
X150487238Y-122372380D01*
X150344380Y-122324761D01*
X150249142Y-122229523D01*
X150201523Y-122134285D01*
X150153904Y-121943809D01*
X150153904Y-121800952D01*
X150201523Y-121610476D01*
X150249142Y-121515238D01*
X150344380Y-121420000D01*
X150487238Y-121372380D01*
X150582476Y-121372380D01*
X150725333Y-121420000D01*
X150772952Y-121467619D01*
X151677714Y-121372380D02*
X151201523Y-121372380D01*
X151153904Y-121848571D01*
X151201523Y-121800952D01*
X151296761Y-121753333D01*
X151534857Y-121753333D01*
X151630095Y-121800952D01*
X151677714Y-121848571D01*
X151725333Y-121943809D01*
X151725333Y-122181904D01*
X151677714Y-122277142D01*
X151630095Y-122324761D01*
X151534857Y-122372380D01*
X151296761Y-122372380D01*
X151201523Y-122324761D01*
X151153904Y-122277142D01*
X152582476Y-121705714D02*
X152582476Y-122372380D01*
X152344380Y-121324761D02*
X152106285Y-122039047D01*
X152725333Y-122039047D01*
X153011047Y-121372380D02*
X153677714Y-121372380D01*
X153249142Y-122372380D01*
X154630095Y-122277142D02*
X154582476Y-122324761D01*
X154439619Y-122372380D01*
X154344380Y-122372380D01*
X154201523Y-122324761D01*
X154106285Y-122229523D01*
X154058666Y-122134285D01*
X154011047Y-121943809D01*
X154011047Y-121800952D01*
X154058666Y-121610476D01*
X154106285Y-121515238D01*
X154201523Y-121420000D01*
X154344380Y-121372380D01*
X154439619Y-121372380D01*
X154582476Y-121420000D01*
X154630095Y-121467619D01*
G04 #@! TO.C,R1*
X146645333Y-85288380D02*
X146312000Y-84812190D01*
X146073904Y-85288380D02*
X146073904Y-84288380D01*
X146454857Y-84288380D01*
X146550095Y-84336000D01*
X146597714Y-84383619D01*
X146645333Y-84478857D01*
X146645333Y-84621714D01*
X146597714Y-84716952D01*
X146550095Y-84764571D01*
X146454857Y-84812190D01*
X146073904Y-84812190D01*
X147597714Y-85288380D02*
X147026285Y-85288380D01*
X147312000Y-85288380D02*
X147312000Y-84288380D01*
X147216761Y-84431238D01*
X147121523Y-84526476D01*
X147026285Y-84574095D01*
G04 #@! TO.C,R2*
X140803333Y-78854380D02*
X140470000Y-78378190D01*
X140231904Y-78854380D02*
X140231904Y-77854380D01*
X140612857Y-77854380D01*
X140708095Y-77902000D01*
X140755714Y-77949619D01*
X140803333Y-78044857D01*
X140803333Y-78187714D01*
X140755714Y-78282952D01*
X140708095Y-78330571D01*
X140612857Y-78378190D01*
X140231904Y-78378190D01*
X141184285Y-77949619D02*
X141231904Y-77902000D01*
X141327142Y-77854380D01*
X141565238Y-77854380D01*
X141660476Y-77902000D01*
X141708095Y-77949619D01*
X141755714Y-78044857D01*
X141755714Y-78140095D01*
X141708095Y-78282952D01*
X141136666Y-78854380D01*
X141755714Y-78854380D01*
G04 #@! TO.C,R3*
X146645333Y-94940380D02*
X146312000Y-94464190D01*
X146073904Y-94940380D02*
X146073904Y-93940380D01*
X146454857Y-93940380D01*
X146550095Y-93988000D01*
X146597714Y-94035619D01*
X146645333Y-94130857D01*
X146645333Y-94273714D01*
X146597714Y-94368952D01*
X146550095Y-94416571D01*
X146454857Y-94464190D01*
X146073904Y-94464190D01*
X146978666Y-93940380D02*
X147597714Y-93940380D01*
X147264380Y-94321333D01*
X147407238Y-94321333D01*
X147502476Y-94368952D01*
X147550095Y-94416571D01*
X147597714Y-94511809D01*
X147597714Y-94749904D01*
X147550095Y-94845142D01*
X147502476Y-94892761D01*
X147407238Y-94940380D01*
X147121523Y-94940380D01*
X147026285Y-94892761D01*
X146978666Y-94845142D01*
G04 #@! TO.C,R4*
X146899333Y-121864380D02*
X146566000Y-121388190D01*
X146327904Y-121864380D02*
X146327904Y-120864380D01*
X146708857Y-120864380D01*
X146804095Y-120912000D01*
X146851714Y-120959619D01*
X146899333Y-121054857D01*
X146899333Y-121197714D01*
X146851714Y-121292952D01*
X146804095Y-121340571D01*
X146708857Y-121388190D01*
X146327904Y-121388190D01*
X147756476Y-121197714D02*
X147756476Y-121864380D01*
X147518380Y-120816761D02*
X147280285Y-121531047D01*
X147899333Y-121531047D01*
G04 #@! TO.C,R5*
X146645333Y-103576380D02*
X146312000Y-103100190D01*
X146073904Y-103576380D02*
X146073904Y-102576380D01*
X146454857Y-102576380D01*
X146550095Y-102624000D01*
X146597714Y-102671619D01*
X146645333Y-102766857D01*
X146645333Y-102909714D01*
X146597714Y-103004952D01*
X146550095Y-103052571D01*
X146454857Y-103100190D01*
X146073904Y-103100190D01*
X147550095Y-102576380D02*
X147073904Y-102576380D01*
X147026285Y-103052571D01*
X147073904Y-103004952D01*
X147169142Y-102957333D01*
X147407238Y-102957333D01*
X147502476Y-103004952D01*
X147550095Y-103052571D01*
X147597714Y-103147809D01*
X147597714Y-103385904D01*
X147550095Y-103481142D01*
X147502476Y-103528761D01*
X147407238Y-103576380D01*
X147169142Y-103576380D01*
X147073904Y-103528761D01*
X147026285Y-103481142D01*
G04 #@! TO.C,R6*
X146645333Y-99258380D02*
X146312000Y-98782190D01*
X146073904Y-99258380D02*
X146073904Y-98258380D01*
X146454857Y-98258380D01*
X146550095Y-98306000D01*
X146597714Y-98353619D01*
X146645333Y-98448857D01*
X146645333Y-98591714D01*
X146597714Y-98686952D01*
X146550095Y-98734571D01*
X146454857Y-98782190D01*
X146073904Y-98782190D01*
X147502476Y-98258380D02*
X147312000Y-98258380D01*
X147216761Y-98306000D01*
X147169142Y-98353619D01*
X147073904Y-98496476D01*
X147026285Y-98686952D01*
X147026285Y-99067904D01*
X147073904Y-99163142D01*
X147121523Y-99210761D01*
X147216761Y-99258380D01*
X147407238Y-99258380D01*
X147502476Y-99210761D01*
X147550095Y-99163142D01*
X147597714Y-99067904D01*
X147597714Y-98829809D01*
X147550095Y-98734571D01*
X147502476Y-98686952D01*
X147407238Y-98639333D01*
X147216761Y-98639333D01*
X147121523Y-98686952D01*
X147073904Y-98734571D01*
X147026285Y-98829809D01*
G04 #@! TO.C,R7*
X146645333Y-117292380D02*
X146312000Y-116816190D01*
X146073904Y-117292380D02*
X146073904Y-116292380D01*
X146454857Y-116292380D01*
X146550095Y-116340000D01*
X146597714Y-116387619D01*
X146645333Y-116482857D01*
X146645333Y-116625714D01*
X146597714Y-116720952D01*
X146550095Y-116768571D01*
X146454857Y-116816190D01*
X146073904Y-116816190D01*
X146978666Y-116292380D02*
X147645333Y-116292380D01*
X147216761Y-117292380D01*
G04 #@! TO.C,J1*
X157654666Y-77938380D02*
X157654666Y-78652666D01*
X157607047Y-78795523D01*
X157511809Y-78890761D01*
X157368952Y-78938380D01*
X157273714Y-78938380D01*
X158654666Y-78938380D02*
X158083238Y-78938380D01*
X158368952Y-78938380D02*
X158368952Y-77938380D01*
X158273714Y-78081238D01*
X158178476Y-78176476D01*
X158083238Y-78224095D01*
G04 #@! TD*
M02*
