G04 #@! TF.GenerationSoftware,KiCad,Pcbnew,(5.0.1)-3*
G04 #@! TF.CreationDate,2019-02-16T16:59:46-05:00*
G04 #@! TF.ProjectId,OdysseyDaughterCardFlipFlop,4F647973736579446175676874657243,1.1*
G04 #@! TF.SameCoordinates,Original*
G04 #@! TF.FileFunction,Copper,L1,Top,Signal*
G04 #@! TF.FilePolarity,Positive*
%FSLAX46Y46*%
G04 Gerber Fmt 4.6, Leading zero omitted, Abs format (unit mm)*
G04 Created by KiCad (PCBNEW (5.0.1)-3) date 2/16/2019 4:59:46 PM*
%MOMM*%
%LPD*%
G01*
G04 APERTURE LIST*
G04 #@! TA.AperFunction,ComponentPad*
%ADD10C,1.600000*%
G04 #@! TD*
G04 #@! TA.AperFunction,ComponentPad*
%ADD11O,1.500000X1.050000*%
G04 #@! TD*
G04 #@! TA.AperFunction,ComponentPad*
%ADD12R,1.500000X1.050000*%
G04 #@! TD*
G04 #@! TA.AperFunction,ComponentPad*
%ADD13O,1.600000X1.600000*%
G04 #@! TD*
G04 #@! TA.AperFunction,ComponentPad*
%ADD14R,1.700000X1.700000*%
G04 #@! TD*
G04 #@! TA.AperFunction,ComponentPad*
%ADD15O,1.700000X1.700000*%
G04 #@! TD*
G04 #@! TA.AperFunction,Conductor*
%ADD16C,0.250000*%
G04 #@! TD*
G04 APERTURE END LIST*
D10*
G04 #@! TO.P,C1,2*
G04 #@! TO.N,/Card7*
X142160000Y-88900000D03*
G04 #@! TO.P,C1,1*
G04 #@! TO.N,Net-(C1-Pad1)*
X137160000Y-88900000D03*
G04 #@! TD*
G04 #@! TO.P,C2,2*
G04 #@! TO.N,Net-(C2-Pad2)*
X147908000Y-80772000D03*
G04 #@! TO.P,C2,1*
G04 #@! TO.N,/Card8*
X152908000Y-80772000D03*
G04 #@! TD*
G04 #@! TO.P,C3,1*
G04 #@! TO.N,/Card5*
X142240000Y-107696000D03*
G04 #@! TO.P,C3,2*
G04 #@! TO.N,/Card1*
X137240000Y-107696000D03*
G04 #@! TD*
G04 #@! TO.P,C4,1*
G04 #@! TO.N,/Card2*
X137160000Y-112776000D03*
G04 #@! TO.P,C4,2*
G04 #@! TO.N,/Card3*
X142160000Y-112776000D03*
G04 #@! TD*
D11*
G04 #@! TO.P,Q1,2*
G04 #@! TO.N,Net-(C2-Pad2)*
X150368000Y-87122000D03*
G04 #@! TO.P,Q1,3*
G04 #@! TO.N,/Card7*
X150368000Y-88392000D03*
D12*
G04 #@! TO.P,Q1,1*
G04 #@! TO.N,/Card10*
X150368000Y-85852000D03*
G04 #@! TD*
G04 #@! TO.P,Q2,1*
G04 #@! TO.N,/Card10*
X150368000Y-94488000D03*
D11*
G04 #@! TO.P,Q2,3*
G04 #@! TO.N,/Card8*
X150368000Y-97028000D03*
G04 #@! TO.P,Q2,2*
G04 #@! TO.N,Net-(C1-Pad1)*
X150368000Y-95758000D03*
G04 #@! TD*
G04 #@! TO.P,Q3,2*
G04 #@! TO.N,/Card3*
X150876000Y-108458000D03*
G04 #@! TO.P,Q3,3*
G04 #@! TO.N,GND*
X150876000Y-109728000D03*
D12*
G04 #@! TO.P,Q3,1*
G04 #@! TO.N,/Card1*
X150876000Y-107188000D03*
G04 #@! TD*
G04 #@! TO.P,Q4,1*
G04 #@! TO.N,/Card2*
X150876000Y-115824000D03*
D11*
G04 #@! TO.P,Q4,3*
G04 #@! TO.N,GND*
X150876000Y-118364000D03*
G04 #@! TO.P,Q4,2*
G04 #@! TO.N,/Card5*
X150876000Y-117094000D03*
G04 #@! TD*
D10*
G04 #@! TO.P,R1,1*
G04 #@! TO.N,Net-(C1-Pad1)*
X137160000Y-84836000D03*
D13*
G04 #@! TO.P,R1,2*
G04 #@! TO.N,/Card7*
X144780000Y-84836000D03*
G04 #@! TD*
G04 #@! TO.P,R2,2*
G04 #@! TO.N,Net-(C2-Pad2)*
X144780000Y-80772000D03*
D10*
G04 #@! TO.P,R2,1*
G04 #@! TO.N,/Card8*
X137160000Y-80772000D03*
G04 #@! TD*
D13*
G04 #@! TO.P,R3,2*
G04 #@! TO.N,/Card7*
X137160000Y-94488000D03*
D10*
G04 #@! TO.P,R3,1*
G04 #@! TO.N,/Card1*
X144780000Y-94488000D03*
G04 #@! TD*
D13*
G04 #@! TO.P,R4,2*
G04 #@! TO.N,/Card3*
X144780000Y-121412000D03*
D10*
G04 #@! TO.P,R4,1*
G04 #@! TO.N,/Card2*
X137160000Y-121412000D03*
G04 #@! TD*
G04 #@! TO.P,R5,1*
G04 #@! TO.N,/Card1*
X137160000Y-103124000D03*
D13*
G04 #@! TO.P,R5,2*
G04 #@! TO.N,/Card5*
X144780000Y-103124000D03*
G04 #@! TD*
D10*
G04 #@! TO.P,R6,1*
G04 #@! TO.N,/Card6*
X137160000Y-98552000D03*
D13*
G04 #@! TO.P,R6,2*
G04 #@! TO.N,/Card8*
X144780000Y-98552000D03*
G04 #@! TD*
D10*
G04 #@! TO.P,R7,1*
G04 #@! TO.N,/Card6*
X144780000Y-116840000D03*
D13*
G04 #@! TO.P,R7,2*
G04 #@! TO.N,/Card2*
X137160000Y-116840000D03*
G04 #@! TD*
D14*
G04 #@! TO.P,J1,1*
G04 #@! TO.N,/Card5*
X157988000Y-80518000D03*
D15*
G04 #@! TO.P,J1,2*
G04 #@! TO.N,/Card3*
X157988000Y-83058000D03*
G04 #@! TD*
D16*
G04 #@! TO.N,/Card7*
X137697300Y-93362700D02*
X142160000Y-88900000D01*
X137160000Y-93362700D02*
X137697300Y-93362700D01*
X137160000Y-94488000D02*
X137160000Y-93362700D01*
G04 #@! TO.N,Net-(C1-Pad1)*
X137160000Y-84836000D02*
X137160000Y-88900000D01*
G04 #@! TO.N,Net-(C2-Pad2)*
X149292700Y-82156700D02*
X147908000Y-80772000D01*
X149292700Y-87122000D02*
X149292700Y-82156700D01*
X150368000Y-87122000D02*
X149292700Y-87122000D01*
G04 #@! TO.N,/Card8*
X150368000Y-97028000D02*
X151443300Y-97028000D01*
X152908000Y-95563300D02*
X152908000Y-80772000D01*
X151443300Y-97028000D02*
X152908000Y-95563300D01*
G04 #@! TO.N,/Card5*
X156888000Y-80518000D02*
X157988000Y-80518000D01*
X153358010Y-84047990D02*
X156888000Y-80518000D01*
X153358009Y-95749701D02*
X153358010Y-84047990D01*
X145983710Y-103124000D02*
X153358009Y-95749701D01*
X144780000Y-103124000D02*
X145983710Y-103124000D01*
G04 #@! TO.N,/Card1*
X137240000Y-103204000D02*
X137240000Y-107696000D01*
X137160000Y-103124000D02*
X137240000Y-103204000D01*
G04 #@! TO.N,/Card2*
X137160000Y-116840000D02*
X137160000Y-112776000D01*
X137160000Y-116840000D02*
X137160000Y-121412000D01*
X150631500Y-115824000D02*
X150876000Y-115824000D01*
X148364900Y-118090600D02*
X150631500Y-115824000D01*
X148364900Y-119428500D02*
X148364900Y-118090600D01*
X145199900Y-122593500D02*
X148364900Y-119428500D01*
X138341500Y-122593500D02*
X145199900Y-122593500D01*
X137160000Y-121412000D02*
X138341500Y-122593500D01*
G04 #@! TO.N,/Card3*
X142160000Y-117666700D02*
X142160000Y-112776000D01*
X144780000Y-120286700D02*
X142160000Y-117666700D01*
X144780000Y-121412000D02*
X144780000Y-120286700D01*
X149800700Y-115266000D02*
X144780000Y-120286700D01*
X149800700Y-108458000D02*
X149800700Y-115266000D01*
X150876000Y-108458000D02*
X149800700Y-108458000D01*
X151876000Y-108458000D02*
X150876000Y-108458000D01*
X157988000Y-102346000D02*
X151876000Y-108458000D01*
X157988000Y-88138000D02*
X157988000Y-102346000D01*
X157988000Y-88138000D02*
X157988000Y-83058000D01*
G04 #@! TO.N,/Card10*
X151443300Y-92562400D02*
X151443300Y-85852000D01*
X150368000Y-93637700D02*
X151443300Y-92562400D01*
X150368000Y-94488000D02*
X150368000Y-93637700D01*
X150368000Y-85852000D02*
X151443300Y-85852000D01*
G04 #@! TO.N,GND*
X151951300Y-111653600D02*
X150876000Y-110578300D01*
X151951300Y-118364000D02*
X151951300Y-111653600D01*
X150876000Y-118364000D02*
X151951300Y-118364000D01*
X150876000Y-109728000D02*
X150876000Y-110578300D01*
G04 #@! TO.N,/Card6*
X144780000Y-106172000D02*
X137160000Y-98552000D01*
X144780000Y-116840000D02*
X144780000Y-106172000D01*
G04 #@! TD*
M02*
