M48
; DRILL file {KiCad 8.0.1} date 2024-06-18T23:41:18-0400
; FORMAT={-:-/ absolute / inch / decimal}
; #@! TF.CreationDate,2024-06-18T23:41:18-04:00
; #@! TF.GenerationSoftware,Kicad,Pcbnew,8.0.1
; #@! TF.FileFunction,Plated,1,2,PTH
FMAT,2
INCH
; #@! TA.AperFunction,Plated,PTH,ViaDrill
T1C0.0157
; #@! TA.AperFunction,Plated,PTH,ComponentDrill
T2C0.0315
; #@! TA.AperFunction,Plated,PTH,ComponentDrill
T3C0.0394
%
G90
G05
T1
X5.7814Y-3.7051
T2
X5.375Y-3.875
X5.375Y-4.06
X5.375Y-4.2
X5.375Y-4.575
X5.38Y-3.2
X5.38Y-3.3733
X5.38Y-3.5467
X5.38Y-3.72
X5.38Y-4.4133
X5.38Y-4.76
X5.675Y-3.875
X5.675Y-4.06
X5.675Y-4.2
X5.675Y-4.575
X5.68Y-3.2
X5.68Y-3.3733
X5.68Y-3.5467
X5.68Y-3.72
X5.68Y-4.4133
X5.68Y-4.76
X5.82Y-4.1116
X5.82Y-4.21
X5.87Y-3.19
X5.87Y-3.37
X5.87Y-3.55
X5.87Y-3.72
X5.87Y-3.86
X5.87Y-4.4094
X5.87Y-4.5711
X5.87Y-4.7561
X6.17Y-3.19
X6.17Y-3.37
X6.17Y-3.55
X6.17Y-3.72
X6.17Y-3.86
X6.17Y-4.4094
X6.17Y-4.5711
X6.17Y-4.7561
X6.28Y-3.98
X6.28Y-4.28
X6.52Y-4.15
X6.52Y-4.45
T3
X6.5198Y-3.1802
X6.5198Y-3.2802
X6.5198Y-3.3802
X6.52Y-3.55
X6.52Y-3.65
X6.52Y-4.6439
X6.52Y-4.7439
M30
