G04 #@! TF.GenerationSoftware,KiCad,Pcbnew,8.0.1*
G04 #@! TF.CreationDate,2024-06-18T23:41:17-04:00*
G04 #@! TF.ProjectId,OdysseyDaughterCardSummer,4f647973-7365-4794-9461-756768746572,1.2*
G04 #@! TF.SameCoordinates,Original*
G04 #@! TF.FileFunction,Soldermask,Bot*
G04 #@! TF.FilePolarity,Negative*
%FSLAX46Y46*%
G04 Gerber Fmt 4.6, Leading zero omitted, Abs format (unit mm)*
G04 Created by KiCad (PCBNEW 8.0.1) date 2024-06-18 23:41:17*
%MOMM*%
%LPD*%
G01*
G04 APERTURE LIST*
G04 APERTURE END LIST*
G36*
X134516043Y-118928183D02*
G01*
X134548727Y-118932486D01*
X134556948Y-118936319D01*
X134576537Y-118940216D01*
X134602480Y-118957551D01*
X134613608Y-118962740D01*
X134620378Y-118969510D01*
X134641421Y-118983571D01*
X134655481Y-119004613D01*
X134662251Y-119011383D01*
X134667438Y-119022508D01*
X134684776Y-119048455D01*
X134688672Y-119068045D01*
X134692505Y-119076264D01*
X134696806Y-119108937D01*
X134700000Y-119124992D01*
X134700000Y-122374992D01*
X134696805Y-122391050D01*
X134692505Y-122423719D01*
X134688673Y-122431936D01*
X134684776Y-122451529D01*
X134667437Y-122477477D01*
X134662251Y-122488600D01*
X134655483Y-122495367D01*
X134641421Y-122516413D01*
X134620375Y-122530475D01*
X134613608Y-122537243D01*
X134602485Y-122542429D01*
X134576537Y-122559768D01*
X134556944Y-122563665D01*
X134548727Y-122567497D01*
X134516056Y-122571798D01*
X134500000Y-122574992D01*
X123500000Y-122574992D01*
X123483943Y-122571798D01*
X123451272Y-122567497D01*
X123443053Y-122563664D01*
X123423463Y-122559768D01*
X123397516Y-122542430D01*
X123386391Y-122537243D01*
X123379621Y-122530473D01*
X123358579Y-122516413D01*
X123344518Y-122495370D01*
X123337748Y-122488600D01*
X123332559Y-122477472D01*
X123315224Y-122451529D01*
X123311327Y-122431940D01*
X123307494Y-122423719D01*
X123303190Y-122391033D01*
X123300000Y-122374992D01*
X123300000Y-119124992D01*
X123303190Y-119108950D01*
X123307494Y-119076264D01*
X123311327Y-119068041D01*
X123315224Y-119048455D01*
X123332557Y-119022513D01*
X123337748Y-119011383D01*
X123344520Y-119004610D01*
X123358579Y-118983571D01*
X123379618Y-118969512D01*
X123386391Y-118962740D01*
X123397521Y-118957549D01*
X123423463Y-118940216D01*
X123443049Y-118936319D01*
X123451272Y-118932486D01*
X123483960Y-118928182D01*
X123500000Y-118924992D01*
X134500000Y-118924992D01*
X134516043Y-118928183D01*
G37*
G36*
X136700724Y-119908799D02*
G01*
X136744218Y-119908799D01*
X136792658Y-119917853D01*
X136847090Y-119923215D01*
X136888438Y-119935757D01*
X136925518Y-119942689D01*
X136976868Y-119962582D01*
X137034683Y-119980120D01*
X137067720Y-119997778D01*
X137097501Y-120009316D01*
X137149245Y-120041354D01*
X137207570Y-120072530D01*
X137232076Y-120092641D01*
X137254311Y-120106409D01*
X137303575Y-120151319D01*
X137359107Y-120196893D01*
X137375563Y-120216945D01*
X137390611Y-120230663D01*
X137434297Y-120288513D01*
X137483470Y-120348430D01*
X137492977Y-120366218D01*
X137501762Y-120377850D01*
X137536713Y-120448040D01*
X137575880Y-120521317D01*
X137580056Y-120535086D01*
X137583972Y-120542949D01*
X137607105Y-120624255D01*
X137632785Y-120708910D01*
X137633628Y-120717473D01*
X137634446Y-120720347D01*
X137642943Y-120812047D01*
X137652000Y-120904000D01*
X137642942Y-120995960D01*
X137634446Y-121087652D01*
X137633628Y-121090524D01*
X137632785Y-121099090D01*
X137607100Y-121183759D01*
X137583972Y-121265050D01*
X137580057Y-121272911D01*
X137575880Y-121286683D01*
X137536705Y-121359972D01*
X137501762Y-121430149D01*
X137492979Y-121441778D01*
X137483470Y-121459570D01*
X137434288Y-121519498D01*
X137390611Y-121577336D01*
X137375566Y-121591050D01*
X137359107Y-121611107D01*
X137303564Y-121656689D01*
X137254311Y-121701590D01*
X137232081Y-121715354D01*
X137207570Y-121735470D01*
X137149233Y-121766651D01*
X137097501Y-121798683D01*
X137067727Y-121810217D01*
X137034683Y-121827880D01*
X136976856Y-121845421D01*
X136925518Y-121865310D01*
X136888445Y-121872240D01*
X136847090Y-121884785D01*
X136792655Y-121890146D01*
X136744218Y-121899201D01*
X136700724Y-121899201D01*
X136652000Y-121904000D01*
X136603276Y-121899201D01*
X136559782Y-121899201D01*
X136511343Y-121890146D01*
X136456910Y-121884785D01*
X136415555Y-121872240D01*
X136378481Y-121865310D01*
X136327139Y-121845419D01*
X136269317Y-121827880D01*
X136236275Y-121810218D01*
X136206498Y-121798683D01*
X136154759Y-121766647D01*
X136096430Y-121735470D01*
X136071921Y-121715356D01*
X136049688Y-121701590D01*
X136000425Y-121656681D01*
X135944893Y-121611107D01*
X135928436Y-121591054D01*
X135913388Y-121577336D01*
X135869699Y-121519482D01*
X135820530Y-121459570D01*
X135811022Y-121441783D01*
X135802237Y-121430149D01*
X135767279Y-121359945D01*
X135728120Y-121286683D01*
X135723943Y-121272916D01*
X135720027Y-121265050D01*
X135696882Y-121183706D01*
X135671215Y-121099090D01*
X135670371Y-121090530D01*
X135669553Y-121087652D01*
X135661040Y-120995788D01*
X135652000Y-120904000D01*
X135661039Y-120812219D01*
X135669553Y-120720347D01*
X135670372Y-120717468D01*
X135671215Y-120708910D01*
X135696878Y-120624308D01*
X135720027Y-120542949D01*
X135723944Y-120535081D01*
X135728120Y-120521317D01*
X135767272Y-120448068D01*
X135802237Y-120377850D01*
X135811024Y-120366213D01*
X135820530Y-120348430D01*
X135869689Y-120288528D01*
X135913388Y-120230663D01*
X135928439Y-120216941D01*
X135944893Y-120196893D01*
X136000414Y-120151327D01*
X136049688Y-120106409D01*
X136071926Y-120092639D01*
X136096430Y-120072530D01*
X136154747Y-120041358D01*
X136206498Y-120009316D01*
X136236282Y-119997777D01*
X136269317Y-119980120D01*
X136327127Y-119962583D01*
X136378481Y-119942689D01*
X136415562Y-119935757D01*
X136456910Y-119923215D01*
X136511340Y-119917853D01*
X136559782Y-119908799D01*
X136603276Y-119908799D01*
X136652000Y-119904000D01*
X136700724Y-119908799D01*
G37*
G36*
X145088043Y-119907191D02*
G01*
X145120727Y-119911494D01*
X145128948Y-119915327D01*
X145148537Y-119919224D01*
X145174480Y-119936559D01*
X145185608Y-119941748D01*
X145192378Y-119948518D01*
X145213421Y-119962579D01*
X145227481Y-119983621D01*
X145234251Y-119990391D01*
X145239438Y-120001516D01*
X145256776Y-120027463D01*
X145260672Y-120047053D01*
X145264505Y-120055272D01*
X145268806Y-120087945D01*
X145272000Y-120104000D01*
X145272000Y-121704000D01*
X145268805Y-121720058D01*
X145264505Y-121752727D01*
X145260673Y-121760944D01*
X145256776Y-121780537D01*
X145239437Y-121806485D01*
X145234251Y-121817608D01*
X145227483Y-121824375D01*
X145213421Y-121845421D01*
X145192375Y-121859483D01*
X145185608Y-121866251D01*
X145174485Y-121871437D01*
X145148537Y-121888776D01*
X145128944Y-121892673D01*
X145120727Y-121896505D01*
X145088056Y-121900806D01*
X145072000Y-121904000D01*
X143472000Y-121904000D01*
X143455943Y-121900806D01*
X143423272Y-121896505D01*
X143415053Y-121892672D01*
X143395463Y-121888776D01*
X143369516Y-121871438D01*
X143358391Y-121866251D01*
X143351621Y-121859481D01*
X143330579Y-121845421D01*
X143316518Y-121824378D01*
X143309748Y-121817608D01*
X143304559Y-121806480D01*
X143287224Y-121780537D01*
X143283327Y-121760948D01*
X143279494Y-121752727D01*
X143275190Y-121720041D01*
X143272000Y-121704000D01*
X143272000Y-120104000D01*
X143275190Y-120087958D01*
X143279494Y-120055272D01*
X143283327Y-120047049D01*
X143287224Y-120027463D01*
X143304557Y-120001521D01*
X143309748Y-119990391D01*
X143316520Y-119983618D01*
X143330579Y-119962579D01*
X143351618Y-119948520D01*
X143358391Y-119941748D01*
X143369521Y-119936557D01*
X143395463Y-119919224D01*
X143415049Y-119915327D01*
X143423272Y-119911494D01*
X143455960Y-119907190D01*
X143472000Y-119904000D01*
X145072000Y-119904000D01*
X145088043Y-119907191D01*
G37*
G36*
X149146724Y-119808799D02*
G01*
X149190218Y-119808799D01*
X149238658Y-119817853D01*
X149293090Y-119823215D01*
X149334438Y-119835757D01*
X149371518Y-119842689D01*
X149422868Y-119862582D01*
X149480683Y-119880120D01*
X149513720Y-119897778D01*
X149543501Y-119909316D01*
X149595245Y-119941354D01*
X149653570Y-119972530D01*
X149678076Y-119992641D01*
X149700311Y-120006409D01*
X149749575Y-120051319D01*
X149805107Y-120096893D01*
X149821563Y-120116945D01*
X149836611Y-120130663D01*
X149880297Y-120188513D01*
X149929470Y-120248430D01*
X149938977Y-120266218D01*
X149947762Y-120277850D01*
X149982713Y-120348040D01*
X150021880Y-120421317D01*
X150026056Y-120435086D01*
X150029972Y-120442949D01*
X150053105Y-120524255D01*
X150078785Y-120608910D01*
X150079628Y-120617473D01*
X150080446Y-120620347D01*
X150088943Y-120712047D01*
X150098000Y-120804000D01*
X150088942Y-120895960D01*
X150080446Y-120987652D01*
X150079628Y-120990524D01*
X150078785Y-120999090D01*
X150053100Y-121083759D01*
X150029972Y-121165050D01*
X150026057Y-121172911D01*
X150021880Y-121186683D01*
X149982705Y-121259972D01*
X149947762Y-121330149D01*
X149938979Y-121341778D01*
X149929470Y-121359570D01*
X149880288Y-121419498D01*
X149836611Y-121477336D01*
X149821566Y-121491050D01*
X149805107Y-121511107D01*
X149749564Y-121556689D01*
X149700311Y-121601590D01*
X149678081Y-121615354D01*
X149653570Y-121635470D01*
X149595233Y-121666651D01*
X149543501Y-121698683D01*
X149513727Y-121710217D01*
X149480683Y-121727880D01*
X149422856Y-121745421D01*
X149371518Y-121765310D01*
X149334445Y-121772240D01*
X149293090Y-121784785D01*
X149238655Y-121790146D01*
X149190218Y-121799201D01*
X149146724Y-121799201D01*
X149098000Y-121804000D01*
X149049276Y-121799201D01*
X149005782Y-121799201D01*
X148957343Y-121790146D01*
X148902910Y-121784785D01*
X148861555Y-121772240D01*
X148824481Y-121765310D01*
X148773139Y-121745419D01*
X148715317Y-121727880D01*
X148682275Y-121710218D01*
X148652498Y-121698683D01*
X148600759Y-121666647D01*
X148542430Y-121635470D01*
X148517921Y-121615356D01*
X148495688Y-121601590D01*
X148446425Y-121556681D01*
X148390893Y-121511107D01*
X148374436Y-121491054D01*
X148359388Y-121477336D01*
X148315699Y-121419482D01*
X148266530Y-121359570D01*
X148257022Y-121341783D01*
X148248237Y-121330149D01*
X148213279Y-121259945D01*
X148174120Y-121186683D01*
X148169943Y-121172916D01*
X148166027Y-121165050D01*
X148142882Y-121083706D01*
X148117215Y-120999090D01*
X148116371Y-120990530D01*
X148115553Y-120987652D01*
X148107040Y-120895788D01*
X148098000Y-120804000D01*
X148107039Y-120712219D01*
X148115553Y-120620347D01*
X148116372Y-120617468D01*
X148117215Y-120608910D01*
X148142878Y-120524308D01*
X148166027Y-120442949D01*
X148169944Y-120435081D01*
X148174120Y-120421317D01*
X148213272Y-120348068D01*
X148248237Y-120277850D01*
X148257024Y-120266213D01*
X148266530Y-120248430D01*
X148315689Y-120188528D01*
X148359388Y-120130663D01*
X148374439Y-120116941D01*
X148390893Y-120096893D01*
X148446414Y-120051327D01*
X148495688Y-120006409D01*
X148517926Y-119992639D01*
X148542430Y-119972530D01*
X148600747Y-119941358D01*
X148652498Y-119909316D01*
X148682282Y-119897777D01*
X148715317Y-119880120D01*
X148773127Y-119862583D01*
X148824481Y-119842689D01*
X148861562Y-119835757D01*
X148902910Y-119823215D01*
X148957340Y-119817853D01*
X149005782Y-119808799D01*
X149049276Y-119808799D01*
X149098000Y-119804000D01*
X149146724Y-119808799D01*
G37*
G36*
X156766724Y-119808799D02*
G01*
X156810218Y-119808799D01*
X156858658Y-119817853D01*
X156913090Y-119823215D01*
X156954438Y-119835757D01*
X156991518Y-119842689D01*
X157042868Y-119862582D01*
X157100683Y-119880120D01*
X157133720Y-119897778D01*
X157163501Y-119909316D01*
X157215245Y-119941354D01*
X157273570Y-119972530D01*
X157298076Y-119992641D01*
X157320311Y-120006409D01*
X157369575Y-120051319D01*
X157425107Y-120096893D01*
X157441563Y-120116945D01*
X157456611Y-120130663D01*
X157500297Y-120188513D01*
X157549470Y-120248430D01*
X157558977Y-120266218D01*
X157567762Y-120277850D01*
X157602713Y-120348040D01*
X157641880Y-120421317D01*
X157646056Y-120435086D01*
X157649972Y-120442949D01*
X157673105Y-120524255D01*
X157698785Y-120608910D01*
X157699628Y-120617473D01*
X157700446Y-120620347D01*
X157708943Y-120712047D01*
X157718000Y-120804000D01*
X157708942Y-120895960D01*
X157700446Y-120987652D01*
X157699628Y-120990524D01*
X157698785Y-120999090D01*
X157673100Y-121083759D01*
X157649972Y-121165050D01*
X157646057Y-121172911D01*
X157641880Y-121186683D01*
X157602705Y-121259972D01*
X157567762Y-121330149D01*
X157558979Y-121341778D01*
X157549470Y-121359570D01*
X157500288Y-121419498D01*
X157456611Y-121477336D01*
X157441566Y-121491050D01*
X157425107Y-121511107D01*
X157369564Y-121556689D01*
X157320311Y-121601590D01*
X157298081Y-121615354D01*
X157273570Y-121635470D01*
X157215233Y-121666651D01*
X157163501Y-121698683D01*
X157133727Y-121710217D01*
X157100683Y-121727880D01*
X157042856Y-121745421D01*
X156991518Y-121765310D01*
X156954445Y-121772240D01*
X156913090Y-121784785D01*
X156858655Y-121790146D01*
X156810218Y-121799201D01*
X156766724Y-121799201D01*
X156718000Y-121804000D01*
X156669276Y-121799201D01*
X156625782Y-121799201D01*
X156577343Y-121790146D01*
X156522910Y-121784785D01*
X156481555Y-121772240D01*
X156444481Y-121765310D01*
X156393139Y-121745419D01*
X156335317Y-121727880D01*
X156302275Y-121710218D01*
X156272498Y-121698683D01*
X156220759Y-121666647D01*
X156162430Y-121635470D01*
X156137921Y-121615356D01*
X156115688Y-121601590D01*
X156066425Y-121556681D01*
X156010893Y-121511107D01*
X155994436Y-121491054D01*
X155979388Y-121477336D01*
X155935699Y-121419482D01*
X155886530Y-121359570D01*
X155877022Y-121341783D01*
X155868237Y-121330149D01*
X155833279Y-121259945D01*
X155794120Y-121186683D01*
X155789943Y-121172916D01*
X155786027Y-121165050D01*
X155762882Y-121083706D01*
X155737215Y-120999090D01*
X155736371Y-120990530D01*
X155735553Y-120987652D01*
X155727040Y-120895788D01*
X155718000Y-120804000D01*
X155727039Y-120712219D01*
X155735553Y-120620347D01*
X155736372Y-120617468D01*
X155737215Y-120608910D01*
X155762878Y-120524308D01*
X155786027Y-120442949D01*
X155789944Y-120435081D01*
X155794120Y-120421317D01*
X155833272Y-120348068D01*
X155868237Y-120277850D01*
X155877024Y-120266213D01*
X155886530Y-120248430D01*
X155935689Y-120188528D01*
X155979388Y-120130663D01*
X155994439Y-120116941D01*
X156010893Y-120096893D01*
X156066414Y-120051327D01*
X156115688Y-120006409D01*
X156137926Y-119992639D01*
X156162430Y-119972530D01*
X156220747Y-119941358D01*
X156272498Y-119909316D01*
X156302282Y-119897777D01*
X156335317Y-119880120D01*
X156393127Y-119862583D01*
X156444481Y-119842689D01*
X156481562Y-119835757D01*
X156522910Y-119823215D01*
X156577340Y-119817853D01*
X156625782Y-119808799D01*
X156669276Y-119808799D01*
X156718000Y-119804000D01*
X156766724Y-119808799D01*
G37*
G36*
X165658889Y-119449012D02*
G01*
X165704830Y-119449012D01*
X165755988Y-119458575D01*
X165812845Y-119464175D01*
X165856042Y-119477278D01*
X165895202Y-119484599D01*
X165949438Y-119505609D01*
X166009818Y-119523926D01*
X166044315Y-119542365D01*
X166075786Y-119554557D01*
X166130469Y-119588415D01*
X166191349Y-119620957D01*
X166216929Y-119641950D01*
X166240442Y-119656509D01*
X166292546Y-119704008D01*
X166350462Y-119751538D01*
X166367621Y-119772446D01*
X166383564Y-119786980D01*
X166429838Y-119848258D01*
X166481043Y-119910651D01*
X166490947Y-119929180D01*
X166500273Y-119941530D01*
X166537372Y-120016034D01*
X166578074Y-120092182D01*
X166582415Y-120106492D01*
X166586596Y-120114889D01*
X166611295Y-120201697D01*
X166637825Y-120289155D01*
X166638696Y-120298003D01*
X166639594Y-120301158D01*
X166648933Y-120401944D01*
X166658000Y-120494000D01*
X166648932Y-120586063D01*
X166639594Y-120686841D01*
X166638696Y-120689994D01*
X166637825Y-120698845D01*
X166611290Y-120786317D01*
X166586596Y-120873110D01*
X166582415Y-120881504D01*
X166578074Y-120895818D01*
X166537364Y-120971979D01*
X166500273Y-121046469D01*
X166490949Y-121058815D01*
X166481043Y-121077349D01*
X166429829Y-121139752D01*
X166383564Y-121201019D01*
X166367624Y-121215549D01*
X166350462Y-121236462D01*
X166292535Y-121284000D01*
X166240442Y-121331490D01*
X166216934Y-121346045D01*
X166191349Y-121367043D01*
X166130457Y-121399590D01*
X166075786Y-121433442D01*
X166044321Y-121445631D01*
X166009818Y-121464074D01*
X165949426Y-121482393D01*
X165895202Y-121503400D01*
X165856049Y-121510719D01*
X165812845Y-121523825D01*
X165755985Y-121529425D01*
X165704830Y-121538988D01*
X165658889Y-121538988D01*
X165608000Y-121544000D01*
X165557111Y-121538988D01*
X165511170Y-121538988D01*
X165460014Y-121529424D01*
X165403155Y-121523825D01*
X165359952Y-121510719D01*
X165320797Y-121503400D01*
X165266569Y-121482392D01*
X165206182Y-121464074D01*
X165171680Y-121445632D01*
X165140213Y-121433442D01*
X165085535Y-121399586D01*
X165024651Y-121367043D01*
X164999068Y-121346047D01*
X164975557Y-121331490D01*
X164923454Y-121283992D01*
X164865538Y-121236462D01*
X164848378Y-121215553D01*
X164832435Y-121201019D01*
X164786158Y-121139737D01*
X164734957Y-121077349D01*
X164725053Y-121058820D01*
X164715726Y-121046469D01*
X164678620Y-120971951D01*
X164637926Y-120895818D01*
X164633585Y-120881509D01*
X164629403Y-120873110D01*
X164604693Y-120786264D01*
X164578175Y-120698845D01*
X164577303Y-120690000D01*
X164576405Y-120686841D01*
X164567050Y-120585891D01*
X164558000Y-120494000D01*
X164567049Y-120402116D01*
X164576405Y-120301158D01*
X164577304Y-120297998D01*
X164578175Y-120289155D01*
X164604688Y-120201750D01*
X164629403Y-120114889D01*
X164633586Y-120106487D01*
X164637926Y-120092182D01*
X164678613Y-120016061D01*
X164715726Y-119941530D01*
X164725054Y-119929176D01*
X164734957Y-119910651D01*
X164786148Y-119848274D01*
X164832435Y-119786980D01*
X164848381Y-119772442D01*
X164865538Y-119751538D01*
X164923443Y-119704016D01*
X164975557Y-119656509D01*
X164999073Y-119641948D01*
X165024651Y-119620957D01*
X165085523Y-119588419D01*
X165140213Y-119554557D01*
X165171687Y-119542363D01*
X165206182Y-119523926D01*
X165266557Y-119505611D01*
X165320797Y-119484599D01*
X165359959Y-119477278D01*
X165403155Y-119464175D01*
X165460011Y-119458575D01*
X165511170Y-119449012D01*
X165557111Y-119449012D01*
X165608000Y-119444000D01*
X165658889Y-119449012D01*
G37*
G36*
X166474043Y-116907191D02*
G01*
X166506727Y-116911494D01*
X166514948Y-116915327D01*
X166534537Y-116919224D01*
X166560480Y-116936559D01*
X166571608Y-116941748D01*
X166578378Y-116948518D01*
X166599421Y-116962579D01*
X166613481Y-116983621D01*
X166620251Y-116990391D01*
X166625438Y-117001516D01*
X166642776Y-117027463D01*
X166646672Y-117047053D01*
X166650505Y-117055272D01*
X166654806Y-117087945D01*
X166658000Y-117104000D01*
X166658000Y-118804000D01*
X166654805Y-118820058D01*
X166650505Y-118852727D01*
X166646673Y-118860944D01*
X166642776Y-118880537D01*
X166625437Y-118906485D01*
X166620251Y-118917608D01*
X166613483Y-118924375D01*
X166599421Y-118945421D01*
X166578375Y-118959483D01*
X166571608Y-118966251D01*
X166560485Y-118971437D01*
X166534537Y-118988776D01*
X166514944Y-118992673D01*
X166506727Y-118996505D01*
X166474056Y-119000806D01*
X166458000Y-119004000D01*
X164758000Y-119004000D01*
X164741943Y-119000806D01*
X164709272Y-118996505D01*
X164701053Y-118992672D01*
X164681463Y-118988776D01*
X164655516Y-118971438D01*
X164644391Y-118966251D01*
X164637621Y-118959481D01*
X164616579Y-118945421D01*
X164602518Y-118924378D01*
X164595748Y-118917608D01*
X164590559Y-118906480D01*
X164573224Y-118880537D01*
X164569327Y-118860948D01*
X164565494Y-118852727D01*
X164561190Y-118820041D01*
X164558000Y-118804000D01*
X164558000Y-117104000D01*
X164561190Y-117087958D01*
X164565494Y-117055272D01*
X164569327Y-117047049D01*
X164573224Y-117027463D01*
X164590557Y-117001521D01*
X164595748Y-116990391D01*
X164602520Y-116983618D01*
X164616579Y-116962579D01*
X164637618Y-116948520D01*
X164644391Y-116941748D01*
X164655521Y-116936557D01*
X164681463Y-116919224D01*
X164701049Y-116915327D01*
X164709272Y-116911494D01*
X164741960Y-116907190D01*
X164758000Y-116904000D01*
X166458000Y-116904000D01*
X166474043Y-116907191D01*
G37*
G36*
X134516043Y-114539295D02*
G01*
X134548727Y-114543598D01*
X134556948Y-114547431D01*
X134576537Y-114551328D01*
X134602480Y-114568663D01*
X134613608Y-114573852D01*
X134620378Y-114580622D01*
X134641421Y-114594683D01*
X134655481Y-114615725D01*
X134662251Y-114622495D01*
X134667438Y-114633620D01*
X134684776Y-114659567D01*
X134688672Y-114679157D01*
X134692505Y-114687376D01*
X134696806Y-114720049D01*
X134700000Y-114736104D01*
X134700000Y-117986104D01*
X134696805Y-118002162D01*
X134692505Y-118034831D01*
X134688673Y-118043048D01*
X134684776Y-118062641D01*
X134667437Y-118088589D01*
X134662251Y-118099712D01*
X134655483Y-118106479D01*
X134641421Y-118127525D01*
X134620375Y-118141587D01*
X134613608Y-118148355D01*
X134602485Y-118153541D01*
X134576537Y-118170880D01*
X134556944Y-118174777D01*
X134548727Y-118178609D01*
X134516056Y-118182910D01*
X134500000Y-118186104D01*
X123500000Y-118186104D01*
X123483943Y-118182910D01*
X123451272Y-118178609D01*
X123443053Y-118174776D01*
X123423463Y-118170880D01*
X123397516Y-118153542D01*
X123386391Y-118148355D01*
X123379621Y-118141585D01*
X123358579Y-118127525D01*
X123344518Y-118106482D01*
X123337748Y-118099712D01*
X123332559Y-118088584D01*
X123315224Y-118062641D01*
X123311327Y-118043052D01*
X123307494Y-118034831D01*
X123303190Y-118002145D01*
X123300000Y-117986104D01*
X123300000Y-114736104D01*
X123303190Y-114720062D01*
X123307494Y-114687376D01*
X123311327Y-114679153D01*
X123315224Y-114659567D01*
X123332557Y-114633625D01*
X123337748Y-114622495D01*
X123344520Y-114615722D01*
X123358579Y-114594683D01*
X123379618Y-114580624D01*
X123386391Y-114573852D01*
X123397521Y-114568661D01*
X123423463Y-114551328D01*
X123443049Y-114547431D01*
X123451272Y-114543598D01*
X123483960Y-114539294D01*
X123500000Y-114536104D01*
X134500000Y-114536104D01*
X134516043Y-114539295D01*
G37*
G36*
X136573724Y-115209799D02*
G01*
X136617218Y-115209799D01*
X136665658Y-115218853D01*
X136720090Y-115224215D01*
X136761438Y-115236757D01*
X136798518Y-115243689D01*
X136849868Y-115263582D01*
X136907683Y-115281120D01*
X136940720Y-115298778D01*
X136970501Y-115310316D01*
X137022245Y-115342354D01*
X137080570Y-115373530D01*
X137105076Y-115393641D01*
X137127311Y-115407409D01*
X137176575Y-115452319D01*
X137232107Y-115497893D01*
X137248563Y-115517945D01*
X137263611Y-115531663D01*
X137307297Y-115589513D01*
X137356470Y-115649430D01*
X137365977Y-115667218D01*
X137374762Y-115678850D01*
X137409713Y-115749040D01*
X137448880Y-115822317D01*
X137453056Y-115836086D01*
X137456972Y-115843949D01*
X137480105Y-115925255D01*
X137505785Y-116009910D01*
X137506628Y-116018473D01*
X137507446Y-116021347D01*
X137515943Y-116113047D01*
X137525000Y-116205000D01*
X137515942Y-116296960D01*
X137507446Y-116388652D01*
X137506628Y-116391524D01*
X137505785Y-116400090D01*
X137480100Y-116484759D01*
X137456972Y-116566050D01*
X137453057Y-116573911D01*
X137448880Y-116587683D01*
X137409705Y-116660972D01*
X137374762Y-116731149D01*
X137365979Y-116742778D01*
X137356470Y-116760570D01*
X137307288Y-116820498D01*
X137263611Y-116878336D01*
X137248566Y-116892050D01*
X137232107Y-116912107D01*
X137176564Y-116957689D01*
X137127311Y-117002590D01*
X137105081Y-117016354D01*
X137080570Y-117036470D01*
X137022233Y-117067651D01*
X136970501Y-117099683D01*
X136940727Y-117111217D01*
X136907683Y-117128880D01*
X136849856Y-117146421D01*
X136798518Y-117166310D01*
X136761445Y-117173240D01*
X136720090Y-117185785D01*
X136665655Y-117191146D01*
X136617218Y-117200201D01*
X136573724Y-117200201D01*
X136525000Y-117205000D01*
X136476276Y-117200201D01*
X136432782Y-117200201D01*
X136384343Y-117191146D01*
X136329910Y-117185785D01*
X136288555Y-117173240D01*
X136251481Y-117166310D01*
X136200139Y-117146419D01*
X136142317Y-117128880D01*
X136109275Y-117111218D01*
X136079498Y-117099683D01*
X136027759Y-117067647D01*
X135969430Y-117036470D01*
X135944921Y-117016356D01*
X135922688Y-117002590D01*
X135873425Y-116957681D01*
X135817893Y-116912107D01*
X135801436Y-116892054D01*
X135786388Y-116878336D01*
X135742699Y-116820482D01*
X135693530Y-116760570D01*
X135684022Y-116742783D01*
X135675237Y-116731149D01*
X135640279Y-116660945D01*
X135601120Y-116587683D01*
X135596943Y-116573916D01*
X135593027Y-116566050D01*
X135569882Y-116484706D01*
X135544215Y-116400090D01*
X135543371Y-116391530D01*
X135542553Y-116388652D01*
X135534040Y-116296788D01*
X135525000Y-116205000D01*
X135534039Y-116113219D01*
X135542553Y-116021347D01*
X135543372Y-116018468D01*
X135544215Y-116009910D01*
X135569878Y-115925308D01*
X135593027Y-115843949D01*
X135596944Y-115836081D01*
X135601120Y-115822317D01*
X135640272Y-115749068D01*
X135675237Y-115678850D01*
X135684024Y-115667213D01*
X135693530Y-115649430D01*
X135742689Y-115589528D01*
X135786388Y-115531663D01*
X135801439Y-115517941D01*
X135817893Y-115497893D01*
X135873414Y-115452327D01*
X135922688Y-115407409D01*
X135944926Y-115393639D01*
X135969430Y-115373530D01*
X136027747Y-115342358D01*
X136079498Y-115310316D01*
X136109282Y-115298777D01*
X136142317Y-115281120D01*
X136200127Y-115263583D01*
X136251481Y-115243689D01*
X136288562Y-115236757D01*
X136329910Y-115224215D01*
X136384340Y-115218853D01*
X136432782Y-115209799D01*
X136476276Y-115209799D01*
X136525000Y-115205000D01*
X136573724Y-115209799D01*
G37*
G36*
X144961043Y-115208191D02*
G01*
X144993727Y-115212494D01*
X145001948Y-115216327D01*
X145021537Y-115220224D01*
X145047480Y-115237559D01*
X145058608Y-115242748D01*
X145065378Y-115249518D01*
X145086421Y-115263579D01*
X145100481Y-115284621D01*
X145107251Y-115291391D01*
X145112438Y-115302516D01*
X145129776Y-115328463D01*
X145133672Y-115348053D01*
X145137505Y-115356272D01*
X145141806Y-115388945D01*
X145145000Y-115405000D01*
X145145000Y-117005000D01*
X145141805Y-117021058D01*
X145137505Y-117053727D01*
X145133673Y-117061944D01*
X145129776Y-117081537D01*
X145112437Y-117107485D01*
X145107251Y-117118608D01*
X145100483Y-117125375D01*
X145086421Y-117146421D01*
X145065375Y-117160483D01*
X145058608Y-117167251D01*
X145047485Y-117172437D01*
X145021537Y-117189776D01*
X145001944Y-117193673D01*
X144993727Y-117197505D01*
X144961056Y-117201806D01*
X144945000Y-117205000D01*
X143345000Y-117205000D01*
X143328943Y-117201806D01*
X143296272Y-117197505D01*
X143288053Y-117193672D01*
X143268463Y-117189776D01*
X143242516Y-117172438D01*
X143231391Y-117167251D01*
X143224621Y-117160481D01*
X143203579Y-117146421D01*
X143189518Y-117125378D01*
X143182748Y-117118608D01*
X143177559Y-117107480D01*
X143160224Y-117081537D01*
X143156327Y-117061948D01*
X143152494Y-117053727D01*
X143148190Y-117021041D01*
X143145000Y-117005000D01*
X143145000Y-115405000D01*
X143148190Y-115388958D01*
X143152494Y-115356272D01*
X143156327Y-115348049D01*
X143160224Y-115328463D01*
X143177557Y-115302521D01*
X143182748Y-115291391D01*
X143189520Y-115284618D01*
X143203579Y-115263579D01*
X143224618Y-115249520D01*
X143231391Y-115242748D01*
X143242521Y-115237557D01*
X143268463Y-115220224D01*
X143288049Y-115216327D01*
X143296272Y-115212494D01*
X143328960Y-115208190D01*
X143345000Y-115205000D01*
X144945000Y-115205000D01*
X144961043Y-115208191D01*
G37*
G36*
X149146724Y-115109799D02*
G01*
X149190218Y-115109799D01*
X149238658Y-115118853D01*
X149293090Y-115124215D01*
X149334438Y-115136757D01*
X149371518Y-115143689D01*
X149422868Y-115163582D01*
X149480683Y-115181120D01*
X149513720Y-115198778D01*
X149543501Y-115210316D01*
X149595245Y-115242354D01*
X149653570Y-115273530D01*
X149678076Y-115293641D01*
X149700311Y-115307409D01*
X149749575Y-115352319D01*
X149805107Y-115397893D01*
X149821563Y-115417945D01*
X149836611Y-115431663D01*
X149880297Y-115489513D01*
X149929470Y-115549430D01*
X149938977Y-115567218D01*
X149947762Y-115578850D01*
X149982713Y-115649040D01*
X150021880Y-115722317D01*
X150026056Y-115736086D01*
X150029972Y-115743949D01*
X150053105Y-115825255D01*
X150078785Y-115909910D01*
X150079628Y-115918473D01*
X150080446Y-115921347D01*
X150088943Y-116013047D01*
X150098000Y-116105000D01*
X150088942Y-116196960D01*
X150080446Y-116288652D01*
X150079628Y-116291524D01*
X150078785Y-116300090D01*
X150053100Y-116384759D01*
X150029972Y-116466050D01*
X150026057Y-116473911D01*
X150021880Y-116487683D01*
X149982705Y-116560972D01*
X149947762Y-116631149D01*
X149938979Y-116642778D01*
X149929470Y-116660570D01*
X149880288Y-116720498D01*
X149836611Y-116778336D01*
X149821566Y-116792050D01*
X149805107Y-116812107D01*
X149749564Y-116857689D01*
X149700311Y-116902590D01*
X149678081Y-116916354D01*
X149653570Y-116936470D01*
X149595233Y-116967651D01*
X149543501Y-116999683D01*
X149513727Y-117011217D01*
X149480683Y-117028880D01*
X149422856Y-117046421D01*
X149371518Y-117066310D01*
X149334445Y-117073240D01*
X149293090Y-117085785D01*
X149238655Y-117091146D01*
X149190218Y-117100201D01*
X149146724Y-117100201D01*
X149098000Y-117105000D01*
X149049276Y-117100201D01*
X149005782Y-117100201D01*
X148957343Y-117091146D01*
X148902910Y-117085785D01*
X148861555Y-117073240D01*
X148824481Y-117066310D01*
X148773139Y-117046419D01*
X148715317Y-117028880D01*
X148682275Y-117011218D01*
X148652498Y-116999683D01*
X148600759Y-116967647D01*
X148542430Y-116936470D01*
X148517921Y-116916356D01*
X148495688Y-116902590D01*
X148446425Y-116857681D01*
X148390893Y-116812107D01*
X148374436Y-116792054D01*
X148359388Y-116778336D01*
X148315699Y-116720482D01*
X148266530Y-116660570D01*
X148257022Y-116642783D01*
X148248237Y-116631149D01*
X148213279Y-116560945D01*
X148174120Y-116487683D01*
X148169943Y-116473916D01*
X148166027Y-116466050D01*
X148142882Y-116384706D01*
X148117215Y-116300090D01*
X148116371Y-116291530D01*
X148115553Y-116288652D01*
X148107040Y-116196788D01*
X148098000Y-116105000D01*
X148107039Y-116013219D01*
X148115553Y-115921347D01*
X148116372Y-115918468D01*
X148117215Y-115909910D01*
X148142878Y-115825308D01*
X148166027Y-115743949D01*
X148169944Y-115736081D01*
X148174120Y-115722317D01*
X148213272Y-115649068D01*
X148248237Y-115578850D01*
X148257024Y-115567213D01*
X148266530Y-115549430D01*
X148315689Y-115489528D01*
X148359388Y-115431663D01*
X148374439Y-115417941D01*
X148390893Y-115397893D01*
X148446414Y-115352327D01*
X148495688Y-115307409D01*
X148517926Y-115293639D01*
X148542430Y-115273530D01*
X148600747Y-115242358D01*
X148652498Y-115210316D01*
X148682282Y-115198777D01*
X148715317Y-115181120D01*
X148773127Y-115163583D01*
X148824481Y-115143689D01*
X148861562Y-115136757D01*
X148902910Y-115124215D01*
X148957340Y-115118853D01*
X149005782Y-115109799D01*
X149049276Y-115109799D01*
X149098000Y-115105000D01*
X149146724Y-115109799D01*
G37*
G36*
X156766724Y-115109799D02*
G01*
X156810218Y-115109799D01*
X156858658Y-115118853D01*
X156913090Y-115124215D01*
X156954438Y-115136757D01*
X156991518Y-115143689D01*
X157042868Y-115163582D01*
X157100683Y-115181120D01*
X157133720Y-115198778D01*
X157163501Y-115210316D01*
X157215245Y-115242354D01*
X157273570Y-115273530D01*
X157298076Y-115293641D01*
X157320311Y-115307409D01*
X157369575Y-115352319D01*
X157425107Y-115397893D01*
X157441563Y-115417945D01*
X157456611Y-115431663D01*
X157500297Y-115489513D01*
X157549470Y-115549430D01*
X157558977Y-115567218D01*
X157567762Y-115578850D01*
X157602713Y-115649040D01*
X157641880Y-115722317D01*
X157646056Y-115736086D01*
X157649972Y-115743949D01*
X157673105Y-115825255D01*
X157698785Y-115909910D01*
X157699628Y-115918473D01*
X157700446Y-115921347D01*
X157708943Y-116013047D01*
X157718000Y-116105000D01*
X157708942Y-116196960D01*
X157700446Y-116288652D01*
X157699628Y-116291524D01*
X157698785Y-116300090D01*
X157673100Y-116384759D01*
X157649972Y-116466050D01*
X157646057Y-116473911D01*
X157641880Y-116487683D01*
X157602705Y-116560972D01*
X157567762Y-116631149D01*
X157558979Y-116642778D01*
X157549470Y-116660570D01*
X157500288Y-116720498D01*
X157456611Y-116778336D01*
X157441566Y-116792050D01*
X157425107Y-116812107D01*
X157369564Y-116857689D01*
X157320311Y-116902590D01*
X157298081Y-116916354D01*
X157273570Y-116936470D01*
X157215233Y-116967651D01*
X157163501Y-116999683D01*
X157133727Y-117011217D01*
X157100683Y-117028880D01*
X157042856Y-117046421D01*
X156991518Y-117066310D01*
X156954445Y-117073240D01*
X156913090Y-117085785D01*
X156858655Y-117091146D01*
X156810218Y-117100201D01*
X156766724Y-117100201D01*
X156718000Y-117105000D01*
X156669276Y-117100201D01*
X156625782Y-117100201D01*
X156577343Y-117091146D01*
X156522910Y-117085785D01*
X156481555Y-117073240D01*
X156444481Y-117066310D01*
X156393139Y-117046419D01*
X156335317Y-117028880D01*
X156302275Y-117011218D01*
X156272498Y-116999683D01*
X156220759Y-116967647D01*
X156162430Y-116936470D01*
X156137921Y-116916356D01*
X156115688Y-116902590D01*
X156066425Y-116857681D01*
X156010893Y-116812107D01*
X155994436Y-116792054D01*
X155979388Y-116778336D01*
X155935699Y-116720482D01*
X155886530Y-116660570D01*
X155877022Y-116642783D01*
X155868237Y-116631149D01*
X155833279Y-116560945D01*
X155794120Y-116487683D01*
X155789943Y-116473916D01*
X155786027Y-116466050D01*
X155762882Y-116384706D01*
X155737215Y-116300090D01*
X155736371Y-116291530D01*
X155735553Y-116288652D01*
X155727040Y-116196788D01*
X155718000Y-116105000D01*
X155727039Y-116013219D01*
X155735553Y-115921347D01*
X155736372Y-115918468D01*
X155737215Y-115909910D01*
X155762878Y-115825308D01*
X155786027Y-115743949D01*
X155789944Y-115736081D01*
X155794120Y-115722317D01*
X155833272Y-115649068D01*
X155868237Y-115578850D01*
X155877024Y-115567213D01*
X155886530Y-115549430D01*
X155935689Y-115489528D01*
X155979388Y-115431663D01*
X155994439Y-115417941D01*
X156010893Y-115397893D01*
X156066414Y-115352327D01*
X156115688Y-115307409D01*
X156137926Y-115293639D01*
X156162430Y-115273530D01*
X156220747Y-115242358D01*
X156272498Y-115210316D01*
X156302282Y-115198777D01*
X156335317Y-115181120D01*
X156393127Y-115163583D01*
X156444481Y-115143689D01*
X156481562Y-115136757D01*
X156522910Y-115124215D01*
X156577340Y-115118853D01*
X156625782Y-115109799D01*
X156669276Y-115109799D01*
X156718000Y-115105000D01*
X156766724Y-115109799D01*
G37*
G36*
X165656724Y-112034799D02*
G01*
X165700218Y-112034799D01*
X165748658Y-112043853D01*
X165803090Y-112049215D01*
X165844438Y-112061757D01*
X165881518Y-112068689D01*
X165932868Y-112088582D01*
X165990683Y-112106120D01*
X166023720Y-112123778D01*
X166053501Y-112135316D01*
X166105245Y-112167354D01*
X166163570Y-112198530D01*
X166188076Y-112218641D01*
X166210311Y-112232409D01*
X166259575Y-112277319D01*
X166315107Y-112322893D01*
X166331563Y-112342945D01*
X166346611Y-112356663D01*
X166390297Y-112414513D01*
X166439470Y-112474430D01*
X166448977Y-112492218D01*
X166457762Y-112503850D01*
X166492713Y-112574040D01*
X166531880Y-112647317D01*
X166536056Y-112661086D01*
X166539972Y-112668949D01*
X166563105Y-112750255D01*
X166588785Y-112834910D01*
X166589628Y-112843473D01*
X166590446Y-112846347D01*
X166598943Y-112938047D01*
X166608000Y-113030000D01*
X166598942Y-113121960D01*
X166590446Y-113213652D01*
X166589628Y-113216524D01*
X166588785Y-113225090D01*
X166563100Y-113309759D01*
X166539972Y-113391050D01*
X166536057Y-113398911D01*
X166531880Y-113412683D01*
X166492705Y-113485972D01*
X166457762Y-113556149D01*
X166448979Y-113567778D01*
X166439470Y-113585570D01*
X166390288Y-113645498D01*
X166346611Y-113703336D01*
X166331566Y-113717050D01*
X166315107Y-113737107D01*
X166259564Y-113782689D01*
X166210311Y-113827590D01*
X166188081Y-113841354D01*
X166163570Y-113861470D01*
X166105233Y-113892651D01*
X166053501Y-113924683D01*
X166023727Y-113936217D01*
X165990683Y-113953880D01*
X165932856Y-113971421D01*
X165881518Y-113991310D01*
X165844445Y-113998240D01*
X165803090Y-114010785D01*
X165748655Y-114016146D01*
X165700218Y-114025201D01*
X165656724Y-114025201D01*
X165608000Y-114030000D01*
X165559276Y-114025201D01*
X165515782Y-114025201D01*
X165467343Y-114016146D01*
X165412910Y-114010785D01*
X165371555Y-113998240D01*
X165334481Y-113991310D01*
X165283139Y-113971419D01*
X165225317Y-113953880D01*
X165192275Y-113936218D01*
X165162498Y-113924683D01*
X165110759Y-113892647D01*
X165052430Y-113861470D01*
X165027921Y-113841356D01*
X165005688Y-113827590D01*
X164956425Y-113782681D01*
X164900893Y-113737107D01*
X164884436Y-113717054D01*
X164869388Y-113703336D01*
X164825699Y-113645482D01*
X164776530Y-113585570D01*
X164767022Y-113567783D01*
X164758237Y-113556149D01*
X164723279Y-113485945D01*
X164684120Y-113412683D01*
X164679943Y-113398916D01*
X164676027Y-113391050D01*
X164652882Y-113309706D01*
X164627215Y-113225090D01*
X164626371Y-113216530D01*
X164625553Y-113213652D01*
X164617040Y-113121788D01*
X164608000Y-113030000D01*
X164617039Y-112938219D01*
X164625553Y-112846347D01*
X164626372Y-112843468D01*
X164627215Y-112834910D01*
X164652878Y-112750308D01*
X164676027Y-112668949D01*
X164679944Y-112661081D01*
X164684120Y-112647317D01*
X164723272Y-112574068D01*
X164758237Y-112503850D01*
X164767024Y-112492213D01*
X164776530Y-112474430D01*
X164825689Y-112414528D01*
X164869388Y-112356663D01*
X164884439Y-112342941D01*
X164900893Y-112322893D01*
X164956414Y-112277327D01*
X165005688Y-112232409D01*
X165027926Y-112218639D01*
X165052430Y-112198530D01*
X165110747Y-112167358D01*
X165162498Y-112135316D01*
X165192282Y-112123777D01*
X165225317Y-112106120D01*
X165283127Y-112088583D01*
X165334481Y-112068689D01*
X165371562Y-112061757D01*
X165412910Y-112049215D01*
X165467340Y-112043853D01*
X165515782Y-112034799D01*
X165559276Y-112034799D01*
X165608000Y-112030000D01*
X165656724Y-112034799D01*
G37*
G36*
X134516043Y-110150407D02*
G01*
X134548727Y-110154710D01*
X134556948Y-110158543D01*
X134576537Y-110162440D01*
X134602480Y-110179775D01*
X134613608Y-110184964D01*
X134620378Y-110191734D01*
X134641421Y-110205795D01*
X134655481Y-110226837D01*
X134662251Y-110233607D01*
X134667438Y-110244732D01*
X134684776Y-110270679D01*
X134688672Y-110290269D01*
X134692505Y-110298488D01*
X134696806Y-110331161D01*
X134700000Y-110347216D01*
X134700000Y-113597216D01*
X134696805Y-113613274D01*
X134692505Y-113645943D01*
X134688673Y-113654160D01*
X134684776Y-113673753D01*
X134667437Y-113699701D01*
X134662251Y-113710824D01*
X134655483Y-113717591D01*
X134641421Y-113738637D01*
X134620375Y-113752699D01*
X134613608Y-113759467D01*
X134602485Y-113764653D01*
X134576537Y-113781992D01*
X134556944Y-113785889D01*
X134548727Y-113789721D01*
X134516056Y-113794022D01*
X134500000Y-113797216D01*
X123500000Y-113797216D01*
X123483943Y-113794022D01*
X123451272Y-113789721D01*
X123443053Y-113785888D01*
X123423463Y-113781992D01*
X123397516Y-113764654D01*
X123386391Y-113759467D01*
X123379621Y-113752697D01*
X123358579Y-113738637D01*
X123344518Y-113717594D01*
X123337748Y-113710824D01*
X123332559Y-113699696D01*
X123315224Y-113673753D01*
X123311327Y-113654164D01*
X123307494Y-113645943D01*
X123303190Y-113613257D01*
X123300000Y-113597216D01*
X123300000Y-110347216D01*
X123303190Y-110331174D01*
X123307494Y-110298488D01*
X123311327Y-110290265D01*
X123315224Y-110270679D01*
X123332557Y-110244737D01*
X123337748Y-110233607D01*
X123344520Y-110226834D01*
X123358579Y-110205795D01*
X123379618Y-110191736D01*
X123386391Y-110184964D01*
X123397521Y-110179773D01*
X123423463Y-110162440D01*
X123443049Y-110158543D01*
X123451272Y-110154710D01*
X123483960Y-110150406D01*
X123500000Y-110147216D01*
X134500000Y-110147216D01*
X134516043Y-110150407D01*
G37*
G36*
X136700724Y-111103799D02*
G01*
X136744218Y-111103799D01*
X136792658Y-111112853D01*
X136847090Y-111118215D01*
X136888438Y-111130757D01*
X136925518Y-111137689D01*
X136976868Y-111157582D01*
X137034683Y-111175120D01*
X137067720Y-111192778D01*
X137097501Y-111204316D01*
X137149245Y-111236354D01*
X137207570Y-111267530D01*
X137232076Y-111287641D01*
X137254311Y-111301409D01*
X137303575Y-111346319D01*
X137359107Y-111391893D01*
X137375563Y-111411945D01*
X137390611Y-111425663D01*
X137434297Y-111483513D01*
X137483470Y-111543430D01*
X137492977Y-111561218D01*
X137501762Y-111572850D01*
X137536713Y-111643040D01*
X137575880Y-111716317D01*
X137580056Y-111730086D01*
X137583972Y-111737949D01*
X137607105Y-111819255D01*
X137632785Y-111903910D01*
X137633628Y-111912473D01*
X137634446Y-111915347D01*
X137642943Y-112007047D01*
X137652000Y-112099000D01*
X137642942Y-112190960D01*
X137634446Y-112282652D01*
X137633628Y-112285524D01*
X137632785Y-112294090D01*
X137607100Y-112378759D01*
X137583972Y-112460050D01*
X137580057Y-112467911D01*
X137575880Y-112481683D01*
X137536705Y-112554972D01*
X137501762Y-112625149D01*
X137492979Y-112636778D01*
X137483470Y-112654570D01*
X137434288Y-112714498D01*
X137390611Y-112772336D01*
X137375566Y-112786050D01*
X137359107Y-112806107D01*
X137303564Y-112851689D01*
X137254311Y-112896590D01*
X137232081Y-112910354D01*
X137207570Y-112930470D01*
X137149233Y-112961651D01*
X137097501Y-112993683D01*
X137067727Y-113005217D01*
X137034683Y-113022880D01*
X136976856Y-113040421D01*
X136925518Y-113060310D01*
X136888445Y-113067240D01*
X136847090Y-113079785D01*
X136792655Y-113085146D01*
X136744218Y-113094201D01*
X136700724Y-113094201D01*
X136652000Y-113099000D01*
X136603276Y-113094201D01*
X136559782Y-113094201D01*
X136511343Y-113085146D01*
X136456910Y-113079785D01*
X136415555Y-113067240D01*
X136378481Y-113060310D01*
X136327139Y-113040419D01*
X136269317Y-113022880D01*
X136236275Y-113005218D01*
X136206498Y-112993683D01*
X136154759Y-112961647D01*
X136096430Y-112930470D01*
X136071921Y-112910356D01*
X136049688Y-112896590D01*
X136000425Y-112851681D01*
X135944893Y-112806107D01*
X135928436Y-112786054D01*
X135913388Y-112772336D01*
X135869699Y-112714482D01*
X135820530Y-112654570D01*
X135811022Y-112636783D01*
X135802237Y-112625149D01*
X135767279Y-112554945D01*
X135728120Y-112481683D01*
X135723943Y-112467916D01*
X135720027Y-112460050D01*
X135696882Y-112378706D01*
X135671215Y-112294090D01*
X135670371Y-112285530D01*
X135669553Y-112282652D01*
X135661040Y-112190788D01*
X135652000Y-112099000D01*
X135661039Y-112007219D01*
X135669553Y-111915347D01*
X135670372Y-111912468D01*
X135671215Y-111903910D01*
X135696878Y-111819308D01*
X135720027Y-111737949D01*
X135723944Y-111730081D01*
X135728120Y-111716317D01*
X135767272Y-111643068D01*
X135802237Y-111572850D01*
X135811024Y-111561213D01*
X135820530Y-111543430D01*
X135869689Y-111483528D01*
X135913388Y-111425663D01*
X135928439Y-111411941D01*
X135944893Y-111391893D01*
X136000414Y-111346327D01*
X136049688Y-111301409D01*
X136071926Y-111287639D01*
X136096430Y-111267530D01*
X136154747Y-111236358D01*
X136206498Y-111204316D01*
X136236282Y-111192777D01*
X136269317Y-111175120D01*
X136327127Y-111157583D01*
X136378481Y-111137689D01*
X136415562Y-111130757D01*
X136456910Y-111118215D01*
X136511340Y-111112853D01*
X136559782Y-111103799D01*
X136603276Y-111103799D01*
X136652000Y-111099000D01*
X136700724Y-111103799D01*
G37*
G36*
X145088043Y-111102191D02*
G01*
X145120727Y-111106494D01*
X145128948Y-111110327D01*
X145148537Y-111114224D01*
X145174480Y-111131559D01*
X145185608Y-111136748D01*
X145192378Y-111143518D01*
X145213421Y-111157579D01*
X145227481Y-111178621D01*
X145234251Y-111185391D01*
X145239438Y-111196516D01*
X145256776Y-111222463D01*
X145260672Y-111242053D01*
X145264505Y-111250272D01*
X145268806Y-111282945D01*
X145272000Y-111299000D01*
X145272000Y-112899000D01*
X145268805Y-112915058D01*
X145264505Y-112947727D01*
X145260673Y-112955944D01*
X145256776Y-112975537D01*
X145239437Y-113001485D01*
X145234251Y-113012608D01*
X145227483Y-113019375D01*
X145213421Y-113040421D01*
X145192375Y-113054483D01*
X145185608Y-113061251D01*
X145174485Y-113066437D01*
X145148537Y-113083776D01*
X145128944Y-113087673D01*
X145120727Y-113091505D01*
X145088056Y-113095806D01*
X145072000Y-113099000D01*
X143472000Y-113099000D01*
X143455943Y-113095806D01*
X143423272Y-113091505D01*
X143415053Y-113087672D01*
X143395463Y-113083776D01*
X143369516Y-113066438D01*
X143358391Y-113061251D01*
X143351621Y-113054481D01*
X143330579Y-113040421D01*
X143316518Y-113019378D01*
X143309748Y-113012608D01*
X143304559Y-113001480D01*
X143287224Y-112975537D01*
X143283327Y-112955948D01*
X143279494Y-112947727D01*
X143275190Y-112915041D01*
X143272000Y-112899000D01*
X143272000Y-111299000D01*
X143275190Y-111282958D01*
X143279494Y-111250272D01*
X143283327Y-111242049D01*
X143287224Y-111222463D01*
X143304557Y-111196521D01*
X143309748Y-111185391D01*
X143316520Y-111178618D01*
X143330579Y-111157579D01*
X143351618Y-111143520D01*
X143358391Y-111136748D01*
X143369521Y-111131557D01*
X143395463Y-111114224D01*
X143415049Y-111110327D01*
X143423272Y-111106494D01*
X143455960Y-111102190D01*
X143472000Y-111099000D01*
X145072000Y-111099000D01*
X145088043Y-111102191D01*
G37*
G36*
X149146724Y-111003799D02*
G01*
X149190218Y-111003799D01*
X149238658Y-111012853D01*
X149293090Y-111018215D01*
X149334438Y-111030757D01*
X149371518Y-111037689D01*
X149422868Y-111057582D01*
X149480683Y-111075120D01*
X149513720Y-111092778D01*
X149543501Y-111104316D01*
X149595245Y-111136354D01*
X149653570Y-111167530D01*
X149678076Y-111187641D01*
X149700311Y-111201409D01*
X149749575Y-111246319D01*
X149805107Y-111291893D01*
X149821563Y-111311945D01*
X149836611Y-111325663D01*
X149880297Y-111383513D01*
X149929470Y-111443430D01*
X149938977Y-111461218D01*
X149947762Y-111472850D01*
X149982713Y-111543040D01*
X150021880Y-111616317D01*
X150026056Y-111630086D01*
X150029972Y-111637949D01*
X150053105Y-111719255D01*
X150078785Y-111803910D01*
X150079628Y-111812473D01*
X150080446Y-111815347D01*
X150088943Y-111907047D01*
X150098000Y-111999000D01*
X150088942Y-112090960D01*
X150080446Y-112182652D01*
X150079628Y-112185524D01*
X150078785Y-112194090D01*
X150053100Y-112278759D01*
X150029972Y-112360050D01*
X150026057Y-112367911D01*
X150021880Y-112381683D01*
X149982705Y-112454972D01*
X149947762Y-112525149D01*
X149938979Y-112536778D01*
X149929470Y-112554570D01*
X149880288Y-112614498D01*
X149836611Y-112672336D01*
X149821566Y-112686050D01*
X149805107Y-112706107D01*
X149749564Y-112751689D01*
X149700311Y-112796590D01*
X149678081Y-112810354D01*
X149653570Y-112830470D01*
X149595233Y-112861651D01*
X149543501Y-112893683D01*
X149513727Y-112905217D01*
X149480683Y-112922880D01*
X149422856Y-112940421D01*
X149371518Y-112960310D01*
X149334445Y-112967240D01*
X149293090Y-112979785D01*
X149238655Y-112985146D01*
X149190218Y-112994201D01*
X149146724Y-112994201D01*
X149098000Y-112999000D01*
X149049276Y-112994201D01*
X149005782Y-112994201D01*
X148957343Y-112985146D01*
X148902910Y-112979785D01*
X148861555Y-112967240D01*
X148824481Y-112960310D01*
X148773139Y-112940419D01*
X148715317Y-112922880D01*
X148682275Y-112905218D01*
X148652498Y-112893683D01*
X148600759Y-112861647D01*
X148542430Y-112830470D01*
X148517921Y-112810356D01*
X148495688Y-112796590D01*
X148446425Y-112751681D01*
X148390893Y-112706107D01*
X148374436Y-112686054D01*
X148359388Y-112672336D01*
X148315699Y-112614482D01*
X148266530Y-112554570D01*
X148257022Y-112536783D01*
X148248237Y-112525149D01*
X148213279Y-112454945D01*
X148174120Y-112381683D01*
X148169943Y-112367916D01*
X148166027Y-112360050D01*
X148142882Y-112278706D01*
X148117215Y-112194090D01*
X148116371Y-112185530D01*
X148115553Y-112182652D01*
X148107040Y-112090788D01*
X148098000Y-111999000D01*
X148107039Y-111907219D01*
X148115553Y-111815347D01*
X148116372Y-111812468D01*
X148117215Y-111803910D01*
X148142878Y-111719308D01*
X148166027Y-111637949D01*
X148169944Y-111630081D01*
X148174120Y-111616317D01*
X148213272Y-111543068D01*
X148248237Y-111472850D01*
X148257024Y-111461213D01*
X148266530Y-111443430D01*
X148315689Y-111383528D01*
X148359388Y-111325663D01*
X148374439Y-111311941D01*
X148390893Y-111291893D01*
X148446414Y-111246327D01*
X148495688Y-111201409D01*
X148517926Y-111187639D01*
X148542430Y-111167530D01*
X148600747Y-111136358D01*
X148652498Y-111104316D01*
X148682282Y-111092777D01*
X148715317Y-111075120D01*
X148773127Y-111057583D01*
X148824481Y-111037689D01*
X148861562Y-111030757D01*
X148902910Y-111018215D01*
X148957340Y-111012853D01*
X149005782Y-111003799D01*
X149049276Y-111003799D01*
X149098000Y-110999000D01*
X149146724Y-111003799D01*
G37*
G36*
X156766724Y-111003799D02*
G01*
X156810218Y-111003799D01*
X156858658Y-111012853D01*
X156913090Y-111018215D01*
X156954438Y-111030757D01*
X156991518Y-111037689D01*
X157042868Y-111057582D01*
X157100683Y-111075120D01*
X157133720Y-111092778D01*
X157163501Y-111104316D01*
X157215245Y-111136354D01*
X157273570Y-111167530D01*
X157298076Y-111187641D01*
X157320311Y-111201409D01*
X157369575Y-111246319D01*
X157425107Y-111291893D01*
X157441563Y-111311945D01*
X157456611Y-111325663D01*
X157500297Y-111383513D01*
X157549470Y-111443430D01*
X157558977Y-111461218D01*
X157567762Y-111472850D01*
X157602713Y-111543040D01*
X157641880Y-111616317D01*
X157646056Y-111630086D01*
X157649972Y-111637949D01*
X157673105Y-111719255D01*
X157698785Y-111803910D01*
X157699628Y-111812473D01*
X157700446Y-111815347D01*
X157708943Y-111907047D01*
X157718000Y-111999000D01*
X157708942Y-112090960D01*
X157700446Y-112182652D01*
X157699628Y-112185524D01*
X157698785Y-112194090D01*
X157673100Y-112278759D01*
X157649972Y-112360050D01*
X157646057Y-112367911D01*
X157641880Y-112381683D01*
X157602705Y-112454972D01*
X157567762Y-112525149D01*
X157558979Y-112536778D01*
X157549470Y-112554570D01*
X157500288Y-112614498D01*
X157456611Y-112672336D01*
X157441566Y-112686050D01*
X157425107Y-112706107D01*
X157369564Y-112751689D01*
X157320311Y-112796590D01*
X157298081Y-112810354D01*
X157273570Y-112830470D01*
X157215233Y-112861651D01*
X157163501Y-112893683D01*
X157133727Y-112905217D01*
X157100683Y-112922880D01*
X157042856Y-112940421D01*
X156991518Y-112960310D01*
X156954445Y-112967240D01*
X156913090Y-112979785D01*
X156858655Y-112985146D01*
X156810218Y-112994201D01*
X156766724Y-112994201D01*
X156718000Y-112999000D01*
X156669276Y-112994201D01*
X156625782Y-112994201D01*
X156577343Y-112985146D01*
X156522910Y-112979785D01*
X156481555Y-112967240D01*
X156444481Y-112960310D01*
X156393139Y-112940419D01*
X156335317Y-112922880D01*
X156302275Y-112905218D01*
X156272498Y-112893683D01*
X156220759Y-112861647D01*
X156162430Y-112830470D01*
X156137921Y-112810356D01*
X156115688Y-112796590D01*
X156066425Y-112751681D01*
X156010893Y-112706107D01*
X155994436Y-112686054D01*
X155979388Y-112672336D01*
X155935699Y-112614482D01*
X155886530Y-112554570D01*
X155877022Y-112536783D01*
X155868237Y-112525149D01*
X155833279Y-112454945D01*
X155794120Y-112381683D01*
X155789943Y-112367916D01*
X155786027Y-112360050D01*
X155762882Y-112278706D01*
X155737215Y-112194090D01*
X155736371Y-112185530D01*
X155735553Y-112182652D01*
X155727040Y-112090788D01*
X155718000Y-111999000D01*
X155727039Y-111907219D01*
X155735553Y-111815347D01*
X155736372Y-111812468D01*
X155737215Y-111803910D01*
X155762878Y-111719308D01*
X155786027Y-111637949D01*
X155789944Y-111630081D01*
X155794120Y-111616317D01*
X155833272Y-111543068D01*
X155868237Y-111472850D01*
X155877024Y-111461213D01*
X155886530Y-111443430D01*
X155935689Y-111383528D01*
X155979388Y-111325663D01*
X155994439Y-111311941D01*
X156010893Y-111291893D01*
X156066414Y-111246327D01*
X156115688Y-111201409D01*
X156137926Y-111187639D01*
X156162430Y-111167530D01*
X156220747Y-111136358D01*
X156272498Y-111104316D01*
X156302282Y-111092777D01*
X156335317Y-111075120D01*
X156393127Y-111057583D01*
X156444481Y-111037689D01*
X156481562Y-111030757D01*
X156522910Y-111018215D01*
X156577340Y-111012853D01*
X156625782Y-111003799D01*
X156669276Y-111003799D01*
X156718000Y-110999000D01*
X156766724Y-111003799D01*
G37*
G36*
X159560724Y-107716799D02*
G01*
X159604218Y-107716799D01*
X159652658Y-107725853D01*
X159707090Y-107731215D01*
X159748438Y-107743757D01*
X159785518Y-107750689D01*
X159836868Y-107770582D01*
X159894683Y-107788120D01*
X159927720Y-107805778D01*
X159957501Y-107817316D01*
X160009245Y-107849354D01*
X160067570Y-107880530D01*
X160092076Y-107900641D01*
X160114311Y-107914409D01*
X160163575Y-107959319D01*
X160219107Y-108004893D01*
X160235563Y-108024945D01*
X160250611Y-108038663D01*
X160294297Y-108096513D01*
X160343470Y-108156430D01*
X160352977Y-108174218D01*
X160361762Y-108185850D01*
X160396713Y-108256040D01*
X160435880Y-108329317D01*
X160440056Y-108343086D01*
X160443972Y-108350949D01*
X160467105Y-108432255D01*
X160492785Y-108516910D01*
X160493628Y-108525473D01*
X160494446Y-108528347D01*
X160502943Y-108620047D01*
X160512000Y-108712000D01*
X160502942Y-108803960D01*
X160494446Y-108895652D01*
X160493628Y-108898524D01*
X160492785Y-108907090D01*
X160467100Y-108991759D01*
X160443972Y-109073050D01*
X160440057Y-109080911D01*
X160435880Y-109094683D01*
X160396705Y-109167972D01*
X160361762Y-109238149D01*
X160352979Y-109249778D01*
X160343470Y-109267570D01*
X160294288Y-109327498D01*
X160250611Y-109385336D01*
X160235566Y-109399050D01*
X160219107Y-109419107D01*
X160163564Y-109464689D01*
X160114311Y-109509590D01*
X160092081Y-109523354D01*
X160067570Y-109543470D01*
X160009233Y-109574651D01*
X159957501Y-109606683D01*
X159927727Y-109618217D01*
X159894683Y-109635880D01*
X159836856Y-109653421D01*
X159785518Y-109673310D01*
X159748445Y-109680240D01*
X159707090Y-109692785D01*
X159652655Y-109698146D01*
X159604218Y-109707201D01*
X159560724Y-109707201D01*
X159512000Y-109712000D01*
X159463276Y-109707201D01*
X159419782Y-109707201D01*
X159371343Y-109698146D01*
X159316910Y-109692785D01*
X159275555Y-109680240D01*
X159238481Y-109673310D01*
X159187139Y-109653419D01*
X159129317Y-109635880D01*
X159096275Y-109618218D01*
X159066498Y-109606683D01*
X159014759Y-109574647D01*
X158956430Y-109543470D01*
X158931921Y-109523356D01*
X158909688Y-109509590D01*
X158860425Y-109464681D01*
X158804893Y-109419107D01*
X158788436Y-109399054D01*
X158773388Y-109385336D01*
X158729699Y-109327482D01*
X158680530Y-109267570D01*
X158671022Y-109249783D01*
X158662237Y-109238149D01*
X158627279Y-109167945D01*
X158588120Y-109094683D01*
X158583943Y-109080916D01*
X158580027Y-109073050D01*
X158556882Y-108991706D01*
X158531215Y-108907090D01*
X158530371Y-108898530D01*
X158529553Y-108895652D01*
X158521040Y-108803788D01*
X158512000Y-108712000D01*
X158521039Y-108620219D01*
X158529553Y-108528347D01*
X158530372Y-108525468D01*
X158531215Y-108516910D01*
X158556878Y-108432308D01*
X158580027Y-108350949D01*
X158583944Y-108343081D01*
X158588120Y-108329317D01*
X158627272Y-108256068D01*
X158662237Y-108185850D01*
X158671024Y-108174213D01*
X158680530Y-108156430D01*
X158729689Y-108096528D01*
X158773388Y-108038663D01*
X158788439Y-108024941D01*
X158804893Y-108004893D01*
X158860414Y-107959327D01*
X158909688Y-107914409D01*
X158931926Y-107900639D01*
X158956430Y-107880530D01*
X159014747Y-107849358D01*
X159066498Y-107817316D01*
X159096282Y-107805777D01*
X159129317Y-107788120D01*
X159187127Y-107770583D01*
X159238481Y-107750689D01*
X159275562Y-107743757D01*
X159316910Y-107731215D01*
X159371340Y-107725853D01*
X159419782Y-107716799D01*
X159463276Y-107716799D01*
X159512000Y-107712000D01*
X159560724Y-107716799D01*
G37*
G36*
X134516043Y-105761519D02*
G01*
X134548727Y-105765822D01*
X134556948Y-105769655D01*
X134576537Y-105773552D01*
X134602480Y-105790887D01*
X134613608Y-105796076D01*
X134620378Y-105802846D01*
X134641421Y-105816907D01*
X134655481Y-105837949D01*
X134662251Y-105844719D01*
X134667438Y-105855844D01*
X134684776Y-105881791D01*
X134688672Y-105901381D01*
X134692505Y-105909600D01*
X134696806Y-105942273D01*
X134700000Y-105958328D01*
X134700000Y-109208328D01*
X134696805Y-109224386D01*
X134692505Y-109257055D01*
X134688673Y-109265272D01*
X134684776Y-109284865D01*
X134667437Y-109310813D01*
X134662251Y-109321936D01*
X134655483Y-109328703D01*
X134641421Y-109349749D01*
X134620375Y-109363811D01*
X134613608Y-109370579D01*
X134602485Y-109375765D01*
X134576537Y-109393104D01*
X134556944Y-109397001D01*
X134548727Y-109400833D01*
X134516056Y-109405134D01*
X134500000Y-109408328D01*
X123500000Y-109408328D01*
X123483943Y-109405134D01*
X123451272Y-109400833D01*
X123443053Y-109397000D01*
X123423463Y-109393104D01*
X123397516Y-109375766D01*
X123386391Y-109370579D01*
X123379621Y-109363809D01*
X123358579Y-109349749D01*
X123344518Y-109328706D01*
X123337748Y-109321936D01*
X123332559Y-109310808D01*
X123315224Y-109284865D01*
X123311327Y-109265276D01*
X123307494Y-109257055D01*
X123303190Y-109224369D01*
X123300000Y-109208328D01*
X123300000Y-105958328D01*
X123303190Y-105942286D01*
X123307494Y-105909600D01*
X123311327Y-105901377D01*
X123315224Y-105881791D01*
X123332557Y-105855849D01*
X123337748Y-105844719D01*
X123344520Y-105837946D01*
X123358579Y-105816907D01*
X123379618Y-105802848D01*
X123386391Y-105796076D01*
X123397521Y-105790885D01*
X123423463Y-105773552D01*
X123443049Y-105769655D01*
X123451272Y-105765822D01*
X123483960Y-105761518D01*
X123500000Y-105758328D01*
X134500000Y-105758328D01*
X134516043Y-105761519D01*
G37*
G36*
X147876724Y-105938799D02*
G01*
X147920218Y-105938799D01*
X147968658Y-105947853D01*
X148023090Y-105953215D01*
X148064438Y-105965757D01*
X148101518Y-105972689D01*
X148152868Y-105992582D01*
X148210683Y-106010120D01*
X148243720Y-106027778D01*
X148273501Y-106039316D01*
X148325245Y-106071354D01*
X148383570Y-106102530D01*
X148408076Y-106122641D01*
X148430311Y-106136409D01*
X148479575Y-106181319D01*
X148535107Y-106226893D01*
X148551563Y-106246945D01*
X148566611Y-106260663D01*
X148610297Y-106318513D01*
X148659470Y-106378430D01*
X148668977Y-106396218D01*
X148677762Y-106407850D01*
X148712713Y-106478040D01*
X148751880Y-106551317D01*
X148756056Y-106565086D01*
X148759972Y-106572949D01*
X148783105Y-106654255D01*
X148808785Y-106738910D01*
X148809628Y-106747473D01*
X148810446Y-106750347D01*
X148818943Y-106842047D01*
X148828000Y-106934000D01*
X148818942Y-107025960D01*
X148810446Y-107117652D01*
X148809628Y-107120524D01*
X148808785Y-107129090D01*
X148783100Y-107213759D01*
X148759972Y-107295050D01*
X148756057Y-107302911D01*
X148751880Y-107316683D01*
X148712705Y-107389972D01*
X148677762Y-107460149D01*
X148668979Y-107471778D01*
X148659470Y-107489570D01*
X148610288Y-107549498D01*
X148566611Y-107607336D01*
X148551566Y-107621050D01*
X148535107Y-107641107D01*
X148479564Y-107686689D01*
X148430311Y-107731590D01*
X148408081Y-107745354D01*
X148383570Y-107765470D01*
X148325233Y-107796651D01*
X148273501Y-107828683D01*
X148243727Y-107840217D01*
X148210683Y-107857880D01*
X148152856Y-107875421D01*
X148101518Y-107895310D01*
X148064445Y-107902240D01*
X148023090Y-107914785D01*
X147968655Y-107920146D01*
X147920218Y-107929201D01*
X147876724Y-107929201D01*
X147828000Y-107934000D01*
X147779276Y-107929201D01*
X147735782Y-107929201D01*
X147687343Y-107920146D01*
X147632910Y-107914785D01*
X147591555Y-107902240D01*
X147554481Y-107895310D01*
X147503139Y-107875419D01*
X147445317Y-107857880D01*
X147412275Y-107840218D01*
X147382498Y-107828683D01*
X147330759Y-107796647D01*
X147272430Y-107765470D01*
X147247921Y-107745356D01*
X147225688Y-107731590D01*
X147176425Y-107686681D01*
X147120893Y-107641107D01*
X147104436Y-107621054D01*
X147089388Y-107607336D01*
X147045699Y-107549482D01*
X146996530Y-107489570D01*
X146987022Y-107471783D01*
X146978237Y-107460149D01*
X146943279Y-107389945D01*
X146904120Y-107316683D01*
X146899943Y-107302916D01*
X146896027Y-107295050D01*
X146872882Y-107213706D01*
X146847215Y-107129090D01*
X146846371Y-107120530D01*
X146845553Y-107117652D01*
X146837040Y-107025788D01*
X146828000Y-106934000D01*
X146837039Y-106842219D01*
X146845553Y-106750347D01*
X146846372Y-106747468D01*
X146847215Y-106738910D01*
X146872878Y-106654308D01*
X146896027Y-106572949D01*
X146899944Y-106565081D01*
X146904120Y-106551317D01*
X146943272Y-106478068D01*
X146978237Y-106407850D01*
X146987024Y-106396213D01*
X146996530Y-106378430D01*
X147045689Y-106318528D01*
X147089388Y-106260663D01*
X147104439Y-106246941D01*
X147120893Y-106226893D01*
X147176414Y-106181327D01*
X147225688Y-106136409D01*
X147247926Y-106122639D01*
X147272430Y-106102530D01*
X147330747Y-106071358D01*
X147382498Y-106039316D01*
X147412282Y-106027777D01*
X147445317Y-106010120D01*
X147503127Y-105992583D01*
X147554481Y-105972689D01*
X147591562Y-105965757D01*
X147632910Y-105953215D01*
X147687340Y-105947853D01*
X147735782Y-105938799D01*
X147779276Y-105938799D01*
X147828000Y-105934000D01*
X147876724Y-105938799D01*
G37*
G36*
X137341043Y-105683191D02*
G01*
X137373727Y-105687494D01*
X137381948Y-105691327D01*
X137401537Y-105695224D01*
X137427480Y-105712559D01*
X137438608Y-105717748D01*
X137445378Y-105724518D01*
X137466421Y-105738579D01*
X137480481Y-105759621D01*
X137487251Y-105766391D01*
X137492438Y-105777516D01*
X137509776Y-105803463D01*
X137513672Y-105823053D01*
X137517505Y-105831272D01*
X137521806Y-105863945D01*
X137525000Y-105880000D01*
X137525000Y-107480000D01*
X137521805Y-107496058D01*
X137517505Y-107528727D01*
X137513673Y-107536944D01*
X137509776Y-107556537D01*
X137492437Y-107582485D01*
X137487251Y-107593608D01*
X137480483Y-107600375D01*
X137466421Y-107621421D01*
X137445375Y-107635483D01*
X137438608Y-107642251D01*
X137427485Y-107647437D01*
X137401537Y-107664776D01*
X137381944Y-107668673D01*
X137373727Y-107672505D01*
X137341056Y-107676806D01*
X137325000Y-107680000D01*
X135725000Y-107680000D01*
X135708943Y-107676806D01*
X135676272Y-107672505D01*
X135668053Y-107668672D01*
X135648463Y-107664776D01*
X135622516Y-107647438D01*
X135611391Y-107642251D01*
X135604621Y-107635481D01*
X135583579Y-107621421D01*
X135569518Y-107600378D01*
X135562748Y-107593608D01*
X135557559Y-107582480D01*
X135540224Y-107556537D01*
X135536327Y-107536948D01*
X135532494Y-107528727D01*
X135528190Y-107496041D01*
X135525000Y-107480000D01*
X135525000Y-105880000D01*
X135528190Y-105863958D01*
X135532494Y-105831272D01*
X135536327Y-105823049D01*
X135540224Y-105803463D01*
X135557557Y-105777521D01*
X135562748Y-105766391D01*
X135569520Y-105759618D01*
X135583579Y-105738579D01*
X135604618Y-105724520D01*
X135611391Y-105717748D01*
X135622521Y-105712557D01*
X135648463Y-105695224D01*
X135668049Y-105691327D01*
X135676272Y-105687494D01*
X135708960Y-105683190D01*
X135725000Y-105680000D01*
X137325000Y-105680000D01*
X137341043Y-105683191D01*
G37*
G36*
X144193724Y-105684799D02*
G01*
X144237218Y-105684799D01*
X144285658Y-105693853D01*
X144340090Y-105699215D01*
X144381438Y-105711757D01*
X144418518Y-105718689D01*
X144469868Y-105738582D01*
X144527683Y-105756120D01*
X144560720Y-105773778D01*
X144590501Y-105785316D01*
X144642245Y-105817354D01*
X144700570Y-105848530D01*
X144725076Y-105868641D01*
X144747311Y-105882409D01*
X144796575Y-105927319D01*
X144852107Y-105972893D01*
X144868563Y-105992945D01*
X144883611Y-106006663D01*
X144927297Y-106064513D01*
X144976470Y-106124430D01*
X144985977Y-106142218D01*
X144994762Y-106153850D01*
X145029713Y-106224040D01*
X145068880Y-106297317D01*
X145073056Y-106311086D01*
X145076972Y-106318949D01*
X145100105Y-106400255D01*
X145125785Y-106484910D01*
X145126628Y-106493473D01*
X145127446Y-106496347D01*
X145135943Y-106588047D01*
X145145000Y-106680000D01*
X145135942Y-106771960D01*
X145127446Y-106863652D01*
X145126628Y-106866524D01*
X145125785Y-106875090D01*
X145100100Y-106959759D01*
X145076972Y-107041050D01*
X145073057Y-107048911D01*
X145068880Y-107062683D01*
X145029705Y-107135972D01*
X144994762Y-107206149D01*
X144985979Y-107217778D01*
X144976470Y-107235570D01*
X144927288Y-107295498D01*
X144883611Y-107353336D01*
X144868566Y-107367050D01*
X144852107Y-107387107D01*
X144796564Y-107432689D01*
X144747311Y-107477590D01*
X144725081Y-107491354D01*
X144700570Y-107511470D01*
X144642233Y-107542651D01*
X144590501Y-107574683D01*
X144560727Y-107586217D01*
X144527683Y-107603880D01*
X144469856Y-107621421D01*
X144418518Y-107641310D01*
X144381445Y-107648240D01*
X144340090Y-107660785D01*
X144285655Y-107666146D01*
X144237218Y-107675201D01*
X144193724Y-107675201D01*
X144145000Y-107680000D01*
X144096276Y-107675201D01*
X144052782Y-107675201D01*
X144004343Y-107666146D01*
X143949910Y-107660785D01*
X143908555Y-107648240D01*
X143871481Y-107641310D01*
X143820139Y-107621419D01*
X143762317Y-107603880D01*
X143729275Y-107586218D01*
X143699498Y-107574683D01*
X143647759Y-107542647D01*
X143589430Y-107511470D01*
X143564921Y-107491356D01*
X143542688Y-107477590D01*
X143493425Y-107432681D01*
X143437893Y-107387107D01*
X143421436Y-107367054D01*
X143406388Y-107353336D01*
X143362699Y-107295482D01*
X143313530Y-107235570D01*
X143304022Y-107217783D01*
X143295237Y-107206149D01*
X143260279Y-107135945D01*
X143221120Y-107062683D01*
X143216943Y-107048916D01*
X143213027Y-107041050D01*
X143189882Y-106959706D01*
X143164215Y-106875090D01*
X143163371Y-106866530D01*
X143162553Y-106863652D01*
X143154040Y-106771788D01*
X143145000Y-106680000D01*
X143154039Y-106588219D01*
X143162553Y-106496347D01*
X143163372Y-106493468D01*
X143164215Y-106484910D01*
X143189878Y-106400308D01*
X143213027Y-106318949D01*
X143216944Y-106311081D01*
X143221120Y-106297317D01*
X143260272Y-106224068D01*
X143295237Y-106153850D01*
X143304024Y-106142213D01*
X143313530Y-106124430D01*
X143362689Y-106064528D01*
X143406388Y-106006663D01*
X143421439Y-105992941D01*
X143437893Y-105972893D01*
X143493414Y-105927327D01*
X143542688Y-105882409D01*
X143564926Y-105868639D01*
X143589430Y-105848530D01*
X143647747Y-105817358D01*
X143699498Y-105785316D01*
X143729282Y-105773777D01*
X143762317Y-105756120D01*
X143820127Y-105738583D01*
X143871481Y-105718689D01*
X143908562Y-105711757D01*
X143949910Y-105699215D01*
X144004340Y-105693853D01*
X144052782Y-105684799D01*
X144096276Y-105684799D01*
X144145000Y-105680000D01*
X144193724Y-105684799D01*
G37*
G36*
X165656724Y-104414799D02*
G01*
X165700218Y-104414799D01*
X165748658Y-104423853D01*
X165803090Y-104429215D01*
X165844438Y-104441757D01*
X165881518Y-104448689D01*
X165932868Y-104468582D01*
X165990683Y-104486120D01*
X166023720Y-104503778D01*
X166053501Y-104515316D01*
X166105245Y-104547354D01*
X166163570Y-104578530D01*
X166188076Y-104598641D01*
X166210311Y-104612409D01*
X166259575Y-104657319D01*
X166315107Y-104702893D01*
X166331563Y-104722945D01*
X166346611Y-104736663D01*
X166390297Y-104794513D01*
X166439470Y-104854430D01*
X166448977Y-104872218D01*
X166457762Y-104883850D01*
X166492713Y-104954040D01*
X166531880Y-105027317D01*
X166536056Y-105041086D01*
X166539972Y-105048949D01*
X166563105Y-105130255D01*
X166588785Y-105214910D01*
X166589628Y-105223473D01*
X166590446Y-105226347D01*
X166598943Y-105318047D01*
X166608000Y-105410000D01*
X166598942Y-105501960D01*
X166590446Y-105593652D01*
X166589628Y-105596524D01*
X166588785Y-105605090D01*
X166563100Y-105689759D01*
X166539972Y-105771050D01*
X166536057Y-105778911D01*
X166531880Y-105792683D01*
X166492705Y-105865972D01*
X166457762Y-105936149D01*
X166448979Y-105947778D01*
X166439470Y-105965570D01*
X166390288Y-106025498D01*
X166346611Y-106083336D01*
X166331566Y-106097050D01*
X166315107Y-106117107D01*
X166259564Y-106162689D01*
X166210311Y-106207590D01*
X166188081Y-106221354D01*
X166163570Y-106241470D01*
X166105233Y-106272651D01*
X166053501Y-106304683D01*
X166023727Y-106316217D01*
X165990683Y-106333880D01*
X165932856Y-106351421D01*
X165881518Y-106371310D01*
X165844445Y-106378240D01*
X165803090Y-106390785D01*
X165748655Y-106396146D01*
X165700218Y-106405201D01*
X165656724Y-106405201D01*
X165608000Y-106410000D01*
X165559276Y-106405201D01*
X165515782Y-106405201D01*
X165467343Y-106396146D01*
X165412910Y-106390785D01*
X165371555Y-106378240D01*
X165334481Y-106371310D01*
X165283139Y-106351419D01*
X165225317Y-106333880D01*
X165192275Y-106316218D01*
X165162498Y-106304683D01*
X165110759Y-106272647D01*
X165052430Y-106241470D01*
X165027921Y-106221356D01*
X165005688Y-106207590D01*
X164956425Y-106162681D01*
X164900893Y-106117107D01*
X164884436Y-106097054D01*
X164869388Y-106083336D01*
X164825699Y-106025482D01*
X164776530Y-105965570D01*
X164767022Y-105947783D01*
X164758237Y-105936149D01*
X164723279Y-105865945D01*
X164684120Y-105792683D01*
X164679943Y-105778916D01*
X164676027Y-105771050D01*
X164652882Y-105689706D01*
X164627215Y-105605090D01*
X164626371Y-105596530D01*
X164625553Y-105593652D01*
X164617040Y-105501788D01*
X164608000Y-105410000D01*
X164617039Y-105318219D01*
X164625553Y-105226347D01*
X164626372Y-105223468D01*
X164627215Y-105214910D01*
X164652878Y-105130308D01*
X164676027Y-105048949D01*
X164679944Y-105041081D01*
X164684120Y-105027317D01*
X164723272Y-104954068D01*
X164758237Y-104883850D01*
X164767024Y-104872213D01*
X164776530Y-104854430D01*
X164825689Y-104794528D01*
X164869388Y-104736663D01*
X164884439Y-104722941D01*
X164900893Y-104702893D01*
X164956414Y-104657327D01*
X165005688Y-104612409D01*
X165027926Y-104598639D01*
X165052430Y-104578530D01*
X165110747Y-104547358D01*
X165162498Y-104515316D01*
X165192282Y-104503777D01*
X165225317Y-104486120D01*
X165283127Y-104468583D01*
X165334481Y-104448689D01*
X165371562Y-104441757D01*
X165412910Y-104429215D01*
X165467340Y-104423853D01*
X165515782Y-104414799D01*
X165559276Y-104414799D01*
X165608000Y-104410000D01*
X165656724Y-104414799D01*
G37*
G36*
X147876724Y-103438799D02*
G01*
X147920218Y-103438799D01*
X147968658Y-103447853D01*
X148023090Y-103453215D01*
X148064438Y-103465757D01*
X148101518Y-103472689D01*
X148152868Y-103492582D01*
X148210683Y-103510120D01*
X148243720Y-103527778D01*
X148273501Y-103539316D01*
X148325245Y-103571354D01*
X148383570Y-103602530D01*
X148408076Y-103622641D01*
X148430311Y-103636409D01*
X148479575Y-103681319D01*
X148535107Y-103726893D01*
X148551563Y-103746945D01*
X148566611Y-103760663D01*
X148610297Y-103818513D01*
X148659470Y-103878430D01*
X148668977Y-103896218D01*
X148677762Y-103907850D01*
X148712713Y-103978040D01*
X148751880Y-104051317D01*
X148756056Y-104065086D01*
X148759972Y-104072949D01*
X148783105Y-104154255D01*
X148808785Y-104238910D01*
X148809628Y-104247473D01*
X148810446Y-104250347D01*
X148818943Y-104342047D01*
X148828000Y-104434000D01*
X148818942Y-104525960D01*
X148810446Y-104617652D01*
X148809628Y-104620524D01*
X148808785Y-104629090D01*
X148783100Y-104713759D01*
X148759972Y-104795050D01*
X148756057Y-104802911D01*
X148751880Y-104816683D01*
X148712705Y-104889972D01*
X148677762Y-104960149D01*
X148668979Y-104971778D01*
X148659470Y-104989570D01*
X148610288Y-105049498D01*
X148566611Y-105107336D01*
X148551566Y-105121050D01*
X148535107Y-105141107D01*
X148479564Y-105186689D01*
X148430311Y-105231590D01*
X148408081Y-105245354D01*
X148383570Y-105265470D01*
X148325233Y-105296651D01*
X148273501Y-105328683D01*
X148243727Y-105340217D01*
X148210683Y-105357880D01*
X148152856Y-105375421D01*
X148101518Y-105395310D01*
X148064445Y-105402240D01*
X148023090Y-105414785D01*
X147968655Y-105420146D01*
X147920218Y-105429201D01*
X147876724Y-105429201D01*
X147828000Y-105434000D01*
X147779276Y-105429201D01*
X147735782Y-105429201D01*
X147687343Y-105420146D01*
X147632910Y-105414785D01*
X147591555Y-105402240D01*
X147554481Y-105395310D01*
X147503139Y-105375419D01*
X147445317Y-105357880D01*
X147412275Y-105340218D01*
X147382498Y-105328683D01*
X147330759Y-105296647D01*
X147272430Y-105265470D01*
X147247921Y-105245356D01*
X147225688Y-105231590D01*
X147176425Y-105186681D01*
X147120893Y-105141107D01*
X147104436Y-105121054D01*
X147089388Y-105107336D01*
X147045699Y-105049482D01*
X146996530Y-104989570D01*
X146987022Y-104971783D01*
X146978237Y-104960149D01*
X146943279Y-104889945D01*
X146904120Y-104816683D01*
X146899943Y-104802916D01*
X146896027Y-104795050D01*
X146872882Y-104713706D01*
X146847215Y-104629090D01*
X146846371Y-104620530D01*
X146845553Y-104617652D01*
X146837040Y-104525788D01*
X146828000Y-104434000D01*
X146837039Y-104342219D01*
X146845553Y-104250347D01*
X146846372Y-104247468D01*
X146847215Y-104238910D01*
X146872878Y-104154308D01*
X146896027Y-104072949D01*
X146899944Y-104065081D01*
X146904120Y-104051317D01*
X146943272Y-103978068D01*
X146978237Y-103907850D01*
X146987024Y-103896213D01*
X146996530Y-103878430D01*
X147045689Y-103818528D01*
X147089388Y-103760663D01*
X147104439Y-103746941D01*
X147120893Y-103726893D01*
X147176414Y-103681327D01*
X147225688Y-103636409D01*
X147247926Y-103622639D01*
X147272430Y-103602530D01*
X147330747Y-103571358D01*
X147382498Y-103539316D01*
X147412282Y-103527777D01*
X147445317Y-103510120D01*
X147503127Y-103492583D01*
X147554481Y-103472689D01*
X147591562Y-103465757D01*
X147632910Y-103453215D01*
X147687340Y-103447853D01*
X147735782Y-103438799D01*
X147779276Y-103438799D01*
X147828000Y-103434000D01*
X147876724Y-103438799D01*
G37*
G36*
X134516043Y-101372631D02*
G01*
X134548727Y-101376934D01*
X134556948Y-101380767D01*
X134576537Y-101384664D01*
X134602480Y-101401999D01*
X134613608Y-101407188D01*
X134620378Y-101413958D01*
X134641421Y-101428019D01*
X134655481Y-101449061D01*
X134662251Y-101455831D01*
X134667438Y-101466956D01*
X134684776Y-101492903D01*
X134688672Y-101512493D01*
X134692505Y-101520712D01*
X134696806Y-101553385D01*
X134700000Y-101569440D01*
X134700000Y-104819440D01*
X134696805Y-104835498D01*
X134692505Y-104868167D01*
X134688673Y-104876384D01*
X134684776Y-104895977D01*
X134667437Y-104921925D01*
X134662251Y-104933048D01*
X134655483Y-104939815D01*
X134641421Y-104960861D01*
X134620375Y-104974923D01*
X134613608Y-104981691D01*
X134602485Y-104986877D01*
X134576537Y-105004216D01*
X134556944Y-105008113D01*
X134548727Y-105011945D01*
X134516056Y-105016246D01*
X134500000Y-105019440D01*
X123500000Y-105019440D01*
X123483943Y-105016246D01*
X123451272Y-105011945D01*
X123443053Y-105008112D01*
X123423463Y-105004216D01*
X123397516Y-104986878D01*
X123386391Y-104981691D01*
X123379621Y-104974921D01*
X123358579Y-104960861D01*
X123344518Y-104939818D01*
X123337748Y-104933048D01*
X123332559Y-104921920D01*
X123315224Y-104895977D01*
X123311327Y-104876388D01*
X123307494Y-104868167D01*
X123303190Y-104835481D01*
X123300000Y-104819440D01*
X123300000Y-101569440D01*
X123303190Y-101553398D01*
X123307494Y-101520712D01*
X123311327Y-101512489D01*
X123315224Y-101492903D01*
X123332557Y-101466961D01*
X123337748Y-101455831D01*
X123344520Y-101449058D01*
X123358579Y-101428019D01*
X123379618Y-101413960D01*
X123386391Y-101407188D01*
X123397521Y-101401997D01*
X123423463Y-101384664D01*
X123443049Y-101380767D01*
X123451272Y-101376934D01*
X123483960Y-101372630D01*
X123500000Y-101369440D01*
X134500000Y-101369440D01*
X134516043Y-101372631D01*
G37*
G36*
X136573724Y-102128799D02*
G01*
X136617218Y-102128799D01*
X136665658Y-102137853D01*
X136720090Y-102143215D01*
X136761438Y-102155757D01*
X136798518Y-102162689D01*
X136849868Y-102182582D01*
X136907683Y-102200120D01*
X136940720Y-102217778D01*
X136970501Y-102229316D01*
X137022245Y-102261354D01*
X137080570Y-102292530D01*
X137105076Y-102312641D01*
X137127311Y-102326409D01*
X137176575Y-102371319D01*
X137232107Y-102416893D01*
X137248563Y-102436945D01*
X137263611Y-102450663D01*
X137307297Y-102508513D01*
X137356470Y-102568430D01*
X137365977Y-102586218D01*
X137374762Y-102597850D01*
X137409713Y-102668040D01*
X137448880Y-102741317D01*
X137453056Y-102755086D01*
X137456972Y-102762949D01*
X137480105Y-102844255D01*
X137505785Y-102928910D01*
X137506628Y-102937473D01*
X137507446Y-102940347D01*
X137515943Y-103032047D01*
X137525000Y-103124000D01*
X137515942Y-103215960D01*
X137507446Y-103307652D01*
X137506628Y-103310524D01*
X137505785Y-103319090D01*
X137480100Y-103403759D01*
X137456972Y-103485050D01*
X137453057Y-103492911D01*
X137448880Y-103506683D01*
X137409705Y-103579972D01*
X137374762Y-103650149D01*
X137365979Y-103661778D01*
X137356470Y-103679570D01*
X137307288Y-103739498D01*
X137263611Y-103797336D01*
X137248566Y-103811050D01*
X137232107Y-103831107D01*
X137176564Y-103876689D01*
X137127311Y-103921590D01*
X137105081Y-103935354D01*
X137080570Y-103955470D01*
X137022233Y-103986651D01*
X136970501Y-104018683D01*
X136940727Y-104030217D01*
X136907683Y-104047880D01*
X136849856Y-104065421D01*
X136798518Y-104085310D01*
X136761445Y-104092240D01*
X136720090Y-104104785D01*
X136665655Y-104110146D01*
X136617218Y-104119201D01*
X136573724Y-104119201D01*
X136525000Y-104124000D01*
X136476276Y-104119201D01*
X136432782Y-104119201D01*
X136384343Y-104110146D01*
X136329910Y-104104785D01*
X136288555Y-104092240D01*
X136251481Y-104085310D01*
X136200139Y-104065419D01*
X136142317Y-104047880D01*
X136109275Y-104030218D01*
X136079498Y-104018683D01*
X136027759Y-103986647D01*
X135969430Y-103955470D01*
X135944921Y-103935356D01*
X135922688Y-103921590D01*
X135873425Y-103876681D01*
X135817893Y-103831107D01*
X135801436Y-103811054D01*
X135786388Y-103797336D01*
X135742699Y-103739482D01*
X135693530Y-103679570D01*
X135684022Y-103661783D01*
X135675237Y-103650149D01*
X135640279Y-103579945D01*
X135601120Y-103506683D01*
X135596943Y-103492916D01*
X135593027Y-103485050D01*
X135569882Y-103403706D01*
X135544215Y-103319090D01*
X135543371Y-103310530D01*
X135542553Y-103307652D01*
X135534040Y-103215788D01*
X135525000Y-103124000D01*
X135534039Y-103032219D01*
X135542553Y-102940347D01*
X135543372Y-102937468D01*
X135544215Y-102928910D01*
X135569878Y-102844308D01*
X135593027Y-102762949D01*
X135596944Y-102755081D01*
X135601120Y-102741317D01*
X135640272Y-102668068D01*
X135675237Y-102597850D01*
X135684024Y-102586213D01*
X135693530Y-102568430D01*
X135742689Y-102508528D01*
X135786388Y-102450663D01*
X135801439Y-102436941D01*
X135817893Y-102416893D01*
X135873414Y-102371327D01*
X135922688Y-102326409D01*
X135944926Y-102312639D01*
X135969430Y-102292530D01*
X136027747Y-102261358D01*
X136079498Y-102229316D01*
X136109282Y-102217777D01*
X136142317Y-102200120D01*
X136200127Y-102182583D01*
X136251481Y-102162689D01*
X136288562Y-102155757D01*
X136329910Y-102143215D01*
X136384340Y-102137853D01*
X136432782Y-102128799D01*
X136476276Y-102128799D01*
X136525000Y-102124000D01*
X136573724Y-102128799D01*
G37*
G36*
X144961043Y-102127191D02*
G01*
X144993727Y-102131494D01*
X145001948Y-102135327D01*
X145021537Y-102139224D01*
X145047480Y-102156559D01*
X145058608Y-102161748D01*
X145065378Y-102168518D01*
X145086421Y-102182579D01*
X145100481Y-102203621D01*
X145107251Y-102210391D01*
X145112438Y-102221516D01*
X145129776Y-102247463D01*
X145133672Y-102267053D01*
X145137505Y-102275272D01*
X145141806Y-102307945D01*
X145145000Y-102324000D01*
X145145000Y-103924000D01*
X145141805Y-103940058D01*
X145137505Y-103972727D01*
X145133673Y-103980944D01*
X145129776Y-104000537D01*
X145112437Y-104026485D01*
X145107251Y-104037608D01*
X145100483Y-104044375D01*
X145086421Y-104065421D01*
X145065375Y-104079483D01*
X145058608Y-104086251D01*
X145047485Y-104091437D01*
X145021537Y-104108776D01*
X145001944Y-104112673D01*
X144993727Y-104116505D01*
X144961056Y-104120806D01*
X144945000Y-104124000D01*
X143345000Y-104124000D01*
X143328943Y-104120806D01*
X143296272Y-104116505D01*
X143288053Y-104112672D01*
X143268463Y-104108776D01*
X143242516Y-104091438D01*
X143231391Y-104086251D01*
X143224621Y-104079481D01*
X143203579Y-104065421D01*
X143189518Y-104044378D01*
X143182748Y-104037608D01*
X143177559Y-104026480D01*
X143160224Y-104000537D01*
X143156327Y-103980948D01*
X143152494Y-103972727D01*
X143148190Y-103940041D01*
X143145000Y-103924000D01*
X143145000Y-102324000D01*
X143148190Y-102307958D01*
X143152494Y-102275272D01*
X143156327Y-102267049D01*
X143160224Y-102247463D01*
X143177557Y-102221521D01*
X143182748Y-102210391D01*
X143189520Y-102203618D01*
X143203579Y-102182579D01*
X143224618Y-102168520D01*
X143231391Y-102161748D01*
X143242521Y-102156557D01*
X143268463Y-102139224D01*
X143288049Y-102135327D01*
X143296272Y-102131494D01*
X143328960Y-102127190D01*
X143345000Y-102124000D01*
X144945000Y-102124000D01*
X144961043Y-102127191D01*
G37*
G36*
X159560724Y-100096799D02*
G01*
X159604218Y-100096799D01*
X159652658Y-100105853D01*
X159707090Y-100111215D01*
X159748438Y-100123757D01*
X159785518Y-100130689D01*
X159836868Y-100150582D01*
X159894683Y-100168120D01*
X159927720Y-100185778D01*
X159957501Y-100197316D01*
X160009245Y-100229354D01*
X160067570Y-100260530D01*
X160092076Y-100280641D01*
X160114311Y-100294409D01*
X160163575Y-100339319D01*
X160219107Y-100384893D01*
X160235563Y-100404945D01*
X160250611Y-100418663D01*
X160294297Y-100476513D01*
X160343470Y-100536430D01*
X160352977Y-100554218D01*
X160361762Y-100565850D01*
X160396713Y-100636040D01*
X160435880Y-100709317D01*
X160440056Y-100723086D01*
X160443972Y-100730949D01*
X160467105Y-100812255D01*
X160492785Y-100896910D01*
X160493628Y-100905473D01*
X160494446Y-100908347D01*
X160502943Y-101000047D01*
X160512000Y-101092000D01*
X160502942Y-101183960D01*
X160494446Y-101275652D01*
X160493628Y-101278524D01*
X160492785Y-101287090D01*
X160467100Y-101371759D01*
X160443972Y-101453050D01*
X160440057Y-101460911D01*
X160435880Y-101474683D01*
X160396705Y-101547972D01*
X160361762Y-101618149D01*
X160352979Y-101629778D01*
X160343470Y-101647570D01*
X160294288Y-101707498D01*
X160250611Y-101765336D01*
X160235566Y-101779050D01*
X160219107Y-101799107D01*
X160163564Y-101844689D01*
X160114311Y-101889590D01*
X160092081Y-101903354D01*
X160067570Y-101923470D01*
X160009233Y-101954651D01*
X159957501Y-101986683D01*
X159927727Y-101998217D01*
X159894683Y-102015880D01*
X159836856Y-102033421D01*
X159785518Y-102053310D01*
X159748445Y-102060240D01*
X159707090Y-102072785D01*
X159652655Y-102078146D01*
X159604218Y-102087201D01*
X159560724Y-102087201D01*
X159512000Y-102092000D01*
X159463276Y-102087201D01*
X159419782Y-102087201D01*
X159371343Y-102078146D01*
X159316910Y-102072785D01*
X159275555Y-102060240D01*
X159238481Y-102053310D01*
X159187139Y-102033419D01*
X159129317Y-102015880D01*
X159096275Y-101998218D01*
X159066498Y-101986683D01*
X159014759Y-101954647D01*
X158956430Y-101923470D01*
X158931921Y-101903356D01*
X158909688Y-101889590D01*
X158860425Y-101844681D01*
X158804893Y-101799107D01*
X158788436Y-101779054D01*
X158773388Y-101765336D01*
X158729699Y-101707482D01*
X158680530Y-101647570D01*
X158671022Y-101629783D01*
X158662237Y-101618149D01*
X158627279Y-101547945D01*
X158588120Y-101474683D01*
X158583943Y-101460916D01*
X158580027Y-101453050D01*
X158556882Y-101371706D01*
X158531215Y-101287090D01*
X158530371Y-101278530D01*
X158529553Y-101275652D01*
X158521040Y-101183788D01*
X158512000Y-101092000D01*
X158521039Y-101000219D01*
X158529553Y-100908347D01*
X158530372Y-100905468D01*
X158531215Y-100896910D01*
X158556878Y-100812308D01*
X158580027Y-100730949D01*
X158583944Y-100723081D01*
X158588120Y-100709317D01*
X158627272Y-100636068D01*
X158662237Y-100565850D01*
X158671024Y-100554213D01*
X158680530Y-100536430D01*
X158729689Y-100476528D01*
X158773388Y-100418663D01*
X158788439Y-100404941D01*
X158804893Y-100384893D01*
X158860414Y-100339327D01*
X158909688Y-100294409D01*
X158931926Y-100280639D01*
X158956430Y-100260530D01*
X159014747Y-100229358D01*
X159066498Y-100197316D01*
X159096282Y-100185777D01*
X159129317Y-100168120D01*
X159187127Y-100150583D01*
X159238481Y-100130689D01*
X159275562Y-100123757D01*
X159316910Y-100111215D01*
X159371340Y-100105853D01*
X159419782Y-100096799D01*
X159463276Y-100096799D01*
X159512000Y-100092000D01*
X159560724Y-100096799D01*
G37*
G36*
X134516043Y-96983743D02*
G01*
X134548727Y-96988046D01*
X134556948Y-96991879D01*
X134576537Y-96995776D01*
X134602480Y-97013111D01*
X134613608Y-97018300D01*
X134620378Y-97025070D01*
X134641421Y-97039131D01*
X134655481Y-97060173D01*
X134662251Y-97066943D01*
X134667438Y-97078068D01*
X134684776Y-97104015D01*
X134688672Y-97123605D01*
X134692505Y-97131824D01*
X134696806Y-97164497D01*
X134700000Y-97180552D01*
X134700000Y-100430552D01*
X134696805Y-100446610D01*
X134692505Y-100479279D01*
X134688673Y-100487496D01*
X134684776Y-100507089D01*
X134667437Y-100533037D01*
X134662251Y-100544160D01*
X134655483Y-100550927D01*
X134641421Y-100571973D01*
X134620375Y-100586035D01*
X134613608Y-100592803D01*
X134602485Y-100597989D01*
X134576537Y-100615328D01*
X134556944Y-100619225D01*
X134548727Y-100623057D01*
X134516056Y-100627358D01*
X134500000Y-100630552D01*
X123500000Y-100630552D01*
X123483943Y-100627358D01*
X123451272Y-100623057D01*
X123443053Y-100619224D01*
X123423463Y-100615328D01*
X123397516Y-100597990D01*
X123386391Y-100592803D01*
X123379621Y-100586033D01*
X123358579Y-100571973D01*
X123344518Y-100550930D01*
X123337748Y-100544160D01*
X123332559Y-100533032D01*
X123315224Y-100507089D01*
X123311327Y-100487500D01*
X123307494Y-100479279D01*
X123303190Y-100446593D01*
X123300000Y-100430552D01*
X123300000Y-97180552D01*
X123303190Y-97164510D01*
X123307494Y-97131824D01*
X123311327Y-97123601D01*
X123315224Y-97104015D01*
X123332557Y-97078073D01*
X123337748Y-97066943D01*
X123344520Y-97060170D01*
X123358579Y-97039131D01*
X123379618Y-97025072D01*
X123386391Y-97018300D01*
X123397521Y-97013109D01*
X123423463Y-96995776D01*
X123443049Y-96991879D01*
X123451272Y-96988046D01*
X123483960Y-96983742D01*
X123500000Y-96980552D01*
X134500000Y-96980552D01*
X134516043Y-96983743D01*
G37*
G36*
X136573724Y-97429799D02*
G01*
X136617218Y-97429799D01*
X136665658Y-97438853D01*
X136720090Y-97444215D01*
X136761438Y-97456757D01*
X136798518Y-97463689D01*
X136849868Y-97483582D01*
X136907683Y-97501120D01*
X136940720Y-97518778D01*
X136970501Y-97530316D01*
X137022245Y-97562354D01*
X137080570Y-97593530D01*
X137105076Y-97613641D01*
X137127311Y-97627409D01*
X137176575Y-97672319D01*
X137232107Y-97717893D01*
X137248563Y-97737945D01*
X137263611Y-97751663D01*
X137307297Y-97809513D01*
X137356470Y-97869430D01*
X137365977Y-97887218D01*
X137374762Y-97898850D01*
X137409713Y-97969040D01*
X137448880Y-98042317D01*
X137453056Y-98056086D01*
X137456972Y-98063949D01*
X137480105Y-98145255D01*
X137505785Y-98229910D01*
X137506628Y-98238473D01*
X137507446Y-98241347D01*
X137515943Y-98333047D01*
X137525000Y-98425000D01*
X137515942Y-98516960D01*
X137507446Y-98608652D01*
X137506628Y-98611524D01*
X137505785Y-98620090D01*
X137480100Y-98704759D01*
X137456972Y-98786050D01*
X137453057Y-98793911D01*
X137448880Y-98807683D01*
X137409705Y-98880972D01*
X137374762Y-98951149D01*
X137365979Y-98962778D01*
X137356470Y-98980570D01*
X137307288Y-99040498D01*
X137263611Y-99098336D01*
X137248566Y-99112050D01*
X137232107Y-99132107D01*
X137176564Y-99177689D01*
X137127311Y-99222590D01*
X137105081Y-99236354D01*
X137080570Y-99256470D01*
X137022233Y-99287651D01*
X136970501Y-99319683D01*
X136940727Y-99331217D01*
X136907683Y-99348880D01*
X136849856Y-99366421D01*
X136798518Y-99386310D01*
X136761445Y-99393240D01*
X136720090Y-99405785D01*
X136665655Y-99411146D01*
X136617218Y-99420201D01*
X136573724Y-99420201D01*
X136525000Y-99425000D01*
X136476276Y-99420201D01*
X136432782Y-99420201D01*
X136384343Y-99411146D01*
X136329910Y-99405785D01*
X136288555Y-99393240D01*
X136251481Y-99386310D01*
X136200139Y-99366419D01*
X136142317Y-99348880D01*
X136109275Y-99331218D01*
X136079498Y-99319683D01*
X136027759Y-99287647D01*
X135969430Y-99256470D01*
X135944921Y-99236356D01*
X135922688Y-99222590D01*
X135873425Y-99177681D01*
X135817893Y-99132107D01*
X135801436Y-99112054D01*
X135786388Y-99098336D01*
X135742699Y-99040482D01*
X135693530Y-98980570D01*
X135684022Y-98962783D01*
X135675237Y-98951149D01*
X135640279Y-98880945D01*
X135601120Y-98807683D01*
X135596943Y-98793916D01*
X135593027Y-98786050D01*
X135569882Y-98704706D01*
X135544215Y-98620090D01*
X135543371Y-98611530D01*
X135542553Y-98608652D01*
X135534040Y-98516788D01*
X135525000Y-98425000D01*
X135534039Y-98333219D01*
X135542553Y-98241347D01*
X135543372Y-98238468D01*
X135544215Y-98229910D01*
X135569878Y-98145308D01*
X135593027Y-98063949D01*
X135596944Y-98056081D01*
X135601120Y-98042317D01*
X135640272Y-97969068D01*
X135675237Y-97898850D01*
X135684024Y-97887213D01*
X135693530Y-97869430D01*
X135742689Y-97809528D01*
X135786388Y-97751663D01*
X135801439Y-97737941D01*
X135817893Y-97717893D01*
X135873414Y-97672327D01*
X135922688Y-97627409D01*
X135944926Y-97613639D01*
X135969430Y-97593530D01*
X136027747Y-97562358D01*
X136079498Y-97530316D01*
X136109282Y-97518777D01*
X136142317Y-97501120D01*
X136200127Y-97483583D01*
X136251481Y-97463689D01*
X136288562Y-97456757D01*
X136329910Y-97444215D01*
X136384340Y-97438853D01*
X136432782Y-97429799D01*
X136476276Y-97429799D01*
X136525000Y-97425000D01*
X136573724Y-97429799D01*
G37*
G36*
X144961043Y-97428191D02*
G01*
X144993727Y-97432494D01*
X145001948Y-97436327D01*
X145021537Y-97440224D01*
X145047480Y-97457559D01*
X145058608Y-97462748D01*
X145065378Y-97469518D01*
X145086421Y-97483579D01*
X145100481Y-97504621D01*
X145107251Y-97511391D01*
X145112438Y-97522516D01*
X145129776Y-97548463D01*
X145133672Y-97568053D01*
X145137505Y-97576272D01*
X145141806Y-97608945D01*
X145145000Y-97625000D01*
X145145000Y-99225000D01*
X145141805Y-99241058D01*
X145137505Y-99273727D01*
X145133673Y-99281944D01*
X145129776Y-99301537D01*
X145112437Y-99327485D01*
X145107251Y-99338608D01*
X145100483Y-99345375D01*
X145086421Y-99366421D01*
X145065375Y-99380483D01*
X145058608Y-99387251D01*
X145047485Y-99392437D01*
X145021537Y-99409776D01*
X145001944Y-99413673D01*
X144993727Y-99417505D01*
X144961056Y-99421806D01*
X144945000Y-99425000D01*
X143345000Y-99425000D01*
X143328943Y-99421806D01*
X143296272Y-99417505D01*
X143288053Y-99413672D01*
X143268463Y-99409776D01*
X143242516Y-99392438D01*
X143231391Y-99387251D01*
X143224621Y-99380481D01*
X143203579Y-99366421D01*
X143189518Y-99345378D01*
X143182748Y-99338608D01*
X143177559Y-99327480D01*
X143160224Y-99301537D01*
X143156327Y-99281948D01*
X143152494Y-99273727D01*
X143148190Y-99241041D01*
X143145000Y-99225000D01*
X143145000Y-97625000D01*
X143148190Y-97608958D01*
X143152494Y-97576272D01*
X143156327Y-97568049D01*
X143160224Y-97548463D01*
X143177557Y-97522521D01*
X143182748Y-97511391D01*
X143189520Y-97504618D01*
X143203579Y-97483579D01*
X143224618Y-97469520D01*
X143231391Y-97462748D01*
X143242521Y-97457557D01*
X143268463Y-97440224D01*
X143288049Y-97436327D01*
X143296272Y-97432494D01*
X143328960Y-97428190D01*
X143345000Y-97425000D01*
X144945000Y-97425000D01*
X144961043Y-97428191D01*
G37*
G36*
X149146724Y-97048799D02*
G01*
X149190218Y-97048799D01*
X149238658Y-97057853D01*
X149293090Y-97063215D01*
X149334438Y-97075757D01*
X149371518Y-97082689D01*
X149422868Y-97102582D01*
X149480683Y-97120120D01*
X149513720Y-97137778D01*
X149543501Y-97149316D01*
X149595245Y-97181354D01*
X149653570Y-97212530D01*
X149678076Y-97232641D01*
X149700311Y-97246409D01*
X149749575Y-97291319D01*
X149805107Y-97336893D01*
X149821563Y-97356945D01*
X149836611Y-97370663D01*
X149880297Y-97428513D01*
X149929470Y-97488430D01*
X149938977Y-97506218D01*
X149947762Y-97517850D01*
X149982713Y-97588040D01*
X150021880Y-97661317D01*
X150026056Y-97675086D01*
X150029972Y-97682949D01*
X150053105Y-97764255D01*
X150078785Y-97848910D01*
X150079628Y-97857473D01*
X150080446Y-97860347D01*
X150088943Y-97952047D01*
X150098000Y-98044000D01*
X150088942Y-98135960D01*
X150080446Y-98227652D01*
X150079628Y-98230524D01*
X150078785Y-98239090D01*
X150053100Y-98323759D01*
X150029972Y-98405050D01*
X150026057Y-98412911D01*
X150021880Y-98426683D01*
X149982705Y-98499972D01*
X149947762Y-98570149D01*
X149938979Y-98581778D01*
X149929470Y-98599570D01*
X149880288Y-98659498D01*
X149836611Y-98717336D01*
X149821566Y-98731050D01*
X149805107Y-98751107D01*
X149749564Y-98796689D01*
X149700311Y-98841590D01*
X149678081Y-98855354D01*
X149653570Y-98875470D01*
X149595233Y-98906651D01*
X149543501Y-98938683D01*
X149513727Y-98950217D01*
X149480683Y-98967880D01*
X149422856Y-98985421D01*
X149371518Y-99005310D01*
X149334445Y-99012240D01*
X149293090Y-99024785D01*
X149238655Y-99030146D01*
X149190218Y-99039201D01*
X149146724Y-99039201D01*
X149098000Y-99044000D01*
X149049276Y-99039201D01*
X149005782Y-99039201D01*
X148957343Y-99030146D01*
X148902910Y-99024785D01*
X148861555Y-99012240D01*
X148824481Y-99005310D01*
X148773139Y-98985419D01*
X148715317Y-98967880D01*
X148682275Y-98950218D01*
X148652498Y-98938683D01*
X148600759Y-98906647D01*
X148542430Y-98875470D01*
X148517921Y-98855356D01*
X148495688Y-98841590D01*
X148446425Y-98796681D01*
X148390893Y-98751107D01*
X148374436Y-98731054D01*
X148359388Y-98717336D01*
X148315699Y-98659482D01*
X148266530Y-98599570D01*
X148257022Y-98581783D01*
X148248237Y-98570149D01*
X148213279Y-98499945D01*
X148174120Y-98426683D01*
X148169943Y-98412916D01*
X148166027Y-98405050D01*
X148142882Y-98323706D01*
X148117215Y-98239090D01*
X148116371Y-98230530D01*
X148115553Y-98227652D01*
X148107040Y-98135788D01*
X148098000Y-98044000D01*
X148107039Y-97952219D01*
X148115553Y-97860347D01*
X148116372Y-97857468D01*
X148117215Y-97848910D01*
X148142878Y-97764308D01*
X148166027Y-97682949D01*
X148169944Y-97675081D01*
X148174120Y-97661317D01*
X148213272Y-97588068D01*
X148248237Y-97517850D01*
X148257024Y-97506213D01*
X148266530Y-97488430D01*
X148315689Y-97428528D01*
X148359388Y-97370663D01*
X148374439Y-97356941D01*
X148390893Y-97336893D01*
X148446414Y-97291327D01*
X148495688Y-97246409D01*
X148517926Y-97232639D01*
X148542430Y-97212530D01*
X148600747Y-97181358D01*
X148652498Y-97149316D01*
X148682282Y-97137777D01*
X148715317Y-97120120D01*
X148773127Y-97102583D01*
X148824481Y-97082689D01*
X148861562Y-97075757D01*
X148902910Y-97063215D01*
X148957340Y-97057853D01*
X149005782Y-97048799D01*
X149049276Y-97048799D01*
X149098000Y-97044000D01*
X149146724Y-97048799D01*
G37*
G36*
X156766724Y-97048799D02*
G01*
X156810218Y-97048799D01*
X156858658Y-97057853D01*
X156913090Y-97063215D01*
X156954438Y-97075757D01*
X156991518Y-97082689D01*
X157042868Y-97102582D01*
X157100683Y-97120120D01*
X157133720Y-97137778D01*
X157163501Y-97149316D01*
X157215245Y-97181354D01*
X157273570Y-97212530D01*
X157298076Y-97232641D01*
X157320311Y-97246409D01*
X157369575Y-97291319D01*
X157425107Y-97336893D01*
X157441563Y-97356945D01*
X157456611Y-97370663D01*
X157500297Y-97428513D01*
X157549470Y-97488430D01*
X157558977Y-97506218D01*
X157567762Y-97517850D01*
X157602713Y-97588040D01*
X157641880Y-97661317D01*
X157646056Y-97675086D01*
X157649972Y-97682949D01*
X157673105Y-97764255D01*
X157698785Y-97848910D01*
X157699628Y-97857473D01*
X157700446Y-97860347D01*
X157708943Y-97952047D01*
X157718000Y-98044000D01*
X157708942Y-98135960D01*
X157700446Y-98227652D01*
X157699628Y-98230524D01*
X157698785Y-98239090D01*
X157673100Y-98323759D01*
X157649972Y-98405050D01*
X157646057Y-98412911D01*
X157641880Y-98426683D01*
X157602705Y-98499972D01*
X157567762Y-98570149D01*
X157558979Y-98581778D01*
X157549470Y-98599570D01*
X157500288Y-98659498D01*
X157456611Y-98717336D01*
X157441566Y-98731050D01*
X157425107Y-98751107D01*
X157369564Y-98796689D01*
X157320311Y-98841590D01*
X157298081Y-98855354D01*
X157273570Y-98875470D01*
X157215233Y-98906651D01*
X157163501Y-98938683D01*
X157133727Y-98950217D01*
X157100683Y-98967880D01*
X157042856Y-98985421D01*
X156991518Y-99005310D01*
X156954445Y-99012240D01*
X156913090Y-99024785D01*
X156858655Y-99030146D01*
X156810218Y-99039201D01*
X156766724Y-99039201D01*
X156718000Y-99044000D01*
X156669276Y-99039201D01*
X156625782Y-99039201D01*
X156577343Y-99030146D01*
X156522910Y-99024785D01*
X156481555Y-99012240D01*
X156444481Y-99005310D01*
X156393139Y-98985419D01*
X156335317Y-98967880D01*
X156302275Y-98950218D01*
X156272498Y-98938683D01*
X156220759Y-98906647D01*
X156162430Y-98875470D01*
X156137921Y-98855356D01*
X156115688Y-98841590D01*
X156066425Y-98796681D01*
X156010893Y-98751107D01*
X155994436Y-98731054D01*
X155979388Y-98717336D01*
X155935699Y-98659482D01*
X155886530Y-98599570D01*
X155877022Y-98581783D01*
X155868237Y-98570149D01*
X155833279Y-98499945D01*
X155794120Y-98426683D01*
X155789943Y-98412916D01*
X155786027Y-98405050D01*
X155762882Y-98323706D01*
X155737215Y-98239090D01*
X155736371Y-98230530D01*
X155735553Y-98227652D01*
X155727040Y-98135788D01*
X155718000Y-98044000D01*
X155727039Y-97952219D01*
X155735553Y-97860347D01*
X155736372Y-97857468D01*
X155737215Y-97848910D01*
X155762878Y-97764308D01*
X155786027Y-97682949D01*
X155789944Y-97675081D01*
X155794120Y-97661317D01*
X155833272Y-97588068D01*
X155868237Y-97517850D01*
X155877024Y-97506213D01*
X155886530Y-97488430D01*
X155935689Y-97428528D01*
X155979388Y-97370663D01*
X155994439Y-97356941D01*
X156010893Y-97336893D01*
X156066414Y-97291327D01*
X156115688Y-97246409D01*
X156137926Y-97232639D01*
X156162430Y-97212530D01*
X156220747Y-97181358D01*
X156272498Y-97149316D01*
X156302282Y-97137777D01*
X156335317Y-97120120D01*
X156393127Y-97102583D01*
X156444481Y-97082689D01*
X156481562Y-97075757D01*
X156522910Y-97063215D01*
X156577340Y-97057853D01*
X156625782Y-97048799D01*
X156669276Y-97048799D01*
X156718000Y-97044000D01*
X156766724Y-97048799D01*
G37*
G36*
X134516043Y-92594855D02*
G01*
X134548727Y-92599158D01*
X134556948Y-92602991D01*
X134576537Y-92606888D01*
X134602480Y-92624223D01*
X134613608Y-92629412D01*
X134620378Y-92636182D01*
X134641421Y-92650243D01*
X134655481Y-92671285D01*
X134662251Y-92678055D01*
X134667438Y-92689180D01*
X134684776Y-92715127D01*
X134688672Y-92734717D01*
X134692505Y-92742936D01*
X134696806Y-92775609D01*
X134700000Y-92791664D01*
X134700000Y-96041664D01*
X134696805Y-96057722D01*
X134692505Y-96090391D01*
X134688673Y-96098608D01*
X134684776Y-96118201D01*
X134667437Y-96144149D01*
X134662251Y-96155272D01*
X134655483Y-96162039D01*
X134641421Y-96183085D01*
X134620375Y-96197147D01*
X134613608Y-96203915D01*
X134602485Y-96209101D01*
X134576537Y-96226440D01*
X134556944Y-96230337D01*
X134548727Y-96234169D01*
X134516056Y-96238470D01*
X134500000Y-96241664D01*
X123500000Y-96241664D01*
X123483943Y-96238470D01*
X123451272Y-96234169D01*
X123443053Y-96230336D01*
X123423463Y-96226440D01*
X123397516Y-96209102D01*
X123386391Y-96203915D01*
X123379621Y-96197145D01*
X123358579Y-96183085D01*
X123344518Y-96162042D01*
X123337748Y-96155272D01*
X123332559Y-96144144D01*
X123315224Y-96118201D01*
X123311327Y-96098612D01*
X123307494Y-96090391D01*
X123303190Y-96057705D01*
X123300000Y-96041664D01*
X123300000Y-92791664D01*
X123303190Y-92775622D01*
X123307494Y-92742936D01*
X123311327Y-92734713D01*
X123315224Y-92715127D01*
X123332557Y-92689185D01*
X123337748Y-92678055D01*
X123344520Y-92671282D01*
X123358579Y-92650243D01*
X123379618Y-92636184D01*
X123386391Y-92629412D01*
X123397521Y-92624221D01*
X123423463Y-92606888D01*
X123443049Y-92602991D01*
X123451272Y-92599158D01*
X123483960Y-92594854D01*
X123500000Y-92591664D01*
X134500000Y-92591664D01*
X134516043Y-92594855D01*
G37*
G36*
X137468043Y-93491191D02*
G01*
X137500727Y-93495494D01*
X137508948Y-93499327D01*
X137528537Y-93503224D01*
X137554480Y-93520559D01*
X137565608Y-93525748D01*
X137572378Y-93532518D01*
X137593421Y-93546579D01*
X137607481Y-93567621D01*
X137614251Y-93574391D01*
X137619438Y-93585516D01*
X137636776Y-93611463D01*
X137640672Y-93631053D01*
X137644505Y-93639272D01*
X137648806Y-93671945D01*
X137652000Y-93688000D01*
X137652000Y-95288000D01*
X137648805Y-95304058D01*
X137644505Y-95336727D01*
X137640673Y-95344944D01*
X137636776Y-95364537D01*
X137619437Y-95390485D01*
X137614251Y-95401608D01*
X137607483Y-95408375D01*
X137593421Y-95429421D01*
X137572375Y-95443483D01*
X137565608Y-95450251D01*
X137554485Y-95455437D01*
X137528537Y-95472776D01*
X137508944Y-95476673D01*
X137500727Y-95480505D01*
X137468056Y-95484806D01*
X137452000Y-95488000D01*
X135852000Y-95488000D01*
X135835943Y-95484806D01*
X135803272Y-95480505D01*
X135795053Y-95476672D01*
X135775463Y-95472776D01*
X135749516Y-95455438D01*
X135738391Y-95450251D01*
X135731621Y-95443481D01*
X135710579Y-95429421D01*
X135696518Y-95408378D01*
X135689748Y-95401608D01*
X135684559Y-95390480D01*
X135667224Y-95364537D01*
X135663327Y-95344948D01*
X135659494Y-95336727D01*
X135655190Y-95304041D01*
X135652000Y-95288000D01*
X135652000Y-93688000D01*
X135655190Y-93671958D01*
X135659494Y-93639272D01*
X135663327Y-93631049D01*
X135667224Y-93611463D01*
X135684557Y-93585521D01*
X135689748Y-93574391D01*
X135696520Y-93567618D01*
X135710579Y-93546579D01*
X135731618Y-93532520D01*
X135738391Y-93525748D01*
X135749521Y-93520557D01*
X135775463Y-93503224D01*
X135795049Y-93499327D01*
X135803272Y-93495494D01*
X135835960Y-93491190D01*
X135852000Y-93488000D01*
X137452000Y-93488000D01*
X137468043Y-93491191D01*
G37*
G36*
X144320724Y-93492799D02*
G01*
X144364218Y-93492799D01*
X144412658Y-93501853D01*
X144467090Y-93507215D01*
X144508438Y-93519757D01*
X144545518Y-93526689D01*
X144596868Y-93546582D01*
X144654683Y-93564120D01*
X144687720Y-93581778D01*
X144717501Y-93593316D01*
X144769245Y-93625354D01*
X144827570Y-93656530D01*
X144852076Y-93676641D01*
X144874311Y-93690409D01*
X144923575Y-93735319D01*
X144979107Y-93780893D01*
X144995563Y-93800945D01*
X145010611Y-93814663D01*
X145054297Y-93872513D01*
X145103470Y-93932430D01*
X145112977Y-93950218D01*
X145121762Y-93961850D01*
X145156713Y-94032040D01*
X145195880Y-94105317D01*
X145200056Y-94119086D01*
X145203972Y-94126949D01*
X145227105Y-94208255D01*
X145252785Y-94292910D01*
X145253628Y-94301473D01*
X145254446Y-94304347D01*
X145262943Y-94396047D01*
X145272000Y-94488000D01*
X145262942Y-94579960D01*
X145254446Y-94671652D01*
X145253628Y-94674524D01*
X145252785Y-94683090D01*
X145227100Y-94767759D01*
X145203972Y-94849050D01*
X145200057Y-94856911D01*
X145195880Y-94870683D01*
X145156705Y-94943972D01*
X145121762Y-95014149D01*
X145112979Y-95025778D01*
X145103470Y-95043570D01*
X145054288Y-95103498D01*
X145010611Y-95161336D01*
X144995566Y-95175050D01*
X144979107Y-95195107D01*
X144923564Y-95240689D01*
X144874311Y-95285590D01*
X144852081Y-95299354D01*
X144827570Y-95319470D01*
X144769233Y-95350651D01*
X144717501Y-95382683D01*
X144687727Y-95394217D01*
X144654683Y-95411880D01*
X144596856Y-95429421D01*
X144545518Y-95449310D01*
X144508445Y-95456240D01*
X144467090Y-95468785D01*
X144412655Y-95474146D01*
X144364218Y-95483201D01*
X144320724Y-95483201D01*
X144272000Y-95488000D01*
X144223276Y-95483201D01*
X144179782Y-95483201D01*
X144131343Y-95474146D01*
X144076910Y-95468785D01*
X144035555Y-95456240D01*
X143998481Y-95449310D01*
X143947139Y-95429419D01*
X143889317Y-95411880D01*
X143856275Y-95394218D01*
X143826498Y-95382683D01*
X143774759Y-95350647D01*
X143716430Y-95319470D01*
X143691921Y-95299356D01*
X143669688Y-95285590D01*
X143620425Y-95240681D01*
X143564893Y-95195107D01*
X143548436Y-95175054D01*
X143533388Y-95161336D01*
X143489699Y-95103482D01*
X143440530Y-95043570D01*
X143431022Y-95025783D01*
X143422237Y-95014149D01*
X143387279Y-94943945D01*
X143348120Y-94870683D01*
X143343943Y-94856916D01*
X143340027Y-94849050D01*
X143316882Y-94767706D01*
X143291215Y-94683090D01*
X143290371Y-94674530D01*
X143289553Y-94671652D01*
X143281040Y-94579788D01*
X143272000Y-94488000D01*
X143281039Y-94396219D01*
X143289553Y-94304347D01*
X143290372Y-94301468D01*
X143291215Y-94292910D01*
X143316878Y-94208308D01*
X143340027Y-94126949D01*
X143343944Y-94119081D01*
X143348120Y-94105317D01*
X143387272Y-94032068D01*
X143422237Y-93961850D01*
X143431024Y-93950213D01*
X143440530Y-93932430D01*
X143489689Y-93872528D01*
X143533388Y-93814663D01*
X143548439Y-93800941D01*
X143564893Y-93780893D01*
X143620414Y-93735327D01*
X143669688Y-93690409D01*
X143691926Y-93676639D01*
X143716430Y-93656530D01*
X143774747Y-93625358D01*
X143826498Y-93593316D01*
X143856282Y-93581777D01*
X143889317Y-93564120D01*
X143947127Y-93546583D01*
X143998481Y-93526689D01*
X144035562Y-93519757D01*
X144076910Y-93507215D01*
X144131340Y-93501853D01*
X144179782Y-93492799D01*
X144223276Y-93492799D01*
X144272000Y-93488000D01*
X144320724Y-93492799D01*
G37*
G36*
X149146724Y-93492799D02*
G01*
X149190218Y-93492799D01*
X149238658Y-93501853D01*
X149293090Y-93507215D01*
X149334438Y-93519757D01*
X149371518Y-93526689D01*
X149422868Y-93546582D01*
X149480683Y-93564120D01*
X149513720Y-93581778D01*
X149543501Y-93593316D01*
X149595245Y-93625354D01*
X149653570Y-93656530D01*
X149678076Y-93676641D01*
X149700311Y-93690409D01*
X149749575Y-93735319D01*
X149805107Y-93780893D01*
X149821563Y-93800945D01*
X149836611Y-93814663D01*
X149880297Y-93872513D01*
X149929470Y-93932430D01*
X149938977Y-93950218D01*
X149947762Y-93961850D01*
X149982713Y-94032040D01*
X150021880Y-94105317D01*
X150026056Y-94119086D01*
X150029972Y-94126949D01*
X150053105Y-94208255D01*
X150078785Y-94292910D01*
X150079628Y-94301473D01*
X150080446Y-94304347D01*
X150088943Y-94396047D01*
X150098000Y-94488000D01*
X150088942Y-94579960D01*
X150080446Y-94671652D01*
X150079628Y-94674524D01*
X150078785Y-94683090D01*
X150053100Y-94767759D01*
X150029972Y-94849050D01*
X150026057Y-94856911D01*
X150021880Y-94870683D01*
X149982705Y-94943972D01*
X149947762Y-95014149D01*
X149938979Y-95025778D01*
X149929470Y-95043570D01*
X149880288Y-95103498D01*
X149836611Y-95161336D01*
X149821566Y-95175050D01*
X149805107Y-95195107D01*
X149749564Y-95240689D01*
X149700311Y-95285590D01*
X149678081Y-95299354D01*
X149653570Y-95319470D01*
X149595233Y-95350651D01*
X149543501Y-95382683D01*
X149513727Y-95394217D01*
X149480683Y-95411880D01*
X149422856Y-95429421D01*
X149371518Y-95449310D01*
X149334445Y-95456240D01*
X149293090Y-95468785D01*
X149238655Y-95474146D01*
X149190218Y-95483201D01*
X149146724Y-95483201D01*
X149098000Y-95488000D01*
X149049276Y-95483201D01*
X149005782Y-95483201D01*
X148957343Y-95474146D01*
X148902910Y-95468785D01*
X148861555Y-95456240D01*
X148824481Y-95449310D01*
X148773139Y-95429419D01*
X148715317Y-95411880D01*
X148682275Y-95394218D01*
X148652498Y-95382683D01*
X148600759Y-95350647D01*
X148542430Y-95319470D01*
X148517921Y-95299356D01*
X148495688Y-95285590D01*
X148446425Y-95240681D01*
X148390893Y-95195107D01*
X148374436Y-95175054D01*
X148359388Y-95161336D01*
X148315699Y-95103482D01*
X148266530Y-95043570D01*
X148257022Y-95025783D01*
X148248237Y-95014149D01*
X148213279Y-94943945D01*
X148174120Y-94870683D01*
X148169943Y-94856916D01*
X148166027Y-94849050D01*
X148142882Y-94767706D01*
X148117215Y-94683090D01*
X148116371Y-94674530D01*
X148115553Y-94671652D01*
X148107040Y-94579788D01*
X148098000Y-94488000D01*
X148107039Y-94396219D01*
X148115553Y-94304347D01*
X148116372Y-94301468D01*
X148117215Y-94292910D01*
X148142878Y-94208308D01*
X148166027Y-94126949D01*
X148169944Y-94119081D01*
X148174120Y-94105317D01*
X148213272Y-94032068D01*
X148248237Y-93961850D01*
X148257024Y-93950213D01*
X148266530Y-93932430D01*
X148315689Y-93872528D01*
X148359388Y-93814663D01*
X148374439Y-93800941D01*
X148390893Y-93780893D01*
X148446414Y-93735327D01*
X148495688Y-93690409D01*
X148517926Y-93676639D01*
X148542430Y-93656530D01*
X148600747Y-93625358D01*
X148652498Y-93593316D01*
X148682282Y-93581777D01*
X148715317Y-93564120D01*
X148773127Y-93546583D01*
X148824481Y-93526689D01*
X148861562Y-93519757D01*
X148902910Y-93507215D01*
X148957340Y-93501853D01*
X149005782Y-93492799D01*
X149049276Y-93492799D01*
X149098000Y-93488000D01*
X149146724Y-93492799D01*
G37*
G36*
X156766724Y-93492799D02*
G01*
X156810218Y-93492799D01*
X156858658Y-93501853D01*
X156913090Y-93507215D01*
X156954438Y-93519757D01*
X156991518Y-93526689D01*
X157042868Y-93546582D01*
X157100683Y-93564120D01*
X157133720Y-93581778D01*
X157163501Y-93593316D01*
X157215245Y-93625354D01*
X157273570Y-93656530D01*
X157298076Y-93676641D01*
X157320311Y-93690409D01*
X157369575Y-93735319D01*
X157425107Y-93780893D01*
X157441563Y-93800945D01*
X157456611Y-93814663D01*
X157500297Y-93872513D01*
X157549470Y-93932430D01*
X157558977Y-93950218D01*
X157567762Y-93961850D01*
X157602713Y-94032040D01*
X157641880Y-94105317D01*
X157646056Y-94119086D01*
X157649972Y-94126949D01*
X157673105Y-94208255D01*
X157698785Y-94292910D01*
X157699628Y-94301473D01*
X157700446Y-94304347D01*
X157708943Y-94396047D01*
X157718000Y-94488000D01*
X157708942Y-94579960D01*
X157700446Y-94671652D01*
X157699628Y-94674524D01*
X157698785Y-94683090D01*
X157673100Y-94767759D01*
X157649972Y-94849050D01*
X157646057Y-94856911D01*
X157641880Y-94870683D01*
X157602705Y-94943972D01*
X157567762Y-95014149D01*
X157558979Y-95025778D01*
X157549470Y-95043570D01*
X157500288Y-95103498D01*
X157456611Y-95161336D01*
X157441566Y-95175050D01*
X157425107Y-95195107D01*
X157369564Y-95240689D01*
X157320311Y-95285590D01*
X157298081Y-95299354D01*
X157273570Y-95319470D01*
X157215233Y-95350651D01*
X157163501Y-95382683D01*
X157133727Y-95394217D01*
X157100683Y-95411880D01*
X157042856Y-95429421D01*
X156991518Y-95449310D01*
X156954445Y-95456240D01*
X156913090Y-95468785D01*
X156858655Y-95474146D01*
X156810218Y-95483201D01*
X156766724Y-95483201D01*
X156718000Y-95488000D01*
X156669276Y-95483201D01*
X156625782Y-95483201D01*
X156577343Y-95474146D01*
X156522910Y-95468785D01*
X156481555Y-95456240D01*
X156444481Y-95449310D01*
X156393139Y-95429419D01*
X156335317Y-95411880D01*
X156302275Y-95394218D01*
X156272498Y-95382683D01*
X156220759Y-95350647D01*
X156162430Y-95319470D01*
X156137921Y-95299356D01*
X156115688Y-95285590D01*
X156066425Y-95240681D01*
X156010893Y-95195107D01*
X155994436Y-95175054D01*
X155979388Y-95161336D01*
X155935699Y-95103482D01*
X155886530Y-95043570D01*
X155877022Y-95025783D01*
X155868237Y-95014149D01*
X155833279Y-94943945D01*
X155794120Y-94870683D01*
X155789943Y-94856916D01*
X155786027Y-94849050D01*
X155762882Y-94767706D01*
X155737215Y-94683090D01*
X155736371Y-94674530D01*
X155735553Y-94671652D01*
X155727040Y-94579788D01*
X155718000Y-94488000D01*
X155727039Y-94396219D01*
X155735553Y-94304347D01*
X155736372Y-94301468D01*
X155737215Y-94292910D01*
X155762878Y-94208308D01*
X155786027Y-94126949D01*
X155789944Y-94119081D01*
X155794120Y-94105317D01*
X155833272Y-94032068D01*
X155868237Y-93961850D01*
X155877024Y-93950213D01*
X155886530Y-93932430D01*
X155935689Y-93872528D01*
X155979388Y-93814663D01*
X155994439Y-93800941D01*
X156010893Y-93780893D01*
X156066414Y-93735327D01*
X156115688Y-93690409D01*
X156137926Y-93676639D01*
X156162430Y-93656530D01*
X156220747Y-93625358D01*
X156272498Y-93593316D01*
X156302282Y-93581777D01*
X156335317Y-93564120D01*
X156393127Y-93546583D01*
X156444481Y-93526689D01*
X156481562Y-93519757D01*
X156522910Y-93507215D01*
X156577340Y-93501853D01*
X156625782Y-93492799D01*
X156669276Y-93492799D01*
X156718000Y-93488000D01*
X156766724Y-93492799D01*
G37*
G36*
X165658889Y-91665012D02*
G01*
X165704830Y-91665012D01*
X165755988Y-91674575D01*
X165812845Y-91680175D01*
X165856042Y-91693278D01*
X165895202Y-91700599D01*
X165949438Y-91721609D01*
X166009818Y-91739926D01*
X166044315Y-91758365D01*
X166075786Y-91770557D01*
X166130469Y-91804415D01*
X166191349Y-91836957D01*
X166216929Y-91857950D01*
X166240442Y-91872509D01*
X166292546Y-91920008D01*
X166350462Y-91967538D01*
X166367621Y-91988446D01*
X166383564Y-92002980D01*
X166429838Y-92064258D01*
X166481043Y-92126651D01*
X166490947Y-92145180D01*
X166500273Y-92157530D01*
X166537372Y-92232034D01*
X166578074Y-92308182D01*
X166582415Y-92322492D01*
X166586596Y-92330889D01*
X166611295Y-92417697D01*
X166637825Y-92505155D01*
X166638696Y-92514003D01*
X166639594Y-92517158D01*
X166648933Y-92617944D01*
X166658000Y-92710000D01*
X166648932Y-92802063D01*
X166639594Y-92902841D01*
X166638696Y-92905994D01*
X166637825Y-92914845D01*
X166611290Y-93002317D01*
X166586596Y-93089110D01*
X166582415Y-93097504D01*
X166578074Y-93111818D01*
X166537364Y-93187979D01*
X166500273Y-93262469D01*
X166490949Y-93274815D01*
X166481043Y-93293349D01*
X166429829Y-93355752D01*
X166383564Y-93417019D01*
X166367624Y-93431549D01*
X166350462Y-93452462D01*
X166292535Y-93500000D01*
X166240442Y-93547490D01*
X166216934Y-93562045D01*
X166191349Y-93583043D01*
X166130457Y-93615590D01*
X166075786Y-93649442D01*
X166044321Y-93661631D01*
X166009818Y-93680074D01*
X165949426Y-93698393D01*
X165895202Y-93719400D01*
X165856049Y-93726719D01*
X165812845Y-93739825D01*
X165755985Y-93745425D01*
X165704830Y-93754988D01*
X165658889Y-93754988D01*
X165608000Y-93760000D01*
X165557111Y-93754988D01*
X165511170Y-93754988D01*
X165460014Y-93745424D01*
X165403155Y-93739825D01*
X165359952Y-93726719D01*
X165320797Y-93719400D01*
X165266569Y-93698392D01*
X165206182Y-93680074D01*
X165171680Y-93661632D01*
X165140213Y-93649442D01*
X165085535Y-93615586D01*
X165024651Y-93583043D01*
X164999068Y-93562047D01*
X164975557Y-93547490D01*
X164923454Y-93499992D01*
X164865538Y-93452462D01*
X164848378Y-93431553D01*
X164832435Y-93417019D01*
X164786158Y-93355737D01*
X164734957Y-93293349D01*
X164725053Y-93274820D01*
X164715726Y-93262469D01*
X164678620Y-93187951D01*
X164637926Y-93111818D01*
X164633585Y-93097509D01*
X164629403Y-93089110D01*
X164604693Y-93002264D01*
X164578175Y-92914845D01*
X164577303Y-92906000D01*
X164576405Y-92902841D01*
X164567050Y-92801891D01*
X164558000Y-92710000D01*
X164567049Y-92618116D01*
X164576405Y-92517158D01*
X164577304Y-92513998D01*
X164578175Y-92505155D01*
X164604688Y-92417750D01*
X164629403Y-92330889D01*
X164633586Y-92322487D01*
X164637926Y-92308182D01*
X164678613Y-92232061D01*
X164715726Y-92157530D01*
X164725054Y-92145176D01*
X164734957Y-92126651D01*
X164786148Y-92064274D01*
X164832435Y-92002980D01*
X164848381Y-91988442D01*
X164865538Y-91967538D01*
X164923443Y-91920016D01*
X164975557Y-91872509D01*
X164999073Y-91857948D01*
X165024651Y-91836957D01*
X165085523Y-91804419D01*
X165140213Y-91770557D01*
X165171687Y-91758363D01*
X165206182Y-91739926D01*
X165266557Y-91721611D01*
X165320797Y-91700599D01*
X165359959Y-91693278D01*
X165403155Y-91680175D01*
X165460011Y-91674575D01*
X165511170Y-91665012D01*
X165557111Y-91665012D01*
X165608000Y-91660000D01*
X165658889Y-91665012D01*
G37*
G36*
X134516043Y-88205967D02*
G01*
X134548727Y-88210270D01*
X134556948Y-88214103D01*
X134576537Y-88218000D01*
X134602480Y-88235335D01*
X134613608Y-88240524D01*
X134620378Y-88247294D01*
X134641421Y-88261355D01*
X134655481Y-88282397D01*
X134662251Y-88289167D01*
X134667438Y-88300292D01*
X134684776Y-88326239D01*
X134688672Y-88345829D01*
X134692505Y-88354048D01*
X134696806Y-88386721D01*
X134700000Y-88402776D01*
X134700000Y-91652776D01*
X134696805Y-91668834D01*
X134692505Y-91701503D01*
X134688673Y-91709720D01*
X134684776Y-91729313D01*
X134667437Y-91755261D01*
X134662251Y-91766384D01*
X134655483Y-91773151D01*
X134641421Y-91794197D01*
X134620375Y-91808259D01*
X134613608Y-91815027D01*
X134602485Y-91820213D01*
X134576537Y-91837552D01*
X134556944Y-91841449D01*
X134548727Y-91845281D01*
X134516056Y-91849582D01*
X134500000Y-91852776D01*
X123500000Y-91852776D01*
X123483943Y-91849582D01*
X123451272Y-91845281D01*
X123443053Y-91841448D01*
X123423463Y-91837552D01*
X123397516Y-91820214D01*
X123386391Y-91815027D01*
X123379621Y-91808257D01*
X123358579Y-91794197D01*
X123344518Y-91773154D01*
X123337748Y-91766384D01*
X123332559Y-91755256D01*
X123315224Y-91729313D01*
X123311327Y-91709724D01*
X123307494Y-91701503D01*
X123303190Y-91668817D01*
X123300000Y-91652776D01*
X123300000Y-88402776D01*
X123303190Y-88386734D01*
X123307494Y-88354048D01*
X123311327Y-88345825D01*
X123315224Y-88326239D01*
X123332557Y-88300297D01*
X123337748Y-88289167D01*
X123344520Y-88282394D01*
X123358579Y-88261355D01*
X123379618Y-88247296D01*
X123386391Y-88240524D01*
X123397521Y-88235333D01*
X123423463Y-88218000D01*
X123443049Y-88214103D01*
X123451272Y-88210270D01*
X123483960Y-88205966D01*
X123500000Y-88202776D01*
X134500000Y-88202776D01*
X134516043Y-88205967D01*
G37*
G36*
X166474043Y-89123191D02*
G01*
X166506727Y-89127494D01*
X166514948Y-89131327D01*
X166534537Y-89135224D01*
X166560480Y-89152559D01*
X166571608Y-89157748D01*
X166578378Y-89164518D01*
X166599421Y-89178579D01*
X166613481Y-89199621D01*
X166620251Y-89206391D01*
X166625438Y-89217516D01*
X166642776Y-89243463D01*
X166646672Y-89263053D01*
X166650505Y-89271272D01*
X166654806Y-89303945D01*
X166658000Y-89320000D01*
X166658000Y-91020000D01*
X166654805Y-91036058D01*
X166650505Y-91068727D01*
X166646673Y-91076944D01*
X166642776Y-91096537D01*
X166625437Y-91122485D01*
X166620251Y-91133608D01*
X166613483Y-91140375D01*
X166599421Y-91161421D01*
X166578375Y-91175483D01*
X166571608Y-91182251D01*
X166560485Y-91187437D01*
X166534537Y-91204776D01*
X166514944Y-91208673D01*
X166506727Y-91212505D01*
X166474056Y-91216806D01*
X166458000Y-91220000D01*
X164758000Y-91220000D01*
X164741943Y-91216806D01*
X164709272Y-91212505D01*
X164701053Y-91208672D01*
X164681463Y-91204776D01*
X164655516Y-91187438D01*
X164644391Y-91182251D01*
X164637621Y-91175481D01*
X164616579Y-91161421D01*
X164602518Y-91140378D01*
X164595748Y-91133608D01*
X164590559Y-91122480D01*
X164573224Y-91096537D01*
X164569327Y-91076948D01*
X164565494Y-91068727D01*
X164561190Y-91036041D01*
X164558000Y-91020000D01*
X164558000Y-89320000D01*
X164561190Y-89303958D01*
X164565494Y-89271272D01*
X164569327Y-89263049D01*
X164573224Y-89243463D01*
X164590557Y-89217521D01*
X164595748Y-89206391D01*
X164602520Y-89199618D01*
X164616579Y-89178579D01*
X164637618Y-89164520D01*
X164644391Y-89157748D01*
X164655521Y-89152557D01*
X164681463Y-89135224D01*
X164701049Y-89131327D01*
X164709272Y-89127494D01*
X164741960Y-89123190D01*
X164758000Y-89120000D01*
X166458000Y-89120000D01*
X166474043Y-89123191D01*
G37*
G36*
X149146724Y-89174799D02*
G01*
X149190218Y-89174799D01*
X149238658Y-89183853D01*
X149293090Y-89189215D01*
X149334438Y-89201757D01*
X149371518Y-89208689D01*
X149422868Y-89228582D01*
X149480683Y-89246120D01*
X149513720Y-89263778D01*
X149543501Y-89275316D01*
X149595245Y-89307354D01*
X149653570Y-89338530D01*
X149678076Y-89358641D01*
X149700311Y-89372409D01*
X149749575Y-89417319D01*
X149805107Y-89462893D01*
X149821563Y-89482945D01*
X149836611Y-89496663D01*
X149880297Y-89554513D01*
X149929470Y-89614430D01*
X149938977Y-89632218D01*
X149947762Y-89643850D01*
X149982713Y-89714040D01*
X150021880Y-89787317D01*
X150026056Y-89801086D01*
X150029972Y-89808949D01*
X150053105Y-89890255D01*
X150078785Y-89974910D01*
X150079628Y-89983473D01*
X150080446Y-89986347D01*
X150088943Y-90078047D01*
X150098000Y-90170000D01*
X150088942Y-90261960D01*
X150080446Y-90353652D01*
X150079628Y-90356524D01*
X150078785Y-90365090D01*
X150053100Y-90449759D01*
X150029972Y-90531050D01*
X150026057Y-90538911D01*
X150021880Y-90552683D01*
X149982705Y-90625972D01*
X149947762Y-90696149D01*
X149938979Y-90707778D01*
X149929470Y-90725570D01*
X149880288Y-90785498D01*
X149836611Y-90843336D01*
X149821566Y-90857050D01*
X149805107Y-90877107D01*
X149749564Y-90922689D01*
X149700311Y-90967590D01*
X149678081Y-90981354D01*
X149653570Y-91001470D01*
X149595233Y-91032651D01*
X149543501Y-91064683D01*
X149513727Y-91076217D01*
X149480683Y-91093880D01*
X149422856Y-91111421D01*
X149371518Y-91131310D01*
X149334445Y-91138240D01*
X149293090Y-91150785D01*
X149238655Y-91156146D01*
X149190218Y-91165201D01*
X149146724Y-91165201D01*
X149098000Y-91170000D01*
X149049276Y-91165201D01*
X149005782Y-91165201D01*
X148957343Y-91156146D01*
X148902910Y-91150785D01*
X148861555Y-91138240D01*
X148824481Y-91131310D01*
X148773139Y-91111419D01*
X148715317Y-91093880D01*
X148682275Y-91076218D01*
X148652498Y-91064683D01*
X148600759Y-91032647D01*
X148542430Y-91001470D01*
X148517921Y-90981356D01*
X148495688Y-90967590D01*
X148446425Y-90922681D01*
X148390893Y-90877107D01*
X148374436Y-90857054D01*
X148359388Y-90843336D01*
X148315699Y-90785482D01*
X148266530Y-90725570D01*
X148257022Y-90707783D01*
X148248237Y-90696149D01*
X148213279Y-90625945D01*
X148174120Y-90552683D01*
X148169943Y-90538916D01*
X148166027Y-90531050D01*
X148142882Y-90449706D01*
X148117215Y-90365090D01*
X148116371Y-90356530D01*
X148115553Y-90353652D01*
X148107040Y-90261788D01*
X148098000Y-90170000D01*
X148107039Y-90078219D01*
X148115553Y-89986347D01*
X148116372Y-89983468D01*
X148117215Y-89974910D01*
X148142878Y-89890308D01*
X148166027Y-89808949D01*
X148169944Y-89801081D01*
X148174120Y-89787317D01*
X148213272Y-89714068D01*
X148248237Y-89643850D01*
X148257024Y-89632213D01*
X148266530Y-89614430D01*
X148315689Y-89554528D01*
X148359388Y-89496663D01*
X148374439Y-89482941D01*
X148390893Y-89462893D01*
X148446414Y-89417327D01*
X148495688Y-89372409D01*
X148517926Y-89358639D01*
X148542430Y-89338530D01*
X148600747Y-89307358D01*
X148652498Y-89275316D01*
X148682282Y-89263777D01*
X148715317Y-89246120D01*
X148773127Y-89228583D01*
X148824481Y-89208689D01*
X148861562Y-89201757D01*
X148902910Y-89189215D01*
X148957340Y-89183853D01*
X149005782Y-89174799D01*
X149049276Y-89174799D01*
X149098000Y-89170000D01*
X149146724Y-89174799D01*
G37*
G36*
X156766724Y-89174799D02*
G01*
X156810218Y-89174799D01*
X156858658Y-89183853D01*
X156913090Y-89189215D01*
X156954438Y-89201757D01*
X156991518Y-89208689D01*
X157042868Y-89228582D01*
X157100683Y-89246120D01*
X157133720Y-89263778D01*
X157163501Y-89275316D01*
X157215245Y-89307354D01*
X157273570Y-89338530D01*
X157298076Y-89358641D01*
X157320311Y-89372409D01*
X157369575Y-89417319D01*
X157425107Y-89462893D01*
X157441563Y-89482945D01*
X157456611Y-89496663D01*
X157500297Y-89554513D01*
X157549470Y-89614430D01*
X157558977Y-89632218D01*
X157567762Y-89643850D01*
X157602713Y-89714040D01*
X157641880Y-89787317D01*
X157646056Y-89801086D01*
X157649972Y-89808949D01*
X157673105Y-89890255D01*
X157698785Y-89974910D01*
X157699628Y-89983473D01*
X157700446Y-89986347D01*
X157708943Y-90078047D01*
X157718000Y-90170000D01*
X157708942Y-90261960D01*
X157700446Y-90353652D01*
X157699628Y-90356524D01*
X157698785Y-90365090D01*
X157673100Y-90449759D01*
X157649972Y-90531050D01*
X157646057Y-90538911D01*
X157641880Y-90552683D01*
X157602705Y-90625972D01*
X157567762Y-90696149D01*
X157558979Y-90707778D01*
X157549470Y-90725570D01*
X157500288Y-90785498D01*
X157456611Y-90843336D01*
X157441566Y-90857050D01*
X157425107Y-90877107D01*
X157369564Y-90922689D01*
X157320311Y-90967590D01*
X157298081Y-90981354D01*
X157273570Y-91001470D01*
X157215233Y-91032651D01*
X157163501Y-91064683D01*
X157133727Y-91076217D01*
X157100683Y-91093880D01*
X157042856Y-91111421D01*
X156991518Y-91131310D01*
X156954445Y-91138240D01*
X156913090Y-91150785D01*
X156858655Y-91156146D01*
X156810218Y-91165201D01*
X156766724Y-91165201D01*
X156718000Y-91170000D01*
X156669276Y-91165201D01*
X156625782Y-91165201D01*
X156577343Y-91156146D01*
X156522910Y-91150785D01*
X156481555Y-91138240D01*
X156444481Y-91131310D01*
X156393139Y-91111419D01*
X156335317Y-91093880D01*
X156302275Y-91076218D01*
X156272498Y-91064683D01*
X156220759Y-91032647D01*
X156162430Y-91001470D01*
X156137921Y-90981356D01*
X156115688Y-90967590D01*
X156066425Y-90922681D01*
X156010893Y-90877107D01*
X155994436Y-90857054D01*
X155979388Y-90843336D01*
X155935699Y-90785482D01*
X155886530Y-90725570D01*
X155877022Y-90707783D01*
X155868237Y-90696149D01*
X155833279Y-90625945D01*
X155794120Y-90552683D01*
X155789943Y-90538916D01*
X155786027Y-90531050D01*
X155762882Y-90449706D01*
X155737215Y-90365090D01*
X155736371Y-90356530D01*
X155735553Y-90353652D01*
X155727040Y-90261788D01*
X155718000Y-90170000D01*
X155727039Y-90078219D01*
X155735553Y-89986347D01*
X155736372Y-89983468D01*
X155737215Y-89974910D01*
X155762878Y-89890308D01*
X155786027Y-89808949D01*
X155789944Y-89801081D01*
X155794120Y-89787317D01*
X155833272Y-89714068D01*
X155868237Y-89643850D01*
X155877024Y-89632213D01*
X155886530Y-89614430D01*
X155935689Y-89554528D01*
X155979388Y-89496663D01*
X155994439Y-89482941D01*
X156010893Y-89462893D01*
X156066414Y-89417327D01*
X156115688Y-89372409D01*
X156137926Y-89358639D01*
X156162430Y-89338530D01*
X156220747Y-89307358D01*
X156272498Y-89275316D01*
X156302282Y-89263777D01*
X156335317Y-89246120D01*
X156393127Y-89228583D01*
X156444481Y-89208689D01*
X156481562Y-89201757D01*
X156522910Y-89189215D01*
X156577340Y-89183853D01*
X156625782Y-89174799D01*
X156669276Y-89174799D01*
X156718000Y-89170000D01*
X156766724Y-89174799D01*
G37*
G36*
X137468043Y-89088491D02*
G01*
X137500727Y-89092794D01*
X137508948Y-89096627D01*
X137528537Y-89100524D01*
X137554480Y-89117859D01*
X137565608Y-89123048D01*
X137572378Y-89129818D01*
X137593421Y-89143879D01*
X137607481Y-89164921D01*
X137614251Y-89171691D01*
X137619438Y-89182816D01*
X137636776Y-89208763D01*
X137640672Y-89228353D01*
X137644505Y-89236572D01*
X137648806Y-89269245D01*
X137652000Y-89285300D01*
X137652000Y-90885300D01*
X137648805Y-90901358D01*
X137644505Y-90934027D01*
X137640673Y-90942244D01*
X137636776Y-90961837D01*
X137619437Y-90987785D01*
X137614251Y-90998908D01*
X137607483Y-91005675D01*
X137593421Y-91026721D01*
X137572375Y-91040783D01*
X137565608Y-91047551D01*
X137554485Y-91052737D01*
X137528537Y-91070076D01*
X137508944Y-91073973D01*
X137500727Y-91077805D01*
X137468056Y-91082106D01*
X137452000Y-91085300D01*
X135852000Y-91085300D01*
X135835943Y-91082106D01*
X135803272Y-91077805D01*
X135795053Y-91073972D01*
X135775463Y-91070076D01*
X135749516Y-91052738D01*
X135738391Y-91047551D01*
X135731621Y-91040781D01*
X135710579Y-91026721D01*
X135696518Y-91005678D01*
X135689748Y-90998908D01*
X135684559Y-90987780D01*
X135667224Y-90961837D01*
X135663327Y-90942248D01*
X135659494Y-90934027D01*
X135655190Y-90901341D01*
X135652000Y-90885300D01*
X135652000Y-89285300D01*
X135655190Y-89269258D01*
X135659494Y-89236572D01*
X135663327Y-89228349D01*
X135667224Y-89208763D01*
X135684557Y-89182821D01*
X135689748Y-89171691D01*
X135696520Y-89164918D01*
X135710579Y-89143879D01*
X135731618Y-89129820D01*
X135738391Y-89123048D01*
X135749521Y-89117857D01*
X135775463Y-89100524D01*
X135795049Y-89096627D01*
X135803272Y-89092794D01*
X135835960Y-89088490D01*
X135852000Y-89085300D01*
X137452000Y-89085300D01*
X137468043Y-89088491D01*
G37*
G36*
X144320724Y-89090099D02*
G01*
X144364218Y-89090099D01*
X144412658Y-89099153D01*
X144467090Y-89104515D01*
X144508438Y-89117057D01*
X144545518Y-89123989D01*
X144596868Y-89143882D01*
X144654683Y-89161420D01*
X144687720Y-89179078D01*
X144717501Y-89190616D01*
X144769245Y-89222654D01*
X144827570Y-89253830D01*
X144852076Y-89273941D01*
X144874311Y-89287709D01*
X144923575Y-89332619D01*
X144979107Y-89378193D01*
X144995563Y-89398245D01*
X145010611Y-89411963D01*
X145054297Y-89469813D01*
X145103470Y-89529730D01*
X145112977Y-89547518D01*
X145121762Y-89559150D01*
X145156713Y-89629340D01*
X145195880Y-89702617D01*
X145200056Y-89716386D01*
X145203972Y-89724249D01*
X145227105Y-89805555D01*
X145252785Y-89890210D01*
X145253628Y-89898773D01*
X145254446Y-89901647D01*
X145262943Y-89993347D01*
X145272000Y-90085300D01*
X145262942Y-90177260D01*
X145254446Y-90268952D01*
X145253628Y-90271824D01*
X145252785Y-90280390D01*
X145227100Y-90365059D01*
X145203972Y-90446350D01*
X145200057Y-90454211D01*
X145195880Y-90467983D01*
X145156705Y-90541272D01*
X145121762Y-90611449D01*
X145112979Y-90623078D01*
X145103470Y-90640870D01*
X145054288Y-90700798D01*
X145010611Y-90758636D01*
X144995566Y-90772350D01*
X144979107Y-90792407D01*
X144923564Y-90837989D01*
X144874311Y-90882890D01*
X144852081Y-90896654D01*
X144827570Y-90916770D01*
X144769233Y-90947951D01*
X144717501Y-90979983D01*
X144687727Y-90991517D01*
X144654683Y-91009180D01*
X144596856Y-91026721D01*
X144545518Y-91046610D01*
X144508445Y-91053540D01*
X144467090Y-91066085D01*
X144412655Y-91071446D01*
X144364218Y-91080501D01*
X144320724Y-91080501D01*
X144272000Y-91085300D01*
X144223276Y-91080501D01*
X144179782Y-91080501D01*
X144131343Y-91071446D01*
X144076910Y-91066085D01*
X144035555Y-91053540D01*
X143998481Y-91046610D01*
X143947139Y-91026719D01*
X143889317Y-91009180D01*
X143856275Y-90991518D01*
X143826498Y-90979983D01*
X143774759Y-90947947D01*
X143716430Y-90916770D01*
X143691921Y-90896656D01*
X143669688Y-90882890D01*
X143620425Y-90837981D01*
X143564893Y-90792407D01*
X143548436Y-90772354D01*
X143533388Y-90758636D01*
X143489699Y-90700782D01*
X143440530Y-90640870D01*
X143431022Y-90623083D01*
X143422237Y-90611449D01*
X143387279Y-90541245D01*
X143348120Y-90467983D01*
X143343943Y-90454216D01*
X143340027Y-90446350D01*
X143316882Y-90365006D01*
X143291215Y-90280390D01*
X143290371Y-90271830D01*
X143289553Y-90268952D01*
X143281040Y-90177088D01*
X143272000Y-90085300D01*
X143281039Y-89993519D01*
X143289553Y-89901647D01*
X143290372Y-89898768D01*
X143291215Y-89890210D01*
X143316878Y-89805608D01*
X143340027Y-89724249D01*
X143343944Y-89716381D01*
X143348120Y-89702617D01*
X143387272Y-89629368D01*
X143422237Y-89559150D01*
X143431024Y-89547513D01*
X143440530Y-89529730D01*
X143489689Y-89469828D01*
X143533388Y-89411963D01*
X143548439Y-89398241D01*
X143564893Y-89378193D01*
X143620414Y-89332627D01*
X143669688Y-89287709D01*
X143691926Y-89273939D01*
X143716430Y-89253830D01*
X143774747Y-89222658D01*
X143826498Y-89190616D01*
X143856282Y-89179077D01*
X143889317Y-89161420D01*
X143947127Y-89143883D01*
X143998481Y-89123989D01*
X144035562Y-89117057D01*
X144076910Y-89104515D01*
X144131340Y-89099153D01*
X144179782Y-89090099D01*
X144223276Y-89090099D01*
X144272000Y-89085300D01*
X144320724Y-89090099D01*
G37*
G36*
X134516043Y-83817079D02*
G01*
X134548727Y-83821382D01*
X134556948Y-83825215D01*
X134576537Y-83829112D01*
X134602480Y-83846447D01*
X134613608Y-83851636D01*
X134620378Y-83858406D01*
X134641421Y-83872467D01*
X134655481Y-83893509D01*
X134662251Y-83900279D01*
X134667438Y-83911404D01*
X134684776Y-83937351D01*
X134688672Y-83956941D01*
X134692505Y-83965160D01*
X134696806Y-83997833D01*
X134700000Y-84013888D01*
X134700000Y-87263888D01*
X134696805Y-87279946D01*
X134692505Y-87312615D01*
X134688673Y-87320832D01*
X134684776Y-87340425D01*
X134667437Y-87366373D01*
X134662251Y-87377496D01*
X134655483Y-87384263D01*
X134641421Y-87405309D01*
X134620375Y-87419371D01*
X134613608Y-87426139D01*
X134602485Y-87431325D01*
X134576537Y-87448664D01*
X134556944Y-87452561D01*
X134548727Y-87456393D01*
X134516056Y-87460694D01*
X134500000Y-87463888D01*
X123500000Y-87463888D01*
X123483943Y-87460694D01*
X123451272Y-87456393D01*
X123443053Y-87452560D01*
X123423463Y-87448664D01*
X123397516Y-87431326D01*
X123386391Y-87426139D01*
X123379621Y-87419369D01*
X123358579Y-87405309D01*
X123344518Y-87384266D01*
X123337748Y-87377496D01*
X123332559Y-87366368D01*
X123315224Y-87340425D01*
X123311327Y-87320836D01*
X123307494Y-87312615D01*
X123303190Y-87279929D01*
X123300000Y-87263888D01*
X123300000Y-84013888D01*
X123303190Y-83997846D01*
X123307494Y-83965160D01*
X123311327Y-83956937D01*
X123315224Y-83937351D01*
X123332557Y-83911409D01*
X123337748Y-83900279D01*
X123344520Y-83893506D01*
X123358579Y-83872467D01*
X123379618Y-83858408D01*
X123386391Y-83851636D01*
X123397521Y-83846445D01*
X123423463Y-83829112D01*
X123443049Y-83825215D01*
X123451272Y-83821382D01*
X123483960Y-83817078D01*
X123500000Y-83813888D01*
X134500000Y-83813888D01*
X134516043Y-83817079D01*
G37*
G36*
X165653809Y-84812092D02*
G01*
X165699750Y-84812092D01*
X165750908Y-84821655D01*
X165807765Y-84827255D01*
X165850962Y-84840358D01*
X165890122Y-84847679D01*
X165944358Y-84868689D01*
X166004738Y-84887006D01*
X166039235Y-84905445D01*
X166070706Y-84917637D01*
X166125389Y-84951495D01*
X166186269Y-84984037D01*
X166211849Y-85005030D01*
X166235362Y-85019589D01*
X166287466Y-85067088D01*
X166345382Y-85114618D01*
X166362541Y-85135526D01*
X166378484Y-85150060D01*
X166424758Y-85211338D01*
X166475963Y-85273731D01*
X166485867Y-85292260D01*
X166495193Y-85304610D01*
X166532292Y-85379114D01*
X166572994Y-85455262D01*
X166577335Y-85469572D01*
X166581516Y-85477969D01*
X166606215Y-85564777D01*
X166632745Y-85652235D01*
X166633616Y-85661083D01*
X166634514Y-85664238D01*
X166643853Y-85765024D01*
X166652920Y-85857080D01*
X166643852Y-85949143D01*
X166634514Y-86049921D01*
X166633616Y-86053074D01*
X166632745Y-86061925D01*
X166606210Y-86149397D01*
X166581516Y-86236190D01*
X166577335Y-86244584D01*
X166572994Y-86258898D01*
X166532284Y-86335059D01*
X166495193Y-86409549D01*
X166485869Y-86421895D01*
X166475963Y-86440429D01*
X166424749Y-86502832D01*
X166378484Y-86564099D01*
X166362544Y-86578629D01*
X166345382Y-86599542D01*
X166287455Y-86647080D01*
X166235362Y-86694570D01*
X166211854Y-86709125D01*
X166186269Y-86730123D01*
X166125377Y-86762670D01*
X166070706Y-86796522D01*
X166039241Y-86808711D01*
X166004738Y-86827154D01*
X165944346Y-86845473D01*
X165890122Y-86866480D01*
X165850969Y-86873799D01*
X165807765Y-86886905D01*
X165750905Y-86892505D01*
X165699750Y-86902068D01*
X165653809Y-86902068D01*
X165602920Y-86907080D01*
X165552031Y-86902068D01*
X165506090Y-86902068D01*
X165454934Y-86892504D01*
X165398075Y-86886905D01*
X165354872Y-86873799D01*
X165315717Y-86866480D01*
X165261489Y-86845472D01*
X165201102Y-86827154D01*
X165166600Y-86808712D01*
X165135133Y-86796522D01*
X165080455Y-86762666D01*
X165019571Y-86730123D01*
X164993988Y-86709127D01*
X164970477Y-86694570D01*
X164918374Y-86647072D01*
X164860458Y-86599542D01*
X164843298Y-86578633D01*
X164827355Y-86564099D01*
X164781078Y-86502817D01*
X164729877Y-86440429D01*
X164719973Y-86421900D01*
X164710646Y-86409549D01*
X164673540Y-86335031D01*
X164632846Y-86258898D01*
X164628505Y-86244589D01*
X164624323Y-86236190D01*
X164599613Y-86149344D01*
X164573095Y-86061925D01*
X164572223Y-86053080D01*
X164571325Y-86049921D01*
X164561970Y-85948971D01*
X164552920Y-85857080D01*
X164561969Y-85765196D01*
X164571325Y-85664238D01*
X164572224Y-85661078D01*
X164573095Y-85652235D01*
X164599608Y-85564830D01*
X164624323Y-85477969D01*
X164628506Y-85469567D01*
X164632846Y-85455262D01*
X164673533Y-85379141D01*
X164710646Y-85304610D01*
X164719974Y-85292256D01*
X164729877Y-85273731D01*
X164781068Y-85211354D01*
X164827355Y-85150060D01*
X164843301Y-85135522D01*
X164860458Y-85114618D01*
X164918363Y-85067096D01*
X164970477Y-85019589D01*
X164993993Y-85005028D01*
X165019571Y-84984037D01*
X165080443Y-84951499D01*
X165135133Y-84917637D01*
X165166607Y-84905443D01*
X165201102Y-84887006D01*
X165261477Y-84868691D01*
X165315717Y-84847679D01*
X165354879Y-84840358D01*
X165398075Y-84827255D01*
X165454931Y-84821655D01*
X165506090Y-84812092D01*
X165552031Y-84812092D01*
X165602920Y-84807080D01*
X165653809Y-84812092D01*
G37*
G36*
X136700724Y-84687499D02*
G01*
X136744218Y-84687499D01*
X136792658Y-84696553D01*
X136847090Y-84701915D01*
X136888438Y-84714457D01*
X136925518Y-84721389D01*
X136976868Y-84741282D01*
X137034683Y-84758820D01*
X137067720Y-84776478D01*
X137097501Y-84788016D01*
X137149245Y-84820054D01*
X137207570Y-84851230D01*
X137232076Y-84871341D01*
X137254311Y-84885109D01*
X137303575Y-84930019D01*
X137359107Y-84975593D01*
X137375563Y-84995645D01*
X137390611Y-85009363D01*
X137434297Y-85067213D01*
X137483470Y-85127130D01*
X137492977Y-85144918D01*
X137501762Y-85156550D01*
X137536713Y-85226740D01*
X137575880Y-85300017D01*
X137580056Y-85313786D01*
X137583972Y-85321649D01*
X137607105Y-85402955D01*
X137632785Y-85487610D01*
X137633628Y-85496173D01*
X137634446Y-85499047D01*
X137642943Y-85590747D01*
X137652000Y-85682700D01*
X137642942Y-85774660D01*
X137634446Y-85866352D01*
X137633628Y-85869224D01*
X137632785Y-85877790D01*
X137607100Y-85962459D01*
X137583972Y-86043750D01*
X137580057Y-86051611D01*
X137575880Y-86065383D01*
X137536705Y-86138672D01*
X137501762Y-86208849D01*
X137492979Y-86220478D01*
X137483470Y-86238270D01*
X137434288Y-86298198D01*
X137390611Y-86356036D01*
X137375566Y-86369750D01*
X137359107Y-86389807D01*
X137303564Y-86435389D01*
X137254311Y-86480290D01*
X137232081Y-86494054D01*
X137207570Y-86514170D01*
X137149233Y-86545351D01*
X137097501Y-86577383D01*
X137067727Y-86588917D01*
X137034683Y-86606580D01*
X136976856Y-86624121D01*
X136925518Y-86644010D01*
X136888445Y-86650940D01*
X136847090Y-86663485D01*
X136792655Y-86668846D01*
X136744218Y-86677901D01*
X136700724Y-86677901D01*
X136652000Y-86682700D01*
X136603276Y-86677901D01*
X136559782Y-86677901D01*
X136511343Y-86668846D01*
X136456910Y-86663485D01*
X136415555Y-86650940D01*
X136378481Y-86644010D01*
X136327139Y-86624119D01*
X136269317Y-86606580D01*
X136236275Y-86588918D01*
X136206498Y-86577383D01*
X136154759Y-86545347D01*
X136096430Y-86514170D01*
X136071921Y-86494056D01*
X136049688Y-86480290D01*
X136000425Y-86435381D01*
X135944893Y-86389807D01*
X135928436Y-86369754D01*
X135913388Y-86356036D01*
X135869699Y-86298182D01*
X135820530Y-86238270D01*
X135811022Y-86220483D01*
X135802237Y-86208849D01*
X135767279Y-86138645D01*
X135728120Y-86065383D01*
X135723943Y-86051616D01*
X135720027Y-86043750D01*
X135696882Y-85962406D01*
X135671215Y-85877790D01*
X135670371Y-85869230D01*
X135669553Y-85866352D01*
X135661040Y-85774488D01*
X135652000Y-85682700D01*
X135661039Y-85590919D01*
X135669553Y-85499047D01*
X135670372Y-85496168D01*
X135671215Y-85487610D01*
X135696878Y-85403008D01*
X135720027Y-85321649D01*
X135723944Y-85313781D01*
X135728120Y-85300017D01*
X135767272Y-85226768D01*
X135802237Y-85156550D01*
X135811024Y-85144913D01*
X135820530Y-85127130D01*
X135869689Y-85067228D01*
X135913388Y-85009363D01*
X135928439Y-84995641D01*
X135944893Y-84975593D01*
X136000414Y-84930027D01*
X136049688Y-84885109D01*
X136071926Y-84871339D01*
X136096430Y-84851230D01*
X136154747Y-84820058D01*
X136206498Y-84788016D01*
X136236282Y-84776477D01*
X136269317Y-84758820D01*
X136327127Y-84741283D01*
X136378481Y-84721389D01*
X136415562Y-84714457D01*
X136456910Y-84701915D01*
X136511340Y-84696553D01*
X136559782Y-84687499D01*
X136603276Y-84687499D01*
X136652000Y-84682700D01*
X136700724Y-84687499D01*
G37*
G36*
X144320724Y-84687499D02*
G01*
X144364218Y-84687499D01*
X144412658Y-84696553D01*
X144467090Y-84701915D01*
X144508438Y-84714457D01*
X144545518Y-84721389D01*
X144596868Y-84741282D01*
X144654683Y-84758820D01*
X144687720Y-84776478D01*
X144717501Y-84788016D01*
X144769245Y-84820054D01*
X144827570Y-84851230D01*
X144852076Y-84871341D01*
X144874311Y-84885109D01*
X144923575Y-84930019D01*
X144979107Y-84975593D01*
X144995563Y-84995645D01*
X145010611Y-85009363D01*
X145054297Y-85067213D01*
X145103470Y-85127130D01*
X145112977Y-85144918D01*
X145121762Y-85156550D01*
X145156713Y-85226740D01*
X145195880Y-85300017D01*
X145200056Y-85313786D01*
X145203972Y-85321649D01*
X145227105Y-85402955D01*
X145252785Y-85487610D01*
X145253628Y-85496173D01*
X145254446Y-85499047D01*
X145262943Y-85590747D01*
X145272000Y-85682700D01*
X145262942Y-85774660D01*
X145254446Y-85866352D01*
X145253628Y-85869224D01*
X145252785Y-85877790D01*
X145227100Y-85962459D01*
X145203972Y-86043750D01*
X145200057Y-86051611D01*
X145195880Y-86065383D01*
X145156705Y-86138672D01*
X145121762Y-86208849D01*
X145112979Y-86220478D01*
X145103470Y-86238270D01*
X145054288Y-86298198D01*
X145010611Y-86356036D01*
X144995566Y-86369750D01*
X144979107Y-86389807D01*
X144923564Y-86435389D01*
X144874311Y-86480290D01*
X144852081Y-86494054D01*
X144827570Y-86514170D01*
X144769233Y-86545351D01*
X144717501Y-86577383D01*
X144687727Y-86588917D01*
X144654683Y-86606580D01*
X144596856Y-86624121D01*
X144545518Y-86644010D01*
X144508445Y-86650940D01*
X144467090Y-86663485D01*
X144412655Y-86668846D01*
X144364218Y-86677901D01*
X144320724Y-86677901D01*
X144272000Y-86682700D01*
X144223276Y-86677901D01*
X144179782Y-86677901D01*
X144131343Y-86668846D01*
X144076910Y-86663485D01*
X144035555Y-86650940D01*
X143998481Y-86644010D01*
X143947139Y-86624119D01*
X143889317Y-86606580D01*
X143856275Y-86588918D01*
X143826498Y-86577383D01*
X143774759Y-86545347D01*
X143716430Y-86514170D01*
X143691921Y-86494056D01*
X143669688Y-86480290D01*
X143620425Y-86435381D01*
X143564893Y-86389807D01*
X143548436Y-86369754D01*
X143533388Y-86356036D01*
X143489699Y-86298182D01*
X143440530Y-86238270D01*
X143431022Y-86220483D01*
X143422237Y-86208849D01*
X143387279Y-86138645D01*
X143348120Y-86065383D01*
X143343943Y-86051616D01*
X143340027Y-86043750D01*
X143316882Y-85962406D01*
X143291215Y-85877790D01*
X143290371Y-85869230D01*
X143289553Y-85866352D01*
X143281040Y-85774488D01*
X143272000Y-85682700D01*
X143281039Y-85590919D01*
X143289553Y-85499047D01*
X143290372Y-85496168D01*
X143291215Y-85487610D01*
X143316878Y-85403008D01*
X143340027Y-85321649D01*
X143343944Y-85313781D01*
X143348120Y-85300017D01*
X143387272Y-85226768D01*
X143422237Y-85156550D01*
X143431024Y-85144913D01*
X143440530Y-85127130D01*
X143489689Y-85067228D01*
X143533388Y-85009363D01*
X143548439Y-84995641D01*
X143564893Y-84975593D01*
X143620414Y-84930027D01*
X143669688Y-84885109D01*
X143691926Y-84871339D01*
X143716430Y-84851230D01*
X143774747Y-84820058D01*
X143826498Y-84788016D01*
X143856282Y-84776477D01*
X143889317Y-84758820D01*
X143947127Y-84741283D01*
X143998481Y-84721389D01*
X144035562Y-84714457D01*
X144076910Y-84701915D01*
X144131340Y-84696553D01*
X144179782Y-84687499D01*
X144223276Y-84687499D01*
X144272000Y-84682700D01*
X144320724Y-84687499D01*
G37*
G36*
X149146724Y-84602799D02*
G01*
X149190218Y-84602799D01*
X149238658Y-84611853D01*
X149293090Y-84617215D01*
X149334438Y-84629757D01*
X149371518Y-84636689D01*
X149422868Y-84656582D01*
X149480683Y-84674120D01*
X149513720Y-84691778D01*
X149543501Y-84703316D01*
X149595245Y-84735354D01*
X149653570Y-84766530D01*
X149678076Y-84786641D01*
X149700311Y-84800409D01*
X149749575Y-84845319D01*
X149805107Y-84890893D01*
X149821563Y-84910945D01*
X149836611Y-84924663D01*
X149880297Y-84982513D01*
X149929470Y-85042430D01*
X149938977Y-85060218D01*
X149947762Y-85071850D01*
X149982713Y-85142040D01*
X150021880Y-85215317D01*
X150026056Y-85229086D01*
X150029972Y-85236949D01*
X150053105Y-85318255D01*
X150078785Y-85402910D01*
X150079628Y-85411473D01*
X150080446Y-85414347D01*
X150088943Y-85506047D01*
X150098000Y-85598000D01*
X150088942Y-85689960D01*
X150080446Y-85781652D01*
X150079628Y-85784524D01*
X150078785Y-85793090D01*
X150053100Y-85877759D01*
X150029972Y-85959050D01*
X150026057Y-85966911D01*
X150021880Y-85980683D01*
X149982705Y-86053972D01*
X149947762Y-86124149D01*
X149938979Y-86135778D01*
X149929470Y-86153570D01*
X149880288Y-86213498D01*
X149836611Y-86271336D01*
X149821566Y-86285050D01*
X149805107Y-86305107D01*
X149749564Y-86350689D01*
X149700311Y-86395590D01*
X149678081Y-86409354D01*
X149653570Y-86429470D01*
X149595233Y-86460651D01*
X149543501Y-86492683D01*
X149513727Y-86504217D01*
X149480683Y-86521880D01*
X149422856Y-86539421D01*
X149371518Y-86559310D01*
X149334445Y-86566240D01*
X149293090Y-86578785D01*
X149238655Y-86584146D01*
X149190218Y-86593201D01*
X149146724Y-86593201D01*
X149098000Y-86598000D01*
X149049276Y-86593201D01*
X149005782Y-86593201D01*
X148957343Y-86584146D01*
X148902910Y-86578785D01*
X148861555Y-86566240D01*
X148824481Y-86559310D01*
X148773139Y-86539419D01*
X148715317Y-86521880D01*
X148682275Y-86504218D01*
X148652498Y-86492683D01*
X148600759Y-86460647D01*
X148542430Y-86429470D01*
X148517921Y-86409356D01*
X148495688Y-86395590D01*
X148446425Y-86350681D01*
X148390893Y-86305107D01*
X148374436Y-86285054D01*
X148359388Y-86271336D01*
X148315699Y-86213482D01*
X148266530Y-86153570D01*
X148257022Y-86135783D01*
X148248237Y-86124149D01*
X148213279Y-86053945D01*
X148174120Y-85980683D01*
X148169943Y-85966916D01*
X148166027Y-85959050D01*
X148142882Y-85877706D01*
X148117215Y-85793090D01*
X148116371Y-85784530D01*
X148115553Y-85781652D01*
X148107040Y-85689788D01*
X148098000Y-85598000D01*
X148107039Y-85506219D01*
X148115553Y-85414347D01*
X148116372Y-85411468D01*
X148117215Y-85402910D01*
X148142878Y-85318308D01*
X148166027Y-85236949D01*
X148169944Y-85229081D01*
X148174120Y-85215317D01*
X148213272Y-85142068D01*
X148248237Y-85071850D01*
X148257024Y-85060213D01*
X148266530Y-85042430D01*
X148315689Y-84982528D01*
X148359388Y-84924663D01*
X148374439Y-84910941D01*
X148390893Y-84890893D01*
X148446414Y-84845327D01*
X148495688Y-84800409D01*
X148517926Y-84786639D01*
X148542430Y-84766530D01*
X148600747Y-84735358D01*
X148652498Y-84703316D01*
X148682282Y-84691777D01*
X148715317Y-84674120D01*
X148773127Y-84656583D01*
X148824481Y-84636689D01*
X148861562Y-84629757D01*
X148902910Y-84617215D01*
X148957340Y-84611853D01*
X149005782Y-84602799D01*
X149049276Y-84602799D01*
X149098000Y-84598000D01*
X149146724Y-84602799D01*
G37*
G36*
X156766724Y-84602799D02*
G01*
X156810218Y-84602799D01*
X156858658Y-84611853D01*
X156913090Y-84617215D01*
X156954438Y-84629757D01*
X156991518Y-84636689D01*
X157042868Y-84656582D01*
X157100683Y-84674120D01*
X157133720Y-84691778D01*
X157163501Y-84703316D01*
X157215245Y-84735354D01*
X157273570Y-84766530D01*
X157298076Y-84786641D01*
X157320311Y-84800409D01*
X157369575Y-84845319D01*
X157425107Y-84890893D01*
X157441563Y-84910945D01*
X157456611Y-84924663D01*
X157500297Y-84982513D01*
X157549470Y-85042430D01*
X157558977Y-85060218D01*
X157567762Y-85071850D01*
X157602713Y-85142040D01*
X157641880Y-85215317D01*
X157646056Y-85229086D01*
X157649972Y-85236949D01*
X157673105Y-85318255D01*
X157698785Y-85402910D01*
X157699628Y-85411473D01*
X157700446Y-85414347D01*
X157708943Y-85506047D01*
X157718000Y-85598000D01*
X157708942Y-85689960D01*
X157700446Y-85781652D01*
X157699628Y-85784524D01*
X157698785Y-85793090D01*
X157673100Y-85877759D01*
X157649972Y-85959050D01*
X157646057Y-85966911D01*
X157641880Y-85980683D01*
X157602705Y-86053972D01*
X157567762Y-86124149D01*
X157558979Y-86135778D01*
X157549470Y-86153570D01*
X157500288Y-86213498D01*
X157456611Y-86271336D01*
X157441566Y-86285050D01*
X157425107Y-86305107D01*
X157369564Y-86350689D01*
X157320311Y-86395590D01*
X157298081Y-86409354D01*
X157273570Y-86429470D01*
X157215233Y-86460651D01*
X157163501Y-86492683D01*
X157133727Y-86504217D01*
X157100683Y-86521880D01*
X157042856Y-86539421D01*
X156991518Y-86559310D01*
X156954445Y-86566240D01*
X156913090Y-86578785D01*
X156858655Y-86584146D01*
X156810218Y-86593201D01*
X156766724Y-86593201D01*
X156718000Y-86598000D01*
X156669276Y-86593201D01*
X156625782Y-86593201D01*
X156577343Y-86584146D01*
X156522910Y-86578785D01*
X156481555Y-86566240D01*
X156444481Y-86559310D01*
X156393139Y-86539419D01*
X156335317Y-86521880D01*
X156302275Y-86504218D01*
X156272498Y-86492683D01*
X156220759Y-86460647D01*
X156162430Y-86429470D01*
X156137921Y-86409356D01*
X156115688Y-86395590D01*
X156066425Y-86350681D01*
X156010893Y-86305107D01*
X155994436Y-86285054D01*
X155979388Y-86271336D01*
X155935699Y-86213482D01*
X155886530Y-86153570D01*
X155877022Y-86135783D01*
X155868237Y-86124149D01*
X155833279Y-86053945D01*
X155794120Y-85980683D01*
X155789943Y-85966916D01*
X155786027Y-85959050D01*
X155762882Y-85877706D01*
X155737215Y-85793090D01*
X155736371Y-85784530D01*
X155735553Y-85781652D01*
X155727040Y-85689788D01*
X155718000Y-85598000D01*
X155727039Y-85506219D01*
X155735553Y-85414347D01*
X155736372Y-85411468D01*
X155737215Y-85402910D01*
X155762878Y-85318308D01*
X155786027Y-85236949D01*
X155789944Y-85229081D01*
X155794120Y-85215317D01*
X155833272Y-85142068D01*
X155868237Y-85071850D01*
X155877024Y-85060213D01*
X155886530Y-85042430D01*
X155935689Y-84982528D01*
X155979388Y-84924663D01*
X155994439Y-84910941D01*
X156010893Y-84890893D01*
X156066414Y-84845327D01*
X156115688Y-84800409D01*
X156137926Y-84786639D01*
X156162430Y-84766530D01*
X156220747Y-84735358D01*
X156272498Y-84703316D01*
X156302282Y-84691777D01*
X156335317Y-84674120D01*
X156393127Y-84656583D01*
X156444481Y-84636689D01*
X156481562Y-84629757D01*
X156522910Y-84617215D01*
X156577340Y-84611853D01*
X156625782Y-84602799D01*
X156669276Y-84602799D01*
X156718000Y-84598000D01*
X156766724Y-84602799D01*
G37*
G36*
X165653809Y-82272092D02*
G01*
X165699750Y-82272092D01*
X165750908Y-82281655D01*
X165807765Y-82287255D01*
X165850962Y-82300358D01*
X165890122Y-82307679D01*
X165944358Y-82328689D01*
X166004738Y-82347006D01*
X166039235Y-82365445D01*
X166070706Y-82377637D01*
X166125389Y-82411495D01*
X166186269Y-82444037D01*
X166211849Y-82465030D01*
X166235362Y-82479589D01*
X166287466Y-82527088D01*
X166345382Y-82574618D01*
X166362541Y-82595526D01*
X166378484Y-82610060D01*
X166424758Y-82671338D01*
X166475963Y-82733731D01*
X166485867Y-82752260D01*
X166495193Y-82764610D01*
X166532292Y-82839114D01*
X166572994Y-82915262D01*
X166577335Y-82929572D01*
X166581516Y-82937969D01*
X166606215Y-83024777D01*
X166632745Y-83112235D01*
X166633616Y-83121083D01*
X166634514Y-83124238D01*
X166643853Y-83225024D01*
X166652920Y-83317080D01*
X166643852Y-83409143D01*
X166634514Y-83509921D01*
X166633616Y-83513074D01*
X166632745Y-83521925D01*
X166606210Y-83609397D01*
X166581516Y-83696190D01*
X166577335Y-83704584D01*
X166572994Y-83718898D01*
X166532284Y-83795059D01*
X166495193Y-83869549D01*
X166485869Y-83881895D01*
X166475963Y-83900429D01*
X166424749Y-83962832D01*
X166378484Y-84024099D01*
X166362544Y-84038629D01*
X166345382Y-84059542D01*
X166287455Y-84107080D01*
X166235362Y-84154570D01*
X166211854Y-84169125D01*
X166186269Y-84190123D01*
X166125377Y-84222670D01*
X166070706Y-84256522D01*
X166039241Y-84268711D01*
X166004738Y-84287154D01*
X165944346Y-84305473D01*
X165890122Y-84326480D01*
X165850969Y-84333799D01*
X165807765Y-84346905D01*
X165750905Y-84352505D01*
X165699750Y-84362068D01*
X165653809Y-84362068D01*
X165602920Y-84367080D01*
X165552031Y-84362068D01*
X165506090Y-84362068D01*
X165454934Y-84352504D01*
X165398075Y-84346905D01*
X165354872Y-84333799D01*
X165315717Y-84326480D01*
X165261489Y-84305472D01*
X165201102Y-84287154D01*
X165166600Y-84268712D01*
X165135133Y-84256522D01*
X165080455Y-84222666D01*
X165019571Y-84190123D01*
X164993988Y-84169127D01*
X164970477Y-84154570D01*
X164918374Y-84107072D01*
X164860458Y-84059542D01*
X164843298Y-84038633D01*
X164827355Y-84024099D01*
X164781078Y-83962817D01*
X164729877Y-83900429D01*
X164719973Y-83881900D01*
X164710646Y-83869549D01*
X164673540Y-83795031D01*
X164632846Y-83718898D01*
X164628505Y-83704589D01*
X164624323Y-83696190D01*
X164599613Y-83609344D01*
X164573095Y-83521925D01*
X164572223Y-83513080D01*
X164571325Y-83509921D01*
X164561970Y-83408971D01*
X164552920Y-83317080D01*
X164561969Y-83225196D01*
X164571325Y-83124238D01*
X164572224Y-83121078D01*
X164573095Y-83112235D01*
X164599608Y-83024830D01*
X164624323Y-82937969D01*
X164628506Y-82929567D01*
X164632846Y-82915262D01*
X164673533Y-82839141D01*
X164710646Y-82764610D01*
X164719974Y-82752256D01*
X164729877Y-82733731D01*
X164781068Y-82671354D01*
X164827355Y-82610060D01*
X164843301Y-82595522D01*
X164860458Y-82574618D01*
X164918363Y-82527096D01*
X164970477Y-82479589D01*
X164993993Y-82465028D01*
X165019571Y-82444037D01*
X165080443Y-82411499D01*
X165135133Y-82377637D01*
X165166607Y-82365443D01*
X165201102Y-82347006D01*
X165261477Y-82328691D01*
X165315717Y-82307679D01*
X165354879Y-82300358D01*
X165398075Y-82287255D01*
X165454931Y-82281655D01*
X165506090Y-82272092D01*
X165552031Y-82272092D01*
X165602920Y-82267080D01*
X165653809Y-82272092D01*
G37*
G36*
X134516043Y-79428191D02*
G01*
X134548727Y-79432494D01*
X134556948Y-79436327D01*
X134576537Y-79440224D01*
X134602480Y-79457559D01*
X134613608Y-79462748D01*
X134620378Y-79469518D01*
X134641421Y-79483579D01*
X134655481Y-79504621D01*
X134662251Y-79511391D01*
X134667438Y-79522516D01*
X134684776Y-79548463D01*
X134688672Y-79568053D01*
X134692505Y-79576272D01*
X134696806Y-79608945D01*
X134700000Y-79625000D01*
X134700000Y-82875000D01*
X134696805Y-82891058D01*
X134692505Y-82923727D01*
X134688673Y-82931944D01*
X134684776Y-82951537D01*
X134667437Y-82977485D01*
X134662251Y-82988608D01*
X134655483Y-82995375D01*
X134641421Y-83016421D01*
X134620375Y-83030483D01*
X134613608Y-83037251D01*
X134602485Y-83042437D01*
X134576537Y-83059776D01*
X134556944Y-83063673D01*
X134548727Y-83067505D01*
X134516056Y-83071806D01*
X134500000Y-83075000D01*
X123500000Y-83075000D01*
X123483943Y-83071806D01*
X123451272Y-83067505D01*
X123443053Y-83063672D01*
X123423463Y-83059776D01*
X123397516Y-83042438D01*
X123386391Y-83037251D01*
X123379621Y-83030481D01*
X123358579Y-83016421D01*
X123344518Y-82995378D01*
X123337748Y-82988608D01*
X123332559Y-82977480D01*
X123315224Y-82951537D01*
X123311327Y-82931948D01*
X123307494Y-82923727D01*
X123303190Y-82891041D01*
X123300000Y-82875000D01*
X123300000Y-79625000D01*
X123303190Y-79608958D01*
X123307494Y-79576272D01*
X123311327Y-79568049D01*
X123315224Y-79548463D01*
X123332557Y-79522521D01*
X123337748Y-79511391D01*
X123344520Y-79504618D01*
X123358579Y-79483579D01*
X123379618Y-79469520D01*
X123386391Y-79462748D01*
X123397521Y-79457557D01*
X123423463Y-79440224D01*
X123443049Y-79436327D01*
X123451272Y-79432494D01*
X123483960Y-79428190D01*
X123500000Y-79425000D01*
X134500000Y-79425000D01*
X134516043Y-79428191D01*
G37*
G36*
X136700724Y-80284799D02*
G01*
X136744218Y-80284799D01*
X136792658Y-80293853D01*
X136847090Y-80299215D01*
X136888438Y-80311757D01*
X136925518Y-80318689D01*
X136976868Y-80338582D01*
X137034683Y-80356120D01*
X137067720Y-80373778D01*
X137097501Y-80385316D01*
X137149245Y-80417354D01*
X137207570Y-80448530D01*
X137232076Y-80468641D01*
X137254311Y-80482409D01*
X137303575Y-80527319D01*
X137359107Y-80572893D01*
X137375563Y-80592945D01*
X137390611Y-80606663D01*
X137434297Y-80664513D01*
X137483470Y-80724430D01*
X137492977Y-80742218D01*
X137501762Y-80753850D01*
X137536713Y-80824040D01*
X137575880Y-80897317D01*
X137580056Y-80911086D01*
X137583972Y-80918949D01*
X137607105Y-81000255D01*
X137632785Y-81084910D01*
X137633628Y-81093473D01*
X137634446Y-81096347D01*
X137642943Y-81188047D01*
X137652000Y-81280000D01*
X137642942Y-81371960D01*
X137634446Y-81463652D01*
X137633628Y-81466524D01*
X137632785Y-81475090D01*
X137607100Y-81559759D01*
X137583972Y-81641050D01*
X137580057Y-81648911D01*
X137575880Y-81662683D01*
X137536705Y-81735972D01*
X137501762Y-81806149D01*
X137492979Y-81817778D01*
X137483470Y-81835570D01*
X137434288Y-81895498D01*
X137390611Y-81953336D01*
X137375566Y-81967050D01*
X137359107Y-81987107D01*
X137303564Y-82032689D01*
X137254311Y-82077590D01*
X137232081Y-82091354D01*
X137207570Y-82111470D01*
X137149233Y-82142651D01*
X137097501Y-82174683D01*
X137067727Y-82186217D01*
X137034683Y-82203880D01*
X136976856Y-82221421D01*
X136925518Y-82241310D01*
X136888445Y-82248240D01*
X136847090Y-82260785D01*
X136792655Y-82266146D01*
X136744218Y-82275201D01*
X136700724Y-82275201D01*
X136652000Y-82280000D01*
X136603276Y-82275201D01*
X136559782Y-82275201D01*
X136511343Y-82266146D01*
X136456910Y-82260785D01*
X136415555Y-82248240D01*
X136378481Y-82241310D01*
X136327139Y-82221419D01*
X136269317Y-82203880D01*
X136236275Y-82186218D01*
X136206498Y-82174683D01*
X136154759Y-82142647D01*
X136096430Y-82111470D01*
X136071921Y-82091356D01*
X136049688Y-82077590D01*
X136000425Y-82032681D01*
X135944893Y-81987107D01*
X135928436Y-81967054D01*
X135913388Y-81953336D01*
X135869699Y-81895482D01*
X135820530Y-81835570D01*
X135811022Y-81817783D01*
X135802237Y-81806149D01*
X135767279Y-81735945D01*
X135728120Y-81662683D01*
X135723943Y-81648916D01*
X135720027Y-81641050D01*
X135696882Y-81559706D01*
X135671215Y-81475090D01*
X135670371Y-81466530D01*
X135669553Y-81463652D01*
X135661040Y-81371788D01*
X135652000Y-81280000D01*
X135661039Y-81188219D01*
X135669553Y-81096347D01*
X135670372Y-81093468D01*
X135671215Y-81084910D01*
X135696878Y-81000308D01*
X135720027Y-80918949D01*
X135723944Y-80911081D01*
X135728120Y-80897317D01*
X135767272Y-80824068D01*
X135802237Y-80753850D01*
X135811024Y-80742213D01*
X135820530Y-80724430D01*
X135869689Y-80664528D01*
X135913388Y-80606663D01*
X135928439Y-80592941D01*
X135944893Y-80572893D01*
X136000414Y-80527327D01*
X136049688Y-80482409D01*
X136071926Y-80468639D01*
X136096430Y-80448530D01*
X136154747Y-80417358D01*
X136206498Y-80385316D01*
X136236282Y-80373777D01*
X136269317Y-80356120D01*
X136327127Y-80338583D01*
X136378481Y-80318689D01*
X136415562Y-80311757D01*
X136456910Y-80299215D01*
X136511340Y-80293853D01*
X136559782Y-80284799D01*
X136603276Y-80284799D01*
X136652000Y-80280000D01*
X136700724Y-80284799D01*
G37*
G36*
X144320724Y-80284799D02*
G01*
X144364218Y-80284799D01*
X144412658Y-80293853D01*
X144467090Y-80299215D01*
X144508438Y-80311757D01*
X144545518Y-80318689D01*
X144596868Y-80338582D01*
X144654683Y-80356120D01*
X144687720Y-80373778D01*
X144717501Y-80385316D01*
X144769245Y-80417354D01*
X144827570Y-80448530D01*
X144852076Y-80468641D01*
X144874311Y-80482409D01*
X144923575Y-80527319D01*
X144979107Y-80572893D01*
X144995563Y-80592945D01*
X145010611Y-80606663D01*
X145054297Y-80664513D01*
X145103470Y-80724430D01*
X145112977Y-80742218D01*
X145121762Y-80753850D01*
X145156713Y-80824040D01*
X145195880Y-80897317D01*
X145200056Y-80911086D01*
X145203972Y-80918949D01*
X145227105Y-81000255D01*
X145252785Y-81084910D01*
X145253628Y-81093473D01*
X145254446Y-81096347D01*
X145262943Y-81188047D01*
X145272000Y-81280000D01*
X145262942Y-81371960D01*
X145254446Y-81463652D01*
X145253628Y-81466524D01*
X145252785Y-81475090D01*
X145227100Y-81559759D01*
X145203972Y-81641050D01*
X145200057Y-81648911D01*
X145195880Y-81662683D01*
X145156705Y-81735972D01*
X145121762Y-81806149D01*
X145112979Y-81817778D01*
X145103470Y-81835570D01*
X145054288Y-81895498D01*
X145010611Y-81953336D01*
X144995566Y-81967050D01*
X144979107Y-81987107D01*
X144923564Y-82032689D01*
X144874311Y-82077590D01*
X144852081Y-82091354D01*
X144827570Y-82111470D01*
X144769233Y-82142651D01*
X144717501Y-82174683D01*
X144687727Y-82186217D01*
X144654683Y-82203880D01*
X144596856Y-82221421D01*
X144545518Y-82241310D01*
X144508445Y-82248240D01*
X144467090Y-82260785D01*
X144412655Y-82266146D01*
X144364218Y-82275201D01*
X144320724Y-82275201D01*
X144272000Y-82280000D01*
X144223276Y-82275201D01*
X144179782Y-82275201D01*
X144131343Y-82266146D01*
X144076910Y-82260785D01*
X144035555Y-82248240D01*
X143998481Y-82241310D01*
X143947139Y-82221419D01*
X143889317Y-82203880D01*
X143856275Y-82186218D01*
X143826498Y-82174683D01*
X143774759Y-82142647D01*
X143716430Y-82111470D01*
X143691921Y-82091356D01*
X143669688Y-82077590D01*
X143620425Y-82032681D01*
X143564893Y-81987107D01*
X143548436Y-81967054D01*
X143533388Y-81953336D01*
X143489699Y-81895482D01*
X143440530Y-81835570D01*
X143431022Y-81817783D01*
X143422237Y-81806149D01*
X143387279Y-81735945D01*
X143348120Y-81662683D01*
X143343943Y-81648916D01*
X143340027Y-81641050D01*
X143316882Y-81559706D01*
X143291215Y-81475090D01*
X143290371Y-81466530D01*
X143289553Y-81463652D01*
X143281040Y-81371788D01*
X143272000Y-81280000D01*
X143281039Y-81188219D01*
X143289553Y-81096347D01*
X143290372Y-81093468D01*
X143291215Y-81084910D01*
X143316878Y-81000308D01*
X143340027Y-80918949D01*
X143343944Y-80911081D01*
X143348120Y-80897317D01*
X143387272Y-80824068D01*
X143422237Y-80753850D01*
X143431024Y-80742213D01*
X143440530Y-80724430D01*
X143489689Y-80664528D01*
X143533388Y-80606663D01*
X143548439Y-80592941D01*
X143564893Y-80572893D01*
X143620414Y-80527327D01*
X143669688Y-80482409D01*
X143691926Y-80468639D01*
X143716430Y-80448530D01*
X143774747Y-80417358D01*
X143826498Y-80385316D01*
X143856282Y-80373777D01*
X143889317Y-80356120D01*
X143947127Y-80338583D01*
X143998481Y-80318689D01*
X144035562Y-80311757D01*
X144076910Y-80299215D01*
X144131340Y-80293853D01*
X144179782Y-80284799D01*
X144223276Y-80284799D01*
X144272000Y-80280000D01*
X144320724Y-80284799D01*
G37*
G36*
X149146724Y-80030799D02*
G01*
X149190218Y-80030799D01*
X149238658Y-80039853D01*
X149293090Y-80045215D01*
X149334438Y-80057757D01*
X149371518Y-80064689D01*
X149422868Y-80084582D01*
X149480683Y-80102120D01*
X149513720Y-80119778D01*
X149543501Y-80131316D01*
X149595245Y-80163354D01*
X149653570Y-80194530D01*
X149678076Y-80214641D01*
X149700311Y-80228409D01*
X149749575Y-80273319D01*
X149805107Y-80318893D01*
X149821563Y-80338945D01*
X149836611Y-80352663D01*
X149880297Y-80410513D01*
X149929470Y-80470430D01*
X149938977Y-80488218D01*
X149947762Y-80499850D01*
X149982713Y-80570040D01*
X150021880Y-80643317D01*
X150026056Y-80657086D01*
X150029972Y-80664949D01*
X150053105Y-80746255D01*
X150078785Y-80830910D01*
X150079628Y-80839473D01*
X150080446Y-80842347D01*
X150088943Y-80934047D01*
X150098000Y-81026000D01*
X150088942Y-81117960D01*
X150080446Y-81209652D01*
X150079628Y-81212524D01*
X150078785Y-81221090D01*
X150053100Y-81305759D01*
X150029972Y-81387050D01*
X150026057Y-81394911D01*
X150021880Y-81408683D01*
X149982705Y-81481972D01*
X149947762Y-81552149D01*
X149938979Y-81563778D01*
X149929470Y-81581570D01*
X149880288Y-81641498D01*
X149836611Y-81699336D01*
X149821566Y-81713050D01*
X149805107Y-81733107D01*
X149749564Y-81778689D01*
X149700311Y-81823590D01*
X149678081Y-81837354D01*
X149653570Y-81857470D01*
X149595233Y-81888651D01*
X149543501Y-81920683D01*
X149513727Y-81932217D01*
X149480683Y-81949880D01*
X149422856Y-81967421D01*
X149371518Y-81987310D01*
X149334445Y-81994240D01*
X149293090Y-82006785D01*
X149238655Y-82012146D01*
X149190218Y-82021201D01*
X149146724Y-82021201D01*
X149098000Y-82026000D01*
X149049276Y-82021201D01*
X149005782Y-82021201D01*
X148957343Y-82012146D01*
X148902910Y-82006785D01*
X148861555Y-81994240D01*
X148824481Y-81987310D01*
X148773139Y-81967419D01*
X148715317Y-81949880D01*
X148682275Y-81932218D01*
X148652498Y-81920683D01*
X148600759Y-81888647D01*
X148542430Y-81857470D01*
X148517921Y-81837356D01*
X148495688Y-81823590D01*
X148446425Y-81778681D01*
X148390893Y-81733107D01*
X148374436Y-81713054D01*
X148359388Y-81699336D01*
X148315699Y-81641482D01*
X148266530Y-81581570D01*
X148257022Y-81563783D01*
X148248237Y-81552149D01*
X148213279Y-81481945D01*
X148174120Y-81408683D01*
X148169943Y-81394916D01*
X148166027Y-81387050D01*
X148142882Y-81305706D01*
X148117215Y-81221090D01*
X148116371Y-81212530D01*
X148115553Y-81209652D01*
X148107040Y-81117788D01*
X148098000Y-81026000D01*
X148107039Y-80934219D01*
X148115553Y-80842347D01*
X148116372Y-80839468D01*
X148117215Y-80830910D01*
X148142878Y-80746308D01*
X148166027Y-80664949D01*
X148169944Y-80657081D01*
X148174120Y-80643317D01*
X148213272Y-80570068D01*
X148248237Y-80499850D01*
X148257024Y-80488213D01*
X148266530Y-80470430D01*
X148315689Y-80410528D01*
X148359388Y-80352663D01*
X148374439Y-80338941D01*
X148390893Y-80318893D01*
X148446414Y-80273327D01*
X148495688Y-80228409D01*
X148517926Y-80214639D01*
X148542430Y-80194530D01*
X148600747Y-80163358D01*
X148652498Y-80131316D01*
X148682282Y-80119777D01*
X148715317Y-80102120D01*
X148773127Y-80084583D01*
X148824481Y-80064689D01*
X148861562Y-80057757D01*
X148902910Y-80045215D01*
X148957340Y-80039853D01*
X149005782Y-80030799D01*
X149049276Y-80030799D01*
X149098000Y-80026000D01*
X149146724Y-80030799D01*
G37*
G36*
X156766724Y-80030799D02*
G01*
X156810218Y-80030799D01*
X156858658Y-80039853D01*
X156913090Y-80045215D01*
X156954438Y-80057757D01*
X156991518Y-80064689D01*
X157042868Y-80084582D01*
X157100683Y-80102120D01*
X157133720Y-80119778D01*
X157163501Y-80131316D01*
X157215245Y-80163354D01*
X157273570Y-80194530D01*
X157298076Y-80214641D01*
X157320311Y-80228409D01*
X157369575Y-80273319D01*
X157425107Y-80318893D01*
X157441563Y-80338945D01*
X157456611Y-80352663D01*
X157500297Y-80410513D01*
X157549470Y-80470430D01*
X157558977Y-80488218D01*
X157567762Y-80499850D01*
X157602713Y-80570040D01*
X157641880Y-80643317D01*
X157646056Y-80657086D01*
X157649972Y-80664949D01*
X157673105Y-80746255D01*
X157698785Y-80830910D01*
X157699628Y-80839473D01*
X157700446Y-80842347D01*
X157708943Y-80934047D01*
X157718000Y-81026000D01*
X157708942Y-81117960D01*
X157700446Y-81209652D01*
X157699628Y-81212524D01*
X157698785Y-81221090D01*
X157673100Y-81305759D01*
X157649972Y-81387050D01*
X157646057Y-81394911D01*
X157641880Y-81408683D01*
X157602705Y-81481972D01*
X157567762Y-81552149D01*
X157558979Y-81563778D01*
X157549470Y-81581570D01*
X157500288Y-81641498D01*
X157456611Y-81699336D01*
X157441566Y-81713050D01*
X157425107Y-81733107D01*
X157369564Y-81778689D01*
X157320311Y-81823590D01*
X157298081Y-81837354D01*
X157273570Y-81857470D01*
X157215233Y-81888651D01*
X157163501Y-81920683D01*
X157133727Y-81932217D01*
X157100683Y-81949880D01*
X157042856Y-81967421D01*
X156991518Y-81987310D01*
X156954445Y-81994240D01*
X156913090Y-82006785D01*
X156858655Y-82012146D01*
X156810218Y-82021201D01*
X156766724Y-82021201D01*
X156718000Y-82026000D01*
X156669276Y-82021201D01*
X156625782Y-82021201D01*
X156577343Y-82012146D01*
X156522910Y-82006785D01*
X156481555Y-81994240D01*
X156444481Y-81987310D01*
X156393139Y-81967419D01*
X156335317Y-81949880D01*
X156302275Y-81932218D01*
X156272498Y-81920683D01*
X156220759Y-81888647D01*
X156162430Y-81857470D01*
X156137921Y-81837356D01*
X156115688Y-81823590D01*
X156066425Y-81778681D01*
X156010893Y-81733107D01*
X155994436Y-81713054D01*
X155979388Y-81699336D01*
X155935699Y-81641482D01*
X155886530Y-81581570D01*
X155877022Y-81563783D01*
X155868237Y-81552149D01*
X155833279Y-81481945D01*
X155794120Y-81408683D01*
X155789943Y-81394916D01*
X155786027Y-81387050D01*
X155762882Y-81305706D01*
X155737215Y-81221090D01*
X155736371Y-81212530D01*
X155735553Y-81209652D01*
X155727040Y-81117788D01*
X155718000Y-81026000D01*
X155727039Y-80934219D01*
X155735553Y-80842347D01*
X155736372Y-80839468D01*
X155737215Y-80830910D01*
X155762878Y-80746308D01*
X155786027Y-80664949D01*
X155789944Y-80657081D01*
X155794120Y-80643317D01*
X155833272Y-80570068D01*
X155868237Y-80499850D01*
X155877024Y-80488213D01*
X155886530Y-80470430D01*
X155935689Y-80410528D01*
X155979388Y-80352663D01*
X155994439Y-80338941D01*
X156010893Y-80318893D01*
X156066414Y-80273327D01*
X156115688Y-80228409D01*
X156137926Y-80214639D01*
X156162430Y-80194530D01*
X156220747Y-80163358D01*
X156272498Y-80131316D01*
X156302282Y-80119777D01*
X156335317Y-80102120D01*
X156393127Y-80084583D01*
X156444481Y-80064689D01*
X156481562Y-80057757D01*
X156522910Y-80045215D01*
X156577340Y-80039853D01*
X156625782Y-80030799D01*
X156669276Y-80030799D01*
X156718000Y-80026000D01*
X156766724Y-80030799D01*
G37*
G36*
X166468963Y-79730271D02*
G01*
X166501647Y-79734574D01*
X166509868Y-79738407D01*
X166529457Y-79742304D01*
X166555400Y-79759639D01*
X166566528Y-79764828D01*
X166573298Y-79771598D01*
X166594341Y-79785659D01*
X166608401Y-79806701D01*
X166615171Y-79813471D01*
X166620358Y-79824596D01*
X166637696Y-79850543D01*
X166641592Y-79870133D01*
X166645425Y-79878352D01*
X166649726Y-79911025D01*
X166652920Y-79927080D01*
X166652920Y-81627080D01*
X166649725Y-81643138D01*
X166645425Y-81675807D01*
X166641593Y-81684024D01*
X166637696Y-81703617D01*
X166620357Y-81729565D01*
X166615171Y-81740688D01*
X166608403Y-81747455D01*
X166594341Y-81768501D01*
X166573295Y-81782563D01*
X166566528Y-81789331D01*
X166555405Y-81794517D01*
X166529457Y-81811856D01*
X166509864Y-81815753D01*
X166501647Y-81819585D01*
X166468976Y-81823886D01*
X166452920Y-81827080D01*
X164752920Y-81827080D01*
X164736863Y-81823886D01*
X164704192Y-81819585D01*
X164695973Y-81815752D01*
X164676383Y-81811856D01*
X164650436Y-81794518D01*
X164639311Y-81789331D01*
X164632541Y-81782561D01*
X164611499Y-81768501D01*
X164597438Y-81747458D01*
X164590668Y-81740688D01*
X164585479Y-81729560D01*
X164568144Y-81703617D01*
X164564247Y-81684028D01*
X164560414Y-81675807D01*
X164556110Y-81643121D01*
X164552920Y-81627080D01*
X164552920Y-79927080D01*
X164556110Y-79911038D01*
X164560414Y-79878352D01*
X164564247Y-79870129D01*
X164568144Y-79850543D01*
X164585477Y-79824601D01*
X164590668Y-79813471D01*
X164597440Y-79806698D01*
X164611499Y-79785659D01*
X164632538Y-79771600D01*
X164639311Y-79764828D01*
X164650441Y-79759637D01*
X164676383Y-79742304D01*
X164695969Y-79738407D01*
X164704192Y-79734574D01*
X164736880Y-79730270D01*
X164752920Y-79727080D01*
X166452920Y-79727080D01*
X166468963Y-79730271D01*
G37*
M02*
