M48
;DRILL file {KiCad (2017-12-21 revision 23d71cfa9)-makepkg} date 08/18/18 11:55:40
;FORMAT={-:-/ absolute / inch / decimal}
FMAT,2
INCH,TZ
T1C0.0256
T2C0.0315
T3C0.0512
%
G90
G05
M72
T1
X5.86Y-4.65
X5.86Y-4.7
X5.86Y-4.75
X5.85Y-3.475
X5.85Y-3.525
X5.85Y-3.575
X6.06Y-4.65
X6.06Y-4.7
X6.06Y-4.75
T2
X6.04Y-3.2
X6.04Y-3.2787
X5.4Y-4.225
X5.7Y-4.225
X5.85Y-4.2
X5.85Y-4.5
X5.4Y-4.6
X5.7Y-4.6
X5.4Y-3.88
X5.7Y-3.88
X5.4Y-3.72
X5.7Y-3.72
X6.075Y-3.6031
X6.075Y-3.8
X5.4Y-4.75
X5.7Y-4.75
X5.85Y-3.8
X5.85Y-4.1
X5.46Y-3.22
X5.46Y-3.2987
X5.4Y-4.4
X5.5969Y-4.4
T3
X5.7Y-3.22
X5.8181Y-3.22
T0
M30
