G04 #@! TF.GenerationSoftware,KiCad,Pcbnew,(2017-12-21 revision 23d71cfa9)-makepkg*
G04 #@! TF.CreationDate,2018-08-18T11:55:38-04:00*
G04 #@! TF.ProjectId,OdysseyDaughterCardHorizSyncGenerator,4F647973736579446175676874657243,0.3*
G04 #@! TF.SameCoordinates,Original*
G04 #@! TF.FileFunction,Copper,L2,Bot,Signal*
G04 #@! TF.FilePolarity,Positive*
%FSLAX46Y46*%
G04 Gerber Fmt 4.6, Leading zero omitted, Abs format (unit mm)*
G04 Created by KiCad (PCBNEW (2017-12-21 revision 23d71cfa9)-makepkg) date 08/18/18 11:55:38*
%MOMM*%
%LPD*%
G01*
G04 APERTURE LIST*
%ADD10R,11.000000X3.250000*%
%ADD11C,1.600000*%
%ADD12R,1.600000X1.600000*%
%ADD13C,2.600000*%
%ADD14O,1.500000X1.050000*%
%ADD15R,1.500000X1.050000*%
%ADD16O,1.600000X1.600000*%
%ADD17C,0.250000*%
G04 APERTURE END LIST*
D10*
X129000000Y-81250000D03*
X129000000Y-85638888D03*
X129000000Y-90027776D03*
X129000000Y-94416664D03*
X129000000Y-98805552D03*
X129000000Y-103194440D03*
X129000000Y-107583328D03*
X129000000Y-111972216D03*
X129000000Y-116361104D03*
X129000000Y-120749992D03*
D11*
X154305000Y-96520000D03*
X154305000Y-91520000D03*
X142160000Y-111760000D03*
X137160000Y-111760000D03*
D12*
X138684000Y-81788000D03*
D11*
X138684000Y-83788000D03*
X153416000Y-83280000D03*
D12*
X153416000Y-81280000D03*
D13*
X144780000Y-81788000D03*
X147780000Y-81788000D03*
D14*
X148590000Y-89535000D03*
X148590000Y-90805000D03*
D15*
X148590000Y-88265000D03*
X148844000Y-118110000D03*
D14*
X148844000Y-120650000D03*
X148844000Y-119380000D03*
X153924000Y-119380000D03*
X153924000Y-120650000D03*
D15*
X153924000Y-118110000D03*
D16*
X144780000Y-120650000D03*
D11*
X137160000Y-120650000D03*
X137160000Y-98552000D03*
D16*
X144780000Y-98552000D03*
D11*
X137160000Y-116840000D03*
D16*
X144780000Y-116840000D03*
X148590000Y-96520000D03*
D11*
X148590000Y-104140000D03*
X137160000Y-107315000D03*
D16*
X144780000Y-107315000D03*
X148590000Y-114300000D03*
D11*
X148590000Y-106680000D03*
X137160000Y-94488000D03*
D16*
X144780000Y-94488000D03*
D17*
X137160000Y-107315000D02*
X137160000Y-111760000D01*
X134825300Y-84521400D02*
X134825300Y-85638900D01*
X137558700Y-81788000D02*
X134825300Y-84521400D01*
X138684000Y-81788000D02*
X137558700Y-81788000D01*
X129000000Y-85638900D02*
X134825300Y-85638900D01*
X144780000Y-94488000D02*
X144780000Y-95613300D01*
X144780000Y-107315000D02*
X144780000Y-106189700D01*
X143654700Y-96738600D02*
X143654700Y-103194400D01*
X144780000Y-95613300D02*
X143654700Y-96738600D01*
X143654700Y-105064400D02*
X144780000Y-106189700D01*
X143654700Y-103194400D02*
X143654700Y-105064400D01*
X134825300Y-107583300D02*
X134825300Y-103194400D01*
X129000000Y-107583300D02*
X134825300Y-107583300D01*
X129000000Y-103194400D02*
X134825300Y-103194400D01*
X143654700Y-103194400D02*
X134825300Y-103194400D01*
X148844000Y-120650000D02*
X149919300Y-120650000D01*
X152290700Y-82166900D02*
X150224800Y-84232800D01*
X152290700Y-81280000D02*
X152290700Y-82166900D01*
X150224800Y-84232800D02*
X147780000Y-81788000D01*
X153416000Y-81280000D02*
X152290700Y-81280000D01*
X153924000Y-120650000D02*
X152848700Y-120650000D01*
X150224800Y-120497200D02*
X150224800Y-84232800D01*
X150072100Y-120497200D02*
X150224800Y-120497200D01*
X149919300Y-120650000D02*
X150072100Y-120497200D01*
X152695900Y-120497200D02*
X152848700Y-120650000D01*
X150224800Y-120497200D02*
X152695900Y-120497200D01*
X137160000Y-120650000D02*
X137160000Y-116840000D01*
X129000000Y-111972200D02*
X134825300Y-111972200D01*
X148590000Y-88265000D02*
X149665300Y-88265000D01*
X137540200Y-114687100D02*
X134825300Y-111972200D01*
X142689800Y-109537500D02*
X137540200Y-114687100D01*
X144203100Y-109537500D02*
X142689800Y-109537500D01*
X146068500Y-107672100D02*
X144203100Y-109537500D01*
X146068500Y-100887100D02*
X146068500Y-107672100D01*
X149717900Y-97237700D02*
X146068500Y-100887100D01*
X149717900Y-88317600D02*
X149717900Y-97237700D01*
X149665300Y-88265000D02*
X149717900Y-88317600D01*
X137160000Y-115067300D02*
X137160000Y-116840000D01*
X137540200Y-114687100D02*
X137160000Y-115067300D01*
X134896600Y-94488000D02*
X134825300Y-94416700D01*
X137160000Y-94488000D02*
X134896600Y-94488000D01*
X129000000Y-94416700D02*
X134825300Y-94416700D01*
X135078800Y-98552000D02*
X134825300Y-98805500D01*
X137160000Y-98552000D02*
X135078800Y-98552000D01*
X129000000Y-98805500D02*
X134825300Y-98805500D01*
X148590000Y-104140000D02*
X148590000Y-106680000D01*
X149716200Y-116387500D02*
X148844000Y-117259700D01*
X149716200Y-107806200D02*
X149716200Y-116387500D01*
X148590000Y-106680000D02*
X149716200Y-107806200D01*
X148844000Y-118110000D02*
X148844000Y-117259700D01*
M02*
