G04 #@! TF.GenerationSoftware,KiCad,Pcbnew,8.0.1*
G04 #@! TF.CreationDate,2024-06-18T22:12:42-04:00*
G04 #@! TF.ProjectId,OdysseyDaughterCardHorizSyncGenerator,4f647973-7365-4794-9461-756768746572,1.0*
G04 #@! TF.SameCoordinates,Original*
G04 #@! TF.FileFunction,Copper,L2,Bot*
G04 #@! TF.FilePolarity,Positive*
%FSLAX46Y46*%
G04 Gerber Fmt 4.6, Leading zero omitted, Abs format (unit mm)*
G04 Created by KiCad (PCBNEW 8.0.1) date 2024-06-18 22:12:42*
%MOMM*%
%LPD*%
G01*
G04 APERTURE LIST*
G04 #@! TA.AperFunction,ComponentPad*
%ADD10R,1.500000X1.500000*%
G04 #@! TD*
G04 #@! TA.AperFunction,ComponentPad*
%ADD11C,1.500000*%
G04 #@! TD*
G04 #@! TA.AperFunction,SMDPad,CuDef*
%ADD12R,11.000000X3.250000*%
G04 #@! TD*
G04 #@! TA.AperFunction,ComponentPad*
%ADD13C,1.600000*%
G04 #@! TD*
G04 #@! TA.AperFunction,ComponentPad*
%ADD14R,1.600000X1.600000*%
G04 #@! TD*
G04 #@! TA.AperFunction,ComponentPad*
%ADD15C,2.600000*%
G04 #@! TD*
G04 #@! TA.AperFunction,ComponentPad*
%ADD16O,1.600000X1.600000*%
G04 #@! TD*
G04 #@! TA.AperFunction,Conductor*
%ADD17C,0.250000*%
G04 #@! TD*
G04 APERTURE END LIST*
D10*
X153924000Y-118110000D03*
D11*
X153924000Y-120650000D03*
X153924000Y-123190000D03*
D10*
X148844000Y-118110000D03*
D11*
X148844000Y-120650000D03*
X148844000Y-123190000D03*
D10*
X148590000Y-88265000D03*
D11*
X148590000Y-90805000D03*
X148590000Y-93345000D03*
D12*
X129000000Y-81250000D03*
X129000000Y-85638888D03*
X129000000Y-90027776D03*
X129000000Y-94416664D03*
X129000000Y-98805552D03*
X129000000Y-103194440D03*
X129000000Y-107583328D03*
X129000000Y-111972216D03*
X129000000Y-116361104D03*
X129000000Y-120749992D03*
D13*
X154305000Y-91520000D03*
X154305000Y-96520000D03*
X142160000Y-111760000D03*
X137160000Y-111760000D03*
X138684000Y-83788000D03*
D14*
X138684000Y-81788000D03*
D13*
X153416000Y-83280000D03*
D14*
X153416000Y-81280000D03*
D15*
X147780000Y-81788000D03*
X144780000Y-81788000D03*
D16*
X144780000Y-120650000D03*
D13*
X137160000Y-120650000D03*
D16*
X144780000Y-98552000D03*
D13*
X137160000Y-98552000D03*
D16*
X144780000Y-116840000D03*
D13*
X137160000Y-116840000D03*
D16*
X148590000Y-96520000D03*
D13*
X148590000Y-104140000D03*
D16*
X144780000Y-107315000D03*
D13*
X137160000Y-107315000D03*
D16*
X148590000Y-114300000D03*
D13*
X148590000Y-106680000D03*
D16*
X144780000Y-94488000D03*
D13*
X137160000Y-94488000D03*
D17*
X151605600Y-123190000D02*
X150224800Y-121809200D01*
X153924000Y-123190000D02*
X151605600Y-123190000D01*
X150224800Y-121809200D02*
X148844000Y-123190000D01*
X150224800Y-84232800D02*
X150224800Y-121809200D01*
X143654700Y-95613300D02*
X143654700Y-103194400D01*
X144780000Y-94488000D02*
X143654700Y-95613300D01*
X137160000Y-107315000D02*
X137160000Y-111760000D01*
X134825300Y-84521400D02*
X134825300Y-85638900D01*
X138684000Y-81788000D02*
X137558700Y-81788000D01*
X137558700Y-81788000D02*
X134825300Y-84521400D01*
X129000000Y-85638900D02*
X134825300Y-85638900D01*
X143654700Y-103194400D02*
X134825300Y-103194400D01*
X143654700Y-103194400D02*
X143654700Y-105064400D01*
X144780000Y-107315000D02*
X144780000Y-106189700D01*
X129000000Y-103194400D02*
X134825300Y-103194400D01*
X129000000Y-107583300D02*
X134825300Y-107583300D01*
X134825300Y-107583300D02*
X134825300Y-103194400D01*
X143654700Y-105064400D02*
X144780000Y-106189700D01*
X152290700Y-82166900D02*
X150224800Y-84232800D01*
X150224800Y-84232800D02*
X147780000Y-81788000D01*
X152290700Y-81280000D02*
X152290700Y-82166900D01*
X153416000Y-81280000D02*
X152290700Y-81280000D01*
X149717900Y-88317600D02*
X149717900Y-97237700D01*
X149665300Y-88265000D02*
X149717900Y-88317600D01*
X137540200Y-114687100D02*
X134825300Y-111972200D01*
X146068500Y-107672100D02*
X144203100Y-109537500D01*
X137540200Y-114687100D02*
X137160000Y-115067300D01*
X146068500Y-100887100D02*
X146068500Y-107672100D01*
X137160000Y-120650000D02*
X137160000Y-116840000D01*
X137160000Y-115067300D02*
X137160000Y-116840000D01*
X129000000Y-111972200D02*
X134825300Y-111972200D01*
X149717900Y-97237700D02*
X146068500Y-100887100D01*
X144203100Y-109537500D02*
X142689800Y-109537500D01*
X148590000Y-88265000D02*
X149665300Y-88265000D01*
X142689800Y-109537500D02*
X137540200Y-114687100D01*
X134896600Y-94488000D02*
X134825300Y-94416700D01*
X137160000Y-94488000D02*
X134896600Y-94488000D01*
X129000000Y-94416700D02*
X134825300Y-94416700D01*
X129000000Y-98805500D02*
X134825300Y-98805500D01*
X135078800Y-98552000D02*
X134825300Y-98805500D01*
X137160000Y-98552000D02*
X135078800Y-98552000D01*
X148590000Y-104140000D02*
X148590000Y-106680000D01*
G04 #@! TA.AperFunction,Conductor*
G36*
X126042539Y-77795185D02*
G01*
X126088294Y-77847989D01*
X126099500Y-77899500D01*
X126099500Y-78884982D01*
X126099500Y-78915018D01*
X126110994Y-78942767D01*
X126132233Y-78964006D01*
X126159982Y-78975500D01*
X126159984Y-78975500D01*
X130790016Y-78975500D01*
X130790018Y-78975500D01*
X130817767Y-78964006D01*
X130839006Y-78942767D01*
X130850500Y-78915018D01*
X130850500Y-77899500D01*
X130870185Y-77832461D01*
X130922989Y-77786706D01*
X130974500Y-77775500D01*
X156645500Y-77775500D01*
X156712539Y-77795185D01*
X156758294Y-77847989D01*
X156769500Y-77899500D01*
X156769500Y-124100500D01*
X156749815Y-124167539D01*
X156697011Y-124213294D01*
X156645500Y-124224500D01*
X154665928Y-124224500D01*
X154598889Y-124204815D01*
X154553134Y-124152011D01*
X154543190Y-124082853D01*
X154572215Y-124019297D01*
X154587264Y-124004646D01*
X154670410Y-123936410D01*
X154801685Y-123776450D01*
X154899232Y-123593954D01*
X154959300Y-123395934D01*
X154979583Y-123190000D01*
X154959300Y-122984066D01*
X154899232Y-122786046D01*
X154801685Y-122603550D01*
X154749702Y-122540209D01*
X154670410Y-122443589D01*
X154510452Y-122312317D01*
X154510453Y-122312317D01*
X154510450Y-122312315D01*
X154327954Y-122214768D01*
X154129934Y-122154700D01*
X154129932Y-122154699D01*
X154129934Y-122154699D01*
X153924000Y-122134417D01*
X153718067Y-122154699D01*
X153520043Y-122214769D01*
X153409898Y-122273643D01*
X153337550Y-122312315D01*
X153337548Y-122312316D01*
X153337547Y-122312317D01*
X153177589Y-122443589D01*
X153046315Y-122603549D01*
X153046310Y-122603555D01*
X152995320Y-122698953D01*
X152946358Y-122748798D01*
X152885962Y-122764500D01*
X151833210Y-122764500D01*
X151766171Y-122744815D01*
X151745529Y-122728181D01*
X150686619Y-121669271D01*
X150653134Y-121607948D01*
X150650300Y-121581590D01*
X150650300Y-120650000D01*
X152868417Y-120650000D01*
X152888699Y-120855932D01*
X152888700Y-120855934D01*
X152948768Y-121053954D01*
X153046315Y-121236450D01*
X153046317Y-121236452D01*
X153177589Y-121396410D01*
X153274209Y-121475702D01*
X153337550Y-121527685D01*
X153520046Y-121625232D01*
X153718066Y-121685300D01*
X153718065Y-121685300D01*
X153736529Y-121687118D01*
X153924000Y-121705583D01*
X154129934Y-121685300D01*
X154327954Y-121625232D01*
X154510450Y-121527685D01*
X154670410Y-121396410D01*
X154801685Y-121236450D01*
X154899232Y-121053954D01*
X154959300Y-120855934D01*
X154979583Y-120650000D01*
X154959300Y-120444066D01*
X154899232Y-120246046D01*
X154801685Y-120063550D01*
X154749702Y-120000209D01*
X154670410Y-119903589D01*
X154510452Y-119772317D01*
X154510453Y-119772317D01*
X154510450Y-119772315D01*
X154327954Y-119674768D01*
X154129934Y-119614700D01*
X154129932Y-119614699D01*
X154129934Y-119614699D01*
X153924000Y-119594417D01*
X153718067Y-119614699D01*
X153520043Y-119674769D01*
X153409898Y-119733643D01*
X153337550Y-119772315D01*
X153337548Y-119772316D01*
X153337547Y-119772317D01*
X153177589Y-119903589D01*
X153046317Y-120063547D01*
X153046315Y-120063550D01*
X153043841Y-120068179D01*
X152948769Y-120246043D01*
X152948768Y-120246045D01*
X152948768Y-120246046D01*
X152941898Y-120268692D01*
X152888699Y-120444067D01*
X152868417Y-120650000D01*
X150650300Y-120650000D01*
X150650300Y-118904856D01*
X152873500Y-118904856D01*
X152873502Y-118904882D01*
X152876413Y-118929987D01*
X152876415Y-118929991D01*
X152921793Y-119032764D01*
X152921794Y-119032765D01*
X153001235Y-119112206D01*
X153104009Y-119157585D01*
X153129135Y-119160500D01*
X154718864Y-119160499D01*
X154718879Y-119160497D01*
X154718882Y-119160497D01*
X154743987Y-119157586D01*
X154743988Y-119157585D01*
X154743991Y-119157585D01*
X154846765Y-119112206D01*
X154926206Y-119032765D01*
X154971585Y-118929991D01*
X154974500Y-118904865D01*
X154974499Y-117315136D01*
X154974497Y-117315117D01*
X154971586Y-117290012D01*
X154971585Y-117290010D01*
X154971585Y-117290009D01*
X154926206Y-117187235D01*
X154846765Y-117107794D01*
X154846763Y-117107793D01*
X154743992Y-117062415D01*
X154718865Y-117059500D01*
X153129143Y-117059500D01*
X153129117Y-117059502D01*
X153104012Y-117062413D01*
X153104008Y-117062415D01*
X153001235Y-117107793D01*
X152921794Y-117187234D01*
X152876415Y-117290006D01*
X152876415Y-117290008D01*
X152873500Y-117315131D01*
X152873500Y-118904856D01*
X150650300Y-118904856D01*
X150650300Y-96520000D01*
X153199785Y-96520000D01*
X153218602Y-96723082D01*
X153274417Y-96919247D01*
X153274422Y-96919260D01*
X153365327Y-97101821D01*
X153488237Y-97264581D01*
X153638958Y-97401980D01*
X153638960Y-97401982D01*
X153718935Y-97451500D01*
X153812363Y-97509348D01*
X154002544Y-97583024D01*
X154203024Y-97620500D01*
X154203026Y-97620500D01*
X154406974Y-97620500D01*
X154406976Y-97620500D01*
X154607456Y-97583024D01*
X154797637Y-97509348D01*
X154971041Y-97401981D01*
X155121764Y-97264579D01*
X155244673Y-97101821D01*
X155335582Y-96919250D01*
X155391397Y-96723083D01*
X155410215Y-96520000D01*
X155391397Y-96316917D01*
X155335582Y-96120750D01*
X155331054Y-96111657D01*
X155291272Y-96031764D01*
X155244673Y-95938179D01*
X155121764Y-95775421D01*
X155121762Y-95775418D01*
X154971041Y-95638019D01*
X154971039Y-95638017D01*
X154797642Y-95530655D01*
X154797635Y-95530651D01*
X154686653Y-95487657D01*
X154607456Y-95456976D01*
X154406976Y-95419500D01*
X154203024Y-95419500D01*
X154002544Y-95456976D01*
X154002541Y-95456976D01*
X154002541Y-95456977D01*
X153812364Y-95530651D01*
X153812357Y-95530655D01*
X153638960Y-95638017D01*
X153638958Y-95638019D01*
X153488237Y-95775418D01*
X153365327Y-95938178D01*
X153274422Y-96120739D01*
X153274417Y-96120752D01*
X153218602Y-96316917D01*
X153199785Y-96519999D01*
X153199785Y-96520000D01*
X150650300Y-96520000D01*
X150650300Y-91520000D01*
X153199785Y-91520000D01*
X153218602Y-91723082D01*
X153274417Y-91919247D01*
X153274422Y-91919260D01*
X153365327Y-92101821D01*
X153488237Y-92264581D01*
X153638958Y-92401980D01*
X153638960Y-92401982D01*
X153738141Y-92463392D01*
X153812363Y-92509348D01*
X154002544Y-92583024D01*
X154203024Y-92620500D01*
X154203026Y-92620500D01*
X154406974Y-92620500D01*
X154406976Y-92620500D01*
X154607456Y-92583024D01*
X154797637Y-92509348D01*
X154971041Y-92401981D01*
X155121764Y-92264579D01*
X155244673Y-92101821D01*
X155335582Y-91919250D01*
X155391397Y-91723083D01*
X155410215Y-91520000D01*
X155391397Y-91316917D01*
X155335582Y-91120750D01*
X155244673Y-90938179D01*
X155121764Y-90775421D01*
X155121762Y-90775418D01*
X154971041Y-90638019D01*
X154971039Y-90638017D01*
X154797642Y-90530655D01*
X154797635Y-90530651D01*
X154702546Y-90493814D01*
X154607456Y-90456976D01*
X154406976Y-90419500D01*
X154203024Y-90419500D01*
X154002544Y-90456976D01*
X154002541Y-90456976D01*
X154002541Y-90456977D01*
X153812364Y-90530651D01*
X153812357Y-90530655D01*
X153638960Y-90638017D01*
X153638958Y-90638019D01*
X153488237Y-90775418D01*
X153365327Y-90938178D01*
X153274422Y-91120739D01*
X153274417Y-91120752D01*
X153218602Y-91316917D01*
X153199785Y-91519999D01*
X153199785Y-91520000D01*
X150650300Y-91520000D01*
X150650300Y-84460409D01*
X150669985Y-84393370D01*
X150686614Y-84372733D01*
X151901935Y-83157412D01*
X151963256Y-83123929D01*
X152032948Y-83128913D01*
X152088881Y-83170785D01*
X152113298Y-83236249D01*
X152113142Y-83255902D01*
X152111034Y-83279997D01*
X152111034Y-83280002D01*
X152130858Y-83506599D01*
X152130860Y-83506610D01*
X152189730Y-83726317D01*
X152189735Y-83726331D01*
X152285863Y-83932478D01*
X152336974Y-84005472D01*
X153016000Y-83326446D01*
X153016000Y-83332661D01*
X153043259Y-83434394D01*
X153095920Y-83525606D01*
X153170394Y-83600080D01*
X153261606Y-83652741D01*
X153363339Y-83680000D01*
X153369553Y-83680000D01*
X152690526Y-84359025D01*
X152763513Y-84410132D01*
X152763521Y-84410136D01*
X152969668Y-84506264D01*
X152969682Y-84506269D01*
X153189389Y-84565139D01*
X153189400Y-84565141D01*
X153415998Y-84584966D01*
X153416002Y-84584966D01*
X153642599Y-84565141D01*
X153642610Y-84565139D01*
X153862317Y-84506269D01*
X153862331Y-84506264D01*
X154068478Y-84410136D01*
X154141471Y-84359024D01*
X153462447Y-83680000D01*
X153468661Y-83680000D01*
X153570394Y-83652741D01*
X153661606Y-83600080D01*
X153736080Y-83525606D01*
X153788741Y-83434394D01*
X153816000Y-83332661D01*
X153816000Y-83326447D01*
X154495024Y-84005471D01*
X154546136Y-83932478D01*
X154642264Y-83726331D01*
X154642269Y-83726317D01*
X154701139Y-83506610D01*
X154701141Y-83506599D01*
X154720966Y-83280002D01*
X154720966Y-83279997D01*
X154701141Y-83053400D01*
X154701139Y-83053389D01*
X154642269Y-82833682D01*
X154642265Y-82833673D01*
X154546133Y-82627516D01*
X154546129Y-82627510D01*
X154419383Y-82446499D01*
X154397055Y-82380293D01*
X154414065Y-82312526D01*
X154433273Y-82287697D01*
X154468206Y-82252765D01*
X154513585Y-82149991D01*
X154516500Y-82124865D01*
X154516499Y-80435136D01*
X154516497Y-80435117D01*
X154513586Y-80410012D01*
X154513585Y-80410010D01*
X154513585Y-80410009D01*
X154468206Y-80307235D01*
X154388765Y-80227794D01*
X154331065Y-80202317D01*
X154285992Y-80182415D01*
X154260865Y-80179500D01*
X152571143Y-80179500D01*
X152571117Y-80179502D01*
X152546012Y-80182413D01*
X152546008Y-80182415D01*
X152443235Y-80227793D01*
X152363794Y-80307234D01*
X152318415Y-80410006D01*
X152318415Y-80410008D01*
X152315500Y-80435131D01*
X152315500Y-80737696D01*
X152295815Y-80804735D01*
X152243011Y-80850490D01*
X152223594Y-80857471D01*
X152126461Y-80883497D01*
X152126460Y-80883498D01*
X152029440Y-80939513D01*
X152029434Y-80939517D01*
X151950217Y-81018734D01*
X151950213Y-81018740D01*
X151894198Y-81115760D01*
X151894197Y-81115763D01*
X151865200Y-81223982D01*
X151865200Y-81939289D01*
X151845515Y-82006328D01*
X151828881Y-82026970D01*
X150312480Y-83543370D01*
X150251157Y-83576855D01*
X150181465Y-83571871D01*
X150137118Y-83543370D01*
X149239805Y-82646057D01*
X149206320Y-82584734D01*
X149211304Y-82515042D01*
X149212925Y-82510923D01*
X149306873Y-82284110D01*
X149314398Y-82252765D01*
X149365683Y-82039148D01*
X149385449Y-81788000D01*
X149365683Y-81536852D01*
X149306873Y-81291889D01*
X149233920Y-81115763D01*
X149210466Y-81059140D01*
X149078839Y-80844346D01*
X149078838Y-80844343D01*
X149041875Y-80801066D01*
X148915224Y-80652776D01*
X148788571Y-80544604D01*
X148723656Y-80489161D01*
X148723653Y-80489160D01*
X148508859Y-80357533D01*
X148276110Y-80261126D01*
X148031151Y-80202317D01*
X147780000Y-80182551D01*
X147528848Y-80202317D01*
X147283889Y-80261126D01*
X147051140Y-80357533D01*
X146836346Y-80489160D01*
X146836343Y-80489161D01*
X146644776Y-80652776D01*
X146481161Y-80844343D01*
X146481160Y-80844346D01*
X146385727Y-81000078D01*
X146333915Y-81046953D01*
X146264985Y-81058376D01*
X146200823Y-81030718D01*
X146174273Y-81000078D01*
X146078839Y-80844346D01*
X146078838Y-80844343D01*
X146041875Y-80801066D01*
X145915224Y-80652776D01*
X145788571Y-80544604D01*
X145723656Y-80489161D01*
X145723653Y-80489160D01*
X145508859Y-80357533D01*
X145276110Y-80261126D01*
X145031151Y-80202317D01*
X144780000Y-80182551D01*
X144528848Y-80202317D01*
X144283889Y-80261126D01*
X144051140Y-80357533D01*
X143836346Y-80489160D01*
X143836343Y-80489161D01*
X143644776Y-80652776D01*
X143481161Y-80844343D01*
X143481160Y-80844346D01*
X143349533Y-81059140D01*
X143253126Y-81291889D01*
X143194317Y-81536848D01*
X143174551Y-81788000D01*
X143194317Y-82039151D01*
X143253126Y-82284110D01*
X143349533Y-82516859D01*
X143481160Y-82731653D01*
X143481161Y-82731656D01*
X143481164Y-82731659D01*
X143644776Y-82923224D01*
X143717841Y-82985627D01*
X143836343Y-83086838D01*
X143836346Y-83086839D01*
X144051140Y-83218466D01*
X144283889Y-83314873D01*
X144528852Y-83373683D01*
X144780000Y-83393449D01*
X145031148Y-83373683D01*
X145276111Y-83314873D01*
X145508859Y-83218466D01*
X145723659Y-83086836D01*
X145915224Y-82923224D01*
X146078836Y-82731659D01*
X146174273Y-82575921D01*
X146226085Y-82529046D01*
X146295014Y-82517623D01*
X146359177Y-82545280D01*
X146385727Y-82575921D01*
X146481160Y-82731653D01*
X146481161Y-82731656D01*
X146481164Y-82731659D01*
X146644776Y-82923224D01*
X146717841Y-82985627D01*
X146836343Y-83086838D01*
X146836346Y-83086839D01*
X147051140Y-83218466D01*
X147283889Y-83314873D01*
X147528852Y-83373683D01*
X147780000Y-83393449D01*
X148031148Y-83373683D01*
X148276111Y-83314873D01*
X148438028Y-83247805D01*
X148502923Y-83220925D01*
X148572393Y-83213456D01*
X148634872Y-83244731D01*
X148638057Y-83247805D01*
X149762981Y-84372728D01*
X149796466Y-84434051D01*
X149799300Y-84460409D01*
X149799300Y-87249967D01*
X149779615Y-87317006D01*
X149726811Y-87362761D01*
X149657653Y-87372705D01*
X149594097Y-87343680D01*
X149587619Y-87337648D01*
X149512765Y-87262794D01*
X149409992Y-87217415D01*
X149384865Y-87214500D01*
X147795143Y-87214500D01*
X147795117Y-87214502D01*
X147770012Y-87217413D01*
X147770008Y-87217415D01*
X147667235Y-87262793D01*
X147587794Y-87342234D01*
X147542415Y-87445006D01*
X147542415Y-87445008D01*
X147539500Y-87470131D01*
X147539500Y-89059856D01*
X147539502Y-89059882D01*
X147542413Y-89084987D01*
X147542415Y-89084991D01*
X147587793Y-89187764D01*
X147587794Y-89187765D01*
X147667235Y-89267206D01*
X147770009Y-89312585D01*
X147795135Y-89315500D01*
X149168400Y-89315499D01*
X149235439Y-89335184D01*
X149281194Y-89387987D01*
X149292400Y-89439499D01*
X149292400Y-89782409D01*
X149272715Y-89849448D01*
X149219911Y-89895203D01*
X149150753Y-89905147D01*
X149109947Y-89891767D01*
X148993958Y-89829769D01*
X148837830Y-89782409D01*
X148795934Y-89769700D01*
X148795932Y-89769699D01*
X148795934Y-89769699D01*
X148590000Y-89749417D01*
X148384067Y-89769699D01*
X148186043Y-89829769D01*
X148075898Y-89888643D01*
X148003550Y-89927315D01*
X148003548Y-89927316D01*
X148003547Y-89927317D01*
X147843589Y-90058589D01*
X147712317Y-90218547D01*
X147614769Y-90401043D01*
X147554699Y-90599067D01*
X147534417Y-90805000D01*
X147554699Y-91010932D01*
X147554700Y-91010934D01*
X147614768Y-91208954D01*
X147712315Y-91391450D01*
X147712317Y-91391452D01*
X147843589Y-91551410D01*
X147940209Y-91630702D01*
X148003550Y-91682685D01*
X148186046Y-91780232D01*
X148384066Y-91840300D01*
X148384065Y-91840300D01*
X148408255Y-91842682D01*
X148497673Y-91851489D01*
X148562459Y-91877650D01*
X148590431Y-91917180D01*
X148608202Y-91885830D01*
X148670049Y-91853323D01*
X148682317Y-91851490D01*
X148795934Y-91840300D01*
X148993954Y-91780232D01*
X149109947Y-91718231D01*
X149178349Y-91703990D01*
X149243593Y-91728990D01*
X149284964Y-91785294D01*
X149292400Y-91827590D01*
X149292400Y-92098670D01*
X149272715Y-92165709D01*
X149219911Y-92211464D01*
X149150753Y-92221408D01*
X149115996Y-92211053D01*
X149019155Y-92165896D01*
X149019150Y-92165894D01*
X148807894Y-92109289D01*
X148807884Y-92109287D01*
X148683673Y-92098420D01*
X148618604Y-92072967D01*
X148589494Y-92032766D01*
X148570821Y-92064889D01*
X148508623Y-92096720D01*
X148496326Y-92098420D01*
X148372115Y-92109287D01*
X148372105Y-92109289D01*
X148160849Y-92165894D01*
X148160840Y-92165898D01*
X147962613Y-92258333D01*
X147900427Y-92301874D01*
X148543553Y-92945000D01*
X148537339Y-92945000D01*
X148435606Y-92972259D01*
X148344394Y-93024920D01*
X148269920Y-93099394D01*
X148217259Y-93190606D01*
X148190000Y-93292339D01*
X148190000Y-93298554D01*
X147546874Y-92655428D01*
X147503333Y-92717613D01*
X147410898Y-92915840D01*
X147410894Y-92915849D01*
X147354289Y-93127105D01*
X147354287Y-93127115D01*
X147335225Y-93344999D01*
X147335225Y-93345000D01*
X147354287Y-93562884D01*
X147354289Y-93562894D01*
X147410894Y-93774150D01*
X147410898Y-93774159D01*
X147503333Y-93972387D01*
X147546874Y-94034571D01*
X148190000Y-93391445D01*
X148190000Y-93397661D01*
X148217259Y-93499394D01*
X148269920Y-93590606D01*
X148344394Y-93665080D01*
X148435606Y-93717741D01*
X148537339Y-93745000D01*
X148543551Y-93745000D01*
X147900427Y-94388124D01*
X147962612Y-94431666D01*
X148160840Y-94524101D01*
X148160849Y-94524105D01*
X148372105Y-94580710D01*
X148372115Y-94580712D01*
X148589999Y-94599775D01*
X148590001Y-94599775D01*
X148807884Y-94580712D01*
X148807894Y-94580710D01*
X149019150Y-94524105D01*
X149019159Y-94524101D01*
X149115995Y-94478947D01*
X149185073Y-94468455D01*
X149248857Y-94496975D01*
X149287096Y-94555451D01*
X149292400Y-94591329D01*
X149292400Y-95437909D01*
X149272715Y-95504948D01*
X149219911Y-95550703D01*
X149150753Y-95560647D01*
X149103123Y-95543336D01*
X149082642Y-95530655D01*
X149082635Y-95530651D01*
X148971653Y-95487657D01*
X148892456Y-95456976D01*
X148691976Y-95419500D01*
X148488024Y-95419500D01*
X148287544Y-95456976D01*
X148287541Y-95456976D01*
X148287541Y-95456977D01*
X148097364Y-95530651D01*
X148097357Y-95530655D01*
X147923960Y-95638017D01*
X147923958Y-95638019D01*
X147773237Y-95775418D01*
X147650327Y-95938178D01*
X147559422Y-96120739D01*
X147559417Y-96120752D01*
X147503602Y-96316917D01*
X147484785Y-96519999D01*
X147484785Y-96520000D01*
X147503602Y-96723082D01*
X147559417Y-96919247D01*
X147559422Y-96919260D01*
X147650327Y-97101821D01*
X147773237Y-97264581D01*
X147923958Y-97401980D01*
X147923960Y-97401982D01*
X148003935Y-97451500D01*
X148097363Y-97509348D01*
X148287544Y-97583024D01*
X148463476Y-97615911D01*
X148525755Y-97647578D01*
X148561028Y-97707890D01*
X148558094Y-97777698D01*
X148528370Y-97825480D01*
X145807237Y-100546615D01*
X145728017Y-100625834D01*
X145728013Y-100625840D01*
X145671998Y-100722860D01*
X145671997Y-100722863D01*
X145643000Y-100831082D01*
X145643000Y-106094069D01*
X145623315Y-106161108D01*
X145570511Y-106206863D01*
X145501353Y-106216807D01*
X145447879Y-106195646D01*
X145432483Y-106184866D01*
X145226328Y-106088734D01*
X145030000Y-106036127D01*
X145030000Y-106999314D01*
X145025606Y-106994920D01*
X144934394Y-106942259D01*
X144832661Y-106915000D01*
X144727339Y-106915000D01*
X144625606Y-106942259D01*
X144534394Y-106994920D01*
X144530000Y-106999314D01*
X144530000Y-106036127D01*
X144333671Y-106088734D01*
X144127517Y-106184865D01*
X143941179Y-106315342D01*
X143780342Y-106476179D01*
X143649865Y-106662517D01*
X143553734Y-106868673D01*
X143553730Y-106868682D01*
X143501127Y-107064999D01*
X143501128Y-107065000D01*
X144464314Y-107065000D01*
X144459920Y-107069394D01*
X144407259Y-107160606D01*
X144380000Y-107262339D01*
X144380000Y-107367661D01*
X144407259Y-107469394D01*
X144459920Y-107560606D01*
X144464314Y-107565000D01*
X143501128Y-107565000D01*
X143553730Y-107761317D01*
X143553734Y-107761326D01*
X143649865Y-107967482D01*
X143780342Y-108153820D01*
X143941179Y-108314657D01*
X144127517Y-108445134D01*
X144333673Y-108541265D01*
X144333687Y-108541271D01*
X144334355Y-108541450D01*
X144334616Y-108541609D01*
X144338769Y-108543121D01*
X144338465Y-108543955D01*
X144394016Y-108577813D01*
X144424547Y-108640660D01*
X144416253Y-108710036D01*
X144389945Y-108748906D01*
X144063171Y-109075681D01*
X144001848Y-109109166D01*
X143975490Y-109112000D01*
X142745818Y-109112000D01*
X142633781Y-109112000D01*
X142525563Y-109140997D01*
X142525561Y-109140998D01*
X142525560Y-109140998D01*
X142428540Y-109197013D01*
X142428534Y-109197017D01*
X137627881Y-113997671D01*
X137566558Y-114031156D01*
X137496866Y-114026172D01*
X137452519Y-113997671D01*
X135214848Y-111760000D01*
X136054785Y-111760000D01*
X136073602Y-111963082D01*
X136129417Y-112159247D01*
X136129422Y-112159260D01*
X136220327Y-112341821D01*
X136343237Y-112504581D01*
X136493958Y-112641980D01*
X136493960Y-112641982D01*
X136593141Y-112703392D01*
X136667363Y-112749348D01*
X136857544Y-112823024D01*
X137058024Y-112860500D01*
X137058026Y-112860500D01*
X137261974Y-112860500D01*
X137261976Y-112860500D01*
X137462456Y-112823024D01*
X137652637Y-112749348D01*
X137826041Y-112641981D01*
X137976764Y-112504579D01*
X138099673Y-112341821D01*
X138190582Y-112159250D01*
X138246397Y-111963083D01*
X138265215Y-111760000D01*
X138246397Y-111556917D01*
X138190582Y-111360750D01*
X138099673Y-111178179D01*
X137976764Y-111015421D01*
X137976762Y-111015418D01*
X137826041Y-110878019D01*
X137826039Y-110878017D01*
X137647763Y-110767634D01*
X137648620Y-110766248D01*
X137602987Y-110723934D01*
X137585500Y-110660444D01*
X137585500Y-108414555D01*
X137605185Y-108347516D01*
X137648555Y-108308645D01*
X137647763Y-108307366D01*
X137826039Y-108196982D01*
X137826038Y-108196982D01*
X137826041Y-108196981D01*
X137976764Y-108059579D01*
X138099673Y-107896821D01*
X138190582Y-107714250D01*
X138246397Y-107518083D01*
X138265215Y-107315000D01*
X138246397Y-107111917D01*
X138190582Y-106915750D01*
X138174315Y-106883082D01*
X138146272Y-106826764D01*
X138099673Y-106733179D01*
X137976764Y-106570421D01*
X137976762Y-106570418D01*
X137826041Y-106433019D01*
X137826039Y-106433017D01*
X137652642Y-106325655D01*
X137652635Y-106325651D01*
X137536702Y-106280739D01*
X137462456Y-106251976D01*
X137261976Y-106214500D01*
X137058024Y-106214500D01*
X136857544Y-106251976D01*
X136857541Y-106251976D01*
X136857541Y-106251977D01*
X136667364Y-106325651D01*
X136667357Y-106325655D01*
X136493960Y-106433017D01*
X136493958Y-106433019D01*
X136343237Y-106570418D01*
X136220327Y-106733178D01*
X136129422Y-106915739D01*
X136129417Y-106915752D01*
X136073602Y-107111917D01*
X136054785Y-107314999D01*
X136054785Y-107315000D01*
X136073602Y-107518082D01*
X136129417Y-107714247D01*
X136129422Y-107714260D01*
X136220327Y-107896821D01*
X136343237Y-108059581D01*
X136493958Y-108196980D01*
X136493960Y-108196982D01*
X136672237Y-108307366D01*
X136671375Y-108308756D01*
X136716998Y-108351041D01*
X136734500Y-108414555D01*
X136734500Y-110660444D01*
X136714815Y-110727483D01*
X136671447Y-110766359D01*
X136672237Y-110767634D01*
X136493960Y-110878017D01*
X136493958Y-110878019D01*
X136343237Y-111015418D01*
X136220327Y-111178178D01*
X136129422Y-111360739D01*
X136129417Y-111360752D01*
X136073602Y-111556917D01*
X136054785Y-111759999D01*
X136054785Y-111760000D01*
X135214848Y-111760000D01*
X135086565Y-111631717D01*
X135086563Y-111631715D01*
X134989539Y-111575698D01*
X134989538Y-111575697D01*
X134940898Y-111562664D01*
X134892404Y-111549670D01*
X134832745Y-111513306D01*
X134802216Y-111450459D01*
X134800499Y-111429896D01*
X134800499Y-110302359D01*
X134800499Y-110302352D01*
X134800497Y-110302333D01*
X134797586Y-110277228D01*
X134797585Y-110277226D01*
X134797585Y-110277225D01*
X134752206Y-110174451D01*
X134672765Y-110095010D01*
X134672763Y-110095009D01*
X134569992Y-110049631D01*
X134544865Y-110046716D01*
X123455143Y-110046716D01*
X123455117Y-110046718D01*
X123430012Y-110049629D01*
X123430008Y-110049631D01*
X123327235Y-110095009D01*
X123247794Y-110174450D01*
X123202415Y-110277222D01*
X123202415Y-110277224D01*
X123199500Y-110302347D01*
X123199500Y-113642072D01*
X123199502Y-113642098D01*
X123202413Y-113667203D01*
X123202415Y-113667207D01*
X123247793Y-113769980D01*
X123247794Y-113769981D01*
X123327235Y-113849422D01*
X123430009Y-113894801D01*
X123455135Y-113897716D01*
X134544864Y-113897715D01*
X134544879Y-113897713D01*
X134544882Y-113897713D01*
X134569987Y-113894802D01*
X134569988Y-113894801D01*
X134569991Y-113894801D01*
X134672765Y-113849422D01*
X134752206Y-113769981D01*
X134797585Y-113667207D01*
X134800500Y-113642081D01*
X134800499Y-112848508D01*
X134820183Y-112781470D01*
X134872987Y-112735715D01*
X134942146Y-112725771D01*
X135005702Y-112754796D01*
X135012180Y-112760828D01*
X136850771Y-114599419D01*
X136884256Y-114660742D01*
X136879272Y-114730434D01*
X136850771Y-114774781D01*
X136819517Y-114806034D01*
X136819513Y-114806040D01*
X136763498Y-114903060D01*
X136763497Y-114903063D01*
X136734500Y-115011282D01*
X136734500Y-115740444D01*
X136714815Y-115807483D01*
X136671447Y-115846359D01*
X136672237Y-115847634D01*
X136493960Y-115958017D01*
X136493958Y-115958019D01*
X136343237Y-116095418D01*
X136220327Y-116258178D01*
X136129422Y-116440739D01*
X136129417Y-116440752D01*
X136073602Y-116636917D01*
X136054785Y-116839999D01*
X136054785Y-116840000D01*
X136073602Y-117043082D01*
X136129417Y-117239247D01*
X136129422Y-117239260D01*
X136220327Y-117421821D01*
X136343237Y-117584581D01*
X136493958Y-117721980D01*
X136493960Y-117721982D01*
X136672237Y-117832366D01*
X136671375Y-117833756D01*
X136716998Y-117876041D01*
X136734500Y-117939555D01*
X136734500Y-119550444D01*
X136714815Y-119617483D01*
X136671447Y-119656359D01*
X136672237Y-119657634D01*
X136493960Y-119768017D01*
X136493958Y-119768019D01*
X136343237Y-119905418D01*
X136220327Y-120068178D01*
X136129422Y-120250739D01*
X136129417Y-120250752D01*
X136073602Y-120446917D01*
X136054785Y-120649999D01*
X136054785Y-120650000D01*
X136073602Y-120853082D01*
X136129417Y-121049247D01*
X136129422Y-121049260D01*
X136220327Y-121231821D01*
X136343237Y-121394581D01*
X136493958Y-121531980D01*
X136493960Y-121531982D01*
X136574079Y-121581589D01*
X136667363Y-121639348D01*
X136857544Y-121713024D01*
X137058024Y-121750500D01*
X137058026Y-121750500D01*
X137261974Y-121750500D01*
X137261976Y-121750500D01*
X137462456Y-121713024D01*
X137652637Y-121639348D01*
X137826041Y-121531981D01*
X137954122Y-121415219D01*
X137976762Y-121394581D01*
X137976764Y-121394579D01*
X138099673Y-121231821D01*
X138190582Y-121049250D01*
X138246397Y-120853083D01*
X138265215Y-120650000D01*
X143674785Y-120650000D01*
X143693602Y-120853082D01*
X143749417Y-121049247D01*
X143749422Y-121049260D01*
X143840327Y-121231821D01*
X143963237Y-121394581D01*
X144113958Y-121531980D01*
X144113960Y-121531982D01*
X144194079Y-121581589D01*
X144287363Y-121639348D01*
X144477544Y-121713024D01*
X144678024Y-121750500D01*
X144678026Y-121750500D01*
X144881974Y-121750500D01*
X144881976Y-121750500D01*
X145082456Y-121713024D01*
X145272637Y-121639348D01*
X145446041Y-121531981D01*
X145574122Y-121415219D01*
X145596762Y-121394581D01*
X145596764Y-121394579D01*
X145719673Y-121231821D01*
X145810582Y-121049250D01*
X145866397Y-120853083D01*
X145885215Y-120650000D01*
X145866397Y-120446917D01*
X145810582Y-120250750D01*
X145808238Y-120246043D01*
X145766272Y-120161764D01*
X145719673Y-120068179D01*
X145619747Y-119935855D01*
X145596762Y-119905418D01*
X145446041Y-119768019D01*
X145446039Y-119768017D01*
X145272642Y-119660655D01*
X145272635Y-119660651D01*
X145152043Y-119613934D01*
X145082456Y-119586976D01*
X144881976Y-119549500D01*
X144678024Y-119549500D01*
X144477544Y-119586976D01*
X144477541Y-119586976D01*
X144477541Y-119586977D01*
X144287364Y-119660651D01*
X144287357Y-119660655D01*
X144113960Y-119768017D01*
X144113958Y-119768019D01*
X143963237Y-119905418D01*
X143840327Y-120068178D01*
X143749422Y-120250739D01*
X143749417Y-120250752D01*
X143693602Y-120446917D01*
X143674785Y-120649999D01*
X143674785Y-120650000D01*
X138265215Y-120650000D01*
X138246397Y-120446917D01*
X138190582Y-120250750D01*
X138188238Y-120246043D01*
X138146272Y-120161764D01*
X138099673Y-120068179D01*
X137999747Y-119935855D01*
X137976762Y-119905418D01*
X137826041Y-119768019D01*
X137826039Y-119768017D01*
X137647763Y-119657634D01*
X137648620Y-119656248D01*
X137602987Y-119613934D01*
X137585500Y-119550444D01*
X137585500Y-117939555D01*
X137605185Y-117872516D01*
X137648555Y-117833645D01*
X137647763Y-117832366D01*
X137826039Y-117721982D01*
X137826038Y-117721982D01*
X137826041Y-117721981D01*
X137976764Y-117584579D01*
X138099673Y-117421821D01*
X138190582Y-117239250D01*
X138246397Y-117043083D01*
X138265215Y-116840000D01*
X143674785Y-116840000D01*
X143693602Y-117043082D01*
X143749417Y-117239247D01*
X143749422Y-117239260D01*
X143840327Y-117421821D01*
X143963237Y-117584581D01*
X144113958Y-117721980D01*
X144113960Y-117721982D01*
X144213141Y-117783392D01*
X144287363Y-117829348D01*
X144477544Y-117903024D01*
X144678024Y-117940500D01*
X144678026Y-117940500D01*
X144881974Y-117940500D01*
X144881976Y-117940500D01*
X145082456Y-117903024D01*
X145272637Y-117829348D01*
X145446041Y-117721981D01*
X145596764Y-117584579D01*
X145719673Y-117421821D01*
X145810582Y-117239250D01*
X145866397Y-117043083D01*
X145885215Y-116840000D01*
X145866397Y-116636917D01*
X145810582Y-116440750D01*
X145719673Y-116258179D01*
X145596764Y-116095421D01*
X145596762Y-116095418D01*
X145446041Y-115958019D01*
X145446039Y-115958017D01*
X145272642Y-115850655D01*
X145272635Y-115850651D01*
X145152043Y-115803934D01*
X145082456Y-115776976D01*
X144881976Y-115739500D01*
X144678024Y-115739500D01*
X144477544Y-115776976D01*
X144477541Y-115776976D01*
X144477541Y-115776977D01*
X144287364Y-115850651D01*
X144287357Y-115850655D01*
X144113960Y-115958017D01*
X144113958Y-115958019D01*
X143963237Y-116095418D01*
X143840327Y-116258178D01*
X143749422Y-116440739D01*
X143749417Y-116440752D01*
X143693602Y-116636917D01*
X143674785Y-116839999D01*
X143674785Y-116840000D01*
X138265215Y-116840000D01*
X138246397Y-116636917D01*
X138190582Y-116440750D01*
X138099673Y-116258179D01*
X137976764Y-116095421D01*
X137976762Y-116095418D01*
X137826041Y-115958019D01*
X137826039Y-115958017D01*
X137647763Y-115847634D01*
X137648620Y-115846248D01*
X137602987Y-115803934D01*
X137585500Y-115740444D01*
X137585500Y-115294910D01*
X137605185Y-115227871D01*
X137621819Y-115207229D01*
X137880685Y-114948363D01*
X138581709Y-114247339D01*
X140878409Y-111950637D01*
X140939730Y-111917154D01*
X141009422Y-111922138D01*
X141065355Y-111964010D01*
X141085354Y-112004385D01*
X141129417Y-112159247D01*
X141129422Y-112159260D01*
X141220327Y-112341821D01*
X141343237Y-112504581D01*
X141493958Y-112641980D01*
X141493960Y-112641982D01*
X141593141Y-112703392D01*
X141667363Y-112749348D01*
X141857544Y-112823024D01*
X142058024Y-112860500D01*
X142058026Y-112860500D01*
X142261974Y-112860500D01*
X142261976Y-112860500D01*
X142462456Y-112823024D01*
X142652637Y-112749348D01*
X142826041Y-112641981D01*
X142976764Y-112504579D01*
X143099673Y-112341821D01*
X143190582Y-112159250D01*
X143246397Y-111963083D01*
X143265215Y-111760000D01*
X143246397Y-111556917D01*
X143190582Y-111360750D01*
X143099673Y-111178179D01*
X142976764Y-111015421D01*
X142976762Y-111015418D01*
X142826041Y-110878019D01*
X142826039Y-110878017D01*
X142652642Y-110770655D01*
X142652635Y-110770651D01*
X142462455Y-110696975D01*
X142415342Y-110688168D01*
X142353062Y-110656499D01*
X142317789Y-110596187D01*
X142320724Y-110526379D01*
X142350446Y-110478601D01*
X142829729Y-109999319D01*
X142891052Y-109965834D01*
X142917410Y-109963000D01*
X144259116Y-109963000D01*
X144259118Y-109963000D01*
X144367337Y-109934003D01*
X144464363Y-109877985D01*
X146408985Y-107933363D01*
X146465003Y-107836337D01*
X146494000Y-107728118D01*
X146494000Y-107616082D01*
X146494000Y-101114710D01*
X146513685Y-101047671D01*
X146530319Y-101027029D01*
X149587619Y-97969729D01*
X149648942Y-97936244D01*
X149718634Y-97941228D01*
X149774567Y-97983100D01*
X149798984Y-98048564D01*
X149799300Y-98057410D01*
X149799300Y-103572447D01*
X149779615Y-103639486D01*
X149726811Y-103685241D01*
X149657653Y-103695185D01*
X149594097Y-103666160D01*
X149564300Y-103627719D01*
X149548813Y-103596619D01*
X149529673Y-103558179D01*
X149470704Y-103480091D01*
X149406762Y-103395418D01*
X149256041Y-103258019D01*
X149256039Y-103258017D01*
X149082642Y-103150655D01*
X149082635Y-103150651D01*
X148987546Y-103113814D01*
X148892456Y-103076976D01*
X148691976Y-103039500D01*
X148488024Y-103039500D01*
X148287544Y-103076976D01*
X148287541Y-103076976D01*
X148287541Y-103076977D01*
X148097364Y-103150651D01*
X148097357Y-103150655D01*
X147923960Y-103258017D01*
X147923958Y-103258019D01*
X147773237Y-103395418D01*
X147650327Y-103558178D01*
X147559422Y-103740739D01*
X147559417Y-103740752D01*
X147503602Y-103936917D01*
X147484785Y-104139999D01*
X147484785Y-104140000D01*
X147503602Y-104343082D01*
X147559417Y-104539247D01*
X147559422Y-104539260D01*
X147650327Y-104721821D01*
X147773237Y-104884581D01*
X147923958Y-105021980D01*
X147923960Y-105021982D01*
X148102237Y-105132366D01*
X148101375Y-105133756D01*
X148146998Y-105176041D01*
X148164500Y-105239555D01*
X148164500Y-105580444D01*
X148144815Y-105647483D01*
X148101447Y-105686359D01*
X148102237Y-105687634D01*
X147923960Y-105798017D01*
X147923958Y-105798019D01*
X147773237Y-105935418D01*
X147650327Y-106098178D01*
X147559422Y-106280739D01*
X147559417Y-106280752D01*
X147503602Y-106476917D01*
X147484785Y-106679999D01*
X147484785Y-106680000D01*
X147503602Y-106883082D01*
X147559417Y-107079247D01*
X147559422Y-107079260D01*
X147650327Y-107261821D01*
X147773237Y-107424581D01*
X147923958Y-107561980D01*
X147923960Y-107561982D01*
X148011335Y-107616082D01*
X148097363Y-107669348D01*
X148287544Y-107743024D01*
X148488024Y-107780500D01*
X148488026Y-107780500D01*
X148691974Y-107780500D01*
X148691976Y-107780500D01*
X148892456Y-107743024D01*
X149082637Y-107669348D01*
X149256041Y-107561981D01*
X149406764Y-107424579D01*
X149529673Y-107261821D01*
X149564300Y-107192281D01*
X149611802Y-107141044D01*
X149679465Y-107123622D01*
X149745806Y-107145547D01*
X149789761Y-107199858D01*
X149799300Y-107247552D01*
X149799300Y-113371460D01*
X149779615Y-113438499D01*
X149726811Y-113484254D01*
X149657653Y-113494198D01*
X149594097Y-113465173D01*
X149587619Y-113459141D01*
X149428820Y-113300342D01*
X149242482Y-113169865D01*
X149036328Y-113073734D01*
X148840000Y-113021127D01*
X148840000Y-113984314D01*
X148835606Y-113979920D01*
X148744394Y-113927259D01*
X148642661Y-113900000D01*
X148537339Y-113900000D01*
X148435606Y-113927259D01*
X148344394Y-113979920D01*
X148340000Y-113984314D01*
X148340000Y-113021127D01*
X148143671Y-113073734D01*
X147937517Y-113169865D01*
X147751179Y-113300342D01*
X147590342Y-113461179D01*
X147459865Y-113647517D01*
X147363734Y-113853673D01*
X147363730Y-113853682D01*
X147311127Y-114049999D01*
X147311128Y-114050000D01*
X148274314Y-114050000D01*
X148269920Y-114054394D01*
X148217259Y-114145606D01*
X148190000Y-114247339D01*
X148190000Y-114352661D01*
X148217259Y-114454394D01*
X148269920Y-114545606D01*
X148274314Y-114550000D01*
X147311128Y-114550000D01*
X147363730Y-114746317D01*
X147363734Y-114746326D01*
X147459865Y-114952482D01*
X147590342Y-115138820D01*
X147751179Y-115299657D01*
X147937517Y-115430134D01*
X148143673Y-115526265D01*
X148143682Y-115526269D01*
X148339999Y-115578872D01*
X148340000Y-115578871D01*
X148340000Y-114615686D01*
X148344394Y-114620080D01*
X148435606Y-114672741D01*
X148537339Y-114700000D01*
X148642661Y-114700000D01*
X148744394Y-114672741D01*
X148835606Y-114620080D01*
X148840000Y-114615686D01*
X148840000Y-115578872D01*
X149036317Y-115526269D01*
X149036326Y-115526265D01*
X149242482Y-115430134D01*
X149428820Y-115299657D01*
X149587619Y-115140859D01*
X149648942Y-115107374D01*
X149718634Y-115112358D01*
X149774567Y-115154230D01*
X149798984Y-115219694D01*
X149799300Y-115228540D01*
X149799300Y-116938895D01*
X149779615Y-117005934D01*
X149726811Y-117051689D01*
X149661010Y-117062069D01*
X149638866Y-117059500D01*
X148049143Y-117059500D01*
X148049117Y-117059502D01*
X148024012Y-117062413D01*
X148024008Y-117062415D01*
X147921235Y-117107793D01*
X147841794Y-117187234D01*
X147796415Y-117290006D01*
X147796415Y-117290008D01*
X147793500Y-117315131D01*
X147793500Y-118904856D01*
X147793502Y-118904882D01*
X147796413Y-118929987D01*
X147796415Y-118929991D01*
X147841793Y-119032764D01*
X147841794Y-119032765D01*
X147921235Y-119112206D01*
X148024009Y-119157585D01*
X148049135Y-119160500D01*
X149638864Y-119160499D01*
X149661013Y-119157930D01*
X149729873Y-119169759D01*
X149781408Y-119216939D01*
X149799300Y-119281104D01*
X149799300Y-119813117D01*
X149779615Y-119880156D01*
X149726811Y-119925911D01*
X149657653Y-119935855D01*
X149595214Y-119907340D01*
X149595120Y-119907455D01*
X149594686Y-119907099D01*
X149594097Y-119906830D01*
X149592155Y-119905021D01*
X149430452Y-119772317D01*
X149430453Y-119772317D01*
X149430450Y-119772315D01*
X149247954Y-119674768D01*
X149049934Y-119614700D01*
X149049932Y-119614699D01*
X149049934Y-119614699D01*
X148844000Y-119594417D01*
X148638067Y-119614699D01*
X148440043Y-119674769D01*
X148329898Y-119733643D01*
X148257550Y-119772315D01*
X148257548Y-119772316D01*
X148257547Y-119772317D01*
X148097589Y-119903589D01*
X147966317Y-120063547D01*
X147966315Y-120063550D01*
X147963841Y-120068179D01*
X147868769Y-120246043D01*
X147868768Y-120246045D01*
X147868768Y-120246046D01*
X147861898Y-120268692D01*
X147808699Y-120444067D01*
X147788417Y-120650000D01*
X147808699Y-120855932D01*
X147808700Y-120855934D01*
X147868768Y-121053954D01*
X147966315Y-121236450D01*
X147966317Y-121236452D01*
X148097589Y-121396410D01*
X148194209Y-121475702D01*
X148257550Y-121527685D01*
X148440046Y-121625232D01*
X148638066Y-121685300D01*
X148638065Y-121685300D01*
X148656529Y-121687118D01*
X148844000Y-121705583D01*
X149049934Y-121685300D01*
X149247954Y-121625232D01*
X149430450Y-121527685D01*
X149590410Y-121396410D01*
X149590409Y-121396410D01*
X149595120Y-121392545D01*
X149596571Y-121394313D01*
X149648942Y-121365717D01*
X149718634Y-121370701D01*
X149774567Y-121412573D01*
X149798984Y-121478037D01*
X149799300Y-121486883D01*
X149799300Y-121581589D01*
X149779615Y-121648628D01*
X149762981Y-121669270D01*
X149277129Y-122155121D01*
X149215806Y-122188606D01*
X149153454Y-122186101D01*
X149049933Y-122154699D01*
X149049934Y-122154699D01*
X148844000Y-122134417D01*
X148638067Y-122154699D01*
X148440043Y-122214769D01*
X148329898Y-122273643D01*
X148257550Y-122312315D01*
X148257548Y-122312316D01*
X148257547Y-122312317D01*
X148097589Y-122443589D01*
X147966317Y-122603547D01*
X147966315Y-122603550D01*
X147953675Y-122627198D01*
X147868769Y-122786043D01*
X147808699Y-122984067D01*
X147788417Y-123190000D01*
X147808699Y-123395932D01*
X147838734Y-123494944D01*
X147868768Y-123593954D01*
X147966315Y-123776450D01*
X147966317Y-123776452D01*
X148097589Y-123936410D01*
X148180736Y-124004646D01*
X148220071Y-124062392D01*
X148221942Y-124132237D01*
X148185755Y-124192005D01*
X148122999Y-124222721D01*
X148102072Y-124224500D01*
X130974500Y-124224500D01*
X130907461Y-124204815D01*
X130861706Y-124152011D01*
X130850500Y-124100500D01*
X130850500Y-123084983D01*
X130850500Y-123084982D01*
X130839006Y-123057233D01*
X130817767Y-123035994D01*
X130790018Y-123024500D01*
X126190018Y-123024500D01*
X126159982Y-123024500D01*
X126132231Y-123035995D01*
X126110995Y-123057231D01*
X126099500Y-123084982D01*
X126099500Y-124100500D01*
X126079815Y-124167539D01*
X126027011Y-124213294D01*
X125975500Y-124224500D01*
X122624500Y-124224500D01*
X122557461Y-124204815D01*
X122511706Y-124152011D01*
X122500500Y-124100500D01*
X122500500Y-122419848D01*
X123199500Y-122419848D01*
X123199502Y-122419874D01*
X123202413Y-122444979D01*
X123202415Y-122444983D01*
X123247793Y-122547756D01*
X123247794Y-122547757D01*
X123327235Y-122627198D01*
X123430009Y-122672577D01*
X123455135Y-122675492D01*
X134544864Y-122675491D01*
X134544879Y-122675489D01*
X134544882Y-122675489D01*
X134569987Y-122672578D01*
X134569988Y-122672577D01*
X134569991Y-122672577D01*
X134672765Y-122627198D01*
X134752206Y-122547757D01*
X134797585Y-122444983D01*
X134800500Y-122419857D01*
X134800499Y-119080128D01*
X134800446Y-119079671D01*
X134797586Y-119055004D01*
X134797585Y-119055002D01*
X134797585Y-119055001D01*
X134752206Y-118952227D01*
X134672765Y-118872786D01*
X134672763Y-118872785D01*
X134569992Y-118827407D01*
X134544865Y-118824492D01*
X123455143Y-118824492D01*
X123455117Y-118824494D01*
X123430012Y-118827405D01*
X123430008Y-118827407D01*
X123327235Y-118872785D01*
X123247794Y-118952226D01*
X123202415Y-119054998D01*
X123202415Y-119055000D01*
X123199500Y-119080123D01*
X123199500Y-122419848D01*
X122500500Y-122419848D01*
X122500500Y-118030960D01*
X123199500Y-118030960D01*
X123199502Y-118030986D01*
X123202413Y-118056091D01*
X123202415Y-118056095D01*
X123247793Y-118158868D01*
X123247794Y-118158869D01*
X123327235Y-118238310D01*
X123430009Y-118283689D01*
X123455135Y-118286604D01*
X134544864Y-118286603D01*
X134544879Y-118286601D01*
X134544882Y-118286601D01*
X134569987Y-118283690D01*
X134569988Y-118283689D01*
X134569991Y-118283689D01*
X134672765Y-118238310D01*
X134752206Y-118158869D01*
X134797585Y-118056095D01*
X134800500Y-118030969D01*
X134800499Y-114691240D01*
X134798354Y-114672741D01*
X134797586Y-114666116D01*
X134797585Y-114666114D01*
X134797585Y-114666113D01*
X134752206Y-114563339D01*
X134672765Y-114483898D01*
X134605945Y-114454394D01*
X134569992Y-114438519D01*
X134544865Y-114435604D01*
X123455143Y-114435604D01*
X123455117Y-114435606D01*
X123430012Y-114438517D01*
X123430008Y-114438519D01*
X123327235Y-114483897D01*
X123247794Y-114563338D01*
X123202415Y-114666110D01*
X123202415Y-114666112D01*
X123199500Y-114691235D01*
X123199500Y-118030960D01*
X122500500Y-118030960D01*
X122500500Y-107833328D01*
X123000000Y-107833328D01*
X123000000Y-109256172D01*
X123006401Y-109315700D01*
X123006403Y-109315707D01*
X123056645Y-109450414D01*
X123056649Y-109450421D01*
X123142809Y-109565515D01*
X123142812Y-109565518D01*
X123257906Y-109651678D01*
X123257913Y-109651682D01*
X123392620Y-109701924D01*
X123392627Y-109701926D01*
X123452155Y-109708327D01*
X123452172Y-109708328D01*
X128750000Y-109708328D01*
X128750000Y-107833328D01*
X129250000Y-107833328D01*
X129250000Y-109708328D01*
X134547828Y-109708328D01*
X134547844Y-109708327D01*
X134607372Y-109701926D01*
X134607379Y-109701924D01*
X134742086Y-109651682D01*
X134742093Y-109651678D01*
X134857187Y-109565518D01*
X134857190Y-109565515D01*
X134943350Y-109450421D01*
X134943354Y-109450414D01*
X134993596Y-109315707D01*
X134993598Y-109315700D01*
X134999999Y-109256172D01*
X135000000Y-109256155D01*
X135000000Y-107833328D01*
X129250000Y-107833328D01*
X128750000Y-107833328D01*
X123000000Y-107833328D01*
X122500500Y-107833328D01*
X122500500Y-103444440D01*
X123000000Y-103444440D01*
X123000000Y-104867284D01*
X123006401Y-104926812D01*
X123006403Y-104926819D01*
X123056645Y-105061526D01*
X123056649Y-105061533D01*
X123142809Y-105176627D01*
X123142812Y-105176630D01*
X123257906Y-105262790D01*
X123257913Y-105262794D01*
X123284477Y-105272702D01*
X123340411Y-105314573D01*
X123364828Y-105380038D01*
X123349976Y-105448311D01*
X123300571Y-105497716D01*
X123284477Y-105505066D01*
X123257913Y-105514973D01*
X123257906Y-105514977D01*
X123142812Y-105601137D01*
X123142809Y-105601140D01*
X123056649Y-105716234D01*
X123056645Y-105716241D01*
X123006403Y-105850948D01*
X123006401Y-105850955D01*
X123000000Y-105910483D01*
X123000000Y-107333328D01*
X135000000Y-107333328D01*
X135000000Y-105910500D01*
X134999999Y-105910483D01*
X134993598Y-105850955D01*
X134993596Y-105850948D01*
X134943354Y-105716241D01*
X134943350Y-105716234D01*
X134857190Y-105601140D01*
X134857187Y-105601137D01*
X134742093Y-105514977D01*
X134742084Y-105514972D01*
X134715523Y-105505066D01*
X134659589Y-105463196D01*
X134635171Y-105397731D01*
X134650022Y-105329458D01*
X134699427Y-105280052D01*
X134715523Y-105272702D01*
X134742084Y-105262795D01*
X134742093Y-105262790D01*
X134857187Y-105176630D01*
X134857190Y-105176627D01*
X134943350Y-105061533D01*
X134943354Y-105061526D01*
X134993596Y-104926819D01*
X134993598Y-104926812D01*
X134999999Y-104867284D01*
X135000000Y-104867267D01*
X135000000Y-103444440D01*
X123000000Y-103444440D01*
X122500500Y-103444440D01*
X122500500Y-102944440D01*
X123000000Y-102944440D01*
X128750000Y-102944440D01*
X128750000Y-101069440D01*
X129250000Y-101069440D01*
X129250000Y-102944440D01*
X135000000Y-102944440D01*
X135000000Y-101521612D01*
X134999999Y-101521595D01*
X134993598Y-101462067D01*
X134993596Y-101462060D01*
X134943354Y-101327353D01*
X134943350Y-101327346D01*
X134857190Y-101212252D01*
X134857187Y-101212249D01*
X134742093Y-101126089D01*
X134742086Y-101126085D01*
X134607379Y-101075843D01*
X134607372Y-101075841D01*
X134547844Y-101069440D01*
X129250000Y-101069440D01*
X128750000Y-101069440D01*
X123452155Y-101069440D01*
X123392627Y-101075841D01*
X123392620Y-101075843D01*
X123257913Y-101126085D01*
X123257906Y-101126089D01*
X123142812Y-101212249D01*
X123142809Y-101212252D01*
X123056649Y-101327346D01*
X123056645Y-101327353D01*
X123006403Y-101462060D01*
X123006401Y-101462067D01*
X123000000Y-101521595D01*
X123000000Y-102944440D01*
X122500500Y-102944440D01*
X122500500Y-100475408D01*
X123199500Y-100475408D01*
X123199502Y-100475434D01*
X123202413Y-100500539D01*
X123202415Y-100500543D01*
X123247793Y-100603316D01*
X123247794Y-100603317D01*
X123327235Y-100682758D01*
X123430009Y-100728137D01*
X123455135Y-100731052D01*
X134544864Y-100731051D01*
X134544879Y-100731049D01*
X134544882Y-100731049D01*
X134569987Y-100728138D01*
X134569988Y-100728137D01*
X134569991Y-100728137D01*
X134672765Y-100682758D01*
X134752206Y-100603317D01*
X134797585Y-100500543D01*
X134800500Y-100475417D01*
X134800500Y-99347803D01*
X134820185Y-99280764D01*
X134872989Y-99235009D01*
X134892399Y-99228030D01*
X134989537Y-99202003D01*
X135086563Y-99145985D01*
X135218729Y-99013819D01*
X135280052Y-98980334D01*
X135306410Y-98977500D01*
X136065712Y-98977500D01*
X136132751Y-98997185D01*
X136176710Y-99046225D01*
X136220327Y-99133821D01*
X136220329Y-99133823D01*
X136343237Y-99296581D01*
X136493958Y-99433980D01*
X136493960Y-99433982D01*
X136593141Y-99495392D01*
X136667363Y-99541348D01*
X136857544Y-99615024D01*
X137058024Y-99652500D01*
X137058026Y-99652500D01*
X137261974Y-99652500D01*
X137261976Y-99652500D01*
X137462456Y-99615024D01*
X137652637Y-99541348D01*
X137826041Y-99433981D01*
X137976764Y-99296579D01*
X138099673Y-99133821D01*
X138190582Y-98951250D01*
X138246397Y-98755083D01*
X138265215Y-98552000D01*
X143674785Y-98552000D01*
X143693602Y-98755082D01*
X143749417Y-98951247D01*
X143749422Y-98951260D01*
X143840327Y-99133821D01*
X143963237Y-99296581D01*
X144113958Y-99433980D01*
X144113960Y-99433982D01*
X144213141Y-99495392D01*
X144287363Y-99541348D01*
X144477544Y-99615024D01*
X144678024Y-99652500D01*
X144678026Y-99652500D01*
X144881974Y-99652500D01*
X144881976Y-99652500D01*
X145082456Y-99615024D01*
X145272637Y-99541348D01*
X145446041Y-99433981D01*
X145596764Y-99296579D01*
X145719673Y-99133821D01*
X145810582Y-98951250D01*
X145866397Y-98755083D01*
X145885215Y-98552000D01*
X145866397Y-98348917D01*
X145810582Y-98152750D01*
X145719673Y-97970179D01*
X145596764Y-97807421D01*
X145596762Y-97807418D01*
X145446041Y-97670019D01*
X145446039Y-97670017D01*
X145272642Y-97562655D01*
X145272635Y-97562651D01*
X145177546Y-97525814D01*
X145082456Y-97488976D01*
X144881976Y-97451500D01*
X144678024Y-97451500D01*
X144477544Y-97488976D01*
X144477541Y-97488976D01*
X144477541Y-97488977D01*
X144287364Y-97562651D01*
X144287357Y-97562655D01*
X144113960Y-97670017D01*
X144113958Y-97670019D01*
X143963237Y-97807418D01*
X143840327Y-97970178D01*
X143749422Y-98152739D01*
X143749417Y-98152752D01*
X143693602Y-98348917D01*
X143674785Y-98551999D01*
X143674785Y-98552000D01*
X138265215Y-98552000D01*
X138246397Y-98348917D01*
X138190582Y-98152750D01*
X138099673Y-97970179D01*
X137976764Y-97807421D01*
X137976762Y-97807418D01*
X137826041Y-97670019D01*
X137826039Y-97670017D01*
X137652642Y-97562655D01*
X137652635Y-97562651D01*
X137557546Y-97525814D01*
X137462456Y-97488976D01*
X137261976Y-97451500D01*
X137058024Y-97451500D01*
X136857544Y-97488976D01*
X136857541Y-97488976D01*
X136857541Y-97488977D01*
X136667364Y-97562651D01*
X136667357Y-97562655D01*
X136493960Y-97670017D01*
X136493958Y-97670019D01*
X136343237Y-97807418D01*
X136220667Y-97969729D01*
X136220327Y-97970179D01*
X136176710Y-98057774D01*
X136129210Y-98109008D01*
X136065712Y-98126500D01*
X135022781Y-98126500D01*
X134956592Y-98144235D01*
X134886742Y-98142572D01*
X134828879Y-98103409D01*
X134801376Y-98039180D01*
X134800499Y-98024460D01*
X134800499Y-97135695D01*
X134800499Y-97135688D01*
X134800497Y-97135669D01*
X134797586Y-97110564D01*
X134797585Y-97110562D01*
X134797585Y-97110561D01*
X134752206Y-97007787D01*
X134672765Y-96928346D01*
X134652187Y-96919260D01*
X134569992Y-96882967D01*
X134544865Y-96880052D01*
X123455143Y-96880052D01*
X123455117Y-96880054D01*
X123430012Y-96882965D01*
X123430008Y-96882967D01*
X123327235Y-96928345D01*
X123247794Y-97007786D01*
X123202415Y-97110558D01*
X123202415Y-97110560D01*
X123199500Y-97135683D01*
X123199500Y-100475408D01*
X122500500Y-100475408D01*
X122500500Y-96086520D01*
X123199500Y-96086520D01*
X123199502Y-96086546D01*
X123202413Y-96111651D01*
X123202415Y-96111655D01*
X123247793Y-96214428D01*
X123247794Y-96214429D01*
X123327235Y-96293870D01*
X123430009Y-96339249D01*
X123455135Y-96342164D01*
X134544864Y-96342163D01*
X134544879Y-96342161D01*
X134544882Y-96342161D01*
X134569987Y-96339250D01*
X134569988Y-96339249D01*
X134569991Y-96339249D01*
X134672765Y-96293870D01*
X134752206Y-96214429D01*
X134797585Y-96111655D01*
X134800500Y-96086529D01*
X134800499Y-95037499D01*
X134820183Y-94970461D01*
X134872987Y-94924706D01*
X134924499Y-94913500D01*
X136065712Y-94913500D01*
X136132751Y-94933185D01*
X136176710Y-94982225D01*
X136220327Y-95069821D01*
X136220329Y-95069823D01*
X136343237Y-95232581D01*
X136493958Y-95369980D01*
X136493960Y-95369982D01*
X136573935Y-95419500D01*
X136667363Y-95477348D01*
X136857544Y-95551024D01*
X137058024Y-95588500D01*
X137058026Y-95588500D01*
X137261974Y-95588500D01*
X137261976Y-95588500D01*
X137462456Y-95551024D01*
X137652637Y-95477348D01*
X137826041Y-95369981D01*
X137976764Y-95232579D01*
X138099673Y-95069821D01*
X138190582Y-94887250D01*
X138246397Y-94691083D01*
X138265215Y-94488000D01*
X138246397Y-94284917D01*
X138233048Y-94237999D01*
X143501127Y-94237999D01*
X143501128Y-94238000D01*
X144464314Y-94238000D01*
X144459920Y-94242394D01*
X144407259Y-94333606D01*
X144380000Y-94435339D01*
X144380000Y-94540661D01*
X144407259Y-94642394D01*
X144459920Y-94733606D01*
X144464314Y-94738000D01*
X143501128Y-94738000D01*
X143553730Y-94934317D01*
X143553734Y-94934326D01*
X143649865Y-95140482D01*
X143780342Y-95326820D01*
X143941179Y-95487657D01*
X144127517Y-95618134D01*
X144333673Y-95714265D01*
X144333682Y-95714269D01*
X144529999Y-95766872D01*
X144530000Y-95766871D01*
X144530000Y-94803686D01*
X144534394Y-94808080D01*
X144625606Y-94860741D01*
X144727339Y-94888000D01*
X144832661Y-94888000D01*
X144934394Y-94860741D01*
X145025606Y-94808080D01*
X145030000Y-94803686D01*
X145030000Y-95766872D01*
X145226317Y-95714269D01*
X145226326Y-95714265D01*
X145432482Y-95618134D01*
X145618820Y-95487657D01*
X145779657Y-95326820D01*
X145910134Y-95140482D01*
X146006265Y-94934326D01*
X146006269Y-94934317D01*
X146058872Y-94738000D01*
X145095686Y-94738000D01*
X145100080Y-94733606D01*
X145152741Y-94642394D01*
X145180000Y-94540661D01*
X145180000Y-94435339D01*
X145152741Y-94333606D01*
X145100080Y-94242394D01*
X145095686Y-94238000D01*
X146058872Y-94238000D01*
X146058872Y-94237999D01*
X146006269Y-94041682D01*
X146006265Y-94041673D01*
X145910134Y-93835517D01*
X145779657Y-93649179D01*
X145618820Y-93488342D01*
X145432482Y-93357865D01*
X145226328Y-93261734D01*
X145030000Y-93209127D01*
X145030000Y-94172314D01*
X145025606Y-94167920D01*
X144934394Y-94115259D01*
X144832661Y-94088000D01*
X144727339Y-94088000D01*
X144625606Y-94115259D01*
X144534394Y-94167920D01*
X144530000Y-94172314D01*
X144530000Y-93209127D01*
X144333671Y-93261734D01*
X144127517Y-93357865D01*
X143941179Y-93488342D01*
X143780342Y-93649179D01*
X143649865Y-93835517D01*
X143553734Y-94041673D01*
X143553730Y-94041682D01*
X143501127Y-94237999D01*
X138233048Y-94237999D01*
X138190582Y-94088750D01*
X138099673Y-93906179D01*
X137999976Y-93774159D01*
X137976762Y-93743418D01*
X137826041Y-93606019D01*
X137826039Y-93606017D01*
X137652642Y-93498655D01*
X137652635Y-93498651D01*
X137482342Y-93432680D01*
X137462456Y-93424976D01*
X137261976Y-93387500D01*
X137058024Y-93387500D01*
X136857544Y-93424976D01*
X136857541Y-93424976D01*
X136857541Y-93424977D01*
X136667364Y-93498651D01*
X136667357Y-93498655D01*
X136493960Y-93606017D01*
X136493958Y-93606019D01*
X136343237Y-93743418D01*
X136273688Y-93835517D01*
X136220327Y-93906179D01*
X136176710Y-93993774D01*
X136129210Y-94045008D01*
X136065712Y-94062500D01*
X135096033Y-94062500D01*
X135034033Y-94045887D01*
X135026734Y-94041673D01*
X134989539Y-94020198D01*
X134989538Y-94020197D01*
X134940898Y-94007164D01*
X134892404Y-93994170D01*
X134832745Y-93957806D01*
X134802216Y-93894959D01*
X134800499Y-93874396D01*
X134800499Y-92746807D01*
X134800499Y-92746800D01*
X134800497Y-92746781D01*
X134797586Y-92721676D01*
X134797585Y-92721674D01*
X134797585Y-92721673D01*
X134752206Y-92618899D01*
X134672765Y-92539458D01*
X134672763Y-92539457D01*
X134569992Y-92494079D01*
X134544865Y-92491164D01*
X123455143Y-92491164D01*
X123455117Y-92491166D01*
X123430012Y-92494077D01*
X123430008Y-92494079D01*
X123327235Y-92539457D01*
X123247794Y-92618898D01*
X123202415Y-92721670D01*
X123202415Y-92721672D01*
X123199500Y-92746795D01*
X123199500Y-96086520D01*
X122500500Y-96086520D01*
X122500500Y-91697632D01*
X123199500Y-91697632D01*
X123199502Y-91697658D01*
X123202413Y-91722763D01*
X123202415Y-91722767D01*
X123247793Y-91825540D01*
X123247794Y-91825541D01*
X123327235Y-91904982D01*
X123430009Y-91950361D01*
X123455135Y-91953276D01*
X134544864Y-91953275D01*
X134544879Y-91953273D01*
X134544882Y-91953273D01*
X134569987Y-91950362D01*
X134569988Y-91950361D01*
X134569991Y-91950361D01*
X134672765Y-91904982D01*
X134752206Y-91825541D01*
X134797585Y-91722767D01*
X134800500Y-91697641D01*
X134800499Y-88357912D01*
X134800497Y-88357893D01*
X134797586Y-88332788D01*
X134797585Y-88332786D01*
X134797585Y-88332785D01*
X134752206Y-88230011D01*
X134672765Y-88150570D01*
X134672763Y-88150569D01*
X134569992Y-88105191D01*
X134544865Y-88102276D01*
X123455143Y-88102276D01*
X123455117Y-88102278D01*
X123430012Y-88105189D01*
X123430008Y-88105191D01*
X123327235Y-88150569D01*
X123247794Y-88230010D01*
X123202415Y-88332782D01*
X123202415Y-88332784D01*
X123199500Y-88357907D01*
X123199500Y-91697632D01*
X122500500Y-91697632D01*
X122500500Y-87308744D01*
X123199500Y-87308744D01*
X123199502Y-87308770D01*
X123202413Y-87333875D01*
X123202415Y-87333879D01*
X123247793Y-87436652D01*
X123247794Y-87436653D01*
X123327235Y-87516094D01*
X123430009Y-87561473D01*
X123455135Y-87564388D01*
X134544864Y-87564387D01*
X134544879Y-87564385D01*
X134544882Y-87564385D01*
X134569987Y-87561474D01*
X134569988Y-87561473D01*
X134569991Y-87561473D01*
X134672765Y-87516094D01*
X134752206Y-87436653D01*
X134797585Y-87333879D01*
X134800500Y-87308753D01*
X134800500Y-86181203D01*
X134820185Y-86114164D01*
X134872989Y-86068409D01*
X134892399Y-86061430D01*
X134989537Y-86035403D01*
X135086563Y-85979385D01*
X135165785Y-85900163D01*
X135221803Y-85803137D01*
X135250800Y-85694918D01*
X135250800Y-84749008D01*
X135270485Y-84681969D01*
X135287114Y-84661332D01*
X137374344Y-82574101D01*
X137435665Y-82540618D01*
X137505357Y-82545602D01*
X137561290Y-82587474D01*
X137585197Y-82647495D01*
X137586414Y-82657989D01*
X137586415Y-82657991D01*
X137631793Y-82760764D01*
X137666722Y-82795693D01*
X137700207Y-82857016D01*
X137695223Y-82926708D01*
X137680616Y-82954497D01*
X137553868Y-83135512D01*
X137553866Y-83135516D01*
X137457734Y-83341673D01*
X137457730Y-83341682D01*
X137398860Y-83561389D01*
X137398858Y-83561400D01*
X137379034Y-83787997D01*
X137379034Y-83788002D01*
X137398858Y-84014599D01*
X137398860Y-84014610D01*
X137457730Y-84234317D01*
X137457735Y-84234331D01*
X137553863Y-84440478D01*
X137604974Y-84513472D01*
X138284000Y-83834446D01*
X138284000Y-83840661D01*
X138311259Y-83942394D01*
X138363920Y-84033606D01*
X138438394Y-84108080D01*
X138529606Y-84160741D01*
X138631339Y-84188000D01*
X138637553Y-84188000D01*
X137958526Y-84867025D01*
X138031513Y-84918132D01*
X138031521Y-84918136D01*
X138237668Y-85014264D01*
X138237682Y-85014269D01*
X138457389Y-85073139D01*
X138457400Y-85073141D01*
X138683998Y-85092966D01*
X138684002Y-85092966D01*
X138910599Y-85073141D01*
X138910610Y-85073139D01*
X139130317Y-85014269D01*
X139130331Y-85014264D01*
X139336478Y-84918136D01*
X139409471Y-84867024D01*
X138730447Y-84188000D01*
X138736661Y-84188000D01*
X138838394Y-84160741D01*
X138929606Y-84108080D01*
X139004080Y-84033606D01*
X139056741Y-83942394D01*
X139084000Y-83840661D01*
X139084000Y-83834447D01*
X139763024Y-84513471D01*
X139814136Y-84440478D01*
X139910264Y-84234331D01*
X139910269Y-84234317D01*
X139969139Y-84014610D01*
X139969141Y-84014599D01*
X139988966Y-83788002D01*
X139988966Y-83787997D01*
X139969141Y-83561400D01*
X139969139Y-83561389D01*
X139910269Y-83341682D01*
X139910265Y-83341673D01*
X139814133Y-83135516D01*
X139814129Y-83135510D01*
X139687383Y-82954499D01*
X139665055Y-82888293D01*
X139682065Y-82820526D01*
X139701273Y-82795697D01*
X139736206Y-82760765D01*
X139781585Y-82657991D01*
X139784500Y-82632865D01*
X139784499Y-80943136D01*
X139784497Y-80943117D01*
X139781586Y-80918012D01*
X139781585Y-80918010D01*
X139781585Y-80918009D01*
X139736206Y-80815235D01*
X139656765Y-80735794D01*
X139656763Y-80735793D01*
X139553992Y-80690415D01*
X139528865Y-80687500D01*
X137839143Y-80687500D01*
X137839117Y-80687502D01*
X137814012Y-80690413D01*
X137814008Y-80690415D01*
X137711235Y-80735793D01*
X137631794Y-80815234D01*
X137586415Y-80918006D01*
X137586415Y-80918008D01*
X137583500Y-80943131D01*
X137583500Y-81245696D01*
X137563815Y-81312735D01*
X137511011Y-81358490D01*
X137491596Y-81365470D01*
X137461575Y-81373514D01*
X137394461Y-81391497D01*
X137394460Y-81391498D01*
X137297440Y-81447513D01*
X137297434Y-81447517D01*
X137218213Y-81526739D01*
X134915698Y-83829253D01*
X134854375Y-83862738D01*
X134784683Y-83857754D01*
X134740336Y-83829253D01*
X134672765Y-83761682D01*
X134569992Y-83716303D01*
X134544865Y-83713388D01*
X123455143Y-83713388D01*
X123455117Y-83713390D01*
X123430012Y-83716301D01*
X123430008Y-83716303D01*
X123327235Y-83761681D01*
X123247794Y-83841122D01*
X123202415Y-83943894D01*
X123202415Y-83943896D01*
X123199500Y-83969019D01*
X123199500Y-87308744D01*
X122500500Y-87308744D01*
X122500500Y-82919856D01*
X123199500Y-82919856D01*
X123199502Y-82919882D01*
X123202413Y-82944987D01*
X123202415Y-82944991D01*
X123247793Y-83047764D01*
X123247794Y-83047765D01*
X123327235Y-83127206D01*
X123430009Y-83172585D01*
X123455135Y-83175500D01*
X134544864Y-83175499D01*
X134544879Y-83175497D01*
X134544882Y-83175497D01*
X134569987Y-83172586D01*
X134569988Y-83172585D01*
X134569991Y-83172585D01*
X134672765Y-83127206D01*
X134752206Y-83047765D01*
X134797585Y-82944991D01*
X134800500Y-82919865D01*
X134800499Y-79580136D01*
X134800497Y-79580117D01*
X134797586Y-79555012D01*
X134797585Y-79555010D01*
X134797585Y-79555009D01*
X134752206Y-79452235D01*
X134672765Y-79372794D01*
X134672763Y-79372793D01*
X134569992Y-79327415D01*
X134544865Y-79324500D01*
X123455143Y-79324500D01*
X123455117Y-79324502D01*
X123430012Y-79327413D01*
X123430008Y-79327415D01*
X123327235Y-79372793D01*
X123247794Y-79452234D01*
X123202415Y-79555006D01*
X123202415Y-79555008D01*
X123199500Y-79580131D01*
X123199500Y-82919856D01*
X122500500Y-82919856D01*
X122500500Y-77899500D01*
X122520185Y-77832461D01*
X122572989Y-77786706D01*
X122624500Y-77775500D01*
X125975500Y-77775500D01*
X126042539Y-77795185D01*
G37*
G04 #@! TD.AperFunction*
M02*
