M48
; DRILL file {KiCad 8.0.1} date 2024-06-18T22:12:47-0400
; FORMAT={-:-/ absolute / inch / decimal}
; #@! TF.CreationDate,2024-06-18T22:12:47-04:00
; #@! TF.GenerationSoftware,Kicad,Pcbnew,8.0.1
; #@! TF.FileFunction,Plated,1,2,PTH
FMAT,2
INCH
; #@! TA.AperFunction,Plated,PTH,ComponentDrill
T1C0.0315
; #@! TA.AperFunction,Plated,PTH,ComponentDrill
T2C0.0512
%
G90
G05
T1
X5.4Y-3.72
X5.4Y-3.88
X5.4Y-4.225
X5.4Y-4.4
X5.4Y-4.6
X5.4Y-4.75
X5.46Y-3.22
X5.46Y-3.2987
X5.5969Y-4.4
X5.7Y-3.72
X5.7Y-3.88
X5.7Y-4.225
X5.7Y-4.6
X5.7Y-4.75
X5.85Y-3.475
X5.85Y-3.575
X5.85Y-3.675
X5.85Y-3.8
X5.85Y-4.1
X5.85Y-4.2
X5.85Y-4.5
X5.86Y-4.65
X5.86Y-4.75
X5.86Y-4.85
X6.04Y-3.2
X6.04Y-3.2787
X6.06Y-4.65
X6.06Y-4.75
X6.06Y-4.85
X6.075Y-3.6031
X6.075Y-3.8
T2
X5.7Y-3.22
X5.8181Y-3.22
M30
