G04 #@! TF.GenerationSoftware,KiCad,Pcbnew,8.0.1*
G04 #@! TF.CreationDate,2024-06-18T22:12:42-04:00*
G04 #@! TF.ProjectId,OdysseyDaughterCardHorizSyncGenerator,4f647973-7365-4794-9461-756768746572,1.0*
G04 #@! TF.SameCoordinates,Original*
G04 #@! TF.FileFunction,Copper,L1,Top*
G04 #@! TF.FilePolarity,Positive*
%FSLAX46Y46*%
G04 Gerber Fmt 4.6, Leading zero omitted, Abs format (unit mm)*
G04 Created by KiCad (PCBNEW 8.0.1) date 2024-06-18 22:12:42*
%MOMM*%
%LPD*%
G01*
G04 APERTURE LIST*
G04 #@! TA.AperFunction,ComponentPad*
%ADD10R,1.500000X1.500000*%
G04 #@! TD*
G04 #@! TA.AperFunction,ComponentPad*
%ADD11C,1.500000*%
G04 #@! TD*
G04 #@! TA.AperFunction,ComponentPad*
%ADD12C,1.600000*%
G04 #@! TD*
G04 #@! TA.AperFunction,ComponentPad*
%ADD13R,1.600000X1.600000*%
G04 #@! TD*
G04 #@! TA.AperFunction,ComponentPad*
%ADD14C,2.600000*%
G04 #@! TD*
G04 #@! TA.AperFunction,ComponentPad*
%ADD15O,1.600000X1.600000*%
G04 #@! TD*
G04 #@! TA.AperFunction,Conductor*
%ADD16C,0.250000*%
G04 #@! TD*
G04 APERTURE END LIST*
D10*
X153924000Y-118110000D03*
D11*
X153924000Y-120650000D03*
X153924000Y-123190000D03*
D10*
X148844000Y-118110000D03*
D11*
X148844000Y-120650000D03*
X148844000Y-123190000D03*
D10*
X148590000Y-88265000D03*
D11*
X148590000Y-90805000D03*
X148590000Y-93345000D03*
D12*
X154305000Y-91520000D03*
X154305000Y-96520000D03*
X142160000Y-111760000D03*
X137160000Y-111760000D03*
X138684000Y-83788000D03*
D13*
X138684000Y-81788000D03*
D12*
X153416000Y-83280000D03*
D13*
X153416000Y-81280000D03*
D14*
X147780000Y-81788000D03*
X144780000Y-81788000D03*
D15*
X144780000Y-120650000D03*
D12*
X137160000Y-120650000D03*
D15*
X144780000Y-98552000D03*
D12*
X137160000Y-98552000D03*
D15*
X144780000Y-116840000D03*
D12*
X137160000Y-116840000D03*
D15*
X148590000Y-96520000D03*
D12*
X148590000Y-104140000D03*
D15*
X144780000Y-107315000D03*
D12*
X137160000Y-107315000D03*
D15*
X148590000Y-114300000D03*
D12*
X148590000Y-106680000D03*
D15*
X144780000Y-94488000D03*
D12*
X137160000Y-94488000D03*
D16*
X151384000Y-118110000D02*
X153924000Y-120650000D01*
X148844000Y-118110000D02*
X151384000Y-118110000D01*
X154999000Y-119575000D02*
X153924000Y-120650000D01*
X154999000Y-113089000D02*
X154999000Y-119575000D01*
X148590000Y-106680000D02*
X154999000Y-113089000D01*
X144780000Y-119380000D02*
X147574000Y-119380000D01*
X147574000Y-119380000D02*
X148844000Y-120650000D01*
X137160000Y-111760000D02*
X144780000Y-119380000D01*
X146304000Y-120650000D02*
X148844000Y-123190000D01*
X144780000Y-120650000D02*
X146304000Y-120650000D01*
X144920700Y-98552000D02*
X151952700Y-91520000D01*
X144780000Y-98552000D02*
X144920700Y-98552000D01*
X151237700Y-90805000D02*
X151952700Y-91520000D01*
X148590000Y-90805000D02*
X151237700Y-90805000D01*
X147320000Y-92075000D02*
X148590000Y-93345000D01*
X147320000Y-87030700D02*
X147320000Y-92075000D01*
X147514600Y-87030700D02*
X147320000Y-87030700D01*
X147447000Y-94488000D02*
X148590000Y-93345000D01*
X144780000Y-94488000D02*
X147447000Y-94488000D01*
X148590000Y-96520000D02*
X154305000Y-96520000D01*
X151952700Y-91520000D02*
X154305000Y-91520000D01*
X142160000Y-113094700D02*
X142160000Y-111760000D01*
X144780000Y-116840000D02*
X144780000Y-115714700D01*
X144780000Y-115714700D02*
X142160000Y-113094700D01*
X144780000Y-81788000D02*
X138684000Y-81788000D01*
X141926700Y-87030700D02*
X138684000Y-83788000D01*
X144780000Y-108440300D02*
X148590000Y-112250300D01*
X148590000Y-112250300D02*
X148590000Y-114300000D01*
X153416000Y-83280000D02*
X149665300Y-87030700D01*
X148590000Y-90805000D02*
X148590000Y-91230100D01*
X149665300Y-87030700D02*
X147514600Y-87030700D01*
X147514600Y-87030700D02*
X141926700Y-87030700D01*
X144780000Y-107315000D02*
X144780000Y-108440300D01*
X153924000Y-118110000D02*
X153924000Y-113692000D01*
X137160000Y-96928000D02*
X137160000Y-94488000D01*
X153924000Y-113692000D02*
X137160000Y-96928000D01*
G04 #@! TA.AperFunction,Conductor*
G36*
X126042539Y-77795185D02*
G01*
X126088294Y-77847989D01*
X126099500Y-77899500D01*
X126099500Y-78884982D01*
X126099500Y-78915018D01*
X126110994Y-78942767D01*
X126132233Y-78964006D01*
X126159982Y-78975500D01*
X126159984Y-78975500D01*
X130790016Y-78975500D01*
X130790018Y-78975500D01*
X130817767Y-78964006D01*
X130839006Y-78942767D01*
X130850500Y-78915018D01*
X130850500Y-77899500D01*
X130870185Y-77832461D01*
X130922989Y-77786706D01*
X130974500Y-77775500D01*
X156645500Y-77775500D01*
X156712539Y-77795185D01*
X156758294Y-77847989D01*
X156769500Y-77899500D01*
X156769500Y-124100500D01*
X156749815Y-124167539D01*
X156697011Y-124213294D01*
X156645500Y-124224500D01*
X154665928Y-124224500D01*
X154598889Y-124204815D01*
X154553134Y-124152011D01*
X154543190Y-124082853D01*
X154572215Y-124019297D01*
X154587264Y-124004646D01*
X154670410Y-123936410D01*
X154801685Y-123776450D01*
X154899232Y-123593954D01*
X154959300Y-123395934D01*
X154979583Y-123190000D01*
X154959300Y-122984066D01*
X154899232Y-122786046D01*
X154801685Y-122603550D01*
X154749702Y-122540209D01*
X154670410Y-122443589D01*
X154510452Y-122312317D01*
X154510453Y-122312317D01*
X154510450Y-122312315D01*
X154327954Y-122214768D01*
X154129934Y-122154700D01*
X154129932Y-122154699D01*
X154129934Y-122154699D01*
X153924000Y-122134417D01*
X153718067Y-122154699D01*
X153520043Y-122214769D01*
X153409898Y-122273643D01*
X153337550Y-122312315D01*
X153337548Y-122312316D01*
X153337547Y-122312317D01*
X153177589Y-122443589D01*
X153046317Y-122603547D01*
X152948769Y-122786043D01*
X152888699Y-122984067D01*
X152868417Y-123190000D01*
X152888699Y-123395932D01*
X152888700Y-123395934D01*
X152948768Y-123593954D01*
X153046315Y-123776450D01*
X153046317Y-123776452D01*
X153177589Y-123936410D01*
X153260736Y-124004646D01*
X153300071Y-124062392D01*
X153301942Y-124132237D01*
X153265755Y-124192005D01*
X153202999Y-124222721D01*
X153182072Y-124224500D01*
X149585928Y-124224500D01*
X149518889Y-124204815D01*
X149473134Y-124152011D01*
X149463190Y-124082853D01*
X149492215Y-124019297D01*
X149507264Y-124004646D01*
X149590410Y-123936410D01*
X149721685Y-123776450D01*
X149819232Y-123593954D01*
X149879300Y-123395934D01*
X149899583Y-123190000D01*
X149879300Y-122984066D01*
X149819232Y-122786046D01*
X149721685Y-122603550D01*
X149669702Y-122540209D01*
X149590410Y-122443589D01*
X149430452Y-122312317D01*
X149430453Y-122312317D01*
X149430450Y-122312315D01*
X149247954Y-122214768D01*
X149049934Y-122154700D01*
X149049932Y-122154699D01*
X149049934Y-122154699D01*
X148844000Y-122134417D01*
X148638067Y-122154699D01*
X148534545Y-122186102D01*
X148464678Y-122186725D01*
X148410870Y-122155122D01*
X146565265Y-120309517D01*
X146565263Y-120309515D01*
X146468237Y-120253497D01*
X146360018Y-120224500D01*
X146360017Y-120224500D01*
X145874288Y-120224500D01*
X145807249Y-120204815D01*
X145763289Y-120155774D01*
X145719673Y-120068179D01*
X145671379Y-120004227D01*
X145646687Y-119938865D01*
X145661252Y-119870531D01*
X145710450Y-119820918D01*
X145770333Y-119805500D01*
X147346390Y-119805500D01*
X147413429Y-119825185D01*
X147434071Y-119841819D01*
X147809122Y-120216869D01*
X147842607Y-120278192D01*
X147840102Y-120340544D01*
X147808699Y-120444066D01*
X147788417Y-120650000D01*
X147808699Y-120855932D01*
X147808700Y-120855934D01*
X147868768Y-121053954D01*
X147966315Y-121236450D01*
X147966317Y-121236452D01*
X148097589Y-121396410D01*
X148194209Y-121475702D01*
X148257550Y-121527685D01*
X148440046Y-121625232D01*
X148638066Y-121685300D01*
X148638065Y-121685300D01*
X148656529Y-121687118D01*
X148844000Y-121705583D01*
X149049934Y-121685300D01*
X149247954Y-121625232D01*
X149430450Y-121527685D01*
X149590410Y-121396410D01*
X149721685Y-121236450D01*
X149819232Y-121053954D01*
X149879300Y-120855934D01*
X149899583Y-120650000D01*
X149879300Y-120444066D01*
X149819232Y-120246046D01*
X149721685Y-120063550D01*
X149669702Y-120000209D01*
X149590410Y-119903589D01*
X149430452Y-119772317D01*
X149430453Y-119772317D01*
X149430450Y-119772315D01*
X149247954Y-119674768D01*
X149049934Y-119614700D01*
X149049932Y-119614699D01*
X149049934Y-119614699D01*
X148844000Y-119594417D01*
X148638066Y-119614699D01*
X148534544Y-119646102D01*
X148464677Y-119646725D01*
X148410869Y-119615122D01*
X148167928Y-119372180D01*
X148134443Y-119310857D01*
X148139427Y-119241165D01*
X148181299Y-119185232D01*
X148246763Y-119160815D01*
X148255584Y-119160499D01*
X149638864Y-119160499D01*
X149638879Y-119160497D01*
X149638882Y-119160497D01*
X149663987Y-119157586D01*
X149663988Y-119157585D01*
X149663991Y-119157585D01*
X149766765Y-119112206D01*
X149846206Y-119032765D01*
X149891585Y-118929991D01*
X149894500Y-118904865D01*
X149894500Y-118659500D01*
X149914185Y-118592461D01*
X149966989Y-118546706D01*
X150018500Y-118535500D01*
X151156390Y-118535500D01*
X151223429Y-118555185D01*
X151244071Y-118571819D01*
X152889122Y-120216870D01*
X152922607Y-120278193D01*
X152920102Y-120340545D01*
X152888699Y-120444067D01*
X152868417Y-120650000D01*
X152888699Y-120855932D01*
X152888700Y-120855934D01*
X152948768Y-121053954D01*
X153046315Y-121236450D01*
X153046317Y-121236452D01*
X153177589Y-121396410D01*
X153274209Y-121475702D01*
X153337550Y-121527685D01*
X153520046Y-121625232D01*
X153718066Y-121685300D01*
X153718065Y-121685300D01*
X153736529Y-121687118D01*
X153924000Y-121705583D01*
X154129934Y-121685300D01*
X154327954Y-121625232D01*
X154510450Y-121527685D01*
X154670410Y-121396410D01*
X154801685Y-121236450D01*
X154899232Y-121053954D01*
X154959300Y-120855934D01*
X154979583Y-120650000D01*
X154959300Y-120444066D01*
X154927896Y-120340544D01*
X154927274Y-120270678D01*
X154958875Y-120216871D01*
X155339485Y-119836263D01*
X155395503Y-119739237D01*
X155424500Y-119631018D01*
X155424500Y-119518981D01*
X155424500Y-113032982D01*
X155395503Y-112924763D01*
X155339485Y-112827737D01*
X155260263Y-112748515D01*
X149665556Y-107153808D01*
X149632071Y-107092485D01*
X149633971Y-107032192D01*
X149667102Y-106915752D01*
X149676397Y-106883083D01*
X149695215Y-106680000D01*
X149676397Y-106476917D01*
X149620582Y-106280750D01*
X149606254Y-106251976D01*
X149576272Y-106191764D01*
X149529673Y-106098179D01*
X149406764Y-105935421D01*
X149406762Y-105935418D01*
X149256041Y-105798019D01*
X149256039Y-105798017D01*
X149082642Y-105690655D01*
X149082635Y-105690651D01*
X148987546Y-105653814D01*
X148892456Y-105616976D01*
X148691976Y-105579500D01*
X148488024Y-105579500D01*
X148287544Y-105616976D01*
X148287541Y-105616976D01*
X148287541Y-105616977D01*
X148097364Y-105690651D01*
X148097357Y-105690655D01*
X147923960Y-105798017D01*
X147923958Y-105798019D01*
X147773237Y-105935418D01*
X147650327Y-106098178D01*
X147559422Y-106280739D01*
X147559417Y-106280752D01*
X147518611Y-106424170D01*
X147481332Y-106483263D01*
X147418022Y-106512820D01*
X147348782Y-106503458D01*
X147311664Y-106477916D01*
X144973748Y-104140000D01*
X147484785Y-104140000D01*
X147503602Y-104343082D01*
X147559417Y-104539247D01*
X147559422Y-104539260D01*
X147650327Y-104721821D01*
X147773237Y-104884581D01*
X147923958Y-105021980D01*
X147923960Y-105021982D01*
X148023141Y-105083392D01*
X148097363Y-105129348D01*
X148287544Y-105203024D01*
X148488024Y-105240500D01*
X148488026Y-105240500D01*
X148691974Y-105240500D01*
X148691976Y-105240500D01*
X148892456Y-105203024D01*
X149082637Y-105129348D01*
X149256041Y-105021981D01*
X149406764Y-104884579D01*
X149529673Y-104721821D01*
X149620582Y-104539250D01*
X149676397Y-104343083D01*
X149695215Y-104140000D01*
X149676397Y-103936917D01*
X149620582Y-103740750D01*
X149529673Y-103558179D01*
X149406764Y-103395421D01*
X149406762Y-103395418D01*
X149256041Y-103258019D01*
X149256039Y-103258017D01*
X149082642Y-103150655D01*
X149082635Y-103150651D01*
X148987546Y-103113814D01*
X148892456Y-103076976D01*
X148691976Y-103039500D01*
X148488024Y-103039500D01*
X148287544Y-103076976D01*
X148287541Y-103076976D01*
X148287541Y-103076977D01*
X148097364Y-103150651D01*
X148097357Y-103150655D01*
X147923960Y-103258017D01*
X147923958Y-103258019D01*
X147773237Y-103395418D01*
X147650327Y-103558178D01*
X147559422Y-103740739D01*
X147559417Y-103740752D01*
X147503602Y-103936917D01*
X147484785Y-104139999D01*
X147484785Y-104140000D01*
X144973748Y-104140000D01*
X137621819Y-96788071D01*
X137588334Y-96726748D01*
X137585500Y-96700390D01*
X137585500Y-95587555D01*
X137605185Y-95520516D01*
X137648555Y-95481645D01*
X137647763Y-95480366D01*
X137826039Y-95369982D01*
X137826038Y-95369982D01*
X137826041Y-95369981D01*
X137954122Y-95253219D01*
X137976762Y-95232581D01*
X137976764Y-95232579D01*
X138099673Y-95069821D01*
X138190582Y-94887250D01*
X138246397Y-94691083D01*
X138265215Y-94488000D01*
X138246397Y-94284917D01*
X138190582Y-94088750D01*
X138099673Y-93906179D01*
X137976764Y-93743421D01*
X137976762Y-93743418D01*
X137826041Y-93606019D01*
X137826039Y-93606017D01*
X137652642Y-93498655D01*
X137652635Y-93498651D01*
X137557546Y-93461814D01*
X137462456Y-93424976D01*
X137261976Y-93387500D01*
X137058024Y-93387500D01*
X136857544Y-93424976D01*
X136857541Y-93424976D01*
X136857541Y-93424977D01*
X136667364Y-93498651D01*
X136667357Y-93498655D01*
X136493960Y-93606017D01*
X136493958Y-93606019D01*
X136343237Y-93743418D01*
X136220327Y-93906178D01*
X136129422Y-94088739D01*
X136129417Y-94088752D01*
X136073602Y-94284917D01*
X136054785Y-94487999D01*
X136054785Y-94488000D01*
X136073602Y-94691082D01*
X136129417Y-94887247D01*
X136129422Y-94887260D01*
X136220327Y-95069821D01*
X136343237Y-95232581D01*
X136493958Y-95369980D01*
X136493960Y-95369982D01*
X136672237Y-95480366D01*
X136671375Y-95481756D01*
X136716998Y-95524041D01*
X136734500Y-95587555D01*
X136734500Y-96871982D01*
X136734500Y-96984018D01*
X136763497Y-97092237D01*
X136819515Y-97189263D01*
X136819517Y-97189265D01*
X136912061Y-97281809D01*
X136945546Y-97343132D01*
X136940562Y-97412824D01*
X136898690Y-97468757D01*
X136862755Y-97486556D01*
X136862890Y-97486905D01*
X136859043Y-97488395D01*
X136858315Y-97488756D01*
X136857550Y-97488973D01*
X136667364Y-97562651D01*
X136667357Y-97562655D01*
X136493960Y-97670017D01*
X136493958Y-97670019D01*
X136343237Y-97807418D01*
X136220327Y-97970178D01*
X136129422Y-98152739D01*
X136129417Y-98152752D01*
X136073602Y-98348917D01*
X136054785Y-98551999D01*
X136054785Y-98552000D01*
X136073602Y-98755082D01*
X136129417Y-98951247D01*
X136129422Y-98951260D01*
X136220327Y-99133821D01*
X136343237Y-99296581D01*
X136493958Y-99433980D01*
X136493960Y-99433982D01*
X136593141Y-99495392D01*
X136667363Y-99541348D01*
X136857544Y-99615024D01*
X137058024Y-99652500D01*
X137058026Y-99652500D01*
X137261974Y-99652500D01*
X137261976Y-99652500D01*
X137462456Y-99615024D01*
X137652637Y-99541348D01*
X137826041Y-99433981D01*
X137976764Y-99296579D01*
X138099673Y-99133821D01*
X138190582Y-98951250D01*
X138219428Y-98849866D01*
X138256706Y-98790776D01*
X138320015Y-98761218D01*
X138389255Y-98770580D01*
X138426374Y-98796122D01*
X153462181Y-113831929D01*
X153495666Y-113893252D01*
X153498500Y-113919610D01*
X153498500Y-116935500D01*
X153478815Y-117002539D01*
X153426011Y-117048294D01*
X153374500Y-117059500D01*
X153129143Y-117059500D01*
X153129117Y-117059502D01*
X153104012Y-117062413D01*
X153104008Y-117062415D01*
X153001235Y-117107793D01*
X152921794Y-117187234D01*
X152876415Y-117290006D01*
X152876415Y-117290008D01*
X152873500Y-117315131D01*
X152873500Y-118698390D01*
X152853815Y-118765429D01*
X152801011Y-118811184D01*
X152731853Y-118821128D01*
X152668297Y-118792103D01*
X152661819Y-118786071D01*
X151645265Y-117769517D01*
X151645263Y-117769515D01*
X151580579Y-117732169D01*
X151548239Y-117713498D01*
X151548238Y-117713497D01*
X151548237Y-117713497D01*
X151440018Y-117684500D01*
X151440017Y-117684500D01*
X150018499Y-117684500D01*
X149951460Y-117664815D01*
X149905705Y-117612011D01*
X149894499Y-117560500D01*
X149894499Y-117315143D01*
X149894499Y-117315136D01*
X149894497Y-117315117D01*
X149891586Y-117290012D01*
X149891585Y-117290010D01*
X149891585Y-117290009D01*
X149846206Y-117187235D01*
X149766765Y-117107794D01*
X149766763Y-117107793D01*
X149663992Y-117062415D01*
X149638865Y-117059500D01*
X148049143Y-117059500D01*
X148049117Y-117059502D01*
X148024012Y-117062413D01*
X148024008Y-117062415D01*
X147921235Y-117107793D01*
X147841794Y-117187234D01*
X147796415Y-117290006D01*
X147796415Y-117290008D01*
X147793500Y-117315131D01*
X147793500Y-118836705D01*
X147773815Y-118903744D01*
X147721011Y-118949499D01*
X147651853Y-118959443D01*
X147637408Y-118956480D01*
X147630020Y-118954500D01*
X147630018Y-118954500D01*
X145007609Y-118954500D01*
X144940570Y-118934815D01*
X144919928Y-118918181D01*
X138235556Y-112233808D01*
X138202071Y-112172485D01*
X138203971Y-112112192D01*
X138211406Y-112086063D01*
X138246397Y-111963083D01*
X138265215Y-111760000D01*
X141054785Y-111760000D01*
X141073602Y-111963082D01*
X141129417Y-112159247D01*
X141129422Y-112159260D01*
X141220327Y-112341821D01*
X141343237Y-112504581D01*
X141493958Y-112641980D01*
X141493960Y-112641982D01*
X141672237Y-112752366D01*
X141671375Y-112753756D01*
X141716998Y-112796041D01*
X141734500Y-112859555D01*
X141734500Y-113038682D01*
X141734500Y-113150718D01*
X141763497Y-113258937D01*
X141819515Y-113355963D01*
X141819517Y-113355965D01*
X144193243Y-115729691D01*
X144226728Y-115791014D01*
X144221744Y-115860706D01*
X144179872Y-115916639D01*
X144170841Y-115922798D01*
X144113959Y-115958018D01*
X144113958Y-115958019D01*
X143963237Y-116095418D01*
X143840327Y-116258178D01*
X143749422Y-116440739D01*
X143749417Y-116440752D01*
X143693602Y-116636917D01*
X143674785Y-116839999D01*
X143674785Y-116840000D01*
X143693602Y-117043082D01*
X143749417Y-117239247D01*
X143749422Y-117239260D01*
X143840327Y-117421821D01*
X143963237Y-117584581D01*
X144072844Y-117684500D01*
X144104652Y-117713497D01*
X144113958Y-117721980D01*
X144113960Y-117721982D01*
X144190726Y-117769513D01*
X144287363Y-117829348D01*
X144477544Y-117903024D01*
X144678024Y-117940500D01*
X144678026Y-117940500D01*
X144881974Y-117940500D01*
X144881976Y-117940500D01*
X145082456Y-117903024D01*
X145272637Y-117829348D01*
X145446041Y-117721981D01*
X145596764Y-117584579D01*
X145719673Y-117421821D01*
X145810582Y-117239250D01*
X145866397Y-117043083D01*
X145885215Y-116840000D01*
X145866397Y-116636917D01*
X145810582Y-116440750D01*
X145719673Y-116258179D01*
X145596764Y-116095421D01*
X145596762Y-116095418D01*
X145446041Y-115958019D01*
X145446039Y-115958017D01*
X145267763Y-115847634D01*
X145268620Y-115846248D01*
X145222987Y-115803934D01*
X145205500Y-115740444D01*
X145205500Y-115658684D01*
X145205500Y-115658682D01*
X145176503Y-115550463D01*
X145120485Y-115453437D01*
X145041263Y-115374215D01*
X142621819Y-112954771D01*
X142588334Y-112893448D01*
X142585500Y-112867090D01*
X142585500Y-112859555D01*
X142605185Y-112792516D01*
X142648555Y-112753645D01*
X142647763Y-112752366D01*
X142826039Y-112641982D01*
X142826038Y-112641982D01*
X142826041Y-112641981D01*
X142976764Y-112504579D01*
X143099673Y-112341821D01*
X143190582Y-112159250D01*
X143246397Y-111963083D01*
X143265215Y-111760000D01*
X143246397Y-111556917D01*
X143190582Y-111360750D01*
X143099673Y-111178179D01*
X142976764Y-111015421D01*
X142976762Y-111015418D01*
X142826041Y-110878019D01*
X142826039Y-110878017D01*
X142652642Y-110770655D01*
X142652635Y-110770651D01*
X142557546Y-110733814D01*
X142462456Y-110696976D01*
X142261976Y-110659500D01*
X142058024Y-110659500D01*
X141857544Y-110696976D01*
X141857541Y-110696976D01*
X141857541Y-110696977D01*
X141667364Y-110770651D01*
X141667357Y-110770655D01*
X141493960Y-110878017D01*
X141493958Y-110878019D01*
X141343237Y-111015418D01*
X141220327Y-111178178D01*
X141129422Y-111360739D01*
X141129417Y-111360752D01*
X141073602Y-111556917D01*
X141054785Y-111759999D01*
X141054785Y-111760000D01*
X138265215Y-111760000D01*
X138246397Y-111556917D01*
X138190582Y-111360750D01*
X138099673Y-111178179D01*
X137976764Y-111015421D01*
X137976762Y-111015418D01*
X137826041Y-110878019D01*
X137826039Y-110878017D01*
X137652642Y-110770655D01*
X137652635Y-110770651D01*
X137557546Y-110733814D01*
X137462456Y-110696976D01*
X137261976Y-110659500D01*
X137058024Y-110659500D01*
X136857544Y-110696976D01*
X136857541Y-110696976D01*
X136857541Y-110696977D01*
X136667364Y-110770651D01*
X136667357Y-110770655D01*
X136493960Y-110878017D01*
X136493958Y-110878019D01*
X136343237Y-111015418D01*
X136220327Y-111178178D01*
X136129422Y-111360739D01*
X136129417Y-111360752D01*
X136073602Y-111556917D01*
X136054785Y-111759999D01*
X136054785Y-111760000D01*
X136073602Y-111963082D01*
X136129417Y-112159247D01*
X136129422Y-112159260D01*
X136220327Y-112341821D01*
X136343237Y-112504581D01*
X136493958Y-112641980D01*
X136493960Y-112641982D01*
X136593141Y-112703392D01*
X136667363Y-112749348D01*
X136857544Y-112823024D01*
X137058024Y-112860500D01*
X137058026Y-112860500D01*
X137261974Y-112860500D01*
X137261976Y-112860500D01*
X137462456Y-112823024D01*
X137501586Y-112807865D01*
X137571209Y-112802002D01*
X137632950Y-112834711D01*
X137634062Y-112835810D01*
X144282611Y-119484358D01*
X144316096Y-119545681D01*
X144311112Y-119615373D01*
X144269240Y-119671306D01*
X144260207Y-119677466D01*
X144113960Y-119768017D01*
X144113958Y-119768019D01*
X143963237Y-119905418D01*
X143840327Y-120068178D01*
X143749422Y-120250739D01*
X143749417Y-120250752D01*
X143693602Y-120446917D01*
X143674785Y-120649999D01*
X143674785Y-120650000D01*
X143693602Y-120853082D01*
X143749417Y-121049247D01*
X143749422Y-121049260D01*
X143840327Y-121231821D01*
X143963237Y-121394581D01*
X144113958Y-121531980D01*
X144113960Y-121531982D01*
X144213141Y-121593392D01*
X144287363Y-121639348D01*
X144477544Y-121713024D01*
X144678024Y-121750500D01*
X144678026Y-121750500D01*
X144881974Y-121750500D01*
X144881976Y-121750500D01*
X145082456Y-121713024D01*
X145272637Y-121639348D01*
X145446041Y-121531981D01*
X145574122Y-121415219D01*
X145596762Y-121394581D01*
X145596764Y-121394579D01*
X145719673Y-121231821D01*
X145763289Y-121144225D01*
X145810790Y-121092992D01*
X145874288Y-121075500D01*
X146076390Y-121075500D01*
X146143429Y-121095185D01*
X146164071Y-121111819D01*
X147809122Y-122756870D01*
X147842607Y-122818193D01*
X147840102Y-122880545D01*
X147808699Y-122984067D01*
X147788417Y-123190000D01*
X147808699Y-123395932D01*
X147808700Y-123395934D01*
X147868768Y-123593954D01*
X147966315Y-123776450D01*
X147966317Y-123776452D01*
X148097589Y-123936410D01*
X148180736Y-124004646D01*
X148220071Y-124062392D01*
X148221942Y-124132237D01*
X148185755Y-124192005D01*
X148122999Y-124222721D01*
X148102072Y-124224500D01*
X130974500Y-124224500D01*
X130907461Y-124204815D01*
X130861706Y-124152011D01*
X130850500Y-124100500D01*
X130850500Y-123084983D01*
X130850500Y-123084982D01*
X130839006Y-123057233D01*
X130817767Y-123035994D01*
X130790018Y-123024500D01*
X126190018Y-123024500D01*
X126159982Y-123024500D01*
X126132231Y-123035995D01*
X126110995Y-123057231D01*
X126099500Y-123084982D01*
X126099500Y-124100500D01*
X126079815Y-124167539D01*
X126027011Y-124213294D01*
X125975500Y-124224500D01*
X122624500Y-124224500D01*
X122557461Y-124204815D01*
X122511706Y-124152011D01*
X122500500Y-124100500D01*
X122500500Y-120650000D01*
X136054785Y-120650000D01*
X136073602Y-120853082D01*
X136129417Y-121049247D01*
X136129422Y-121049260D01*
X136220327Y-121231821D01*
X136343237Y-121394581D01*
X136493958Y-121531980D01*
X136493960Y-121531982D01*
X136593141Y-121593392D01*
X136667363Y-121639348D01*
X136857544Y-121713024D01*
X137058024Y-121750500D01*
X137058026Y-121750500D01*
X137261974Y-121750500D01*
X137261976Y-121750500D01*
X137462456Y-121713024D01*
X137652637Y-121639348D01*
X137826041Y-121531981D01*
X137954122Y-121415219D01*
X137976762Y-121394581D01*
X137976764Y-121394579D01*
X138099673Y-121231821D01*
X138190582Y-121049250D01*
X138246397Y-120853083D01*
X138265215Y-120650000D01*
X138246397Y-120446917D01*
X138190582Y-120250750D01*
X138188238Y-120246043D01*
X138143288Y-120155771D01*
X138099673Y-120068179D01*
X137976764Y-119905421D01*
X137976762Y-119905418D01*
X137826041Y-119768019D01*
X137826039Y-119768017D01*
X137652642Y-119660655D01*
X137652635Y-119660651D01*
X137557546Y-119623814D01*
X137462456Y-119586976D01*
X137261976Y-119549500D01*
X137058024Y-119549500D01*
X136857544Y-119586976D01*
X136857541Y-119586976D01*
X136857541Y-119586977D01*
X136667364Y-119660651D01*
X136667357Y-119660655D01*
X136493960Y-119768017D01*
X136493958Y-119768019D01*
X136343237Y-119905418D01*
X136220327Y-120068178D01*
X136129422Y-120250739D01*
X136129417Y-120250752D01*
X136073602Y-120446917D01*
X136054785Y-120649999D01*
X136054785Y-120650000D01*
X122500500Y-120650000D01*
X122500500Y-116840000D01*
X136054785Y-116840000D01*
X136073602Y-117043082D01*
X136129417Y-117239247D01*
X136129422Y-117239260D01*
X136220327Y-117421821D01*
X136343237Y-117584581D01*
X136452844Y-117684500D01*
X136484652Y-117713497D01*
X136493958Y-117721980D01*
X136493960Y-117721982D01*
X136570726Y-117769513D01*
X136667363Y-117829348D01*
X136857544Y-117903024D01*
X137058024Y-117940500D01*
X137058026Y-117940500D01*
X137261974Y-117940500D01*
X137261976Y-117940500D01*
X137462456Y-117903024D01*
X137652637Y-117829348D01*
X137826041Y-117721981D01*
X137976764Y-117584579D01*
X138099673Y-117421821D01*
X138190582Y-117239250D01*
X138246397Y-117043083D01*
X138265215Y-116840000D01*
X138246397Y-116636917D01*
X138190582Y-116440750D01*
X138099673Y-116258179D01*
X137976764Y-116095421D01*
X137976762Y-116095418D01*
X137826041Y-115958019D01*
X137826039Y-115958017D01*
X137652642Y-115850655D01*
X137652635Y-115850651D01*
X137532043Y-115803934D01*
X137462456Y-115776976D01*
X137261976Y-115739500D01*
X137058024Y-115739500D01*
X136857544Y-115776976D01*
X136857541Y-115776976D01*
X136857541Y-115776977D01*
X136667364Y-115850651D01*
X136667357Y-115850655D01*
X136493960Y-115958017D01*
X136493958Y-115958019D01*
X136343237Y-116095418D01*
X136220327Y-116258178D01*
X136129422Y-116440739D01*
X136129417Y-116440752D01*
X136073602Y-116636917D01*
X136054785Y-116839999D01*
X136054785Y-116840000D01*
X122500500Y-116840000D01*
X122500500Y-107315000D01*
X136054785Y-107315000D01*
X136073602Y-107518082D01*
X136129417Y-107714247D01*
X136129422Y-107714260D01*
X136220327Y-107896821D01*
X136343237Y-108059581D01*
X136493958Y-108196980D01*
X136493960Y-108196982D01*
X136593141Y-108258392D01*
X136667363Y-108304348D01*
X136857544Y-108378024D01*
X137058024Y-108415500D01*
X137058026Y-108415500D01*
X137261974Y-108415500D01*
X137261976Y-108415500D01*
X137462456Y-108378024D01*
X137652637Y-108304348D01*
X137826041Y-108196981D01*
X137976764Y-108059579D01*
X138099673Y-107896821D01*
X138190582Y-107714250D01*
X138246397Y-107518083D01*
X138265215Y-107315000D01*
X143674785Y-107315000D01*
X143693602Y-107518082D01*
X143749417Y-107714247D01*
X143749422Y-107714260D01*
X143840327Y-107896821D01*
X143963237Y-108059581D01*
X144113958Y-108196980D01*
X144113960Y-108196982D01*
X144292237Y-108307366D01*
X144291375Y-108308756D01*
X144336998Y-108351041D01*
X144354500Y-108414555D01*
X144354500Y-108496318D01*
X144383497Y-108604537D01*
X144439515Y-108701563D01*
X144439517Y-108701565D01*
X148128181Y-112390229D01*
X148161666Y-112451552D01*
X148164500Y-112477910D01*
X148164500Y-113200444D01*
X148144815Y-113267483D01*
X148101447Y-113306359D01*
X148102237Y-113307634D01*
X147923960Y-113418017D01*
X147923958Y-113418019D01*
X147773237Y-113555418D01*
X147650327Y-113718178D01*
X147559422Y-113900739D01*
X147559417Y-113900752D01*
X147503602Y-114096917D01*
X147484785Y-114299999D01*
X147484785Y-114300000D01*
X147503602Y-114503082D01*
X147559417Y-114699247D01*
X147559422Y-114699260D01*
X147650327Y-114881821D01*
X147773237Y-115044581D01*
X147923958Y-115181980D01*
X147923960Y-115181982D01*
X148023141Y-115243392D01*
X148097363Y-115289348D01*
X148287544Y-115363024D01*
X148488024Y-115400500D01*
X148488026Y-115400500D01*
X148691974Y-115400500D01*
X148691976Y-115400500D01*
X148892456Y-115363024D01*
X149082637Y-115289348D01*
X149256041Y-115181981D01*
X149406764Y-115044579D01*
X149529673Y-114881821D01*
X149620582Y-114699250D01*
X149676397Y-114503083D01*
X149695215Y-114300000D01*
X149676397Y-114096917D01*
X149620582Y-113900750D01*
X149616848Y-113893252D01*
X149576272Y-113811764D01*
X149529673Y-113718179D01*
X149406764Y-113555421D01*
X149406762Y-113555418D01*
X149256041Y-113418019D01*
X149256039Y-113418017D01*
X149077763Y-113307634D01*
X149078620Y-113306248D01*
X149032987Y-113263934D01*
X149015500Y-113200444D01*
X149015500Y-112194284D01*
X149015500Y-112194282D01*
X148986503Y-112086063D01*
X148930485Y-111989037D01*
X148851263Y-111909815D01*
X145366756Y-108425308D01*
X145333271Y-108363985D01*
X145338255Y-108294293D01*
X145380127Y-108238360D01*
X145389160Y-108232200D01*
X145446039Y-108196982D01*
X145446038Y-108196982D01*
X145446041Y-108196981D01*
X145596764Y-108059579D01*
X145719673Y-107896821D01*
X145810582Y-107714250D01*
X145866397Y-107518083D01*
X145885215Y-107315000D01*
X145866397Y-107111917D01*
X145810582Y-106915750D01*
X145794315Y-106883082D01*
X145766272Y-106826764D01*
X145719673Y-106733179D01*
X145596764Y-106570421D01*
X145596762Y-106570418D01*
X145446041Y-106433019D01*
X145446039Y-106433017D01*
X145272642Y-106325655D01*
X145272635Y-106325651D01*
X145156702Y-106280739D01*
X145082456Y-106251976D01*
X144881976Y-106214500D01*
X144678024Y-106214500D01*
X144477544Y-106251976D01*
X144477541Y-106251976D01*
X144477541Y-106251977D01*
X144287364Y-106325651D01*
X144287357Y-106325655D01*
X144113960Y-106433017D01*
X144113958Y-106433019D01*
X143963237Y-106570418D01*
X143840327Y-106733178D01*
X143749422Y-106915739D01*
X143749417Y-106915752D01*
X143693602Y-107111917D01*
X143674785Y-107314999D01*
X143674785Y-107315000D01*
X138265215Y-107315000D01*
X138246397Y-107111917D01*
X138190582Y-106915750D01*
X138174315Y-106883082D01*
X138146272Y-106826764D01*
X138099673Y-106733179D01*
X137976764Y-106570421D01*
X137976762Y-106570418D01*
X137826041Y-106433019D01*
X137826039Y-106433017D01*
X137652642Y-106325655D01*
X137652635Y-106325651D01*
X137536702Y-106280739D01*
X137462456Y-106251976D01*
X137261976Y-106214500D01*
X137058024Y-106214500D01*
X136857544Y-106251976D01*
X136857541Y-106251976D01*
X136857541Y-106251977D01*
X136667364Y-106325651D01*
X136667357Y-106325655D01*
X136493960Y-106433017D01*
X136493958Y-106433019D01*
X136343237Y-106570418D01*
X136220327Y-106733178D01*
X136129422Y-106915739D01*
X136129417Y-106915752D01*
X136073602Y-107111917D01*
X136054785Y-107314999D01*
X136054785Y-107315000D01*
X122500500Y-107315000D01*
X122500500Y-82635844D01*
X137384000Y-82635844D01*
X137390401Y-82695372D01*
X137390403Y-82695379D01*
X137440645Y-82830086D01*
X137440649Y-82830093D01*
X137526809Y-82945187D01*
X137526812Y-82945190D01*
X137641906Y-83031350D01*
X137641913Y-83031354D01*
X137672633Y-83042812D01*
X137728567Y-83084683D01*
X137752984Y-83150147D01*
X137740300Y-83214265D01*
X137653424Y-83388734D01*
X137653417Y-83388752D01*
X137597602Y-83584917D01*
X137578785Y-83787999D01*
X137578785Y-83788000D01*
X137597602Y-83991082D01*
X137653417Y-84187247D01*
X137653422Y-84187260D01*
X137744327Y-84369821D01*
X137867237Y-84532581D01*
X138017958Y-84669980D01*
X138017960Y-84669982D01*
X138117141Y-84731392D01*
X138191363Y-84777348D01*
X138381544Y-84851024D01*
X138582024Y-84888500D01*
X138582026Y-84888500D01*
X138785974Y-84888500D01*
X138785976Y-84888500D01*
X138986456Y-84851024D01*
X139025586Y-84835865D01*
X139095209Y-84830002D01*
X139156950Y-84862711D01*
X139158062Y-84863810D01*
X141581874Y-87287621D01*
X141581884Y-87287632D01*
X141586214Y-87291962D01*
X141586215Y-87291963D01*
X141665437Y-87371185D01*
X141762463Y-87427203D01*
X141870681Y-87456200D01*
X141870682Y-87456200D01*
X146770500Y-87456200D01*
X146837539Y-87475885D01*
X146883294Y-87528689D01*
X146894500Y-87580200D01*
X146894500Y-92018982D01*
X146894500Y-92131018D01*
X146923497Y-92239237D01*
X146979515Y-92336263D01*
X146979516Y-92336264D01*
X146979517Y-92336265D01*
X147555122Y-92911869D01*
X147588607Y-92973192D01*
X147586102Y-93035544D01*
X147554699Y-93139066D01*
X147534417Y-93345000D01*
X147554699Y-93550934D01*
X147586101Y-93654454D01*
X147586724Y-93724321D01*
X147555121Y-93778129D01*
X147307069Y-94026182D01*
X147245749Y-94059666D01*
X147219390Y-94062500D01*
X145874288Y-94062500D01*
X145807249Y-94042815D01*
X145763289Y-93993774D01*
X145719673Y-93906179D01*
X145596764Y-93743421D01*
X145596762Y-93743418D01*
X145446041Y-93606019D01*
X145446039Y-93606017D01*
X145272642Y-93498655D01*
X145272635Y-93498651D01*
X145177546Y-93461814D01*
X145082456Y-93424976D01*
X144881976Y-93387500D01*
X144678024Y-93387500D01*
X144477544Y-93424976D01*
X144477541Y-93424976D01*
X144477541Y-93424977D01*
X144287364Y-93498651D01*
X144287357Y-93498655D01*
X144113960Y-93606017D01*
X144113958Y-93606019D01*
X143963237Y-93743418D01*
X143840327Y-93906178D01*
X143749422Y-94088739D01*
X143749417Y-94088752D01*
X143693602Y-94284917D01*
X143674785Y-94487999D01*
X143674785Y-94488000D01*
X143693602Y-94691082D01*
X143749417Y-94887247D01*
X143749422Y-94887260D01*
X143840327Y-95069821D01*
X143963237Y-95232581D01*
X144113958Y-95369980D01*
X144113960Y-95369982D01*
X144193935Y-95419500D01*
X144287363Y-95477348D01*
X144477544Y-95551024D01*
X144678024Y-95588500D01*
X144678026Y-95588500D01*
X144881974Y-95588500D01*
X144881976Y-95588500D01*
X145082456Y-95551024D01*
X145272637Y-95477348D01*
X145446041Y-95369981D01*
X145574122Y-95253219D01*
X145596762Y-95232581D01*
X145596764Y-95232579D01*
X145719673Y-95069821D01*
X145763289Y-94982225D01*
X145810790Y-94930992D01*
X145874288Y-94913500D01*
X147503016Y-94913500D01*
X147503018Y-94913500D01*
X147611237Y-94884503D01*
X147683312Y-94842890D01*
X147751209Y-94826418D01*
X147817236Y-94849270D01*
X147860427Y-94904191D01*
X147867069Y-94973744D01*
X147835054Y-95035847D01*
X147832991Y-95037959D01*
X145355474Y-97515476D01*
X145294151Y-97548961D01*
X145224459Y-97543977D01*
X145223000Y-97543422D01*
X145082460Y-97488977D01*
X145082457Y-97488976D01*
X145082456Y-97488976D01*
X144881976Y-97451500D01*
X144678024Y-97451500D01*
X144477544Y-97488976D01*
X144477541Y-97488976D01*
X144477541Y-97488977D01*
X144287364Y-97562651D01*
X144287357Y-97562655D01*
X144113960Y-97670017D01*
X144113958Y-97670019D01*
X143963237Y-97807418D01*
X143840327Y-97970178D01*
X143749422Y-98152739D01*
X143749417Y-98152752D01*
X143693602Y-98348917D01*
X143674785Y-98551999D01*
X143674785Y-98552000D01*
X143693602Y-98755082D01*
X143749417Y-98951247D01*
X143749422Y-98951260D01*
X143840327Y-99133821D01*
X143963237Y-99296581D01*
X144113958Y-99433980D01*
X144113960Y-99433982D01*
X144213141Y-99495392D01*
X144287363Y-99541348D01*
X144477544Y-99615024D01*
X144678024Y-99652500D01*
X144678026Y-99652500D01*
X144881974Y-99652500D01*
X144881976Y-99652500D01*
X145082456Y-99615024D01*
X145272637Y-99541348D01*
X145446041Y-99433981D01*
X145596764Y-99296579D01*
X145719673Y-99133821D01*
X145810582Y-98951250D01*
X145866397Y-98755083D01*
X145885215Y-98552000D01*
X145866397Y-98348917D01*
X145855136Y-98309339D01*
X145855722Y-98239475D01*
X145886719Y-98187727D01*
X147320681Y-96753765D01*
X147382002Y-96720282D01*
X147451694Y-96725266D01*
X147507627Y-96767138D01*
X147527626Y-96807513D01*
X147559417Y-96919247D01*
X147559422Y-96919260D01*
X147650327Y-97101821D01*
X147773237Y-97264581D01*
X147923958Y-97401980D01*
X147923960Y-97401982D01*
X147941471Y-97412824D01*
X148097363Y-97509348D01*
X148287544Y-97583024D01*
X148488024Y-97620500D01*
X148488026Y-97620500D01*
X148691974Y-97620500D01*
X148691976Y-97620500D01*
X148892456Y-97583024D01*
X149082637Y-97509348D01*
X149256041Y-97401981D01*
X149406764Y-97264579D01*
X149529673Y-97101821D01*
X149573289Y-97014225D01*
X149620790Y-96962992D01*
X149684288Y-96945500D01*
X153210712Y-96945500D01*
X153277751Y-96965185D01*
X153321710Y-97014225D01*
X153365327Y-97101821D01*
X153365329Y-97101823D01*
X153488237Y-97264581D01*
X153638958Y-97401980D01*
X153638960Y-97401982D01*
X153656471Y-97412824D01*
X153812363Y-97509348D01*
X154002544Y-97583024D01*
X154203024Y-97620500D01*
X154203026Y-97620500D01*
X154406974Y-97620500D01*
X154406976Y-97620500D01*
X154607456Y-97583024D01*
X154797637Y-97509348D01*
X154971041Y-97401981D01*
X155121764Y-97264579D01*
X155244673Y-97101821D01*
X155335582Y-96919250D01*
X155391397Y-96723083D01*
X155410215Y-96520000D01*
X155391397Y-96316917D01*
X155335582Y-96120750D01*
X155244673Y-95938179D01*
X155121764Y-95775421D01*
X155121762Y-95775418D01*
X154971041Y-95638019D01*
X154971039Y-95638017D01*
X154797642Y-95530655D01*
X154797635Y-95530651D01*
X154667833Y-95480366D01*
X154607456Y-95456976D01*
X154406976Y-95419500D01*
X154203024Y-95419500D01*
X154002544Y-95456976D01*
X154002541Y-95456976D01*
X154002541Y-95456977D01*
X153812364Y-95530651D01*
X153812357Y-95530655D01*
X153638960Y-95638017D01*
X153638958Y-95638019D01*
X153488237Y-95775418D01*
X153365329Y-95938176D01*
X153365327Y-95938179D01*
X153321710Y-96025774D01*
X153274210Y-96077008D01*
X153210712Y-96094500D01*
X149684288Y-96094500D01*
X149617249Y-96074815D01*
X149573289Y-96025774D01*
X149529673Y-95938179D01*
X149406764Y-95775421D01*
X149406762Y-95775418D01*
X149256041Y-95638019D01*
X149256039Y-95638017D01*
X149082642Y-95530655D01*
X149082635Y-95530651D01*
X148952833Y-95480366D01*
X148892456Y-95456976D01*
X148892454Y-95456975D01*
X148892450Y-95456974D01*
X148892452Y-95456974D01*
X148892001Y-95456890D01*
X148891805Y-95456790D01*
X148886949Y-95455409D01*
X148887219Y-95454457D01*
X148829725Y-95425213D01*
X148794460Y-95364895D01*
X148797405Y-95295088D01*
X148827121Y-95247326D01*
X152092629Y-91981819D01*
X152153952Y-91948334D01*
X152180310Y-91945500D01*
X153210712Y-91945500D01*
X153277751Y-91965185D01*
X153321710Y-92014225D01*
X153365327Y-92101821D01*
X153365329Y-92101823D01*
X153488237Y-92264581D01*
X153638958Y-92401980D01*
X153638960Y-92401982D01*
X153738141Y-92463392D01*
X153812363Y-92509348D01*
X154002544Y-92583024D01*
X154203024Y-92620500D01*
X154203026Y-92620500D01*
X154406974Y-92620500D01*
X154406976Y-92620500D01*
X154607456Y-92583024D01*
X154797637Y-92509348D01*
X154971041Y-92401981D01*
X155121764Y-92264579D01*
X155244673Y-92101821D01*
X155335582Y-91919250D01*
X155391397Y-91723083D01*
X155410215Y-91520000D01*
X155391397Y-91316917D01*
X155335582Y-91120750D01*
X155244673Y-90938179D01*
X155121764Y-90775421D01*
X155121762Y-90775418D01*
X154971041Y-90638019D01*
X154971039Y-90638017D01*
X154797642Y-90530655D01*
X154797635Y-90530651D01*
X154702546Y-90493814D01*
X154607456Y-90456976D01*
X154406976Y-90419500D01*
X154203024Y-90419500D01*
X154002544Y-90456976D01*
X154002541Y-90456976D01*
X154002541Y-90456977D01*
X153812364Y-90530651D01*
X153812357Y-90530655D01*
X153638960Y-90638017D01*
X153638958Y-90638019D01*
X153488237Y-90775418D01*
X153365329Y-90938176D01*
X153365327Y-90938179D01*
X153321710Y-91025774D01*
X153274210Y-91077008D01*
X153210712Y-91094500D01*
X152180310Y-91094500D01*
X152113271Y-91074815D01*
X152092629Y-91058181D01*
X151498965Y-90464517D01*
X151498963Y-90464515D01*
X151401937Y-90408497D01*
X151293718Y-90379500D01*
X151293717Y-90379500D01*
X149628038Y-90379500D01*
X149560999Y-90359815D01*
X149518680Y-90313953D01*
X149467689Y-90218555D01*
X149467684Y-90218549D01*
X149336410Y-90058589D01*
X149176452Y-89927317D01*
X149176453Y-89927317D01*
X149176450Y-89927315D01*
X148993954Y-89829768D01*
X148795934Y-89769700D01*
X148795932Y-89769699D01*
X148795934Y-89769699D01*
X148590000Y-89749417D01*
X148384067Y-89769699D01*
X148186043Y-89829769D01*
X148003546Y-89927317D01*
X147948164Y-89972768D01*
X147883854Y-90000080D01*
X147814986Y-89988288D01*
X147763427Y-89941136D01*
X147745500Y-89876914D01*
X147745500Y-89439499D01*
X147765185Y-89372460D01*
X147817989Y-89326705D01*
X147869495Y-89315499D01*
X149384864Y-89315499D01*
X149384879Y-89315497D01*
X149384882Y-89315497D01*
X149409987Y-89312586D01*
X149409988Y-89312585D01*
X149409991Y-89312585D01*
X149512765Y-89267206D01*
X149592206Y-89187765D01*
X149637585Y-89084991D01*
X149640500Y-89059865D01*
X149640499Y-87573002D01*
X149660184Y-87505964D01*
X149712987Y-87460209D01*
X149732395Y-87453231D01*
X149829537Y-87427203D01*
X149926563Y-87371185D01*
X152941938Y-84355808D01*
X153003259Y-84322325D01*
X153072951Y-84327309D01*
X153074410Y-84327864D01*
X153108576Y-84341099D01*
X153113544Y-84343024D01*
X153314024Y-84380500D01*
X153314026Y-84380500D01*
X153517974Y-84380500D01*
X153517976Y-84380500D01*
X153718456Y-84343024D01*
X153908637Y-84269348D01*
X154082041Y-84161981D01*
X154232764Y-84024579D01*
X154355673Y-83861821D01*
X154446582Y-83679250D01*
X154502397Y-83483083D01*
X154521215Y-83280000D01*
X154502397Y-83076917D01*
X154446582Y-82880750D01*
X154442300Y-82872151D01*
X154389730Y-82766575D01*
X154355673Y-82698179D01*
X154251028Y-82559606D01*
X154226336Y-82494244D01*
X154240901Y-82425910D01*
X154290099Y-82376297D01*
X154299870Y-82371456D01*
X154388765Y-82332206D01*
X154468206Y-82252765D01*
X154513585Y-82149991D01*
X154516500Y-82124865D01*
X154516499Y-80435136D01*
X154516497Y-80435117D01*
X154513586Y-80410012D01*
X154513585Y-80410010D01*
X154513585Y-80410009D01*
X154468206Y-80307235D01*
X154388765Y-80227794D01*
X154331065Y-80202317D01*
X154285992Y-80182415D01*
X154260865Y-80179500D01*
X152571143Y-80179500D01*
X152571117Y-80179502D01*
X152546012Y-80182413D01*
X152546008Y-80182415D01*
X152443235Y-80227793D01*
X152363794Y-80307234D01*
X152318415Y-80410006D01*
X152318415Y-80410008D01*
X152315500Y-80435131D01*
X152315500Y-82124856D01*
X152315502Y-82124882D01*
X152318413Y-82149987D01*
X152318415Y-82149991D01*
X152363793Y-82252764D01*
X152443235Y-82332206D01*
X152532103Y-82371445D01*
X152585479Y-82416530D01*
X152606007Y-82483317D01*
X152587169Y-82550599D01*
X152580972Y-82559605D01*
X152476327Y-82698179D01*
X152385422Y-82880739D01*
X152385417Y-82880752D01*
X152329602Y-83076917D01*
X152310785Y-83279999D01*
X152310785Y-83280000D01*
X152329602Y-83483082D01*
X152329603Y-83483084D01*
X152372028Y-83632192D01*
X152371441Y-83702059D01*
X152340443Y-83753807D01*
X149525371Y-86568881D01*
X149464048Y-86602366D01*
X149437690Y-86605200D01*
X142154309Y-86605200D01*
X142087270Y-86585515D01*
X142066628Y-86568881D01*
X139759556Y-84261808D01*
X139726071Y-84200485D01*
X139727971Y-84140192D01*
X139770397Y-83991082D01*
X139789215Y-83788000D01*
X139789215Y-83787999D01*
X139770397Y-83584917D01*
X139759833Y-83547790D01*
X139714582Y-83388750D01*
X139714574Y-83388734D01*
X139660431Y-83280000D01*
X139627698Y-83214263D01*
X139615438Y-83145481D01*
X139642311Y-83080986D01*
X139695367Y-83042812D01*
X139726084Y-83031355D01*
X139726093Y-83031350D01*
X139841187Y-82945190D01*
X139841190Y-82945187D01*
X139927350Y-82830093D01*
X139927354Y-82830086D01*
X139977596Y-82695379D01*
X139977598Y-82695372D01*
X139983999Y-82635844D01*
X139984000Y-82635827D01*
X139984000Y-82038000D01*
X138999686Y-82038000D01*
X139004080Y-82033606D01*
X139056741Y-81942394D01*
X139084000Y-81840661D01*
X139084000Y-81788004D01*
X142974953Y-81788004D01*
X142995113Y-82057026D01*
X142995113Y-82057028D01*
X143055142Y-82320033D01*
X143055148Y-82320052D01*
X143153709Y-82571181D01*
X143153708Y-82571181D01*
X143288602Y-82804822D01*
X143342294Y-82872151D01*
X143342295Y-82872151D01*
X144178958Y-82035488D01*
X144203978Y-82095890D01*
X144275112Y-82202351D01*
X144365649Y-82292888D01*
X144472110Y-82364022D01*
X144532510Y-82389041D01*
X143694848Y-83226702D01*
X143877483Y-83351220D01*
X143877485Y-83351221D01*
X144120539Y-83468269D01*
X144120537Y-83468269D01*
X144378337Y-83547790D01*
X144378343Y-83547792D01*
X144645101Y-83587999D01*
X144645110Y-83588000D01*
X144914890Y-83588000D01*
X144914898Y-83587999D01*
X145181656Y-83547792D01*
X145181662Y-83547790D01*
X145439461Y-83468269D01*
X145682521Y-83351218D01*
X145865150Y-83226702D01*
X145027488Y-82389041D01*
X145087890Y-82364022D01*
X145194351Y-82292888D01*
X145284888Y-82202351D01*
X145356022Y-82095890D01*
X145381041Y-82035488D01*
X146217703Y-82872151D01*
X146217704Y-82872150D01*
X146271393Y-82804828D01*
X146271397Y-82804822D01*
X146293479Y-82766575D01*
X146344046Y-82718359D01*
X146412653Y-82705135D01*
X146477518Y-82731103D01*
X146495153Y-82748038D01*
X146644776Y-82923224D01*
X146771375Y-83031350D01*
X146836343Y-83086838D01*
X146836346Y-83086839D01*
X147051140Y-83218466D01*
X147283889Y-83314873D01*
X147528852Y-83373683D01*
X147780000Y-83393449D01*
X148031148Y-83373683D01*
X148276111Y-83314873D01*
X148508859Y-83218466D01*
X148723659Y-83086836D01*
X148915224Y-82923224D01*
X149078836Y-82731659D01*
X149210466Y-82516859D01*
X149306873Y-82284111D01*
X149365683Y-82039148D01*
X149385449Y-81788000D01*
X149365683Y-81536852D01*
X149306873Y-81291889D01*
X149253477Y-81162979D01*
X149210466Y-81059140D01*
X149078839Y-80844346D01*
X149078838Y-80844343D01*
X149041875Y-80801066D01*
X148915224Y-80652776D01*
X148788571Y-80544604D01*
X148723656Y-80489161D01*
X148723653Y-80489160D01*
X148508859Y-80357533D01*
X148276110Y-80261126D01*
X148031151Y-80202317D01*
X147780000Y-80182551D01*
X147528848Y-80202317D01*
X147283889Y-80261126D01*
X147051140Y-80357533D01*
X146836346Y-80489160D01*
X146836343Y-80489161D01*
X146644776Y-80652776D01*
X146495157Y-80827957D01*
X146436650Y-80866150D01*
X146366782Y-80866648D01*
X146307736Y-80829295D01*
X146293480Y-80809425D01*
X146271397Y-80771177D01*
X146217704Y-80703847D01*
X145381041Y-81540510D01*
X145356022Y-81480110D01*
X145284888Y-81373649D01*
X145194351Y-81283112D01*
X145087890Y-81211978D01*
X145027488Y-81186958D01*
X145865150Y-80349296D01*
X145682517Y-80224779D01*
X145682516Y-80224778D01*
X145439460Y-80107730D01*
X145439462Y-80107730D01*
X145181662Y-80028209D01*
X145181656Y-80028207D01*
X144914898Y-79988000D01*
X144645101Y-79988000D01*
X144378343Y-80028207D01*
X144378337Y-80028209D01*
X144120538Y-80107730D01*
X143877485Y-80224778D01*
X143877476Y-80224783D01*
X143694848Y-80349296D01*
X144532511Y-81186958D01*
X144472110Y-81211978D01*
X144365649Y-81283112D01*
X144275112Y-81373649D01*
X144203978Y-81480110D01*
X144178958Y-81540511D01*
X143342295Y-80703848D01*
X143288600Y-80771180D01*
X143153709Y-81004818D01*
X143055148Y-81255947D01*
X143055142Y-81255966D01*
X142995113Y-81518971D01*
X142995113Y-81518973D01*
X142974953Y-81787995D01*
X142974953Y-81788004D01*
X139084000Y-81788004D01*
X139084000Y-81735339D01*
X139056741Y-81633606D01*
X139004080Y-81542394D01*
X138999686Y-81538000D01*
X139984000Y-81538000D01*
X139984000Y-80940172D01*
X139983999Y-80940155D01*
X139977598Y-80880627D01*
X139977596Y-80880620D01*
X139927354Y-80745913D01*
X139927350Y-80745906D01*
X139841190Y-80630812D01*
X139841187Y-80630809D01*
X139726093Y-80544649D01*
X139726086Y-80544645D01*
X139591379Y-80494403D01*
X139591372Y-80494401D01*
X139531844Y-80488000D01*
X138934000Y-80488000D01*
X138934000Y-81472314D01*
X138929606Y-81467920D01*
X138838394Y-81415259D01*
X138736661Y-81388000D01*
X138631339Y-81388000D01*
X138529606Y-81415259D01*
X138438394Y-81467920D01*
X138434000Y-81472314D01*
X138434000Y-80488000D01*
X137836155Y-80488000D01*
X137776627Y-80494401D01*
X137776620Y-80494403D01*
X137641913Y-80544645D01*
X137641906Y-80544649D01*
X137526812Y-80630809D01*
X137526809Y-80630812D01*
X137440649Y-80745906D01*
X137440645Y-80745913D01*
X137390403Y-80880620D01*
X137390401Y-80880627D01*
X137384000Y-80940155D01*
X137384000Y-81538000D01*
X138368314Y-81538000D01*
X138363920Y-81542394D01*
X138311259Y-81633606D01*
X138284000Y-81735339D01*
X138284000Y-81840661D01*
X138311259Y-81942394D01*
X138363920Y-82033606D01*
X138368314Y-82038000D01*
X137384000Y-82038000D01*
X137384000Y-82635844D01*
X122500500Y-82635844D01*
X122500500Y-77899500D01*
X122520185Y-77832461D01*
X122572989Y-77786706D01*
X122624500Y-77775500D01*
X125975500Y-77775500D01*
X126042539Y-77795185D01*
G37*
G04 #@! TD.AperFunction*
M02*
