G04 #@! TF.GenerationSoftware,KiCad,Pcbnew,(5.0.1)-3*
G04 #@! TF.CreationDate,2019-02-16T15:36:24-05:00*
G04 #@! TF.ProjectId,OdysseyDaughterCardSpotGenerator,4F647973736579446175676874657243,1.2*
G04 #@! TF.SameCoordinates,Original*
G04 #@! TF.FileFunction,Copper,L2,Bot,Signal*
G04 #@! TF.FilePolarity,Positive*
%FSLAX46Y46*%
G04 Gerber Fmt 4.6, Leading zero omitted, Abs format (unit mm)*
G04 Created by KiCad (PCBNEW (5.0.1)-3) date 2/16/2019 3:36:24 PM*
%MOMM*%
%LPD*%
G01*
G04 APERTURE LIST*
G04 #@! TA.AperFunction,ComponentPad*
%ADD10C,1.600000*%
G04 #@! TD*
G04 #@! TA.AperFunction,ComponentPad*
%ADD11R,1.500000X1.050000*%
G04 #@! TD*
G04 #@! TA.AperFunction,ComponentPad*
%ADD12O,1.500000X1.050000*%
G04 #@! TD*
G04 #@! TA.AperFunction,ComponentPad*
%ADD13C,1.400000*%
G04 #@! TD*
G04 #@! TA.AperFunction,ComponentPad*
%ADD14O,1.600000X1.600000*%
G04 #@! TD*
G04 #@! TA.AperFunction,SMDPad,CuDef*
%ADD15R,11.000000X3.250000*%
G04 #@! TD*
G04 #@! TA.AperFunction,ComponentPad*
%ADD16R,1.600000X1.600000*%
G04 #@! TD*
G04 #@! TA.AperFunction,ComponentPad*
%ADD17R,1.700000X1.700000*%
G04 #@! TD*
G04 #@! TA.AperFunction,ComponentPad*
%ADD18O,1.700000X1.700000*%
G04 #@! TD*
G04 #@! TA.AperFunction,ViaPad*
%ADD19C,0.800000*%
G04 #@! TD*
G04 #@! TA.AperFunction,Conductor*
%ADD20C,0.250000*%
G04 #@! TD*
G04 APERTURE END LIST*
D10*
G04 #@! TO.P,C4,1*
G04 #@! TO.N,Net-(C4-Pad1)*
X148400000Y-86423500D03*
G04 #@! TO.P,C4,2*
G04 #@! TO.N,/Card4*
X148400000Y-88923500D03*
G04 #@! TD*
D11*
G04 #@! TO.P,Q1,1*
G04 #@! TO.N,GND*
X155448000Y-92646500D03*
D12*
G04 #@! TO.P,Q1,3*
G04 #@! TO.N,Net-(C2-Pad2)*
X155448000Y-95186500D03*
G04 #@! TO.P,Q1,2*
G04 #@! TO.N,Net-(C1-Pad1)*
X155448000Y-93916500D03*
G04 #@! TD*
D13*
G04 #@! TO.P,C3,1*
G04 #@! TO.N,Net-(C3-Pad1)*
X149860000Y-102108000D03*
G04 #@! TO.P,C3,2*
G04 #@! TO.N,Net-(C3-Pad2)*
X149860000Y-99608000D03*
G04 #@! TD*
D12*
G04 #@! TO.P,Q3,2*
G04 #@! TO.N,Net-(C3-Pad2)*
X149860000Y-93916500D03*
G04 #@! TO.P,Q3,3*
G04 #@! TO.N,GND*
X149860000Y-92646500D03*
D11*
G04 #@! TO.P,Q3,1*
G04 #@! TO.N,Net-(C4-Pad1)*
X149860000Y-95186500D03*
G04 #@! TD*
D10*
G04 #@! TO.P,R1,1*
G04 #@! TO.N,Net-(C1-Pad2)*
X144780000Y-84455000D03*
D14*
G04 #@! TO.P,R1,2*
G04 #@! TO.N,/Card9*
X137160000Y-84455000D03*
G04 #@! TD*
G04 #@! TO.P,R2,2*
G04 #@! TO.N,Net-(C1-Pad1)*
X144780000Y-95885000D03*
D10*
G04 #@! TO.P,R2,1*
G04 #@! TO.N,/Card6*
X137160000Y-95885000D03*
G04 #@! TD*
D14*
G04 #@! TO.P,R3,2*
G04 #@! TO.N,Net-(C2-Pad2)*
X144780000Y-88265000D03*
D10*
G04 #@! TO.P,R3,1*
G04 #@! TO.N,/Card6*
X137160000Y-88265000D03*
G04 #@! TD*
G04 #@! TO.P,R6,1*
G04 #@! TO.N,Net-(C3-Pad2)*
X144780000Y-99695000D03*
D14*
G04 #@! TO.P,R6,2*
G04 #@! TO.N,/Card6*
X137160000Y-99695000D03*
G04 #@! TD*
D10*
G04 #@! TO.P,R7,1*
G04 #@! TO.N,Net-(C4-Pad1)*
X144780000Y-92075000D03*
D14*
G04 #@! TO.P,R7,2*
G04 #@! TO.N,/Card6*
X137160000Y-92075000D03*
G04 #@! TD*
D15*
G04 #@! TO.P,X1,10*
G04 #@! TO.N,/Card10*
X129000000Y-81250000D03*
G04 #@! TO.P,X1,9*
G04 #@! TO.N,/Card9*
X129000000Y-85638888D03*
G04 #@! TO.P,X1,8*
G04 #@! TO.N,/Card8*
X129000000Y-90027776D03*
G04 #@! TO.P,X1,7*
G04 #@! TO.N,/Card7*
X129000000Y-94416664D03*
G04 #@! TO.P,X1,6*
G04 #@! TO.N,/Card6*
X129000000Y-98805552D03*
G04 #@! TO.P,X1,5*
G04 #@! TO.N,/Card5*
X129000000Y-103194440D03*
G04 #@! TO.P,X1,4*
G04 #@! TO.N,/Card4*
X129000000Y-107583328D03*
G04 #@! TO.P,X1,3*
G04 #@! TO.N,GND*
X129000000Y-111972216D03*
G04 #@! TO.P,X1,2*
G04 #@! TO.N,/Card2*
X129000000Y-116361104D03*
G04 #@! TO.P,X1,1*
G04 #@! TO.N,/Card1*
X129000000Y-120749992D03*
G04 #@! TD*
D10*
G04 #@! TO.P,C1,1*
G04 #@! TO.N,Net-(C1-Pad1)*
X148336000Y-83312000D03*
G04 #@! TO.P,C1,2*
G04 #@! TO.N,Net-(C1-Pad2)*
X148336000Y-80812000D03*
G04 #@! TD*
G04 #@! TO.P,C2,2*
G04 #@! TO.N,Net-(C2-Pad2)*
X155956000Y-99608000D03*
G04 #@! TO.P,C2,1*
G04 #@! TO.N,/Card7*
X155956000Y-102108000D03*
G04 #@! TD*
G04 #@! TO.P,C5,2*
G04 #@! TO.N,Net-(C3-Pad1)*
X148376000Y-116332000D03*
G04 #@! TO.P,C5,1*
G04 #@! TO.N,/Card4*
X150876000Y-116332000D03*
G04 #@! TD*
D14*
G04 #@! TO.P,D1,2*
G04 #@! TO.N,/Card10*
X137160000Y-80772000D03*
D16*
G04 #@! TO.P,D1,1*
G04 #@! TO.N,Net-(C1-Pad2)*
X144780000Y-80772000D03*
G04 #@! TD*
G04 #@! TO.P,D2,1*
G04 #@! TO.N,Net-(C3-Pad1)*
X144780000Y-120650000D03*
D14*
G04 #@! TO.P,D2,2*
G04 #@! TO.N,/Card1*
X137160000Y-120650000D03*
G04 #@! TD*
D12*
G04 #@! TO.P,Q2,2*
G04 #@! TO.N,/Card7*
X156464000Y-106934000D03*
G04 #@! TO.P,Q2,3*
G04 #@! TO.N,/Card5*
X156464000Y-105664000D03*
D11*
G04 #@! TO.P,Q2,1*
G04 #@! TO.N,GND*
X156464000Y-108204000D03*
G04 #@! TD*
G04 #@! TO.P,Q4,1*
G04 #@! TO.N,GND*
X150368000Y-108204000D03*
D12*
G04 #@! TO.P,Q4,3*
G04 #@! TO.N,/Card5*
X150368000Y-105664000D03*
G04 #@! TO.P,Q4,2*
G04 #@! TO.N,/Card4*
X150368000Y-106934000D03*
G04 #@! TD*
D10*
G04 #@! TO.P,R4,1*
G04 #@! TO.N,/Card6*
X137160000Y-103632000D03*
D14*
G04 #@! TO.P,R4,2*
G04 #@! TO.N,/Card8*
X144780000Y-103632000D03*
G04 #@! TD*
G04 #@! TO.P,R5,2*
G04 #@! TO.N,/Card5*
X137160000Y-107696000D03*
D10*
G04 #@! TO.P,R5,1*
G04 #@! TO.N,/Card8*
X144780000Y-107696000D03*
G04 #@! TD*
D14*
G04 #@! TO.P,R8,2*
G04 #@! TO.N,/Card2*
X137160000Y-116205000D03*
D10*
G04 #@! TO.P,R8,1*
G04 #@! TO.N,Net-(C3-Pad1)*
X144780000Y-116205000D03*
G04 #@! TD*
D17*
G04 #@! TO.P,J1,1*
G04 #@! TO.N,/Card2*
X156718000Y-120904000D03*
D18*
G04 #@! TO.P,J1,2*
G04 #@! TO.N,/Card9*
X156718000Y-118364000D03*
G04 #@! TO.P,J1,3*
G04 #@! TO.N,GND*
X156718000Y-115824000D03*
G04 #@! TD*
D17*
G04 #@! TO.P,J2,1*
G04 #@! TO.N,/Card6*
X156528000Y-87566500D03*
D18*
G04 #@! TO.P,J2,2*
G04 #@! TO.N,GND*
X156528000Y-85026500D03*
G04 #@! TO.P,J2,3*
G04 #@! TO.N,/Card10*
X156528000Y-82486500D03*
G04 #@! TO.P,J2,4*
G04 #@! TO.N,/Card1*
X156528000Y-79946500D03*
G04 #@! TD*
D19*
G04 #@! TO.N,/Card7*
X135606000Y-94318300D03*
G04 #@! TD*
D20*
G04 #@! TO.N,Net-(C1-Pad1)*
X155448000Y-93916500D02*
X154372700Y-93916500D01*
X154372700Y-93916500D02*
X154372700Y-89348700D01*
X154372700Y-89348700D02*
X148336000Y-83312000D01*
G04 #@! TO.N,Net-(C1-Pad2)*
X144780000Y-80812000D02*
X144780000Y-80772000D01*
X144780000Y-84455000D02*
X144780000Y-80812000D01*
X144780000Y-80812000D02*
X148336000Y-80812000D01*
G04 #@! TO.N,/Card7*
X155389000Y-106934000D02*
X155338300Y-106883300D01*
X155338300Y-106883300D02*
X155338300Y-102725700D01*
X155338300Y-102725700D02*
X155956000Y-102108000D01*
X156464000Y-106934000D02*
X155389000Y-106934000D01*
X129000000Y-94416700D02*
X134825000Y-94416700D01*
X134825000Y-94416700D02*
X134924000Y-94318300D01*
X134924000Y-94318300D02*
X135606000Y-94318300D01*
G04 #@! TO.N,Net-(C3-Pad1)*
X151443000Y-113265000D02*
X151497200Y-113210800D01*
X151497200Y-113210800D02*
X151497200Y-103745200D01*
X151497200Y-103745200D02*
X149860000Y-102108000D01*
X151443000Y-113265000D02*
X148376000Y-116332000D01*
G04 #@! TO.N,Net-(C3-Pad2)*
X150935300Y-93916500D02*
X150935300Y-98532700D01*
X150935300Y-98532700D02*
X149860000Y-99608000D01*
X144780000Y-99695000D02*
X149773000Y-99695000D01*
X149773000Y-99695000D02*
X149860000Y-99608000D01*
X149860000Y-93916500D02*
X150935300Y-93916500D01*
G04 #@! TO.N,Net-(C4-Pad1)*
X145673200Y-92075000D02*
X148784700Y-95186500D01*
X144780000Y-92075000D02*
X145673200Y-92075000D01*
X145673200Y-92075000D02*
X145673200Y-89150300D01*
X145673200Y-89150300D02*
X148400000Y-86423500D01*
X149860000Y-95186500D02*
X148784700Y-95186500D01*
G04 #@! TO.N,/Card4*
X148947000Y-106588500D02*
X148806000Y-106447500D01*
X148806000Y-106447500D02*
X148806000Y-101706900D01*
X148806000Y-101706900D02*
X149654900Y-100858000D01*
X149654900Y-100858000D02*
X150116400Y-100858000D01*
X150116400Y-100858000D02*
X151388100Y-99586300D01*
X151388100Y-99586300D02*
X151388100Y-91911600D01*
X151388100Y-91911600D02*
X148400000Y-88923500D01*
X148947000Y-106588500D02*
X148832000Y-106473000D01*
X149062000Y-106704000D02*
X148947000Y-106588500D01*
X129000300Y-107583000D02*
X129000000Y-107583300D01*
X129000000Y-107583000D02*
X129000300Y-107583000D01*
X150368000Y-106934000D02*
X149293000Y-106934000D01*
X149293000Y-106934000D02*
X149062000Y-106704000D01*
X134825000Y-107583000D02*
X136063000Y-108821000D01*
X129000300Y-107583000D02*
X134825000Y-107583000D01*
X136063000Y-108821000D02*
X146945000Y-108821000D01*
X146945000Y-108821000D02*
X149062000Y-106704000D01*
G04 #@! TO.N,/Card10*
X129000000Y-81250000D02*
X134825000Y-81250000D01*
X134825000Y-81250000D02*
X135303000Y-80772000D01*
X135303000Y-80772000D02*
X137160000Y-80772000D01*
G04 #@! TO.N,/Card1*
X129000000Y-120750000D02*
X134825000Y-120750000D01*
X134825000Y-120750000D02*
X134925000Y-120650000D01*
X134925000Y-120650000D02*
X137160000Y-120650000D01*
G04 #@! TO.N,GND*
X155448000Y-92646500D02*
X156523300Y-92646500D01*
X157539000Y-108204000D02*
X157597300Y-108145700D01*
X157597300Y-108145700D02*
X157597300Y-93720500D01*
X157597300Y-93720500D02*
X156523300Y-92646500D01*
X156464000Y-108204000D02*
X157539000Y-108204000D01*
X129000200Y-111972000D02*
X129000000Y-111972200D01*
X150368000Y-108204000D02*
X150368000Y-109054000D01*
X150368000Y-109054000D02*
X147450000Y-111972000D01*
X147450000Y-111972000D02*
X129000200Y-111972000D01*
X129000200Y-111972000D02*
X129000000Y-111972000D01*
X156718000Y-115824000D02*
X156718000Y-108458000D01*
X156718000Y-108458000D02*
X156464000Y-108204000D01*
X156273500Y-85026500D02*
X156528000Y-85026500D01*
X154940000Y-86360000D02*
X156273500Y-85026500D01*
X154940000Y-91288200D02*
X154940000Y-86360000D01*
X155448000Y-92646500D02*
X155448000Y-91796200D01*
X155448000Y-91796200D02*
X154940000Y-91288200D01*
G04 #@! TO.N,/Card5*
X129000400Y-103194000D02*
X129000000Y-103194400D01*
X129000400Y-103194000D02*
X134825000Y-103194000D01*
X134825000Y-103194000D02*
X136035000Y-104404000D01*
X136035000Y-104404000D02*
X136035000Y-107696000D01*
X136035000Y-107696000D02*
X137160000Y-107696000D01*
X129000000Y-103194000D02*
X129000400Y-103194000D01*
G04 #@! TO.N,/Card9*
X129000000Y-85638900D02*
X134825000Y-85638900D01*
X134825000Y-85638900D02*
X136009000Y-84455000D01*
X136009000Y-84455000D02*
X137160000Y-84455000D01*
X156718000Y-118618000D02*
X156718000Y-118364000D01*
X138285300Y-84455000D02*
X139410600Y-85580300D01*
X152683600Y-89040800D02*
X152683600Y-114583600D01*
X139410600Y-85580300D02*
X145873100Y-85580300D01*
X152683600Y-114583600D02*
X156718000Y-118618000D01*
X145873100Y-85580300D02*
X146206200Y-85247200D01*
X146206200Y-85247200D02*
X148890000Y-85247200D01*
X137160000Y-84455000D02*
X138285300Y-84455000D01*
X148890000Y-85247200D02*
X152683600Y-89040800D01*
G04 #@! TO.N,/Card6*
X137160000Y-92075000D02*
X137160000Y-95885000D01*
X137160000Y-88265000D02*
X137160000Y-92075000D01*
X137160000Y-98805500D02*
X137160000Y-99695000D01*
X137160000Y-95885000D02*
X137160000Y-98805500D01*
X137160000Y-98805500D02*
X129000000Y-98805500D01*
X137160000Y-99695000D02*
X137160000Y-103632000D01*
G04 #@! TO.N,/Card8*
X144780000Y-107696000D02*
X144780000Y-103632000D01*
X129000000Y-90027800D02*
X134825000Y-90027800D01*
X134825000Y-90027800D02*
X134825000Y-88935700D01*
X134825000Y-88935700D02*
X136521200Y-87240100D01*
X136521200Y-87240100D02*
X136646000Y-87115300D01*
X136521200Y-87240000D02*
X136684400Y-87076800D01*
X136521200Y-87240100D02*
X136521200Y-87240000D01*
X144780000Y-102506700D02*
X144780000Y-103632000D01*
X136684400Y-87076800D02*
X137599100Y-87076800D01*
X139700000Y-89177700D02*
X139700000Y-97426700D01*
X137599100Y-87076800D02*
X139700000Y-89177700D01*
X139700000Y-97426700D02*
X144780000Y-102506700D01*
G04 #@! TO.N,/Card2*
X129000100Y-116361000D02*
X129000000Y-116361100D01*
X129000100Y-116361000D02*
X134825000Y-116361000D01*
X134825000Y-116361000D02*
X134981000Y-116205000D01*
X134981000Y-116205000D02*
X137160000Y-116205000D01*
X129000000Y-116361000D02*
X129000100Y-116361000D01*
X137160000Y-116205000D02*
X142476000Y-116205000D01*
X142476000Y-116205000D02*
X147175000Y-120904000D01*
X147175000Y-120904000D02*
X156718000Y-120904000D01*
G04 #@! TD*
M02*
