M48
;DRILL file {KiCad (2017-12-21 revision 23d71cfa9)-makepkg} date 06/25/18 18:11:01
;FORMAT={-:-/ absolute / inch / decimal}
FMAT,2
INCH,TZ
T1C0.0256
T2C0.0315
%
G90
G05
M72
T1
X5.84Y-3.18
X5.84Y-3.23
X5.84Y-3.28
X5.62Y-3.18
X5.62Y-3.23
X5.62Y-3.28
X5.86Y-3.44
X5.86Y-3.49
X5.86Y-3.54
T2
X5.74Y-3.72
X5.74Y-4.02
X5.58Y-3.72
X5.58Y-4.02
X5.6Y-4.42
X5.6Y-4.6169
X5.42Y-3.16
X5.42Y-3.46
X5.44Y-4.42
X5.44Y-4.72
X5.58Y-3.42
X5.58Y-3.6169
X5.425Y-3.725
X5.425Y-4.025
X5.76Y-4.42
X5.76Y-4.72
X5.38Y-4.18
X5.68Y-4.18
T0
M30
