M48
;DRILL file {KiCad (2017-12-21 revision 23d71cfa9)-makepkg} date 06/03/18 16:52:55
;FORMAT={-:-/ absolute / inch / decimal}
FMAT,2
INCH,TZ
T1C0.0157
T2C0.0276
T3C0.0295
T4C0.0315
%
G90
G05
M72
T1
X5.3388Y-3.7133
T2
X5.9Y-3.9216
X5.9Y-4.02
T3
X6.16Y-4.16
X6.16Y-4.21
X6.16Y-4.26
X5.9Y-3.48
X5.9Y-3.53
X5.9Y-3.58
X6.12Y-3.48
X6.12Y-3.53
X6.12Y-3.58
X5.92Y-4.16
X5.92Y-4.21
X5.92Y-4.26
T4
X5.4Y-3.775
X5.7Y-3.775
X5.4Y-3.475
X5.7Y-3.475
X5.4Y-4.75
X5.7Y-4.75
X5.9Y-3.72
X5.9Y-3.8184
X5.4Y-3.625
X5.7Y-3.625
X5.4Y-3.925
X5.7Y-3.925
X5.4Y-4.24
X5.7Y-4.24
X5.84Y-3.1816
X5.84Y-3.28
X5.4Y-4.08
X5.7Y-4.08
X5.4Y-3.18
X5.7Y-3.18
X5.8416Y-4.58
X5.94Y-4.58
X6.14Y-3.9216
X6.14Y-4.02
X5.4Y-3.325
X5.7Y-3.325
X5.4Y-4.575
X5.7Y-4.575
T0
M30
