G04 #@! TF.GenerationSoftware,KiCad,Pcbnew,(2017-12-21 revision 23d71cfa9)-makepkg*
G04 #@! TF.CreationDate,2018-08-18T14:34:20-04:00*
G04 #@! TF.ProjectId,OdysseyDaughterCardSummer,4F647973736579446175676874657243,0.1*
G04 #@! TF.SameCoordinates,Original*
G04 #@! TF.FileFunction,Legend,Top*
G04 #@! TF.FilePolarity,Positive*
%FSLAX46Y46*%
G04 Gerber Fmt 4.6, Leading zero omitted, Abs format (unit mm)*
G04 Created by KiCad (PCBNEW (2017-12-21 revision 23d71cfa9)-makepkg) date 08/18/18 14:34:20*
%MOMM*%
%LPD*%
G01*
G04 APERTURE LIST*
%ADD10C,0.150000*%
%ADD11C,0.200000*%
%ADD12C,0.120000*%
G04 APERTURE END LIST*
D10*
X164139904Y-123896380D02*
X164139904Y-122896380D01*
X164520857Y-122896380D01*
X164616095Y-122944000D01*
X164663714Y-122991619D01*
X164711333Y-123086857D01*
X164711333Y-123229714D01*
X164663714Y-123324952D01*
X164616095Y-123372571D01*
X164520857Y-123420190D01*
X164139904Y-123420190D01*
X165568476Y-123229714D02*
X165568476Y-123896380D01*
X165330380Y-122848761D02*
X165092285Y-123563047D01*
X165711333Y-123563047D01*
X167282761Y-123229714D02*
X167282761Y-124039238D01*
X167235142Y-124134476D01*
X167187523Y-124182095D01*
X167092285Y-124229714D01*
X166949428Y-124229714D01*
X166854190Y-124182095D01*
X167282761Y-123848761D02*
X167187523Y-123896380D01*
X166997047Y-123896380D01*
X166901809Y-123848761D01*
X166854190Y-123801142D01*
X166806571Y-123705904D01*
X166806571Y-123420190D01*
X166854190Y-123324952D01*
X166901809Y-123277333D01*
X166997047Y-123229714D01*
X167187523Y-123229714D01*
X167282761Y-123277333D01*
X168187523Y-123896380D02*
X168187523Y-123372571D01*
X168139904Y-123277333D01*
X168044666Y-123229714D01*
X167854190Y-123229714D01*
X167758952Y-123277333D01*
X168187523Y-123848761D02*
X168092285Y-123896380D01*
X167854190Y-123896380D01*
X167758952Y-123848761D01*
X167711333Y-123753523D01*
X167711333Y-123658285D01*
X167758952Y-123563047D01*
X167854190Y-123515428D01*
X168092285Y-123515428D01*
X168187523Y-123467809D01*
X168520857Y-123229714D02*
X168901809Y-123229714D01*
X168663714Y-122896380D02*
X168663714Y-123753523D01*
X168711333Y-123848761D01*
X168806571Y-123896380D01*
X168901809Y-123896380D01*
X169616095Y-123848761D02*
X169520857Y-123896380D01*
X169330380Y-123896380D01*
X169235142Y-123848761D01*
X169187523Y-123753523D01*
X169187523Y-123372571D01*
X169235142Y-123277333D01*
X169330380Y-123229714D01*
X169520857Y-123229714D01*
X169616095Y-123277333D01*
X169663714Y-123372571D01*
X169663714Y-123467809D01*
X169187523Y-123563047D01*
X164099952Y-111831380D02*
X164099952Y-110831380D01*
X164480904Y-110831380D01*
X164576142Y-110879000D01*
X164623761Y-110926619D01*
X164671380Y-111021857D01*
X164671380Y-111164714D01*
X164623761Y-111259952D01*
X164576142Y-111307571D01*
X164480904Y-111355190D01*
X164099952Y-111355190D01*
X165528523Y-111164714D02*
X165528523Y-111831380D01*
X165290428Y-110783761D02*
X165052333Y-111498047D01*
X165671380Y-111498047D01*
X166814237Y-111831380D02*
X166814237Y-111164714D01*
X166814237Y-110831380D02*
X166766618Y-110879000D01*
X166814237Y-110926619D01*
X166861856Y-110879000D01*
X166814237Y-110831380D01*
X166814237Y-110926619D01*
X167290428Y-111164714D02*
X167290428Y-111831380D01*
X167290428Y-111259952D02*
X167338047Y-111212333D01*
X167433285Y-111164714D01*
X167576142Y-111164714D01*
X167671380Y-111212333D01*
X167718999Y-111307571D01*
X167718999Y-111831380D01*
X164012904Y-91257380D02*
X164012904Y-90257380D01*
X164393857Y-90257380D01*
X164489095Y-90305000D01*
X164536714Y-90352619D01*
X164584333Y-90447857D01*
X164584333Y-90590714D01*
X164536714Y-90685952D01*
X164489095Y-90733571D01*
X164393857Y-90781190D01*
X164012904Y-90781190D01*
X164917666Y-90257380D02*
X165536714Y-90257380D01*
X165203380Y-90638333D01*
X165346238Y-90638333D01*
X165441476Y-90685952D01*
X165489095Y-90733571D01*
X165536714Y-90828809D01*
X165536714Y-91066904D01*
X165489095Y-91162142D01*
X165441476Y-91209761D01*
X165346238Y-91257380D01*
X165060523Y-91257380D01*
X164965285Y-91209761D01*
X164917666Y-91162142D01*
X167155761Y-90590714D02*
X167155761Y-91400238D01*
X167108142Y-91495476D01*
X167060523Y-91543095D01*
X166965285Y-91590714D01*
X166822428Y-91590714D01*
X166727190Y-91543095D01*
X167155761Y-91209761D02*
X167060523Y-91257380D01*
X166870047Y-91257380D01*
X166774809Y-91209761D01*
X166727190Y-91162142D01*
X166679571Y-91066904D01*
X166679571Y-90781190D01*
X166727190Y-90685952D01*
X166774809Y-90638333D01*
X166870047Y-90590714D01*
X167060523Y-90590714D01*
X167155761Y-90638333D01*
X168060523Y-91257380D02*
X168060523Y-90733571D01*
X168012904Y-90638333D01*
X167917666Y-90590714D01*
X167727190Y-90590714D01*
X167631952Y-90638333D01*
X168060523Y-91209761D02*
X167965285Y-91257380D01*
X167727190Y-91257380D01*
X167631952Y-91209761D01*
X167584333Y-91114523D01*
X167584333Y-91019285D01*
X167631952Y-90924047D01*
X167727190Y-90876428D01*
X167965285Y-90876428D01*
X168060523Y-90828809D01*
X168393857Y-90590714D02*
X168774809Y-90590714D01*
X168536714Y-90257380D02*
X168536714Y-91114523D01*
X168584333Y-91209761D01*
X168679571Y-91257380D01*
X168774809Y-91257380D01*
X169489095Y-91209761D02*
X169393857Y-91257380D01*
X169203380Y-91257380D01*
X169108142Y-91209761D01*
X169060523Y-91114523D01*
X169060523Y-90733571D01*
X169108142Y-90638333D01*
X169203380Y-90590714D01*
X169393857Y-90590714D01*
X169489095Y-90638333D01*
X169536714Y-90733571D01*
X169536714Y-90828809D01*
X169060523Y-90924047D01*
X163925476Y-84526380D02*
X163925476Y-83526380D01*
X164306428Y-83526380D01*
X164401666Y-83574000D01*
X164449285Y-83621619D01*
X164496904Y-83716857D01*
X164496904Y-83859714D01*
X164449285Y-83954952D01*
X164401666Y-84002571D01*
X164306428Y-84050190D01*
X163925476Y-84050190D01*
X164830238Y-83526380D02*
X165449285Y-83526380D01*
X165115952Y-83907333D01*
X165258809Y-83907333D01*
X165354047Y-83954952D01*
X165401666Y-84002571D01*
X165449285Y-84097809D01*
X165449285Y-84335904D01*
X165401666Y-84431142D01*
X165354047Y-84478761D01*
X165258809Y-84526380D01*
X164973095Y-84526380D01*
X164877857Y-84478761D01*
X164830238Y-84431142D01*
X166639761Y-84526380D02*
X166639761Y-83859714D01*
X166639761Y-83526380D02*
X166592142Y-83574000D01*
X166639761Y-83621619D01*
X166687380Y-83574000D01*
X166639761Y-83526380D01*
X166639761Y-83621619D01*
X167115952Y-83859714D02*
X167115952Y-84526380D01*
X167115952Y-83954952D02*
X167163571Y-83907333D01*
X167258809Y-83859714D01*
X167401666Y-83859714D01*
X167496904Y-83907333D01*
X167544523Y-84002571D01*
X167544523Y-84526380D01*
D11*
X133759142Y-80425714D02*
X134959142Y-80425714D01*
X134959142Y-80711428D01*
X134902000Y-80882857D01*
X134787714Y-80997142D01*
X134673428Y-81054285D01*
X134444857Y-81111428D01*
X134273428Y-81111428D01*
X134044857Y-81054285D01*
X133930571Y-80997142D01*
X133816285Y-80882857D01*
X133759142Y-80711428D01*
X133759142Y-80425714D01*
X133759142Y-82140000D02*
X134387714Y-82140000D01*
X134502000Y-82082857D01*
X134559142Y-81968571D01*
X134559142Y-81740000D01*
X134502000Y-81625714D01*
X133816285Y-82140000D02*
X133759142Y-82025714D01*
X133759142Y-81740000D01*
X133816285Y-81625714D01*
X133930571Y-81568571D01*
X134044857Y-81568571D01*
X134159142Y-81625714D01*
X134216285Y-81740000D01*
X134216285Y-82025714D01*
X134273428Y-82140000D01*
X134559142Y-83225714D02*
X133759142Y-83225714D01*
X134559142Y-82711428D02*
X133930571Y-82711428D01*
X133816285Y-82768571D01*
X133759142Y-82882857D01*
X133759142Y-83054285D01*
X133816285Y-83168571D01*
X133873428Y-83225714D01*
X134559142Y-84311428D02*
X133587714Y-84311428D01*
X133473428Y-84254285D01*
X133416285Y-84197142D01*
X133359142Y-84082857D01*
X133359142Y-83911428D01*
X133416285Y-83797142D01*
X133816285Y-84311428D02*
X133759142Y-84197142D01*
X133759142Y-83968571D01*
X133816285Y-83854285D01*
X133873428Y-83797142D01*
X133987714Y-83740000D01*
X134330571Y-83740000D01*
X134444857Y-83797142D01*
X134502000Y-83854285D01*
X134559142Y-83968571D01*
X134559142Y-84197142D01*
X134502000Y-84311428D01*
X133759142Y-84882857D02*
X134959142Y-84882857D01*
X133759142Y-85397142D02*
X134387714Y-85397142D01*
X134502000Y-85340000D01*
X134559142Y-85225714D01*
X134559142Y-85054285D01*
X134502000Y-84940000D01*
X134444857Y-84882857D01*
X134559142Y-85797142D02*
X134559142Y-86254285D01*
X134959142Y-85968571D02*
X133930571Y-85968571D01*
X133816285Y-86025714D01*
X133759142Y-86140000D01*
X133759142Y-86254285D01*
X133816285Y-87111428D02*
X133759142Y-86997142D01*
X133759142Y-86768571D01*
X133816285Y-86654285D01*
X133930571Y-86597142D01*
X134387714Y-86597142D01*
X134502000Y-86654285D01*
X134559142Y-86768571D01*
X134559142Y-86997142D01*
X134502000Y-87111428D01*
X134387714Y-87168571D01*
X134273428Y-87168571D01*
X134159142Y-86597142D01*
X133759142Y-87682857D02*
X134559142Y-87682857D01*
X134330571Y-87682857D02*
X134444857Y-87740000D01*
X134502000Y-87797142D01*
X134559142Y-87911428D01*
X134559142Y-88025714D01*
X133873428Y-90025714D02*
X133816285Y-89968571D01*
X133759142Y-89797142D01*
X133759142Y-89682857D01*
X133816285Y-89511428D01*
X133930571Y-89397142D01*
X134044857Y-89340000D01*
X134273428Y-89282857D01*
X134444857Y-89282857D01*
X134673428Y-89340000D01*
X134787714Y-89397142D01*
X134902000Y-89511428D01*
X134959142Y-89682857D01*
X134959142Y-89797142D01*
X134902000Y-89968571D01*
X134844857Y-90025714D01*
X133759142Y-91054285D02*
X134387714Y-91054285D01*
X134502000Y-90997142D01*
X134559142Y-90882857D01*
X134559142Y-90654285D01*
X134502000Y-90540000D01*
X133816285Y-91054285D02*
X133759142Y-90940000D01*
X133759142Y-90654285D01*
X133816285Y-90540000D01*
X133930571Y-90482857D01*
X134044857Y-90482857D01*
X134159142Y-90540000D01*
X134216285Y-90654285D01*
X134216285Y-90940000D01*
X134273428Y-91054285D01*
X133759142Y-91625714D02*
X134559142Y-91625714D01*
X134330571Y-91625714D02*
X134444857Y-91682857D01*
X134502000Y-91740000D01*
X134559142Y-91854285D01*
X134559142Y-91968571D01*
X133759142Y-92882857D02*
X134959142Y-92882857D01*
X133816285Y-92882857D02*
X133759142Y-92768571D01*
X133759142Y-92540000D01*
X133816285Y-92425714D01*
X133873428Y-92368571D01*
X133987714Y-92311428D01*
X134330571Y-92311428D01*
X134444857Y-92368571D01*
X134502000Y-92425714D01*
X134559142Y-92540000D01*
X134559142Y-92768571D01*
X134502000Y-92882857D01*
X133816285Y-94311428D02*
X133759142Y-94482857D01*
X133759142Y-94768571D01*
X133816285Y-94882857D01*
X133873428Y-94940000D01*
X133987714Y-94997142D01*
X134102000Y-94997142D01*
X134216285Y-94940000D01*
X134273428Y-94882857D01*
X134330571Y-94768571D01*
X134387714Y-94540000D01*
X134444857Y-94425714D01*
X134502000Y-94368571D01*
X134616285Y-94311428D01*
X134730571Y-94311428D01*
X134844857Y-94368571D01*
X134902000Y-94425714D01*
X134959142Y-94540000D01*
X134959142Y-94825714D01*
X134902000Y-94997142D01*
X134559142Y-96025714D02*
X133759142Y-96025714D01*
X134559142Y-95511428D02*
X133930571Y-95511428D01*
X133816285Y-95568571D01*
X133759142Y-95682857D01*
X133759142Y-95854285D01*
X133816285Y-95968571D01*
X133873428Y-96025714D01*
X133759142Y-96597142D02*
X134559142Y-96597142D01*
X134444857Y-96597142D02*
X134502000Y-96654285D01*
X134559142Y-96768571D01*
X134559142Y-96940000D01*
X134502000Y-97054285D01*
X134387714Y-97111428D01*
X133759142Y-97111428D01*
X134387714Y-97111428D02*
X134502000Y-97168571D01*
X134559142Y-97282857D01*
X134559142Y-97454285D01*
X134502000Y-97568571D01*
X134387714Y-97625714D01*
X133759142Y-97625714D01*
X133759142Y-98197142D02*
X134559142Y-98197142D01*
X134444857Y-98197142D02*
X134502000Y-98254285D01*
X134559142Y-98368571D01*
X134559142Y-98540000D01*
X134502000Y-98654285D01*
X134387714Y-98711428D01*
X133759142Y-98711428D01*
X134387714Y-98711428D02*
X134502000Y-98768571D01*
X134559142Y-98882857D01*
X134559142Y-99054285D01*
X134502000Y-99168571D01*
X134387714Y-99225714D01*
X133759142Y-99225714D01*
X133816285Y-100254285D02*
X133759142Y-100140000D01*
X133759142Y-99911428D01*
X133816285Y-99797142D01*
X133930571Y-99740000D01*
X134387714Y-99740000D01*
X134502000Y-99797142D01*
X134559142Y-99911428D01*
X134559142Y-100140000D01*
X134502000Y-100254285D01*
X134387714Y-100311428D01*
X134273428Y-100311428D01*
X134159142Y-99740000D01*
X133759142Y-100825714D02*
X134559142Y-100825714D01*
X134330571Y-100825714D02*
X134444857Y-100882857D01*
X134502000Y-100940000D01*
X134559142Y-101054285D01*
X134559142Y-101168571D01*
X131759142Y-80425714D02*
X132959142Y-80425714D01*
X132559142Y-80997142D02*
X131759142Y-80997142D01*
X132444857Y-80997142D02*
X132502000Y-81054285D01*
X132559142Y-81168571D01*
X132559142Y-81340000D01*
X132502000Y-81454285D01*
X132387714Y-81511428D01*
X131759142Y-81511428D01*
X131816285Y-82597142D02*
X131759142Y-82482857D01*
X131759142Y-82254285D01*
X131816285Y-82140000D01*
X131873428Y-82082857D01*
X131987714Y-82025714D01*
X132330571Y-82025714D01*
X132444857Y-82082857D01*
X132502000Y-82140000D01*
X132559142Y-82254285D01*
X132559142Y-82482857D01*
X132502000Y-82597142D01*
X131759142Y-83282857D02*
X131816285Y-83168571D01*
X131930571Y-83111428D01*
X132959142Y-83111428D01*
X132559142Y-84254285D02*
X131759142Y-84254285D01*
X132559142Y-83740000D02*
X131930571Y-83740000D01*
X131816285Y-83797142D01*
X131759142Y-83911428D01*
X131759142Y-84082857D01*
X131816285Y-84197142D01*
X131873428Y-84254285D01*
X131759142Y-85340000D02*
X132959142Y-85340000D01*
X131816285Y-85340000D02*
X131759142Y-85225714D01*
X131759142Y-84997142D01*
X131816285Y-84882857D01*
X131873428Y-84825714D01*
X131987714Y-84768571D01*
X132330571Y-84768571D01*
X132444857Y-84825714D01*
X132502000Y-84882857D01*
X132559142Y-84997142D01*
X132559142Y-85225714D01*
X132502000Y-85340000D01*
X131816285Y-86368571D02*
X131759142Y-86254285D01*
X131759142Y-86025714D01*
X131816285Y-85911428D01*
X131930571Y-85854285D01*
X132387714Y-85854285D01*
X132502000Y-85911428D01*
X132559142Y-86025714D01*
X132559142Y-86254285D01*
X132502000Y-86368571D01*
X132387714Y-86425714D01*
X132273428Y-86425714D01*
X132159142Y-85854285D01*
X131816285Y-86882857D02*
X131759142Y-86997142D01*
X131759142Y-87225714D01*
X131816285Y-87340000D01*
X131930571Y-87397142D01*
X131987714Y-87397142D01*
X132102000Y-87340000D01*
X132159142Y-87225714D01*
X132159142Y-87054285D01*
X132216285Y-86940000D01*
X132330571Y-86882857D01*
X132387714Y-86882857D01*
X132502000Y-86940000D01*
X132559142Y-87054285D01*
X132559142Y-87225714D01*
X132502000Y-87340000D01*
X131759142Y-88825714D02*
X132959142Y-88825714D01*
X132959142Y-89282857D01*
X132902000Y-89397142D01*
X132844857Y-89454285D01*
X132730571Y-89511428D01*
X132559142Y-89511428D01*
X132444857Y-89454285D01*
X132387714Y-89397142D01*
X132330571Y-89282857D01*
X132330571Y-88825714D01*
X132959142Y-89911428D02*
X132959142Y-90654285D01*
X132502000Y-90254285D01*
X132502000Y-90425714D01*
X132444857Y-90540000D01*
X132387714Y-90597142D01*
X132273428Y-90654285D01*
X131987714Y-90654285D01*
X131873428Y-90597142D01*
X131816285Y-90540000D01*
X131759142Y-90425714D01*
X131759142Y-90082857D01*
X131816285Y-89968571D01*
X131873428Y-89911428D01*
X131759142Y-92597142D02*
X132387714Y-92597142D01*
X132502000Y-92540000D01*
X132559142Y-92425714D01*
X132559142Y-92197142D01*
X132502000Y-92082857D01*
X131816285Y-92597142D02*
X131759142Y-92482857D01*
X131759142Y-92197142D01*
X131816285Y-92082857D01*
X131930571Y-92025714D01*
X132044857Y-92025714D01*
X132159142Y-92082857D01*
X132216285Y-92197142D01*
X132216285Y-92482857D01*
X132273428Y-92597142D01*
X132559142Y-93168571D02*
X131759142Y-93168571D01*
X132444857Y-93168571D02*
X132502000Y-93225714D01*
X132559142Y-93340000D01*
X132559142Y-93511428D01*
X132502000Y-93625714D01*
X132387714Y-93682857D01*
X131759142Y-93682857D01*
X131759142Y-94768571D02*
X132959142Y-94768571D01*
X131816285Y-94768571D02*
X131759142Y-94654285D01*
X131759142Y-94425714D01*
X131816285Y-94311428D01*
X131873428Y-94254285D01*
X131987714Y-94197142D01*
X132330571Y-94197142D01*
X132444857Y-94254285D01*
X132502000Y-94311428D01*
X132559142Y-94425714D01*
X132559142Y-94654285D01*
X132502000Y-94768571D01*
X131759142Y-96254285D02*
X132959142Y-96254285D01*
X132959142Y-96711428D01*
X132902000Y-96825714D01*
X132844857Y-96882857D01*
X132730571Y-96940000D01*
X132559142Y-96940000D01*
X132444857Y-96882857D01*
X132387714Y-96825714D01*
X132330571Y-96711428D01*
X132330571Y-96254285D01*
X132559142Y-97968571D02*
X131759142Y-97968571D01*
X133016285Y-97682857D02*
X132159142Y-97397142D01*
X132159142Y-98140000D01*
X131759142Y-99511428D02*
X132559142Y-99511428D01*
X132959142Y-99511428D02*
X132902000Y-99454285D01*
X132844857Y-99511428D01*
X132902000Y-99568571D01*
X132959142Y-99511428D01*
X132844857Y-99511428D01*
X132559142Y-100082857D02*
X131759142Y-100082857D01*
X132444857Y-100082857D02*
X132502000Y-100140000D01*
X132559142Y-100254285D01*
X132559142Y-100425714D01*
X132502000Y-100540000D01*
X132387714Y-100597142D01*
X131759142Y-100597142D01*
X132559142Y-101168571D02*
X131359142Y-101168571D01*
X132502000Y-101168571D02*
X132559142Y-101282857D01*
X132559142Y-101511428D01*
X132502000Y-101625714D01*
X132444857Y-101682857D01*
X132330571Y-101740000D01*
X131987714Y-101740000D01*
X131873428Y-101682857D01*
X131816285Y-101625714D01*
X131759142Y-101511428D01*
X131759142Y-101282857D01*
X131816285Y-101168571D01*
X132559142Y-102768571D02*
X131759142Y-102768571D01*
X132559142Y-102254285D02*
X131930571Y-102254285D01*
X131816285Y-102311428D01*
X131759142Y-102425714D01*
X131759142Y-102597142D01*
X131816285Y-102711428D01*
X131873428Y-102768571D01*
X132559142Y-103168571D02*
X132559142Y-103625714D01*
X132959142Y-103340000D02*
X131930571Y-103340000D01*
X131816285Y-103397142D01*
X131759142Y-103511428D01*
X131759142Y-103625714D01*
X131816285Y-103968571D02*
X131759142Y-104082857D01*
X131759142Y-104311428D01*
X131816285Y-104425714D01*
X131930571Y-104482857D01*
X131987714Y-104482857D01*
X132102000Y-104425714D01*
X132159142Y-104311428D01*
X132159142Y-104140000D01*
X132216285Y-104025714D01*
X132330571Y-103968571D01*
X132387714Y-103968571D01*
X132502000Y-104025714D01*
X132559142Y-104140000D01*
X132559142Y-104311428D01*
X132502000Y-104425714D01*
X130444857Y-80597142D02*
X130502000Y-80482857D01*
X130559142Y-80425714D01*
X130673428Y-80368571D01*
X130730571Y-80368571D01*
X130844857Y-80425714D01*
X130902000Y-80482857D01*
X130959142Y-80597142D01*
X130959142Y-80825714D01*
X130902000Y-80940000D01*
X130844857Y-80997142D01*
X130730571Y-81054285D01*
X130673428Y-81054285D01*
X130559142Y-80997142D01*
X130502000Y-80940000D01*
X130444857Y-80825714D01*
X130444857Y-80597142D01*
X130387714Y-80482857D01*
X130330571Y-80425714D01*
X130216285Y-80368571D01*
X129987714Y-80368571D01*
X129873428Y-80425714D01*
X129816285Y-80482857D01*
X129759142Y-80597142D01*
X129759142Y-80825714D01*
X129816285Y-80940000D01*
X129873428Y-80997142D01*
X129987714Y-81054285D01*
X130216285Y-81054285D01*
X130330571Y-80997142D01*
X130387714Y-80940000D01*
X130444857Y-80825714D01*
X130216285Y-81568571D02*
X130216285Y-82482857D01*
X129759142Y-83682857D02*
X129759142Y-82997142D01*
X129759142Y-83340000D02*
X130959142Y-83340000D01*
X130787714Y-83225714D01*
X130673428Y-83111428D01*
X130616285Y-82997142D01*
X130444857Y-84368571D02*
X130502000Y-84254285D01*
X130559142Y-84197142D01*
X130673428Y-84140000D01*
X130730571Y-84140000D01*
X130844857Y-84197142D01*
X130902000Y-84254285D01*
X130959142Y-84368571D01*
X130959142Y-84597142D01*
X130902000Y-84711428D01*
X130844857Y-84768571D01*
X130730571Y-84825714D01*
X130673428Y-84825714D01*
X130559142Y-84768571D01*
X130502000Y-84711428D01*
X130444857Y-84597142D01*
X130444857Y-84368571D01*
X130387714Y-84254285D01*
X130330571Y-84197142D01*
X130216285Y-84140000D01*
X129987714Y-84140000D01*
X129873428Y-84197142D01*
X129816285Y-84254285D01*
X129759142Y-84368571D01*
X129759142Y-84597142D01*
X129816285Y-84711428D01*
X129873428Y-84768571D01*
X129987714Y-84825714D01*
X130216285Y-84825714D01*
X130330571Y-84768571D01*
X130387714Y-84711428D01*
X130444857Y-84597142D01*
X130216285Y-85340000D02*
X130216285Y-86254285D01*
X130844857Y-86768571D02*
X130902000Y-86825714D01*
X130959142Y-86940000D01*
X130959142Y-87225714D01*
X130902000Y-87340000D01*
X130844857Y-87397142D01*
X130730571Y-87454285D01*
X130616285Y-87454285D01*
X130444857Y-87397142D01*
X129759142Y-86711428D01*
X129759142Y-87454285D01*
X130959142Y-88197142D02*
X130959142Y-88311428D01*
X130902000Y-88425714D01*
X130844857Y-88482857D01*
X130730571Y-88540000D01*
X130502000Y-88597142D01*
X130216285Y-88597142D01*
X129987714Y-88540000D01*
X129873428Y-88482857D01*
X129816285Y-88425714D01*
X129759142Y-88311428D01*
X129759142Y-88197142D01*
X129816285Y-88082857D01*
X129873428Y-88025714D01*
X129987714Y-87968571D01*
X130216285Y-87911428D01*
X130502000Y-87911428D01*
X130730571Y-87968571D01*
X130844857Y-88025714D01*
X130902000Y-88082857D01*
X130959142Y-88197142D01*
X129759142Y-89740000D02*
X129759142Y-89054285D01*
X129759142Y-89397142D02*
X130959142Y-89397142D01*
X130787714Y-89282857D01*
X130673428Y-89168571D01*
X130616285Y-89054285D01*
X130444857Y-90425714D02*
X130502000Y-90311428D01*
X130559142Y-90254285D01*
X130673428Y-90197142D01*
X130730571Y-90197142D01*
X130844857Y-90254285D01*
X130902000Y-90311428D01*
X130959142Y-90425714D01*
X130959142Y-90654285D01*
X130902000Y-90768571D01*
X130844857Y-90825714D01*
X130730571Y-90882857D01*
X130673428Y-90882857D01*
X130559142Y-90825714D01*
X130502000Y-90768571D01*
X130444857Y-90654285D01*
X130444857Y-90425714D01*
X130387714Y-90311428D01*
X130330571Y-90254285D01*
X130216285Y-90197142D01*
X129987714Y-90197142D01*
X129873428Y-90254285D01*
X129816285Y-90311428D01*
X129759142Y-90425714D01*
X129759142Y-90654285D01*
X129816285Y-90768571D01*
X129873428Y-90825714D01*
X129987714Y-90882857D01*
X130216285Y-90882857D01*
X130330571Y-90825714D01*
X130387714Y-90768571D01*
X130444857Y-90654285D01*
X129759142Y-92311428D02*
X130559142Y-92311428D01*
X130330571Y-92311428D02*
X130444857Y-92368571D01*
X130502000Y-92425714D01*
X130559142Y-92540000D01*
X130559142Y-92654285D01*
X130959142Y-93282857D02*
X130959142Y-93397142D01*
X130902000Y-93511428D01*
X130844857Y-93568571D01*
X130730571Y-93625714D01*
X130502000Y-93682857D01*
X130216285Y-93682857D01*
X129987714Y-93625714D01*
X129873428Y-93568571D01*
X129816285Y-93511428D01*
X129759142Y-93397142D01*
X129759142Y-93282857D01*
X129816285Y-93168571D01*
X129873428Y-93111428D01*
X129987714Y-93054285D01*
X130216285Y-92997142D01*
X130502000Y-92997142D01*
X130730571Y-93054285D01*
X130844857Y-93111428D01*
X130902000Y-93168571D01*
X130959142Y-93282857D01*
X129873428Y-94197142D02*
X129816285Y-94254285D01*
X129759142Y-94197142D01*
X129816285Y-94140000D01*
X129873428Y-94197142D01*
X129759142Y-94197142D01*
X129759142Y-95397142D02*
X129759142Y-94711428D01*
X129759142Y-95054285D02*
X130959142Y-95054285D01*
X130787714Y-94940000D01*
X130673428Y-94825714D01*
X130616285Y-94711428D01*
X128959142Y-80425714D02*
X127987714Y-80425714D01*
X127873428Y-80482857D01*
X127816285Y-80540000D01*
X127759142Y-80654285D01*
X127759142Y-80882857D01*
X127816285Y-80997142D01*
X127873428Y-81054285D01*
X127987714Y-81111428D01*
X128959142Y-81111428D01*
X128559142Y-81682857D02*
X127759142Y-81682857D01*
X128444857Y-81682857D02*
X128502000Y-81740000D01*
X128559142Y-81854285D01*
X128559142Y-82025714D01*
X128502000Y-82140000D01*
X128387714Y-82197142D01*
X127759142Y-82197142D01*
X127759142Y-82768571D02*
X128559142Y-82768571D01*
X128959142Y-82768571D02*
X128902000Y-82711428D01*
X128844857Y-82768571D01*
X128902000Y-82825714D01*
X128959142Y-82768571D01*
X128844857Y-82768571D01*
X128559142Y-83225714D02*
X127759142Y-83511428D01*
X128559142Y-83797142D01*
X127816285Y-84711428D02*
X127759142Y-84597142D01*
X127759142Y-84368571D01*
X127816285Y-84254285D01*
X127930571Y-84197142D01*
X128387714Y-84197142D01*
X128502000Y-84254285D01*
X128559142Y-84368571D01*
X128559142Y-84597142D01*
X128502000Y-84711428D01*
X128387714Y-84768571D01*
X128273428Y-84768571D01*
X128159142Y-84197142D01*
X127759142Y-85282857D02*
X128559142Y-85282857D01*
X128330571Y-85282857D02*
X128444857Y-85340000D01*
X128502000Y-85397142D01*
X128559142Y-85511428D01*
X128559142Y-85625714D01*
X127816285Y-85968571D02*
X127759142Y-86082857D01*
X127759142Y-86311428D01*
X127816285Y-86425714D01*
X127930571Y-86482857D01*
X127987714Y-86482857D01*
X128102000Y-86425714D01*
X128159142Y-86311428D01*
X128159142Y-86140000D01*
X128216285Y-86025714D01*
X128330571Y-85968571D01*
X128387714Y-85968571D01*
X128502000Y-86025714D01*
X128559142Y-86140000D01*
X128559142Y-86311428D01*
X128502000Y-86425714D01*
X127759142Y-86997142D02*
X128559142Y-86997142D01*
X128959142Y-86997142D02*
X128902000Y-86940000D01*
X128844857Y-86997142D01*
X128902000Y-87054285D01*
X128959142Y-86997142D01*
X128844857Y-86997142D01*
X128559142Y-87397142D02*
X128559142Y-87854285D01*
X128959142Y-87568571D02*
X127930571Y-87568571D01*
X127816285Y-87625714D01*
X127759142Y-87740000D01*
X127759142Y-87854285D01*
X128559142Y-88140000D02*
X127759142Y-88425714D01*
X128559142Y-88711428D02*
X127759142Y-88425714D01*
X127473428Y-88311428D01*
X127416285Y-88254285D01*
X127359142Y-88140000D01*
X127759142Y-90254285D02*
X127816285Y-90140000D01*
X127873428Y-90082857D01*
X127987714Y-90025714D01*
X128330571Y-90025714D01*
X128444857Y-90082857D01*
X128502000Y-90140000D01*
X128559142Y-90254285D01*
X128559142Y-90425714D01*
X128502000Y-90540000D01*
X128444857Y-90597142D01*
X128330571Y-90654285D01*
X127987714Y-90654285D01*
X127873428Y-90597142D01*
X127816285Y-90540000D01*
X127759142Y-90425714D01*
X127759142Y-90254285D01*
X128559142Y-90997142D02*
X128559142Y-91454285D01*
X127759142Y-91168571D02*
X128787714Y-91168571D01*
X128902000Y-91225714D01*
X128959142Y-91340000D01*
X128959142Y-91454285D01*
X127759142Y-92768571D02*
X128959142Y-92768571D01*
X128959142Y-93225714D01*
X128902000Y-93340000D01*
X128844857Y-93397142D01*
X128730571Y-93454285D01*
X128559142Y-93454285D01*
X128444857Y-93397142D01*
X128387714Y-93340000D01*
X128330571Y-93225714D01*
X128330571Y-92768571D01*
X127759142Y-93968571D02*
X128559142Y-93968571D01*
X128959142Y-93968571D02*
X128902000Y-93911428D01*
X128844857Y-93968571D01*
X128902000Y-94025714D01*
X128959142Y-93968571D01*
X128844857Y-93968571D01*
X128559142Y-94368571D02*
X128559142Y-94825714D01*
X128959142Y-94540000D02*
X127930571Y-94540000D01*
X127816285Y-94597142D01*
X127759142Y-94711428D01*
X127759142Y-94825714D01*
X128559142Y-95054285D02*
X128559142Y-95511428D01*
X128959142Y-95225714D02*
X127930571Y-95225714D01*
X127816285Y-95282857D01*
X127759142Y-95397142D01*
X127759142Y-95511428D01*
X127816285Y-95854285D02*
X127759142Y-95968571D01*
X127759142Y-96197142D01*
X127816285Y-96311428D01*
X127930571Y-96368571D01*
X127987714Y-96368571D01*
X128102000Y-96311428D01*
X128159142Y-96197142D01*
X128159142Y-96025714D01*
X128216285Y-95911428D01*
X128330571Y-95854285D01*
X128387714Y-95854285D01*
X128502000Y-95911428D01*
X128559142Y-96025714D01*
X128559142Y-96197142D01*
X128502000Y-96311428D01*
X127759142Y-96882857D02*
X128959142Y-96882857D01*
X128502000Y-96882857D02*
X128559142Y-96997142D01*
X128559142Y-97225714D01*
X128502000Y-97340000D01*
X128444857Y-97397142D01*
X128330571Y-97454285D01*
X127987714Y-97454285D01*
X127873428Y-97397142D01*
X127816285Y-97340000D01*
X127759142Y-97225714D01*
X127759142Y-96997142D01*
X127816285Y-96882857D01*
X128559142Y-98482857D02*
X127759142Y-98482857D01*
X128559142Y-97968571D02*
X127930571Y-97968571D01*
X127816285Y-98025714D01*
X127759142Y-98140000D01*
X127759142Y-98311428D01*
X127816285Y-98425714D01*
X127873428Y-98482857D01*
X127759142Y-99054285D02*
X128559142Y-99054285D01*
X128330571Y-99054285D02*
X128444857Y-99111428D01*
X128502000Y-99168571D01*
X128559142Y-99282857D01*
X128559142Y-99397142D01*
X128559142Y-100311428D02*
X127587714Y-100311428D01*
X127473428Y-100254285D01*
X127416285Y-100197142D01*
X127359142Y-100082857D01*
X127359142Y-99911428D01*
X127416285Y-99797142D01*
X127816285Y-100311428D02*
X127759142Y-100197142D01*
X127759142Y-99968571D01*
X127816285Y-99854285D01*
X127873428Y-99797142D01*
X127987714Y-99740000D01*
X128330571Y-99740000D01*
X128444857Y-99797142D01*
X128502000Y-99854285D01*
X128559142Y-99968571D01*
X128559142Y-100197142D01*
X128502000Y-100311428D01*
X127759142Y-100882857D02*
X128959142Y-100882857D01*
X127759142Y-101397142D02*
X128387714Y-101397142D01*
X128502000Y-101340000D01*
X128559142Y-101225714D01*
X128559142Y-101054285D01*
X128502000Y-100940000D01*
X128444857Y-100882857D01*
X126959142Y-80654285D02*
X126959142Y-80882857D01*
X126902000Y-80997142D01*
X126787714Y-81111428D01*
X126559142Y-81168571D01*
X126159142Y-81168571D01*
X125930571Y-81111428D01*
X125816285Y-80997142D01*
X125759142Y-80882857D01*
X125759142Y-80654285D01*
X125816285Y-80540000D01*
X125930571Y-80425714D01*
X126159142Y-80368571D01*
X126559142Y-80368571D01*
X126787714Y-80425714D01*
X126902000Y-80540000D01*
X126959142Y-80654285D01*
X125759142Y-82197142D02*
X126959142Y-82197142D01*
X125816285Y-82197142D02*
X125759142Y-82082857D01*
X125759142Y-81854285D01*
X125816285Y-81740000D01*
X125873428Y-81682857D01*
X125987714Y-81625714D01*
X126330571Y-81625714D01*
X126444857Y-81682857D01*
X126502000Y-81740000D01*
X126559142Y-81854285D01*
X126559142Y-82082857D01*
X126502000Y-82197142D01*
X126559142Y-82654285D02*
X125759142Y-82940000D01*
X126559142Y-83225714D02*
X125759142Y-82940000D01*
X125473428Y-82825714D01*
X125416285Y-82768571D01*
X125359142Y-82654285D01*
X125816285Y-83625714D02*
X125759142Y-83740000D01*
X125759142Y-83968571D01*
X125816285Y-84082857D01*
X125930571Y-84140000D01*
X125987714Y-84140000D01*
X126102000Y-84082857D01*
X126159142Y-83968571D01*
X126159142Y-83797142D01*
X126216285Y-83682857D01*
X126330571Y-83625714D01*
X126387714Y-83625714D01*
X126502000Y-83682857D01*
X126559142Y-83797142D01*
X126559142Y-83968571D01*
X126502000Y-84082857D01*
X125816285Y-84597142D02*
X125759142Y-84711428D01*
X125759142Y-84940000D01*
X125816285Y-85054285D01*
X125930571Y-85111428D01*
X125987714Y-85111428D01*
X126102000Y-85054285D01*
X126159142Y-84940000D01*
X126159142Y-84768571D01*
X126216285Y-84654285D01*
X126330571Y-84597142D01*
X126387714Y-84597142D01*
X126502000Y-84654285D01*
X126559142Y-84768571D01*
X126559142Y-84940000D01*
X126502000Y-85054285D01*
X125816285Y-86082857D02*
X125759142Y-85968571D01*
X125759142Y-85740000D01*
X125816285Y-85625714D01*
X125930571Y-85568571D01*
X126387714Y-85568571D01*
X126502000Y-85625714D01*
X126559142Y-85740000D01*
X126559142Y-85968571D01*
X126502000Y-86082857D01*
X126387714Y-86140000D01*
X126273428Y-86140000D01*
X126159142Y-85568571D01*
X126559142Y-86540000D02*
X125759142Y-86825714D01*
X126559142Y-87111428D02*
X125759142Y-86825714D01*
X125473428Y-86711428D01*
X125416285Y-86654285D01*
X125359142Y-86540000D01*
X125759142Y-89168571D02*
X126330571Y-88768571D01*
X125759142Y-88482857D02*
X126959142Y-88482857D01*
X126959142Y-88940000D01*
X126902000Y-89054285D01*
X126844857Y-89111428D01*
X126730571Y-89168571D01*
X126559142Y-89168571D01*
X126444857Y-89111428D01*
X126387714Y-89054285D01*
X126330571Y-88940000D01*
X126330571Y-88482857D01*
X125816285Y-90140000D02*
X125759142Y-90025714D01*
X125759142Y-89797142D01*
X125816285Y-89682857D01*
X125930571Y-89625714D01*
X126387714Y-89625714D01*
X126502000Y-89682857D01*
X126559142Y-89797142D01*
X126559142Y-90025714D01*
X126502000Y-90140000D01*
X126387714Y-90197142D01*
X126273428Y-90197142D01*
X126159142Y-89625714D01*
X125816285Y-90654285D02*
X125759142Y-90768571D01*
X125759142Y-90997142D01*
X125816285Y-91111428D01*
X125930571Y-91168571D01*
X125987714Y-91168571D01*
X126102000Y-91111428D01*
X126159142Y-90997142D01*
X126159142Y-90825714D01*
X126216285Y-90711428D01*
X126330571Y-90654285D01*
X126387714Y-90654285D01*
X126502000Y-90711428D01*
X126559142Y-90825714D01*
X126559142Y-90997142D01*
X126502000Y-91111428D01*
X126559142Y-91511428D02*
X126559142Y-91968571D01*
X126959142Y-91682857D02*
X125930571Y-91682857D01*
X125816285Y-91740000D01*
X125759142Y-91854285D01*
X125759142Y-91968571D01*
X125759142Y-92540000D02*
X125816285Y-92425714D01*
X125873428Y-92368571D01*
X125987714Y-92311428D01*
X126330571Y-92311428D01*
X126444857Y-92368571D01*
X126502000Y-92425714D01*
X126559142Y-92540000D01*
X126559142Y-92711428D01*
X126502000Y-92825714D01*
X126444857Y-92882857D01*
X126330571Y-92940000D01*
X125987714Y-92940000D01*
X125873428Y-92882857D01*
X125816285Y-92825714D01*
X125759142Y-92711428D01*
X125759142Y-92540000D01*
X125759142Y-93454285D02*
X126559142Y-93454285D01*
X126330571Y-93454285D02*
X126444857Y-93511428D01*
X126502000Y-93568571D01*
X126559142Y-93682857D01*
X126559142Y-93797142D01*
X125759142Y-94711428D02*
X126387714Y-94711428D01*
X126502000Y-94654285D01*
X126559142Y-94540000D01*
X126559142Y-94311428D01*
X126502000Y-94197142D01*
X125816285Y-94711428D02*
X125759142Y-94597142D01*
X125759142Y-94311428D01*
X125816285Y-94197142D01*
X125930571Y-94140000D01*
X126044857Y-94140000D01*
X126159142Y-94197142D01*
X126216285Y-94311428D01*
X126216285Y-94597142D01*
X126273428Y-94711428D01*
X126559142Y-95111428D02*
X126559142Y-95568571D01*
X126959142Y-95282857D02*
X125930571Y-95282857D01*
X125816285Y-95340000D01*
X125759142Y-95454285D01*
X125759142Y-95568571D01*
X125759142Y-95968571D02*
X126559142Y-95968571D01*
X126959142Y-95968571D02*
X126902000Y-95911428D01*
X126844857Y-95968571D01*
X126902000Y-96025714D01*
X126959142Y-95968571D01*
X126844857Y-95968571D01*
X125759142Y-96711428D02*
X125816285Y-96597142D01*
X125873428Y-96540000D01*
X125987714Y-96482857D01*
X126330571Y-96482857D01*
X126444857Y-96540000D01*
X126502000Y-96597142D01*
X126559142Y-96711428D01*
X126559142Y-96882857D01*
X126502000Y-96997142D01*
X126444857Y-97054285D01*
X126330571Y-97111428D01*
X125987714Y-97111428D01*
X125873428Y-97054285D01*
X125816285Y-96997142D01*
X125759142Y-96882857D01*
X125759142Y-96711428D01*
X126559142Y-97625714D02*
X125759142Y-97625714D01*
X126444857Y-97625714D02*
X126502000Y-97682857D01*
X126559142Y-97797142D01*
X126559142Y-97968571D01*
X126502000Y-98082857D01*
X126387714Y-98140000D01*
X125759142Y-98140000D01*
X125759142Y-99625714D02*
X126959142Y-99625714D01*
X126959142Y-100082857D01*
X126902000Y-100197142D01*
X126844857Y-100254285D01*
X126730571Y-100311428D01*
X126559142Y-100311428D01*
X126444857Y-100254285D01*
X126387714Y-100197142D01*
X126330571Y-100082857D01*
X126330571Y-99625714D01*
X125759142Y-100825714D02*
X126559142Y-100825714D01*
X126330571Y-100825714D02*
X126444857Y-100882857D01*
X126502000Y-100940000D01*
X126559142Y-101054285D01*
X126559142Y-101168571D01*
X125759142Y-101740000D02*
X125816285Y-101625714D01*
X125873428Y-101568571D01*
X125987714Y-101511428D01*
X126330571Y-101511428D01*
X126444857Y-101568571D01*
X126502000Y-101625714D01*
X126559142Y-101740000D01*
X126559142Y-101911428D01*
X126502000Y-102025714D01*
X126444857Y-102082857D01*
X126330571Y-102140000D01*
X125987714Y-102140000D01*
X125873428Y-102082857D01*
X125816285Y-102025714D01*
X125759142Y-101911428D01*
X125759142Y-101740000D01*
X126559142Y-102654285D02*
X125530571Y-102654285D01*
X125416285Y-102597142D01*
X125359142Y-102482857D01*
X125359142Y-102425714D01*
X126959142Y-102654285D02*
X126902000Y-102597142D01*
X126844857Y-102654285D01*
X126902000Y-102711428D01*
X126959142Y-102654285D01*
X126844857Y-102654285D01*
X125816285Y-103682857D02*
X125759142Y-103568571D01*
X125759142Y-103340000D01*
X125816285Y-103225714D01*
X125930571Y-103168571D01*
X126387714Y-103168571D01*
X126502000Y-103225714D01*
X126559142Y-103340000D01*
X126559142Y-103568571D01*
X126502000Y-103682857D01*
X126387714Y-103740000D01*
X126273428Y-103740000D01*
X126159142Y-103168571D01*
X125816285Y-104768571D02*
X125759142Y-104654285D01*
X125759142Y-104425714D01*
X125816285Y-104311428D01*
X125873428Y-104254285D01*
X125987714Y-104197142D01*
X126330571Y-104197142D01*
X126444857Y-104254285D01*
X126502000Y-104311428D01*
X126559142Y-104425714D01*
X126559142Y-104654285D01*
X126502000Y-104768571D01*
X126559142Y-105111428D02*
X126559142Y-105568571D01*
X126959142Y-105282857D02*
X125930571Y-105282857D01*
X125816285Y-105340000D01*
X125759142Y-105454285D01*
X125759142Y-105568571D01*
D12*
X156630000Y-79144000D02*
X156630000Y-81384000D01*
X156630000Y-81384000D02*
X160870000Y-81384000D01*
X160870000Y-81384000D02*
X160870000Y-79144000D01*
X160870000Y-79144000D02*
X156630000Y-79144000D01*
X155980000Y-80264000D02*
X156630000Y-80264000D01*
X161520000Y-80264000D02*
X160870000Y-80264000D01*
X157350000Y-79144000D02*
X157350000Y-81384000D01*
X157470000Y-79144000D02*
X157470000Y-81384000D01*
X157230000Y-79144000D02*
X157230000Y-81384000D01*
X150980000Y-115066000D02*
X148740000Y-115066000D01*
X150980000Y-115306000D02*
X148740000Y-115306000D01*
X150980000Y-115186000D02*
X148740000Y-115186000D01*
X149860000Y-119356000D02*
X149860000Y-118706000D01*
X149860000Y-113816000D02*
X149860000Y-114466000D01*
X150980000Y-118706000D02*
X150980000Y-114466000D01*
X148740000Y-118706000D02*
X150980000Y-118706000D01*
X148740000Y-114466000D02*
X148740000Y-118706000D01*
X150980000Y-114466000D02*
X148740000Y-114466000D01*
X141982000Y-122023994D02*
X141982000Y-119783994D01*
X141742000Y-122023994D02*
X141742000Y-119783994D01*
X141862000Y-122023994D02*
X141862000Y-119783994D01*
X137692000Y-120903994D02*
X138342000Y-120903994D01*
X143232000Y-120903994D02*
X142582000Y-120903994D01*
X138342000Y-122023994D02*
X142582000Y-122023994D01*
X138342000Y-119783994D02*
X138342000Y-122023994D01*
X142582000Y-119783994D02*
X138342000Y-119783994D01*
X142582000Y-122023994D02*
X142582000Y-119783994D01*
X149610000Y-106576000D02*
X149610000Y-108816000D01*
X149850000Y-106576000D02*
X149850000Y-108816000D01*
X149730000Y-106576000D02*
X149730000Y-108816000D01*
X153900000Y-107696000D02*
X153250000Y-107696000D01*
X148360000Y-107696000D02*
X149010000Y-107696000D01*
X153250000Y-106576000D02*
X149010000Y-106576000D01*
X153250000Y-108816000D02*
X153250000Y-106576000D01*
X149010000Y-108816000D02*
X153250000Y-108816000D01*
X149010000Y-106576000D02*
X149010000Y-108816000D01*
X141982000Y-113218662D02*
X141982000Y-110978662D01*
X141742000Y-113218662D02*
X141742000Y-110978662D01*
X141862000Y-113218662D02*
X141862000Y-110978662D01*
X137692000Y-112098662D02*
X138342000Y-112098662D01*
X143232000Y-112098662D02*
X142582000Y-112098662D01*
X138342000Y-113218662D02*
X142582000Y-113218662D01*
X138342000Y-110978662D02*
X138342000Y-113218662D01*
X142582000Y-110978662D02*
X138342000Y-110978662D01*
X142582000Y-113218662D02*
X142582000Y-110978662D01*
X152650000Y-104244000D02*
X152650000Y-102004000D01*
X152410000Y-104244000D02*
X152410000Y-102004000D01*
X152530000Y-104244000D02*
X152530000Y-102004000D01*
X148360000Y-103124000D02*
X149010000Y-103124000D01*
X153900000Y-103124000D02*
X153250000Y-103124000D01*
X149010000Y-104244000D02*
X153250000Y-104244000D01*
X149010000Y-102004000D02*
X149010000Y-104244000D01*
X153250000Y-102004000D02*
X149010000Y-102004000D01*
X153250000Y-104244000D02*
X153250000Y-102004000D01*
X153250000Y-100180000D02*
X153250000Y-97940000D01*
X153250000Y-97940000D02*
X149010000Y-97940000D01*
X149010000Y-97940000D02*
X149010000Y-100180000D01*
X149010000Y-100180000D02*
X153250000Y-100180000D01*
X153900000Y-99060000D02*
X153250000Y-99060000D01*
X148360000Y-99060000D02*
X149010000Y-99060000D01*
X152530000Y-100180000D02*
X152530000Y-97940000D01*
X152410000Y-100180000D02*
X152410000Y-97940000D01*
X152650000Y-100180000D02*
X152650000Y-97940000D01*
X138942000Y-93367998D02*
X138942000Y-95607998D01*
X139182000Y-93367998D02*
X139182000Y-95607998D01*
X139062000Y-93367998D02*
X139062000Y-95607998D01*
X143232000Y-94487998D02*
X142582000Y-94487998D01*
X137692000Y-94487998D02*
X138342000Y-94487998D01*
X142582000Y-93367998D02*
X138342000Y-93367998D01*
X142582000Y-95607998D02*
X142582000Y-93367998D01*
X138342000Y-95607998D02*
X142582000Y-95607998D01*
X138342000Y-93367998D02*
X138342000Y-95607998D01*
X138342000Y-88965332D02*
X138342000Y-91205332D01*
X138342000Y-91205332D02*
X142582000Y-91205332D01*
X142582000Y-91205332D02*
X142582000Y-88965332D01*
X142582000Y-88965332D02*
X138342000Y-88965332D01*
X137692000Y-90085332D02*
X138342000Y-90085332D01*
X143232000Y-90085332D02*
X142582000Y-90085332D01*
X139062000Y-88965332D02*
X139062000Y-91205332D01*
X139182000Y-88965332D02*
X139182000Y-91205332D01*
X138942000Y-88965332D02*
X138942000Y-91205332D01*
X157230000Y-112164000D02*
X157230000Y-114404000D01*
X157470000Y-112164000D02*
X157470000Y-114404000D01*
X157350000Y-112164000D02*
X157350000Y-114404000D01*
X161520000Y-113284000D02*
X160870000Y-113284000D01*
X155980000Y-113284000D02*
X156630000Y-113284000D01*
X160870000Y-112164000D02*
X156630000Y-112164000D01*
X160870000Y-114404000D02*
X160870000Y-112164000D01*
X156630000Y-114404000D02*
X160870000Y-114404000D01*
X156630000Y-112164000D02*
X156630000Y-114404000D01*
X156630000Y-86764000D02*
X156630000Y-89004000D01*
X156630000Y-89004000D02*
X160870000Y-89004000D01*
X160870000Y-89004000D02*
X160870000Y-86764000D01*
X160870000Y-86764000D02*
X156630000Y-86764000D01*
X155980000Y-87884000D02*
X156630000Y-87884000D01*
X161520000Y-87884000D02*
X160870000Y-87884000D01*
X157350000Y-86764000D02*
X157350000Y-89004000D01*
X157470000Y-86764000D02*
X157470000Y-89004000D01*
X157230000Y-86764000D02*
X157230000Y-89004000D01*
X157230000Y-120292000D02*
X157230000Y-122532000D01*
X157470000Y-120292000D02*
X157470000Y-122532000D01*
X157350000Y-120292000D02*
X157350000Y-122532000D01*
X161520000Y-121412000D02*
X160870000Y-121412000D01*
X155980000Y-121412000D02*
X156630000Y-121412000D01*
X160870000Y-120292000D02*
X156630000Y-120292000D01*
X160870000Y-122532000D02*
X160870000Y-120292000D01*
X156630000Y-122532000D02*
X160870000Y-122532000D01*
X156630000Y-120292000D02*
X156630000Y-122532000D01*
X143732000Y-87052666D02*
X143732000Y-86722666D01*
X137192000Y-87052666D02*
X143732000Y-87052666D01*
X137192000Y-86722666D02*
X137192000Y-87052666D01*
X143732000Y-84312666D02*
X143732000Y-84642666D01*
X137192000Y-84312666D02*
X143732000Y-84312666D01*
X137192000Y-84642666D02*
X137192000Y-84312666D01*
X137192000Y-79910000D02*
X137192000Y-80240000D01*
X143732000Y-79910000D02*
X137192000Y-79910000D01*
X143732000Y-80240000D02*
X143732000Y-79910000D01*
X137192000Y-82650000D02*
X137192000Y-82320000D01*
X143732000Y-82650000D02*
X137192000Y-82650000D01*
X143732000Y-82320000D02*
X143732000Y-82650000D01*
X150980000Y-81820000D02*
X150650000Y-81820000D01*
X150980000Y-88360000D02*
X150980000Y-81820000D01*
X150650000Y-88360000D02*
X150980000Y-88360000D01*
X148240000Y-81820000D02*
X148570000Y-81820000D01*
X148240000Y-88360000D02*
X148240000Y-81820000D01*
X148570000Y-88360000D02*
X148240000Y-88360000D01*
X143732000Y-117871328D02*
X143732000Y-117541328D01*
X137192000Y-117871328D02*
X143732000Y-117871328D01*
X137192000Y-117541328D02*
X137192000Y-117871328D01*
X143732000Y-115131328D02*
X143732000Y-115461328D01*
X137192000Y-115131328D02*
X143732000Y-115131328D01*
X137192000Y-115461328D02*
X137192000Y-115131328D01*
X137192000Y-106655996D02*
X137192000Y-106325996D01*
X137192000Y-106325996D02*
X143732000Y-106325996D01*
X143732000Y-106325996D02*
X143732000Y-106655996D01*
X137192000Y-108735996D02*
X137192000Y-109065996D01*
X137192000Y-109065996D02*
X143732000Y-109065996D01*
X143732000Y-109065996D02*
X143732000Y-108735996D01*
X143732000Y-104663330D02*
X143732000Y-104333330D01*
X137192000Y-104663330D02*
X143732000Y-104663330D01*
X137192000Y-104333330D02*
X137192000Y-104663330D01*
X143732000Y-101923330D02*
X143732000Y-102253330D01*
X137192000Y-101923330D02*
X143732000Y-101923330D01*
X137192000Y-102253330D02*
X137192000Y-101923330D01*
X137192000Y-97850664D02*
X137192000Y-97520664D01*
X137192000Y-97520664D02*
X143732000Y-97520664D01*
X143732000Y-97520664D02*
X143732000Y-97850664D01*
X137192000Y-99930664D02*
X137192000Y-100260664D01*
X137192000Y-100260664D02*
X143732000Y-100260664D01*
X143732000Y-100260664D02*
X143732000Y-99930664D01*
X155510000Y-82704000D02*
X155510000Y-83034000D01*
X162050000Y-82704000D02*
X155510000Y-82704000D01*
X162050000Y-83034000D02*
X162050000Y-82704000D01*
X155510000Y-85444000D02*
X155510000Y-85114000D01*
X162050000Y-85444000D02*
X155510000Y-85444000D01*
X162050000Y-85114000D02*
X162050000Y-85444000D01*
X155510000Y-115978000D02*
X155510000Y-116308000D01*
X162050000Y-115978000D02*
X155510000Y-115978000D01*
X162050000Y-116308000D02*
X162050000Y-115978000D01*
X155510000Y-118718000D02*
X155510000Y-118388000D01*
X162050000Y-118718000D02*
X155510000Y-118718000D01*
X162050000Y-118388000D02*
X162050000Y-118718000D01*
D10*
X151915904Y-80716380D02*
X151915904Y-79716380D01*
X152154000Y-79716380D01*
X152296857Y-79764000D01*
X152392095Y-79859238D01*
X152439714Y-79954476D01*
X152487333Y-80144952D01*
X152487333Y-80287809D01*
X152439714Y-80478285D01*
X152392095Y-80573523D01*
X152296857Y-80668761D01*
X152154000Y-80716380D01*
X151915904Y-80716380D01*
X152963523Y-80716380D02*
X153154000Y-80716380D01*
X153249238Y-80668761D01*
X153296857Y-80621142D01*
X153392095Y-80478285D01*
X153439714Y-80287809D01*
X153439714Y-79906857D01*
X153392095Y-79811619D01*
X153344476Y-79764000D01*
X153249238Y-79716380D01*
X153058761Y-79716380D01*
X152963523Y-79764000D01*
X152915904Y-79811619D01*
X152868285Y-79906857D01*
X152868285Y-80144952D01*
X152915904Y-80240190D01*
X152963523Y-80287809D01*
X153058761Y-80335428D01*
X153249238Y-80335428D01*
X153344476Y-80287809D01*
X153392095Y-80240190D01*
X153439714Y-80144952D01*
X154678095Y-78916380D02*
X154678095Y-77916380D01*
X155249523Y-78916380D02*
X154820952Y-78344952D01*
X155249523Y-77916380D02*
X154678095Y-78487809D01*
X152344380Y-120118095D02*
X151344380Y-120118095D01*
X151344380Y-119880000D01*
X151392000Y-119737142D01*
X151487238Y-119641904D01*
X151582476Y-119594285D01*
X151772952Y-119546666D01*
X151915809Y-119546666D01*
X152106285Y-119594285D01*
X152201523Y-119641904D01*
X152296761Y-119737142D01*
X152344380Y-119880000D01*
X152344380Y-120118095D01*
X152344380Y-118594285D02*
X152344380Y-119165714D01*
X152344380Y-118880000D02*
X151344380Y-118880000D01*
X151487238Y-118975238D01*
X151582476Y-119070476D01*
X151630095Y-119165714D01*
X152112380Y-113037904D02*
X151112380Y-113037904D01*
X152112380Y-112466476D02*
X151540952Y-112895047D01*
X151112380Y-112466476D02*
X151683809Y-113037904D01*
X145819904Y-121610380D02*
X145819904Y-120610380D01*
X146058000Y-120610380D01*
X146200857Y-120658000D01*
X146296095Y-120753238D01*
X146343714Y-120848476D01*
X146391333Y-121038952D01*
X146391333Y-121181809D01*
X146343714Y-121372285D01*
X146296095Y-121467523D01*
X146200857Y-121562761D01*
X146058000Y-121610380D01*
X145819904Y-121610380D01*
X146772285Y-120705619D02*
X146819904Y-120658000D01*
X146915142Y-120610380D01*
X147153238Y-120610380D01*
X147248476Y-120658000D01*
X147296095Y-120705619D01*
X147343714Y-120800857D01*
X147343714Y-120896095D01*
X147296095Y-121038952D01*
X146724666Y-121610380D01*
X147343714Y-121610380D01*
X144010095Y-123156374D02*
X144010095Y-122156374D01*
X144581523Y-123156374D02*
X144152952Y-122584946D01*
X144581523Y-122156374D02*
X144010095Y-122727803D01*
X156741904Y-108148380D02*
X156741904Y-107148380D01*
X156980000Y-107148380D01*
X157122857Y-107196000D01*
X157218095Y-107291238D01*
X157265714Y-107386476D01*
X157313333Y-107576952D01*
X157313333Y-107719809D01*
X157265714Y-107910285D01*
X157218095Y-108005523D01*
X157122857Y-108100761D01*
X156980000Y-108148380D01*
X156741904Y-108148380D01*
X157646666Y-107148380D02*
X158265714Y-107148380D01*
X157932380Y-107529333D01*
X158075238Y-107529333D01*
X158170476Y-107576952D01*
X158218095Y-107624571D01*
X158265714Y-107719809D01*
X158265714Y-107957904D01*
X158218095Y-108053142D01*
X158170476Y-108100761D01*
X158075238Y-108148380D01*
X157789523Y-108148380D01*
X157694285Y-108100761D01*
X157646666Y-108053142D01*
X147058095Y-106348380D02*
X147058095Y-105348380D01*
X147629523Y-106348380D02*
X147200952Y-105776952D01*
X147629523Y-105348380D02*
X147058095Y-105919809D01*
X145819904Y-112466380D02*
X145819904Y-111466380D01*
X146058000Y-111466380D01*
X146200857Y-111514000D01*
X146296095Y-111609238D01*
X146343714Y-111704476D01*
X146391333Y-111894952D01*
X146391333Y-112037809D01*
X146343714Y-112228285D01*
X146296095Y-112323523D01*
X146200857Y-112418761D01*
X146058000Y-112466380D01*
X145819904Y-112466380D01*
X147248476Y-111799714D02*
X147248476Y-112466380D01*
X147010380Y-111418761D02*
X146772285Y-112133047D01*
X147391333Y-112133047D01*
X144010095Y-114351042D02*
X144010095Y-113351042D01*
X144581523Y-114351042D02*
X144152952Y-113779614D01*
X144581523Y-113351042D02*
X144010095Y-113922471D01*
X156741904Y-103576380D02*
X156741904Y-102576380D01*
X156980000Y-102576380D01*
X157122857Y-102624000D01*
X157218095Y-102719238D01*
X157265714Y-102814476D01*
X157313333Y-103004952D01*
X157313333Y-103147809D01*
X157265714Y-103338285D01*
X157218095Y-103433523D01*
X157122857Y-103528761D01*
X156980000Y-103576380D01*
X156741904Y-103576380D01*
X158218095Y-102576380D02*
X157741904Y-102576380D01*
X157694285Y-103052571D01*
X157741904Y-103004952D01*
X157837142Y-102957333D01*
X158075238Y-102957333D01*
X158170476Y-103004952D01*
X158218095Y-103052571D01*
X158265714Y-103147809D01*
X158265714Y-103385904D01*
X158218095Y-103481142D01*
X158170476Y-103528761D01*
X158075238Y-103576380D01*
X157837142Y-103576380D01*
X157741904Y-103528761D01*
X157694285Y-103481142D01*
X154678095Y-105376380D02*
X154678095Y-104376380D01*
X155249523Y-105376380D02*
X154820952Y-104804952D01*
X155249523Y-104376380D02*
X154678095Y-104947809D01*
X156741904Y-99512380D02*
X156741904Y-98512380D01*
X156980000Y-98512380D01*
X157122857Y-98560000D01*
X157218095Y-98655238D01*
X157265714Y-98750476D01*
X157313333Y-98940952D01*
X157313333Y-99083809D01*
X157265714Y-99274285D01*
X157218095Y-99369523D01*
X157122857Y-99464761D01*
X156980000Y-99512380D01*
X156741904Y-99512380D01*
X158170476Y-98512380D02*
X157980000Y-98512380D01*
X157884761Y-98560000D01*
X157837142Y-98607619D01*
X157741904Y-98750476D01*
X157694285Y-98940952D01*
X157694285Y-99321904D01*
X157741904Y-99417142D01*
X157789523Y-99464761D01*
X157884761Y-99512380D01*
X158075238Y-99512380D01*
X158170476Y-99464761D01*
X158218095Y-99417142D01*
X158265714Y-99321904D01*
X158265714Y-99083809D01*
X158218095Y-98988571D01*
X158170476Y-98940952D01*
X158075238Y-98893333D01*
X157884761Y-98893333D01*
X157789523Y-98940952D01*
X157741904Y-98988571D01*
X157694285Y-99083809D01*
X154678095Y-101312380D02*
X154678095Y-100312380D01*
X155249523Y-101312380D02*
X154820952Y-100740952D01*
X155249523Y-100312380D02*
X154678095Y-100883809D01*
X145946904Y-94940380D02*
X145946904Y-93940380D01*
X146185000Y-93940380D01*
X146327857Y-93988000D01*
X146423095Y-94083238D01*
X146470714Y-94178476D01*
X146518333Y-94368952D01*
X146518333Y-94511809D01*
X146470714Y-94702285D01*
X146423095Y-94797523D01*
X146327857Y-94892761D01*
X146185000Y-94940380D01*
X145946904Y-94940380D01*
X146851666Y-93940380D02*
X147518333Y-93940380D01*
X147089761Y-94940380D01*
X136390095Y-93140378D02*
X136390095Y-92140378D01*
X136961523Y-93140378D02*
X136532952Y-92568950D01*
X136961523Y-92140378D02*
X136390095Y-92711807D01*
X145819904Y-90622380D02*
X145819904Y-89622380D01*
X146058000Y-89622380D01*
X146200857Y-89670000D01*
X146296095Y-89765238D01*
X146343714Y-89860476D01*
X146391333Y-90050952D01*
X146391333Y-90193809D01*
X146343714Y-90384285D01*
X146296095Y-90479523D01*
X146200857Y-90574761D01*
X146058000Y-90622380D01*
X145819904Y-90622380D01*
X146962761Y-90050952D02*
X146867523Y-90003333D01*
X146819904Y-89955714D01*
X146772285Y-89860476D01*
X146772285Y-89812857D01*
X146819904Y-89717619D01*
X146867523Y-89670000D01*
X146962761Y-89622380D01*
X147153238Y-89622380D01*
X147248476Y-89670000D01*
X147296095Y-89717619D01*
X147343714Y-89812857D01*
X147343714Y-89860476D01*
X147296095Y-89955714D01*
X147248476Y-90003333D01*
X147153238Y-90050952D01*
X146962761Y-90050952D01*
X146867523Y-90098571D01*
X146819904Y-90146190D01*
X146772285Y-90241428D01*
X146772285Y-90431904D01*
X146819904Y-90527142D01*
X146867523Y-90574761D01*
X146962761Y-90622380D01*
X147153238Y-90622380D01*
X147248476Y-90574761D01*
X147296095Y-90527142D01*
X147343714Y-90431904D01*
X147343714Y-90241428D01*
X147296095Y-90146190D01*
X147248476Y-90098571D01*
X147153238Y-90050952D01*
X136390095Y-88737712D02*
X136390095Y-87737712D01*
X136961523Y-88737712D02*
X136532952Y-88166284D01*
X136961523Y-87737712D02*
X136390095Y-88309141D01*
X157535714Y-111616380D02*
X157535714Y-110616380D01*
X157773809Y-110616380D01*
X157916666Y-110664000D01*
X158011904Y-110759238D01*
X158059523Y-110854476D01*
X158107142Y-111044952D01*
X158107142Y-111187809D01*
X158059523Y-111378285D01*
X158011904Y-111473523D01*
X157916666Y-111568761D01*
X157773809Y-111616380D01*
X157535714Y-111616380D01*
X159059523Y-111616380D02*
X158488095Y-111616380D01*
X158773809Y-111616380D02*
X158773809Y-110616380D01*
X158678571Y-110759238D01*
X158583333Y-110854476D01*
X158488095Y-110902095D01*
X159678571Y-110616380D02*
X159773809Y-110616380D01*
X159869047Y-110664000D01*
X159916666Y-110711619D01*
X159964285Y-110806857D01*
X160011904Y-110997333D01*
X160011904Y-111235428D01*
X159964285Y-111425904D01*
X159916666Y-111521142D01*
X159869047Y-111568761D01*
X159773809Y-111616380D01*
X159678571Y-111616380D01*
X159583333Y-111568761D01*
X159535714Y-111521142D01*
X159488095Y-111425904D01*
X159440476Y-111235428D01*
X159440476Y-110997333D01*
X159488095Y-110806857D01*
X159535714Y-110711619D01*
X159583333Y-110664000D01*
X159678571Y-110616380D01*
X154678095Y-111936380D02*
X154678095Y-110936380D01*
X155249523Y-111936380D02*
X154820952Y-111364952D01*
X155249523Y-110936380D02*
X154678095Y-111507809D01*
X157789714Y-90622380D02*
X157789714Y-89622380D01*
X158027809Y-89622380D01*
X158170666Y-89670000D01*
X158265904Y-89765238D01*
X158313523Y-89860476D01*
X158361142Y-90050952D01*
X158361142Y-90193809D01*
X158313523Y-90384285D01*
X158265904Y-90479523D01*
X158170666Y-90574761D01*
X158027809Y-90622380D01*
X157789714Y-90622380D01*
X159313523Y-90622380D02*
X158742095Y-90622380D01*
X159027809Y-90622380D02*
X159027809Y-89622380D01*
X158932571Y-89765238D01*
X158837333Y-89860476D01*
X158742095Y-89908095D01*
X160265904Y-90622380D02*
X159694476Y-90622380D01*
X159980190Y-90622380D02*
X159980190Y-89622380D01*
X159884952Y-89765238D01*
X159789714Y-89860476D01*
X159694476Y-89908095D01*
X154678095Y-86536380D02*
X154678095Y-85536380D01*
X155249523Y-86536380D02*
X154820952Y-85964952D01*
X155249523Y-85536380D02*
X154678095Y-86107809D01*
X150931714Y-123388380D02*
X150931714Y-122388380D01*
X151169809Y-122388380D01*
X151312666Y-122436000D01*
X151407904Y-122531238D01*
X151455523Y-122626476D01*
X151503142Y-122816952D01*
X151503142Y-122959809D01*
X151455523Y-123150285D01*
X151407904Y-123245523D01*
X151312666Y-123340761D01*
X151169809Y-123388380D01*
X150931714Y-123388380D01*
X152455523Y-123388380D02*
X151884095Y-123388380D01*
X152169809Y-123388380D02*
X152169809Y-122388380D01*
X152074571Y-122531238D01*
X151979333Y-122626476D01*
X151884095Y-122674095D01*
X152836476Y-122483619D02*
X152884095Y-122436000D01*
X152979333Y-122388380D01*
X153217428Y-122388380D01*
X153312666Y-122436000D01*
X153360285Y-122483619D01*
X153407904Y-122578857D01*
X153407904Y-122674095D01*
X153360285Y-122816952D01*
X152788857Y-123388380D01*
X153407904Y-123388380D01*
X154678095Y-120064380D02*
X154678095Y-119064380D01*
X155249523Y-120064380D02*
X154820952Y-119492952D01*
X155249523Y-119064380D02*
X154678095Y-119635809D01*
X164258666Y-82002380D02*
X164258666Y-82716666D01*
X164211047Y-82859523D01*
X164115809Y-82954761D01*
X163972952Y-83002380D01*
X163877714Y-83002380D01*
X165258666Y-83002380D02*
X164687238Y-83002380D01*
X164972952Y-83002380D02*
X164972952Y-82002380D01*
X164877714Y-82145238D01*
X164782476Y-82240476D01*
X164687238Y-82288095D01*
X164258666Y-88733380D02*
X164258666Y-89447666D01*
X164211047Y-89590523D01*
X164115809Y-89685761D01*
X163972952Y-89733380D01*
X163877714Y-89733380D01*
X164687238Y-88828619D02*
X164734857Y-88781000D01*
X164830095Y-88733380D01*
X165068190Y-88733380D01*
X165163428Y-88781000D01*
X165211047Y-88828619D01*
X165258666Y-88923857D01*
X165258666Y-89019095D01*
X165211047Y-89161952D01*
X164639619Y-89733380D01*
X165258666Y-89733380D01*
X164385666Y-109180380D02*
X164385666Y-109894666D01*
X164338047Y-110037523D01*
X164242809Y-110132761D01*
X164099952Y-110180380D01*
X164004714Y-110180380D01*
X164766619Y-109180380D02*
X165385666Y-109180380D01*
X165052333Y-109561333D01*
X165195190Y-109561333D01*
X165290428Y-109608952D01*
X165338047Y-109656571D01*
X165385666Y-109751809D01*
X165385666Y-109989904D01*
X165338047Y-110085142D01*
X165290428Y-110132761D01*
X165195190Y-110180380D01*
X164909476Y-110180380D01*
X164814238Y-110132761D01*
X164766619Y-110085142D01*
X164512666Y-117816380D02*
X164512666Y-118530666D01*
X164465047Y-118673523D01*
X164369809Y-118768761D01*
X164226952Y-118816380D01*
X164131714Y-118816380D01*
X165417428Y-118149714D02*
X165417428Y-118816380D01*
X165179333Y-117768761D02*
X164941238Y-118483047D01*
X165560285Y-118483047D01*
X146391333Y-87701380D02*
X146058000Y-87225190D01*
X145819904Y-87701380D02*
X145819904Y-86701380D01*
X146200857Y-86701380D01*
X146296095Y-86749000D01*
X146343714Y-86796619D01*
X146391333Y-86891857D01*
X146391333Y-87034714D01*
X146343714Y-87129952D01*
X146296095Y-87177571D01*
X146200857Y-87225190D01*
X145819904Y-87225190D01*
X147343714Y-87701380D02*
X146772285Y-87701380D01*
X147058000Y-87701380D02*
X147058000Y-86701380D01*
X146962761Y-86844238D01*
X146867523Y-86939476D01*
X146772285Y-86987095D01*
X146391333Y-81732380D02*
X146058000Y-81256190D01*
X145819904Y-81732380D02*
X145819904Y-80732380D01*
X146200857Y-80732380D01*
X146296095Y-80780000D01*
X146343714Y-80827619D01*
X146391333Y-80922857D01*
X146391333Y-81065714D01*
X146343714Y-81160952D01*
X146296095Y-81208571D01*
X146200857Y-81256190D01*
X145819904Y-81256190D01*
X146772285Y-80827619D02*
X146819904Y-80780000D01*
X146915142Y-80732380D01*
X147153238Y-80732380D01*
X147248476Y-80780000D01*
X147296095Y-80827619D01*
X147343714Y-80922857D01*
X147343714Y-81018095D01*
X147296095Y-81160952D01*
X146724666Y-81732380D01*
X147343714Y-81732380D01*
X152598380Y-88050666D02*
X152122190Y-88384000D01*
X152598380Y-88622095D02*
X151598380Y-88622095D01*
X151598380Y-88241142D01*
X151646000Y-88145904D01*
X151693619Y-88098285D01*
X151788857Y-88050666D01*
X151931714Y-88050666D01*
X152026952Y-88098285D01*
X152074571Y-88145904D01*
X152122190Y-88241142D01*
X152122190Y-88622095D01*
X151598380Y-87717333D02*
X151598380Y-87098285D01*
X151979333Y-87431619D01*
X151979333Y-87288761D01*
X152026952Y-87193523D01*
X152074571Y-87145904D01*
X152169809Y-87098285D01*
X152407904Y-87098285D01*
X152503142Y-87145904D01*
X152550761Y-87193523D01*
X152598380Y-87288761D01*
X152598380Y-87574476D01*
X152550761Y-87669714D01*
X152503142Y-87717333D01*
X146391333Y-117038380D02*
X146058000Y-116562190D01*
X145819904Y-117038380D02*
X145819904Y-116038380D01*
X146200857Y-116038380D01*
X146296095Y-116086000D01*
X146343714Y-116133619D01*
X146391333Y-116228857D01*
X146391333Y-116371714D01*
X146343714Y-116466952D01*
X146296095Y-116514571D01*
X146200857Y-116562190D01*
X145819904Y-116562190D01*
X147248476Y-116371714D02*
X147248476Y-117038380D01*
X147010380Y-115990761D02*
X146772285Y-116705047D01*
X147391333Y-116705047D01*
X140541380Y-115911380D02*
X140636619Y-115911380D01*
X140731857Y-115959000D01*
X140779476Y-116006619D01*
X140827095Y-116101857D01*
X140874714Y-116292333D01*
X140874714Y-116530428D01*
X140827095Y-116720904D01*
X140779476Y-116816142D01*
X140731857Y-116863761D01*
X140636619Y-116911380D01*
X140541380Y-116911380D01*
X140446142Y-116863761D01*
X140398523Y-116816142D01*
X140350904Y-116720904D01*
X140303285Y-116530428D01*
X140303285Y-116292333D01*
X140350904Y-116101857D01*
X140398523Y-116006619D01*
X140446142Y-115959000D01*
X140541380Y-115911380D01*
X134326333Y-108148380D02*
X133993000Y-107672190D01*
X133754904Y-108148380D02*
X133754904Y-107148380D01*
X134135857Y-107148380D01*
X134231095Y-107196000D01*
X134278714Y-107243619D01*
X134326333Y-107338857D01*
X134326333Y-107481714D01*
X134278714Y-107576952D01*
X134231095Y-107624571D01*
X134135857Y-107672190D01*
X133754904Y-107672190D01*
X135231095Y-107148380D02*
X134754904Y-107148380D01*
X134707285Y-107624571D01*
X134754904Y-107576952D01*
X134850142Y-107529333D01*
X135088238Y-107529333D01*
X135183476Y-107576952D01*
X135231095Y-107624571D01*
X135278714Y-107719809D01*
X135278714Y-107957904D01*
X135231095Y-108053142D01*
X135183476Y-108100761D01*
X135088238Y-108148380D01*
X134850142Y-108148380D01*
X134754904Y-108100761D01*
X134707285Y-108053142D01*
X140541380Y-107275380D02*
X140636619Y-107275380D01*
X140731857Y-107323000D01*
X140779476Y-107370619D01*
X140827095Y-107465857D01*
X140874714Y-107656333D01*
X140874714Y-107894428D01*
X140827095Y-108084904D01*
X140779476Y-108180142D01*
X140731857Y-108227761D01*
X140636619Y-108275380D01*
X140541380Y-108275380D01*
X140446142Y-108227761D01*
X140398523Y-108180142D01*
X140350904Y-108084904D01*
X140303285Y-107894428D01*
X140303285Y-107656333D01*
X140350904Y-107465857D01*
X140398523Y-107370619D01*
X140446142Y-107323000D01*
X140541380Y-107275380D01*
X134326333Y-103830380D02*
X133993000Y-103354190D01*
X133754904Y-103830380D02*
X133754904Y-102830380D01*
X134135857Y-102830380D01*
X134231095Y-102878000D01*
X134278714Y-102925619D01*
X134326333Y-103020857D01*
X134326333Y-103163714D01*
X134278714Y-103258952D01*
X134231095Y-103306571D01*
X134135857Y-103354190D01*
X133754904Y-103354190D01*
X135183476Y-102830380D02*
X134993000Y-102830380D01*
X134897761Y-102878000D01*
X134850142Y-102925619D01*
X134754904Y-103068476D01*
X134707285Y-103258952D01*
X134707285Y-103639904D01*
X134754904Y-103735142D01*
X134802523Y-103782761D01*
X134897761Y-103830380D01*
X135088238Y-103830380D01*
X135183476Y-103782761D01*
X135231095Y-103735142D01*
X135278714Y-103639904D01*
X135278714Y-103401809D01*
X135231095Y-103306571D01*
X135183476Y-103258952D01*
X135088238Y-103211333D01*
X134897761Y-103211333D01*
X134802523Y-103258952D01*
X134754904Y-103306571D01*
X134707285Y-103401809D01*
X140541380Y-102703380D02*
X140636619Y-102703380D01*
X140731857Y-102751000D01*
X140779476Y-102798619D01*
X140827095Y-102893857D01*
X140874714Y-103084333D01*
X140874714Y-103322428D01*
X140827095Y-103512904D01*
X140779476Y-103608142D01*
X140731857Y-103655761D01*
X140636619Y-103703380D01*
X140541380Y-103703380D01*
X140446142Y-103655761D01*
X140398523Y-103608142D01*
X140350904Y-103512904D01*
X140303285Y-103322428D01*
X140303285Y-103084333D01*
X140350904Y-102893857D01*
X140398523Y-102798619D01*
X140446142Y-102751000D01*
X140541380Y-102703380D01*
X146518333Y-97353380D02*
X146185000Y-96877190D01*
X145946904Y-97353380D02*
X145946904Y-96353380D01*
X146327857Y-96353380D01*
X146423095Y-96401000D01*
X146470714Y-96448619D01*
X146518333Y-96543857D01*
X146518333Y-96686714D01*
X146470714Y-96781952D01*
X146423095Y-96829571D01*
X146327857Y-96877190D01*
X145946904Y-96877190D01*
X146851666Y-96353380D02*
X147518333Y-96353380D01*
X147089761Y-97353380D01*
X140414380Y-98258380D02*
X140509619Y-98258380D01*
X140604857Y-98306000D01*
X140652476Y-98353619D01*
X140700095Y-98448857D01*
X140747714Y-98639333D01*
X140747714Y-98877428D01*
X140700095Y-99067904D01*
X140652476Y-99163142D01*
X140604857Y-99210761D01*
X140509619Y-99258380D01*
X140414380Y-99258380D01*
X140319142Y-99210761D01*
X140271523Y-99163142D01*
X140223904Y-99067904D01*
X140176285Y-98877428D01*
X140176285Y-98639333D01*
X140223904Y-98448857D01*
X140271523Y-98353619D01*
X140319142Y-98306000D01*
X140414380Y-98258380D01*
X152487333Y-84526380D02*
X152154000Y-84050190D01*
X151915904Y-84526380D02*
X151915904Y-83526380D01*
X152296857Y-83526380D01*
X152392095Y-83574000D01*
X152439714Y-83621619D01*
X152487333Y-83716857D01*
X152487333Y-83859714D01*
X152439714Y-83954952D01*
X152392095Y-84002571D01*
X152296857Y-84050190D01*
X151915904Y-84050190D01*
X153058761Y-83954952D02*
X152963523Y-83907333D01*
X152915904Y-83859714D01*
X152868285Y-83764476D01*
X152868285Y-83716857D01*
X152915904Y-83621619D01*
X152963523Y-83574000D01*
X153058761Y-83526380D01*
X153249238Y-83526380D01*
X153344476Y-83574000D01*
X153392095Y-83621619D01*
X153439714Y-83716857D01*
X153439714Y-83764476D01*
X153392095Y-83859714D01*
X153344476Y-83907333D01*
X153249238Y-83954952D01*
X153058761Y-83954952D01*
X152963523Y-84002571D01*
X152915904Y-84050190D01*
X152868285Y-84145428D01*
X152868285Y-84335904D01*
X152915904Y-84431142D01*
X152963523Y-84478761D01*
X153058761Y-84526380D01*
X153249238Y-84526380D01*
X153344476Y-84478761D01*
X153392095Y-84431142D01*
X153439714Y-84335904D01*
X153439714Y-84145428D01*
X153392095Y-84050190D01*
X153344476Y-84002571D01*
X153249238Y-83954952D01*
X158829380Y-83526380D02*
X158924619Y-83526380D01*
X159019857Y-83574000D01*
X159067476Y-83621619D01*
X159115095Y-83716857D01*
X159162714Y-83907333D01*
X159162714Y-84145428D01*
X159115095Y-84335904D01*
X159067476Y-84431142D01*
X159019857Y-84478761D01*
X158924619Y-84526380D01*
X158829380Y-84526380D01*
X158734142Y-84478761D01*
X158686523Y-84431142D01*
X158638904Y-84335904D01*
X158591285Y-84145428D01*
X158591285Y-83907333D01*
X158638904Y-83716857D01*
X158686523Y-83621619D01*
X158734142Y-83574000D01*
X158829380Y-83526380D01*
X152741333Y-117800380D02*
X152408000Y-117324190D01*
X152169904Y-117800380D02*
X152169904Y-116800380D01*
X152550857Y-116800380D01*
X152646095Y-116848000D01*
X152693714Y-116895619D01*
X152741333Y-116990857D01*
X152741333Y-117133714D01*
X152693714Y-117228952D01*
X152646095Y-117276571D01*
X152550857Y-117324190D01*
X152169904Y-117324190D01*
X153217523Y-117800380D02*
X153408000Y-117800380D01*
X153503238Y-117752761D01*
X153550857Y-117705142D01*
X153646095Y-117562285D01*
X153693714Y-117371809D01*
X153693714Y-116990857D01*
X153646095Y-116895619D01*
X153598476Y-116848000D01*
X153503238Y-116800380D01*
X153312761Y-116800380D01*
X153217523Y-116848000D01*
X153169904Y-116895619D01*
X153122285Y-116990857D01*
X153122285Y-117228952D01*
X153169904Y-117324190D01*
X153217523Y-117371809D01*
X153312761Y-117419428D01*
X153503238Y-117419428D01*
X153598476Y-117371809D01*
X153646095Y-117324190D01*
X153693714Y-117228952D01*
X158702380Y-116800380D02*
X158797619Y-116800380D01*
X158892857Y-116848000D01*
X158940476Y-116895619D01*
X158988095Y-116990857D01*
X159035714Y-117181333D01*
X159035714Y-117419428D01*
X158988095Y-117609904D01*
X158940476Y-117705142D01*
X158892857Y-117752761D01*
X158797619Y-117800380D01*
X158702380Y-117800380D01*
X158607142Y-117752761D01*
X158559523Y-117705142D01*
X158511904Y-117609904D01*
X158464285Y-117419428D01*
X158464285Y-117181333D01*
X158511904Y-116990857D01*
X158559523Y-116895619D01*
X158607142Y-116848000D01*
X158702380Y-116800380D01*
M02*
