M48
;DRILL file {KiCad (5.0.1)-3} date 2/16/2019 4:59:48 PM
;FORMAT={-:-/ absolute / inch / decimal}
FMAT,2
INCH,TZ
T1C0.0256
T2C0.0315
T3C0.0394
%
G90
G05
M72
T1
X5.94Y-4.22
X5.94Y-4.27
X5.94Y-4.32
X5.94Y-4.56
X5.94Y-4.61
X5.94Y-4.66
X5.92Y-3.38
X5.92Y-3.43
X5.92Y-3.48
X5.92Y-3.72
X5.92Y-3.77
X5.92Y-3.82
T2
X5.4Y-3.88
X5.7Y-3.88
X5.4Y-4.44
X5.5969Y-4.44
X5.4031Y-4.24
X5.6Y-4.24
X5.4Y-4.06
X5.7Y-4.06
X5.8231Y-3.18
X6.02Y-3.18
X5.4Y-3.34
X5.7Y-3.34
X5.4Y-3.18
X5.7Y-3.18
X5.4Y-4.6
X5.7Y-4.6
X5.4Y-3.5
X5.5969Y-3.5
X5.4Y-3.72
X5.7Y-3.72
X5.4Y-4.78
X5.7Y-4.78
T3
X6.22Y-3.17
X6.22Y-3.27
T0
M30
