G04 #@! TF.GenerationSoftware,KiCad,Pcbnew,(2017-12-21 revision 23d71cfa9)-makepkg*
G04 #@! TF.CreationDate,2018-06-03T16:52:53-04:00*
G04 #@! TF.ProjectId,OdysseyDaughterCardSpotGenerator,4F647973736579446175676874657243,0.1*
G04 #@! TF.SameCoordinates,Original*
G04 #@! TF.FileFunction,Soldermask,Top*
G04 #@! TF.FilePolarity,Negative*
%FSLAX46Y46*%
G04 Gerber Fmt 4.6, Leading zero omitted, Abs format (unit mm)*
G04 Created by KiCad (PCBNEW (2017-12-21 revision 23d71cfa9)-makepkg) date 06/03/18 16:52:53*
%MOMM*%
%LPD*%
G01*
G04 APERTURE LIST*
%ADD10C,2.000000*%
%ADD11C,1.800000*%
%ADD12O,2.000000X2.000000*%
%ADD13R,2.000000X2.000000*%
%ADD14R,1.900000X1.450000*%
%ADD15O,1.900000X1.450000*%
G04 APERTURE END LIST*
D10*
X148336000Y-83312000D03*
X148336000Y-80812000D03*
X155956000Y-99608000D03*
X155956000Y-102108000D03*
D11*
X149860000Y-102108000D03*
X149860000Y-99608000D03*
D10*
X149860000Y-94488000D03*
X149860000Y-96988000D03*
X148376000Y-116332000D03*
X150876000Y-116332000D03*
D12*
X137160000Y-80772000D03*
D13*
X144780000Y-80772000D03*
X144780000Y-120650000D03*
D12*
X137160000Y-120650000D03*
D14*
X155448000Y-88392000D03*
D15*
X155448000Y-90932000D03*
X155448000Y-89662000D03*
X156464000Y-106934000D03*
X156464000Y-105664000D03*
D14*
X156464000Y-108204000D03*
D15*
X149860000Y-89662000D03*
X149860000Y-88392000D03*
D14*
X149860000Y-90932000D03*
X150368000Y-108204000D03*
D15*
X150368000Y-105664000D03*
X150368000Y-106934000D03*
D10*
X144780000Y-84455000D03*
D12*
X137160000Y-84455000D03*
X144780000Y-95885000D03*
D10*
X137160000Y-95885000D03*
D12*
X144780000Y-88265000D03*
D10*
X137160000Y-88265000D03*
X137160000Y-103632000D03*
D12*
X144780000Y-103632000D03*
X137160000Y-107696000D03*
D10*
X144780000Y-107696000D03*
X144780000Y-99695000D03*
D12*
X137160000Y-99695000D03*
D10*
X144780000Y-92075000D03*
D12*
X137160000Y-92075000D03*
X137160000Y-116205000D03*
D10*
X144780000Y-116205000D03*
M02*
