M48
INCH,TZ
T1C0.0157
T2C0.0315
T3C0.0394
%
G90
G05
T1
X57814Y-37051
T2
X53800Y-35467
X56800Y-35467
X58200Y-41116
X58200Y-42100
X58700Y-37200
X61700Y-37200
X58700Y-33700
X61700Y-33700
X53800Y-37200
X56800Y-37200
X58700Y-31900
X61700Y-31900
X65200Y-41500
X65200Y-44500
X53800Y-44133
X56800Y-44133
X58700Y-45711
X61700Y-45711
X58700Y-35500
X61700Y-35500
X53750Y-40600
X56750Y-40600
X53750Y-45750
X56750Y-45750
X53800Y-33733
X56800Y-33733
X58700Y-47561
X61700Y-47561
X58700Y-44094
X61700Y-44094
X53800Y-32000
X56800Y-32000
X62800Y-39800
X62800Y-42800
X58700Y-38600
X61700Y-38600
X53750Y-38750
X56750Y-38750
X53750Y-42000
X56750Y-42000
X53800Y-47600
X56800Y-47600
T3
X65200Y-46439
X65200Y-47439
X65200Y-35500
X65200Y-36500
X65198Y-31802
X65198Y-32802
X65198Y-33802
T0
M30
