G04 #@! TF.GenerationSoftware,KiCad,Pcbnew,(2017-12-21 revision 23d71cfa9)-makepkg*
G04 #@! TF.CreationDate,2018-07-16T19:44:21-04:00*
G04 #@! TF.ProjectId,OdysseyDaughterCardHorizSyncGenerator,4F647973736579446175676874657243,0.1*
G04 #@! TF.SameCoordinates,Original*
G04 #@! TF.FileFunction,Copper,L2,Bot,Signal*
G04 #@! TF.FilePolarity,Positive*
%FSLAX46Y46*%
G04 Gerber Fmt 4.6, Leading zero omitted, Abs format (unit mm)*
G04 Created by KiCad (PCBNEW (2017-12-21 revision 23d71cfa9)-makepkg) date 07/16/18 19:44:21*
%MOMM*%
%LPD*%
G01*
G04 APERTURE LIST*
%ADD10R,11.000000X3.250000*%
%ADD11C,1.600000*%
%ADD12R,1.600000X1.600000*%
%ADD13C,2.600000*%
%ADD14O,1.500000X1.050000*%
%ADD15R,1.500000X1.050000*%
%ADD16O,1.600000X1.600000*%
%ADD17C,0.250000*%
G04 APERTURE END LIST*
D10*
X129000000Y-81250000D03*
X129000000Y-85638888D03*
X129000000Y-90027776D03*
X129000000Y-94416664D03*
X129000000Y-98805552D03*
X129000000Y-103194440D03*
X129000000Y-107583328D03*
X129000000Y-111972216D03*
X129000000Y-116361104D03*
X129000000Y-120749992D03*
D11*
X154305000Y-96520000D03*
X154305000Y-91520000D03*
X142160000Y-111760000D03*
X137160000Y-111760000D03*
D12*
X138684000Y-81788000D03*
D11*
X138684000Y-83788000D03*
X153416000Y-83280000D03*
D12*
X153416000Y-81280000D03*
D13*
X144780000Y-81788000D03*
X147780000Y-81788000D03*
D14*
X148590000Y-89535000D03*
X148590000Y-90805000D03*
D15*
X148590000Y-88265000D03*
X149225000Y-120650000D03*
D14*
X149225000Y-118110000D03*
X149225000Y-119380000D03*
X156210000Y-119380000D03*
X156210000Y-120650000D03*
D15*
X156210000Y-118110000D03*
D16*
X144780000Y-120650000D03*
D11*
X137160000Y-120650000D03*
X137160000Y-98552000D03*
D16*
X144780000Y-98552000D03*
D11*
X137160000Y-116840000D03*
D16*
X144780000Y-116840000D03*
X148590000Y-96520000D03*
D11*
X148590000Y-104140000D03*
X137160000Y-107315000D03*
D16*
X144780000Y-107315000D03*
X148590000Y-114300000D03*
D11*
X148590000Y-106680000D03*
X137160000Y-94488000D03*
D16*
X144780000Y-94488000D03*
D17*
X142160000Y-113094700D02*
X142160000Y-111760000D01*
X144780000Y-115714700D02*
X142160000Y-113094700D01*
X144780000Y-116840000D02*
X144780000Y-115714700D01*
X137160000Y-107315000D02*
X137160000Y-111760000D01*
X134825300Y-84521400D02*
X134825300Y-85638900D01*
X137558700Y-81788000D02*
X134825300Y-84521400D01*
X138684000Y-81788000D02*
X137558700Y-81788000D01*
X129000000Y-85638900D02*
X134825300Y-85638900D01*
X144780000Y-94488000D02*
X144780000Y-95613300D01*
X144780000Y-107315000D02*
X144780000Y-106189700D01*
X143654700Y-96738600D02*
X143654700Y-103194400D01*
X144780000Y-95613300D02*
X143654700Y-96738600D01*
X143654700Y-105064400D02*
X144780000Y-106189700D01*
X143654700Y-103194400D02*
X143654700Y-105064400D01*
X134825300Y-107583300D02*
X134825300Y-103194400D01*
X129000000Y-107583300D02*
X134825300Y-107583300D01*
X129000000Y-103194400D02*
X134825300Y-103194400D01*
X143654700Y-103194400D02*
X134825300Y-103194400D01*
X156210000Y-120650000D02*
X155134700Y-120650000D01*
X148431400Y-82439400D02*
X147780000Y-81788000D01*
X152256600Y-82439400D02*
X148431400Y-82439400D01*
X152256600Y-82439400D02*
X153416000Y-81280000D01*
X152381700Y-117897000D02*
X152256600Y-117897000D01*
X155134700Y-120650000D02*
X152381700Y-117897000D01*
X150300300Y-119853300D02*
X152256600Y-117897000D01*
X150300300Y-120650000D02*
X150300300Y-119853300D01*
X152256600Y-117897000D02*
X152256600Y-82439400D01*
X149225000Y-120650000D02*
X150300300Y-120650000D01*
X134825300Y-114505300D02*
X134825300Y-111972200D01*
X137160000Y-116840000D02*
X134825300Y-114505300D01*
X129000000Y-111972200D02*
X134825300Y-111972200D01*
X137160000Y-120650000D02*
X137160000Y-116840000D01*
X146273900Y-89505800D02*
X147514700Y-88265000D01*
X146273900Y-107453900D02*
X146273900Y-89505800D01*
X144511300Y-109216500D02*
X146273900Y-107453900D01*
X143106800Y-109216500D02*
X144511300Y-109216500D01*
X137160000Y-115163300D02*
X143106800Y-109216500D01*
X137160000Y-116840000D02*
X137160000Y-115163300D01*
X148590000Y-88265000D02*
X147514700Y-88265000D01*
X149225000Y-118110000D02*
X149225000Y-117259700D01*
X149760500Y-116724200D02*
X149225000Y-117259700D01*
X149760500Y-107850500D02*
X149760500Y-116724200D01*
X148590000Y-106680000D02*
X149760500Y-107850500D01*
X134896600Y-94488000D02*
X134825300Y-94416700D01*
X137160000Y-94488000D02*
X134896600Y-94488000D01*
X129000000Y-94416700D02*
X134825300Y-94416700D01*
X135078800Y-98552000D02*
X134825300Y-98805500D01*
X137160000Y-98552000D02*
X135078800Y-98552000D01*
X129000000Y-98805500D02*
X134825300Y-98805500D01*
M02*
