G04 #@! TF.GenerationSoftware,KiCad,Pcbnew,(2017-12-21 revision 23d71cfa9)-makepkg*
G04 #@! TF.CreationDate,2018-08-18T14:34:20-04:00*
G04 #@! TF.ProjectId,OdysseyDaughterCardSummer,4F647973736579446175676874657243,0.1*
G04 #@! TF.SameCoordinates,Original*
G04 #@! TF.FileFunction,Soldermask,Top*
G04 #@! TF.FilePolarity,Negative*
%FSLAX46Y46*%
G04 Gerber Fmt 4.6, Leading zero omitted, Abs format (unit mm)*
G04 Created by KiCad (PCBNEW (2017-12-21 revision 23d71cfa9)-makepkg) date 08/18/18 14:34:20*
%MOMM*%
%LPD*%
G01*
G04 APERTURE LIST*
%ADD10R,2.000000X2.000000*%
%ADD11O,2.000000X2.000000*%
%ADD12C,4.400500*%
%ADD13C,2.000000*%
G04 APERTURE END LIST*
D10*
X154940000Y-80264000D03*
D11*
X162560000Y-80264000D03*
X149860000Y-120396000D03*
D10*
X149860000Y-112776000D03*
D11*
X136652000Y-120903994D03*
D10*
X144272000Y-120903994D03*
D11*
X154940000Y-107696000D03*
D10*
X147320000Y-107696000D03*
D11*
X136652000Y-112098662D03*
D10*
X144272000Y-112098662D03*
D11*
X147320000Y-103124000D03*
D10*
X154940000Y-103124000D03*
X154940000Y-99060000D03*
D11*
X147320000Y-99060000D03*
X144272000Y-94487998D03*
D10*
X136652000Y-94487998D03*
X136652000Y-90085332D03*
D11*
X144272000Y-90085332D03*
X162560000Y-113284000D03*
D10*
X154940000Y-113284000D03*
X154940000Y-87884000D03*
D11*
X162560000Y-87884000D03*
X163065001Y-121412000D03*
D10*
X154940000Y-121412000D03*
D12*
X167005000Y-80772000D03*
X167005000Y-86868000D03*
X167005000Y-114935000D03*
X167005000Y-120650000D03*
D11*
X144272000Y-85682666D03*
D13*
X136652000Y-85682666D03*
D11*
X136652000Y-81280000D03*
D13*
X144272000Y-81280000D03*
D11*
X149610000Y-81280000D03*
D13*
X149610000Y-88900000D03*
D11*
X144272000Y-116501328D03*
D13*
X136652000Y-116501328D03*
X136652000Y-107695996D03*
D11*
X144272000Y-107695996D03*
X144272000Y-103293330D03*
D13*
X136652000Y-103293330D03*
X136652000Y-98890664D03*
D11*
X144272000Y-98890664D03*
X154970000Y-84074000D03*
D13*
X162590000Y-84074000D03*
D11*
X154970000Y-117348000D03*
D13*
X162590000Y-117348000D03*
M02*
