G04 #@! TF.GenerationSoftware,KiCad,Pcbnew,(5.0.0)*
G04 #@! TF.CreationDate,2018-09-29T20:49:37-04:00*
G04 #@! TF.ProjectId,OdysseyDaughterCardSpotGenerator,4F647973736579446175676874657243,1.0*
G04 #@! TF.SameCoordinates,Original*
G04 #@! TF.FileFunction,Soldermask,Bot*
G04 #@! TF.FilePolarity,Negative*
%FSLAX46Y46*%
G04 Gerber Fmt 4.6, Leading zero omitted, Abs format (unit mm)*
G04 Created by KiCad (PCBNEW (5.0.0)) date 09/29/18 20:49:37*
%MOMM*%
%LPD*%
G01*
G04 APERTURE LIST*
%ADD10R,11.400000X3.650000*%
%ADD11C,2.000000*%
%ADD12C,1.800000*%
%ADD13O,2.000000X2.000000*%
%ADD14R,2.000000X2.000000*%
%ADD15R,1.900000X1.450000*%
%ADD16O,1.900000X1.450000*%
%ADD17R,2.100000X2.100000*%
%ADD18O,2.100000X2.100000*%
G04 APERTURE END LIST*
D10*
G04 #@! TO.C,X1*
X129000000Y-81250000D03*
X129000000Y-85638888D03*
X129000000Y-90027776D03*
X129000000Y-94416664D03*
X129000000Y-98805552D03*
X129000000Y-103194440D03*
X129000000Y-107583328D03*
X129000000Y-111972216D03*
X129000000Y-116361104D03*
X129000000Y-120749992D03*
G04 #@! TD*
D11*
G04 #@! TO.C,C1*
X148336000Y-83312000D03*
X148336000Y-80812000D03*
G04 #@! TD*
G04 #@! TO.C,C2*
X155956000Y-99608000D03*
X155956000Y-102108000D03*
G04 #@! TD*
D12*
G04 #@! TO.C,C3*
X149860000Y-102108000D03*
X149860000Y-99608000D03*
G04 #@! TD*
D11*
G04 #@! TO.C,C4*
X149860000Y-94488000D03*
X149860000Y-96988000D03*
G04 #@! TD*
G04 #@! TO.C,C5*
X148376000Y-116332000D03*
X150876000Y-116332000D03*
G04 #@! TD*
D13*
G04 #@! TO.C,D1*
X137160000Y-80772000D03*
D14*
X144780000Y-80772000D03*
G04 #@! TD*
G04 #@! TO.C,D2*
X144780000Y-120650000D03*
D13*
X137160000Y-120650000D03*
G04 #@! TD*
D15*
G04 #@! TO.C,Q1*
X155448000Y-88392000D03*
D16*
X155448000Y-90932000D03*
X155448000Y-89662000D03*
G04 #@! TD*
G04 #@! TO.C,Q2*
X156464000Y-106934000D03*
X156464000Y-105664000D03*
D15*
X156464000Y-108204000D03*
G04 #@! TD*
D16*
G04 #@! TO.C,Q3*
X149860000Y-89662000D03*
X149860000Y-88392000D03*
D15*
X149860000Y-90932000D03*
G04 #@! TD*
G04 #@! TO.C,Q4*
X150368000Y-108204000D03*
D16*
X150368000Y-105664000D03*
X150368000Y-106934000D03*
G04 #@! TD*
D11*
G04 #@! TO.C,R1*
X144780000Y-84455000D03*
D13*
X137160000Y-84455000D03*
G04 #@! TD*
G04 #@! TO.C,R2*
X144780000Y-95885000D03*
D11*
X137160000Y-95885000D03*
G04 #@! TD*
D13*
G04 #@! TO.C,R3*
X144780000Y-88265000D03*
D11*
X137160000Y-88265000D03*
G04 #@! TD*
G04 #@! TO.C,R4*
X137160000Y-103632000D03*
D13*
X144780000Y-103632000D03*
G04 #@! TD*
G04 #@! TO.C,R5*
X137160000Y-107696000D03*
D11*
X144780000Y-107696000D03*
G04 #@! TD*
G04 #@! TO.C,R6*
X144780000Y-99695000D03*
D13*
X137160000Y-99695000D03*
G04 #@! TD*
D11*
G04 #@! TO.C,R7*
X144780000Y-92075000D03*
D13*
X137160000Y-92075000D03*
G04 #@! TD*
G04 #@! TO.C,R8*
X137160000Y-116205000D03*
D11*
X144780000Y-116205000D03*
G04 #@! TD*
D17*
G04 #@! TO.C,J1*
X156718000Y-120904000D03*
D18*
X156718000Y-118364000D03*
X156718000Y-115824000D03*
G04 #@! TD*
M02*
