M48
;DRILL file {KiCad (5.0.1)-3} date 11/23/2018 8:41:37 PM
;FORMAT={-:-/ absolute / inch / decimal}
FMAT,2
INCH,TZ
T1C0.0315
T2C0.0394
T3C0.0433
%
G90
G05
M72
T1
X6.Y-4.5
X6.Y-4.8
X5.5Y-4.65
X5.8Y-4.65
X5.5Y-3.15
X5.8Y-3.15
X5.4Y-4.
X5.4Y-4.3
X5.5Y-3.35
X5.8Y-3.35
X5.5Y-3.85
X5.8Y-3.85
X5.5Y-3.7
X5.8Y-3.7
X6.1Y-3.15
X6.1Y-3.45
X5.5Y-3.55
X5.8Y-3.55
X5.5Y-4.8
X5.8Y-4.8
T2
X6.19Y-4.64
T3
X6.Y-4.05
X6.Y-4.35
X5.95Y-3.15
X5.95Y-3.45
X5.55Y-4.05
X5.85Y-4.05
X5.5Y-4.45
X5.8Y-4.45
X6.Y-3.6
X6.Y-3.9
X5.55Y-4.25
X5.85Y-4.25
T0
M30
