G04 #@! TF.GenerationSoftware,KiCad,Pcbnew,(2017-12-21 revision 23d71cfa9)-makepkg*
G04 #@! TF.CreationDate,2018-08-18T11:55:39-04:00*
G04 #@! TF.ProjectId,OdysseyDaughterCardHorizSyncGenerator,4F647973736579446175676874657243,0.3*
G04 #@! TF.SameCoordinates,Original*
G04 #@! TF.FileFunction,Soldermask,Bot*
G04 #@! TF.FilePolarity,Negative*
%FSLAX46Y46*%
G04 Gerber Fmt 4.6, Leading zero omitted, Abs format (unit mm)*
G04 Created by KiCad (PCBNEW (2017-12-21 revision 23d71cfa9)-makepkg) date 08/18/18 11:55:39*
%MOMM*%
%LPD*%
G01*
G04 APERTURE LIST*
%ADD10R,11.400000X3.650000*%
%ADD11C,2.000000*%
%ADD12R,2.000000X2.000000*%
%ADD13C,3.000000*%
%ADD14O,1.900000X1.450000*%
%ADD15R,1.900000X1.450000*%
%ADD16O,2.000000X2.000000*%
G04 APERTURE END LIST*
D10*
X129000000Y-81250000D03*
X129000000Y-85638888D03*
X129000000Y-90027776D03*
X129000000Y-94416664D03*
X129000000Y-98805552D03*
X129000000Y-103194440D03*
X129000000Y-107583328D03*
X129000000Y-111972216D03*
X129000000Y-116361104D03*
X129000000Y-120749992D03*
D11*
X154305000Y-96520000D03*
X154305000Y-91520000D03*
X142160000Y-111760000D03*
X137160000Y-111760000D03*
D12*
X138684000Y-81788000D03*
D11*
X138684000Y-83788000D03*
X153416000Y-83280000D03*
D12*
X153416000Y-81280000D03*
D13*
X144780000Y-81788000D03*
X147780000Y-81788000D03*
D14*
X148590000Y-89535000D03*
X148590000Y-90805000D03*
D15*
X148590000Y-88265000D03*
X148844000Y-118110000D03*
D14*
X148844000Y-120650000D03*
X148844000Y-119380000D03*
X153924000Y-119380000D03*
X153924000Y-120650000D03*
D15*
X153924000Y-118110000D03*
D16*
X144780000Y-120650000D03*
D11*
X137160000Y-120650000D03*
X137160000Y-98552000D03*
D16*
X144780000Y-98552000D03*
D11*
X137160000Y-116840000D03*
D16*
X144780000Y-116840000D03*
X148590000Y-96520000D03*
D11*
X148590000Y-104140000D03*
X137160000Y-107315000D03*
D16*
X144780000Y-107315000D03*
X148590000Y-114300000D03*
D11*
X148590000Y-106680000D03*
X137160000Y-94488000D03*
D16*
X144780000Y-94488000D03*
M02*
