G04 #@! TF.GenerationSoftware,KiCad,Pcbnew,(2017-12-21 revision 23d71cfa9)-makepkg*
G04 #@! TF.CreationDate,2018-08-18T11:55:39-04:00*
G04 #@! TF.ProjectId,OdysseyDaughterCardHorizSyncGenerator,4F647973736579446175676874657243,0.3*
G04 #@! TF.SameCoordinates,Original*
G04 #@! TF.FileFunction,Legend,Top*
G04 #@! TF.FilePolarity,Positive*
%FSLAX46Y46*%
G04 Gerber Fmt 4.6, Leading zero omitted, Abs format (unit mm)*
G04 Created by KiCad (PCBNEW (2017-12-21 revision 23d71cfa9)-makepkg) date 08/18/18 11:55:39*
%MOMM*%
%LPD*%
G01*
G04 APERTURE LIST*
%ADD10C,0.200000*%
%ADD11C,0.120000*%
%ADD12C,0.150000*%
G04 APERTURE END LIST*
D10*
X133013142Y-80679714D02*
X134213142Y-80679714D01*
X134213142Y-80965428D01*
X134156000Y-81136857D01*
X134041714Y-81251142D01*
X133927428Y-81308285D01*
X133698857Y-81365428D01*
X133527428Y-81365428D01*
X133298857Y-81308285D01*
X133184571Y-81251142D01*
X133070285Y-81136857D01*
X133013142Y-80965428D01*
X133013142Y-80679714D01*
X133013142Y-82394000D02*
X133641714Y-82394000D01*
X133756000Y-82336857D01*
X133813142Y-82222571D01*
X133813142Y-81994000D01*
X133756000Y-81879714D01*
X133070285Y-82394000D02*
X133013142Y-82279714D01*
X133013142Y-81994000D01*
X133070285Y-81879714D01*
X133184571Y-81822571D01*
X133298857Y-81822571D01*
X133413142Y-81879714D01*
X133470285Y-81994000D01*
X133470285Y-82279714D01*
X133527428Y-82394000D01*
X133813142Y-83479714D02*
X133013142Y-83479714D01*
X133813142Y-82965428D02*
X133184571Y-82965428D01*
X133070285Y-83022571D01*
X133013142Y-83136857D01*
X133013142Y-83308285D01*
X133070285Y-83422571D01*
X133127428Y-83479714D01*
X133813142Y-84565428D02*
X132841714Y-84565428D01*
X132727428Y-84508285D01*
X132670285Y-84451142D01*
X132613142Y-84336857D01*
X132613142Y-84165428D01*
X132670285Y-84051142D01*
X133070285Y-84565428D02*
X133013142Y-84451142D01*
X133013142Y-84222571D01*
X133070285Y-84108285D01*
X133127428Y-84051142D01*
X133241714Y-83994000D01*
X133584571Y-83994000D01*
X133698857Y-84051142D01*
X133756000Y-84108285D01*
X133813142Y-84222571D01*
X133813142Y-84451142D01*
X133756000Y-84565428D01*
X133013142Y-85136857D02*
X134213142Y-85136857D01*
X133013142Y-85651142D02*
X133641714Y-85651142D01*
X133756000Y-85594000D01*
X133813142Y-85479714D01*
X133813142Y-85308285D01*
X133756000Y-85194000D01*
X133698857Y-85136857D01*
X133813142Y-86051142D02*
X133813142Y-86508285D01*
X134213142Y-86222571D02*
X133184571Y-86222571D01*
X133070285Y-86279714D01*
X133013142Y-86394000D01*
X133013142Y-86508285D01*
X133070285Y-87365428D02*
X133013142Y-87251142D01*
X133013142Y-87022571D01*
X133070285Y-86908285D01*
X133184571Y-86851142D01*
X133641714Y-86851142D01*
X133756000Y-86908285D01*
X133813142Y-87022571D01*
X133813142Y-87251142D01*
X133756000Y-87365428D01*
X133641714Y-87422571D01*
X133527428Y-87422571D01*
X133413142Y-86851142D01*
X133013142Y-87936857D02*
X133813142Y-87936857D01*
X133584571Y-87936857D02*
X133698857Y-87994000D01*
X133756000Y-88051142D01*
X133813142Y-88165428D01*
X133813142Y-88279714D01*
X133127428Y-90279714D02*
X133070285Y-90222571D01*
X133013142Y-90051142D01*
X133013142Y-89936857D01*
X133070285Y-89765428D01*
X133184571Y-89651142D01*
X133298857Y-89594000D01*
X133527428Y-89536857D01*
X133698857Y-89536857D01*
X133927428Y-89594000D01*
X134041714Y-89651142D01*
X134156000Y-89765428D01*
X134213142Y-89936857D01*
X134213142Y-90051142D01*
X134156000Y-90222571D01*
X134098857Y-90279714D01*
X133013142Y-91308285D02*
X133641714Y-91308285D01*
X133756000Y-91251142D01*
X133813142Y-91136857D01*
X133813142Y-90908285D01*
X133756000Y-90794000D01*
X133070285Y-91308285D02*
X133013142Y-91194000D01*
X133013142Y-90908285D01*
X133070285Y-90794000D01*
X133184571Y-90736857D01*
X133298857Y-90736857D01*
X133413142Y-90794000D01*
X133470285Y-90908285D01*
X133470285Y-91194000D01*
X133527428Y-91308285D01*
X133013142Y-91879714D02*
X133813142Y-91879714D01*
X133584571Y-91879714D02*
X133698857Y-91936857D01*
X133756000Y-91994000D01*
X133813142Y-92108285D01*
X133813142Y-92222571D01*
X133013142Y-93136857D02*
X134213142Y-93136857D01*
X133070285Y-93136857D02*
X133013142Y-93022571D01*
X133013142Y-92794000D01*
X133070285Y-92679714D01*
X133127428Y-92622571D01*
X133241714Y-92565428D01*
X133584571Y-92565428D01*
X133698857Y-92622571D01*
X133756000Y-92679714D01*
X133813142Y-92794000D01*
X133813142Y-93022571D01*
X133756000Y-93136857D01*
X133013142Y-94622571D02*
X134213142Y-94622571D01*
X133641714Y-94622571D02*
X133641714Y-95308285D01*
X133013142Y-95308285D02*
X134213142Y-95308285D01*
X133013142Y-96051142D02*
X133070285Y-95936857D01*
X133127428Y-95879714D01*
X133241714Y-95822571D01*
X133584571Y-95822571D01*
X133698857Y-95879714D01*
X133756000Y-95936857D01*
X133813142Y-96051142D01*
X133813142Y-96222571D01*
X133756000Y-96336857D01*
X133698857Y-96394000D01*
X133584571Y-96451142D01*
X133241714Y-96451142D01*
X133127428Y-96394000D01*
X133070285Y-96336857D01*
X133013142Y-96222571D01*
X133013142Y-96051142D01*
X133013142Y-96965428D02*
X133813142Y-96965428D01*
X133584571Y-96965428D02*
X133698857Y-97022571D01*
X133756000Y-97079714D01*
X133813142Y-97194000D01*
X133813142Y-97308285D01*
X133013142Y-97708285D02*
X133813142Y-97708285D01*
X134213142Y-97708285D02*
X134156000Y-97651142D01*
X134098857Y-97708285D01*
X134156000Y-97765428D01*
X134213142Y-97708285D01*
X134098857Y-97708285D01*
X133813142Y-98165428D02*
X133813142Y-98794000D01*
X133013142Y-98165428D01*
X133013142Y-98794000D01*
X133013142Y-99422571D02*
X133070285Y-99308285D01*
X133127428Y-99251142D01*
X133241714Y-99194000D01*
X133584571Y-99194000D01*
X133698857Y-99251142D01*
X133756000Y-99308285D01*
X133813142Y-99422571D01*
X133813142Y-99594000D01*
X133756000Y-99708285D01*
X133698857Y-99765428D01*
X133584571Y-99822571D01*
X133241714Y-99822571D01*
X133127428Y-99765428D01*
X133070285Y-99708285D01*
X133013142Y-99594000D01*
X133013142Y-99422571D01*
X133813142Y-100336857D02*
X133013142Y-100336857D01*
X133698857Y-100336857D02*
X133756000Y-100394000D01*
X133813142Y-100508285D01*
X133813142Y-100679714D01*
X133756000Y-100794000D01*
X133641714Y-100851142D01*
X133013142Y-100851142D01*
X133813142Y-101251142D02*
X133813142Y-101708285D01*
X134213142Y-101422571D02*
X133184571Y-101422571D01*
X133070285Y-101479714D01*
X133013142Y-101594000D01*
X133013142Y-101708285D01*
X133013142Y-102622571D02*
X133641714Y-102622571D01*
X133756000Y-102565428D01*
X133813142Y-102451142D01*
X133813142Y-102222571D01*
X133756000Y-102108285D01*
X133070285Y-102622571D02*
X133013142Y-102508285D01*
X133013142Y-102222571D01*
X133070285Y-102108285D01*
X133184571Y-102051142D01*
X133298857Y-102051142D01*
X133413142Y-102108285D01*
X133470285Y-102222571D01*
X133470285Y-102508285D01*
X133527428Y-102622571D01*
X133013142Y-103365428D02*
X133070285Y-103251142D01*
X133184571Y-103194000D01*
X134213142Y-103194000D01*
X133070285Y-104679714D02*
X133013142Y-104851142D01*
X133013142Y-105136857D01*
X133070285Y-105251142D01*
X133127428Y-105308285D01*
X133241714Y-105365428D01*
X133356000Y-105365428D01*
X133470285Y-105308285D01*
X133527428Y-105251142D01*
X133584571Y-105136857D01*
X133641714Y-104908285D01*
X133698857Y-104794000D01*
X133756000Y-104736857D01*
X133870285Y-104679714D01*
X133984571Y-104679714D01*
X134098857Y-104736857D01*
X134156000Y-104794000D01*
X134213142Y-104908285D01*
X134213142Y-105194000D01*
X134156000Y-105365428D01*
X133813142Y-105765428D02*
X133013142Y-106051142D01*
X133813142Y-106336857D02*
X133013142Y-106051142D01*
X132727428Y-105936857D01*
X132670285Y-105879714D01*
X132613142Y-105765428D01*
X133813142Y-106794000D02*
X133013142Y-106794000D01*
X133698857Y-106794000D02*
X133756000Y-106851142D01*
X133813142Y-106965428D01*
X133813142Y-107136857D01*
X133756000Y-107251142D01*
X133641714Y-107308285D01*
X133013142Y-107308285D01*
X133070285Y-108394000D02*
X133013142Y-108279714D01*
X133013142Y-108051142D01*
X133070285Y-107936857D01*
X133127428Y-107879714D01*
X133241714Y-107822571D01*
X133584571Y-107822571D01*
X133698857Y-107879714D01*
X133756000Y-107936857D01*
X133813142Y-108051142D01*
X133813142Y-108279714D01*
X133756000Y-108394000D01*
X134156000Y-110451142D02*
X134213142Y-110336857D01*
X134213142Y-110165428D01*
X134156000Y-109994000D01*
X134041714Y-109879714D01*
X133927428Y-109822571D01*
X133698857Y-109765428D01*
X133527428Y-109765428D01*
X133298857Y-109822571D01*
X133184571Y-109879714D01*
X133070285Y-109994000D01*
X133013142Y-110165428D01*
X133013142Y-110279714D01*
X133070285Y-110451142D01*
X133127428Y-110508285D01*
X133527428Y-110508285D01*
X133527428Y-110279714D01*
X133070285Y-111479714D02*
X133013142Y-111365428D01*
X133013142Y-111136857D01*
X133070285Y-111022571D01*
X133184571Y-110965428D01*
X133641714Y-110965428D01*
X133756000Y-111022571D01*
X133813142Y-111136857D01*
X133813142Y-111365428D01*
X133756000Y-111479714D01*
X133641714Y-111536857D01*
X133527428Y-111536857D01*
X133413142Y-110965428D01*
X133813142Y-112051142D02*
X133013142Y-112051142D01*
X133698857Y-112051142D02*
X133756000Y-112108285D01*
X133813142Y-112222571D01*
X133813142Y-112394000D01*
X133756000Y-112508285D01*
X133641714Y-112565428D01*
X133013142Y-112565428D01*
X133070285Y-113594000D02*
X133013142Y-113479714D01*
X133013142Y-113251142D01*
X133070285Y-113136857D01*
X133184571Y-113079714D01*
X133641714Y-113079714D01*
X133756000Y-113136857D01*
X133813142Y-113251142D01*
X133813142Y-113479714D01*
X133756000Y-113594000D01*
X133641714Y-113651142D01*
X133527428Y-113651142D01*
X133413142Y-113079714D01*
X133013142Y-114165428D02*
X133813142Y-114165428D01*
X133584571Y-114165428D02*
X133698857Y-114222571D01*
X133756000Y-114279714D01*
X133813142Y-114394000D01*
X133813142Y-114508285D01*
X133013142Y-115422571D02*
X133641714Y-115422571D01*
X133756000Y-115365428D01*
X133813142Y-115251142D01*
X133813142Y-115022571D01*
X133756000Y-114908285D01*
X133070285Y-115422571D02*
X133013142Y-115308285D01*
X133013142Y-115022571D01*
X133070285Y-114908285D01*
X133184571Y-114851142D01*
X133298857Y-114851142D01*
X133413142Y-114908285D01*
X133470285Y-115022571D01*
X133470285Y-115308285D01*
X133527428Y-115422571D01*
X133813142Y-115822571D02*
X133813142Y-116279714D01*
X134213142Y-115994000D02*
X133184571Y-115994000D01*
X133070285Y-116051142D01*
X133013142Y-116165428D01*
X133013142Y-116279714D01*
X133013142Y-116851142D02*
X133070285Y-116736857D01*
X133127428Y-116679714D01*
X133241714Y-116622571D01*
X133584571Y-116622571D01*
X133698857Y-116679714D01*
X133756000Y-116736857D01*
X133813142Y-116851142D01*
X133813142Y-117022571D01*
X133756000Y-117136857D01*
X133698857Y-117194000D01*
X133584571Y-117251142D01*
X133241714Y-117251142D01*
X133127428Y-117194000D01*
X133070285Y-117136857D01*
X133013142Y-117022571D01*
X133013142Y-116851142D01*
X133013142Y-117765428D02*
X133813142Y-117765428D01*
X133584571Y-117765428D02*
X133698857Y-117822571D01*
X133756000Y-117879714D01*
X133813142Y-117994000D01*
X133813142Y-118108285D01*
X131698857Y-80851142D02*
X131756000Y-80736857D01*
X131813142Y-80679714D01*
X131927428Y-80622571D01*
X131984571Y-80622571D01*
X132098857Y-80679714D01*
X132156000Y-80736857D01*
X132213142Y-80851142D01*
X132213142Y-81079714D01*
X132156000Y-81194000D01*
X132098857Y-81251142D01*
X131984571Y-81308285D01*
X131927428Y-81308285D01*
X131813142Y-81251142D01*
X131756000Y-81194000D01*
X131698857Y-81079714D01*
X131698857Y-80851142D01*
X131641714Y-80736857D01*
X131584571Y-80679714D01*
X131470285Y-80622571D01*
X131241714Y-80622571D01*
X131127428Y-80679714D01*
X131070285Y-80736857D01*
X131013142Y-80851142D01*
X131013142Y-81079714D01*
X131070285Y-81194000D01*
X131127428Y-81251142D01*
X131241714Y-81308285D01*
X131470285Y-81308285D01*
X131584571Y-81251142D01*
X131641714Y-81194000D01*
X131698857Y-81079714D01*
X131470285Y-81822571D02*
X131470285Y-82736857D01*
X131013142Y-83936857D02*
X131013142Y-83251142D01*
X131013142Y-83594000D02*
X132213142Y-83594000D01*
X132041714Y-83479714D01*
X131927428Y-83365428D01*
X131870285Y-83251142D01*
X131698857Y-84622571D02*
X131756000Y-84508285D01*
X131813142Y-84451142D01*
X131927428Y-84394000D01*
X131984571Y-84394000D01*
X132098857Y-84451142D01*
X132156000Y-84508285D01*
X132213142Y-84622571D01*
X132213142Y-84851142D01*
X132156000Y-84965428D01*
X132098857Y-85022571D01*
X131984571Y-85079714D01*
X131927428Y-85079714D01*
X131813142Y-85022571D01*
X131756000Y-84965428D01*
X131698857Y-84851142D01*
X131698857Y-84622571D01*
X131641714Y-84508285D01*
X131584571Y-84451142D01*
X131470285Y-84394000D01*
X131241714Y-84394000D01*
X131127428Y-84451142D01*
X131070285Y-84508285D01*
X131013142Y-84622571D01*
X131013142Y-84851142D01*
X131070285Y-84965428D01*
X131127428Y-85022571D01*
X131241714Y-85079714D01*
X131470285Y-85079714D01*
X131584571Y-85022571D01*
X131641714Y-84965428D01*
X131698857Y-84851142D01*
X131470285Y-85594000D02*
X131470285Y-86508285D01*
X132098857Y-87022571D02*
X132156000Y-87079714D01*
X132213142Y-87194000D01*
X132213142Y-87479714D01*
X132156000Y-87594000D01*
X132098857Y-87651142D01*
X131984571Y-87708285D01*
X131870285Y-87708285D01*
X131698857Y-87651142D01*
X131013142Y-86965428D01*
X131013142Y-87708285D01*
X132213142Y-88451142D02*
X132213142Y-88565428D01*
X132156000Y-88679714D01*
X132098857Y-88736857D01*
X131984571Y-88794000D01*
X131756000Y-88851142D01*
X131470285Y-88851142D01*
X131241714Y-88794000D01*
X131127428Y-88736857D01*
X131070285Y-88679714D01*
X131013142Y-88565428D01*
X131013142Y-88451142D01*
X131070285Y-88336857D01*
X131127428Y-88279714D01*
X131241714Y-88222571D01*
X131470285Y-88165428D01*
X131756000Y-88165428D01*
X131984571Y-88222571D01*
X132098857Y-88279714D01*
X132156000Y-88336857D01*
X132213142Y-88451142D01*
X131013142Y-89994000D02*
X131013142Y-89308285D01*
X131013142Y-89651142D02*
X132213142Y-89651142D01*
X132041714Y-89536857D01*
X131927428Y-89422571D01*
X131870285Y-89308285D01*
X131698857Y-90679714D02*
X131756000Y-90565428D01*
X131813142Y-90508285D01*
X131927428Y-90451142D01*
X131984571Y-90451142D01*
X132098857Y-90508285D01*
X132156000Y-90565428D01*
X132213142Y-90679714D01*
X132213142Y-90908285D01*
X132156000Y-91022571D01*
X132098857Y-91079714D01*
X131984571Y-91136857D01*
X131927428Y-91136857D01*
X131813142Y-91079714D01*
X131756000Y-91022571D01*
X131698857Y-90908285D01*
X131698857Y-90679714D01*
X131641714Y-90565428D01*
X131584571Y-90508285D01*
X131470285Y-90451142D01*
X131241714Y-90451142D01*
X131127428Y-90508285D01*
X131070285Y-90565428D01*
X131013142Y-90679714D01*
X131013142Y-90908285D01*
X131070285Y-91022571D01*
X131127428Y-91079714D01*
X131241714Y-91136857D01*
X131470285Y-91136857D01*
X131584571Y-91079714D01*
X131641714Y-91022571D01*
X131698857Y-90908285D01*
X131013142Y-92565428D02*
X131813142Y-92565428D01*
X131584571Y-92565428D02*
X131698857Y-92622571D01*
X131756000Y-92679714D01*
X131813142Y-92794000D01*
X131813142Y-92908285D01*
X132213142Y-93536857D02*
X132213142Y-93651142D01*
X132156000Y-93765428D01*
X132098857Y-93822571D01*
X131984571Y-93879714D01*
X131756000Y-93936857D01*
X131470285Y-93936857D01*
X131241714Y-93879714D01*
X131127428Y-93822571D01*
X131070285Y-93765428D01*
X131013142Y-93651142D01*
X131013142Y-93536857D01*
X131070285Y-93422571D01*
X131127428Y-93365428D01*
X131241714Y-93308285D01*
X131470285Y-93251142D01*
X131756000Y-93251142D01*
X131984571Y-93308285D01*
X132098857Y-93365428D01*
X132156000Y-93422571D01*
X132213142Y-93536857D01*
X131127428Y-94451142D02*
X131070285Y-94508285D01*
X131013142Y-94451142D01*
X131070285Y-94394000D01*
X131127428Y-94451142D01*
X131013142Y-94451142D01*
X132213142Y-94908285D02*
X132213142Y-95651142D01*
X131756000Y-95251142D01*
X131756000Y-95422571D01*
X131698857Y-95536857D01*
X131641714Y-95594000D01*
X131527428Y-95651142D01*
X131241714Y-95651142D01*
X131127428Y-95594000D01*
X131070285Y-95536857D01*
X131013142Y-95422571D01*
X131013142Y-95079714D01*
X131070285Y-94965428D01*
X131127428Y-94908285D01*
X130213142Y-80679714D02*
X129241714Y-80679714D01*
X129127428Y-80736857D01*
X129070285Y-80794000D01*
X129013142Y-80908285D01*
X129013142Y-81136857D01*
X129070285Y-81251142D01*
X129127428Y-81308285D01*
X129241714Y-81365428D01*
X130213142Y-81365428D01*
X129813142Y-81936857D02*
X129013142Y-81936857D01*
X129698857Y-81936857D02*
X129756000Y-81994000D01*
X129813142Y-82108285D01*
X129813142Y-82279714D01*
X129756000Y-82394000D01*
X129641714Y-82451142D01*
X129013142Y-82451142D01*
X129013142Y-83022571D02*
X129813142Y-83022571D01*
X130213142Y-83022571D02*
X130156000Y-82965428D01*
X130098857Y-83022571D01*
X130156000Y-83079714D01*
X130213142Y-83022571D01*
X130098857Y-83022571D01*
X129813142Y-83479714D02*
X129013142Y-83765428D01*
X129813142Y-84051142D01*
X129070285Y-84965428D02*
X129013142Y-84851142D01*
X129013142Y-84622571D01*
X129070285Y-84508285D01*
X129184571Y-84451142D01*
X129641714Y-84451142D01*
X129756000Y-84508285D01*
X129813142Y-84622571D01*
X129813142Y-84851142D01*
X129756000Y-84965428D01*
X129641714Y-85022571D01*
X129527428Y-85022571D01*
X129413142Y-84451142D01*
X129013142Y-85536857D02*
X129813142Y-85536857D01*
X129584571Y-85536857D02*
X129698857Y-85594000D01*
X129756000Y-85651142D01*
X129813142Y-85765428D01*
X129813142Y-85879714D01*
X129070285Y-86222571D02*
X129013142Y-86336857D01*
X129013142Y-86565428D01*
X129070285Y-86679714D01*
X129184571Y-86736857D01*
X129241714Y-86736857D01*
X129356000Y-86679714D01*
X129413142Y-86565428D01*
X129413142Y-86394000D01*
X129470285Y-86279714D01*
X129584571Y-86222571D01*
X129641714Y-86222571D01*
X129756000Y-86279714D01*
X129813142Y-86394000D01*
X129813142Y-86565428D01*
X129756000Y-86679714D01*
X129013142Y-87251142D02*
X129813142Y-87251142D01*
X130213142Y-87251142D02*
X130156000Y-87194000D01*
X130098857Y-87251142D01*
X130156000Y-87308285D01*
X130213142Y-87251142D01*
X130098857Y-87251142D01*
X129813142Y-87651142D02*
X129813142Y-88108285D01*
X130213142Y-87822571D02*
X129184571Y-87822571D01*
X129070285Y-87879714D01*
X129013142Y-87994000D01*
X129013142Y-88108285D01*
X129813142Y-88394000D02*
X129013142Y-88679714D01*
X129813142Y-88965428D02*
X129013142Y-88679714D01*
X128727428Y-88565428D01*
X128670285Y-88508285D01*
X128613142Y-88394000D01*
X129013142Y-90508285D02*
X129070285Y-90394000D01*
X129127428Y-90336857D01*
X129241714Y-90279714D01*
X129584571Y-90279714D01*
X129698857Y-90336857D01*
X129756000Y-90394000D01*
X129813142Y-90508285D01*
X129813142Y-90679714D01*
X129756000Y-90794000D01*
X129698857Y-90851142D01*
X129584571Y-90908285D01*
X129241714Y-90908285D01*
X129127428Y-90851142D01*
X129070285Y-90794000D01*
X129013142Y-90679714D01*
X129013142Y-90508285D01*
X129813142Y-91251142D02*
X129813142Y-91708285D01*
X129013142Y-91422571D02*
X130041714Y-91422571D01*
X130156000Y-91479714D01*
X130213142Y-91594000D01*
X130213142Y-91708285D01*
X129013142Y-93022571D02*
X130213142Y-93022571D01*
X130213142Y-93479714D01*
X130156000Y-93594000D01*
X130098857Y-93651142D01*
X129984571Y-93708285D01*
X129813142Y-93708285D01*
X129698857Y-93651142D01*
X129641714Y-93594000D01*
X129584571Y-93479714D01*
X129584571Y-93022571D01*
X129013142Y-94222571D02*
X129813142Y-94222571D01*
X130213142Y-94222571D02*
X130156000Y-94165428D01*
X130098857Y-94222571D01*
X130156000Y-94279714D01*
X130213142Y-94222571D01*
X130098857Y-94222571D01*
X129813142Y-94622571D02*
X129813142Y-95079714D01*
X130213142Y-94794000D02*
X129184571Y-94794000D01*
X129070285Y-94851142D01*
X129013142Y-94965428D01*
X129013142Y-95079714D01*
X129813142Y-95308285D02*
X129813142Y-95765428D01*
X130213142Y-95479714D02*
X129184571Y-95479714D01*
X129070285Y-95536857D01*
X129013142Y-95651142D01*
X129013142Y-95765428D01*
X129070285Y-96108285D02*
X129013142Y-96222571D01*
X129013142Y-96451142D01*
X129070285Y-96565428D01*
X129184571Y-96622571D01*
X129241714Y-96622571D01*
X129356000Y-96565428D01*
X129413142Y-96451142D01*
X129413142Y-96279714D01*
X129470285Y-96165428D01*
X129584571Y-96108285D01*
X129641714Y-96108285D01*
X129756000Y-96165428D01*
X129813142Y-96279714D01*
X129813142Y-96451142D01*
X129756000Y-96565428D01*
X129013142Y-97136857D02*
X130213142Y-97136857D01*
X129756000Y-97136857D02*
X129813142Y-97251142D01*
X129813142Y-97479714D01*
X129756000Y-97594000D01*
X129698857Y-97651142D01*
X129584571Y-97708285D01*
X129241714Y-97708285D01*
X129127428Y-97651142D01*
X129070285Y-97594000D01*
X129013142Y-97479714D01*
X129013142Y-97251142D01*
X129070285Y-97136857D01*
X129813142Y-98736857D02*
X129013142Y-98736857D01*
X129813142Y-98222571D02*
X129184571Y-98222571D01*
X129070285Y-98279714D01*
X129013142Y-98394000D01*
X129013142Y-98565428D01*
X129070285Y-98679714D01*
X129127428Y-98736857D01*
X129013142Y-99308285D02*
X129813142Y-99308285D01*
X129584571Y-99308285D02*
X129698857Y-99365428D01*
X129756000Y-99422571D01*
X129813142Y-99536857D01*
X129813142Y-99651142D01*
X129813142Y-100565428D02*
X128841714Y-100565428D01*
X128727428Y-100508285D01*
X128670285Y-100451142D01*
X128613142Y-100336857D01*
X128613142Y-100165428D01*
X128670285Y-100051142D01*
X129070285Y-100565428D02*
X129013142Y-100451142D01*
X129013142Y-100222571D01*
X129070285Y-100108285D01*
X129127428Y-100051142D01*
X129241714Y-99994000D01*
X129584571Y-99994000D01*
X129698857Y-100051142D01*
X129756000Y-100108285D01*
X129813142Y-100222571D01*
X129813142Y-100451142D01*
X129756000Y-100565428D01*
X129013142Y-101136857D02*
X130213142Y-101136857D01*
X129013142Y-101651142D02*
X129641714Y-101651142D01*
X129756000Y-101594000D01*
X129813142Y-101479714D01*
X129813142Y-101308285D01*
X129756000Y-101194000D01*
X129698857Y-101136857D01*
X128213142Y-80908285D02*
X128213142Y-81136857D01*
X128156000Y-81251142D01*
X128041714Y-81365428D01*
X127813142Y-81422571D01*
X127413142Y-81422571D01*
X127184571Y-81365428D01*
X127070285Y-81251142D01*
X127013142Y-81136857D01*
X127013142Y-80908285D01*
X127070285Y-80794000D01*
X127184571Y-80679714D01*
X127413142Y-80622571D01*
X127813142Y-80622571D01*
X128041714Y-80679714D01*
X128156000Y-80794000D01*
X128213142Y-80908285D01*
X127013142Y-82451142D02*
X128213142Y-82451142D01*
X127070285Y-82451142D02*
X127013142Y-82336857D01*
X127013142Y-82108285D01*
X127070285Y-81994000D01*
X127127428Y-81936857D01*
X127241714Y-81879714D01*
X127584571Y-81879714D01*
X127698857Y-81936857D01*
X127756000Y-81994000D01*
X127813142Y-82108285D01*
X127813142Y-82336857D01*
X127756000Y-82451142D01*
X127813142Y-82908285D02*
X127013142Y-83194000D01*
X127813142Y-83479714D02*
X127013142Y-83194000D01*
X126727428Y-83079714D01*
X126670285Y-83022571D01*
X126613142Y-82908285D01*
X127070285Y-83879714D02*
X127013142Y-83994000D01*
X127013142Y-84222571D01*
X127070285Y-84336857D01*
X127184571Y-84394000D01*
X127241714Y-84394000D01*
X127356000Y-84336857D01*
X127413142Y-84222571D01*
X127413142Y-84051142D01*
X127470285Y-83936857D01*
X127584571Y-83879714D01*
X127641714Y-83879714D01*
X127756000Y-83936857D01*
X127813142Y-84051142D01*
X127813142Y-84222571D01*
X127756000Y-84336857D01*
X127070285Y-84851142D02*
X127013142Y-84965428D01*
X127013142Y-85194000D01*
X127070285Y-85308285D01*
X127184571Y-85365428D01*
X127241714Y-85365428D01*
X127356000Y-85308285D01*
X127413142Y-85194000D01*
X127413142Y-85022571D01*
X127470285Y-84908285D01*
X127584571Y-84851142D01*
X127641714Y-84851142D01*
X127756000Y-84908285D01*
X127813142Y-85022571D01*
X127813142Y-85194000D01*
X127756000Y-85308285D01*
X127070285Y-86336857D02*
X127013142Y-86222571D01*
X127013142Y-85994000D01*
X127070285Y-85879714D01*
X127184571Y-85822571D01*
X127641714Y-85822571D01*
X127756000Y-85879714D01*
X127813142Y-85994000D01*
X127813142Y-86222571D01*
X127756000Y-86336857D01*
X127641714Y-86394000D01*
X127527428Y-86394000D01*
X127413142Y-85822571D01*
X127813142Y-86794000D02*
X127013142Y-87079714D01*
X127813142Y-87365428D02*
X127013142Y-87079714D01*
X126727428Y-86965428D01*
X126670285Y-86908285D01*
X126613142Y-86794000D01*
X127013142Y-89422571D02*
X127584571Y-89022571D01*
X127013142Y-88736857D02*
X128213142Y-88736857D01*
X128213142Y-89194000D01*
X128156000Y-89308285D01*
X128098857Y-89365428D01*
X127984571Y-89422571D01*
X127813142Y-89422571D01*
X127698857Y-89365428D01*
X127641714Y-89308285D01*
X127584571Y-89194000D01*
X127584571Y-88736857D01*
X127070285Y-90394000D02*
X127013142Y-90279714D01*
X127013142Y-90051142D01*
X127070285Y-89936857D01*
X127184571Y-89879714D01*
X127641714Y-89879714D01*
X127756000Y-89936857D01*
X127813142Y-90051142D01*
X127813142Y-90279714D01*
X127756000Y-90394000D01*
X127641714Y-90451142D01*
X127527428Y-90451142D01*
X127413142Y-89879714D01*
X127070285Y-90908285D02*
X127013142Y-91022571D01*
X127013142Y-91251142D01*
X127070285Y-91365428D01*
X127184571Y-91422571D01*
X127241714Y-91422571D01*
X127356000Y-91365428D01*
X127413142Y-91251142D01*
X127413142Y-91079714D01*
X127470285Y-90965428D01*
X127584571Y-90908285D01*
X127641714Y-90908285D01*
X127756000Y-90965428D01*
X127813142Y-91079714D01*
X127813142Y-91251142D01*
X127756000Y-91365428D01*
X127813142Y-91765428D02*
X127813142Y-92222571D01*
X128213142Y-91936857D02*
X127184571Y-91936857D01*
X127070285Y-91994000D01*
X127013142Y-92108285D01*
X127013142Y-92222571D01*
X127013142Y-92794000D02*
X127070285Y-92679714D01*
X127127428Y-92622571D01*
X127241714Y-92565428D01*
X127584571Y-92565428D01*
X127698857Y-92622571D01*
X127756000Y-92679714D01*
X127813142Y-92794000D01*
X127813142Y-92965428D01*
X127756000Y-93079714D01*
X127698857Y-93136857D01*
X127584571Y-93194000D01*
X127241714Y-93194000D01*
X127127428Y-93136857D01*
X127070285Y-93079714D01*
X127013142Y-92965428D01*
X127013142Y-92794000D01*
X127013142Y-93708285D02*
X127813142Y-93708285D01*
X127584571Y-93708285D02*
X127698857Y-93765428D01*
X127756000Y-93822571D01*
X127813142Y-93936857D01*
X127813142Y-94051142D01*
X127013142Y-94965428D02*
X127641714Y-94965428D01*
X127756000Y-94908285D01*
X127813142Y-94794000D01*
X127813142Y-94565428D01*
X127756000Y-94451142D01*
X127070285Y-94965428D02*
X127013142Y-94851142D01*
X127013142Y-94565428D01*
X127070285Y-94451142D01*
X127184571Y-94394000D01*
X127298857Y-94394000D01*
X127413142Y-94451142D01*
X127470285Y-94565428D01*
X127470285Y-94851142D01*
X127527428Y-94965428D01*
X127813142Y-95365428D02*
X127813142Y-95822571D01*
X128213142Y-95536857D02*
X127184571Y-95536857D01*
X127070285Y-95594000D01*
X127013142Y-95708285D01*
X127013142Y-95822571D01*
X127013142Y-96222571D02*
X127813142Y-96222571D01*
X128213142Y-96222571D02*
X128156000Y-96165428D01*
X128098857Y-96222571D01*
X128156000Y-96279714D01*
X128213142Y-96222571D01*
X128098857Y-96222571D01*
X127013142Y-96965428D02*
X127070285Y-96851142D01*
X127127428Y-96794000D01*
X127241714Y-96736857D01*
X127584571Y-96736857D01*
X127698857Y-96794000D01*
X127756000Y-96851142D01*
X127813142Y-96965428D01*
X127813142Y-97136857D01*
X127756000Y-97251142D01*
X127698857Y-97308285D01*
X127584571Y-97365428D01*
X127241714Y-97365428D01*
X127127428Y-97308285D01*
X127070285Y-97251142D01*
X127013142Y-97136857D01*
X127013142Y-96965428D01*
X127813142Y-97879714D02*
X127013142Y-97879714D01*
X127698857Y-97879714D02*
X127756000Y-97936857D01*
X127813142Y-98051142D01*
X127813142Y-98222571D01*
X127756000Y-98336857D01*
X127641714Y-98394000D01*
X127013142Y-98394000D01*
X127013142Y-99879714D02*
X128213142Y-99879714D01*
X128213142Y-100336857D01*
X128156000Y-100451142D01*
X128098857Y-100508285D01*
X127984571Y-100565428D01*
X127813142Y-100565428D01*
X127698857Y-100508285D01*
X127641714Y-100451142D01*
X127584571Y-100336857D01*
X127584571Y-99879714D01*
X127013142Y-101079714D02*
X127813142Y-101079714D01*
X127584571Y-101079714D02*
X127698857Y-101136857D01*
X127756000Y-101194000D01*
X127813142Y-101308285D01*
X127813142Y-101422571D01*
X127013142Y-101994000D02*
X127070285Y-101879714D01*
X127127428Y-101822571D01*
X127241714Y-101765428D01*
X127584571Y-101765428D01*
X127698857Y-101822571D01*
X127756000Y-101879714D01*
X127813142Y-101994000D01*
X127813142Y-102165428D01*
X127756000Y-102279714D01*
X127698857Y-102336857D01*
X127584571Y-102394000D01*
X127241714Y-102394000D01*
X127127428Y-102336857D01*
X127070285Y-102279714D01*
X127013142Y-102165428D01*
X127013142Y-101994000D01*
X127813142Y-102908285D02*
X126784571Y-102908285D01*
X126670285Y-102851142D01*
X126613142Y-102736857D01*
X126613142Y-102679714D01*
X128213142Y-102908285D02*
X128156000Y-102851142D01*
X128098857Y-102908285D01*
X128156000Y-102965428D01*
X128213142Y-102908285D01*
X128098857Y-102908285D01*
X127070285Y-103936857D02*
X127013142Y-103822571D01*
X127013142Y-103594000D01*
X127070285Y-103479714D01*
X127184571Y-103422571D01*
X127641714Y-103422571D01*
X127756000Y-103479714D01*
X127813142Y-103594000D01*
X127813142Y-103822571D01*
X127756000Y-103936857D01*
X127641714Y-103994000D01*
X127527428Y-103994000D01*
X127413142Y-103422571D01*
X127070285Y-105022571D02*
X127013142Y-104908285D01*
X127013142Y-104679714D01*
X127070285Y-104565428D01*
X127127428Y-104508285D01*
X127241714Y-104451142D01*
X127584571Y-104451142D01*
X127698857Y-104508285D01*
X127756000Y-104565428D01*
X127813142Y-104679714D01*
X127813142Y-104908285D01*
X127756000Y-105022571D01*
X127813142Y-105365428D02*
X127813142Y-105822571D01*
X128213142Y-105536857D02*
X127184571Y-105536857D01*
X127070285Y-105594000D01*
X127013142Y-105708285D01*
X127013142Y-105822571D01*
D11*
X152645000Y-96630000D02*
X152645000Y-91410000D01*
X155965000Y-96630000D02*
X155965000Y-91410000D01*
X152645000Y-96630000D02*
X153309000Y-96630000D01*
X155301000Y-96630000D02*
X155965000Y-96630000D01*
X152645000Y-91410000D02*
X153309000Y-91410000D01*
X155301000Y-91410000D02*
X155965000Y-91410000D01*
X142270000Y-112756000D02*
X142270000Y-113420000D01*
X142270000Y-110100000D02*
X142270000Y-110764000D01*
X137050000Y-112756000D02*
X137050000Y-113420000D01*
X137050000Y-110100000D02*
X137050000Y-110764000D01*
X137050000Y-113420000D02*
X142270000Y-113420000D01*
X137050000Y-110100000D02*
X142270000Y-110100000D01*
X141304000Y-82788000D02*
G75*
G03X141304000Y-82788000I-2620000J0D01*
G01*
X137644000Y-82788000D02*
X136104000Y-82788000D01*
X141264000Y-82788000D02*
X139724000Y-82788000D01*
X137644000Y-82828000D02*
X136104000Y-82828000D01*
X141264000Y-82828000D02*
X139724000Y-82828000D01*
X141263000Y-82868000D02*
X139724000Y-82868000D01*
X137644000Y-82868000D02*
X136105000Y-82868000D01*
X141262000Y-82908000D02*
X139724000Y-82908000D01*
X137644000Y-82908000D02*
X136106000Y-82908000D01*
X141260000Y-82948000D02*
X139724000Y-82948000D01*
X137644000Y-82948000D02*
X136108000Y-82948000D01*
X141257000Y-82988000D02*
X139724000Y-82988000D01*
X137644000Y-82988000D02*
X136111000Y-82988000D01*
X141253000Y-83028000D02*
X139724000Y-83028000D01*
X137644000Y-83028000D02*
X136115000Y-83028000D01*
X141249000Y-83068000D02*
X139724000Y-83068000D01*
X137644000Y-83068000D02*
X136119000Y-83068000D01*
X141245000Y-83108000D02*
X139724000Y-83108000D01*
X137644000Y-83108000D02*
X136123000Y-83108000D01*
X141240000Y-83148000D02*
X139724000Y-83148000D01*
X137644000Y-83148000D02*
X136128000Y-83148000D01*
X141234000Y-83188000D02*
X139724000Y-83188000D01*
X137644000Y-83188000D02*
X136134000Y-83188000D01*
X141227000Y-83228000D02*
X139724000Y-83228000D01*
X137644000Y-83228000D02*
X136141000Y-83228000D01*
X141220000Y-83268000D02*
X139724000Y-83268000D01*
X137644000Y-83268000D02*
X136148000Y-83268000D01*
X141212000Y-83308000D02*
X139724000Y-83308000D01*
X137644000Y-83308000D02*
X136156000Y-83308000D01*
X141204000Y-83348000D02*
X139724000Y-83348000D01*
X137644000Y-83348000D02*
X136164000Y-83348000D01*
X141195000Y-83388000D02*
X139724000Y-83388000D01*
X137644000Y-83388000D02*
X136173000Y-83388000D01*
X141185000Y-83428000D02*
X139724000Y-83428000D01*
X137644000Y-83428000D02*
X136183000Y-83428000D01*
X141175000Y-83468000D02*
X139724000Y-83468000D01*
X137644000Y-83468000D02*
X136193000Y-83468000D01*
X141164000Y-83509000D02*
X139724000Y-83509000D01*
X137644000Y-83509000D02*
X136204000Y-83509000D01*
X141152000Y-83549000D02*
X139724000Y-83549000D01*
X137644000Y-83549000D02*
X136216000Y-83549000D01*
X141139000Y-83589000D02*
X139724000Y-83589000D01*
X137644000Y-83589000D02*
X136229000Y-83589000D01*
X141126000Y-83629000D02*
X139724000Y-83629000D01*
X137644000Y-83629000D02*
X136242000Y-83629000D01*
X141112000Y-83669000D02*
X139724000Y-83669000D01*
X137644000Y-83669000D02*
X136256000Y-83669000D01*
X141098000Y-83709000D02*
X139724000Y-83709000D01*
X137644000Y-83709000D02*
X136270000Y-83709000D01*
X141082000Y-83749000D02*
X139724000Y-83749000D01*
X137644000Y-83749000D02*
X136286000Y-83749000D01*
X141066000Y-83789000D02*
X139724000Y-83789000D01*
X137644000Y-83789000D02*
X136302000Y-83789000D01*
X141049000Y-83829000D02*
X139724000Y-83829000D01*
X137644000Y-83829000D02*
X136319000Y-83829000D01*
X141032000Y-83869000D02*
X139724000Y-83869000D01*
X137644000Y-83869000D02*
X136336000Y-83869000D01*
X141013000Y-83909000D02*
X139724000Y-83909000D01*
X137644000Y-83909000D02*
X136355000Y-83909000D01*
X140994000Y-83949000D02*
X139724000Y-83949000D01*
X137644000Y-83949000D02*
X136374000Y-83949000D01*
X140974000Y-83989000D02*
X139724000Y-83989000D01*
X137644000Y-83989000D02*
X136394000Y-83989000D01*
X140952000Y-84029000D02*
X139724000Y-84029000D01*
X137644000Y-84029000D02*
X136416000Y-84029000D01*
X140931000Y-84069000D02*
X139724000Y-84069000D01*
X137644000Y-84069000D02*
X136437000Y-84069000D01*
X140908000Y-84109000D02*
X139724000Y-84109000D01*
X137644000Y-84109000D02*
X136460000Y-84109000D01*
X140884000Y-84149000D02*
X139724000Y-84149000D01*
X137644000Y-84149000D02*
X136484000Y-84149000D01*
X140859000Y-84189000D02*
X139724000Y-84189000D01*
X137644000Y-84189000D02*
X136509000Y-84189000D01*
X140833000Y-84229000D02*
X139724000Y-84229000D01*
X137644000Y-84229000D02*
X136535000Y-84229000D01*
X140806000Y-84269000D02*
X139724000Y-84269000D01*
X137644000Y-84269000D02*
X136562000Y-84269000D01*
X140779000Y-84309000D02*
X139724000Y-84309000D01*
X137644000Y-84309000D02*
X136589000Y-84309000D01*
X140749000Y-84349000D02*
X139724000Y-84349000D01*
X137644000Y-84349000D02*
X136619000Y-84349000D01*
X140719000Y-84389000D02*
X139724000Y-84389000D01*
X137644000Y-84389000D02*
X136649000Y-84389000D01*
X140688000Y-84429000D02*
X139724000Y-84429000D01*
X137644000Y-84429000D02*
X136680000Y-84429000D01*
X140655000Y-84469000D02*
X139724000Y-84469000D01*
X137644000Y-84469000D02*
X136713000Y-84469000D01*
X140621000Y-84509000D02*
X139724000Y-84509000D01*
X137644000Y-84509000D02*
X136747000Y-84509000D01*
X140585000Y-84549000D02*
X139724000Y-84549000D01*
X137644000Y-84549000D02*
X136783000Y-84549000D01*
X140548000Y-84589000D02*
X139724000Y-84589000D01*
X137644000Y-84589000D02*
X136820000Y-84589000D01*
X140510000Y-84629000D02*
X139724000Y-84629000D01*
X137644000Y-84629000D02*
X136858000Y-84629000D01*
X140469000Y-84669000D02*
X139724000Y-84669000D01*
X137644000Y-84669000D02*
X136899000Y-84669000D01*
X140427000Y-84709000D02*
X139724000Y-84709000D01*
X137644000Y-84709000D02*
X136941000Y-84709000D01*
X140383000Y-84749000D02*
X139724000Y-84749000D01*
X137644000Y-84749000D02*
X136985000Y-84749000D01*
X140337000Y-84789000D02*
X139724000Y-84789000D01*
X137644000Y-84789000D02*
X137031000Y-84789000D01*
X140289000Y-84829000D02*
X137079000Y-84829000D01*
X140238000Y-84869000D02*
X137130000Y-84869000D01*
X140184000Y-84909000D02*
X137184000Y-84909000D01*
X140127000Y-84949000D02*
X137241000Y-84949000D01*
X140067000Y-84989000D02*
X137301000Y-84989000D01*
X140003000Y-85029000D02*
X137365000Y-85029000D01*
X139935000Y-85069000D02*
X137433000Y-85069000D01*
X139862000Y-85109000D02*
X137506000Y-85109000D01*
X139782000Y-85149000D02*
X137586000Y-85149000D01*
X139695000Y-85189000D02*
X137673000Y-85189000D01*
X139599000Y-85229000D02*
X137769000Y-85229000D01*
X139489000Y-85269000D02*
X137879000Y-85269000D01*
X139361000Y-85309000D02*
X138007000Y-85309000D01*
X139202000Y-85349000D02*
X138166000Y-85349000D01*
X138968000Y-85389000D02*
X138400000Y-85389000D01*
X140159000Y-79983225D02*
X140159000Y-80483225D01*
X140409000Y-80233225D02*
X139909000Y-80233225D01*
X155141000Y-79725225D02*
X154641000Y-79725225D01*
X154891000Y-79475225D02*
X154891000Y-79975225D01*
X153700000Y-84881000D02*
X153132000Y-84881000D01*
X153934000Y-84841000D02*
X152898000Y-84841000D01*
X154093000Y-84801000D02*
X152739000Y-84801000D01*
X154221000Y-84761000D02*
X152611000Y-84761000D01*
X154331000Y-84721000D02*
X152501000Y-84721000D01*
X154427000Y-84681000D02*
X152405000Y-84681000D01*
X154514000Y-84641000D02*
X152318000Y-84641000D01*
X154594000Y-84601000D02*
X152238000Y-84601000D01*
X154667000Y-84561000D02*
X152165000Y-84561000D01*
X154735000Y-84521000D02*
X152097000Y-84521000D01*
X154799000Y-84481000D02*
X152033000Y-84481000D01*
X154859000Y-84441000D02*
X151973000Y-84441000D01*
X154916000Y-84401000D02*
X151916000Y-84401000D01*
X154970000Y-84361000D02*
X151862000Y-84361000D01*
X155021000Y-84321000D02*
X151811000Y-84321000D01*
X152376000Y-84281000D02*
X151763000Y-84281000D01*
X155069000Y-84281000D02*
X154456000Y-84281000D01*
X152376000Y-84241000D02*
X151717000Y-84241000D01*
X155115000Y-84241000D02*
X154456000Y-84241000D01*
X152376000Y-84201000D02*
X151673000Y-84201000D01*
X155159000Y-84201000D02*
X154456000Y-84201000D01*
X152376000Y-84161000D02*
X151631000Y-84161000D01*
X155201000Y-84161000D02*
X154456000Y-84161000D01*
X152376000Y-84121000D02*
X151590000Y-84121000D01*
X155242000Y-84121000D02*
X154456000Y-84121000D01*
X152376000Y-84081000D02*
X151552000Y-84081000D01*
X155280000Y-84081000D02*
X154456000Y-84081000D01*
X152376000Y-84041000D02*
X151515000Y-84041000D01*
X155317000Y-84041000D02*
X154456000Y-84041000D01*
X152376000Y-84001000D02*
X151479000Y-84001000D01*
X155353000Y-84001000D02*
X154456000Y-84001000D01*
X152376000Y-83961000D02*
X151445000Y-83961000D01*
X155387000Y-83961000D02*
X154456000Y-83961000D01*
X152376000Y-83921000D02*
X151412000Y-83921000D01*
X155420000Y-83921000D02*
X154456000Y-83921000D01*
X152376000Y-83881000D02*
X151381000Y-83881000D01*
X155451000Y-83881000D02*
X154456000Y-83881000D01*
X152376000Y-83841000D02*
X151351000Y-83841000D01*
X155481000Y-83841000D02*
X154456000Y-83841000D01*
X152376000Y-83801000D02*
X151321000Y-83801000D01*
X155511000Y-83801000D02*
X154456000Y-83801000D01*
X152376000Y-83761000D02*
X151294000Y-83761000D01*
X155538000Y-83761000D02*
X154456000Y-83761000D01*
X152376000Y-83721000D02*
X151267000Y-83721000D01*
X155565000Y-83721000D02*
X154456000Y-83721000D01*
X152376000Y-83681000D02*
X151241000Y-83681000D01*
X155591000Y-83681000D02*
X154456000Y-83681000D01*
X152376000Y-83641000D02*
X151216000Y-83641000D01*
X155616000Y-83641000D02*
X154456000Y-83641000D01*
X152376000Y-83601000D02*
X151192000Y-83601000D01*
X155640000Y-83601000D02*
X154456000Y-83601000D01*
X152376000Y-83561000D02*
X151169000Y-83561000D01*
X155663000Y-83561000D02*
X154456000Y-83561000D01*
X152376000Y-83521000D02*
X151148000Y-83521000D01*
X155684000Y-83521000D02*
X154456000Y-83521000D01*
X152376000Y-83481000D02*
X151126000Y-83481000D01*
X155706000Y-83481000D02*
X154456000Y-83481000D01*
X152376000Y-83441000D02*
X151106000Y-83441000D01*
X155726000Y-83441000D02*
X154456000Y-83441000D01*
X152376000Y-83401000D02*
X151087000Y-83401000D01*
X155745000Y-83401000D02*
X154456000Y-83401000D01*
X152376000Y-83361000D02*
X151068000Y-83361000D01*
X155764000Y-83361000D02*
X154456000Y-83361000D01*
X152376000Y-83321000D02*
X151051000Y-83321000D01*
X155781000Y-83321000D02*
X154456000Y-83321000D01*
X152376000Y-83281000D02*
X151034000Y-83281000D01*
X155798000Y-83281000D02*
X154456000Y-83281000D01*
X152376000Y-83241000D02*
X151018000Y-83241000D01*
X155814000Y-83241000D02*
X154456000Y-83241000D01*
X152376000Y-83201000D02*
X151002000Y-83201000D01*
X155830000Y-83201000D02*
X154456000Y-83201000D01*
X152376000Y-83161000D02*
X150988000Y-83161000D01*
X155844000Y-83161000D02*
X154456000Y-83161000D01*
X152376000Y-83121000D02*
X150974000Y-83121000D01*
X155858000Y-83121000D02*
X154456000Y-83121000D01*
X152376000Y-83081000D02*
X150961000Y-83081000D01*
X155871000Y-83081000D02*
X154456000Y-83081000D01*
X152376000Y-83041000D02*
X150948000Y-83041000D01*
X155884000Y-83041000D02*
X154456000Y-83041000D01*
X152376000Y-83001000D02*
X150936000Y-83001000D01*
X155896000Y-83001000D02*
X154456000Y-83001000D01*
X152376000Y-82960000D02*
X150925000Y-82960000D01*
X155907000Y-82960000D02*
X154456000Y-82960000D01*
X152376000Y-82920000D02*
X150915000Y-82920000D01*
X155917000Y-82920000D02*
X154456000Y-82920000D01*
X152376000Y-82880000D02*
X150905000Y-82880000D01*
X155927000Y-82880000D02*
X154456000Y-82880000D01*
X152376000Y-82840000D02*
X150896000Y-82840000D01*
X155936000Y-82840000D02*
X154456000Y-82840000D01*
X152376000Y-82800000D02*
X150888000Y-82800000D01*
X155944000Y-82800000D02*
X154456000Y-82800000D01*
X152376000Y-82760000D02*
X150880000Y-82760000D01*
X155952000Y-82760000D02*
X154456000Y-82760000D01*
X152376000Y-82720000D02*
X150873000Y-82720000D01*
X155959000Y-82720000D02*
X154456000Y-82720000D01*
X152376000Y-82680000D02*
X150866000Y-82680000D01*
X155966000Y-82680000D02*
X154456000Y-82680000D01*
X152376000Y-82640000D02*
X150860000Y-82640000D01*
X155972000Y-82640000D02*
X154456000Y-82640000D01*
X152376000Y-82600000D02*
X150855000Y-82600000D01*
X155977000Y-82600000D02*
X154456000Y-82600000D01*
X152376000Y-82560000D02*
X150851000Y-82560000D01*
X155981000Y-82560000D02*
X154456000Y-82560000D01*
X152376000Y-82520000D02*
X150847000Y-82520000D01*
X155985000Y-82520000D02*
X154456000Y-82520000D01*
X152376000Y-82480000D02*
X150843000Y-82480000D01*
X155989000Y-82480000D02*
X154456000Y-82480000D01*
X152376000Y-82440000D02*
X150840000Y-82440000D01*
X155992000Y-82440000D02*
X154456000Y-82440000D01*
X152376000Y-82400000D02*
X150838000Y-82400000D01*
X155994000Y-82400000D02*
X154456000Y-82400000D01*
X152376000Y-82360000D02*
X150837000Y-82360000D01*
X155995000Y-82360000D02*
X154456000Y-82360000D01*
X155996000Y-82320000D02*
X154456000Y-82320000D01*
X152376000Y-82320000D02*
X150836000Y-82320000D01*
X155996000Y-82280000D02*
X154456000Y-82280000D01*
X152376000Y-82280000D02*
X150836000Y-82280000D01*
X156036000Y-82280000D02*
G75*
G03X156036000Y-82280000I-2620000J0D01*
G01*
X149870000Y-81788000D02*
G75*
G03X149870000Y-81788000I-3590000J0D01*
G01*
X146740000Y-87735000D02*
X146740000Y-91335000D01*
X146751522Y-87696522D02*
G75*
G02X151190000Y-89535000I1838478J-1838478D01*
G01*
X146751522Y-91373478D02*
G75*
G03X151190000Y-89535000I1838478J1838478D01*
G01*
X147005522Y-121218478D02*
G75*
G03X151444000Y-119380000I1838478J1838478D01*
G01*
X147005522Y-117541522D02*
G75*
G02X151444000Y-119380000I1838478J-1838478D01*
G01*
X146994000Y-117580000D02*
X146994000Y-121180000D01*
X152074000Y-117580000D02*
X152074000Y-121180000D01*
X152085522Y-117541522D02*
G75*
G02X156524000Y-119380000I1838478J-1838478D01*
G01*
X152085522Y-121218478D02*
G75*
G03X156524000Y-119380000I1838478J1838478D01*
G01*
X144240000Y-122020000D02*
X144240000Y-121690000D01*
X137700000Y-122020000D02*
X144240000Y-122020000D01*
X137700000Y-121690000D02*
X137700000Y-122020000D01*
X144240000Y-119280000D02*
X144240000Y-119610000D01*
X137700000Y-119280000D02*
X144240000Y-119280000D01*
X137700000Y-119610000D02*
X137700000Y-119280000D01*
X137700000Y-97512000D02*
X137700000Y-97182000D01*
X137700000Y-97182000D02*
X144240000Y-97182000D01*
X144240000Y-97182000D02*
X144240000Y-97512000D01*
X137700000Y-99592000D02*
X137700000Y-99922000D01*
X137700000Y-99922000D02*
X144240000Y-99922000D01*
X144240000Y-99922000D02*
X144240000Y-99592000D01*
X137700000Y-115800000D02*
X137700000Y-115470000D01*
X137700000Y-115470000D02*
X144240000Y-115470000D01*
X144240000Y-115470000D02*
X144240000Y-115800000D01*
X137700000Y-117880000D02*
X137700000Y-118210000D01*
X137700000Y-118210000D02*
X144240000Y-118210000D01*
X144240000Y-118210000D02*
X144240000Y-117880000D01*
X149960000Y-97060000D02*
X149630000Y-97060000D01*
X149960000Y-103600000D02*
X149960000Y-97060000D01*
X149630000Y-103600000D02*
X149960000Y-103600000D01*
X147220000Y-97060000D02*
X147550000Y-97060000D01*
X147220000Y-103600000D02*
X147220000Y-97060000D01*
X147550000Y-103600000D02*
X147220000Y-103600000D01*
X137700000Y-106275000D02*
X137700000Y-105945000D01*
X137700000Y-105945000D02*
X144240000Y-105945000D01*
X144240000Y-105945000D02*
X144240000Y-106275000D01*
X137700000Y-108355000D02*
X137700000Y-108685000D01*
X137700000Y-108685000D02*
X144240000Y-108685000D01*
X144240000Y-108685000D02*
X144240000Y-108355000D01*
X147220000Y-113760000D02*
X147550000Y-113760000D01*
X147220000Y-107220000D02*
X147220000Y-113760000D01*
X147550000Y-107220000D02*
X147220000Y-107220000D01*
X149960000Y-113760000D02*
X149630000Y-113760000D01*
X149960000Y-107220000D02*
X149960000Y-113760000D01*
X149630000Y-107220000D02*
X149960000Y-107220000D01*
X137700000Y-93448000D02*
X137700000Y-93118000D01*
X137700000Y-93118000D02*
X144240000Y-93118000D01*
X144240000Y-93118000D02*
X144240000Y-93448000D01*
X137700000Y-95528000D02*
X137700000Y-95858000D01*
X137700000Y-95858000D02*
X144240000Y-95858000D01*
X144240000Y-95858000D02*
X144240000Y-95528000D01*
D12*
X151752142Y-94186666D02*
X151799761Y-94234285D01*
X151847380Y-94377142D01*
X151847380Y-94472380D01*
X151799761Y-94615238D01*
X151704523Y-94710476D01*
X151609285Y-94758095D01*
X151418809Y-94805714D01*
X151275952Y-94805714D01*
X151085476Y-94758095D01*
X150990238Y-94710476D01*
X150895000Y-94615238D01*
X150847380Y-94472380D01*
X150847380Y-94377142D01*
X150895000Y-94234285D01*
X150942619Y-94186666D01*
X151847380Y-93234285D02*
X151847380Y-93805714D01*
X151847380Y-93520000D02*
X150847380Y-93520000D01*
X150990238Y-93615238D01*
X151085476Y-93710476D01*
X151133095Y-93805714D01*
X144613333Y-112117142D02*
X144565714Y-112164761D01*
X144422857Y-112212380D01*
X144327619Y-112212380D01*
X144184761Y-112164761D01*
X144089523Y-112069523D01*
X144041904Y-111974285D01*
X143994285Y-111783809D01*
X143994285Y-111640952D01*
X144041904Y-111450476D01*
X144089523Y-111355238D01*
X144184761Y-111260000D01*
X144327619Y-111212380D01*
X144422857Y-111212380D01*
X144565714Y-111260000D01*
X144613333Y-111307619D01*
X144994285Y-111307619D02*
X145041904Y-111260000D01*
X145137142Y-111212380D01*
X145375238Y-111212380D01*
X145470476Y-111260000D01*
X145518095Y-111307619D01*
X145565714Y-111402857D01*
X145565714Y-111498095D01*
X145518095Y-111640952D01*
X144946666Y-112212380D01*
X145565714Y-112212380D01*
X137517142Y-87161666D02*
X137564761Y-87209285D01*
X137612380Y-87352142D01*
X137612380Y-87447380D01*
X137564761Y-87590238D01*
X137469523Y-87685476D01*
X137374285Y-87733095D01*
X137183809Y-87780714D01*
X137040952Y-87780714D01*
X136850476Y-87733095D01*
X136755238Y-87685476D01*
X136660000Y-87590238D01*
X136612380Y-87447380D01*
X136612380Y-87352142D01*
X136660000Y-87209285D01*
X136707619Y-87161666D01*
X136612380Y-86828333D02*
X136612380Y-86209285D01*
X136993333Y-86542619D01*
X136993333Y-86399761D01*
X137040952Y-86304523D01*
X137088571Y-86256904D01*
X137183809Y-86209285D01*
X137421904Y-86209285D01*
X137517142Y-86256904D01*
X137564761Y-86304523D01*
X137612380Y-86399761D01*
X137612380Y-86685476D01*
X137564761Y-86780714D01*
X137517142Y-86828333D01*
X139517380Y-87637857D02*
X139517380Y-88209285D01*
X139517380Y-87923571D02*
X138517380Y-87923571D01*
X138660238Y-88018809D01*
X138755476Y-88114047D01*
X138803095Y-88209285D01*
X138517380Y-87018809D02*
X138517380Y-86923571D01*
X138565000Y-86828333D01*
X138612619Y-86780714D01*
X138707857Y-86733095D01*
X138898333Y-86685476D01*
X139136428Y-86685476D01*
X139326904Y-86733095D01*
X139422142Y-86780714D01*
X139469761Y-86828333D01*
X139517380Y-86923571D01*
X139517380Y-87018809D01*
X139469761Y-87114047D01*
X139422142Y-87161666D01*
X139326904Y-87209285D01*
X139136428Y-87256904D01*
X138898333Y-87256904D01*
X138707857Y-87209285D01*
X138612619Y-87161666D01*
X138565000Y-87114047D01*
X138517380Y-87018809D01*
X138850714Y-85828333D02*
X139517380Y-85828333D01*
X138850714Y-86256904D02*
X139374523Y-86256904D01*
X139469761Y-86209285D01*
X139517380Y-86114047D01*
X139517380Y-85971190D01*
X139469761Y-85875952D01*
X139422142Y-85828333D01*
X153011142Y-86526666D02*
X153058761Y-86574285D01*
X153106380Y-86717142D01*
X153106380Y-86812380D01*
X153058761Y-86955238D01*
X152963523Y-87050476D01*
X152868285Y-87098095D01*
X152677809Y-87145714D01*
X152534952Y-87145714D01*
X152344476Y-87098095D01*
X152249238Y-87050476D01*
X152154000Y-86955238D01*
X152106380Y-86812380D01*
X152106380Y-86717142D01*
X152154000Y-86574285D01*
X152201619Y-86526666D01*
X152439714Y-85669523D02*
X153106380Y-85669523D01*
X152058761Y-85907619D02*
X152773047Y-86145714D01*
X152773047Y-85526666D01*
X154630380Y-88241047D02*
X154630380Y-88812476D01*
X154630380Y-88526761D02*
X153630380Y-88526761D01*
X153773238Y-88622000D01*
X153868476Y-88717238D01*
X153916095Y-88812476D01*
X153630380Y-87622000D02*
X153630380Y-87526761D01*
X153678000Y-87431523D01*
X153725619Y-87383904D01*
X153820857Y-87336285D01*
X154011333Y-87288666D01*
X154249428Y-87288666D01*
X154439904Y-87336285D01*
X154535142Y-87383904D01*
X154582761Y-87431523D01*
X154630380Y-87526761D01*
X154630380Y-87622000D01*
X154582761Y-87717238D01*
X154535142Y-87764857D01*
X154439904Y-87812476D01*
X154249428Y-87860095D01*
X154011333Y-87860095D01*
X153820857Y-87812476D01*
X153725619Y-87764857D01*
X153678000Y-87717238D01*
X153630380Y-87622000D01*
X153630380Y-86669619D02*
X153630380Y-86574380D01*
X153678000Y-86479142D01*
X153725619Y-86431523D01*
X153820857Y-86383904D01*
X154011333Y-86336285D01*
X154249428Y-86336285D01*
X154439904Y-86383904D01*
X154535142Y-86431523D01*
X154582761Y-86479142D01*
X154630380Y-86574380D01*
X154630380Y-86669619D01*
X154582761Y-86764857D01*
X154535142Y-86812476D01*
X154439904Y-86860095D01*
X154249428Y-86907714D01*
X154011333Y-86907714D01*
X153820857Y-86860095D01*
X153725619Y-86812476D01*
X153678000Y-86764857D01*
X153630380Y-86669619D01*
X153963714Y-85479142D02*
X154630380Y-85479142D01*
X153963714Y-85907714D02*
X154487523Y-85907714D01*
X154582761Y-85860095D01*
X154630380Y-85764857D01*
X154630380Y-85622000D01*
X154582761Y-85526761D01*
X154535142Y-85479142D01*
X142708333Y-86812380D02*
X142232142Y-86812380D01*
X142232142Y-85812380D01*
X143565476Y-86812380D02*
X142994047Y-86812380D01*
X143279761Y-86812380D02*
X143279761Y-85812380D01*
X143184523Y-85955238D01*
X143089285Y-86050476D01*
X142994047Y-86098095D01*
X141136904Y-87082380D02*
X140946428Y-87082380D01*
X140851190Y-87130000D01*
X140803571Y-87177619D01*
X140708333Y-87320476D01*
X140660714Y-87510952D01*
X140660714Y-87891904D01*
X140708333Y-87987142D01*
X140755952Y-88034761D01*
X140851190Y-88082380D01*
X141041666Y-88082380D01*
X141136904Y-88034761D01*
X141184523Y-87987142D01*
X141232142Y-87891904D01*
X141232142Y-87653809D01*
X141184523Y-87558571D01*
X141136904Y-87510952D01*
X141041666Y-87463333D01*
X140851190Y-87463333D01*
X140755952Y-87510952D01*
X140708333Y-87558571D01*
X140660714Y-87653809D01*
X141613095Y-87177619D02*
X141660714Y-87130000D01*
X141755952Y-87082380D01*
X141994047Y-87082380D01*
X142089285Y-87130000D01*
X142136904Y-87177619D01*
X142184523Y-87272857D01*
X142184523Y-87368095D01*
X142136904Y-87510952D01*
X141565476Y-88082380D01*
X142184523Y-88082380D01*
X142803571Y-87082380D02*
X142898809Y-87082380D01*
X142994047Y-87130000D01*
X143041666Y-87177619D01*
X143089285Y-87272857D01*
X143136904Y-87463333D01*
X143136904Y-87701428D01*
X143089285Y-87891904D01*
X143041666Y-87987142D01*
X142994047Y-88034761D01*
X142898809Y-88082380D01*
X142803571Y-88082380D01*
X142708333Y-88034761D01*
X142660714Y-87987142D01*
X142613095Y-87891904D01*
X142565476Y-87701428D01*
X142565476Y-87463333D01*
X142613095Y-87272857D01*
X142660714Y-87177619D01*
X142708333Y-87130000D01*
X142803571Y-87082380D01*
X143994047Y-87415714D02*
X143994047Y-88082380D01*
X143565476Y-87415714D02*
X143565476Y-87939523D01*
X143613095Y-88034761D01*
X143708333Y-88082380D01*
X143851190Y-88082380D01*
X143946428Y-88034761D01*
X143994047Y-87987142D01*
X144470238Y-88082380D02*
X144470238Y-87082380D01*
X144470238Y-87558571D02*
X145041666Y-87558571D01*
X145041666Y-88082380D02*
X145041666Y-87082380D01*
X152697619Y-89630238D02*
X152650000Y-89725476D01*
X152554761Y-89820714D01*
X152411904Y-89963571D01*
X152364285Y-90058809D01*
X152364285Y-90154047D01*
X152602380Y-90106428D02*
X152554761Y-90201666D01*
X152459523Y-90296904D01*
X152269047Y-90344523D01*
X151935714Y-90344523D01*
X151745238Y-90296904D01*
X151650000Y-90201666D01*
X151602380Y-90106428D01*
X151602380Y-89915952D01*
X151650000Y-89820714D01*
X151745238Y-89725476D01*
X151935714Y-89677857D01*
X152269047Y-89677857D01*
X152459523Y-89725476D01*
X152554761Y-89820714D01*
X152602380Y-89915952D01*
X152602380Y-90106428D01*
X152602380Y-88725476D02*
X152602380Y-89296904D01*
X152602380Y-89011190D02*
X151602380Y-89011190D01*
X151745238Y-89106428D01*
X151840476Y-89201666D01*
X151888095Y-89296904D01*
X145728571Y-91892142D02*
X145776190Y-91749285D01*
X145823809Y-91701666D01*
X145919047Y-91654047D01*
X146061904Y-91654047D01*
X146157142Y-91701666D01*
X146204761Y-91749285D01*
X146252380Y-91844523D01*
X146252380Y-92225476D01*
X145252380Y-92225476D01*
X145252380Y-91892142D01*
X145300000Y-91796904D01*
X145347619Y-91749285D01*
X145442857Y-91701666D01*
X145538095Y-91701666D01*
X145633333Y-91749285D01*
X145680952Y-91796904D01*
X145728571Y-91892142D01*
X145728571Y-92225476D01*
X146157142Y-90654047D02*
X146204761Y-90701666D01*
X146252380Y-90844523D01*
X146252380Y-90939761D01*
X146204761Y-91082619D01*
X146109523Y-91177857D01*
X146014285Y-91225476D01*
X145823809Y-91273095D01*
X145680952Y-91273095D01*
X145490476Y-91225476D01*
X145395238Y-91177857D01*
X145300000Y-91082619D01*
X145252380Y-90939761D01*
X145252380Y-90844523D01*
X145300000Y-90701666D01*
X145347619Y-90654047D01*
X145252380Y-89749285D02*
X145252380Y-90225476D01*
X145728571Y-90273095D01*
X145680952Y-90225476D01*
X145633333Y-90130238D01*
X145633333Y-89892142D01*
X145680952Y-89796904D01*
X145728571Y-89749285D01*
X145823809Y-89701666D01*
X146061904Y-89701666D01*
X146157142Y-89749285D01*
X146204761Y-89796904D01*
X146252380Y-89892142D01*
X146252380Y-90130238D01*
X146204761Y-90225476D01*
X146157142Y-90273095D01*
X145585714Y-88844523D02*
X146252380Y-88844523D01*
X145204761Y-89082619D02*
X145919047Y-89320714D01*
X145919047Y-88701666D01*
X145252380Y-88415952D02*
X145252380Y-87749285D01*
X146252380Y-88177857D01*
X145728571Y-87035000D02*
X145776190Y-86892142D01*
X145823809Y-86844523D01*
X145919047Y-86796904D01*
X146061904Y-86796904D01*
X146157142Y-86844523D01*
X146204761Y-86892142D01*
X146252380Y-86987380D01*
X146252380Y-87368333D01*
X145252380Y-87368333D01*
X145252380Y-87035000D01*
X145300000Y-86939761D01*
X145347619Y-86892142D01*
X145442857Y-86844523D01*
X145538095Y-86844523D01*
X145633333Y-86892142D01*
X145680952Y-86939761D01*
X145728571Y-87035000D01*
X145728571Y-87368333D01*
X146462761Y-123991619D02*
X146367523Y-123944000D01*
X146272285Y-123848761D01*
X146129428Y-123705904D01*
X146034190Y-123658285D01*
X145938952Y-123658285D01*
X145986571Y-123896380D02*
X145891333Y-123848761D01*
X145796095Y-123753523D01*
X145748476Y-123563047D01*
X145748476Y-123229714D01*
X145796095Y-123039238D01*
X145891333Y-122944000D01*
X145986571Y-122896380D01*
X146177047Y-122896380D01*
X146272285Y-122944000D01*
X146367523Y-123039238D01*
X146415142Y-123229714D01*
X146415142Y-123563047D01*
X146367523Y-123753523D01*
X146272285Y-123848761D01*
X146177047Y-123896380D01*
X145986571Y-123896380D01*
X146796095Y-122991619D02*
X146843714Y-122944000D01*
X146938952Y-122896380D01*
X147177047Y-122896380D01*
X147272285Y-122944000D01*
X147319904Y-122991619D01*
X147367523Y-123086857D01*
X147367523Y-123182095D01*
X147319904Y-123324952D01*
X146748476Y-123896380D01*
X147367523Y-123896380D01*
X148518857Y-123372571D02*
X148661714Y-123420190D01*
X148709333Y-123467809D01*
X148756952Y-123563047D01*
X148756952Y-123705904D01*
X148709333Y-123801142D01*
X148661714Y-123848761D01*
X148566476Y-123896380D01*
X148185523Y-123896380D01*
X148185523Y-122896380D01*
X148518857Y-122896380D01*
X148614095Y-122944000D01*
X148661714Y-122991619D01*
X148709333Y-123086857D01*
X148709333Y-123182095D01*
X148661714Y-123277333D01*
X148614095Y-123324952D01*
X148518857Y-123372571D01*
X148185523Y-123372571D01*
X149756952Y-123801142D02*
X149709333Y-123848761D01*
X149566476Y-123896380D01*
X149471238Y-123896380D01*
X149328380Y-123848761D01*
X149233142Y-123753523D01*
X149185523Y-123658285D01*
X149137904Y-123467809D01*
X149137904Y-123324952D01*
X149185523Y-123134476D01*
X149233142Y-123039238D01*
X149328380Y-122944000D01*
X149471238Y-122896380D01*
X149566476Y-122896380D01*
X149709333Y-122944000D01*
X149756952Y-122991619D01*
X150661714Y-122896380D02*
X150185523Y-122896380D01*
X150137904Y-123372571D01*
X150185523Y-123324952D01*
X150280761Y-123277333D01*
X150518857Y-123277333D01*
X150614095Y-123324952D01*
X150661714Y-123372571D01*
X150709333Y-123467809D01*
X150709333Y-123705904D01*
X150661714Y-123801142D01*
X150614095Y-123848761D01*
X150518857Y-123896380D01*
X150280761Y-123896380D01*
X150185523Y-123848761D01*
X150137904Y-123801142D01*
X151614095Y-122896380D02*
X151137904Y-122896380D01*
X151090285Y-123372571D01*
X151137904Y-123324952D01*
X151233142Y-123277333D01*
X151471238Y-123277333D01*
X151566476Y-123324952D01*
X151614095Y-123372571D01*
X151661714Y-123467809D01*
X151661714Y-123705904D01*
X151614095Y-123801142D01*
X151566476Y-123848761D01*
X151471238Y-123896380D01*
X151233142Y-123896380D01*
X151137904Y-123848761D01*
X151090285Y-123801142D01*
X152518857Y-122896380D02*
X152328380Y-122896380D01*
X152233142Y-122944000D01*
X152185523Y-122991619D01*
X152090285Y-123134476D01*
X152042666Y-123324952D01*
X152042666Y-123705904D01*
X152090285Y-123801142D01*
X152137904Y-123848761D01*
X152233142Y-123896380D01*
X152423619Y-123896380D01*
X152518857Y-123848761D01*
X152566476Y-123801142D01*
X152614095Y-123705904D01*
X152614095Y-123467809D01*
X152566476Y-123372571D01*
X152518857Y-123324952D01*
X152423619Y-123277333D01*
X152233142Y-123277333D01*
X152137904Y-123324952D01*
X152090285Y-123372571D01*
X152042666Y-123467809D01*
X153376000Y-123372571D02*
X153518857Y-123420190D01*
X153566476Y-123467809D01*
X153614095Y-123563047D01*
X153614095Y-123705904D01*
X153566476Y-123801142D01*
X153518857Y-123848761D01*
X153423619Y-123896380D01*
X153042666Y-123896380D01*
X153042666Y-122896380D01*
X153376000Y-122896380D01*
X153471238Y-122944000D01*
X153518857Y-122991619D01*
X153566476Y-123086857D01*
X153566476Y-123182095D01*
X153518857Y-123277333D01*
X153471238Y-123324952D01*
X153376000Y-123372571D01*
X153042666Y-123372571D01*
X154217619Y-115665238D02*
X154170000Y-115760476D01*
X154074761Y-115855714D01*
X153931904Y-115998571D01*
X153884285Y-116093809D01*
X153884285Y-116189047D01*
X154122380Y-116141428D02*
X154074761Y-116236666D01*
X153979523Y-116331904D01*
X153789047Y-116379523D01*
X153455714Y-116379523D01*
X153265238Y-116331904D01*
X153170000Y-116236666D01*
X153122380Y-116141428D01*
X153122380Y-115950952D01*
X153170000Y-115855714D01*
X153265238Y-115760476D01*
X153455714Y-115712857D01*
X153789047Y-115712857D01*
X153979523Y-115760476D01*
X154074761Y-115855714D01*
X154122380Y-115950952D01*
X154122380Y-116141428D01*
X153122380Y-115379523D02*
X153122380Y-114760476D01*
X153503333Y-115093809D01*
X153503333Y-114950952D01*
X153550952Y-114855714D01*
X153598571Y-114808095D01*
X153693809Y-114760476D01*
X153931904Y-114760476D01*
X154027142Y-114808095D01*
X154074761Y-114855714D01*
X154122380Y-114950952D01*
X154122380Y-115236666D01*
X154074761Y-115331904D01*
X154027142Y-115379523D01*
X154741619Y-116252285D02*
X154694000Y-116204666D01*
X154646380Y-116109428D01*
X154646380Y-115871333D01*
X154694000Y-115776095D01*
X154741619Y-115728476D01*
X154836857Y-115680857D01*
X154932095Y-115680857D01*
X155074952Y-115728476D01*
X155646380Y-116299904D01*
X155646380Y-115680857D01*
X155646380Y-115252285D02*
X154646380Y-115252285D01*
X155646380Y-114680857D01*
X154646380Y-114680857D01*
X154646380Y-114299904D02*
X154646380Y-113680857D01*
X155027333Y-114014190D01*
X155027333Y-113871333D01*
X155074952Y-113776095D01*
X155122571Y-113728476D01*
X155217809Y-113680857D01*
X155455904Y-113680857D01*
X155551142Y-113728476D01*
X155598761Y-113776095D01*
X155646380Y-113871333D01*
X155646380Y-114157047D01*
X155598761Y-114252285D01*
X155551142Y-114299904D01*
X155646380Y-113204666D02*
X155646380Y-113014190D01*
X155598761Y-112918952D01*
X155551142Y-112871333D01*
X155408285Y-112776095D01*
X155217809Y-112728476D01*
X154836857Y-112728476D01*
X154741619Y-112776095D01*
X154694000Y-112823714D01*
X154646380Y-112918952D01*
X154646380Y-113109428D01*
X154694000Y-113204666D01*
X154741619Y-113252285D01*
X154836857Y-113299904D01*
X155074952Y-113299904D01*
X155170190Y-113252285D01*
X155217809Y-113204666D01*
X155265428Y-113109428D01*
X155265428Y-112918952D01*
X155217809Y-112823714D01*
X155170190Y-112776095D01*
X155074952Y-112728476D01*
X154646380Y-112109428D02*
X154646380Y-112014190D01*
X154694000Y-111918952D01*
X154741619Y-111871333D01*
X154836857Y-111823714D01*
X155027333Y-111776095D01*
X155265428Y-111776095D01*
X155455904Y-111823714D01*
X155551142Y-111871333D01*
X155598761Y-111918952D01*
X155646380Y-112014190D01*
X155646380Y-112109428D01*
X155598761Y-112204666D01*
X155551142Y-112252285D01*
X155455904Y-112299904D01*
X155265428Y-112347523D01*
X155027333Y-112347523D01*
X154836857Y-112299904D01*
X154741619Y-112252285D01*
X154694000Y-112204666D01*
X154646380Y-112109428D01*
X154979714Y-110918952D02*
X155646380Y-110918952D01*
X154598761Y-111157047D02*
X155313047Y-111395142D01*
X155313047Y-110776095D01*
X140803333Y-123642380D02*
X140470000Y-123166190D01*
X140231904Y-123642380D02*
X140231904Y-122642380D01*
X140612857Y-122642380D01*
X140708095Y-122690000D01*
X140755714Y-122737619D01*
X140803333Y-122832857D01*
X140803333Y-122975714D01*
X140755714Y-123070952D01*
X140708095Y-123118571D01*
X140612857Y-123166190D01*
X140231904Y-123166190D01*
X141755714Y-123642380D02*
X141184285Y-123642380D01*
X141470000Y-123642380D02*
X141470000Y-122642380D01*
X141374761Y-122785238D01*
X141279523Y-122880476D01*
X141184285Y-122928095D01*
X140803333Y-101417380D02*
X140470000Y-100941190D01*
X140231904Y-101417380D02*
X140231904Y-100417380D01*
X140612857Y-100417380D01*
X140708095Y-100465000D01*
X140755714Y-100512619D01*
X140803333Y-100607857D01*
X140803333Y-100750714D01*
X140755714Y-100845952D01*
X140708095Y-100893571D01*
X140612857Y-100941190D01*
X140231904Y-100941190D01*
X141184285Y-100512619D02*
X141231904Y-100465000D01*
X141327142Y-100417380D01*
X141565238Y-100417380D01*
X141660476Y-100465000D01*
X141708095Y-100512619D01*
X141755714Y-100607857D01*
X141755714Y-100703095D01*
X141708095Y-100845952D01*
X141136666Y-101417380D01*
X141755714Y-101417380D01*
X144613333Y-114752380D02*
X144280000Y-114276190D01*
X144041904Y-114752380D02*
X144041904Y-113752380D01*
X144422857Y-113752380D01*
X144518095Y-113800000D01*
X144565714Y-113847619D01*
X144613333Y-113942857D01*
X144613333Y-114085714D01*
X144565714Y-114180952D01*
X144518095Y-114228571D01*
X144422857Y-114276190D01*
X144041904Y-114276190D01*
X144946666Y-113752380D02*
X145565714Y-113752380D01*
X145232380Y-114133333D01*
X145375238Y-114133333D01*
X145470476Y-114180952D01*
X145518095Y-114228571D01*
X145565714Y-114323809D01*
X145565714Y-114561904D01*
X145518095Y-114657142D01*
X145470476Y-114704761D01*
X145375238Y-114752380D01*
X145089523Y-114752380D01*
X144994285Y-114704761D01*
X144946666Y-114657142D01*
X146672380Y-100496666D02*
X146196190Y-100830000D01*
X146672380Y-101068095D02*
X145672380Y-101068095D01*
X145672380Y-100687142D01*
X145720000Y-100591904D01*
X145767619Y-100544285D01*
X145862857Y-100496666D01*
X146005714Y-100496666D01*
X146100952Y-100544285D01*
X146148571Y-100591904D01*
X146196190Y-100687142D01*
X146196190Y-101068095D01*
X146005714Y-99639523D02*
X146672380Y-99639523D01*
X145624761Y-99877619D02*
X146339047Y-100115714D01*
X146339047Y-99496666D01*
X140803333Y-105397380D02*
X140470000Y-104921190D01*
X140231904Y-105397380D02*
X140231904Y-104397380D01*
X140612857Y-104397380D01*
X140708095Y-104445000D01*
X140755714Y-104492619D01*
X140803333Y-104587857D01*
X140803333Y-104730714D01*
X140755714Y-104825952D01*
X140708095Y-104873571D01*
X140612857Y-104921190D01*
X140231904Y-104921190D01*
X141708095Y-104397380D02*
X141231904Y-104397380D01*
X141184285Y-104873571D01*
X141231904Y-104825952D01*
X141327142Y-104778333D01*
X141565238Y-104778333D01*
X141660476Y-104825952D01*
X141708095Y-104873571D01*
X141755714Y-104968809D01*
X141755714Y-105206904D01*
X141708095Y-105302142D01*
X141660476Y-105349761D01*
X141565238Y-105397380D01*
X141327142Y-105397380D01*
X141231904Y-105349761D01*
X141184285Y-105302142D01*
X151412380Y-110656666D02*
X150936190Y-110990000D01*
X151412380Y-111228095D02*
X150412380Y-111228095D01*
X150412380Y-110847142D01*
X150460000Y-110751904D01*
X150507619Y-110704285D01*
X150602857Y-110656666D01*
X150745714Y-110656666D01*
X150840952Y-110704285D01*
X150888571Y-110751904D01*
X150936190Y-110847142D01*
X150936190Y-111228095D01*
X150412380Y-109799523D02*
X150412380Y-109990000D01*
X150460000Y-110085238D01*
X150507619Y-110132857D01*
X150650476Y-110228095D01*
X150840952Y-110275714D01*
X151221904Y-110275714D01*
X151317142Y-110228095D01*
X151364761Y-110180476D01*
X151412380Y-110085238D01*
X151412380Y-109894761D01*
X151364761Y-109799523D01*
X151317142Y-109751904D01*
X151221904Y-109704285D01*
X150983809Y-109704285D01*
X150888571Y-109751904D01*
X150840952Y-109799523D01*
X150793333Y-109894761D01*
X150793333Y-110085238D01*
X150840952Y-110180476D01*
X150888571Y-110228095D01*
X150983809Y-110275714D01*
X140803333Y-92570380D02*
X140470000Y-92094190D01*
X140231904Y-92570380D02*
X140231904Y-91570380D01*
X140612857Y-91570380D01*
X140708095Y-91618000D01*
X140755714Y-91665619D01*
X140803333Y-91760857D01*
X140803333Y-91903714D01*
X140755714Y-91998952D01*
X140708095Y-92046571D01*
X140612857Y-92094190D01*
X140231904Y-92094190D01*
X141136666Y-91570380D02*
X141803333Y-91570380D01*
X141374761Y-92570380D01*
M02*
