G04 #@! TF.GenerationSoftware,KiCad,Pcbnew,(5.0.1)-3*
G04 #@! TF.CreationDate,2019-02-16T16:59:46-05:00*
G04 #@! TF.ProjectId,OdysseyDaughterCardFlipFlop,4F647973736579446175676874657243,1.1*
G04 #@! TF.SameCoordinates,Original*
G04 #@! TF.FileFunction,Copper,L2,Bot,Signal*
G04 #@! TF.FilePolarity,Positive*
%FSLAX46Y46*%
G04 Gerber Fmt 4.6, Leading zero omitted, Abs format (unit mm)*
G04 Created by KiCad (PCBNEW (5.0.1)-3) date 2/16/2019 4:59:46 PM*
%MOMM*%
%LPD*%
G01*
G04 APERTURE LIST*
G04 #@! TA.AperFunction,SMDPad,CuDef*
%ADD10R,11.000000X3.250000*%
G04 #@! TD*
G04 #@! TA.AperFunction,ComponentPad*
%ADD11C,1.600000*%
G04 #@! TD*
G04 #@! TA.AperFunction,ComponentPad*
%ADD12O,1.500000X1.050000*%
G04 #@! TD*
G04 #@! TA.AperFunction,ComponentPad*
%ADD13R,1.500000X1.050000*%
G04 #@! TD*
G04 #@! TA.AperFunction,ComponentPad*
%ADD14O,1.600000X1.600000*%
G04 #@! TD*
G04 #@! TA.AperFunction,ComponentPad*
%ADD15R,1.700000X1.700000*%
G04 #@! TD*
G04 #@! TA.AperFunction,ComponentPad*
%ADD16O,1.700000X1.700000*%
G04 #@! TD*
G04 #@! TA.AperFunction,Conductor*
%ADD17C,0.250000*%
G04 #@! TD*
G04 APERTURE END LIST*
D10*
G04 #@! TO.P,X1,10*
G04 #@! TO.N,/Card10*
X129000000Y-81250000D03*
G04 #@! TO.P,X1,9*
G04 #@! TO.N,N/C*
X129000000Y-85638888D03*
G04 #@! TO.P,X1,8*
G04 #@! TO.N,/Card8*
X129000000Y-90027776D03*
G04 #@! TO.P,X1,7*
G04 #@! TO.N,/Card7*
X129000000Y-94416664D03*
G04 #@! TO.P,X1,6*
G04 #@! TO.N,/Card6*
X129000000Y-98805552D03*
G04 #@! TO.P,X1,5*
G04 #@! TO.N,/Card5*
X129000000Y-103194440D03*
G04 #@! TO.P,X1,4*
G04 #@! TO.N,GND*
X129000000Y-107583328D03*
G04 #@! TO.P,X1,3*
G04 #@! TO.N,/Card3*
X129000000Y-111972216D03*
G04 #@! TO.P,X1,2*
G04 #@! TO.N,/Card2*
X129000000Y-116361104D03*
G04 #@! TO.P,X1,1*
G04 #@! TO.N,/Card1*
X129000000Y-120749992D03*
G04 #@! TD*
D11*
G04 #@! TO.P,C1,2*
G04 #@! TO.N,/Card7*
X142160000Y-88900000D03*
G04 #@! TO.P,C1,1*
G04 #@! TO.N,Net-(C1-Pad1)*
X137160000Y-88900000D03*
G04 #@! TD*
G04 #@! TO.P,C2,2*
G04 #@! TO.N,Net-(C2-Pad2)*
X147908000Y-80772000D03*
G04 #@! TO.P,C2,1*
G04 #@! TO.N,/Card8*
X152908000Y-80772000D03*
G04 #@! TD*
G04 #@! TO.P,C3,1*
G04 #@! TO.N,/Card5*
X142240000Y-107696000D03*
G04 #@! TO.P,C3,2*
G04 #@! TO.N,/Card1*
X137240000Y-107696000D03*
G04 #@! TD*
G04 #@! TO.P,C4,1*
G04 #@! TO.N,/Card2*
X137160000Y-112776000D03*
G04 #@! TO.P,C4,2*
G04 #@! TO.N,/Card3*
X142160000Y-112776000D03*
G04 #@! TD*
D12*
G04 #@! TO.P,Q1,2*
G04 #@! TO.N,Net-(C2-Pad2)*
X150368000Y-87122000D03*
G04 #@! TO.P,Q1,3*
G04 #@! TO.N,/Card7*
X150368000Y-88392000D03*
D13*
G04 #@! TO.P,Q1,1*
G04 #@! TO.N,/Card10*
X150368000Y-85852000D03*
G04 #@! TD*
G04 #@! TO.P,Q2,1*
G04 #@! TO.N,/Card10*
X150368000Y-94488000D03*
D12*
G04 #@! TO.P,Q2,3*
G04 #@! TO.N,/Card8*
X150368000Y-97028000D03*
G04 #@! TO.P,Q2,2*
G04 #@! TO.N,Net-(C1-Pad1)*
X150368000Y-95758000D03*
G04 #@! TD*
G04 #@! TO.P,Q3,2*
G04 #@! TO.N,/Card3*
X150876000Y-108458000D03*
G04 #@! TO.P,Q3,3*
G04 #@! TO.N,GND*
X150876000Y-109728000D03*
D13*
G04 #@! TO.P,Q3,1*
G04 #@! TO.N,/Card1*
X150876000Y-107188000D03*
G04 #@! TD*
G04 #@! TO.P,Q4,1*
G04 #@! TO.N,/Card2*
X150876000Y-115824000D03*
D12*
G04 #@! TO.P,Q4,3*
G04 #@! TO.N,GND*
X150876000Y-118364000D03*
G04 #@! TO.P,Q4,2*
G04 #@! TO.N,/Card5*
X150876000Y-117094000D03*
G04 #@! TD*
D11*
G04 #@! TO.P,R1,1*
G04 #@! TO.N,Net-(C1-Pad1)*
X137160000Y-84836000D03*
D14*
G04 #@! TO.P,R1,2*
G04 #@! TO.N,/Card7*
X144780000Y-84836000D03*
G04 #@! TD*
G04 #@! TO.P,R2,2*
G04 #@! TO.N,Net-(C2-Pad2)*
X144780000Y-80772000D03*
D11*
G04 #@! TO.P,R2,1*
G04 #@! TO.N,/Card8*
X137160000Y-80772000D03*
G04 #@! TD*
D14*
G04 #@! TO.P,R3,2*
G04 #@! TO.N,/Card7*
X137160000Y-94488000D03*
D11*
G04 #@! TO.P,R3,1*
G04 #@! TO.N,/Card1*
X144780000Y-94488000D03*
G04 #@! TD*
D14*
G04 #@! TO.P,R4,2*
G04 #@! TO.N,/Card3*
X144780000Y-121412000D03*
D11*
G04 #@! TO.P,R4,1*
G04 #@! TO.N,/Card2*
X137160000Y-121412000D03*
G04 #@! TD*
G04 #@! TO.P,R5,1*
G04 #@! TO.N,/Card1*
X137160000Y-103124000D03*
D14*
G04 #@! TO.P,R5,2*
G04 #@! TO.N,/Card5*
X144780000Y-103124000D03*
G04 #@! TD*
D11*
G04 #@! TO.P,R6,1*
G04 #@! TO.N,/Card6*
X137160000Y-98552000D03*
D14*
G04 #@! TO.P,R6,2*
G04 #@! TO.N,/Card8*
X144780000Y-98552000D03*
G04 #@! TD*
D11*
G04 #@! TO.P,R7,1*
G04 #@! TO.N,/Card6*
X144780000Y-116840000D03*
D14*
G04 #@! TO.P,R7,2*
G04 #@! TO.N,/Card2*
X137160000Y-116840000D03*
G04 #@! TD*
D15*
G04 #@! TO.P,J1,1*
G04 #@! TO.N,/Card5*
X157988000Y-80518000D03*
D16*
G04 #@! TO.P,J1,2*
G04 #@! TO.N,/Card3*
X157988000Y-83058000D03*
G04 #@! TD*
D17*
G04 #@! TO.N,/Card7*
X142160000Y-88581300D02*
X142160000Y-88900000D01*
X144780000Y-85961300D02*
X142160000Y-88581300D01*
X144780000Y-84836000D02*
X144780000Y-85961300D01*
X147210700Y-88392000D02*
X144780000Y-85961300D01*
X150368000Y-88392000D02*
X147210700Y-88392000D01*
X134896600Y-94488000D02*
X134825300Y-94416700D01*
X137160000Y-94488000D02*
X134896600Y-94488000D01*
X129000000Y-94416700D02*
X134825300Y-94416700D01*
G04 #@! TO.N,Net-(C1-Pad1)*
X140246100Y-91986100D02*
X137160000Y-88900000D01*
X145520800Y-91986100D02*
X140246100Y-91986100D01*
X149292700Y-95758000D02*
X145520800Y-91986100D01*
X150368000Y-95758000D02*
X149292700Y-95758000D01*
G04 #@! TO.N,Net-(C2-Pad2)*
X144780000Y-80772000D02*
X147908000Y-80772000D01*
G04 #@! TO.N,/Card8*
X151761700Y-79625700D02*
X152908000Y-80772000D01*
X138306300Y-79625700D02*
X151761700Y-79625700D01*
X137160000Y-80772000D02*
X138306300Y-79625700D01*
X129000000Y-90027800D02*
X134825300Y-90027800D01*
X144780000Y-98552000D02*
X145905300Y-98552000D01*
X137263800Y-92466300D02*
X134825300Y-90027800D01*
X144426500Y-92466300D02*
X137263800Y-92466300D01*
X148005800Y-96045600D02*
X144426500Y-92466300D01*
X148005800Y-96451500D02*
X148005800Y-96045600D01*
X148582300Y-97028000D02*
X148005800Y-96451500D01*
X150368000Y-97028000D02*
X148582300Y-97028000D01*
X148005800Y-96451500D02*
X145905300Y-98552000D01*
G04 #@! TO.N,/Card5*
X144780000Y-103124000D02*
X144780000Y-104249300D01*
X149800700Y-115256700D02*
X142240000Y-107696000D01*
X149800700Y-117094000D02*
X149800700Y-115256700D01*
X150876000Y-117094000D02*
X149800700Y-117094000D01*
X129000000Y-103194400D02*
X134825300Y-103194400D01*
X142240000Y-105519300D02*
X142240000Y-107696000D01*
X143510000Y-105519300D02*
X142240000Y-105519300D01*
X144780000Y-104249300D02*
X143510000Y-105519300D01*
X137150200Y-105519300D02*
X134825300Y-103194400D01*
X142240000Y-105519300D02*
X137150200Y-105519300D01*
G04 #@! TO.N,/Card1*
X150876000Y-107188000D02*
X150876000Y-106337700D01*
X142842600Y-96425400D02*
X142842600Y-98304300D01*
X144780000Y-94488000D02*
X142842600Y-96425400D01*
X141979700Y-98304300D02*
X142842600Y-98304300D01*
X137160000Y-103124000D02*
X141979700Y-98304300D01*
X142842600Y-98304300D02*
X150876000Y-106337700D01*
X135794700Y-120750000D02*
X129000000Y-120750000D01*
X143293300Y-113251400D02*
X135794700Y-120750000D01*
X143293300Y-112292800D02*
X143293300Y-113251400D01*
X138696500Y-107696000D02*
X143293300Y-112292800D01*
X137240000Y-107696000D02*
X138696500Y-107696000D01*
G04 #@! TO.N,/Card2*
X135304200Y-116840000D02*
X134825300Y-116361100D01*
X137160000Y-116840000D02*
X135304200Y-116840000D01*
X129000000Y-116361100D02*
X134825300Y-116361100D01*
G04 #@! TO.N,/Card3*
X135196000Y-111601500D02*
X134825300Y-111972200D01*
X140985500Y-111601500D02*
X135196000Y-111601500D01*
X142160000Y-112776000D02*
X140985500Y-111601500D01*
X129000000Y-111972200D02*
X134825300Y-111972200D01*
G04 #@! TO.N,/Card10*
X136379300Y-82804000D02*
X134825300Y-81250000D01*
X148170300Y-82804000D02*
X136379300Y-82804000D01*
X150368000Y-85001700D02*
X148170300Y-82804000D01*
X150368000Y-85852000D02*
X150368000Y-85001700D01*
X129000000Y-81250000D02*
X134825300Y-81250000D01*
G04 #@! TO.N,GND*
X149800700Y-118090800D02*
X149800700Y-118364000D01*
X138280500Y-106570600D02*
X149800700Y-118090800D01*
X135838000Y-106570600D02*
X138280500Y-106570600D01*
X134825300Y-107583300D02*
X135838000Y-106570600D01*
X129000000Y-107583300D02*
X134825300Y-107583300D01*
X150876000Y-118364000D02*
X149800700Y-118364000D01*
G04 #@! TO.N,/Card6*
X135078800Y-98552000D02*
X134825300Y-98805500D01*
X137160000Y-98552000D02*
X135078800Y-98552000D01*
X129000000Y-98805500D02*
X134825300Y-98805500D01*
G04 #@! TD*
M02*
