G04 #@! TF.GenerationSoftware,KiCad,Pcbnew,(2017-12-21 revision 23d71cfa9)-makepkg*
G04 #@! TF.CreationDate,2018-06-03T16:50:17-04:00*
G04 #@! TF.ProjectId,OdysseyDaughterCardGateMatrix,4F647973736579446175676874657243,0.1*
G04 #@! TF.SameCoordinates,Original*
G04 #@! TF.FileFunction,Copper,L2,Bot,Signal*
G04 #@! TF.FilePolarity,Positive*
%FSLAX46Y46*%
G04 Gerber Fmt 4.6, Leading zero omitted, Abs format (unit mm)*
G04 Created by KiCad (PCBNEW (2017-12-21 revision 23d71cfa9)-makepkg) date 06/03/18 16:50:17*
%MOMM*%
%LPD*%
G01*
G04 APERTURE LIST*
%ADD10R,11.000000X3.250000*%
%ADD11R,2.200000X2.200000*%
%ADD12O,2.200000X2.200000*%
%ADD13R,1.600000X1.600000*%
%ADD14O,1.600000X1.600000*%
%ADD15C,1.600000*%
%ADD16C,0.250000*%
G04 APERTURE END LIST*
D10*
X129000000Y-81250000D03*
X129000000Y-85638888D03*
X129000000Y-90027776D03*
X129000000Y-94416664D03*
X129000000Y-98805552D03*
X129000000Y-103194440D03*
X129000000Y-107583328D03*
X129000000Y-111972216D03*
X129000000Y-116361104D03*
X129000000Y-120749992D03*
D11*
X147320000Y-113030000D03*
D12*
X139700000Y-113030000D03*
X151130000Y-87630000D03*
D11*
X151130000Y-80010000D03*
D13*
X152400000Y-121920000D03*
D14*
X152400000Y-114300000D03*
X154940000Y-87630000D03*
D13*
X154940000Y-80010000D03*
D11*
X140970000Y-107950000D03*
D12*
X148590000Y-107950000D03*
D11*
X152400000Y-99060000D03*
D12*
X152400000Y-91440000D03*
X152400000Y-110490000D03*
D11*
X152400000Y-102870000D03*
D13*
X139700000Y-90170000D03*
D14*
X147320000Y-90170000D03*
D12*
X148590000Y-102870000D03*
D11*
X140970000Y-102870000D03*
D14*
X139700000Y-121920000D03*
D15*
X147320000Y-121920000D03*
X147320000Y-85090000D03*
D14*
X139700000Y-85090000D03*
X139700000Y-118110000D03*
D15*
X147320000Y-118110000D03*
D14*
X139700000Y-80010000D03*
D15*
X147320000Y-80010000D03*
X139700000Y-97790000D03*
D14*
X147320000Y-97790000D03*
D15*
X147320000Y-93980000D03*
D14*
X139700000Y-93980000D03*
X137160000Y-109220000D03*
D15*
X137160000Y-101600000D03*
D16*
X145415000Y-120015000D02*
X145415000Y-114935000D01*
X147320000Y-121920000D02*
X145415000Y-120015000D01*
X145415000Y-114935000D02*
X147320000Y-113030000D01*
X152400000Y-110490000D02*
X152400000Y-112045634D01*
X152400000Y-112045634D02*
X152400000Y-114300000D01*
X137160000Y-111125000D02*
X139065000Y-113030000D01*
X137160000Y-109220000D02*
X137160000Y-111125000D01*
X139065000Y-113030000D02*
X139700000Y-113030000D01*
X142240000Y-110490000D02*
X150844366Y-110490000D01*
X139700000Y-113030000D02*
X142240000Y-110490000D01*
X150844366Y-110490000D02*
X152400000Y-110490000D01*
X129000000Y-111972216D02*
X132875000Y-111972216D01*
X132875000Y-111972216D02*
X135627216Y-109220000D01*
X135627216Y-109220000D02*
X136028630Y-109220000D01*
X136028630Y-109220000D02*
X137160000Y-109220000D01*
X139700000Y-93980000D02*
X129436664Y-93980000D01*
X129436664Y-93980000D02*
X129000000Y-94416664D01*
X152400000Y-91440000D02*
X142240000Y-91440000D01*
X142240000Y-91440000D02*
X139700000Y-93980000D01*
X154940000Y-87630000D02*
X154940000Y-88900000D01*
X154940000Y-88900000D02*
X152400000Y-91440000D01*
X154940000Y-87630000D02*
X151130000Y-87630000D01*
X151130000Y-80010000D02*
X151130000Y-81360000D01*
X151130000Y-81360000D02*
X147400000Y-85090000D01*
X147400000Y-85090000D02*
X147320000Y-85090000D01*
X147320000Y-118110000D02*
X148590000Y-118110000D01*
X148590000Y-118110000D02*
X152400000Y-121920000D01*
X153514999Y-78584999D02*
X154940000Y-80010000D01*
X147320000Y-80010000D02*
X148745001Y-78584999D01*
X148745001Y-78584999D02*
X153514999Y-78584999D01*
X142320000Y-107950000D02*
X144225000Y-109855000D01*
X140970000Y-107950000D02*
X142320000Y-107950000D01*
X144225000Y-109855000D02*
X149225000Y-109855000D01*
X149225000Y-109855000D02*
X152400000Y-106680000D01*
X152400000Y-106680000D02*
X152400000Y-104220000D01*
X152400000Y-104220000D02*
X152400000Y-102870000D01*
X140970000Y-107950000D02*
X129366672Y-107950000D01*
X129366672Y-107950000D02*
X129000000Y-107583328D01*
X156845000Y-90805000D02*
X153670000Y-93980000D01*
X156845000Y-86995000D02*
X156845000Y-90805000D01*
X154940000Y-85090000D02*
X156845000Y-86995000D01*
X149860000Y-85090000D02*
X154940000Y-85090000D01*
X147320000Y-90170000D02*
X147320000Y-87630000D01*
X147320000Y-87630000D02*
X149860000Y-85090000D01*
X153670000Y-93980000D02*
X151130000Y-93980000D01*
X151130000Y-93980000D02*
X147320000Y-97790000D01*
X148590000Y-102870000D02*
X148590000Y-107950000D01*
X147320000Y-97790000D02*
X148590000Y-99060000D01*
X148590000Y-99060000D02*
X148590000Y-102870000D01*
X129000000Y-90027776D02*
X139557776Y-90027776D01*
X139557776Y-90027776D02*
X139700000Y-90170000D01*
X129000000Y-103194440D02*
X140645560Y-103194440D01*
X140645560Y-103194440D02*
X140970000Y-102870000D01*
X129000000Y-120749992D02*
X138529992Y-120749992D01*
X138529992Y-120749992D02*
X139700000Y-121920000D01*
X129000000Y-85638888D02*
X139151112Y-85638888D01*
X139151112Y-85638888D02*
X139700000Y-85090000D01*
X129000000Y-116361104D02*
X137951104Y-116361104D01*
X137951104Y-116361104D02*
X139700000Y-118110000D01*
X129000000Y-81250000D02*
X138460000Y-81250000D01*
X138460000Y-81250000D02*
X139700000Y-80010000D01*
X139700000Y-97790000D02*
X143510000Y-93980000D01*
X143510000Y-93980000D02*
X147320000Y-93980000D01*
X137160000Y-101600000D02*
X137160000Y-100330000D01*
X137160000Y-100330000D02*
X139700000Y-97790000D01*
X129000000Y-98805552D02*
X132875000Y-98805552D01*
X132875000Y-98805552D02*
X135669448Y-101600000D01*
X135669448Y-101600000D02*
X136028630Y-101600000D01*
X136028630Y-101600000D02*
X137160000Y-101600000D01*
M02*
