M48
;DRILL file {KiCad (2017-12-21 revision 23d71cfa9)-makepkg} date 08/18/18 14:34:21
;FORMAT={-:-/ absolute / inch / decimal}
FMAT,2
INCH,TZ
T1C0.0315
T2C0.0591
%
G90
G05
M72
T1
X5.38Y-3.72
X5.68Y-3.72
X5.38Y-4.5867
X5.68Y-4.5867
X5.9Y-4.44
X5.9Y-4.74
X6.1012Y-3.31
X6.4012Y-3.31
X5.38Y-3.3733
X5.68Y-3.3733
X6.1Y-4.78
X6.4199Y-4.78
X5.38Y-3.8933
X5.68Y-3.8933
X6.1Y-3.46
X6.4Y-3.46
X5.38Y-3.2
X5.68Y-3.2
X5.38Y-3.5467
X5.68Y-3.5467
X6.1Y-4.46
X6.4Y-4.46
X6.1Y-3.16
X6.4Y-3.16
X6.1012Y-4.62
X6.4012Y-4.62
X5.38Y-4.0667
X5.68Y-4.0667
X5.8Y-3.9
X6.1Y-3.9
X5.38Y-4.4133
X5.68Y-4.4133
X5.8Y-4.06
X6.1Y-4.06
X5.8902Y-3.2
X5.8902Y-3.5
X5.38Y-4.76
X5.68Y-4.76
X5.8Y-4.24
X6.1Y-4.24
X5.38Y-4.24
X5.68Y-4.24
T2
X6.575Y-3.18
X6.575Y-4.75
X6.575Y-4.525
X6.575Y-3.42
T0
M30
