M48
;DRILL file {KiCad (5.0.1)-3} date 11/23/2018 7:57:54 PM
;FORMAT={-:-/ absolute / inch / decimal}
FMAT,2
INCH,TZ
T1C0.0315
T2C0.0394
%
G90
G05
M72
T1
X5.38Y-4.0667
X5.68Y-4.0667
X5.8902Y-3.2
X5.8902Y-3.5
X5.38Y-3.8933
X5.68Y-3.8933
X5.38Y-4.76
X5.68Y-4.76
X5.8Y-4.06
X6.1Y-4.06
X5.38Y-4.4133
X5.68Y-4.4133
X5.38Y-4.24
X5.68Y-4.24
X5.9Y-4.44
X5.9Y-4.74
X5.38Y-3.3733
X5.68Y-3.3733
X5.8Y-4.24
X6.1Y-4.24
X5.38Y-4.5867
X5.68Y-4.5867
X5.38Y-3.72
X5.68Y-3.72
X5.8Y-3.9
X6.1Y-3.9
X5.38Y-3.2
X5.68Y-3.2
X5.38Y-3.5467
X5.68Y-3.5467
T2
X6.09Y-3.23
X6.09Y-3.33
T0
M30
