G04 #@! TF.GenerationSoftware,KiCad,Pcbnew,(5.0.1)-3*
G04 #@! TF.CreationDate,2019-02-16T15:36:24-05:00*
G04 #@! TF.ProjectId,OdysseyDaughterCardSpotGenerator,4F647973736579446175676874657243,1.2*
G04 #@! TF.SameCoordinates,Original*
G04 #@! TF.FileFunction,Legend,Top*
G04 #@! TF.FilePolarity,Positive*
%FSLAX46Y46*%
G04 Gerber Fmt 4.6, Leading zero omitted, Abs format (unit mm)*
G04 Created by KiCad (PCBNEW (5.0.1)-3) date 2/16/2019 3:36:24 PM*
%MOMM*%
%LPD*%
G01*
G04 APERTURE LIST*
%ADD10C,0.100000*%
%ADD11C,0.200000*%
%ADD12C,0.120000*%
%ADD13C,0.150000*%
G04 APERTURE END LIST*
D10*
X154779214Y-87074500D02*
X154029214Y-87324500D01*
X154779214Y-87574500D01*
X154029214Y-87824500D02*
X154779214Y-87824500D01*
X154779214Y-88003071D01*
X154743500Y-88110214D01*
X154672071Y-88181642D01*
X154600642Y-88217357D01*
X154457785Y-88253071D01*
X154350642Y-88253071D01*
X154207785Y-88217357D01*
X154136357Y-88181642D01*
X154064928Y-88110214D01*
X154029214Y-88003071D01*
X154029214Y-87824500D01*
X154029214Y-88574500D02*
X154779214Y-88574500D01*
X154779214Y-88753071D01*
X154743500Y-88860214D01*
X154672071Y-88931642D01*
X154600642Y-88967357D01*
X154457785Y-89003071D01*
X154350642Y-89003071D01*
X154207785Y-88967357D01*
X154136357Y-88931642D01*
X154064928Y-88860214D01*
X154029214Y-88753071D01*
X154029214Y-88574500D01*
X154743500Y-85090071D02*
X154779214Y-85018642D01*
X154779214Y-84911500D01*
X154743500Y-84804357D01*
X154672071Y-84732928D01*
X154600642Y-84697214D01*
X154457785Y-84661500D01*
X154350642Y-84661500D01*
X154207785Y-84697214D01*
X154136357Y-84732928D01*
X154064928Y-84804357D01*
X154029214Y-84911500D01*
X154029214Y-84982928D01*
X154064928Y-85090071D01*
X154100642Y-85125785D01*
X154350642Y-85125785D01*
X154350642Y-84982928D01*
X154029214Y-85447214D02*
X154779214Y-85447214D01*
X154029214Y-85875785D01*
X154779214Y-85875785D01*
X154029214Y-86232928D02*
X154779214Y-86232928D01*
X154779214Y-86411500D01*
X154743500Y-86518642D01*
X154672071Y-86590071D01*
X154600642Y-86625785D01*
X154457785Y-86661500D01*
X154350642Y-86661500D01*
X154207785Y-86625785D01*
X154136357Y-86590071D01*
X154064928Y-86518642D01*
X154029214Y-86411500D01*
X154029214Y-86232928D01*
X154092714Y-81276214D02*
X154842714Y-81276214D01*
X154485571Y-81276214D02*
X154485571Y-81704785D01*
X154092714Y-81704785D02*
X154842714Y-81704785D01*
X154128428Y-82026214D02*
X154092714Y-82097642D01*
X154092714Y-82240500D01*
X154128428Y-82311928D01*
X154199857Y-82347642D01*
X154235571Y-82347642D01*
X154307000Y-82311928D01*
X154342714Y-82240500D01*
X154342714Y-82133357D01*
X154378428Y-82061928D01*
X154449857Y-82026214D01*
X154485571Y-82026214D01*
X154557000Y-82061928D01*
X154592714Y-82133357D01*
X154592714Y-82240500D01*
X154557000Y-82311928D01*
X154592714Y-82597642D02*
X154092714Y-82776214D01*
X154592714Y-82954785D02*
X154092714Y-82776214D01*
X153914142Y-82704785D01*
X153878428Y-82669071D01*
X153842714Y-82597642D01*
X154592714Y-83240500D02*
X154092714Y-83240500D01*
X154521285Y-83240500D02*
X154557000Y-83276214D01*
X154592714Y-83347642D01*
X154592714Y-83454785D01*
X154557000Y-83526214D01*
X154485571Y-83561928D01*
X154092714Y-83561928D01*
X154128428Y-84240500D02*
X154092714Y-84169071D01*
X154092714Y-84026214D01*
X154128428Y-83954785D01*
X154164142Y-83919071D01*
X154235571Y-83883357D01*
X154449857Y-83883357D01*
X154521285Y-83919071D01*
X154557000Y-83954785D01*
X154592714Y-84026214D01*
X154592714Y-84169071D01*
X154557000Y-84240500D01*
X154906214Y-77938500D02*
X154156214Y-78188500D01*
X154906214Y-78438500D01*
X154191928Y-78652785D02*
X154156214Y-78724214D01*
X154156214Y-78867071D01*
X154191928Y-78938500D01*
X154263357Y-78974214D01*
X154299071Y-78974214D01*
X154370500Y-78938500D01*
X154406214Y-78867071D01*
X154406214Y-78759928D01*
X154441928Y-78688500D01*
X154513357Y-78652785D01*
X154549071Y-78652785D01*
X154620500Y-78688500D01*
X154656214Y-78759928D01*
X154656214Y-78867071D01*
X154620500Y-78938500D01*
X154656214Y-79224214D02*
X154156214Y-79402785D01*
X154656214Y-79581357D02*
X154156214Y-79402785D01*
X153977642Y-79331357D01*
X153941928Y-79295642D01*
X153906214Y-79224214D01*
X154656214Y-79867071D02*
X154156214Y-79867071D01*
X154584785Y-79867071D02*
X154620500Y-79902785D01*
X154656214Y-79974214D01*
X154656214Y-80081357D01*
X154620500Y-80152785D01*
X154549071Y-80188500D01*
X154156214Y-80188500D01*
X154191928Y-80867071D02*
X154156214Y-80795642D01*
X154156214Y-80652785D01*
X154191928Y-80581357D01*
X154227642Y-80545642D01*
X154299071Y-80509928D01*
X154513357Y-80509928D01*
X154584785Y-80545642D01*
X154620500Y-80581357D01*
X154656214Y-80652785D01*
X154656214Y-80795642D01*
X154620500Y-80867071D01*
X158613071Y-80137428D02*
X158613071Y-80387428D01*
X158220214Y-80494571D02*
X158220214Y-80137428D01*
X158970214Y-80137428D01*
X158970214Y-80494571D01*
X158220214Y-80744571D02*
X158720214Y-81137428D01*
X158720214Y-80744571D02*
X158220214Y-81137428D01*
X158720214Y-81316000D02*
X158720214Y-81601714D01*
X158970214Y-81423142D02*
X158327357Y-81423142D01*
X158255928Y-81458857D01*
X158220214Y-81530285D01*
X158220214Y-81601714D01*
X158220214Y-81851714D02*
X158720214Y-81851714D01*
X158577357Y-81851714D02*
X158648785Y-81887428D01*
X158684500Y-81923142D01*
X158720214Y-81994571D01*
X158720214Y-82066000D01*
X158220214Y-82637428D02*
X158613071Y-82637428D01*
X158684500Y-82601714D01*
X158720214Y-82530285D01*
X158720214Y-82387428D01*
X158684500Y-82316000D01*
X158255928Y-82637428D02*
X158220214Y-82566000D01*
X158220214Y-82387428D01*
X158255928Y-82316000D01*
X158327357Y-82280285D01*
X158398785Y-82280285D01*
X158470214Y-82316000D01*
X158505928Y-82387428D01*
X158505928Y-82566000D01*
X158541642Y-82637428D01*
X158220214Y-83566000D02*
X158970214Y-83566000D01*
X158970214Y-83851714D01*
X158934500Y-83923142D01*
X158898785Y-83958857D01*
X158827357Y-83994571D01*
X158720214Y-83994571D01*
X158648785Y-83958857D01*
X158613071Y-83923142D01*
X158577357Y-83851714D01*
X158577357Y-83566000D01*
X158220214Y-84423142D02*
X158255928Y-84351714D01*
X158327357Y-84316000D01*
X158970214Y-84316000D01*
X158934500Y-85673142D02*
X158970214Y-85601714D01*
X158970214Y-85494571D01*
X158934500Y-85387428D01*
X158863071Y-85316000D01*
X158791642Y-85280285D01*
X158648785Y-85244571D01*
X158541642Y-85244571D01*
X158398785Y-85280285D01*
X158327357Y-85316000D01*
X158255928Y-85387428D01*
X158220214Y-85494571D01*
X158220214Y-85566000D01*
X158255928Y-85673142D01*
X158291642Y-85708857D01*
X158541642Y-85708857D01*
X158541642Y-85566000D01*
X158255928Y-86316000D02*
X158220214Y-86244571D01*
X158220214Y-86101714D01*
X158255928Y-86030285D01*
X158327357Y-85994571D01*
X158613071Y-85994571D01*
X158684500Y-86030285D01*
X158720214Y-86101714D01*
X158720214Y-86244571D01*
X158684500Y-86316000D01*
X158613071Y-86351714D01*
X158541642Y-86351714D01*
X158470214Y-85994571D01*
X158720214Y-86673142D02*
X158220214Y-86673142D01*
X158648785Y-86673142D02*
X158684500Y-86708857D01*
X158720214Y-86780285D01*
X158720214Y-86887428D01*
X158684500Y-86958857D01*
X158613071Y-86994571D01*
X158220214Y-86994571D01*
X154842714Y-120908000D02*
X154092714Y-121158000D01*
X154842714Y-121408000D01*
X154092714Y-118149714D02*
X154842714Y-118149714D01*
X154485571Y-118149714D02*
X154485571Y-118578285D01*
X154092714Y-118578285D02*
X154842714Y-118578285D01*
X154807000Y-115252571D02*
X154842714Y-115181142D01*
X154842714Y-115074000D01*
X154807000Y-114966857D01*
X154735571Y-114895428D01*
X154664142Y-114859714D01*
X154521285Y-114824000D01*
X154414142Y-114824000D01*
X154271285Y-114859714D01*
X154199857Y-114895428D01*
X154128428Y-114966857D01*
X154092714Y-115074000D01*
X154092714Y-115145428D01*
X154128428Y-115252571D01*
X154164142Y-115288285D01*
X154414142Y-115288285D01*
X154414142Y-115145428D01*
X154092714Y-115609714D02*
X154842714Y-115609714D01*
X154092714Y-116038285D01*
X154842714Y-116038285D01*
X154092714Y-116395428D02*
X154842714Y-116395428D01*
X154842714Y-116574000D01*
X154807000Y-116681142D01*
X154735571Y-116752571D01*
X154664142Y-116788285D01*
X154521285Y-116824000D01*
X154414142Y-116824000D01*
X154271285Y-116788285D01*
X154199857Y-116752571D01*
X154128428Y-116681142D01*
X154092714Y-116574000D01*
X154092714Y-116395428D01*
X158410714Y-116078285D02*
X159160714Y-116078285D01*
X159160714Y-116364000D01*
X159125000Y-116435428D01*
X159089285Y-116471142D01*
X159017857Y-116506857D01*
X158910714Y-116506857D01*
X158839285Y-116471142D01*
X158803571Y-116435428D01*
X158767857Y-116364000D01*
X158767857Y-116078285D01*
X158410714Y-116935428D02*
X158446428Y-116864000D01*
X158482142Y-116828285D01*
X158553571Y-116792571D01*
X158767857Y-116792571D01*
X158839285Y-116828285D01*
X158875000Y-116864000D01*
X158910714Y-116935428D01*
X158910714Y-117042571D01*
X158875000Y-117114000D01*
X158839285Y-117149714D01*
X158767857Y-117185428D01*
X158553571Y-117185428D01*
X158482142Y-117149714D01*
X158446428Y-117114000D01*
X158410714Y-117042571D01*
X158410714Y-116935428D01*
X158446428Y-117471142D02*
X158410714Y-117542571D01*
X158410714Y-117685428D01*
X158446428Y-117756857D01*
X158517857Y-117792571D01*
X158553571Y-117792571D01*
X158625000Y-117756857D01*
X158660714Y-117685428D01*
X158660714Y-117578285D01*
X158696428Y-117506857D01*
X158767857Y-117471142D01*
X158803571Y-117471142D01*
X158875000Y-117506857D01*
X158910714Y-117578285D01*
X158910714Y-117685428D01*
X158875000Y-117756857D01*
X158410714Y-118685428D02*
X159160714Y-118685428D01*
X159160714Y-118971142D01*
X159125000Y-119042571D01*
X159089285Y-119078285D01*
X159017857Y-119114000D01*
X158910714Y-119114000D01*
X158839285Y-119078285D01*
X158803571Y-119042571D01*
X158767857Y-118971142D01*
X158767857Y-118685428D01*
X158410714Y-119542571D02*
X158446428Y-119471142D01*
X158482142Y-119435428D01*
X158553571Y-119399714D01*
X158767857Y-119399714D01*
X158839285Y-119435428D01*
X158875000Y-119471142D01*
X158910714Y-119542571D01*
X158910714Y-119649714D01*
X158875000Y-119721142D01*
X158839285Y-119756857D01*
X158767857Y-119792571D01*
X158553571Y-119792571D01*
X158482142Y-119756857D01*
X158446428Y-119721142D01*
X158410714Y-119649714D01*
X158410714Y-119542571D01*
X158410714Y-120114000D02*
X158910714Y-120114000D01*
X158767857Y-120114000D02*
X158839285Y-120149714D01*
X158875000Y-120185428D01*
X158910714Y-120256857D01*
X158910714Y-120328285D01*
X158910714Y-120471142D02*
X158910714Y-120756857D01*
X159160714Y-120578285D02*
X158517857Y-120578285D01*
X158446428Y-120614000D01*
X158410714Y-120685428D01*
X158410714Y-120756857D01*
D11*
X130981142Y-80171714D02*
X132181142Y-80171714D01*
X132181142Y-80457428D01*
X132124000Y-80628857D01*
X132009714Y-80743142D01*
X131895428Y-80800285D01*
X131666857Y-80857428D01*
X131495428Y-80857428D01*
X131266857Y-80800285D01*
X131152571Y-80743142D01*
X131038285Y-80628857D01*
X130981142Y-80457428D01*
X130981142Y-80171714D01*
X130981142Y-81886000D02*
X131609714Y-81886000D01*
X131724000Y-81828857D01*
X131781142Y-81714571D01*
X131781142Y-81486000D01*
X131724000Y-81371714D01*
X131038285Y-81886000D02*
X130981142Y-81771714D01*
X130981142Y-81486000D01*
X131038285Y-81371714D01*
X131152571Y-81314571D01*
X131266857Y-81314571D01*
X131381142Y-81371714D01*
X131438285Y-81486000D01*
X131438285Y-81771714D01*
X131495428Y-81886000D01*
X131781142Y-82971714D02*
X130981142Y-82971714D01*
X131781142Y-82457428D02*
X131152571Y-82457428D01*
X131038285Y-82514571D01*
X130981142Y-82628857D01*
X130981142Y-82800285D01*
X131038285Y-82914571D01*
X131095428Y-82971714D01*
X131781142Y-84057428D02*
X130809714Y-84057428D01*
X130695428Y-84000285D01*
X130638285Y-83943142D01*
X130581142Y-83828857D01*
X130581142Y-83657428D01*
X130638285Y-83543142D01*
X131038285Y-84057428D02*
X130981142Y-83943142D01*
X130981142Y-83714571D01*
X131038285Y-83600285D01*
X131095428Y-83543142D01*
X131209714Y-83486000D01*
X131552571Y-83486000D01*
X131666857Y-83543142D01*
X131724000Y-83600285D01*
X131781142Y-83714571D01*
X131781142Y-83943142D01*
X131724000Y-84057428D01*
X130981142Y-84628857D02*
X132181142Y-84628857D01*
X130981142Y-85143142D02*
X131609714Y-85143142D01*
X131724000Y-85086000D01*
X131781142Y-84971714D01*
X131781142Y-84800285D01*
X131724000Y-84686000D01*
X131666857Y-84628857D01*
X131781142Y-85543142D02*
X131781142Y-86000285D01*
X132181142Y-85714571D02*
X131152571Y-85714571D01*
X131038285Y-85771714D01*
X130981142Y-85886000D01*
X130981142Y-86000285D01*
X131038285Y-86857428D02*
X130981142Y-86743142D01*
X130981142Y-86514571D01*
X131038285Y-86400285D01*
X131152571Y-86343142D01*
X131609714Y-86343142D01*
X131724000Y-86400285D01*
X131781142Y-86514571D01*
X131781142Y-86743142D01*
X131724000Y-86857428D01*
X131609714Y-86914571D01*
X131495428Y-86914571D01*
X131381142Y-86343142D01*
X130981142Y-87428857D02*
X131781142Y-87428857D01*
X131552571Y-87428857D02*
X131666857Y-87486000D01*
X131724000Y-87543142D01*
X131781142Y-87657428D01*
X131781142Y-87771714D01*
X131095428Y-89771714D02*
X131038285Y-89714571D01*
X130981142Y-89543142D01*
X130981142Y-89428857D01*
X131038285Y-89257428D01*
X131152571Y-89143142D01*
X131266857Y-89086000D01*
X131495428Y-89028857D01*
X131666857Y-89028857D01*
X131895428Y-89086000D01*
X132009714Y-89143142D01*
X132124000Y-89257428D01*
X132181142Y-89428857D01*
X132181142Y-89543142D01*
X132124000Y-89714571D01*
X132066857Y-89771714D01*
X130981142Y-90800285D02*
X131609714Y-90800285D01*
X131724000Y-90743142D01*
X131781142Y-90628857D01*
X131781142Y-90400285D01*
X131724000Y-90286000D01*
X131038285Y-90800285D02*
X130981142Y-90686000D01*
X130981142Y-90400285D01*
X131038285Y-90286000D01*
X131152571Y-90228857D01*
X131266857Y-90228857D01*
X131381142Y-90286000D01*
X131438285Y-90400285D01*
X131438285Y-90686000D01*
X131495428Y-90800285D01*
X130981142Y-91371714D02*
X131781142Y-91371714D01*
X131552571Y-91371714D02*
X131666857Y-91428857D01*
X131724000Y-91486000D01*
X131781142Y-91600285D01*
X131781142Y-91714571D01*
X130981142Y-92628857D02*
X132181142Y-92628857D01*
X131038285Y-92628857D02*
X130981142Y-92514571D01*
X130981142Y-92286000D01*
X131038285Y-92171714D01*
X131095428Y-92114571D01*
X131209714Y-92057428D01*
X131552571Y-92057428D01*
X131666857Y-92114571D01*
X131724000Y-92171714D01*
X131781142Y-92286000D01*
X131781142Y-92514571D01*
X131724000Y-92628857D01*
X131038285Y-94057428D02*
X130981142Y-94228857D01*
X130981142Y-94514571D01*
X131038285Y-94628857D01*
X131095428Y-94686000D01*
X131209714Y-94743142D01*
X131324000Y-94743142D01*
X131438285Y-94686000D01*
X131495428Y-94628857D01*
X131552571Y-94514571D01*
X131609714Y-94286000D01*
X131666857Y-94171714D01*
X131724000Y-94114571D01*
X131838285Y-94057428D01*
X131952571Y-94057428D01*
X132066857Y-94114571D01*
X132124000Y-94171714D01*
X132181142Y-94286000D01*
X132181142Y-94571714D01*
X132124000Y-94743142D01*
X131781142Y-95257428D02*
X130581142Y-95257428D01*
X131724000Y-95257428D02*
X131781142Y-95371714D01*
X131781142Y-95600285D01*
X131724000Y-95714571D01*
X131666857Y-95771714D01*
X131552571Y-95828857D01*
X131209714Y-95828857D01*
X131095428Y-95771714D01*
X131038285Y-95714571D01*
X130981142Y-95600285D01*
X130981142Y-95371714D01*
X131038285Y-95257428D01*
X130981142Y-96514571D02*
X131038285Y-96400285D01*
X131095428Y-96343142D01*
X131209714Y-96286000D01*
X131552571Y-96286000D01*
X131666857Y-96343142D01*
X131724000Y-96400285D01*
X131781142Y-96514571D01*
X131781142Y-96686000D01*
X131724000Y-96800285D01*
X131666857Y-96857428D01*
X131552571Y-96914571D01*
X131209714Y-96914571D01*
X131095428Y-96857428D01*
X131038285Y-96800285D01*
X130981142Y-96686000D01*
X130981142Y-96514571D01*
X131781142Y-97257428D02*
X131781142Y-97714571D01*
X132181142Y-97428857D02*
X131152571Y-97428857D01*
X131038285Y-97486000D01*
X130981142Y-97600285D01*
X130981142Y-97714571D01*
X132124000Y-99657428D02*
X132181142Y-99543142D01*
X132181142Y-99371714D01*
X132124000Y-99200285D01*
X132009714Y-99086000D01*
X131895428Y-99028857D01*
X131666857Y-98971714D01*
X131495428Y-98971714D01*
X131266857Y-99028857D01*
X131152571Y-99086000D01*
X131038285Y-99200285D01*
X130981142Y-99371714D01*
X130981142Y-99486000D01*
X131038285Y-99657428D01*
X131095428Y-99714571D01*
X131495428Y-99714571D01*
X131495428Y-99486000D01*
X131038285Y-100686000D02*
X130981142Y-100571714D01*
X130981142Y-100343142D01*
X131038285Y-100228857D01*
X131152571Y-100171714D01*
X131609714Y-100171714D01*
X131724000Y-100228857D01*
X131781142Y-100343142D01*
X131781142Y-100571714D01*
X131724000Y-100686000D01*
X131609714Y-100743142D01*
X131495428Y-100743142D01*
X131381142Y-100171714D01*
X131781142Y-101257428D02*
X130981142Y-101257428D01*
X131666857Y-101257428D02*
X131724000Y-101314571D01*
X131781142Y-101428857D01*
X131781142Y-101600285D01*
X131724000Y-101714571D01*
X131609714Y-101771714D01*
X130981142Y-101771714D01*
X131038285Y-102800285D02*
X130981142Y-102686000D01*
X130981142Y-102457428D01*
X131038285Y-102343142D01*
X131152571Y-102286000D01*
X131609714Y-102286000D01*
X131724000Y-102343142D01*
X131781142Y-102457428D01*
X131781142Y-102686000D01*
X131724000Y-102800285D01*
X131609714Y-102857428D01*
X131495428Y-102857428D01*
X131381142Y-102286000D01*
X130981142Y-103371714D02*
X131781142Y-103371714D01*
X131552571Y-103371714D02*
X131666857Y-103428857D01*
X131724000Y-103486000D01*
X131781142Y-103600285D01*
X131781142Y-103714571D01*
X130981142Y-104628857D02*
X131609714Y-104628857D01*
X131724000Y-104571714D01*
X131781142Y-104457428D01*
X131781142Y-104228857D01*
X131724000Y-104114571D01*
X131038285Y-104628857D02*
X130981142Y-104514571D01*
X130981142Y-104228857D01*
X131038285Y-104114571D01*
X131152571Y-104057428D01*
X131266857Y-104057428D01*
X131381142Y-104114571D01*
X131438285Y-104228857D01*
X131438285Y-104514571D01*
X131495428Y-104628857D01*
X131781142Y-105028857D02*
X131781142Y-105486000D01*
X132181142Y-105200285D02*
X131152571Y-105200285D01*
X131038285Y-105257428D01*
X130981142Y-105371714D01*
X130981142Y-105486000D01*
X130981142Y-106057428D02*
X131038285Y-105943142D01*
X131095428Y-105886000D01*
X131209714Y-105828857D01*
X131552571Y-105828857D01*
X131666857Y-105886000D01*
X131724000Y-105943142D01*
X131781142Y-106057428D01*
X131781142Y-106228857D01*
X131724000Y-106343142D01*
X131666857Y-106400285D01*
X131552571Y-106457428D01*
X131209714Y-106457428D01*
X131095428Y-106400285D01*
X131038285Y-106343142D01*
X130981142Y-106228857D01*
X130981142Y-106057428D01*
X130981142Y-106971714D02*
X131781142Y-106971714D01*
X131552571Y-106971714D02*
X131666857Y-107028857D01*
X131724000Y-107086000D01*
X131781142Y-107200285D01*
X131781142Y-107314571D01*
X130066857Y-80114571D02*
X130124000Y-80171714D01*
X130181142Y-80286000D01*
X130181142Y-80571714D01*
X130124000Y-80686000D01*
X130066857Y-80743142D01*
X129952571Y-80800285D01*
X129838285Y-80800285D01*
X129666857Y-80743142D01*
X128981142Y-80057428D01*
X128981142Y-80800285D01*
X129438285Y-81314571D02*
X129438285Y-82228857D01*
X128981142Y-83428857D02*
X128981142Y-82743142D01*
X128981142Y-83086000D02*
X130181142Y-83086000D01*
X130009714Y-82971714D01*
X129895428Y-82857428D01*
X129838285Y-82743142D01*
X130181142Y-84457428D02*
X130181142Y-84228857D01*
X130124000Y-84114571D01*
X130066857Y-84057428D01*
X129895428Y-83943142D01*
X129666857Y-83886000D01*
X129209714Y-83886000D01*
X129095428Y-83943142D01*
X129038285Y-84000285D01*
X128981142Y-84114571D01*
X128981142Y-84343142D01*
X129038285Y-84457428D01*
X129095428Y-84514571D01*
X129209714Y-84571714D01*
X129495428Y-84571714D01*
X129609714Y-84514571D01*
X129666857Y-84457428D01*
X129724000Y-84343142D01*
X129724000Y-84114571D01*
X129666857Y-84000285D01*
X129609714Y-83943142D01*
X129495428Y-83886000D01*
X129438285Y-85086000D02*
X129438285Y-86000285D01*
X130066857Y-86514571D02*
X130124000Y-86571714D01*
X130181142Y-86686000D01*
X130181142Y-86971714D01*
X130124000Y-87086000D01*
X130066857Y-87143142D01*
X129952571Y-87200285D01*
X129838285Y-87200285D01*
X129666857Y-87143142D01*
X128981142Y-86457428D01*
X128981142Y-87200285D01*
X130181142Y-87943142D02*
X130181142Y-88057428D01*
X130124000Y-88171714D01*
X130066857Y-88228857D01*
X129952571Y-88286000D01*
X129724000Y-88343142D01*
X129438285Y-88343142D01*
X129209714Y-88286000D01*
X129095428Y-88228857D01*
X129038285Y-88171714D01*
X128981142Y-88057428D01*
X128981142Y-87943142D01*
X129038285Y-87828857D01*
X129095428Y-87771714D01*
X129209714Y-87714571D01*
X129438285Y-87657428D01*
X129724000Y-87657428D01*
X129952571Y-87714571D01*
X130066857Y-87771714D01*
X130124000Y-87828857D01*
X130181142Y-87943142D01*
X128981142Y-89486000D02*
X128981142Y-88800285D01*
X128981142Y-89143142D02*
X130181142Y-89143142D01*
X130009714Y-89028857D01*
X129895428Y-88914571D01*
X129838285Y-88800285D01*
X128981142Y-90057428D02*
X128981142Y-90286000D01*
X129038285Y-90400285D01*
X129095428Y-90457428D01*
X129266857Y-90571714D01*
X129495428Y-90628857D01*
X129952571Y-90628857D01*
X130066857Y-90571714D01*
X130124000Y-90514571D01*
X130181142Y-90400285D01*
X130181142Y-90171714D01*
X130124000Y-90057428D01*
X130066857Y-90000285D01*
X129952571Y-89943142D01*
X129666857Y-89943142D01*
X129552571Y-90000285D01*
X129495428Y-90057428D01*
X129438285Y-90171714D01*
X129438285Y-90400285D01*
X129495428Y-90514571D01*
X129552571Y-90571714D01*
X129666857Y-90628857D01*
X128981142Y-92057428D02*
X129781142Y-92057428D01*
X129552571Y-92057428D02*
X129666857Y-92114571D01*
X129724000Y-92171714D01*
X129781142Y-92286000D01*
X129781142Y-92400285D01*
X128981142Y-93428857D02*
X128981142Y-92743142D01*
X128981142Y-93086000D02*
X130181142Y-93086000D01*
X130009714Y-92971714D01*
X129895428Y-92857428D01*
X129838285Y-92743142D01*
X129095428Y-93943142D02*
X129038285Y-94000285D01*
X128981142Y-93943142D01*
X129038285Y-93886000D01*
X129095428Y-93943142D01*
X128981142Y-93943142D01*
X130066857Y-94457428D02*
X130124000Y-94514571D01*
X130181142Y-94628857D01*
X130181142Y-94914571D01*
X130124000Y-95028857D01*
X130066857Y-95086000D01*
X129952571Y-95143142D01*
X129838285Y-95143142D01*
X129666857Y-95086000D01*
X128981142Y-94400285D01*
X128981142Y-95143142D01*
X128181142Y-80171714D02*
X127209714Y-80171714D01*
X127095428Y-80228857D01*
X127038285Y-80286000D01*
X126981142Y-80400285D01*
X126981142Y-80628857D01*
X127038285Y-80743142D01*
X127095428Y-80800285D01*
X127209714Y-80857428D01*
X128181142Y-80857428D01*
X127781142Y-81428857D02*
X126981142Y-81428857D01*
X127666857Y-81428857D02*
X127724000Y-81486000D01*
X127781142Y-81600285D01*
X127781142Y-81771714D01*
X127724000Y-81886000D01*
X127609714Y-81943142D01*
X126981142Y-81943142D01*
X126981142Y-82514571D02*
X127781142Y-82514571D01*
X128181142Y-82514571D02*
X128124000Y-82457428D01*
X128066857Y-82514571D01*
X128124000Y-82571714D01*
X128181142Y-82514571D01*
X128066857Y-82514571D01*
X127781142Y-82971714D02*
X126981142Y-83257428D01*
X127781142Y-83543142D01*
X127038285Y-84457428D02*
X126981142Y-84343142D01*
X126981142Y-84114571D01*
X127038285Y-84000285D01*
X127152571Y-83943142D01*
X127609714Y-83943142D01*
X127724000Y-84000285D01*
X127781142Y-84114571D01*
X127781142Y-84343142D01*
X127724000Y-84457428D01*
X127609714Y-84514571D01*
X127495428Y-84514571D01*
X127381142Y-83943142D01*
X126981142Y-85028857D02*
X127781142Y-85028857D01*
X127552571Y-85028857D02*
X127666857Y-85086000D01*
X127724000Y-85143142D01*
X127781142Y-85257428D01*
X127781142Y-85371714D01*
X127038285Y-85714571D02*
X126981142Y-85828857D01*
X126981142Y-86057428D01*
X127038285Y-86171714D01*
X127152571Y-86228857D01*
X127209714Y-86228857D01*
X127324000Y-86171714D01*
X127381142Y-86057428D01*
X127381142Y-85886000D01*
X127438285Y-85771714D01*
X127552571Y-85714571D01*
X127609714Y-85714571D01*
X127724000Y-85771714D01*
X127781142Y-85886000D01*
X127781142Y-86057428D01*
X127724000Y-86171714D01*
X126981142Y-86743142D02*
X127781142Y-86743142D01*
X128181142Y-86743142D02*
X128124000Y-86686000D01*
X128066857Y-86743142D01*
X128124000Y-86800285D01*
X128181142Y-86743142D01*
X128066857Y-86743142D01*
X127781142Y-87143142D02*
X127781142Y-87600285D01*
X128181142Y-87314571D02*
X127152571Y-87314571D01*
X127038285Y-87371714D01*
X126981142Y-87486000D01*
X126981142Y-87600285D01*
X127781142Y-87886000D02*
X126981142Y-88171714D01*
X127781142Y-88457428D02*
X126981142Y-88171714D01*
X126695428Y-88057428D01*
X126638285Y-88000285D01*
X126581142Y-87886000D01*
X126981142Y-90000285D02*
X127038285Y-89886000D01*
X127095428Y-89828857D01*
X127209714Y-89771714D01*
X127552571Y-89771714D01*
X127666857Y-89828857D01*
X127724000Y-89886000D01*
X127781142Y-90000285D01*
X127781142Y-90171714D01*
X127724000Y-90286000D01*
X127666857Y-90343142D01*
X127552571Y-90400285D01*
X127209714Y-90400285D01*
X127095428Y-90343142D01*
X127038285Y-90286000D01*
X126981142Y-90171714D01*
X126981142Y-90000285D01*
X127781142Y-90743142D02*
X127781142Y-91200285D01*
X126981142Y-90914571D02*
X128009714Y-90914571D01*
X128124000Y-90971714D01*
X128181142Y-91086000D01*
X128181142Y-91200285D01*
X126981142Y-92514571D02*
X128181142Y-92514571D01*
X128181142Y-92971714D01*
X128124000Y-93086000D01*
X128066857Y-93143142D01*
X127952571Y-93200285D01*
X127781142Y-93200285D01*
X127666857Y-93143142D01*
X127609714Y-93086000D01*
X127552571Y-92971714D01*
X127552571Y-92514571D01*
X126981142Y-93714571D02*
X127781142Y-93714571D01*
X128181142Y-93714571D02*
X128124000Y-93657428D01*
X128066857Y-93714571D01*
X128124000Y-93771714D01*
X128181142Y-93714571D01*
X128066857Y-93714571D01*
X127781142Y-94114571D02*
X127781142Y-94571714D01*
X128181142Y-94286000D02*
X127152571Y-94286000D01*
X127038285Y-94343142D01*
X126981142Y-94457428D01*
X126981142Y-94571714D01*
X127781142Y-94800285D02*
X127781142Y-95257428D01*
X128181142Y-94971714D02*
X127152571Y-94971714D01*
X127038285Y-95028857D01*
X126981142Y-95143142D01*
X126981142Y-95257428D01*
X127038285Y-95600285D02*
X126981142Y-95714571D01*
X126981142Y-95943142D01*
X127038285Y-96057428D01*
X127152571Y-96114571D01*
X127209714Y-96114571D01*
X127324000Y-96057428D01*
X127381142Y-95943142D01*
X127381142Y-95771714D01*
X127438285Y-95657428D01*
X127552571Y-95600285D01*
X127609714Y-95600285D01*
X127724000Y-95657428D01*
X127781142Y-95771714D01*
X127781142Y-95943142D01*
X127724000Y-96057428D01*
X126981142Y-96628857D02*
X128181142Y-96628857D01*
X127724000Y-96628857D02*
X127781142Y-96743142D01*
X127781142Y-96971714D01*
X127724000Y-97086000D01*
X127666857Y-97143142D01*
X127552571Y-97200285D01*
X127209714Y-97200285D01*
X127095428Y-97143142D01*
X127038285Y-97086000D01*
X126981142Y-96971714D01*
X126981142Y-96743142D01*
X127038285Y-96628857D01*
X127781142Y-98228857D02*
X126981142Y-98228857D01*
X127781142Y-97714571D02*
X127152571Y-97714571D01*
X127038285Y-97771714D01*
X126981142Y-97886000D01*
X126981142Y-98057428D01*
X127038285Y-98171714D01*
X127095428Y-98228857D01*
X126981142Y-98800285D02*
X127781142Y-98800285D01*
X127552571Y-98800285D02*
X127666857Y-98857428D01*
X127724000Y-98914571D01*
X127781142Y-99028857D01*
X127781142Y-99143142D01*
X127781142Y-100057428D02*
X126809714Y-100057428D01*
X126695428Y-100000285D01*
X126638285Y-99943142D01*
X126581142Y-99828857D01*
X126581142Y-99657428D01*
X126638285Y-99543142D01*
X127038285Y-100057428D02*
X126981142Y-99943142D01*
X126981142Y-99714571D01*
X127038285Y-99600285D01*
X127095428Y-99543142D01*
X127209714Y-99486000D01*
X127552571Y-99486000D01*
X127666857Y-99543142D01*
X127724000Y-99600285D01*
X127781142Y-99714571D01*
X127781142Y-99943142D01*
X127724000Y-100057428D01*
X126981142Y-100628857D02*
X128181142Y-100628857D01*
X126981142Y-101143142D02*
X127609714Y-101143142D01*
X127724000Y-101086000D01*
X127781142Y-100971714D01*
X127781142Y-100800285D01*
X127724000Y-100686000D01*
X127666857Y-100628857D01*
X126181142Y-80400285D02*
X126181142Y-80628857D01*
X126124000Y-80743142D01*
X126009714Y-80857428D01*
X125781142Y-80914571D01*
X125381142Y-80914571D01*
X125152571Y-80857428D01*
X125038285Y-80743142D01*
X124981142Y-80628857D01*
X124981142Y-80400285D01*
X125038285Y-80286000D01*
X125152571Y-80171714D01*
X125381142Y-80114571D01*
X125781142Y-80114571D01*
X126009714Y-80171714D01*
X126124000Y-80286000D01*
X126181142Y-80400285D01*
X124981142Y-81943142D02*
X126181142Y-81943142D01*
X125038285Y-81943142D02*
X124981142Y-81828857D01*
X124981142Y-81600285D01*
X125038285Y-81486000D01*
X125095428Y-81428857D01*
X125209714Y-81371714D01*
X125552571Y-81371714D01*
X125666857Y-81428857D01*
X125724000Y-81486000D01*
X125781142Y-81600285D01*
X125781142Y-81828857D01*
X125724000Y-81943142D01*
X125781142Y-82400285D02*
X124981142Y-82686000D01*
X125781142Y-82971714D02*
X124981142Y-82686000D01*
X124695428Y-82571714D01*
X124638285Y-82514571D01*
X124581142Y-82400285D01*
X125038285Y-83371714D02*
X124981142Y-83486000D01*
X124981142Y-83714571D01*
X125038285Y-83828857D01*
X125152571Y-83886000D01*
X125209714Y-83886000D01*
X125324000Y-83828857D01*
X125381142Y-83714571D01*
X125381142Y-83543142D01*
X125438285Y-83428857D01*
X125552571Y-83371714D01*
X125609714Y-83371714D01*
X125724000Y-83428857D01*
X125781142Y-83543142D01*
X125781142Y-83714571D01*
X125724000Y-83828857D01*
X125038285Y-84343142D02*
X124981142Y-84457428D01*
X124981142Y-84686000D01*
X125038285Y-84800285D01*
X125152571Y-84857428D01*
X125209714Y-84857428D01*
X125324000Y-84800285D01*
X125381142Y-84686000D01*
X125381142Y-84514571D01*
X125438285Y-84400285D01*
X125552571Y-84343142D01*
X125609714Y-84343142D01*
X125724000Y-84400285D01*
X125781142Y-84514571D01*
X125781142Y-84686000D01*
X125724000Y-84800285D01*
X125038285Y-85828857D02*
X124981142Y-85714571D01*
X124981142Y-85486000D01*
X125038285Y-85371714D01*
X125152571Y-85314571D01*
X125609714Y-85314571D01*
X125724000Y-85371714D01*
X125781142Y-85486000D01*
X125781142Y-85714571D01*
X125724000Y-85828857D01*
X125609714Y-85886000D01*
X125495428Y-85886000D01*
X125381142Y-85314571D01*
X125781142Y-86286000D02*
X124981142Y-86571714D01*
X125781142Y-86857428D02*
X124981142Y-86571714D01*
X124695428Y-86457428D01*
X124638285Y-86400285D01*
X124581142Y-86286000D01*
X124981142Y-88914571D02*
X125552571Y-88514571D01*
X124981142Y-88228857D02*
X126181142Y-88228857D01*
X126181142Y-88686000D01*
X126124000Y-88800285D01*
X126066857Y-88857428D01*
X125952571Y-88914571D01*
X125781142Y-88914571D01*
X125666857Y-88857428D01*
X125609714Y-88800285D01*
X125552571Y-88686000D01*
X125552571Y-88228857D01*
X125038285Y-89886000D02*
X124981142Y-89771714D01*
X124981142Y-89543142D01*
X125038285Y-89428857D01*
X125152571Y-89371714D01*
X125609714Y-89371714D01*
X125724000Y-89428857D01*
X125781142Y-89543142D01*
X125781142Y-89771714D01*
X125724000Y-89886000D01*
X125609714Y-89943142D01*
X125495428Y-89943142D01*
X125381142Y-89371714D01*
X125038285Y-90400285D02*
X124981142Y-90514571D01*
X124981142Y-90743142D01*
X125038285Y-90857428D01*
X125152571Y-90914571D01*
X125209714Y-90914571D01*
X125324000Y-90857428D01*
X125381142Y-90743142D01*
X125381142Y-90571714D01*
X125438285Y-90457428D01*
X125552571Y-90400285D01*
X125609714Y-90400285D01*
X125724000Y-90457428D01*
X125781142Y-90571714D01*
X125781142Y-90743142D01*
X125724000Y-90857428D01*
X125781142Y-91257428D02*
X125781142Y-91714571D01*
X126181142Y-91428857D02*
X125152571Y-91428857D01*
X125038285Y-91486000D01*
X124981142Y-91600285D01*
X124981142Y-91714571D01*
X124981142Y-92286000D02*
X125038285Y-92171714D01*
X125095428Y-92114571D01*
X125209714Y-92057428D01*
X125552571Y-92057428D01*
X125666857Y-92114571D01*
X125724000Y-92171714D01*
X125781142Y-92286000D01*
X125781142Y-92457428D01*
X125724000Y-92571714D01*
X125666857Y-92628857D01*
X125552571Y-92686000D01*
X125209714Y-92686000D01*
X125095428Y-92628857D01*
X125038285Y-92571714D01*
X124981142Y-92457428D01*
X124981142Y-92286000D01*
X124981142Y-93200285D02*
X125781142Y-93200285D01*
X125552571Y-93200285D02*
X125666857Y-93257428D01*
X125724000Y-93314571D01*
X125781142Y-93428857D01*
X125781142Y-93543142D01*
X124981142Y-94457428D02*
X125609714Y-94457428D01*
X125724000Y-94400285D01*
X125781142Y-94286000D01*
X125781142Y-94057428D01*
X125724000Y-93943142D01*
X125038285Y-94457428D02*
X124981142Y-94343142D01*
X124981142Y-94057428D01*
X125038285Y-93943142D01*
X125152571Y-93886000D01*
X125266857Y-93886000D01*
X125381142Y-93943142D01*
X125438285Y-94057428D01*
X125438285Y-94343142D01*
X125495428Y-94457428D01*
X125781142Y-94857428D02*
X125781142Y-95314571D01*
X126181142Y-95028857D02*
X125152571Y-95028857D01*
X125038285Y-95086000D01*
X124981142Y-95200285D01*
X124981142Y-95314571D01*
X124981142Y-95714571D02*
X125781142Y-95714571D01*
X126181142Y-95714571D02*
X126124000Y-95657428D01*
X126066857Y-95714571D01*
X126124000Y-95771714D01*
X126181142Y-95714571D01*
X126066857Y-95714571D01*
X124981142Y-96457428D02*
X125038285Y-96343142D01*
X125095428Y-96286000D01*
X125209714Y-96228857D01*
X125552571Y-96228857D01*
X125666857Y-96286000D01*
X125724000Y-96343142D01*
X125781142Y-96457428D01*
X125781142Y-96628857D01*
X125724000Y-96743142D01*
X125666857Y-96800285D01*
X125552571Y-96857428D01*
X125209714Y-96857428D01*
X125095428Y-96800285D01*
X125038285Y-96743142D01*
X124981142Y-96628857D01*
X124981142Y-96457428D01*
X125781142Y-97371714D02*
X124981142Y-97371714D01*
X125666857Y-97371714D02*
X125724000Y-97428857D01*
X125781142Y-97543142D01*
X125781142Y-97714571D01*
X125724000Y-97828857D01*
X125609714Y-97886000D01*
X124981142Y-97886000D01*
X124981142Y-99371714D02*
X126181142Y-99371714D01*
X126181142Y-99828857D01*
X126124000Y-99943142D01*
X126066857Y-100000285D01*
X125952571Y-100057428D01*
X125781142Y-100057428D01*
X125666857Y-100000285D01*
X125609714Y-99943142D01*
X125552571Y-99828857D01*
X125552571Y-99371714D01*
X124981142Y-100571714D02*
X125781142Y-100571714D01*
X125552571Y-100571714D02*
X125666857Y-100628857D01*
X125724000Y-100686000D01*
X125781142Y-100800285D01*
X125781142Y-100914571D01*
X124981142Y-101486000D02*
X125038285Y-101371714D01*
X125095428Y-101314571D01*
X125209714Y-101257428D01*
X125552571Y-101257428D01*
X125666857Y-101314571D01*
X125724000Y-101371714D01*
X125781142Y-101486000D01*
X125781142Y-101657428D01*
X125724000Y-101771714D01*
X125666857Y-101828857D01*
X125552571Y-101886000D01*
X125209714Y-101886000D01*
X125095428Y-101828857D01*
X125038285Y-101771714D01*
X124981142Y-101657428D01*
X124981142Y-101486000D01*
X125781142Y-102400285D02*
X124752571Y-102400285D01*
X124638285Y-102343142D01*
X124581142Y-102228857D01*
X124581142Y-102171714D01*
X126181142Y-102400285D02*
X126124000Y-102343142D01*
X126066857Y-102400285D01*
X126124000Y-102457428D01*
X126181142Y-102400285D01*
X126066857Y-102400285D01*
X125038285Y-103428857D02*
X124981142Y-103314571D01*
X124981142Y-103086000D01*
X125038285Y-102971714D01*
X125152571Y-102914571D01*
X125609714Y-102914571D01*
X125724000Y-102971714D01*
X125781142Y-103086000D01*
X125781142Y-103314571D01*
X125724000Y-103428857D01*
X125609714Y-103486000D01*
X125495428Y-103486000D01*
X125381142Y-102914571D01*
X125038285Y-104514571D02*
X124981142Y-104400285D01*
X124981142Y-104171714D01*
X125038285Y-104057428D01*
X125095428Y-104000285D01*
X125209714Y-103943142D01*
X125552571Y-103943142D01*
X125666857Y-104000285D01*
X125724000Y-104057428D01*
X125781142Y-104171714D01*
X125781142Y-104400285D01*
X125724000Y-104514571D01*
X125781142Y-104857428D02*
X125781142Y-105314571D01*
X126181142Y-105028857D02*
X125152571Y-105028857D01*
X125038285Y-105086000D01*
X124981142Y-105200285D01*
X124981142Y-105314571D01*
D12*
G04 #@! TO.C,C4*
X149710000Y-85613500D02*
X149710000Y-89733500D01*
X147090000Y-85613500D02*
X147090000Y-89733500D01*
X149710000Y-85613500D02*
X149150000Y-85613500D01*
X147650000Y-85613500D02*
X147090000Y-85613500D01*
X149710000Y-89733500D02*
X149150000Y-89733500D01*
X147650000Y-89733500D02*
X147090000Y-89733500D01*
G04 #@! TO.C,Q1*
X153609522Y-95754978D02*
G75*
G03X158048000Y-93916500I1838478J1838478D01*
G01*
X153609522Y-92078022D02*
G75*
G02X158048000Y-93916500I1838478J-1838478D01*
G01*
X153598000Y-92116500D02*
X153598000Y-95716500D01*
G04 #@! TO.C,C3*
X147050000Y-103218000D02*
X147050000Y-98498000D01*
X152670000Y-103218000D02*
X152670000Y-98498000D01*
X147050000Y-103218000D02*
X152670000Y-103218000D01*
X147050000Y-98498000D02*
X152670000Y-98498000D01*
G04 #@! TO.C,Q3*
X151710000Y-95716500D02*
X151710000Y-92116500D01*
X151698478Y-95754978D02*
G75*
G02X147260000Y-93916500I-1838478J1838478D01*
G01*
X151698478Y-92078022D02*
G75*
G03X147260000Y-93916500I-1838478J-1838478D01*
G01*
G04 #@! TO.C,R1*
X144240000Y-85495000D02*
X144240000Y-85825000D01*
X144240000Y-85825000D02*
X137700000Y-85825000D01*
X137700000Y-85825000D02*
X137700000Y-85495000D01*
X144240000Y-83415000D02*
X144240000Y-83085000D01*
X144240000Y-83085000D02*
X137700000Y-83085000D01*
X137700000Y-83085000D02*
X137700000Y-83415000D01*
G04 #@! TO.C,R2*
X144240000Y-97255000D02*
X144240000Y-96925000D01*
X137700000Y-97255000D02*
X144240000Y-97255000D01*
X137700000Y-96925000D02*
X137700000Y-97255000D01*
X144240000Y-94515000D02*
X144240000Y-94845000D01*
X137700000Y-94515000D02*
X144240000Y-94515000D01*
X137700000Y-94845000D02*
X137700000Y-94515000D01*
G04 #@! TO.C,R3*
X144240000Y-89635000D02*
X144240000Y-89305000D01*
X137700000Y-89635000D02*
X144240000Y-89635000D01*
X137700000Y-89305000D02*
X137700000Y-89635000D01*
X144240000Y-86895000D02*
X144240000Y-87225000D01*
X137700000Y-86895000D02*
X144240000Y-86895000D01*
X137700000Y-87225000D02*
X137700000Y-86895000D01*
G04 #@! TO.C,R6*
X144240000Y-100735000D02*
X144240000Y-101065000D01*
X144240000Y-101065000D02*
X137700000Y-101065000D01*
X137700000Y-101065000D02*
X137700000Y-100735000D01*
X144240000Y-98655000D02*
X144240000Y-98325000D01*
X144240000Y-98325000D02*
X137700000Y-98325000D01*
X137700000Y-98325000D02*
X137700000Y-98655000D01*
G04 #@! TO.C,R7*
X144240000Y-93115000D02*
X144240000Y-93445000D01*
X144240000Y-93445000D02*
X137700000Y-93445000D01*
X137700000Y-93445000D02*
X137700000Y-93115000D01*
X144240000Y-91035000D02*
X144240000Y-90705000D01*
X144240000Y-90705000D02*
X137700000Y-90705000D01*
X137700000Y-90705000D02*
X137700000Y-91035000D01*
G04 #@! TO.C,C1*
X147026000Y-84122000D02*
X147026000Y-80002000D01*
X149646000Y-84122000D02*
X149646000Y-80002000D01*
X147026000Y-84122000D02*
X147586000Y-84122000D01*
X149086000Y-84122000D02*
X149646000Y-84122000D01*
X147026000Y-80002000D02*
X147586000Y-80002000D01*
X149086000Y-80002000D02*
X149646000Y-80002000D01*
G04 #@! TO.C,C2*
X156706000Y-98798000D02*
X157266000Y-98798000D01*
X154646000Y-98798000D02*
X155206000Y-98798000D01*
X156706000Y-102918000D02*
X157266000Y-102918000D01*
X154646000Y-102918000D02*
X155206000Y-102918000D01*
X157266000Y-102918000D02*
X157266000Y-98798000D01*
X154646000Y-102918000D02*
X154646000Y-98798000D01*
G04 #@! TO.C,C5*
X147566000Y-115582000D02*
X147566000Y-115022000D01*
X147566000Y-117642000D02*
X147566000Y-117082000D01*
X151686000Y-115582000D02*
X151686000Y-115022000D01*
X151686000Y-117642000D02*
X151686000Y-117082000D01*
X151686000Y-115022000D02*
X147566000Y-115022000D01*
X151686000Y-117642000D02*
X147566000Y-117642000D01*
G04 #@! TO.C,D1*
X142490000Y-81892000D02*
X142490000Y-79652000D01*
X142250000Y-81892000D02*
X142250000Y-79652000D01*
X142370000Y-81892000D02*
X142370000Y-79652000D01*
X138200000Y-80772000D02*
X138850000Y-80772000D01*
X143740000Y-80772000D02*
X143090000Y-80772000D01*
X138850000Y-81892000D02*
X143090000Y-81892000D01*
X138850000Y-79652000D02*
X138850000Y-81892000D01*
X143090000Y-79652000D02*
X138850000Y-79652000D01*
X143090000Y-81892000D02*
X143090000Y-79652000D01*
G04 #@! TO.C,D2*
X143090000Y-121770000D02*
X143090000Y-119530000D01*
X143090000Y-119530000D02*
X138850000Y-119530000D01*
X138850000Y-119530000D02*
X138850000Y-121770000D01*
X138850000Y-121770000D02*
X143090000Y-121770000D01*
X143740000Y-120650000D02*
X143090000Y-120650000D01*
X138200000Y-120650000D02*
X138850000Y-120650000D01*
X142370000Y-121770000D02*
X142370000Y-119530000D01*
X142250000Y-121770000D02*
X142250000Y-119530000D01*
X142490000Y-121770000D02*
X142490000Y-119530000D01*
G04 #@! TO.C,Q2*
X158314000Y-108734000D02*
X158314000Y-105134000D01*
X158302478Y-108772478D02*
G75*
G02X153864000Y-106934000I-1838478J1838478D01*
G01*
X158302478Y-105095522D02*
G75*
G03X153864000Y-106934000I-1838478J-1838478D01*
G01*
G04 #@! TO.C,Q4*
X152206478Y-105095522D02*
G75*
G03X147768000Y-106934000I-1838478J-1838478D01*
G01*
X152206478Y-108772478D02*
G75*
G02X147768000Y-106934000I-1838478J1838478D01*
G01*
X152218000Y-108734000D02*
X152218000Y-105134000D01*
G04 #@! TO.C,R4*
X137700000Y-102592000D02*
X137700000Y-102262000D01*
X137700000Y-102262000D02*
X144240000Y-102262000D01*
X144240000Y-102262000D02*
X144240000Y-102592000D01*
X137700000Y-104672000D02*
X137700000Y-105002000D01*
X137700000Y-105002000D02*
X144240000Y-105002000D01*
X144240000Y-105002000D02*
X144240000Y-104672000D01*
G04 #@! TO.C,R5*
X137700000Y-106326000D02*
X137700000Y-106656000D01*
X144240000Y-106326000D02*
X137700000Y-106326000D01*
X144240000Y-106656000D02*
X144240000Y-106326000D01*
X137700000Y-109066000D02*
X137700000Y-108736000D01*
X144240000Y-109066000D02*
X137700000Y-109066000D01*
X144240000Y-108736000D02*
X144240000Y-109066000D01*
G04 #@! TO.C,R8*
X137700000Y-114835000D02*
X137700000Y-115165000D01*
X144240000Y-114835000D02*
X137700000Y-114835000D01*
X144240000Y-115165000D02*
X144240000Y-114835000D01*
X137700000Y-117575000D02*
X137700000Y-117245000D01*
X144240000Y-117575000D02*
X137700000Y-117575000D01*
X144240000Y-117245000D02*
X144240000Y-117575000D01*
G04 #@! TO.C,J1*
X158048000Y-114494000D02*
X155388000Y-114494000D01*
X158048000Y-119634000D02*
X158048000Y-114494000D01*
X155388000Y-119634000D02*
X155388000Y-114494000D01*
X158048000Y-119634000D02*
X155388000Y-119634000D01*
X158048000Y-120904000D02*
X158048000Y-122234000D01*
X158048000Y-122234000D02*
X156718000Y-122234000D01*
G04 #@! TO.C,J2*
X157858000Y-78616500D02*
X155198000Y-78616500D01*
X157858000Y-86296500D02*
X157858000Y-78616500D01*
X155198000Y-86296500D02*
X155198000Y-78616500D01*
X157858000Y-86296500D02*
X155198000Y-86296500D01*
X157858000Y-87566500D02*
X157858000Y-88896500D01*
X157858000Y-88896500D02*
X156528000Y-88896500D01*
G04 #@! TO.C,C4*
D13*
X151317142Y-87840166D02*
X151364761Y-87887785D01*
X151412380Y-88030642D01*
X151412380Y-88125880D01*
X151364761Y-88268738D01*
X151269523Y-88363976D01*
X151174285Y-88411595D01*
X150983809Y-88459214D01*
X150840952Y-88459214D01*
X150650476Y-88411595D01*
X150555238Y-88363976D01*
X150460000Y-88268738D01*
X150412380Y-88125880D01*
X150412380Y-88030642D01*
X150460000Y-87887785D01*
X150507619Y-87840166D01*
X150745714Y-86983023D02*
X151412380Y-86983023D01*
X150364761Y-87221119D02*
X151079047Y-87459214D01*
X151079047Y-86840166D01*
G04 #@! TO.C,Q1*
X154590761Y-91162119D02*
X154495523Y-91114500D01*
X154400285Y-91019261D01*
X154257428Y-90876404D01*
X154162190Y-90828785D01*
X154066952Y-90828785D01*
X154114571Y-91066880D02*
X154019333Y-91019261D01*
X153924095Y-90924023D01*
X153876476Y-90733547D01*
X153876476Y-90400214D01*
X153924095Y-90209738D01*
X154019333Y-90114500D01*
X154114571Y-90066880D01*
X154305047Y-90066880D01*
X154400285Y-90114500D01*
X154495523Y-90209738D01*
X154543142Y-90400214D01*
X154543142Y-90733547D01*
X154495523Y-90924023D01*
X154400285Y-91019261D01*
X154305047Y-91066880D01*
X154114571Y-91066880D01*
X155495523Y-91066880D02*
X154924095Y-91066880D01*
X155209809Y-91066880D02*
X155209809Y-90066880D01*
X155114571Y-90209738D01*
X155019333Y-90304976D01*
X154924095Y-90352595D01*
X152987714Y-97020119D02*
X153035333Y-96972500D01*
X153130571Y-96924880D01*
X153368666Y-96924880D01*
X153463904Y-96972500D01*
X153511523Y-97020119D01*
X153559142Y-97115357D01*
X153559142Y-97210595D01*
X153511523Y-97353452D01*
X152940095Y-97924880D01*
X153559142Y-97924880D01*
X153987714Y-97924880D02*
X153987714Y-96924880D01*
X154559142Y-97924880D01*
X154559142Y-96924880D01*
X154940095Y-96924880D02*
X155559142Y-96924880D01*
X155225809Y-97305833D01*
X155368666Y-97305833D01*
X155463904Y-97353452D01*
X155511523Y-97401071D01*
X155559142Y-97496309D01*
X155559142Y-97734404D01*
X155511523Y-97829642D01*
X155463904Y-97877261D01*
X155368666Y-97924880D01*
X155082952Y-97924880D01*
X154987714Y-97877261D01*
X154940095Y-97829642D01*
X156035333Y-97924880D02*
X156225809Y-97924880D01*
X156321047Y-97877261D01*
X156368666Y-97829642D01*
X156463904Y-97686785D01*
X156511523Y-97496309D01*
X156511523Y-97115357D01*
X156463904Y-97020119D01*
X156416285Y-96972500D01*
X156321047Y-96924880D01*
X156130571Y-96924880D01*
X156035333Y-96972500D01*
X155987714Y-97020119D01*
X155940095Y-97115357D01*
X155940095Y-97353452D01*
X155987714Y-97448690D01*
X156035333Y-97496309D01*
X156130571Y-97543928D01*
X156321047Y-97543928D01*
X156416285Y-97496309D01*
X156463904Y-97448690D01*
X156511523Y-97353452D01*
X157130571Y-96924880D02*
X157225809Y-96924880D01*
X157321047Y-96972500D01*
X157368666Y-97020119D01*
X157416285Y-97115357D01*
X157463904Y-97305833D01*
X157463904Y-97543928D01*
X157416285Y-97734404D01*
X157368666Y-97829642D01*
X157321047Y-97877261D01*
X157225809Y-97924880D01*
X157130571Y-97924880D01*
X157035333Y-97877261D01*
X156987714Y-97829642D01*
X156940095Y-97734404D01*
X156892476Y-97543928D01*
X156892476Y-97305833D01*
X156940095Y-97115357D01*
X156987714Y-97020119D01*
X157035333Y-96972500D01*
X157130571Y-96924880D01*
X158321047Y-97258214D02*
X158321047Y-97924880D01*
X158082952Y-96877261D02*
X157844857Y-97591547D01*
X158463904Y-97591547D01*
G04 #@! TO.C,C3*
X154090642Y-101131666D02*
X154138261Y-101179285D01*
X154185880Y-101322142D01*
X154185880Y-101417380D01*
X154138261Y-101560238D01*
X154043023Y-101655476D01*
X153947785Y-101703095D01*
X153757309Y-101750714D01*
X153614452Y-101750714D01*
X153423976Y-101703095D01*
X153328738Y-101655476D01*
X153233500Y-101560238D01*
X153185880Y-101417380D01*
X153185880Y-101322142D01*
X153233500Y-101179285D01*
X153281119Y-101131666D01*
X153185880Y-100798333D02*
X153185880Y-100179285D01*
X153566833Y-100512619D01*
X153566833Y-100369761D01*
X153614452Y-100274523D01*
X153662071Y-100226904D01*
X153757309Y-100179285D01*
X153995404Y-100179285D01*
X154090642Y-100226904D01*
X154138261Y-100274523D01*
X154185880Y-100369761D01*
X154185880Y-100655476D01*
X154138261Y-100750714D01*
X154090642Y-100798333D01*
G04 #@! TO.C,Q3*
X147351761Y-91479619D02*
X147256523Y-91432000D01*
X147161285Y-91336761D01*
X147018428Y-91193904D01*
X146923190Y-91146285D01*
X146827952Y-91146285D01*
X146875571Y-91384380D02*
X146780333Y-91336761D01*
X146685095Y-91241523D01*
X146637476Y-91051047D01*
X146637476Y-90717714D01*
X146685095Y-90527238D01*
X146780333Y-90432000D01*
X146875571Y-90384380D01*
X147066047Y-90384380D01*
X147161285Y-90432000D01*
X147256523Y-90527238D01*
X147304142Y-90717714D01*
X147304142Y-91051047D01*
X147256523Y-91241523D01*
X147161285Y-91336761D01*
X147066047Y-91384380D01*
X146875571Y-91384380D01*
X147637476Y-90384380D02*
X148256523Y-90384380D01*
X147923190Y-90765333D01*
X148066047Y-90765333D01*
X148161285Y-90812952D01*
X148208904Y-90860571D01*
X148256523Y-90955809D01*
X148256523Y-91193904D01*
X148208904Y-91289142D01*
X148161285Y-91336761D01*
X148066047Y-91384380D01*
X147780333Y-91384380D01*
X147685095Y-91336761D01*
X147637476Y-91289142D01*
X147121857Y-97401071D02*
X147264714Y-97448690D01*
X147312333Y-97496309D01*
X147359952Y-97591547D01*
X147359952Y-97734404D01*
X147312333Y-97829642D01*
X147264714Y-97877261D01*
X147169476Y-97924880D01*
X146788523Y-97924880D01*
X146788523Y-96924880D01*
X147121857Y-96924880D01*
X147217095Y-96972500D01*
X147264714Y-97020119D01*
X147312333Y-97115357D01*
X147312333Y-97210595D01*
X147264714Y-97305833D01*
X147217095Y-97353452D01*
X147121857Y-97401071D01*
X146788523Y-97401071D01*
X148359952Y-97829642D02*
X148312333Y-97877261D01*
X148169476Y-97924880D01*
X148074238Y-97924880D01*
X147931380Y-97877261D01*
X147836142Y-97782023D01*
X147788523Y-97686785D01*
X147740904Y-97496309D01*
X147740904Y-97353452D01*
X147788523Y-97162976D01*
X147836142Y-97067738D01*
X147931380Y-96972500D01*
X148074238Y-96924880D01*
X148169476Y-96924880D01*
X148312333Y-96972500D01*
X148359952Y-97020119D01*
X149264714Y-96924880D02*
X148788523Y-96924880D01*
X148740904Y-97401071D01*
X148788523Y-97353452D01*
X148883761Y-97305833D01*
X149121857Y-97305833D01*
X149217095Y-97353452D01*
X149264714Y-97401071D01*
X149312333Y-97496309D01*
X149312333Y-97734404D01*
X149264714Y-97829642D01*
X149217095Y-97877261D01*
X149121857Y-97924880D01*
X148883761Y-97924880D01*
X148788523Y-97877261D01*
X148740904Y-97829642D01*
X150169476Y-97258214D02*
X150169476Y-97924880D01*
X149931380Y-96877261D02*
X149693285Y-97591547D01*
X150312333Y-97591547D01*
X150598047Y-96924880D02*
X151264714Y-96924880D01*
X150836142Y-97924880D01*
X152217095Y-97829642D02*
X152169476Y-97877261D01*
X152026619Y-97924880D01*
X151931380Y-97924880D01*
X151788523Y-97877261D01*
X151693285Y-97782023D01*
X151645666Y-97686785D01*
X151598047Y-97496309D01*
X151598047Y-97353452D01*
X151645666Y-97162976D01*
X151693285Y-97067738D01*
X151788523Y-96972500D01*
X151931380Y-96924880D01*
X152026619Y-96924880D01*
X152169476Y-96972500D01*
X152217095Y-97020119D01*
G04 #@! TO.C,R1*
X134707333Y-85034380D02*
X134374000Y-84558190D01*
X134135904Y-85034380D02*
X134135904Y-84034380D01*
X134516857Y-84034380D01*
X134612095Y-84082000D01*
X134659714Y-84129619D01*
X134707333Y-84224857D01*
X134707333Y-84367714D01*
X134659714Y-84462952D01*
X134612095Y-84510571D01*
X134516857Y-84558190D01*
X134135904Y-84558190D01*
X135659714Y-85034380D02*
X135088285Y-85034380D01*
X135374000Y-85034380D02*
X135374000Y-84034380D01*
X135278761Y-84177238D01*
X135183523Y-84272476D01*
X135088285Y-84320095D01*
G04 #@! TO.C,R2*
X134707333Y-96464380D02*
X134374000Y-95988190D01*
X134135904Y-96464380D02*
X134135904Y-95464380D01*
X134516857Y-95464380D01*
X134612095Y-95512000D01*
X134659714Y-95559619D01*
X134707333Y-95654857D01*
X134707333Y-95797714D01*
X134659714Y-95892952D01*
X134612095Y-95940571D01*
X134516857Y-95988190D01*
X134135904Y-95988190D01*
X135088285Y-95559619D02*
X135135904Y-95512000D01*
X135231142Y-95464380D01*
X135469238Y-95464380D01*
X135564476Y-95512000D01*
X135612095Y-95559619D01*
X135659714Y-95654857D01*
X135659714Y-95750095D01*
X135612095Y-95892952D01*
X135040666Y-96464380D01*
X135659714Y-96464380D01*
G04 #@! TO.C,R3*
X134707333Y-88844380D02*
X134374000Y-88368190D01*
X134135904Y-88844380D02*
X134135904Y-87844380D01*
X134516857Y-87844380D01*
X134612095Y-87892000D01*
X134659714Y-87939619D01*
X134707333Y-88034857D01*
X134707333Y-88177714D01*
X134659714Y-88272952D01*
X134612095Y-88320571D01*
X134516857Y-88368190D01*
X134135904Y-88368190D01*
X135040666Y-87844380D02*
X135659714Y-87844380D01*
X135326380Y-88225333D01*
X135469238Y-88225333D01*
X135564476Y-88272952D01*
X135612095Y-88320571D01*
X135659714Y-88415809D01*
X135659714Y-88653904D01*
X135612095Y-88749142D01*
X135564476Y-88796761D01*
X135469238Y-88844380D01*
X135183523Y-88844380D01*
X135088285Y-88796761D01*
X135040666Y-88749142D01*
G04 #@! TO.C,R6*
X134707333Y-100274380D02*
X134374000Y-99798190D01*
X134135904Y-100274380D02*
X134135904Y-99274380D01*
X134516857Y-99274380D01*
X134612095Y-99322000D01*
X134659714Y-99369619D01*
X134707333Y-99464857D01*
X134707333Y-99607714D01*
X134659714Y-99702952D01*
X134612095Y-99750571D01*
X134516857Y-99798190D01*
X134135904Y-99798190D01*
X135564476Y-99274380D02*
X135374000Y-99274380D01*
X135278761Y-99322000D01*
X135231142Y-99369619D01*
X135135904Y-99512476D01*
X135088285Y-99702952D01*
X135088285Y-100083904D01*
X135135904Y-100179142D01*
X135183523Y-100226761D01*
X135278761Y-100274380D01*
X135469238Y-100274380D01*
X135564476Y-100226761D01*
X135612095Y-100179142D01*
X135659714Y-100083904D01*
X135659714Y-99845809D01*
X135612095Y-99750571D01*
X135564476Y-99702952D01*
X135469238Y-99655333D01*
X135278761Y-99655333D01*
X135183523Y-99702952D01*
X135135904Y-99750571D01*
X135088285Y-99845809D01*
G04 #@! TO.C,R7*
X134707333Y-92654380D02*
X134374000Y-92178190D01*
X134135904Y-92654380D02*
X134135904Y-91654380D01*
X134516857Y-91654380D01*
X134612095Y-91702000D01*
X134659714Y-91749619D01*
X134707333Y-91844857D01*
X134707333Y-91987714D01*
X134659714Y-92082952D01*
X134612095Y-92130571D01*
X134516857Y-92178190D01*
X134135904Y-92178190D01*
X135040666Y-91654380D02*
X135707333Y-91654380D01*
X135278761Y-92654380D01*
G04 #@! TO.C,C1*
X151106142Y-82208666D02*
X151153761Y-82256285D01*
X151201380Y-82399142D01*
X151201380Y-82494380D01*
X151153761Y-82637238D01*
X151058523Y-82732476D01*
X150963285Y-82780095D01*
X150772809Y-82827714D01*
X150629952Y-82827714D01*
X150439476Y-82780095D01*
X150344238Y-82732476D01*
X150249000Y-82637238D01*
X150201380Y-82494380D01*
X150201380Y-82399142D01*
X150249000Y-82256285D01*
X150296619Y-82208666D01*
X151201380Y-81256285D02*
X151201380Y-81827714D01*
X151201380Y-81542000D02*
X150201380Y-81542000D01*
X150344238Y-81637238D01*
X150439476Y-81732476D01*
X150487095Y-81827714D01*
G04 #@! TO.C,C2*
X158853142Y-101024666D02*
X158900761Y-101072285D01*
X158948380Y-101215142D01*
X158948380Y-101310380D01*
X158900761Y-101453238D01*
X158805523Y-101548476D01*
X158710285Y-101596095D01*
X158519809Y-101643714D01*
X158376952Y-101643714D01*
X158186476Y-101596095D01*
X158091238Y-101548476D01*
X157996000Y-101453238D01*
X157948380Y-101310380D01*
X157948380Y-101215142D01*
X157996000Y-101072285D01*
X158043619Y-101024666D01*
X158043619Y-100643714D02*
X157996000Y-100596095D01*
X157948380Y-100500857D01*
X157948380Y-100262761D01*
X157996000Y-100167523D01*
X158043619Y-100119904D01*
X158138857Y-100072285D01*
X158234095Y-100072285D01*
X158376952Y-100119904D01*
X158948380Y-100691333D01*
X158948380Y-100072285D01*
G04 #@! TO.C,C5*
X149459333Y-119249142D02*
X149411714Y-119296761D01*
X149268857Y-119344380D01*
X149173619Y-119344380D01*
X149030761Y-119296761D01*
X148935523Y-119201523D01*
X148887904Y-119106285D01*
X148840285Y-118915809D01*
X148840285Y-118772952D01*
X148887904Y-118582476D01*
X148935523Y-118487238D01*
X149030761Y-118392000D01*
X149173619Y-118344380D01*
X149268857Y-118344380D01*
X149411714Y-118392000D01*
X149459333Y-118439619D01*
X150364095Y-118344380D02*
X149887904Y-118344380D01*
X149840285Y-118820571D01*
X149887904Y-118772952D01*
X149983142Y-118725333D01*
X150221238Y-118725333D01*
X150316476Y-118772952D01*
X150364095Y-118820571D01*
X150411714Y-118915809D01*
X150411714Y-119153904D01*
X150364095Y-119249142D01*
X150316476Y-119296761D01*
X150221238Y-119344380D01*
X149983142Y-119344380D01*
X149887904Y-119296761D01*
X149840285Y-119249142D01*
G04 #@! TO.C,D1*
X134135904Y-81224380D02*
X134135904Y-80224380D01*
X134374000Y-80224380D01*
X134516857Y-80272000D01*
X134612095Y-80367238D01*
X134659714Y-80462476D01*
X134707333Y-80652952D01*
X134707333Y-80795809D01*
X134659714Y-80986285D01*
X134612095Y-81081523D01*
X134516857Y-81176761D01*
X134374000Y-81224380D01*
X134135904Y-81224380D01*
X135659714Y-81224380D02*
X135088285Y-81224380D01*
X135374000Y-81224380D02*
X135374000Y-80224380D01*
X135278761Y-80367238D01*
X135183523Y-80462476D01*
X135088285Y-80510095D01*
X144518095Y-83024380D02*
X144518095Y-82024380D01*
X145089523Y-83024380D02*
X144660952Y-82452952D01*
X145089523Y-82024380D02*
X144518095Y-82595809D01*
G04 #@! TO.C,D2*
X134135904Y-121229380D02*
X134135904Y-120229380D01*
X134374000Y-120229380D01*
X134516857Y-120277000D01*
X134612095Y-120372238D01*
X134659714Y-120467476D01*
X134707333Y-120657952D01*
X134707333Y-120800809D01*
X134659714Y-120991285D01*
X134612095Y-121086523D01*
X134516857Y-121181761D01*
X134374000Y-121229380D01*
X134135904Y-121229380D01*
X135088285Y-120324619D02*
X135135904Y-120277000D01*
X135231142Y-120229380D01*
X135469238Y-120229380D01*
X135564476Y-120277000D01*
X135612095Y-120324619D01*
X135659714Y-120419857D01*
X135659714Y-120515095D01*
X135612095Y-120657952D01*
X135040666Y-121229380D01*
X135659714Y-121229380D01*
X144518095Y-122902380D02*
X144518095Y-121902380D01*
X145089523Y-122902380D02*
X144660952Y-122330952D01*
X145089523Y-121902380D02*
X144518095Y-122473809D01*
G04 #@! TO.C,Q2*
X153828761Y-111291619D02*
X153733523Y-111244000D01*
X153638285Y-111148761D01*
X153495428Y-111005904D01*
X153400190Y-110958285D01*
X153304952Y-110958285D01*
X153352571Y-111196380D02*
X153257333Y-111148761D01*
X153162095Y-111053523D01*
X153114476Y-110863047D01*
X153114476Y-110529714D01*
X153162095Y-110339238D01*
X153257333Y-110244000D01*
X153352571Y-110196380D01*
X153543047Y-110196380D01*
X153638285Y-110244000D01*
X153733523Y-110339238D01*
X153781142Y-110529714D01*
X153781142Y-110863047D01*
X153733523Y-111053523D01*
X153638285Y-111148761D01*
X153543047Y-111196380D01*
X153352571Y-111196380D01*
X154162095Y-110291619D02*
X154209714Y-110244000D01*
X154304952Y-110196380D01*
X154543047Y-110196380D01*
X154638285Y-110244000D01*
X154685904Y-110291619D01*
X154733523Y-110386857D01*
X154733523Y-110482095D01*
X154685904Y-110624952D01*
X154114476Y-111196380D01*
X154733523Y-111196380D01*
X153241714Y-111815619D02*
X153289333Y-111768000D01*
X153384571Y-111720380D01*
X153622666Y-111720380D01*
X153717904Y-111768000D01*
X153765523Y-111815619D01*
X153813142Y-111910857D01*
X153813142Y-112006095D01*
X153765523Y-112148952D01*
X153194095Y-112720380D01*
X153813142Y-112720380D01*
X154241714Y-112720380D02*
X154241714Y-111720380D01*
X154813142Y-112720380D01*
X154813142Y-111720380D01*
X155194095Y-111720380D02*
X155813142Y-111720380D01*
X155479809Y-112101333D01*
X155622666Y-112101333D01*
X155717904Y-112148952D01*
X155765523Y-112196571D01*
X155813142Y-112291809D01*
X155813142Y-112529904D01*
X155765523Y-112625142D01*
X155717904Y-112672761D01*
X155622666Y-112720380D01*
X155336952Y-112720380D01*
X155241714Y-112672761D01*
X155194095Y-112625142D01*
X156289333Y-112720380D02*
X156479809Y-112720380D01*
X156575047Y-112672761D01*
X156622666Y-112625142D01*
X156717904Y-112482285D01*
X156765523Y-112291809D01*
X156765523Y-111910857D01*
X156717904Y-111815619D01*
X156670285Y-111768000D01*
X156575047Y-111720380D01*
X156384571Y-111720380D01*
X156289333Y-111768000D01*
X156241714Y-111815619D01*
X156194095Y-111910857D01*
X156194095Y-112148952D01*
X156241714Y-112244190D01*
X156289333Y-112291809D01*
X156384571Y-112339428D01*
X156575047Y-112339428D01*
X156670285Y-112291809D01*
X156717904Y-112244190D01*
X156765523Y-112148952D01*
X157384571Y-111720380D02*
X157479809Y-111720380D01*
X157575047Y-111768000D01*
X157622666Y-111815619D01*
X157670285Y-111910857D01*
X157717904Y-112101333D01*
X157717904Y-112339428D01*
X157670285Y-112529904D01*
X157622666Y-112625142D01*
X157575047Y-112672761D01*
X157479809Y-112720380D01*
X157384571Y-112720380D01*
X157289333Y-112672761D01*
X157241714Y-112625142D01*
X157194095Y-112529904D01*
X157146476Y-112339428D01*
X157146476Y-112101333D01*
X157194095Y-111910857D01*
X157241714Y-111815619D01*
X157289333Y-111768000D01*
X157384571Y-111720380D01*
X158575047Y-112053714D02*
X158575047Y-112720380D01*
X158336952Y-111672761D02*
X158098857Y-112387047D01*
X158717904Y-112387047D01*
G04 #@! TO.C,Q4*
X147986761Y-111037619D02*
X147891523Y-110990000D01*
X147796285Y-110894761D01*
X147653428Y-110751904D01*
X147558190Y-110704285D01*
X147462952Y-110704285D01*
X147510571Y-110942380D02*
X147415333Y-110894761D01*
X147320095Y-110799523D01*
X147272476Y-110609047D01*
X147272476Y-110275714D01*
X147320095Y-110085238D01*
X147415333Y-109990000D01*
X147510571Y-109942380D01*
X147701047Y-109942380D01*
X147796285Y-109990000D01*
X147891523Y-110085238D01*
X147939142Y-110275714D01*
X147939142Y-110609047D01*
X147891523Y-110799523D01*
X147796285Y-110894761D01*
X147701047Y-110942380D01*
X147510571Y-110942380D01*
X148796285Y-110275714D02*
X148796285Y-110942380D01*
X148558190Y-109894761D02*
X148320095Y-110609047D01*
X148939142Y-110609047D01*
X147145714Y-111815619D02*
X147193333Y-111768000D01*
X147288571Y-111720380D01*
X147526666Y-111720380D01*
X147621904Y-111768000D01*
X147669523Y-111815619D01*
X147717142Y-111910857D01*
X147717142Y-112006095D01*
X147669523Y-112148952D01*
X147098095Y-112720380D01*
X147717142Y-112720380D01*
X148145714Y-112720380D02*
X148145714Y-111720380D01*
X148717142Y-112720380D01*
X148717142Y-111720380D01*
X149098095Y-111720380D02*
X149717142Y-111720380D01*
X149383809Y-112101333D01*
X149526666Y-112101333D01*
X149621904Y-112148952D01*
X149669523Y-112196571D01*
X149717142Y-112291809D01*
X149717142Y-112529904D01*
X149669523Y-112625142D01*
X149621904Y-112672761D01*
X149526666Y-112720380D01*
X149240952Y-112720380D01*
X149145714Y-112672761D01*
X149098095Y-112625142D01*
X150193333Y-112720380D02*
X150383809Y-112720380D01*
X150479047Y-112672761D01*
X150526666Y-112625142D01*
X150621904Y-112482285D01*
X150669523Y-112291809D01*
X150669523Y-111910857D01*
X150621904Y-111815619D01*
X150574285Y-111768000D01*
X150479047Y-111720380D01*
X150288571Y-111720380D01*
X150193333Y-111768000D01*
X150145714Y-111815619D01*
X150098095Y-111910857D01*
X150098095Y-112148952D01*
X150145714Y-112244190D01*
X150193333Y-112291809D01*
X150288571Y-112339428D01*
X150479047Y-112339428D01*
X150574285Y-112291809D01*
X150621904Y-112244190D01*
X150669523Y-112148952D01*
X151288571Y-111720380D02*
X151383809Y-111720380D01*
X151479047Y-111768000D01*
X151526666Y-111815619D01*
X151574285Y-111910857D01*
X151621904Y-112101333D01*
X151621904Y-112339428D01*
X151574285Y-112529904D01*
X151526666Y-112625142D01*
X151479047Y-112672761D01*
X151383809Y-112720380D01*
X151288571Y-112720380D01*
X151193333Y-112672761D01*
X151145714Y-112625142D01*
X151098095Y-112529904D01*
X151050476Y-112339428D01*
X151050476Y-112101333D01*
X151098095Y-111910857D01*
X151145714Y-111815619D01*
X151193333Y-111768000D01*
X151288571Y-111720380D01*
X152479047Y-112053714D02*
X152479047Y-112720380D01*
X152240952Y-111672761D02*
X152002857Y-112387047D01*
X152621904Y-112387047D01*
G04 #@! TO.C,R4*
X134707333Y-104084380D02*
X134374000Y-103608190D01*
X134135904Y-104084380D02*
X134135904Y-103084380D01*
X134516857Y-103084380D01*
X134612095Y-103132000D01*
X134659714Y-103179619D01*
X134707333Y-103274857D01*
X134707333Y-103417714D01*
X134659714Y-103512952D01*
X134612095Y-103560571D01*
X134516857Y-103608190D01*
X134135904Y-103608190D01*
X135564476Y-103417714D02*
X135564476Y-104084380D01*
X135326380Y-103036761D02*
X135088285Y-103751047D01*
X135707333Y-103751047D01*
G04 #@! TO.C,R5*
X134707333Y-108148380D02*
X134374000Y-107672190D01*
X134135904Y-108148380D02*
X134135904Y-107148380D01*
X134516857Y-107148380D01*
X134612095Y-107196000D01*
X134659714Y-107243619D01*
X134707333Y-107338857D01*
X134707333Y-107481714D01*
X134659714Y-107576952D01*
X134612095Y-107624571D01*
X134516857Y-107672190D01*
X134135904Y-107672190D01*
X135612095Y-107148380D02*
X135135904Y-107148380D01*
X135088285Y-107624571D01*
X135135904Y-107576952D01*
X135231142Y-107529333D01*
X135469238Y-107529333D01*
X135564476Y-107576952D01*
X135612095Y-107624571D01*
X135659714Y-107719809D01*
X135659714Y-107957904D01*
X135612095Y-108053142D01*
X135564476Y-108100761D01*
X135469238Y-108148380D01*
X135231142Y-108148380D01*
X135135904Y-108100761D01*
X135088285Y-108053142D01*
G04 #@! TO.C,R8*
X134707333Y-116784380D02*
X134374000Y-116308190D01*
X134135904Y-116784380D02*
X134135904Y-115784380D01*
X134516857Y-115784380D01*
X134612095Y-115832000D01*
X134659714Y-115879619D01*
X134707333Y-115974857D01*
X134707333Y-116117714D01*
X134659714Y-116212952D01*
X134612095Y-116260571D01*
X134516857Y-116308190D01*
X134135904Y-116308190D01*
X135278761Y-116212952D02*
X135183523Y-116165333D01*
X135135904Y-116117714D01*
X135088285Y-116022476D01*
X135088285Y-115974857D01*
X135135904Y-115879619D01*
X135183523Y-115832000D01*
X135278761Y-115784380D01*
X135469238Y-115784380D01*
X135564476Y-115832000D01*
X135612095Y-115879619D01*
X135659714Y-115974857D01*
X135659714Y-116022476D01*
X135612095Y-116117714D01*
X135564476Y-116165333D01*
X135469238Y-116212952D01*
X135278761Y-116212952D01*
X135183523Y-116260571D01*
X135135904Y-116308190D01*
X135088285Y-116403428D01*
X135088285Y-116593904D01*
X135135904Y-116689142D01*
X135183523Y-116736761D01*
X135278761Y-116784380D01*
X135469238Y-116784380D01*
X135564476Y-116736761D01*
X135612095Y-116689142D01*
X135659714Y-116593904D01*
X135659714Y-116403428D01*
X135612095Y-116308190D01*
X135564476Y-116260571D01*
X135469238Y-116212952D01*
G04 #@! TO.C,J1*
X156384666Y-122686380D02*
X156384666Y-123400666D01*
X156337047Y-123543523D01*
X156241809Y-123638761D01*
X156098952Y-123686380D01*
X156003714Y-123686380D01*
X157384666Y-123686380D02*
X156813238Y-123686380D01*
X157098952Y-123686380D02*
X157098952Y-122686380D01*
X157003714Y-122829238D01*
X156908476Y-122924476D01*
X156813238Y-122972095D01*
G04 #@! TO.C,J2*
X156194666Y-89348880D02*
X156194666Y-90063166D01*
X156147047Y-90206023D01*
X156051809Y-90301261D01*
X155908952Y-90348880D01*
X155813714Y-90348880D01*
X156623238Y-89444119D02*
X156670857Y-89396500D01*
X156766095Y-89348880D01*
X157004190Y-89348880D01*
X157099428Y-89396500D01*
X157147047Y-89444119D01*
X157194666Y-89539357D01*
X157194666Y-89634595D01*
X157147047Y-89777452D01*
X156575619Y-90348880D01*
X157194666Y-90348880D01*
G04 #@! TD*
M02*
