G04 #@! TF.GenerationSoftware,KiCad,Pcbnew,(5.0.0)*
G04 #@! TF.CreationDate,2020-05-22T14:28:52-04:00*
G04 #@! TF.ProjectId,OdysseyDaughterCardSummer,4F647973736579446175676874657243,1.1*
G04 #@! TF.SameCoordinates,Original*
G04 #@! TF.FileFunction,Legend,Top*
G04 #@! TF.FilePolarity,Positive*
%FSLAX46Y46*%
G04 Gerber Fmt 4.6, Leading zero omitted, Abs format (unit mm)*
G04 Created by KiCad (PCBNEW (5.0.0)) date 05/22/20 14:28:52*
%MOMM*%
%LPD*%
G01*
G04 APERTURE LIST*
%ADD10C,0.150000*%
%ADD11C,0.200000*%
%ADD12C,0.120000*%
G04 APERTURE END LIST*
D10*
X163107619Y-114935238D02*
X162107619Y-115268571D01*
X163107619Y-115601904D01*
X162107619Y-115935238D02*
X162774285Y-115935238D01*
X163107619Y-115935238D02*
X163060000Y-115887619D01*
X163012380Y-115935238D01*
X163060000Y-115982857D01*
X163107619Y-115935238D01*
X163012380Y-115935238D01*
X162107619Y-116840000D02*
X163107619Y-116840000D01*
X162155238Y-116840000D02*
X162107619Y-116744761D01*
X162107619Y-116554285D01*
X162155238Y-116459047D01*
X162202857Y-116411428D01*
X162298095Y-116363809D01*
X162583809Y-116363809D01*
X162679047Y-116411428D01*
X162726666Y-116459047D01*
X162774285Y-116554285D01*
X162774285Y-116744761D01*
X162726666Y-116840000D01*
X162155238Y-117697142D02*
X162107619Y-117601904D01*
X162107619Y-117411428D01*
X162155238Y-117316190D01*
X162250476Y-117268571D01*
X162631428Y-117268571D01*
X162726666Y-117316190D01*
X162774285Y-117411428D01*
X162774285Y-117601904D01*
X162726666Y-117697142D01*
X162631428Y-117744761D01*
X162536190Y-117744761D01*
X162440952Y-117268571D01*
X162107619Y-118316190D02*
X162155238Y-118220952D01*
X162202857Y-118173333D01*
X162298095Y-118125714D01*
X162583809Y-118125714D01*
X162679047Y-118173333D01*
X162726666Y-118220952D01*
X162774285Y-118316190D01*
X162774285Y-118459047D01*
X162726666Y-118554285D01*
X162679047Y-118601904D01*
X162583809Y-118649523D01*
X162298095Y-118649523D01*
X162202857Y-118601904D01*
X162155238Y-118554285D01*
X162107619Y-118459047D01*
X162107619Y-118316190D01*
X163060000Y-120142095D02*
X163107619Y-120046857D01*
X163107619Y-119904000D01*
X163060000Y-119761142D01*
X162964761Y-119665904D01*
X162869523Y-119618285D01*
X162679047Y-119570666D01*
X162536190Y-119570666D01*
X162345714Y-119618285D01*
X162250476Y-119665904D01*
X162155238Y-119761142D01*
X162107619Y-119904000D01*
X162107619Y-119999238D01*
X162155238Y-120142095D01*
X162202857Y-120189714D01*
X162536190Y-120189714D01*
X162536190Y-119999238D01*
X162107619Y-120618285D02*
X163107619Y-120618285D01*
X162107619Y-121189714D01*
X163107619Y-121189714D01*
X162107619Y-121665904D02*
X163107619Y-121665904D01*
X163107619Y-121904000D01*
X163060000Y-122046857D01*
X162964761Y-122142095D01*
X162869523Y-122189714D01*
X162679047Y-122237333D01*
X162536190Y-122237333D01*
X162345714Y-122189714D01*
X162250476Y-122142095D01*
X162155238Y-122046857D01*
X162107619Y-121904000D01*
X162107619Y-121665904D01*
X163060000Y-91948095D02*
X163107619Y-91852857D01*
X163107619Y-91710000D01*
X163060000Y-91567142D01*
X162964761Y-91471904D01*
X162869523Y-91424285D01*
X162679047Y-91376666D01*
X162536190Y-91376666D01*
X162345714Y-91424285D01*
X162250476Y-91471904D01*
X162155238Y-91567142D01*
X162107619Y-91710000D01*
X162107619Y-91805238D01*
X162155238Y-91948095D01*
X162202857Y-91995714D01*
X162536190Y-91995714D01*
X162536190Y-91805238D01*
X162107619Y-92424285D02*
X163107619Y-92424285D01*
X162107619Y-92995714D01*
X163107619Y-92995714D01*
X162107619Y-93471904D02*
X163107619Y-93471904D01*
X163107619Y-93710000D01*
X163060000Y-93852857D01*
X162964761Y-93948095D01*
X162869523Y-93995714D01*
X162679047Y-94043333D01*
X162536190Y-94043333D01*
X162345714Y-93995714D01*
X162250476Y-93948095D01*
X162155238Y-93852857D01*
X162107619Y-93710000D01*
X162107619Y-93471904D01*
X163107619Y-88344523D02*
X162107619Y-88677857D01*
X163107619Y-89011190D01*
X162155238Y-89773095D02*
X162107619Y-89677857D01*
X162107619Y-89487380D01*
X162155238Y-89392142D01*
X162202857Y-89344523D01*
X162298095Y-89296904D01*
X162583809Y-89296904D01*
X162679047Y-89344523D01*
X162726666Y-89392142D01*
X162774285Y-89487380D01*
X162774285Y-89677857D01*
X162726666Y-89773095D01*
X162155238Y-90630238D02*
X162107619Y-90535000D01*
X162107619Y-90344523D01*
X162155238Y-90249285D01*
X162202857Y-90201666D01*
X162298095Y-90154047D01*
X162583809Y-90154047D01*
X162679047Y-90201666D01*
X162726666Y-90249285D01*
X162774285Y-90344523D01*
X162774285Y-90535000D01*
X162726666Y-90630238D01*
X162758428Y-84952318D02*
X162710809Y-85095175D01*
X162663190Y-85142794D01*
X162567952Y-85190413D01*
X162425095Y-85190413D01*
X162329857Y-85142794D01*
X162282238Y-85095175D01*
X162234619Y-84999937D01*
X162234619Y-84618984D01*
X163234619Y-84618984D01*
X163234619Y-84952318D01*
X163187000Y-85047556D01*
X163139380Y-85095175D01*
X163044142Y-85142794D01*
X162948904Y-85142794D01*
X162853666Y-85095175D01*
X162806047Y-85047556D01*
X162758428Y-84952318D01*
X162758428Y-84618984D01*
X162234619Y-86047556D02*
X162758428Y-86047556D01*
X162853666Y-85999937D01*
X162901285Y-85904699D01*
X162901285Y-85714222D01*
X162853666Y-85618984D01*
X162282238Y-86047556D02*
X162234619Y-85952318D01*
X162234619Y-85714222D01*
X162282238Y-85618984D01*
X162377476Y-85571365D01*
X162472714Y-85571365D01*
X162567952Y-85618984D01*
X162615571Y-85714222D01*
X162615571Y-85952318D01*
X162663190Y-86047556D01*
X162234619Y-86666603D02*
X162282238Y-86571365D01*
X162377476Y-86523746D01*
X163234619Y-86523746D01*
X162234619Y-87190413D02*
X162282238Y-87095175D01*
X162377476Y-87047556D01*
X163234619Y-87047556D01*
X162885428Y-79533074D02*
X162885428Y-79866407D01*
X162361619Y-80009264D02*
X162361619Y-79533074D01*
X163361619Y-79533074D01*
X163361619Y-80009264D01*
X162361619Y-80342598D02*
X163028285Y-80866407D01*
X163028285Y-80342598D02*
X162361619Y-80866407D01*
X162361619Y-81247360D02*
X163361619Y-81247360D01*
X163361619Y-81628312D01*
X163314000Y-81723550D01*
X163266380Y-81771169D01*
X163171142Y-81818788D01*
X163028285Y-81818788D01*
X162933047Y-81771169D01*
X162885428Y-81723550D01*
X162837809Y-81628312D01*
X162837809Y-81247360D01*
X162361619Y-82390217D02*
X162409238Y-82294979D01*
X162504476Y-82247360D01*
X163361619Y-82247360D01*
X162361619Y-83199740D02*
X162885428Y-83199740D01*
X162980666Y-83152121D01*
X163028285Y-83056883D01*
X163028285Y-82866407D01*
X162980666Y-82771169D01*
X162409238Y-83199740D02*
X162361619Y-83104502D01*
X162361619Y-82866407D01*
X162409238Y-82771169D01*
X162504476Y-82723550D01*
X162599714Y-82723550D01*
X162694952Y-82771169D01*
X162742571Y-82866407D01*
X162742571Y-83104502D01*
X162790190Y-83199740D01*
X163028285Y-83580693D02*
X162361619Y-83818788D01*
X163028285Y-84056883D02*
X162361619Y-83818788D01*
X162123523Y-83723550D01*
X162075904Y-83675931D01*
X162028285Y-83580693D01*
D11*
X133759142Y-80425714D02*
X134959142Y-80425714D01*
X134959142Y-80711428D01*
X134902000Y-80882857D01*
X134787714Y-80997142D01*
X134673428Y-81054285D01*
X134444857Y-81111428D01*
X134273428Y-81111428D01*
X134044857Y-81054285D01*
X133930571Y-80997142D01*
X133816285Y-80882857D01*
X133759142Y-80711428D01*
X133759142Y-80425714D01*
X133759142Y-82140000D02*
X134387714Y-82140000D01*
X134502000Y-82082857D01*
X134559142Y-81968571D01*
X134559142Y-81740000D01*
X134502000Y-81625714D01*
X133816285Y-82140000D02*
X133759142Y-82025714D01*
X133759142Y-81740000D01*
X133816285Y-81625714D01*
X133930571Y-81568571D01*
X134044857Y-81568571D01*
X134159142Y-81625714D01*
X134216285Y-81740000D01*
X134216285Y-82025714D01*
X134273428Y-82140000D01*
X134559142Y-83225714D02*
X133759142Y-83225714D01*
X134559142Y-82711428D02*
X133930571Y-82711428D01*
X133816285Y-82768571D01*
X133759142Y-82882857D01*
X133759142Y-83054285D01*
X133816285Y-83168571D01*
X133873428Y-83225714D01*
X134559142Y-84311428D02*
X133587714Y-84311428D01*
X133473428Y-84254285D01*
X133416285Y-84197142D01*
X133359142Y-84082857D01*
X133359142Y-83911428D01*
X133416285Y-83797142D01*
X133816285Y-84311428D02*
X133759142Y-84197142D01*
X133759142Y-83968571D01*
X133816285Y-83854285D01*
X133873428Y-83797142D01*
X133987714Y-83740000D01*
X134330571Y-83740000D01*
X134444857Y-83797142D01*
X134502000Y-83854285D01*
X134559142Y-83968571D01*
X134559142Y-84197142D01*
X134502000Y-84311428D01*
X133759142Y-84882857D02*
X134959142Y-84882857D01*
X133759142Y-85397142D02*
X134387714Y-85397142D01*
X134502000Y-85340000D01*
X134559142Y-85225714D01*
X134559142Y-85054285D01*
X134502000Y-84940000D01*
X134444857Y-84882857D01*
X134559142Y-85797142D02*
X134559142Y-86254285D01*
X134959142Y-85968571D02*
X133930571Y-85968571D01*
X133816285Y-86025714D01*
X133759142Y-86140000D01*
X133759142Y-86254285D01*
X133816285Y-87111428D02*
X133759142Y-86997142D01*
X133759142Y-86768571D01*
X133816285Y-86654285D01*
X133930571Y-86597142D01*
X134387714Y-86597142D01*
X134502000Y-86654285D01*
X134559142Y-86768571D01*
X134559142Y-86997142D01*
X134502000Y-87111428D01*
X134387714Y-87168571D01*
X134273428Y-87168571D01*
X134159142Y-86597142D01*
X133759142Y-87682857D02*
X134559142Y-87682857D01*
X134330571Y-87682857D02*
X134444857Y-87740000D01*
X134502000Y-87797142D01*
X134559142Y-87911428D01*
X134559142Y-88025714D01*
X133873428Y-90025714D02*
X133816285Y-89968571D01*
X133759142Y-89797142D01*
X133759142Y-89682857D01*
X133816285Y-89511428D01*
X133930571Y-89397142D01*
X134044857Y-89340000D01*
X134273428Y-89282857D01*
X134444857Y-89282857D01*
X134673428Y-89340000D01*
X134787714Y-89397142D01*
X134902000Y-89511428D01*
X134959142Y-89682857D01*
X134959142Y-89797142D01*
X134902000Y-89968571D01*
X134844857Y-90025714D01*
X133759142Y-91054285D02*
X134387714Y-91054285D01*
X134502000Y-90997142D01*
X134559142Y-90882857D01*
X134559142Y-90654285D01*
X134502000Y-90540000D01*
X133816285Y-91054285D02*
X133759142Y-90940000D01*
X133759142Y-90654285D01*
X133816285Y-90540000D01*
X133930571Y-90482857D01*
X134044857Y-90482857D01*
X134159142Y-90540000D01*
X134216285Y-90654285D01*
X134216285Y-90940000D01*
X134273428Y-91054285D01*
X133759142Y-91625714D02*
X134559142Y-91625714D01*
X134330571Y-91625714D02*
X134444857Y-91682857D01*
X134502000Y-91740000D01*
X134559142Y-91854285D01*
X134559142Y-91968571D01*
X133759142Y-92882857D02*
X134959142Y-92882857D01*
X133816285Y-92882857D02*
X133759142Y-92768571D01*
X133759142Y-92540000D01*
X133816285Y-92425714D01*
X133873428Y-92368571D01*
X133987714Y-92311428D01*
X134330571Y-92311428D01*
X134444857Y-92368571D01*
X134502000Y-92425714D01*
X134559142Y-92540000D01*
X134559142Y-92768571D01*
X134502000Y-92882857D01*
X133816285Y-94311428D02*
X133759142Y-94482857D01*
X133759142Y-94768571D01*
X133816285Y-94882857D01*
X133873428Y-94940000D01*
X133987714Y-94997142D01*
X134102000Y-94997142D01*
X134216285Y-94940000D01*
X134273428Y-94882857D01*
X134330571Y-94768571D01*
X134387714Y-94540000D01*
X134444857Y-94425714D01*
X134502000Y-94368571D01*
X134616285Y-94311428D01*
X134730571Y-94311428D01*
X134844857Y-94368571D01*
X134902000Y-94425714D01*
X134959142Y-94540000D01*
X134959142Y-94825714D01*
X134902000Y-94997142D01*
X134559142Y-96025714D02*
X133759142Y-96025714D01*
X134559142Y-95511428D02*
X133930571Y-95511428D01*
X133816285Y-95568571D01*
X133759142Y-95682857D01*
X133759142Y-95854285D01*
X133816285Y-95968571D01*
X133873428Y-96025714D01*
X133759142Y-96597142D02*
X134559142Y-96597142D01*
X134444857Y-96597142D02*
X134502000Y-96654285D01*
X134559142Y-96768571D01*
X134559142Y-96940000D01*
X134502000Y-97054285D01*
X134387714Y-97111428D01*
X133759142Y-97111428D01*
X134387714Y-97111428D02*
X134502000Y-97168571D01*
X134559142Y-97282857D01*
X134559142Y-97454285D01*
X134502000Y-97568571D01*
X134387714Y-97625714D01*
X133759142Y-97625714D01*
X133759142Y-98197142D02*
X134559142Y-98197142D01*
X134444857Y-98197142D02*
X134502000Y-98254285D01*
X134559142Y-98368571D01*
X134559142Y-98540000D01*
X134502000Y-98654285D01*
X134387714Y-98711428D01*
X133759142Y-98711428D01*
X134387714Y-98711428D02*
X134502000Y-98768571D01*
X134559142Y-98882857D01*
X134559142Y-99054285D01*
X134502000Y-99168571D01*
X134387714Y-99225714D01*
X133759142Y-99225714D01*
X133816285Y-100254285D02*
X133759142Y-100140000D01*
X133759142Y-99911428D01*
X133816285Y-99797142D01*
X133930571Y-99740000D01*
X134387714Y-99740000D01*
X134502000Y-99797142D01*
X134559142Y-99911428D01*
X134559142Y-100140000D01*
X134502000Y-100254285D01*
X134387714Y-100311428D01*
X134273428Y-100311428D01*
X134159142Y-99740000D01*
X133759142Y-100825714D02*
X134559142Y-100825714D01*
X134330571Y-100825714D02*
X134444857Y-100882857D01*
X134502000Y-100940000D01*
X134559142Y-101054285D01*
X134559142Y-101168571D01*
X131759142Y-80425714D02*
X132959142Y-80425714D01*
X132559142Y-80997142D02*
X131759142Y-80997142D01*
X132444857Y-80997142D02*
X132502000Y-81054285D01*
X132559142Y-81168571D01*
X132559142Y-81340000D01*
X132502000Y-81454285D01*
X132387714Y-81511428D01*
X131759142Y-81511428D01*
X131816285Y-82597142D02*
X131759142Y-82482857D01*
X131759142Y-82254285D01*
X131816285Y-82140000D01*
X131873428Y-82082857D01*
X131987714Y-82025714D01*
X132330571Y-82025714D01*
X132444857Y-82082857D01*
X132502000Y-82140000D01*
X132559142Y-82254285D01*
X132559142Y-82482857D01*
X132502000Y-82597142D01*
X131759142Y-83282857D02*
X131816285Y-83168571D01*
X131930571Y-83111428D01*
X132959142Y-83111428D01*
X132559142Y-84254285D02*
X131759142Y-84254285D01*
X132559142Y-83740000D02*
X131930571Y-83740000D01*
X131816285Y-83797142D01*
X131759142Y-83911428D01*
X131759142Y-84082857D01*
X131816285Y-84197142D01*
X131873428Y-84254285D01*
X131759142Y-85340000D02*
X132959142Y-85340000D01*
X131816285Y-85340000D02*
X131759142Y-85225714D01*
X131759142Y-84997142D01*
X131816285Y-84882857D01*
X131873428Y-84825714D01*
X131987714Y-84768571D01*
X132330571Y-84768571D01*
X132444857Y-84825714D01*
X132502000Y-84882857D01*
X132559142Y-84997142D01*
X132559142Y-85225714D01*
X132502000Y-85340000D01*
X131816285Y-86368571D02*
X131759142Y-86254285D01*
X131759142Y-86025714D01*
X131816285Y-85911428D01*
X131930571Y-85854285D01*
X132387714Y-85854285D01*
X132502000Y-85911428D01*
X132559142Y-86025714D01*
X132559142Y-86254285D01*
X132502000Y-86368571D01*
X132387714Y-86425714D01*
X132273428Y-86425714D01*
X132159142Y-85854285D01*
X131816285Y-86882857D02*
X131759142Y-86997142D01*
X131759142Y-87225714D01*
X131816285Y-87340000D01*
X131930571Y-87397142D01*
X131987714Y-87397142D01*
X132102000Y-87340000D01*
X132159142Y-87225714D01*
X132159142Y-87054285D01*
X132216285Y-86940000D01*
X132330571Y-86882857D01*
X132387714Y-86882857D01*
X132502000Y-86940000D01*
X132559142Y-87054285D01*
X132559142Y-87225714D01*
X132502000Y-87340000D01*
X131759142Y-88825714D02*
X132959142Y-88825714D01*
X132959142Y-89282857D01*
X132902000Y-89397142D01*
X132844857Y-89454285D01*
X132730571Y-89511428D01*
X132559142Y-89511428D01*
X132444857Y-89454285D01*
X132387714Y-89397142D01*
X132330571Y-89282857D01*
X132330571Y-88825714D01*
X132959142Y-89911428D02*
X132959142Y-90654285D01*
X132502000Y-90254285D01*
X132502000Y-90425714D01*
X132444857Y-90540000D01*
X132387714Y-90597142D01*
X132273428Y-90654285D01*
X131987714Y-90654285D01*
X131873428Y-90597142D01*
X131816285Y-90540000D01*
X131759142Y-90425714D01*
X131759142Y-90082857D01*
X131816285Y-89968571D01*
X131873428Y-89911428D01*
X133016285Y-92025714D02*
X131473428Y-90997142D01*
X132559142Y-92940000D02*
X131759142Y-92940000D01*
X133016285Y-92654285D02*
X132159142Y-92368571D01*
X132159142Y-93111428D01*
X131759142Y-94482857D02*
X132559142Y-94482857D01*
X132959142Y-94482857D02*
X132902000Y-94425714D01*
X132844857Y-94482857D01*
X132902000Y-94540000D01*
X132959142Y-94482857D01*
X132844857Y-94482857D01*
X132559142Y-95054285D02*
X131759142Y-95054285D01*
X132444857Y-95054285D02*
X132502000Y-95111428D01*
X132559142Y-95225714D01*
X132559142Y-95397142D01*
X132502000Y-95511428D01*
X132387714Y-95568571D01*
X131759142Y-95568571D01*
X132559142Y-96140000D02*
X131359142Y-96140000D01*
X132502000Y-96140000D02*
X132559142Y-96254285D01*
X132559142Y-96482857D01*
X132502000Y-96597142D01*
X132444857Y-96654285D01*
X132330571Y-96711428D01*
X131987714Y-96711428D01*
X131873428Y-96654285D01*
X131816285Y-96597142D01*
X131759142Y-96482857D01*
X131759142Y-96254285D01*
X131816285Y-96140000D01*
X132559142Y-97740000D02*
X131759142Y-97740000D01*
X132559142Y-97225714D02*
X131930571Y-97225714D01*
X131816285Y-97282857D01*
X131759142Y-97397142D01*
X131759142Y-97568571D01*
X131816285Y-97682857D01*
X131873428Y-97740000D01*
X132559142Y-98140000D02*
X132559142Y-98597142D01*
X132959142Y-98311428D02*
X131930571Y-98311428D01*
X131816285Y-98368571D01*
X131759142Y-98482857D01*
X131759142Y-98597142D01*
X131816285Y-98940000D02*
X131759142Y-99054285D01*
X131759142Y-99282857D01*
X131816285Y-99397142D01*
X131930571Y-99454285D01*
X131987714Y-99454285D01*
X132102000Y-99397142D01*
X132159142Y-99282857D01*
X132159142Y-99111428D01*
X132216285Y-98997142D01*
X132330571Y-98940000D01*
X132387714Y-98940000D01*
X132502000Y-98997142D01*
X132559142Y-99111428D01*
X132559142Y-99282857D01*
X132502000Y-99397142D01*
X131759142Y-101397142D02*
X132387714Y-101397142D01*
X132502000Y-101340000D01*
X132559142Y-101225714D01*
X132559142Y-100997142D01*
X132502000Y-100882857D01*
X131816285Y-101397142D02*
X131759142Y-101282857D01*
X131759142Y-100997142D01*
X131816285Y-100882857D01*
X131930571Y-100825714D01*
X132044857Y-100825714D01*
X132159142Y-100882857D01*
X132216285Y-100997142D01*
X132216285Y-101282857D01*
X132273428Y-101397142D01*
X132559142Y-101968571D02*
X131759142Y-101968571D01*
X132444857Y-101968571D02*
X132502000Y-102025714D01*
X132559142Y-102140000D01*
X132559142Y-102311428D01*
X132502000Y-102425714D01*
X132387714Y-102482857D01*
X131759142Y-102482857D01*
X131759142Y-103568571D02*
X132959142Y-103568571D01*
X131816285Y-103568571D02*
X131759142Y-103454285D01*
X131759142Y-103225714D01*
X131816285Y-103111428D01*
X131873428Y-103054285D01*
X131987714Y-102997142D01*
X132330571Y-102997142D01*
X132444857Y-103054285D01*
X132502000Y-103111428D01*
X132559142Y-103225714D01*
X132559142Y-103454285D01*
X132502000Y-103568571D01*
X131759142Y-105054285D02*
X132959142Y-105054285D01*
X131759142Y-105740000D01*
X132959142Y-105740000D01*
X132959142Y-106140000D02*
X132959142Y-106825714D01*
X131759142Y-106482857D02*
X132959142Y-106482857D01*
X131816285Y-107168571D02*
X131759142Y-107340000D01*
X131759142Y-107625714D01*
X131816285Y-107740000D01*
X131873428Y-107797142D01*
X131987714Y-107854285D01*
X132102000Y-107854285D01*
X132216285Y-107797142D01*
X132273428Y-107740000D01*
X132330571Y-107625714D01*
X132387714Y-107397142D01*
X132444857Y-107282857D01*
X132502000Y-107225714D01*
X132616285Y-107168571D01*
X132730571Y-107168571D01*
X132844857Y-107225714D01*
X132902000Y-107282857D01*
X132959142Y-107397142D01*
X132959142Y-107682857D01*
X132902000Y-107854285D01*
X131873428Y-109054285D02*
X131816285Y-108997142D01*
X131759142Y-108825714D01*
X131759142Y-108711428D01*
X131816285Y-108540000D01*
X131930571Y-108425714D01*
X132044857Y-108368571D01*
X132273428Y-108311428D01*
X132444857Y-108311428D01*
X132673428Y-108368571D01*
X132787714Y-108425714D01*
X132902000Y-108540000D01*
X132959142Y-108711428D01*
X132959142Y-108825714D01*
X132902000Y-108997142D01*
X132844857Y-109054285D01*
X132559142Y-110997142D02*
X131587714Y-110997142D01*
X131473428Y-110940000D01*
X131416285Y-110882857D01*
X131359142Y-110768571D01*
X131359142Y-110597142D01*
X131416285Y-110482857D01*
X131816285Y-110997142D02*
X131759142Y-110882857D01*
X131759142Y-110654285D01*
X131816285Y-110540000D01*
X131873428Y-110482857D01*
X131987714Y-110425714D01*
X132330571Y-110425714D01*
X132444857Y-110482857D01*
X132502000Y-110540000D01*
X132559142Y-110654285D01*
X132559142Y-110882857D01*
X132502000Y-110997142D01*
X131816285Y-112025714D02*
X131759142Y-111911428D01*
X131759142Y-111682857D01*
X131816285Y-111568571D01*
X131930571Y-111511428D01*
X132387714Y-111511428D01*
X132502000Y-111568571D01*
X132559142Y-111682857D01*
X132559142Y-111911428D01*
X132502000Y-112025714D01*
X132387714Y-112082857D01*
X132273428Y-112082857D01*
X132159142Y-111511428D01*
X132559142Y-112597142D02*
X131759142Y-112597142D01*
X132444857Y-112597142D02*
X132502000Y-112654285D01*
X132559142Y-112768571D01*
X132559142Y-112940000D01*
X132502000Y-113054285D01*
X132387714Y-113111428D01*
X131759142Y-113111428D01*
X131816285Y-114140000D02*
X131759142Y-114025714D01*
X131759142Y-113797142D01*
X131816285Y-113682857D01*
X131930571Y-113625714D01*
X132387714Y-113625714D01*
X132502000Y-113682857D01*
X132559142Y-113797142D01*
X132559142Y-114025714D01*
X132502000Y-114140000D01*
X132387714Y-114197142D01*
X132273428Y-114197142D01*
X132159142Y-113625714D01*
X131759142Y-114711428D02*
X132559142Y-114711428D01*
X132330571Y-114711428D02*
X132444857Y-114768571D01*
X132502000Y-114825714D01*
X132559142Y-114940000D01*
X132559142Y-115054285D01*
X131759142Y-115968571D02*
X132387714Y-115968571D01*
X132502000Y-115911428D01*
X132559142Y-115797142D01*
X132559142Y-115568571D01*
X132502000Y-115454285D01*
X131816285Y-115968571D02*
X131759142Y-115854285D01*
X131759142Y-115568571D01*
X131816285Y-115454285D01*
X131930571Y-115397142D01*
X132044857Y-115397142D01*
X132159142Y-115454285D01*
X132216285Y-115568571D01*
X132216285Y-115854285D01*
X132273428Y-115968571D01*
X132559142Y-116368571D02*
X132559142Y-116825714D01*
X132959142Y-116540000D02*
X131930571Y-116540000D01*
X131816285Y-116597142D01*
X131759142Y-116711428D01*
X131759142Y-116825714D01*
X131759142Y-117397142D02*
X131816285Y-117282857D01*
X131873428Y-117225714D01*
X131987714Y-117168571D01*
X132330571Y-117168571D01*
X132444857Y-117225714D01*
X132502000Y-117282857D01*
X132559142Y-117397142D01*
X132559142Y-117568571D01*
X132502000Y-117682857D01*
X132444857Y-117740000D01*
X132330571Y-117797142D01*
X131987714Y-117797142D01*
X131873428Y-117740000D01*
X131816285Y-117682857D01*
X131759142Y-117568571D01*
X131759142Y-117397142D01*
X131759142Y-118311428D02*
X132559142Y-118311428D01*
X132330571Y-118311428D02*
X132444857Y-118368571D01*
X132502000Y-118425714D01*
X132559142Y-118540000D01*
X132559142Y-118654285D01*
X130844857Y-80368571D02*
X130902000Y-80425714D01*
X130959142Y-80540000D01*
X130959142Y-80825714D01*
X130902000Y-80940000D01*
X130844857Y-80997142D01*
X130730571Y-81054285D01*
X130616285Y-81054285D01*
X130444857Y-80997142D01*
X129759142Y-80311428D01*
X129759142Y-81054285D01*
X130216285Y-81568571D02*
X130216285Y-82482857D01*
X130959142Y-83568571D02*
X130959142Y-83340000D01*
X130902000Y-83225714D01*
X130844857Y-83168571D01*
X130673428Y-83054285D01*
X130444857Y-82997142D01*
X129987714Y-82997142D01*
X129873428Y-83054285D01*
X129816285Y-83111428D01*
X129759142Y-83225714D01*
X129759142Y-83454285D01*
X129816285Y-83568571D01*
X129873428Y-83625714D01*
X129987714Y-83682857D01*
X130273428Y-83682857D01*
X130387714Y-83625714D01*
X130444857Y-83568571D01*
X130502000Y-83454285D01*
X130502000Y-83225714D01*
X130444857Y-83111428D01*
X130387714Y-83054285D01*
X130273428Y-82997142D01*
X130216285Y-84197142D02*
X130216285Y-85111428D01*
X130844857Y-85625714D02*
X130902000Y-85682857D01*
X130959142Y-85797142D01*
X130959142Y-86082857D01*
X130902000Y-86197142D01*
X130844857Y-86254285D01*
X130730571Y-86311428D01*
X130616285Y-86311428D01*
X130444857Y-86254285D01*
X129759142Y-85568571D01*
X129759142Y-86311428D01*
X130959142Y-87054285D02*
X130959142Y-87168571D01*
X130902000Y-87282857D01*
X130844857Y-87340000D01*
X130730571Y-87397142D01*
X130502000Y-87454285D01*
X130216285Y-87454285D01*
X129987714Y-87397142D01*
X129873428Y-87340000D01*
X129816285Y-87282857D01*
X129759142Y-87168571D01*
X129759142Y-87054285D01*
X129816285Y-86940000D01*
X129873428Y-86882857D01*
X129987714Y-86825714D01*
X130216285Y-86768571D01*
X130502000Y-86768571D01*
X130730571Y-86825714D01*
X130844857Y-86882857D01*
X130902000Y-86940000D01*
X130959142Y-87054285D01*
X129759142Y-88597142D02*
X129759142Y-87911428D01*
X129759142Y-88254285D02*
X130959142Y-88254285D01*
X130787714Y-88140000D01*
X130673428Y-88025714D01*
X130616285Y-87911428D01*
X129759142Y-89168571D02*
X129759142Y-89397142D01*
X129816285Y-89511428D01*
X129873428Y-89568571D01*
X130044857Y-89682857D01*
X130273428Y-89740000D01*
X130730571Y-89740000D01*
X130844857Y-89682857D01*
X130902000Y-89625714D01*
X130959142Y-89511428D01*
X130959142Y-89282857D01*
X130902000Y-89168571D01*
X130844857Y-89111428D01*
X130730571Y-89054285D01*
X130444857Y-89054285D01*
X130330571Y-89111428D01*
X130273428Y-89168571D01*
X130216285Y-89282857D01*
X130216285Y-89511428D01*
X130273428Y-89625714D01*
X130330571Y-89682857D01*
X130444857Y-89740000D01*
X129759142Y-91168571D02*
X130559142Y-91168571D01*
X130330571Y-91168571D02*
X130444857Y-91225714D01*
X130502000Y-91282857D01*
X130559142Y-91397142D01*
X130559142Y-91511428D01*
X129759142Y-92540000D02*
X129759142Y-91854285D01*
X129759142Y-92197142D02*
X130959142Y-92197142D01*
X130787714Y-92082857D01*
X130673428Y-91968571D01*
X130616285Y-91854285D01*
X129873428Y-93054285D02*
X129816285Y-93111428D01*
X129759142Y-93054285D01*
X129816285Y-92997142D01*
X129873428Y-93054285D01*
X129759142Y-93054285D01*
X129759142Y-94254285D02*
X129759142Y-93568571D01*
X129759142Y-93911428D02*
X130959142Y-93911428D01*
X130787714Y-93797142D01*
X130673428Y-93682857D01*
X130616285Y-93568571D01*
X128959142Y-80425714D02*
X127987714Y-80425714D01*
X127873428Y-80482857D01*
X127816285Y-80540000D01*
X127759142Y-80654285D01*
X127759142Y-80882857D01*
X127816285Y-80997142D01*
X127873428Y-81054285D01*
X127987714Y-81111428D01*
X128959142Y-81111428D01*
X128559142Y-81682857D02*
X127759142Y-81682857D01*
X128444857Y-81682857D02*
X128502000Y-81740000D01*
X128559142Y-81854285D01*
X128559142Y-82025714D01*
X128502000Y-82140000D01*
X128387714Y-82197142D01*
X127759142Y-82197142D01*
X127759142Y-82768571D02*
X128559142Y-82768571D01*
X128959142Y-82768571D02*
X128902000Y-82711428D01*
X128844857Y-82768571D01*
X128902000Y-82825714D01*
X128959142Y-82768571D01*
X128844857Y-82768571D01*
X128559142Y-83225714D02*
X127759142Y-83511428D01*
X128559142Y-83797142D01*
X127816285Y-84711428D02*
X127759142Y-84597142D01*
X127759142Y-84368571D01*
X127816285Y-84254285D01*
X127930571Y-84197142D01*
X128387714Y-84197142D01*
X128502000Y-84254285D01*
X128559142Y-84368571D01*
X128559142Y-84597142D01*
X128502000Y-84711428D01*
X128387714Y-84768571D01*
X128273428Y-84768571D01*
X128159142Y-84197142D01*
X127759142Y-85282857D02*
X128559142Y-85282857D01*
X128330571Y-85282857D02*
X128444857Y-85340000D01*
X128502000Y-85397142D01*
X128559142Y-85511428D01*
X128559142Y-85625714D01*
X127816285Y-85968571D02*
X127759142Y-86082857D01*
X127759142Y-86311428D01*
X127816285Y-86425714D01*
X127930571Y-86482857D01*
X127987714Y-86482857D01*
X128102000Y-86425714D01*
X128159142Y-86311428D01*
X128159142Y-86140000D01*
X128216285Y-86025714D01*
X128330571Y-85968571D01*
X128387714Y-85968571D01*
X128502000Y-86025714D01*
X128559142Y-86140000D01*
X128559142Y-86311428D01*
X128502000Y-86425714D01*
X127759142Y-86997142D02*
X128559142Y-86997142D01*
X128959142Y-86997142D02*
X128902000Y-86940000D01*
X128844857Y-86997142D01*
X128902000Y-87054285D01*
X128959142Y-86997142D01*
X128844857Y-86997142D01*
X128559142Y-87397142D02*
X128559142Y-87854285D01*
X128959142Y-87568571D02*
X127930571Y-87568571D01*
X127816285Y-87625714D01*
X127759142Y-87740000D01*
X127759142Y-87854285D01*
X128559142Y-88140000D02*
X127759142Y-88425714D01*
X128559142Y-88711428D02*
X127759142Y-88425714D01*
X127473428Y-88311428D01*
X127416285Y-88254285D01*
X127359142Y-88140000D01*
X127759142Y-90254285D02*
X127816285Y-90140000D01*
X127873428Y-90082857D01*
X127987714Y-90025714D01*
X128330571Y-90025714D01*
X128444857Y-90082857D01*
X128502000Y-90140000D01*
X128559142Y-90254285D01*
X128559142Y-90425714D01*
X128502000Y-90540000D01*
X128444857Y-90597142D01*
X128330571Y-90654285D01*
X127987714Y-90654285D01*
X127873428Y-90597142D01*
X127816285Y-90540000D01*
X127759142Y-90425714D01*
X127759142Y-90254285D01*
X128559142Y-90997142D02*
X128559142Y-91454285D01*
X127759142Y-91168571D02*
X128787714Y-91168571D01*
X128902000Y-91225714D01*
X128959142Y-91340000D01*
X128959142Y-91454285D01*
X127759142Y-92768571D02*
X128959142Y-92768571D01*
X128959142Y-93225714D01*
X128902000Y-93340000D01*
X128844857Y-93397142D01*
X128730571Y-93454285D01*
X128559142Y-93454285D01*
X128444857Y-93397142D01*
X128387714Y-93340000D01*
X128330571Y-93225714D01*
X128330571Y-92768571D01*
X127759142Y-93968571D02*
X128559142Y-93968571D01*
X128959142Y-93968571D02*
X128902000Y-93911428D01*
X128844857Y-93968571D01*
X128902000Y-94025714D01*
X128959142Y-93968571D01*
X128844857Y-93968571D01*
X128559142Y-94368571D02*
X128559142Y-94825714D01*
X128959142Y-94540000D02*
X127930571Y-94540000D01*
X127816285Y-94597142D01*
X127759142Y-94711428D01*
X127759142Y-94825714D01*
X128559142Y-95054285D02*
X128559142Y-95511428D01*
X128959142Y-95225714D02*
X127930571Y-95225714D01*
X127816285Y-95282857D01*
X127759142Y-95397142D01*
X127759142Y-95511428D01*
X127816285Y-95854285D02*
X127759142Y-95968571D01*
X127759142Y-96197142D01*
X127816285Y-96311428D01*
X127930571Y-96368571D01*
X127987714Y-96368571D01*
X128102000Y-96311428D01*
X128159142Y-96197142D01*
X128159142Y-96025714D01*
X128216285Y-95911428D01*
X128330571Y-95854285D01*
X128387714Y-95854285D01*
X128502000Y-95911428D01*
X128559142Y-96025714D01*
X128559142Y-96197142D01*
X128502000Y-96311428D01*
X127759142Y-96882857D02*
X128959142Y-96882857D01*
X128502000Y-96882857D02*
X128559142Y-96997142D01*
X128559142Y-97225714D01*
X128502000Y-97340000D01*
X128444857Y-97397142D01*
X128330571Y-97454285D01*
X127987714Y-97454285D01*
X127873428Y-97397142D01*
X127816285Y-97340000D01*
X127759142Y-97225714D01*
X127759142Y-96997142D01*
X127816285Y-96882857D01*
X128559142Y-98482857D02*
X127759142Y-98482857D01*
X128559142Y-97968571D02*
X127930571Y-97968571D01*
X127816285Y-98025714D01*
X127759142Y-98140000D01*
X127759142Y-98311428D01*
X127816285Y-98425714D01*
X127873428Y-98482857D01*
X127759142Y-99054285D02*
X128559142Y-99054285D01*
X128330571Y-99054285D02*
X128444857Y-99111428D01*
X128502000Y-99168571D01*
X128559142Y-99282857D01*
X128559142Y-99397142D01*
X128559142Y-100311428D02*
X127587714Y-100311428D01*
X127473428Y-100254285D01*
X127416285Y-100197142D01*
X127359142Y-100082857D01*
X127359142Y-99911428D01*
X127416285Y-99797142D01*
X127816285Y-100311428D02*
X127759142Y-100197142D01*
X127759142Y-99968571D01*
X127816285Y-99854285D01*
X127873428Y-99797142D01*
X127987714Y-99740000D01*
X128330571Y-99740000D01*
X128444857Y-99797142D01*
X128502000Y-99854285D01*
X128559142Y-99968571D01*
X128559142Y-100197142D01*
X128502000Y-100311428D01*
X127759142Y-100882857D02*
X128959142Y-100882857D01*
X127759142Y-101397142D02*
X128387714Y-101397142D01*
X128502000Y-101340000D01*
X128559142Y-101225714D01*
X128559142Y-101054285D01*
X128502000Y-100940000D01*
X128444857Y-100882857D01*
X126959142Y-80654285D02*
X126959142Y-80882857D01*
X126902000Y-80997142D01*
X126787714Y-81111428D01*
X126559142Y-81168571D01*
X126159142Y-81168571D01*
X125930571Y-81111428D01*
X125816285Y-80997142D01*
X125759142Y-80882857D01*
X125759142Y-80654285D01*
X125816285Y-80540000D01*
X125930571Y-80425714D01*
X126159142Y-80368571D01*
X126559142Y-80368571D01*
X126787714Y-80425714D01*
X126902000Y-80540000D01*
X126959142Y-80654285D01*
X125759142Y-82197142D02*
X126959142Y-82197142D01*
X125816285Y-82197142D02*
X125759142Y-82082857D01*
X125759142Y-81854285D01*
X125816285Y-81740000D01*
X125873428Y-81682857D01*
X125987714Y-81625714D01*
X126330571Y-81625714D01*
X126444857Y-81682857D01*
X126502000Y-81740000D01*
X126559142Y-81854285D01*
X126559142Y-82082857D01*
X126502000Y-82197142D01*
X126559142Y-82654285D02*
X125759142Y-82940000D01*
X126559142Y-83225714D02*
X125759142Y-82940000D01*
X125473428Y-82825714D01*
X125416285Y-82768571D01*
X125359142Y-82654285D01*
X125816285Y-83625714D02*
X125759142Y-83740000D01*
X125759142Y-83968571D01*
X125816285Y-84082857D01*
X125930571Y-84140000D01*
X125987714Y-84140000D01*
X126102000Y-84082857D01*
X126159142Y-83968571D01*
X126159142Y-83797142D01*
X126216285Y-83682857D01*
X126330571Y-83625714D01*
X126387714Y-83625714D01*
X126502000Y-83682857D01*
X126559142Y-83797142D01*
X126559142Y-83968571D01*
X126502000Y-84082857D01*
X125816285Y-84597142D02*
X125759142Y-84711428D01*
X125759142Y-84940000D01*
X125816285Y-85054285D01*
X125930571Y-85111428D01*
X125987714Y-85111428D01*
X126102000Y-85054285D01*
X126159142Y-84940000D01*
X126159142Y-84768571D01*
X126216285Y-84654285D01*
X126330571Y-84597142D01*
X126387714Y-84597142D01*
X126502000Y-84654285D01*
X126559142Y-84768571D01*
X126559142Y-84940000D01*
X126502000Y-85054285D01*
X125816285Y-86082857D02*
X125759142Y-85968571D01*
X125759142Y-85740000D01*
X125816285Y-85625714D01*
X125930571Y-85568571D01*
X126387714Y-85568571D01*
X126502000Y-85625714D01*
X126559142Y-85740000D01*
X126559142Y-85968571D01*
X126502000Y-86082857D01*
X126387714Y-86140000D01*
X126273428Y-86140000D01*
X126159142Y-85568571D01*
X126559142Y-86540000D02*
X125759142Y-86825714D01*
X126559142Y-87111428D02*
X125759142Y-86825714D01*
X125473428Y-86711428D01*
X125416285Y-86654285D01*
X125359142Y-86540000D01*
X125759142Y-89168571D02*
X126330571Y-88768571D01*
X125759142Y-88482857D02*
X126959142Y-88482857D01*
X126959142Y-88940000D01*
X126902000Y-89054285D01*
X126844857Y-89111428D01*
X126730571Y-89168571D01*
X126559142Y-89168571D01*
X126444857Y-89111428D01*
X126387714Y-89054285D01*
X126330571Y-88940000D01*
X126330571Y-88482857D01*
X125816285Y-90140000D02*
X125759142Y-90025714D01*
X125759142Y-89797142D01*
X125816285Y-89682857D01*
X125930571Y-89625714D01*
X126387714Y-89625714D01*
X126502000Y-89682857D01*
X126559142Y-89797142D01*
X126559142Y-90025714D01*
X126502000Y-90140000D01*
X126387714Y-90197142D01*
X126273428Y-90197142D01*
X126159142Y-89625714D01*
X125816285Y-90654285D02*
X125759142Y-90768571D01*
X125759142Y-90997142D01*
X125816285Y-91111428D01*
X125930571Y-91168571D01*
X125987714Y-91168571D01*
X126102000Y-91111428D01*
X126159142Y-90997142D01*
X126159142Y-90825714D01*
X126216285Y-90711428D01*
X126330571Y-90654285D01*
X126387714Y-90654285D01*
X126502000Y-90711428D01*
X126559142Y-90825714D01*
X126559142Y-90997142D01*
X126502000Y-91111428D01*
X126559142Y-91511428D02*
X126559142Y-91968571D01*
X126959142Y-91682857D02*
X125930571Y-91682857D01*
X125816285Y-91740000D01*
X125759142Y-91854285D01*
X125759142Y-91968571D01*
X125759142Y-92540000D02*
X125816285Y-92425714D01*
X125873428Y-92368571D01*
X125987714Y-92311428D01*
X126330571Y-92311428D01*
X126444857Y-92368571D01*
X126502000Y-92425714D01*
X126559142Y-92540000D01*
X126559142Y-92711428D01*
X126502000Y-92825714D01*
X126444857Y-92882857D01*
X126330571Y-92940000D01*
X125987714Y-92940000D01*
X125873428Y-92882857D01*
X125816285Y-92825714D01*
X125759142Y-92711428D01*
X125759142Y-92540000D01*
X125759142Y-93454285D02*
X126559142Y-93454285D01*
X126330571Y-93454285D02*
X126444857Y-93511428D01*
X126502000Y-93568571D01*
X126559142Y-93682857D01*
X126559142Y-93797142D01*
X125759142Y-94711428D02*
X126387714Y-94711428D01*
X126502000Y-94654285D01*
X126559142Y-94540000D01*
X126559142Y-94311428D01*
X126502000Y-94197142D01*
X125816285Y-94711428D02*
X125759142Y-94597142D01*
X125759142Y-94311428D01*
X125816285Y-94197142D01*
X125930571Y-94140000D01*
X126044857Y-94140000D01*
X126159142Y-94197142D01*
X126216285Y-94311428D01*
X126216285Y-94597142D01*
X126273428Y-94711428D01*
X126559142Y-95111428D02*
X126559142Y-95568571D01*
X126959142Y-95282857D02*
X125930571Y-95282857D01*
X125816285Y-95340000D01*
X125759142Y-95454285D01*
X125759142Y-95568571D01*
X125759142Y-95968571D02*
X126559142Y-95968571D01*
X126959142Y-95968571D02*
X126902000Y-95911428D01*
X126844857Y-95968571D01*
X126902000Y-96025714D01*
X126959142Y-95968571D01*
X126844857Y-95968571D01*
X125759142Y-96711428D02*
X125816285Y-96597142D01*
X125873428Y-96540000D01*
X125987714Y-96482857D01*
X126330571Y-96482857D01*
X126444857Y-96540000D01*
X126502000Y-96597142D01*
X126559142Y-96711428D01*
X126559142Y-96882857D01*
X126502000Y-96997142D01*
X126444857Y-97054285D01*
X126330571Y-97111428D01*
X125987714Y-97111428D01*
X125873428Y-97054285D01*
X125816285Y-96997142D01*
X125759142Y-96882857D01*
X125759142Y-96711428D01*
X126559142Y-97625714D02*
X125759142Y-97625714D01*
X126444857Y-97625714D02*
X126502000Y-97682857D01*
X126559142Y-97797142D01*
X126559142Y-97968571D01*
X126502000Y-98082857D01*
X126387714Y-98140000D01*
X125759142Y-98140000D01*
X125759142Y-99625714D02*
X126959142Y-99625714D01*
X126959142Y-100082857D01*
X126902000Y-100197142D01*
X126844857Y-100254285D01*
X126730571Y-100311428D01*
X126559142Y-100311428D01*
X126444857Y-100254285D01*
X126387714Y-100197142D01*
X126330571Y-100082857D01*
X126330571Y-99625714D01*
X125759142Y-100825714D02*
X126559142Y-100825714D01*
X126330571Y-100825714D02*
X126444857Y-100882857D01*
X126502000Y-100940000D01*
X126559142Y-101054285D01*
X126559142Y-101168571D01*
X125759142Y-101740000D02*
X125816285Y-101625714D01*
X125873428Y-101568571D01*
X125987714Y-101511428D01*
X126330571Y-101511428D01*
X126444857Y-101568571D01*
X126502000Y-101625714D01*
X126559142Y-101740000D01*
X126559142Y-101911428D01*
X126502000Y-102025714D01*
X126444857Y-102082857D01*
X126330571Y-102140000D01*
X125987714Y-102140000D01*
X125873428Y-102082857D01*
X125816285Y-102025714D01*
X125759142Y-101911428D01*
X125759142Y-101740000D01*
X126559142Y-102654285D02*
X125530571Y-102654285D01*
X125416285Y-102597142D01*
X125359142Y-102482857D01*
X125359142Y-102425714D01*
X126959142Y-102654285D02*
X126902000Y-102597142D01*
X126844857Y-102654285D01*
X126902000Y-102711428D01*
X126959142Y-102654285D01*
X126844857Y-102654285D01*
X125816285Y-103682857D02*
X125759142Y-103568571D01*
X125759142Y-103340000D01*
X125816285Y-103225714D01*
X125930571Y-103168571D01*
X126387714Y-103168571D01*
X126502000Y-103225714D01*
X126559142Y-103340000D01*
X126559142Y-103568571D01*
X126502000Y-103682857D01*
X126387714Y-103740000D01*
X126273428Y-103740000D01*
X126159142Y-103168571D01*
X125816285Y-104768571D02*
X125759142Y-104654285D01*
X125759142Y-104425714D01*
X125816285Y-104311428D01*
X125873428Y-104254285D01*
X125987714Y-104197142D01*
X126330571Y-104197142D01*
X126444857Y-104254285D01*
X126502000Y-104311428D01*
X126559142Y-104425714D01*
X126559142Y-104654285D01*
X126502000Y-104768571D01*
X126559142Y-105111428D02*
X126559142Y-105568571D01*
X126959142Y-105282857D02*
X125930571Y-105282857D01*
X125816285Y-105340000D01*
X125759142Y-105454285D01*
X125759142Y-105568571D01*
D12*
G04 #@! TO.C,D1*
X141855000Y-117325000D02*
X141855000Y-115085000D01*
X141615000Y-117325000D02*
X141615000Y-115085000D01*
X141735000Y-117325000D02*
X141735000Y-115085000D01*
X137565000Y-116205000D02*
X138215000Y-116205000D01*
X143105000Y-116205000D02*
X142455000Y-116205000D01*
X138215000Y-117325000D02*
X142455000Y-117325000D01*
X138215000Y-115085000D02*
X138215000Y-117325000D01*
X142455000Y-115085000D02*
X138215000Y-115085000D01*
X142455000Y-117325000D02*
X142455000Y-115085000D01*
G04 #@! TO.C,D2*
X141982000Y-122024000D02*
X141982000Y-119784000D01*
X141742000Y-122024000D02*
X141742000Y-119784000D01*
X141862000Y-122024000D02*
X141862000Y-119784000D01*
X137692000Y-120904000D02*
X138342000Y-120904000D01*
X143232000Y-120904000D02*
X142582000Y-120904000D01*
X138342000Y-122024000D02*
X142582000Y-122024000D01*
X138342000Y-119784000D02*
X138342000Y-122024000D01*
X142582000Y-119784000D02*
X138342000Y-119784000D01*
X142582000Y-122024000D02*
X142582000Y-119784000D01*
G04 #@! TO.C,D3*
X138815000Y-105560000D02*
X138815000Y-107800000D01*
X139055000Y-105560000D02*
X139055000Y-107800000D01*
X138935000Y-105560000D02*
X138935000Y-107800000D01*
X143105000Y-106680000D02*
X142455000Y-106680000D01*
X137565000Y-106680000D02*
X138215000Y-106680000D01*
X142455000Y-105560000D02*
X138215000Y-105560000D01*
X142455000Y-107800000D02*
X142455000Y-105560000D01*
X138215000Y-107800000D02*
X142455000Y-107800000D01*
X138215000Y-105560000D02*
X138215000Y-107800000D01*
G04 #@! TO.C,D4*
X141982000Y-113219000D02*
X141982000Y-110979000D01*
X141742000Y-113219000D02*
X141742000Y-110979000D01*
X141862000Y-113219000D02*
X141862000Y-110979000D01*
X137692000Y-112099000D02*
X138342000Y-112099000D01*
X143232000Y-112099000D02*
X142582000Y-112099000D01*
X138342000Y-113219000D02*
X142582000Y-113219000D01*
X138342000Y-110979000D02*
X138342000Y-113219000D01*
X142582000Y-110979000D02*
X138342000Y-110979000D01*
X142582000Y-113219000D02*
X142582000Y-110979000D01*
G04 #@! TO.C,D5*
X141855000Y-104244000D02*
X141855000Y-102004000D01*
X141615000Y-104244000D02*
X141615000Y-102004000D01*
X141735000Y-104244000D02*
X141735000Y-102004000D01*
X137565000Y-103124000D02*
X138215000Y-103124000D01*
X143105000Y-103124000D02*
X142455000Y-103124000D01*
X138215000Y-104244000D02*
X142455000Y-104244000D01*
X138215000Y-102004000D02*
X138215000Y-104244000D01*
X142455000Y-102004000D02*
X138215000Y-102004000D01*
X142455000Y-104244000D02*
X142455000Y-102004000D01*
G04 #@! TO.C,D6*
X142455000Y-99545000D02*
X142455000Y-97305000D01*
X142455000Y-97305000D02*
X138215000Y-97305000D01*
X138215000Y-97305000D02*
X138215000Y-99545000D01*
X138215000Y-99545000D02*
X142455000Y-99545000D01*
X143105000Y-98425000D02*
X142455000Y-98425000D01*
X137565000Y-98425000D02*
X138215000Y-98425000D01*
X141735000Y-99545000D02*
X141735000Y-97305000D01*
X141615000Y-99545000D02*
X141615000Y-97305000D01*
X141855000Y-99545000D02*
X141855000Y-97305000D01*
G04 #@! TO.C,D7*
X138942000Y-93368000D02*
X138942000Y-95608000D01*
X139182000Y-93368000D02*
X139182000Y-95608000D01*
X139062000Y-93368000D02*
X139062000Y-95608000D01*
X143232000Y-94488000D02*
X142582000Y-94488000D01*
X137692000Y-94488000D02*
X138342000Y-94488000D01*
X142582000Y-93368000D02*
X138342000Y-93368000D01*
X142582000Y-95608000D02*
X142582000Y-93368000D01*
X138342000Y-95608000D02*
X142582000Y-95608000D01*
X138342000Y-93368000D02*
X138342000Y-95608000D01*
G04 #@! TO.C,D8*
X138342000Y-88965300D02*
X138342000Y-91205300D01*
X138342000Y-91205300D02*
X142582000Y-91205300D01*
X142582000Y-91205300D02*
X142582000Y-88965300D01*
X142582000Y-88965300D02*
X138342000Y-88965300D01*
X137692000Y-90085300D02*
X138342000Y-90085300D01*
X143232000Y-90085300D02*
X142582000Y-90085300D01*
X139062000Y-88965300D02*
X139062000Y-91205300D01*
X139182000Y-88965300D02*
X139182000Y-91205300D01*
X138942000Y-88965300D02*
X138942000Y-91205300D01*
G04 #@! TO.C,R1*
X143732000Y-87052700D02*
X143732000Y-86722700D01*
X137192000Y-87052700D02*
X143732000Y-87052700D01*
X137192000Y-86722700D02*
X137192000Y-87052700D01*
X143732000Y-84312700D02*
X143732000Y-84642700D01*
X137192000Y-84312700D02*
X143732000Y-84312700D01*
X137192000Y-84642700D02*
X137192000Y-84312700D01*
G04 #@! TO.C,R2*
X137192000Y-79910000D02*
X137192000Y-80240000D01*
X143732000Y-79910000D02*
X137192000Y-79910000D01*
X143732000Y-80240000D02*
X143732000Y-79910000D01*
X137192000Y-82650000D02*
X137192000Y-82320000D01*
X143732000Y-82650000D02*
X137192000Y-82650000D01*
X143732000Y-82320000D02*
X143732000Y-82650000D01*
G04 #@! TO.C,R3*
X149638000Y-79656000D02*
X149638000Y-79986000D01*
X156178000Y-79656000D02*
X149638000Y-79656000D01*
X156178000Y-79986000D02*
X156178000Y-79656000D01*
X149638000Y-82396000D02*
X149638000Y-82066000D01*
X156178000Y-82396000D02*
X149638000Y-82396000D01*
X156178000Y-82066000D02*
X156178000Y-82396000D01*
G04 #@! TO.C,C1*
X146408000Y-107704000D02*
X146408000Y-103664000D01*
X149248000Y-107704000D02*
X149248000Y-103664000D01*
X146408000Y-107704000D02*
X147033000Y-107704000D01*
X148623000Y-107704000D02*
X149248000Y-107704000D01*
X146408000Y-103664000D02*
X147033000Y-103664000D01*
X148623000Y-103664000D02*
X149248000Y-103664000D01*
G04 #@! TO.C,J2*
X164278000Y-94040000D02*
X166938000Y-94040000D01*
X164278000Y-91440000D02*
X164278000Y-94040000D01*
X166938000Y-91440000D02*
X166938000Y-94040000D01*
X164278000Y-91440000D02*
X166938000Y-91440000D01*
X164278000Y-90170000D02*
X164278000Y-88840000D01*
X164278000Y-88840000D02*
X165608000Y-88840000D01*
G04 #@! TO.C,R4*
X149638000Y-97004000D02*
X149638000Y-96674000D01*
X149638000Y-96674000D02*
X156178000Y-96674000D01*
X156178000Y-96674000D02*
X156178000Y-97004000D01*
X149638000Y-99084000D02*
X149638000Y-99414000D01*
X149638000Y-99414000D02*
X156178000Y-99414000D01*
X156178000Y-99414000D02*
X156178000Y-99084000D01*
G04 #@! TO.C,R5*
X156178000Y-95858000D02*
X156178000Y-95528000D01*
X149638000Y-95858000D02*
X156178000Y-95858000D01*
X149638000Y-95528000D02*
X149638000Y-95858000D01*
X156178000Y-93118000D02*
X156178000Y-93448000D01*
X149638000Y-93118000D02*
X156178000Y-93118000D01*
X149638000Y-93448000D02*
X149638000Y-93118000D01*
G04 #@! TO.C,R6*
X149638000Y-110629000D02*
X149638000Y-110959000D01*
X156178000Y-110629000D02*
X149638000Y-110629000D01*
X156178000Y-110959000D02*
X156178000Y-110629000D01*
X149638000Y-113369000D02*
X149638000Y-113039000D01*
X156178000Y-113369000D02*
X149638000Y-113369000D01*
X156178000Y-113039000D02*
X156178000Y-113369000D01*
G04 #@! TO.C,R7*
X149638000Y-114735000D02*
X149638000Y-115065000D01*
X156178000Y-114735000D02*
X149638000Y-114735000D01*
X156178000Y-115065000D02*
X156178000Y-114735000D01*
X149638000Y-117475000D02*
X149638000Y-117145000D01*
X156178000Y-117475000D02*
X149638000Y-117475000D01*
X156178000Y-117145000D02*
X156178000Y-117475000D01*
G04 #@! TO.C,R8*
X160552000Y-101632000D02*
X160882000Y-101632000D01*
X160882000Y-101632000D02*
X160882000Y-108172000D01*
X160882000Y-108172000D02*
X160552000Y-108172000D01*
X158472000Y-101632000D02*
X158142000Y-101632000D01*
X158142000Y-101632000D02*
X158142000Y-108172000D01*
X158142000Y-108172000D02*
X158472000Y-108172000D01*
G04 #@! TO.C,R9*
X156178000Y-121844000D02*
X156178000Y-122174000D01*
X156178000Y-122174000D02*
X149638000Y-122174000D01*
X149638000Y-122174000D02*
X149638000Y-121844000D01*
X156178000Y-119764000D02*
X156178000Y-119434000D01*
X156178000Y-119434000D02*
X149638000Y-119434000D01*
X149638000Y-119434000D02*
X149638000Y-119764000D01*
G04 #@! TO.C,R10*
X149638000Y-88800000D02*
X149638000Y-89130000D01*
X156178000Y-88800000D02*
X149638000Y-88800000D01*
X156178000Y-89130000D02*
X156178000Y-88800000D01*
X149638000Y-91540000D02*
X149638000Y-91210000D01*
X156178000Y-91540000D02*
X149638000Y-91540000D01*
X156178000Y-91210000D02*
X156178000Y-91540000D01*
G04 #@! TO.C,R11*
X156178000Y-86638000D02*
X156178000Y-86968000D01*
X156178000Y-86968000D02*
X149638000Y-86968000D01*
X149638000Y-86968000D02*
X149638000Y-86638000D01*
X156178000Y-84558000D02*
X156178000Y-84228000D01*
X156178000Y-84228000D02*
X149638000Y-84228000D01*
X149638000Y-84228000D02*
X149638000Y-84558000D01*
G04 #@! TO.C,R12*
X164568000Y-112490000D02*
X164238000Y-112490000D01*
X164238000Y-112490000D02*
X164238000Y-105950000D01*
X164238000Y-105950000D02*
X164568000Y-105950000D01*
X166648000Y-112490000D02*
X166978000Y-112490000D01*
X166978000Y-112490000D02*
X166978000Y-105950000D01*
X166978000Y-105950000D02*
X166648000Y-105950000D01*
D10*
G04 #@! TO.C,U1*
X155229000Y-103589000D02*
X155179000Y-103589000D01*
X155229000Y-107739000D02*
X155084000Y-107739000D01*
X150079000Y-107739000D02*
X150224000Y-107739000D01*
X150079000Y-103589000D02*
X150224000Y-103589000D01*
X155229000Y-103589000D02*
X155229000Y-107739000D01*
X150079000Y-103589000D02*
X150079000Y-107739000D01*
X155179000Y-103589000D02*
X155179000Y-102189000D01*
D12*
G04 #@! TO.C,J3*
X164278000Y-121824000D02*
X166938000Y-121824000D01*
X164278000Y-119224000D02*
X164278000Y-121824000D01*
X166938000Y-119224000D02*
X166938000Y-121824000D01*
X164278000Y-119224000D02*
X166938000Y-119224000D01*
X164278000Y-117954000D02*
X164278000Y-116624000D01*
X164278000Y-116624000D02*
X165608000Y-116624000D01*
G04 #@! TO.C,J1*
X164272920Y-87187080D02*
X166932920Y-87187080D01*
X164272920Y-82047080D02*
X164272920Y-87187080D01*
X166932920Y-82047080D02*
X166932920Y-87187080D01*
X164272920Y-82047080D02*
X166932920Y-82047080D01*
X164272920Y-80777080D02*
X164272920Y-79447080D01*
X164272920Y-79447080D02*
X165602920Y-79447080D01*
G04 #@! TO.C,D1*
D10*
X145819904Y-116657380D02*
X145819904Y-115657380D01*
X146058000Y-115657380D01*
X146200857Y-115705000D01*
X146296095Y-115800238D01*
X146343714Y-115895476D01*
X146391333Y-116085952D01*
X146391333Y-116228809D01*
X146343714Y-116419285D01*
X146296095Y-116514523D01*
X146200857Y-116609761D01*
X146058000Y-116657380D01*
X145819904Y-116657380D01*
X147343714Y-116657380D02*
X146772285Y-116657380D01*
X147058000Y-116657380D02*
X147058000Y-115657380D01*
X146962761Y-115800238D01*
X146867523Y-115895476D01*
X146772285Y-115943095D01*
X143883095Y-118457380D02*
X143883095Y-117457380D01*
X144454523Y-118457380D02*
X144025952Y-117885952D01*
X144454523Y-117457380D02*
X143883095Y-118028809D01*
G04 #@! TO.C,D2*
X145819904Y-121610386D02*
X145819904Y-120610386D01*
X146058000Y-120610386D01*
X146200857Y-120658006D01*
X146296095Y-120753244D01*
X146343714Y-120848482D01*
X146391333Y-121038958D01*
X146391333Y-121181815D01*
X146343714Y-121372291D01*
X146296095Y-121467529D01*
X146200857Y-121562767D01*
X146058000Y-121610386D01*
X145819904Y-121610386D01*
X146772285Y-120705625D02*
X146819904Y-120658006D01*
X146915142Y-120610386D01*
X147153238Y-120610386D01*
X147248476Y-120658006D01*
X147296095Y-120705625D01*
X147343714Y-120800863D01*
X147343714Y-120896101D01*
X147296095Y-121038958D01*
X146724666Y-121610386D01*
X147343714Y-121610386D01*
X144010095Y-123156380D02*
X144010095Y-122156380D01*
X144581523Y-123156380D02*
X144152952Y-122584952D01*
X144581523Y-122156380D02*
X144010095Y-122727809D01*
G04 #@! TO.C,D3*
X144803904Y-109672380D02*
X144803904Y-108672380D01*
X145042000Y-108672380D01*
X145184857Y-108720000D01*
X145280095Y-108815238D01*
X145327714Y-108910476D01*
X145375333Y-109100952D01*
X145375333Y-109243809D01*
X145327714Y-109434285D01*
X145280095Y-109529523D01*
X145184857Y-109624761D01*
X145042000Y-109672380D01*
X144803904Y-109672380D01*
X145708666Y-108672380D02*
X146327714Y-108672380D01*
X145994380Y-109053333D01*
X146137238Y-109053333D01*
X146232476Y-109100952D01*
X146280095Y-109148571D01*
X146327714Y-109243809D01*
X146327714Y-109481904D01*
X146280095Y-109577142D01*
X146232476Y-109624761D01*
X146137238Y-109672380D01*
X145851523Y-109672380D01*
X145756285Y-109624761D01*
X145708666Y-109577142D01*
X136263095Y-105332380D02*
X136263095Y-104332380D01*
X136834523Y-105332380D02*
X136405952Y-104760952D01*
X136834523Y-104332380D02*
X136263095Y-104903809D01*
G04 #@! TO.C,D4*
X145819904Y-112466718D02*
X145819904Y-111466718D01*
X146058000Y-111466718D01*
X146200857Y-111514338D01*
X146296095Y-111609576D01*
X146343714Y-111704814D01*
X146391333Y-111895290D01*
X146391333Y-112038147D01*
X146343714Y-112228623D01*
X146296095Y-112323861D01*
X146200857Y-112419099D01*
X146058000Y-112466718D01*
X145819904Y-112466718D01*
X147248476Y-111800052D02*
X147248476Y-112466718D01*
X147010380Y-111419099D02*
X146772285Y-112133385D01*
X147391333Y-112133385D01*
X144010095Y-114351380D02*
X144010095Y-113351380D01*
X144581523Y-114351380D02*
X144152952Y-113779952D01*
X144581523Y-113351380D02*
X144010095Y-113922809D01*
G04 #@! TO.C,D5*
X145946904Y-102814380D02*
X145946904Y-101814380D01*
X146185000Y-101814380D01*
X146327857Y-101862000D01*
X146423095Y-101957238D01*
X146470714Y-102052476D01*
X146518333Y-102242952D01*
X146518333Y-102385809D01*
X146470714Y-102576285D01*
X146423095Y-102671523D01*
X146327857Y-102766761D01*
X146185000Y-102814380D01*
X145946904Y-102814380D01*
X147423095Y-101814380D02*
X146946904Y-101814380D01*
X146899285Y-102290571D01*
X146946904Y-102242952D01*
X147042142Y-102195333D01*
X147280238Y-102195333D01*
X147375476Y-102242952D01*
X147423095Y-102290571D01*
X147470714Y-102385809D01*
X147470714Y-102623904D01*
X147423095Y-102719142D01*
X147375476Y-102766761D01*
X147280238Y-102814380D01*
X147042142Y-102814380D01*
X146946904Y-102766761D01*
X146899285Y-102719142D01*
X143883095Y-105376380D02*
X143883095Y-104376380D01*
X144454523Y-105376380D02*
X144025952Y-104804952D01*
X144454523Y-104376380D02*
X143883095Y-104947809D01*
G04 #@! TO.C,D6*
X145946904Y-98877380D02*
X145946904Y-97877380D01*
X146185000Y-97877380D01*
X146327857Y-97925000D01*
X146423095Y-98020238D01*
X146470714Y-98115476D01*
X146518333Y-98305952D01*
X146518333Y-98448809D01*
X146470714Y-98639285D01*
X146423095Y-98734523D01*
X146327857Y-98829761D01*
X146185000Y-98877380D01*
X145946904Y-98877380D01*
X147375476Y-97877380D02*
X147185000Y-97877380D01*
X147089761Y-97925000D01*
X147042142Y-97972619D01*
X146946904Y-98115476D01*
X146899285Y-98305952D01*
X146899285Y-98686904D01*
X146946904Y-98782142D01*
X146994523Y-98829761D01*
X147089761Y-98877380D01*
X147280238Y-98877380D01*
X147375476Y-98829761D01*
X147423095Y-98782142D01*
X147470714Y-98686904D01*
X147470714Y-98448809D01*
X147423095Y-98353571D01*
X147375476Y-98305952D01*
X147280238Y-98258333D01*
X147089761Y-98258333D01*
X146994523Y-98305952D01*
X146946904Y-98353571D01*
X146899285Y-98448809D01*
X143883095Y-100677380D02*
X143883095Y-99677380D01*
X144454523Y-100677380D02*
X144025952Y-100105952D01*
X144454523Y-99677380D02*
X143883095Y-100248809D01*
G04 #@! TO.C,D7*
X145946904Y-94940382D02*
X145946904Y-93940382D01*
X146185000Y-93940382D01*
X146327857Y-93988002D01*
X146423095Y-94083240D01*
X146470714Y-94178478D01*
X146518333Y-94368954D01*
X146518333Y-94511811D01*
X146470714Y-94702287D01*
X146423095Y-94797525D01*
X146327857Y-94892763D01*
X146185000Y-94940382D01*
X145946904Y-94940382D01*
X146851666Y-93940382D02*
X147518333Y-93940382D01*
X147089761Y-94940382D01*
X136390095Y-93140380D02*
X136390095Y-92140380D01*
X136961523Y-93140380D02*
X136532952Y-92568952D01*
X136961523Y-92140380D02*
X136390095Y-92711809D01*
G04 #@! TO.C,D8*
X145819904Y-90622348D02*
X145819904Y-89622348D01*
X146058000Y-89622348D01*
X146200857Y-89669968D01*
X146296095Y-89765206D01*
X146343714Y-89860444D01*
X146391333Y-90050920D01*
X146391333Y-90193777D01*
X146343714Y-90384253D01*
X146296095Y-90479491D01*
X146200857Y-90574729D01*
X146058000Y-90622348D01*
X145819904Y-90622348D01*
X146962761Y-90050920D02*
X146867523Y-90003301D01*
X146819904Y-89955682D01*
X146772285Y-89860444D01*
X146772285Y-89812825D01*
X146819904Y-89717587D01*
X146867523Y-89669968D01*
X146962761Y-89622348D01*
X147153238Y-89622348D01*
X147248476Y-89669968D01*
X147296095Y-89717587D01*
X147343714Y-89812825D01*
X147343714Y-89860444D01*
X147296095Y-89955682D01*
X147248476Y-90003301D01*
X147153238Y-90050920D01*
X146962761Y-90050920D01*
X146867523Y-90098539D01*
X146819904Y-90146158D01*
X146772285Y-90241396D01*
X146772285Y-90431872D01*
X146819904Y-90527110D01*
X146867523Y-90574729D01*
X146962761Y-90622348D01*
X147153238Y-90622348D01*
X147248476Y-90574729D01*
X147296095Y-90527110D01*
X147343714Y-90431872D01*
X147343714Y-90241396D01*
X147296095Y-90146158D01*
X147248476Y-90098539D01*
X147153238Y-90050920D01*
X136390095Y-88737680D02*
X136390095Y-87737680D01*
X136961523Y-88737680D02*
X136532952Y-88166252D01*
X136961523Y-87737680D02*
X136390095Y-88309109D01*
G04 #@! TO.C,R1*
X146391333Y-87701414D02*
X146058000Y-87225224D01*
X145819904Y-87701414D02*
X145819904Y-86701414D01*
X146200857Y-86701414D01*
X146296095Y-86749034D01*
X146343714Y-86796653D01*
X146391333Y-86891891D01*
X146391333Y-87034748D01*
X146343714Y-87129986D01*
X146296095Y-87177605D01*
X146200857Y-87225224D01*
X145819904Y-87225224D01*
X147343714Y-87701414D02*
X146772285Y-87701414D01*
X147058000Y-87701414D02*
X147058000Y-86701414D01*
X146962761Y-86844272D01*
X146867523Y-86939510D01*
X146772285Y-86987129D01*
G04 #@! TO.C,R2*
X146391333Y-81732380D02*
X146058000Y-81256190D01*
X145819904Y-81732380D02*
X145819904Y-80732380D01*
X146200857Y-80732380D01*
X146296095Y-80780000D01*
X146343714Y-80827619D01*
X146391333Y-80922857D01*
X146391333Y-81065714D01*
X146343714Y-81160952D01*
X146296095Y-81208571D01*
X146200857Y-81256190D01*
X145819904Y-81256190D01*
X146772285Y-80827619D02*
X146819904Y-80780000D01*
X146915142Y-80732380D01*
X147153238Y-80732380D01*
X147248476Y-80780000D01*
X147296095Y-80827619D01*
X147343714Y-80922857D01*
X147343714Y-81018095D01*
X147296095Y-81160952D01*
X146724666Y-81732380D01*
X147343714Y-81732380D01*
G04 #@! TO.C,R3*
X159250142Y-81478380D02*
X158916809Y-81002190D01*
X158678713Y-81478380D02*
X158678713Y-80478380D01*
X159059666Y-80478380D01*
X159154904Y-80526000D01*
X159202523Y-80573619D01*
X159250142Y-80668857D01*
X159250142Y-80811714D01*
X159202523Y-80906952D01*
X159154904Y-80954571D01*
X159059666Y-81002190D01*
X158678713Y-81002190D01*
X159583475Y-80478380D02*
X160202523Y-80478380D01*
X159869189Y-80859333D01*
X160012047Y-80859333D01*
X160107285Y-80906952D01*
X160154904Y-80954571D01*
X160202523Y-81049809D01*
X160202523Y-81287904D01*
X160154904Y-81383142D01*
X160107285Y-81430761D01*
X160012047Y-81478380D01*
X159726332Y-81478380D01*
X159631094Y-81430761D01*
X159583475Y-81383142D01*
G04 #@! TO.C,C1*
X148185142Y-109259666D02*
X148232761Y-109307285D01*
X148280380Y-109450142D01*
X148280380Y-109545380D01*
X148232761Y-109688238D01*
X148137523Y-109783476D01*
X148042285Y-109831095D01*
X147851809Y-109878714D01*
X147708952Y-109878714D01*
X147518476Y-109831095D01*
X147423238Y-109783476D01*
X147328000Y-109688238D01*
X147280380Y-109545380D01*
X147280380Y-109450142D01*
X147328000Y-109307285D01*
X147375619Y-109259666D01*
X148280380Y-108307285D02*
X148280380Y-108878714D01*
X148280380Y-108593000D02*
X147280380Y-108593000D01*
X147423238Y-108688238D01*
X147518476Y-108783476D01*
X147566095Y-108878714D01*
G04 #@! TO.C,J2*
X165274666Y-87292380D02*
X165274666Y-88006666D01*
X165227047Y-88149523D01*
X165131809Y-88244761D01*
X164988952Y-88292380D01*
X164893714Y-88292380D01*
X165703238Y-87387619D02*
X165750857Y-87340000D01*
X165846095Y-87292380D01*
X166084190Y-87292380D01*
X166179428Y-87340000D01*
X166227047Y-87387619D01*
X166274666Y-87482857D01*
X166274666Y-87578095D01*
X166227047Y-87720952D01*
X165655619Y-88292380D01*
X166274666Y-88292380D01*
G04 #@! TO.C,R4*
X159218333Y-98496380D02*
X158885000Y-98020190D01*
X158646904Y-98496380D02*
X158646904Y-97496380D01*
X159027857Y-97496380D01*
X159123095Y-97544000D01*
X159170714Y-97591619D01*
X159218333Y-97686857D01*
X159218333Y-97829714D01*
X159170714Y-97924952D01*
X159123095Y-97972571D01*
X159027857Y-98020190D01*
X158646904Y-98020190D01*
X160075476Y-97829714D02*
X160075476Y-98496380D01*
X159837380Y-97448761D02*
X159599285Y-98163047D01*
X160218333Y-98163047D01*
G04 #@! TO.C,R5*
X159218333Y-94813380D02*
X158885000Y-94337190D01*
X158646904Y-94813380D02*
X158646904Y-93813380D01*
X159027857Y-93813380D01*
X159123095Y-93861000D01*
X159170714Y-93908619D01*
X159218333Y-94003857D01*
X159218333Y-94146714D01*
X159170714Y-94241952D01*
X159123095Y-94289571D01*
X159027857Y-94337190D01*
X158646904Y-94337190D01*
X160123095Y-93813380D02*
X159646904Y-93813380D01*
X159599285Y-94289571D01*
X159646904Y-94241952D01*
X159742142Y-94194333D01*
X159980238Y-94194333D01*
X160075476Y-94241952D01*
X160123095Y-94289571D01*
X160170714Y-94384809D01*
X160170714Y-94622904D01*
X160123095Y-94718142D01*
X160075476Y-94765761D01*
X159980238Y-94813380D01*
X159742142Y-94813380D01*
X159646904Y-94765761D01*
X159599285Y-94718142D01*
G04 #@! TO.C,R6*
X159218333Y-112466380D02*
X158885000Y-111990190D01*
X158646904Y-112466380D02*
X158646904Y-111466380D01*
X159027857Y-111466380D01*
X159123095Y-111514000D01*
X159170714Y-111561619D01*
X159218333Y-111656857D01*
X159218333Y-111799714D01*
X159170714Y-111894952D01*
X159123095Y-111942571D01*
X159027857Y-111990190D01*
X158646904Y-111990190D01*
X160075476Y-111466380D02*
X159885000Y-111466380D01*
X159789761Y-111514000D01*
X159742142Y-111561619D01*
X159646904Y-111704476D01*
X159599285Y-111894952D01*
X159599285Y-112275904D01*
X159646904Y-112371142D01*
X159694523Y-112418761D01*
X159789761Y-112466380D01*
X159980238Y-112466380D01*
X160075476Y-112418761D01*
X160123095Y-112371142D01*
X160170714Y-112275904D01*
X160170714Y-112037809D01*
X160123095Y-111942571D01*
X160075476Y-111894952D01*
X159980238Y-111847333D01*
X159789761Y-111847333D01*
X159694523Y-111894952D01*
X159646904Y-111942571D01*
X159599285Y-112037809D01*
G04 #@! TO.C,R7*
X159218333Y-116530380D02*
X158885000Y-116054190D01*
X158646904Y-116530380D02*
X158646904Y-115530380D01*
X159027857Y-115530380D01*
X159123095Y-115578000D01*
X159170714Y-115625619D01*
X159218333Y-115720857D01*
X159218333Y-115863714D01*
X159170714Y-115958952D01*
X159123095Y-116006571D01*
X159027857Y-116054190D01*
X158646904Y-116054190D01*
X159551666Y-115530380D02*
X160218333Y-115530380D01*
X159789761Y-116530380D01*
G04 #@! TO.C,R8*
X162334380Y-105068666D02*
X161858190Y-105402000D01*
X162334380Y-105640095D02*
X161334380Y-105640095D01*
X161334380Y-105259142D01*
X161382000Y-105163904D01*
X161429619Y-105116285D01*
X161524857Y-105068666D01*
X161667714Y-105068666D01*
X161762952Y-105116285D01*
X161810571Y-105163904D01*
X161858190Y-105259142D01*
X161858190Y-105640095D01*
X161762952Y-104497238D02*
X161715333Y-104592476D01*
X161667714Y-104640095D01*
X161572476Y-104687714D01*
X161524857Y-104687714D01*
X161429619Y-104640095D01*
X161382000Y-104592476D01*
X161334380Y-104497238D01*
X161334380Y-104306761D01*
X161382000Y-104211523D01*
X161429619Y-104163904D01*
X161524857Y-104116285D01*
X161572476Y-104116285D01*
X161667714Y-104163904D01*
X161715333Y-104211523D01*
X161762952Y-104306761D01*
X161762952Y-104497238D01*
X161810571Y-104592476D01*
X161858190Y-104640095D01*
X161953428Y-104687714D01*
X162143904Y-104687714D01*
X162239142Y-104640095D01*
X162286761Y-104592476D01*
X162334380Y-104497238D01*
X162334380Y-104306761D01*
X162286761Y-104211523D01*
X162239142Y-104163904D01*
X162143904Y-104116285D01*
X161953428Y-104116285D01*
X161858190Y-104163904D01*
X161810571Y-104211523D01*
X161762952Y-104306761D01*
G04 #@! TO.C,R9*
X159218333Y-121229380D02*
X158885000Y-120753190D01*
X158646904Y-121229380D02*
X158646904Y-120229380D01*
X159027857Y-120229380D01*
X159123095Y-120277000D01*
X159170714Y-120324619D01*
X159218333Y-120419857D01*
X159218333Y-120562714D01*
X159170714Y-120657952D01*
X159123095Y-120705571D01*
X159027857Y-120753190D01*
X158646904Y-120753190D01*
X159694523Y-121229380D02*
X159885000Y-121229380D01*
X159980238Y-121181761D01*
X160027857Y-121134142D01*
X160123095Y-120991285D01*
X160170714Y-120800809D01*
X160170714Y-120419857D01*
X160123095Y-120324619D01*
X160075476Y-120277000D01*
X159980238Y-120229380D01*
X159789761Y-120229380D01*
X159694523Y-120277000D01*
X159646904Y-120324619D01*
X159599285Y-120419857D01*
X159599285Y-120657952D01*
X159646904Y-120753190D01*
X159694523Y-120800809D01*
X159789761Y-120848428D01*
X159980238Y-120848428D01*
X160075476Y-120800809D01*
X160123095Y-120753190D01*
X160170714Y-120657952D01*
G04 #@! TO.C,R10*
X159250142Y-90622380D02*
X158916809Y-90146190D01*
X158678714Y-90622380D02*
X158678714Y-89622380D01*
X159059666Y-89622380D01*
X159154904Y-89670000D01*
X159202523Y-89717619D01*
X159250142Y-89812857D01*
X159250142Y-89955714D01*
X159202523Y-90050952D01*
X159154904Y-90098571D01*
X159059666Y-90146190D01*
X158678714Y-90146190D01*
X160202523Y-90622380D02*
X159631095Y-90622380D01*
X159916809Y-90622380D02*
X159916809Y-89622380D01*
X159821571Y-89765238D01*
X159726333Y-89860476D01*
X159631095Y-89908095D01*
X160821571Y-89622380D02*
X160916809Y-89622380D01*
X161012047Y-89670000D01*
X161059666Y-89717619D01*
X161107285Y-89812857D01*
X161154904Y-90003333D01*
X161154904Y-90241428D01*
X161107285Y-90431904D01*
X161059666Y-90527142D01*
X161012047Y-90574761D01*
X160916809Y-90622380D01*
X160821571Y-90622380D01*
X160726333Y-90574761D01*
X160678714Y-90527142D01*
X160631095Y-90431904D01*
X160583476Y-90241428D01*
X160583476Y-90003333D01*
X160631095Y-89812857D01*
X160678714Y-89717619D01*
X160726333Y-89670000D01*
X160821571Y-89622380D01*
G04 #@! TO.C,R11*
X159250142Y-86050380D02*
X158916809Y-85574190D01*
X158678714Y-86050380D02*
X158678714Y-85050380D01*
X159059666Y-85050380D01*
X159154904Y-85098000D01*
X159202523Y-85145619D01*
X159250142Y-85240857D01*
X159250142Y-85383714D01*
X159202523Y-85478952D01*
X159154904Y-85526571D01*
X159059666Y-85574190D01*
X158678714Y-85574190D01*
X160202523Y-86050380D02*
X159631095Y-86050380D01*
X159916809Y-86050380D02*
X159916809Y-85050380D01*
X159821571Y-85193238D01*
X159726333Y-85288476D01*
X159631095Y-85336095D01*
X161154904Y-86050380D02*
X160583476Y-86050380D01*
X160869190Y-86050380D02*
X160869190Y-85050380D01*
X160773952Y-85193238D01*
X160678714Y-85288476D01*
X160583476Y-85336095D01*
G04 #@! TO.C,R12*
X163690380Y-109862857D02*
X163214190Y-110196190D01*
X163690380Y-110434285D02*
X162690380Y-110434285D01*
X162690380Y-110053333D01*
X162738000Y-109958095D01*
X162785619Y-109910476D01*
X162880857Y-109862857D01*
X163023714Y-109862857D01*
X163118952Y-109910476D01*
X163166571Y-109958095D01*
X163214190Y-110053333D01*
X163214190Y-110434285D01*
X163690380Y-108910476D02*
X163690380Y-109481904D01*
X163690380Y-109196190D02*
X162690380Y-109196190D01*
X162833238Y-109291428D01*
X162928476Y-109386666D01*
X162976095Y-109481904D01*
X162785619Y-108529523D02*
X162738000Y-108481904D01*
X162690380Y-108386666D01*
X162690380Y-108148571D01*
X162738000Y-108053333D01*
X162785619Y-108005714D01*
X162880857Y-107958095D01*
X162976095Y-107958095D01*
X163118952Y-108005714D01*
X163690380Y-108577142D01*
X163690380Y-107958095D01*
G04 #@! TO.C,U1*
X155606380Y-106425904D02*
X156415904Y-106425904D01*
X156511142Y-106378285D01*
X156558761Y-106330666D01*
X156606380Y-106235428D01*
X156606380Y-106044952D01*
X156558761Y-105949714D01*
X156511142Y-105902095D01*
X156415904Y-105854476D01*
X155606380Y-105854476D01*
X156606380Y-104854476D02*
X156606380Y-105425904D01*
X156606380Y-105140190D02*
X155606380Y-105140190D01*
X155749238Y-105235428D01*
X155844476Y-105330666D01*
X155892095Y-105425904D01*
G04 #@! TO.C,J3*
X165274666Y-115076380D02*
X165274666Y-115790666D01*
X165227047Y-115933523D01*
X165131809Y-116028761D01*
X164988952Y-116076380D01*
X164893714Y-116076380D01*
X165655619Y-115076380D02*
X166274666Y-115076380D01*
X165941333Y-115457333D01*
X166084190Y-115457333D01*
X166179428Y-115504952D01*
X166227047Y-115552571D01*
X166274666Y-115647809D01*
X166274666Y-115885904D01*
X166227047Y-115981142D01*
X166179428Y-116028761D01*
X166084190Y-116076380D01*
X165798476Y-116076380D01*
X165703238Y-116028761D01*
X165655619Y-115981142D01*
G04 #@! TO.C,J1*
X165269586Y-77899460D02*
X165269586Y-78613746D01*
X165221967Y-78756603D01*
X165126729Y-78851841D01*
X164983872Y-78899460D01*
X164888634Y-78899460D01*
X166269586Y-78899460D02*
X165698158Y-78899460D01*
X165983872Y-78899460D02*
X165983872Y-77899460D01*
X165888634Y-78042318D01*
X165793396Y-78137556D01*
X165698158Y-78185175D01*
G04 #@! TD*
M02*
