G04 #@! TF.GenerationSoftware,KiCad,Pcbnew,(2017-12-21 revision 23d71cfa9)-makepkg*
G04 #@! TF.CreationDate,2018-06-03T16:52:53-04:00*
G04 #@! TF.ProjectId,OdysseyDaughterCardSpotGenerator,4F647973736579446175676874657243,0.1*
G04 #@! TF.SameCoordinates,Original*
G04 #@! TF.FileFunction,Copper,L1,Top,Signal*
G04 #@! TF.FilePolarity,Positive*
%FSLAX46Y46*%
G04 Gerber Fmt 4.6, Leading zero omitted, Abs format (unit mm)*
G04 Created by KiCad (PCBNEW (2017-12-21 revision 23d71cfa9)-makepkg) date 06/03/18 16:52:53*
%MOMM*%
%LPD*%
G01*
G04 APERTURE LIST*
%ADD10C,1.600000*%
%ADD11C,1.400000*%
%ADD12O,1.600000X1.600000*%
%ADD13R,1.600000X1.600000*%
%ADD14R,1.500000X1.050000*%
%ADD15O,1.500000X1.050000*%
%ADD16C,0.800000*%
%ADD17C,0.250000*%
G04 APERTURE END LIST*
D10*
X148336000Y-83312000D03*
X148336000Y-80812000D03*
X155956000Y-99608000D03*
X155956000Y-102108000D03*
D11*
X149860000Y-102108000D03*
X149860000Y-99608000D03*
D10*
X149860000Y-94488000D03*
X149860000Y-96988000D03*
X148376000Y-116332000D03*
X150876000Y-116332000D03*
D12*
X137160000Y-80772000D03*
D13*
X144780000Y-80772000D03*
X144780000Y-120650000D03*
D12*
X137160000Y-120650000D03*
D14*
X155448000Y-88392000D03*
D15*
X155448000Y-90932000D03*
X155448000Y-89662000D03*
X156464000Y-106934000D03*
X156464000Y-105664000D03*
D14*
X156464000Y-108204000D03*
D15*
X149860000Y-89662000D03*
X149860000Y-88392000D03*
D14*
X149860000Y-90932000D03*
X150368000Y-108204000D03*
D15*
X150368000Y-105664000D03*
X150368000Y-106934000D03*
D10*
X144780000Y-84455000D03*
D12*
X137160000Y-84455000D03*
X144780000Y-95885000D03*
D10*
X137160000Y-95885000D03*
D12*
X144780000Y-88265000D03*
D10*
X137160000Y-88265000D03*
X137160000Y-103632000D03*
D12*
X144780000Y-103632000D03*
X137160000Y-107696000D03*
D10*
X144780000Y-107696000D03*
X144780000Y-99695000D03*
D12*
X137160000Y-99695000D03*
D10*
X144780000Y-92075000D03*
D12*
X137160000Y-92075000D03*
X137160000Y-116205000D03*
D10*
X144780000Y-116205000D03*
D16*
X135605800Y-94318300D03*
D17*
X148859900Y-91782300D02*
X155448000Y-91782300D01*
X145905300Y-88827700D02*
X148859900Y-91782300D01*
X145905300Y-88265000D02*
X145905300Y-88827700D01*
X144780000Y-88265000D02*
X145905300Y-88265000D01*
X155448000Y-90932000D02*
X155448000Y-91782300D01*
X139633800Y-94318300D02*
X135605800Y-94318300D01*
X143663500Y-98348000D02*
X139633800Y-94318300D01*
X152196000Y-98348000D02*
X143663500Y-98348000D01*
X155956000Y-102108000D02*
X152196000Y-98348000D01*
X145936900Y-116332000D02*
X148376000Y-116332000D01*
X145809900Y-116205000D02*
X145936900Y-116332000D01*
X144780000Y-116205000D02*
X145809900Y-116205000D01*
X145936900Y-118367800D02*
X144780000Y-119524700D01*
X145936900Y-116332000D02*
X145936900Y-118367800D01*
X144780000Y-120650000D02*
X144780000Y-119524700D01*
X149773000Y-99695000D02*
X149860000Y-99608000D01*
X144780000Y-99695000D02*
X149773000Y-99695000D01*
X147193000Y-94488000D02*
X149860000Y-94488000D01*
X144780000Y-92075000D02*
X147193000Y-94488000D01*
X149292700Y-114748700D02*
X149292700Y-106934000D01*
X150876000Y-116332000D02*
X149292700Y-114748700D01*
X150368000Y-106934000D02*
X149292700Y-106934000D01*
X149860000Y-88392000D02*
X155448000Y-88392000D01*
X156464000Y-108204000D02*
X150368000Y-108204000D01*
X156464000Y-105664000D02*
X150368000Y-105664000D01*
X140317300Y-105664000D02*
X150368000Y-105664000D01*
X138285300Y-107696000D02*
X140317300Y-105664000D01*
X137160000Y-107696000D02*
X138285300Y-107696000D01*
M02*
