G04 #@! TF.GenerationSoftware,KiCad,Pcbnew,(5.0.1)-3*
G04 #@! TF.CreationDate,2019-02-16T13:45:53-05:00*
G04 #@! TF.ProjectId,OdysseyDaughterCardSpotGenerator,4F647973736579446175676874657243,1.2*
G04 #@! TF.SameCoordinates,Original*
G04 #@! TF.FileFunction,Copper,L2,Bot,Signal*
G04 #@! TF.FilePolarity,Positive*
%FSLAX46Y46*%
G04 Gerber Fmt 4.6, Leading zero omitted, Abs format (unit mm)*
G04 Created by KiCad (PCBNEW (5.0.1)-3) date 2/16/2019 1:45:53 PM*
%MOMM*%
%LPD*%
G01*
G04 APERTURE LIST*
G04 #@! TA.AperFunction,SMDPad,CuDef*
%ADD10R,11.000000X3.250000*%
G04 #@! TD*
G04 #@! TA.AperFunction,ComponentPad*
%ADD11C,1.600000*%
G04 #@! TD*
G04 #@! TA.AperFunction,ComponentPad*
%ADD12C,1.400000*%
G04 #@! TD*
G04 #@! TA.AperFunction,ComponentPad*
%ADD13O,1.600000X1.600000*%
G04 #@! TD*
G04 #@! TA.AperFunction,ComponentPad*
%ADD14R,1.600000X1.600000*%
G04 #@! TD*
G04 #@! TA.AperFunction,ComponentPad*
%ADD15R,1.500000X1.050000*%
G04 #@! TD*
G04 #@! TA.AperFunction,ComponentPad*
%ADD16O,1.500000X1.050000*%
G04 #@! TD*
G04 #@! TA.AperFunction,ComponentPad*
%ADD17R,1.700000X1.700000*%
G04 #@! TD*
G04 #@! TA.AperFunction,ComponentPad*
%ADD18O,1.700000X1.700000*%
G04 #@! TD*
G04 #@! TA.AperFunction,ViaPad*
%ADD19C,0.800000*%
G04 #@! TD*
G04 #@! TA.AperFunction,Conductor*
%ADD20C,0.250000*%
G04 #@! TD*
G04 APERTURE END LIST*
D10*
G04 #@! TO.P,X1,10*
G04 #@! TO.N,/Card10*
X129000000Y-81250000D03*
G04 #@! TO.P,X1,9*
G04 #@! TO.N,/Card9*
X129000000Y-85638888D03*
G04 #@! TO.P,X1,8*
G04 #@! TO.N,/Card8*
X129000000Y-90027776D03*
G04 #@! TO.P,X1,7*
G04 #@! TO.N,/Card7*
X129000000Y-94416664D03*
G04 #@! TO.P,X1,6*
G04 #@! TO.N,/Card6*
X129000000Y-98805552D03*
G04 #@! TO.P,X1,5*
G04 #@! TO.N,/Card5*
X129000000Y-103194440D03*
G04 #@! TO.P,X1,4*
G04 #@! TO.N,/Card4*
X129000000Y-107583328D03*
G04 #@! TO.P,X1,3*
G04 #@! TO.N,GND*
X129000000Y-111972216D03*
G04 #@! TO.P,X1,2*
G04 #@! TO.N,/Card2*
X129000000Y-116361104D03*
G04 #@! TO.P,X1,1*
G04 #@! TO.N,/Card1*
X129000000Y-120749992D03*
G04 #@! TD*
D11*
G04 #@! TO.P,C1,1*
G04 #@! TO.N,Net-(C1-Pad1)*
X148336000Y-83312000D03*
G04 #@! TO.P,C1,2*
G04 #@! TO.N,Net-(C1-Pad2)*
X148336000Y-80812000D03*
G04 #@! TD*
G04 #@! TO.P,C2,2*
G04 #@! TO.N,Net-(C2-Pad2)*
X155956000Y-99608000D03*
G04 #@! TO.P,C2,1*
G04 #@! TO.N,/Card7*
X155956000Y-102108000D03*
G04 #@! TD*
D12*
G04 #@! TO.P,C3,1*
G04 #@! TO.N,Net-(C3-Pad1)*
X149860000Y-102108000D03*
G04 #@! TO.P,C3,2*
G04 #@! TO.N,Net-(C3-Pad2)*
X149860000Y-99608000D03*
G04 #@! TD*
D11*
G04 #@! TO.P,C4,1*
G04 #@! TO.N,Net-(C4-Pad1)*
X149860000Y-94488000D03*
G04 #@! TO.P,C4,2*
G04 #@! TO.N,/Card4*
X149860000Y-96988000D03*
G04 #@! TD*
G04 #@! TO.P,C5,2*
G04 #@! TO.N,Net-(C3-Pad1)*
X148376000Y-116332000D03*
G04 #@! TO.P,C5,1*
G04 #@! TO.N,/Card4*
X150876000Y-116332000D03*
G04 #@! TD*
D13*
G04 #@! TO.P,D1,2*
G04 #@! TO.N,/Card10*
X137160000Y-80772000D03*
D14*
G04 #@! TO.P,D1,1*
G04 #@! TO.N,Net-(C1-Pad2)*
X144780000Y-80772000D03*
G04 #@! TD*
G04 #@! TO.P,D2,1*
G04 #@! TO.N,Net-(C3-Pad1)*
X144780000Y-120650000D03*
D13*
G04 #@! TO.P,D2,2*
G04 #@! TO.N,/Card1*
X137160000Y-120650000D03*
G04 #@! TD*
D15*
G04 #@! TO.P,Q1,1*
G04 #@! TO.N,GND*
X155448000Y-88392000D03*
D16*
G04 #@! TO.P,Q1,3*
G04 #@! TO.N,Net-(C2-Pad2)*
X155448000Y-90932000D03*
G04 #@! TO.P,Q1,2*
G04 #@! TO.N,Net-(C1-Pad1)*
X155448000Y-89662000D03*
G04 #@! TD*
G04 #@! TO.P,Q2,2*
G04 #@! TO.N,/Card7*
X156464000Y-106934000D03*
G04 #@! TO.P,Q2,3*
G04 #@! TO.N,/Card5*
X156464000Y-105664000D03*
D15*
G04 #@! TO.P,Q2,1*
G04 #@! TO.N,GND*
X156464000Y-108204000D03*
G04 #@! TD*
D16*
G04 #@! TO.P,Q3,2*
G04 #@! TO.N,Net-(C3-Pad2)*
X149860000Y-89662000D03*
G04 #@! TO.P,Q3,3*
G04 #@! TO.N,GND*
X149860000Y-88392000D03*
D15*
G04 #@! TO.P,Q3,1*
G04 #@! TO.N,Net-(C4-Pad1)*
X149860000Y-90932000D03*
G04 #@! TD*
G04 #@! TO.P,Q4,1*
G04 #@! TO.N,GND*
X150368000Y-108204000D03*
D16*
G04 #@! TO.P,Q4,3*
G04 #@! TO.N,/Card5*
X150368000Y-105664000D03*
G04 #@! TO.P,Q4,2*
G04 #@! TO.N,/Card4*
X150368000Y-106934000D03*
G04 #@! TD*
D11*
G04 #@! TO.P,R1,1*
G04 #@! TO.N,Net-(C1-Pad2)*
X144780000Y-84455000D03*
D13*
G04 #@! TO.P,R1,2*
G04 #@! TO.N,/Card9*
X137160000Y-84455000D03*
G04 #@! TD*
G04 #@! TO.P,R2,2*
G04 #@! TO.N,Net-(C1-Pad1)*
X144780000Y-95885000D03*
D11*
G04 #@! TO.P,R2,1*
G04 #@! TO.N,/Card6*
X137160000Y-95885000D03*
G04 #@! TD*
D13*
G04 #@! TO.P,R3,2*
G04 #@! TO.N,Net-(C2-Pad2)*
X144780000Y-88265000D03*
D11*
G04 #@! TO.P,R3,1*
G04 #@! TO.N,/Card6*
X137160000Y-88265000D03*
G04 #@! TD*
G04 #@! TO.P,R4,1*
G04 #@! TO.N,/Card6*
X137160000Y-103632000D03*
D13*
G04 #@! TO.P,R4,2*
G04 #@! TO.N,/Card8*
X144780000Y-103632000D03*
G04 #@! TD*
G04 #@! TO.P,R5,2*
G04 #@! TO.N,/Card5*
X137160000Y-107696000D03*
D11*
G04 #@! TO.P,R5,1*
G04 #@! TO.N,/Card8*
X144780000Y-107696000D03*
G04 #@! TD*
G04 #@! TO.P,R6,1*
G04 #@! TO.N,Net-(C3-Pad2)*
X144780000Y-99695000D03*
D13*
G04 #@! TO.P,R6,2*
G04 #@! TO.N,/Card6*
X137160000Y-99695000D03*
G04 #@! TD*
D11*
G04 #@! TO.P,R7,1*
G04 #@! TO.N,Net-(C4-Pad1)*
X144780000Y-92075000D03*
D13*
G04 #@! TO.P,R7,2*
G04 #@! TO.N,/Card6*
X137160000Y-92075000D03*
G04 #@! TD*
G04 #@! TO.P,R8,2*
G04 #@! TO.N,/Card2*
X137160000Y-116205000D03*
D11*
G04 #@! TO.P,R8,1*
G04 #@! TO.N,Net-(C3-Pad1)*
X144780000Y-116205000D03*
G04 #@! TD*
D17*
G04 #@! TO.P,J1,1*
G04 #@! TO.N,/Card2*
X156718000Y-120904000D03*
D18*
G04 #@! TO.P,J1,2*
G04 #@! TO.N,/Card9*
X156718000Y-118364000D03*
G04 #@! TO.P,J1,3*
G04 #@! TO.N,GND*
X156718000Y-115824000D03*
G04 #@! TD*
D17*
G04 #@! TO.P,J2,1*
G04 #@! TO.N,/Card10*
X156718000Y-82550000D03*
D18*
G04 #@! TO.P,J2,2*
G04 #@! TO.N,/Card1*
X156718000Y-80010000D03*
G04 #@! TD*
D19*
G04 #@! TO.N,/Card7*
X135605800Y-94318300D03*
G04 #@! TD*
D20*
G04 #@! TO.N,Net-(C1-Pad1)*
X144780000Y-95885000D02*
X144780000Y-94759700D01*
X152211600Y-87530100D02*
X148336000Y-87530100D01*
X154343500Y-89662000D02*
X152211600Y-87530100D01*
X155448000Y-89662000D02*
X154343500Y-89662000D01*
X148336000Y-91203700D02*
X148336000Y-87530100D01*
X144780000Y-94759700D02*
X148336000Y-91203700D01*
X148336000Y-87530100D02*
X148336000Y-83312000D01*
G04 #@! TO.N,Net-(C1-Pad2)*
X144780000Y-80812000D02*
X148336000Y-80812000D01*
X144780000Y-84455000D02*
X144780000Y-80812000D01*
X144780000Y-80812000D02*
X144780000Y-80772000D01*
G04 #@! TO.N,Net-(C2-Pad2)*
X155956000Y-92290300D02*
X155956000Y-99608000D01*
X155448000Y-91782300D02*
X155956000Y-92290300D01*
X155448000Y-90932000D02*
X155448000Y-91782300D01*
G04 #@! TO.N,/Card7*
X156464000Y-106934000D02*
X155388700Y-106934000D01*
X155388700Y-102675300D02*
X155956000Y-102108000D01*
X155388700Y-106934000D02*
X155388700Y-102675300D01*
X134923700Y-94318300D02*
X134825300Y-94416700D01*
X135605800Y-94318300D02*
X134923700Y-94318300D01*
X129000000Y-94416700D02*
X134825300Y-94416700D01*
G04 #@! TO.N,Net-(C3-Pad1)*
X151443400Y-113264600D02*
X148376000Y-116332000D01*
X151443400Y-103691400D02*
X151443400Y-113264600D01*
X149860000Y-102108000D02*
X151443400Y-103691400D01*
G04 #@! TO.N,Net-(C3-Pad2)*
X150989300Y-98478700D02*
X149860000Y-99608000D01*
X150989300Y-89716000D02*
X150989300Y-98478700D01*
X150935300Y-89662000D02*
X150989300Y-89716000D01*
X149860000Y-89662000D02*
X150935300Y-89662000D01*
G04 #@! TO.N,Net-(C4-Pad1)*
X149860000Y-90932000D02*
X149860000Y-94488000D01*
G04 #@! TO.N,/Card4*
X150368000Y-106934000D02*
X149292700Y-106934000D01*
X149292700Y-106934000D02*
X149062500Y-106703700D01*
X136063400Y-108821400D02*
X134825300Y-107583300D01*
X146944800Y-108821400D02*
X136063400Y-108821400D01*
X149062500Y-106703700D02*
X146944800Y-108821400D01*
X129000000Y-107583300D02*
X134825300Y-107583300D01*
X148832200Y-98015800D02*
X149860000Y-96988000D01*
X148832200Y-106473400D02*
X148832200Y-98015800D01*
X149062500Y-106703700D02*
X148832200Y-106473400D01*
G04 #@! TO.N,/Card10*
X135303300Y-80772000D02*
X134825300Y-81250000D01*
X137160000Y-80772000D02*
X135303300Y-80772000D01*
X129000000Y-81250000D02*
X134825300Y-81250000D01*
G04 #@! TO.N,/Card1*
X134925300Y-120650000D02*
X134825300Y-120750000D01*
X137160000Y-120650000D02*
X134925300Y-120650000D01*
X129000000Y-120750000D02*
X134825300Y-120750000D01*
G04 #@! TO.N,GND*
X157539300Y-89408000D02*
X156523300Y-88392000D01*
X157539300Y-108204000D02*
X157539300Y-89408000D01*
X156464000Y-108204000D02*
X157539300Y-108204000D01*
X155448000Y-88392000D02*
X156523300Y-88392000D01*
X147450100Y-111972200D02*
X129000000Y-111972200D01*
X150368000Y-109054300D02*
X147450100Y-111972200D01*
X150368000Y-108204000D02*
X150368000Y-109054300D01*
X156718000Y-108458000D02*
X156464000Y-108204000D01*
X156718000Y-115824000D02*
X156718000Y-108458000D01*
G04 #@! TO.N,/Card5*
X136034700Y-104403800D02*
X134825300Y-103194400D01*
X136034700Y-107696000D02*
X136034700Y-104403800D01*
X137160000Y-107696000D02*
X136034700Y-107696000D01*
X129000000Y-103194400D02*
X134825300Y-103194400D01*
G04 #@! TO.N,/Card9*
X136009200Y-84455000D02*
X134825300Y-85638900D01*
X137160000Y-84455000D02*
X136009200Y-84455000D01*
X129000000Y-85638900D02*
X134825300Y-85638900D01*
G04 #@! TO.N,/Card6*
X137160000Y-88265000D02*
X137160000Y-92075000D01*
X137160000Y-92075000D02*
X137160000Y-95885000D01*
X137160000Y-99695000D02*
X137160000Y-103632000D01*
X129000000Y-98805500D02*
X134825300Y-98805500D01*
X137160000Y-98805500D02*
X134825300Y-98805500D01*
X137160000Y-95885000D02*
X137160000Y-98805500D01*
X137160000Y-98805500D02*
X137160000Y-99695000D01*
G04 #@! TO.N,/Card8*
X144780000Y-107696000D02*
X144780000Y-103632000D01*
X143654700Y-101381400D02*
X144780000Y-102506700D01*
X143654700Y-93164500D02*
X143654700Y-101381400D01*
X137605500Y-87115300D02*
X143654700Y-93164500D01*
X136645700Y-87115300D02*
X137605500Y-87115300D01*
X134825300Y-88935700D02*
X136645700Y-87115300D01*
X134825300Y-90027800D02*
X134825300Y-88935700D01*
X129000000Y-90027800D02*
X134825300Y-90027800D01*
X144780000Y-103632000D02*
X144780000Y-102506700D01*
G04 #@! TO.N,/Card2*
X134981400Y-116205000D02*
X134825300Y-116361100D01*
X137160000Y-116205000D02*
X134981400Y-116205000D01*
X129000000Y-116361100D02*
X134825300Y-116361100D01*
X155618000Y-120904000D02*
X156718000Y-120904000D01*
X147175001Y-120904000D02*
X155618000Y-120904000D01*
X142476001Y-116205000D02*
X147175001Y-120904000D01*
X137160000Y-116205000D02*
X142476001Y-116205000D01*
G04 #@! TD*
M02*
