G04 #@! TF.GenerationSoftware,KiCad,Pcbnew,(2017-12-21 revision 23d71cfa9)-makepkg*
G04 #@! TF.CreationDate,2018-08-18T12:49:31-04:00*
G04 #@! TF.ProjectId,OdysseyDaughterCardFlipFlop,4F647973736579446175676874657243,0.1*
G04 #@! TF.SameCoordinates,Original*
G04 #@! TF.FileFunction,Copper,L1,Top,Signal*
G04 #@! TF.FilePolarity,Positive*
%FSLAX46Y46*%
G04 Gerber Fmt 4.6, Leading zero omitted, Abs format (unit mm)*
G04 Created by KiCad (PCBNEW (2017-12-21 revision 23d71cfa9)-makepkg) date 08/18/18 12:49:31*
%MOMM*%
%LPD*%
G01*
G04 APERTURE LIST*
%ADD10C,1.600000*%
%ADD11O,1.500000X1.050000*%
%ADD12R,1.500000X1.050000*%
%ADD13O,1.600000X1.600000*%
%ADD14C,0.250000*%
G04 APERTURE END LIST*
D10*
X142160000Y-88900000D03*
X137160000Y-88900000D03*
X147908000Y-80772000D03*
X152908000Y-80772000D03*
X142240000Y-107696000D03*
X137240000Y-107696000D03*
X137160000Y-112776000D03*
X142160000Y-112776000D03*
D11*
X150368000Y-87122000D03*
X150368000Y-88392000D03*
D12*
X150368000Y-85852000D03*
X150368000Y-94488000D03*
D11*
X150368000Y-97028000D03*
X150368000Y-95758000D03*
X150876000Y-108458000D03*
X150876000Y-109728000D03*
D12*
X150876000Y-107188000D03*
X150876000Y-115824000D03*
D11*
X150876000Y-118364000D03*
X150876000Y-117094000D03*
D10*
X137160000Y-84836000D03*
D13*
X144780000Y-84836000D03*
X144780000Y-80772000D03*
D10*
X137160000Y-80772000D03*
D13*
X137160000Y-94488000D03*
D10*
X144780000Y-94488000D03*
D13*
X144780000Y-121412000D03*
D10*
X137160000Y-121412000D03*
X137160000Y-103124000D03*
D13*
X144780000Y-103124000D03*
D10*
X137160000Y-98552000D03*
D13*
X144780000Y-98552000D03*
D10*
X144780000Y-116840000D03*
D13*
X137160000Y-116840000D03*
D14*
X137697300Y-93362700D02*
X142160000Y-88900000D01*
X137160000Y-93362700D02*
X137697300Y-93362700D01*
X137160000Y-94488000D02*
X137160000Y-93362700D01*
X137160000Y-84836000D02*
X137160000Y-88900000D01*
X149292700Y-82156700D02*
X147908000Y-80772000D01*
X149292700Y-87122000D02*
X149292700Y-82156700D01*
X150368000Y-87122000D02*
X149292700Y-87122000D01*
X150368000Y-97028000D02*
X151443300Y-97028000D01*
X152908000Y-95563300D02*
X152908000Y-80772000D01*
X151443300Y-97028000D02*
X152908000Y-95563300D01*
X137240000Y-103204000D02*
X137240000Y-107696000D01*
X137160000Y-103124000D02*
X137240000Y-103204000D01*
X137160000Y-116840000D02*
X137160000Y-112776000D01*
X137160000Y-116840000D02*
X137160000Y-121412000D01*
X150631500Y-115824000D02*
X150876000Y-115824000D01*
X148364900Y-118090600D02*
X150631500Y-115824000D01*
X148364900Y-119428500D02*
X148364900Y-118090600D01*
X145199900Y-122593500D02*
X148364900Y-119428500D01*
X138341500Y-122593500D02*
X145199900Y-122593500D01*
X137160000Y-121412000D02*
X138341500Y-122593500D01*
X142160000Y-117666700D02*
X142160000Y-112776000D01*
X144780000Y-120286700D02*
X142160000Y-117666700D01*
X144780000Y-121412000D02*
X144780000Y-120286700D01*
X149800700Y-115266000D02*
X144780000Y-120286700D01*
X149800700Y-108458000D02*
X149800700Y-115266000D01*
X150876000Y-108458000D02*
X149800700Y-108458000D01*
X151443300Y-92562400D02*
X151443300Y-85852000D01*
X150368000Y-93637700D02*
X151443300Y-92562400D01*
X150368000Y-94488000D02*
X150368000Y-93637700D01*
X150368000Y-85852000D02*
X151443300Y-85852000D01*
X151951300Y-111653600D02*
X150876000Y-110578300D01*
X151951300Y-118364000D02*
X151951300Y-111653600D01*
X150876000Y-118364000D02*
X151951300Y-118364000D01*
X150876000Y-109728000D02*
X150876000Y-110578300D01*
X144780000Y-106172000D02*
X137160000Y-98552000D01*
X144780000Y-116840000D02*
X144780000Y-106172000D01*
M02*
