G04 #@! TF.GenerationSoftware,KiCad,Pcbnew,(2017-12-21 revision 23d71cfa9)-makepkg*
G04 #@! TF.CreationDate,2018-08-18T14:34:20-04:00*
G04 #@! TF.ProjectId,OdysseyDaughterCardSummer,4F647973736579446175676874657243,0.1*
G04 #@! TF.SameCoordinates,Original*
G04 #@! TF.FileFunction,Copper,L2,Bot,Signal*
G04 #@! TF.FilePolarity,Positive*
%FSLAX46Y46*%
G04 Gerber Fmt 4.6, Leading zero omitted, Abs format (unit mm)*
G04 Created by KiCad (PCBNEW (2017-12-21 revision 23d71cfa9)-makepkg) date 08/18/18 14:34:20*
%MOMM*%
%LPD*%
G01*
G04 APERTURE LIST*
%ADD10R,1.600000X1.600000*%
%ADD11O,1.600000X1.600000*%
%ADD12R,11.000000X3.250000*%
%ADD13C,4.000500*%
%ADD14C,1.600000*%
%ADD15C,0.250000*%
G04 APERTURE END LIST*
D10*
X154940000Y-80264000D03*
D11*
X162560000Y-80264000D03*
D12*
X129000000Y-81250000D03*
X129000000Y-85638888D03*
X129000000Y-90027776D03*
X129000000Y-94416664D03*
X129000000Y-98805552D03*
X129000000Y-103194440D03*
X129000000Y-107583328D03*
X129000000Y-111972216D03*
X129000000Y-116361104D03*
X129000000Y-120749992D03*
D11*
X149860000Y-120396000D03*
D10*
X149860000Y-112776000D03*
D11*
X136652000Y-120903994D03*
D10*
X144272000Y-120903994D03*
D11*
X154940000Y-107696000D03*
D10*
X147320000Y-107696000D03*
D11*
X136652000Y-112098662D03*
D10*
X144272000Y-112098662D03*
D11*
X147320000Y-103124000D03*
D10*
X154940000Y-103124000D03*
X154940000Y-99060000D03*
D11*
X147320000Y-99060000D03*
X144272000Y-94487998D03*
D10*
X136652000Y-94487998D03*
X136652000Y-90085332D03*
D11*
X144272000Y-90085332D03*
X162560000Y-113284000D03*
D10*
X154940000Y-113284000D03*
X154940000Y-87884000D03*
D11*
X162560000Y-87884000D03*
X163065001Y-121412000D03*
D10*
X154940000Y-121412000D03*
D13*
X167005000Y-80772000D03*
X167005000Y-86868000D03*
X167005000Y-114935000D03*
X167005000Y-120650000D03*
D11*
X144272000Y-85682666D03*
D14*
X136652000Y-85682666D03*
D11*
X136652000Y-81280000D03*
D14*
X144272000Y-81280000D03*
D11*
X149610000Y-81280000D03*
D14*
X149610000Y-88900000D03*
D11*
X144272000Y-116501328D03*
D14*
X136652000Y-116501328D03*
X136652000Y-107695996D03*
D11*
X144272000Y-107695996D03*
X144272000Y-103293330D03*
D14*
X136652000Y-103293330D03*
X136652000Y-98890664D03*
D11*
X144272000Y-98890664D03*
X154970000Y-84074000D03*
D14*
X162590000Y-84074000D03*
D11*
X154970000Y-117348000D03*
D14*
X162590000Y-117348000D03*
D15*
X154940000Y-103124000D02*
X154940000Y-102074000D01*
X154940000Y-102074000D02*
X154940000Y-99060000D01*
X144272000Y-94487998D02*
X151417998Y-94487998D01*
X151417998Y-94487998D02*
X154940000Y-98010000D01*
X154940000Y-98010000D02*
X154940000Y-99060000D01*
X154940000Y-113284000D02*
X152033002Y-113284000D01*
X152033002Y-113284000D02*
X151525002Y-112776000D01*
X149860000Y-112776000D02*
X151525002Y-112776000D01*
X151525002Y-112776000D02*
X156065001Y-108236001D01*
X156065001Y-108236001D02*
X156065001Y-105299001D01*
X156065001Y-105299001D02*
X154940000Y-104174000D01*
X154940000Y-104174000D02*
X154940000Y-103124000D01*
X147320000Y-107696000D02*
X151418000Y-107696000D01*
X151418000Y-107696000D02*
X154940000Y-104174000D01*
X144272000Y-85682666D02*
X145071999Y-84882667D01*
X145071999Y-84882667D02*
X149271333Y-84882667D01*
X149271333Y-84882667D02*
X153890000Y-80264000D01*
X153890000Y-80264000D02*
X154940000Y-80264000D01*
X144272000Y-90085332D02*
X144272000Y-85682666D01*
X144272000Y-116501328D02*
X145965328Y-116501328D01*
X145965328Y-116501328D02*
X149860000Y-120396000D01*
X129000000Y-120749992D02*
X136497998Y-120749992D01*
X136497998Y-120749992D02*
X136652000Y-120903994D01*
X144272000Y-120903994D02*
X141054666Y-120903994D01*
X141054666Y-120903994D02*
X136652000Y-116501328D01*
X129000000Y-116361104D02*
X136511776Y-116361104D01*
X136511776Y-116361104D02*
X136652000Y-116501328D01*
X144272000Y-107695996D02*
X145397005Y-108821001D01*
X145397005Y-108821001D02*
X153814999Y-108821001D01*
X153814999Y-108821001D02*
X154140001Y-108495999D01*
X154140001Y-108495999D02*
X154940000Y-107696000D01*
X129000000Y-111972216D02*
X136525554Y-111972216D01*
X136525554Y-111972216D02*
X136652000Y-112098662D01*
X144272000Y-112098662D02*
X141054666Y-112098662D01*
X141054666Y-112098662D02*
X136652000Y-107695996D01*
X129000000Y-107583328D02*
X136539332Y-107583328D01*
X136539332Y-107583328D02*
X136652000Y-107695996D01*
X147320000Y-103124000D02*
X144441330Y-103124000D01*
X144441330Y-103124000D02*
X144272000Y-103293330D01*
X147320000Y-99060000D02*
X144441336Y-99060000D01*
X144441336Y-99060000D02*
X144272000Y-98890664D01*
X137702000Y-94487998D02*
X139479998Y-92710000D01*
X136652000Y-94487998D02*
X137702000Y-94487998D01*
X139479998Y-92710000D02*
X145800000Y-92710000D01*
X145800000Y-92710000D02*
X148810001Y-89699999D01*
X148810001Y-89699999D02*
X149610000Y-88900000D01*
X129000000Y-94416664D02*
X136580666Y-94416664D01*
X136580666Y-94416664D02*
X136652000Y-94487998D01*
X136652000Y-90085332D02*
X129057556Y-90085332D01*
X129057556Y-90085332D02*
X129000000Y-90027776D01*
X144272000Y-81280000D02*
X144272000Y-83515332D01*
X144272000Y-83515332D02*
X137702000Y-90085332D01*
X137702000Y-90085332D02*
X136652000Y-90085332D01*
X154970000Y-84074000D02*
X158750000Y-84074000D01*
X158750000Y-84074000D02*
X162560000Y-80264000D01*
X154970000Y-117348000D02*
X159034000Y-113284000D01*
X159034000Y-113284000D02*
X162560000Y-113284000D01*
X162560000Y-87884000D02*
X165989000Y-87884000D01*
X165989000Y-87884000D02*
X167005000Y-86868000D01*
X165862000Y-80772000D02*
X162590000Y-84044000D01*
X167005000Y-80772000D02*
X165862000Y-80772000D01*
X162590000Y-84044000D02*
X162590000Y-84074000D01*
X162590000Y-84074000D02*
X158780000Y-87884000D01*
X158780000Y-87884000D02*
X154940000Y-87884000D01*
X162590000Y-117348000D02*
X164592000Y-117348000D01*
X164592000Y-117348000D02*
X167005000Y-114935000D01*
X162590000Y-117348000D02*
X157954000Y-117348000D01*
X157954000Y-117348000D02*
X154940000Y-120362000D01*
X154940000Y-120362000D02*
X154940000Y-121412000D01*
X163065001Y-121412000D02*
X166243000Y-121412000D01*
X166243000Y-121412000D02*
X167005000Y-120650000D01*
X138176000Y-79756000D02*
X148086000Y-79756000D01*
X136652000Y-81280000D02*
X138176000Y-79756000D01*
X148086000Y-79756000D02*
X148810001Y-80480001D01*
X148810001Y-80480001D02*
X149610000Y-81280000D01*
X136652000Y-85682666D02*
X136652000Y-81280000D01*
X129000000Y-81250000D02*
X136622000Y-81250000D01*
X136622000Y-81250000D02*
X136652000Y-81280000D01*
X129000000Y-103194440D02*
X136553110Y-103194440D01*
X136553110Y-103194440D02*
X136652000Y-103293330D01*
X129000000Y-98805552D02*
X136566888Y-98805552D01*
X136566888Y-98805552D02*
X136652000Y-98890664D01*
M02*
