G04 #@! TF.GenerationSoftware,KiCad,Pcbnew,(2017-12-21 revision 23d71cfa9)-makepkg*
G04 #@! TF.CreationDate,2018-06-25T18:10:59-04:00*
G04 #@! TF.ProjectId,OdysseyDaughterCardVertSyncGenerator,4F647973736579446175676874657243,0.1*
G04 #@! TF.SameCoordinates,Original*
G04 #@! TF.FileFunction,Legend,Top*
G04 #@! TF.FilePolarity,Positive*
%FSLAX46Y46*%
G04 Gerber Fmt 4.6, Leading zero omitted, Abs format (unit mm)*
G04 Created by KiCad (PCBNEW (2017-12-21 revision 23d71cfa9)-makepkg) date 06/25/18 18:10:59*
%MOMM*%
%LPD*%
G01*
G04 APERTURE LIST*
%ADD10C,0.200000*%
%ADD11C,0.120000*%
%ADD12C,0.150000*%
G04 APERTURE END LIST*
D10*
X131489142Y-80679714D02*
X132689142Y-80679714D01*
X132689142Y-80965428D01*
X132632000Y-81136857D01*
X132517714Y-81251142D01*
X132403428Y-81308285D01*
X132174857Y-81365428D01*
X132003428Y-81365428D01*
X131774857Y-81308285D01*
X131660571Y-81251142D01*
X131546285Y-81136857D01*
X131489142Y-80965428D01*
X131489142Y-80679714D01*
X131489142Y-82394000D02*
X132117714Y-82394000D01*
X132232000Y-82336857D01*
X132289142Y-82222571D01*
X132289142Y-81994000D01*
X132232000Y-81879714D01*
X131546285Y-82394000D02*
X131489142Y-82279714D01*
X131489142Y-81994000D01*
X131546285Y-81879714D01*
X131660571Y-81822571D01*
X131774857Y-81822571D01*
X131889142Y-81879714D01*
X131946285Y-81994000D01*
X131946285Y-82279714D01*
X132003428Y-82394000D01*
X132289142Y-83479714D02*
X131489142Y-83479714D01*
X132289142Y-82965428D02*
X131660571Y-82965428D01*
X131546285Y-83022571D01*
X131489142Y-83136857D01*
X131489142Y-83308285D01*
X131546285Y-83422571D01*
X131603428Y-83479714D01*
X132289142Y-84565428D02*
X131317714Y-84565428D01*
X131203428Y-84508285D01*
X131146285Y-84451142D01*
X131089142Y-84336857D01*
X131089142Y-84165428D01*
X131146285Y-84051142D01*
X131546285Y-84565428D02*
X131489142Y-84451142D01*
X131489142Y-84222571D01*
X131546285Y-84108285D01*
X131603428Y-84051142D01*
X131717714Y-83994000D01*
X132060571Y-83994000D01*
X132174857Y-84051142D01*
X132232000Y-84108285D01*
X132289142Y-84222571D01*
X132289142Y-84451142D01*
X132232000Y-84565428D01*
X131489142Y-85136857D02*
X132689142Y-85136857D01*
X131489142Y-85651142D02*
X132117714Y-85651142D01*
X132232000Y-85594000D01*
X132289142Y-85479714D01*
X132289142Y-85308285D01*
X132232000Y-85194000D01*
X132174857Y-85136857D01*
X132289142Y-86051142D02*
X132289142Y-86508285D01*
X132689142Y-86222571D02*
X131660571Y-86222571D01*
X131546285Y-86279714D01*
X131489142Y-86394000D01*
X131489142Y-86508285D01*
X131546285Y-87365428D02*
X131489142Y-87251142D01*
X131489142Y-87022571D01*
X131546285Y-86908285D01*
X131660571Y-86851142D01*
X132117714Y-86851142D01*
X132232000Y-86908285D01*
X132289142Y-87022571D01*
X132289142Y-87251142D01*
X132232000Y-87365428D01*
X132117714Y-87422571D01*
X132003428Y-87422571D01*
X131889142Y-86851142D01*
X131489142Y-87936857D02*
X132289142Y-87936857D01*
X132060571Y-87936857D02*
X132174857Y-87994000D01*
X132232000Y-88051142D01*
X132289142Y-88165428D01*
X132289142Y-88279714D01*
X131603428Y-90279714D02*
X131546285Y-90222571D01*
X131489142Y-90051142D01*
X131489142Y-89936857D01*
X131546285Y-89765428D01*
X131660571Y-89651142D01*
X131774857Y-89594000D01*
X132003428Y-89536857D01*
X132174857Y-89536857D01*
X132403428Y-89594000D01*
X132517714Y-89651142D01*
X132632000Y-89765428D01*
X132689142Y-89936857D01*
X132689142Y-90051142D01*
X132632000Y-90222571D01*
X132574857Y-90279714D01*
X131489142Y-91308285D02*
X132117714Y-91308285D01*
X132232000Y-91251142D01*
X132289142Y-91136857D01*
X132289142Y-90908285D01*
X132232000Y-90794000D01*
X131546285Y-91308285D02*
X131489142Y-91194000D01*
X131489142Y-90908285D01*
X131546285Y-90794000D01*
X131660571Y-90736857D01*
X131774857Y-90736857D01*
X131889142Y-90794000D01*
X131946285Y-90908285D01*
X131946285Y-91194000D01*
X132003428Y-91308285D01*
X131489142Y-91879714D02*
X132289142Y-91879714D01*
X132060571Y-91879714D02*
X132174857Y-91936857D01*
X132232000Y-91994000D01*
X132289142Y-92108285D01*
X132289142Y-92222571D01*
X131489142Y-93136857D02*
X132689142Y-93136857D01*
X131546285Y-93136857D02*
X131489142Y-93022571D01*
X131489142Y-92794000D01*
X131546285Y-92679714D01*
X131603428Y-92622571D01*
X131717714Y-92565428D01*
X132060571Y-92565428D01*
X132174857Y-92622571D01*
X132232000Y-92679714D01*
X132289142Y-92794000D01*
X132289142Y-93022571D01*
X132232000Y-93136857D01*
X132689142Y-94451142D02*
X131489142Y-94851142D01*
X132689142Y-95251142D01*
X131546285Y-96108285D02*
X131489142Y-95994000D01*
X131489142Y-95765428D01*
X131546285Y-95651142D01*
X131660571Y-95594000D01*
X132117714Y-95594000D01*
X132232000Y-95651142D01*
X132289142Y-95765428D01*
X132289142Y-95994000D01*
X132232000Y-96108285D01*
X132117714Y-96165428D01*
X132003428Y-96165428D01*
X131889142Y-95594000D01*
X131489142Y-96679714D02*
X132289142Y-96679714D01*
X132060571Y-96679714D02*
X132174857Y-96736857D01*
X132232000Y-96794000D01*
X132289142Y-96908285D01*
X132289142Y-97022571D01*
X132289142Y-97251142D02*
X132289142Y-97708285D01*
X132689142Y-97422571D02*
X131660571Y-97422571D01*
X131546285Y-97479714D01*
X131489142Y-97594000D01*
X131489142Y-97708285D01*
X131489142Y-98108285D02*
X132289142Y-98108285D01*
X132689142Y-98108285D02*
X132632000Y-98051142D01*
X132574857Y-98108285D01*
X132632000Y-98165428D01*
X132689142Y-98108285D01*
X132574857Y-98108285D01*
X131546285Y-99194000D02*
X131489142Y-99079714D01*
X131489142Y-98851142D01*
X131546285Y-98736857D01*
X131603428Y-98679714D01*
X131717714Y-98622571D01*
X132060571Y-98622571D01*
X132174857Y-98679714D01*
X132232000Y-98736857D01*
X132289142Y-98851142D01*
X132289142Y-99079714D01*
X132232000Y-99194000D01*
X131489142Y-100222571D02*
X132117714Y-100222571D01*
X132232000Y-100165428D01*
X132289142Y-100051142D01*
X132289142Y-99822571D01*
X132232000Y-99708285D01*
X131546285Y-100222571D02*
X131489142Y-100108285D01*
X131489142Y-99822571D01*
X131546285Y-99708285D01*
X131660571Y-99651142D01*
X131774857Y-99651142D01*
X131889142Y-99708285D01*
X131946285Y-99822571D01*
X131946285Y-100108285D01*
X132003428Y-100222571D01*
X131489142Y-100965428D02*
X131546285Y-100851142D01*
X131660571Y-100794000D01*
X132689142Y-100794000D01*
X131546285Y-102279714D02*
X131489142Y-102451142D01*
X131489142Y-102736857D01*
X131546285Y-102851142D01*
X131603428Y-102908285D01*
X131717714Y-102965428D01*
X131832000Y-102965428D01*
X131946285Y-102908285D01*
X132003428Y-102851142D01*
X132060571Y-102736857D01*
X132117714Y-102508285D01*
X132174857Y-102394000D01*
X132232000Y-102336857D01*
X132346285Y-102279714D01*
X132460571Y-102279714D01*
X132574857Y-102336857D01*
X132632000Y-102394000D01*
X132689142Y-102508285D01*
X132689142Y-102794000D01*
X132632000Y-102965428D01*
X132289142Y-103365428D02*
X131489142Y-103651142D01*
X132289142Y-103936857D02*
X131489142Y-103651142D01*
X131203428Y-103536857D01*
X131146285Y-103479714D01*
X131089142Y-103365428D01*
X132289142Y-104394000D02*
X131489142Y-104394000D01*
X132174857Y-104394000D02*
X132232000Y-104451142D01*
X132289142Y-104565428D01*
X132289142Y-104736857D01*
X132232000Y-104851142D01*
X132117714Y-104908285D01*
X131489142Y-104908285D01*
X131546285Y-105994000D02*
X131489142Y-105879714D01*
X131489142Y-105651142D01*
X131546285Y-105536857D01*
X131603428Y-105479714D01*
X131717714Y-105422571D01*
X132060571Y-105422571D01*
X132174857Y-105479714D01*
X132232000Y-105536857D01*
X132289142Y-105651142D01*
X132289142Y-105879714D01*
X132232000Y-105994000D01*
X132632000Y-108051142D02*
X132689142Y-107936857D01*
X132689142Y-107765428D01*
X132632000Y-107594000D01*
X132517714Y-107479714D01*
X132403428Y-107422571D01*
X132174857Y-107365428D01*
X132003428Y-107365428D01*
X131774857Y-107422571D01*
X131660571Y-107479714D01*
X131546285Y-107594000D01*
X131489142Y-107765428D01*
X131489142Y-107879714D01*
X131546285Y-108051142D01*
X131603428Y-108108285D01*
X132003428Y-108108285D01*
X132003428Y-107879714D01*
X131546285Y-109079714D02*
X131489142Y-108965428D01*
X131489142Y-108736857D01*
X131546285Y-108622571D01*
X131660571Y-108565428D01*
X132117714Y-108565428D01*
X132232000Y-108622571D01*
X132289142Y-108736857D01*
X132289142Y-108965428D01*
X132232000Y-109079714D01*
X132117714Y-109136857D01*
X132003428Y-109136857D01*
X131889142Y-108565428D01*
X132289142Y-109651142D02*
X131489142Y-109651142D01*
X132174857Y-109651142D02*
X132232000Y-109708285D01*
X132289142Y-109822571D01*
X132289142Y-109994000D01*
X132232000Y-110108285D01*
X132117714Y-110165428D01*
X131489142Y-110165428D01*
X131546285Y-111194000D02*
X131489142Y-111079714D01*
X131489142Y-110851142D01*
X131546285Y-110736857D01*
X131660571Y-110679714D01*
X132117714Y-110679714D01*
X132232000Y-110736857D01*
X132289142Y-110851142D01*
X132289142Y-111079714D01*
X132232000Y-111194000D01*
X132117714Y-111251142D01*
X132003428Y-111251142D01*
X131889142Y-110679714D01*
X131489142Y-111765428D02*
X132289142Y-111765428D01*
X132060571Y-111765428D02*
X132174857Y-111822571D01*
X132232000Y-111879714D01*
X132289142Y-111994000D01*
X132289142Y-112108285D01*
X131489142Y-113022571D02*
X132117714Y-113022571D01*
X132232000Y-112965428D01*
X132289142Y-112851142D01*
X132289142Y-112622571D01*
X132232000Y-112508285D01*
X131546285Y-113022571D02*
X131489142Y-112908285D01*
X131489142Y-112622571D01*
X131546285Y-112508285D01*
X131660571Y-112451142D01*
X131774857Y-112451142D01*
X131889142Y-112508285D01*
X131946285Y-112622571D01*
X131946285Y-112908285D01*
X132003428Y-113022571D01*
X132289142Y-113422571D02*
X132289142Y-113879714D01*
X132689142Y-113594000D02*
X131660571Y-113594000D01*
X131546285Y-113651142D01*
X131489142Y-113765428D01*
X131489142Y-113879714D01*
X131489142Y-114451142D02*
X131546285Y-114336857D01*
X131603428Y-114279714D01*
X131717714Y-114222571D01*
X132060571Y-114222571D01*
X132174857Y-114279714D01*
X132232000Y-114336857D01*
X132289142Y-114451142D01*
X132289142Y-114622571D01*
X132232000Y-114736857D01*
X132174857Y-114794000D01*
X132060571Y-114851142D01*
X131717714Y-114851142D01*
X131603428Y-114794000D01*
X131546285Y-114736857D01*
X131489142Y-114622571D01*
X131489142Y-114451142D01*
X131489142Y-115365428D02*
X132289142Y-115365428D01*
X132060571Y-115365428D02*
X132174857Y-115422571D01*
X132232000Y-115479714D01*
X132289142Y-115594000D01*
X132289142Y-115708285D01*
X130689142Y-81194000D02*
X130689142Y-80965428D01*
X130632000Y-80851142D01*
X130574857Y-80794000D01*
X130403428Y-80679714D01*
X130174857Y-80622571D01*
X129717714Y-80622571D01*
X129603428Y-80679714D01*
X129546285Y-80736857D01*
X129489142Y-80851142D01*
X129489142Y-81079714D01*
X129546285Y-81194000D01*
X129603428Y-81251142D01*
X129717714Y-81308285D01*
X130003428Y-81308285D01*
X130117714Y-81251142D01*
X130174857Y-81194000D01*
X130232000Y-81079714D01*
X130232000Y-80851142D01*
X130174857Y-80736857D01*
X130117714Y-80679714D01*
X130003428Y-80622571D01*
X129946285Y-81822571D02*
X129946285Y-82736857D01*
X130689142Y-83194000D02*
X130689142Y-83994000D01*
X129489142Y-83479714D01*
X129946285Y-84451142D02*
X129946285Y-85365428D01*
X130574857Y-85879714D02*
X130632000Y-85936857D01*
X130689142Y-86051142D01*
X130689142Y-86336857D01*
X130632000Y-86451142D01*
X130574857Y-86508285D01*
X130460571Y-86565428D01*
X130346285Y-86565428D01*
X130174857Y-86508285D01*
X129489142Y-85822571D01*
X129489142Y-86565428D01*
X130689142Y-87308285D02*
X130689142Y-87422571D01*
X130632000Y-87536857D01*
X130574857Y-87594000D01*
X130460571Y-87651142D01*
X130232000Y-87708285D01*
X129946285Y-87708285D01*
X129717714Y-87651142D01*
X129603428Y-87594000D01*
X129546285Y-87536857D01*
X129489142Y-87422571D01*
X129489142Y-87308285D01*
X129546285Y-87194000D01*
X129603428Y-87136857D01*
X129717714Y-87079714D01*
X129946285Y-87022571D01*
X130232000Y-87022571D01*
X130460571Y-87079714D01*
X130574857Y-87136857D01*
X130632000Y-87194000D01*
X130689142Y-87308285D01*
X129489142Y-88851142D02*
X129489142Y-88165428D01*
X129489142Y-88508285D02*
X130689142Y-88508285D01*
X130517714Y-88394000D01*
X130403428Y-88279714D01*
X130346285Y-88165428D01*
X130174857Y-89536857D02*
X130232000Y-89422571D01*
X130289142Y-89365428D01*
X130403428Y-89308285D01*
X130460571Y-89308285D01*
X130574857Y-89365428D01*
X130632000Y-89422571D01*
X130689142Y-89536857D01*
X130689142Y-89765428D01*
X130632000Y-89879714D01*
X130574857Y-89936857D01*
X130460571Y-89994000D01*
X130403428Y-89994000D01*
X130289142Y-89936857D01*
X130232000Y-89879714D01*
X130174857Y-89765428D01*
X130174857Y-89536857D01*
X130117714Y-89422571D01*
X130060571Y-89365428D01*
X129946285Y-89308285D01*
X129717714Y-89308285D01*
X129603428Y-89365428D01*
X129546285Y-89422571D01*
X129489142Y-89536857D01*
X129489142Y-89765428D01*
X129546285Y-89879714D01*
X129603428Y-89936857D01*
X129717714Y-89994000D01*
X129946285Y-89994000D01*
X130060571Y-89936857D01*
X130117714Y-89879714D01*
X130174857Y-89765428D01*
X129489142Y-91422571D02*
X130289142Y-91422571D01*
X130060571Y-91422571D02*
X130174857Y-91479714D01*
X130232000Y-91536857D01*
X130289142Y-91651142D01*
X130289142Y-91765428D01*
X130689142Y-92394000D02*
X130689142Y-92508285D01*
X130632000Y-92622571D01*
X130574857Y-92679714D01*
X130460571Y-92736857D01*
X130232000Y-92794000D01*
X129946285Y-92794000D01*
X129717714Y-92736857D01*
X129603428Y-92679714D01*
X129546285Y-92622571D01*
X129489142Y-92508285D01*
X129489142Y-92394000D01*
X129546285Y-92279714D01*
X129603428Y-92222571D01*
X129717714Y-92165428D01*
X129946285Y-92108285D01*
X130232000Y-92108285D01*
X130460571Y-92165428D01*
X130574857Y-92222571D01*
X130632000Y-92279714D01*
X130689142Y-92394000D01*
X129603428Y-93308285D02*
X129546285Y-93365428D01*
X129489142Y-93308285D01*
X129546285Y-93251142D01*
X129603428Y-93308285D01*
X129489142Y-93308285D01*
X129489142Y-94508285D02*
X129489142Y-93822571D01*
X129489142Y-94165428D02*
X130689142Y-94165428D01*
X130517714Y-94051142D01*
X130403428Y-93936857D01*
X130346285Y-93822571D01*
X128689142Y-80679714D02*
X127717714Y-80679714D01*
X127603428Y-80736857D01*
X127546285Y-80794000D01*
X127489142Y-80908285D01*
X127489142Y-81136857D01*
X127546285Y-81251142D01*
X127603428Y-81308285D01*
X127717714Y-81365428D01*
X128689142Y-81365428D01*
X128289142Y-81936857D02*
X127489142Y-81936857D01*
X128174857Y-81936857D02*
X128232000Y-81994000D01*
X128289142Y-82108285D01*
X128289142Y-82279714D01*
X128232000Y-82394000D01*
X128117714Y-82451142D01*
X127489142Y-82451142D01*
X127489142Y-83022571D02*
X128289142Y-83022571D01*
X128689142Y-83022571D02*
X128632000Y-82965428D01*
X128574857Y-83022571D01*
X128632000Y-83079714D01*
X128689142Y-83022571D01*
X128574857Y-83022571D01*
X128289142Y-83479714D02*
X127489142Y-83765428D01*
X128289142Y-84051142D01*
X127546285Y-84965428D02*
X127489142Y-84851142D01*
X127489142Y-84622571D01*
X127546285Y-84508285D01*
X127660571Y-84451142D01*
X128117714Y-84451142D01*
X128232000Y-84508285D01*
X128289142Y-84622571D01*
X128289142Y-84851142D01*
X128232000Y-84965428D01*
X128117714Y-85022571D01*
X128003428Y-85022571D01*
X127889142Y-84451142D01*
X127489142Y-85536857D02*
X128289142Y-85536857D01*
X128060571Y-85536857D02*
X128174857Y-85594000D01*
X128232000Y-85651142D01*
X128289142Y-85765428D01*
X128289142Y-85879714D01*
X127546285Y-86222571D02*
X127489142Y-86336857D01*
X127489142Y-86565428D01*
X127546285Y-86679714D01*
X127660571Y-86736857D01*
X127717714Y-86736857D01*
X127832000Y-86679714D01*
X127889142Y-86565428D01*
X127889142Y-86394000D01*
X127946285Y-86279714D01*
X128060571Y-86222571D01*
X128117714Y-86222571D01*
X128232000Y-86279714D01*
X128289142Y-86394000D01*
X128289142Y-86565428D01*
X128232000Y-86679714D01*
X127489142Y-87251142D02*
X128289142Y-87251142D01*
X128689142Y-87251142D02*
X128632000Y-87194000D01*
X128574857Y-87251142D01*
X128632000Y-87308285D01*
X128689142Y-87251142D01*
X128574857Y-87251142D01*
X128289142Y-87651142D02*
X128289142Y-88108285D01*
X128689142Y-87822571D02*
X127660571Y-87822571D01*
X127546285Y-87879714D01*
X127489142Y-87994000D01*
X127489142Y-88108285D01*
X128289142Y-88394000D02*
X127489142Y-88679714D01*
X128289142Y-88965428D02*
X127489142Y-88679714D01*
X127203428Y-88565428D01*
X127146285Y-88508285D01*
X127089142Y-88394000D01*
X127489142Y-90508285D02*
X127546285Y-90394000D01*
X127603428Y-90336857D01*
X127717714Y-90279714D01*
X128060571Y-90279714D01*
X128174857Y-90336857D01*
X128232000Y-90394000D01*
X128289142Y-90508285D01*
X128289142Y-90679714D01*
X128232000Y-90794000D01*
X128174857Y-90851142D01*
X128060571Y-90908285D01*
X127717714Y-90908285D01*
X127603428Y-90851142D01*
X127546285Y-90794000D01*
X127489142Y-90679714D01*
X127489142Y-90508285D01*
X128289142Y-91251142D02*
X128289142Y-91708285D01*
X127489142Y-91422571D02*
X128517714Y-91422571D01*
X128632000Y-91479714D01*
X128689142Y-91594000D01*
X128689142Y-91708285D01*
X127489142Y-93022571D02*
X128689142Y-93022571D01*
X128689142Y-93479714D01*
X128632000Y-93594000D01*
X128574857Y-93651142D01*
X128460571Y-93708285D01*
X128289142Y-93708285D01*
X128174857Y-93651142D01*
X128117714Y-93594000D01*
X128060571Y-93479714D01*
X128060571Y-93022571D01*
X127489142Y-94222571D02*
X128289142Y-94222571D01*
X128689142Y-94222571D02*
X128632000Y-94165428D01*
X128574857Y-94222571D01*
X128632000Y-94279714D01*
X128689142Y-94222571D01*
X128574857Y-94222571D01*
X128289142Y-94622571D02*
X128289142Y-95079714D01*
X128689142Y-94794000D02*
X127660571Y-94794000D01*
X127546285Y-94851142D01*
X127489142Y-94965428D01*
X127489142Y-95079714D01*
X128289142Y-95308285D02*
X128289142Y-95765428D01*
X128689142Y-95479714D02*
X127660571Y-95479714D01*
X127546285Y-95536857D01*
X127489142Y-95651142D01*
X127489142Y-95765428D01*
X127546285Y-96108285D02*
X127489142Y-96222571D01*
X127489142Y-96451142D01*
X127546285Y-96565428D01*
X127660571Y-96622571D01*
X127717714Y-96622571D01*
X127832000Y-96565428D01*
X127889142Y-96451142D01*
X127889142Y-96279714D01*
X127946285Y-96165428D01*
X128060571Y-96108285D01*
X128117714Y-96108285D01*
X128232000Y-96165428D01*
X128289142Y-96279714D01*
X128289142Y-96451142D01*
X128232000Y-96565428D01*
X127489142Y-97136857D02*
X128689142Y-97136857D01*
X128232000Y-97136857D02*
X128289142Y-97251142D01*
X128289142Y-97479714D01*
X128232000Y-97594000D01*
X128174857Y-97651142D01*
X128060571Y-97708285D01*
X127717714Y-97708285D01*
X127603428Y-97651142D01*
X127546285Y-97594000D01*
X127489142Y-97479714D01*
X127489142Y-97251142D01*
X127546285Y-97136857D01*
X128289142Y-98736857D02*
X127489142Y-98736857D01*
X128289142Y-98222571D02*
X127660571Y-98222571D01*
X127546285Y-98279714D01*
X127489142Y-98394000D01*
X127489142Y-98565428D01*
X127546285Y-98679714D01*
X127603428Y-98736857D01*
X127489142Y-99308285D02*
X128289142Y-99308285D01*
X128060571Y-99308285D02*
X128174857Y-99365428D01*
X128232000Y-99422571D01*
X128289142Y-99536857D01*
X128289142Y-99651142D01*
X128289142Y-100565428D02*
X127317714Y-100565428D01*
X127203428Y-100508285D01*
X127146285Y-100451142D01*
X127089142Y-100336857D01*
X127089142Y-100165428D01*
X127146285Y-100051142D01*
X127546285Y-100565428D02*
X127489142Y-100451142D01*
X127489142Y-100222571D01*
X127546285Y-100108285D01*
X127603428Y-100051142D01*
X127717714Y-99994000D01*
X128060571Y-99994000D01*
X128174857Y-100051142D01*
X128232000Y-100108285D01*
X128289142Y-100222571D01*
X128289142Y-100451142D01*
X128232000Y-100565428D01*
X127489142Y-101136857D02*
X128689142Y-101136857D01*
X127489142Y-101651142D02*
X128117714Y-101651142D01*
X128232000Y-101594000D01*
X128289142Y-101479714D01*
X128289142Y-101308285D01*
X128232000Y-101194000D01*
X128174857Y-101136857D01*
X126689142Y-80908285D02*
X126689142Y-81136857D01*
X126632000Y-81251142D01*
X126517714Y-81365428D01*
X126289142Y-81422571D01*
X125889142Y-81422571D01*
X125660571Y-81365428D01*
X125546285Y-81251142D01*
X125489142Y-81136857D01*
X125489142Y-80908285D01*
X125546285Y-80794000D01*
X125660571Y-80679714D01*
X125889142Y-80622571D01*
X126289142Y-80622571D01*
X126517714Y-80679714D01*
X126632000Y-80794000D01*
X126689142Y-80908285D01*
X125489142Y-82451142D02*
X126689142Y-82451142D01*
X125546285Y-82451142D02*
X125489142Y-82336857D01*
X125489142Y-82108285D01*
X125546285Y-81994000D01*
X125603428Y-81936857D01*
X125717714Y-81879714D01*
X126060571Y-81879714D01*
X126174857Y-81936857D01*
X126232000Y-81994000D01*
X126289142Y-82108285D01*
X126289142Y-82336857D01*
X126232000Y-82451142D01*
X126289142Y-82908285D02*
X125489142Y-83194000D01*
X126289142Y-83479714D02*
X125489142Y-83194000D01*
X125203428Y-83079714D01*
X125146285Y-83022571D01*
X125089142Y-82908285D01*
X125546285Y-83879714D02*
X125489142Y-83994000D01*
X125489142Y-84222571D01*
X125546285Y-84336857D01*
X125660571Y-84394000D01*
X125717714Y-84394000D01*
X125832000Y-84336857D01*
X125889142Y-84222571D01*
X125889142Y-84051142D01*
X125946285Y-83936857D01*
X126060571Y-83879714D01*
X126117714Y-83879714D01*
X126232000Y-83936857D01*
X126289142Y-84051142D01*
X126289142Y-84222571D01*
X126232000Y-84336857D01*
X125546285Y-84851142D02*
X125489142Y-84965428D01*
X125489142Y-85194000D01*
X125546285Y-85308285D01*
X125660571Y-85365428D01*
X125717714Y-85365428D01*
X125832000Y-85308285D01*
X125889142Y-85194000D01*
X125889142Y-85022571D01*
X125946285Y-84908285D01*
X126060571Y-84851142D01*
X126117714Y-84851142D01*
X126232000Y-84908285D01*
X126289142Y-85022571D01*
X126289142Y-85194000D01*
X126232000Y-85308285D01*
X125546285Y-86336857D02*
X125489142Y-86222571D01*
X125489142Y-85994000D01*
X125546285Y-85879714D01*
X125660571Y-85822571D01*
X126117714Y-85822571D01*
X126232000Y-85879714D01*
X126289142Y-85994000D01*
X126289142Y-86222571D01*
X126232000Y-86336857D01*
X126117714Y-86394000D01*
X126003428Y-86394000D01*
X125889142Y-85822571D01*
X126289142Y-86794000D02*
X125489142Y-87079714D01*
X126289142Y-87365428D02*
X125489142Y-87079714D01*
X125203428Y-86965428D01*
X125146285Y-86908285D01*
X125089142Y-86794000D01*
X125489142Y-89422571D02*
X126060571Y-89022571D01*
X125489142Y-88736857D02*
X126689142Y-88736857D01*
X126689142Y-89194000D01*
X126632000Y-89308285D01*
X126574857Y-89365428D01*
X126460571Y-89422571D01*
X126289142Y-89422571D01*
X126174857Y-89365428D01*
X126117714Y-89308285D01*
X126060571Y-89194000D01*
X126060571Y-88736857D01*
X125546285Y-90394000D02*
X125489142Y-90279714D01*
X125489142Y-90051142D01*
X125546285Y-89936857D01*
X125660571Y-89879714D01*
X126117714Y-89879714D01*
X126232000Y-89936857D01*
X126289142Y-90051142D01*
X126289142Y-90279714D01*
X126232000Y-90394000D01*
X126117714Y-90451142D01*
X126003428Y-90451142D01*
X125889142Y-89879714D01*
X125546285Y-90908285D02*
X125489142Y-91022571D01*
X125489142Y-91251142D01*
X125546285Y-91365428D01*
X125660571Y-91422571D01*
X125717714Y-91422571D01*
X125832000Y-91365428D01*
X125889142Y-91251142D01*
X125889142Y-91079714D01*
X125946285Y-90965428D01*
X126060571Y-90908285D01*
X126117714Y-90908285D01*
X126232000Y-90965428D01*
X126289142Y-91079714D01*
X126289142Y-91251142D01*
X126232000Y-91365428D01*
X126289142Y-91765428D02*
X126289142Y-92222571D01*
X126689142Y-91936857D02*
X125660571Y-91936857D01*
X125546285Y-91994000D01*
X125489142Y-92108285D01*
X125489142Y-92222571D01*
X125489142Y-92794000D02*
X125546285Y-92679714D01*
X125603428Y-92622571D01*
X125717714Y-92565428D01*
X126060571Y-92565428D01*
X126174857Y-92622571D01*
X126232000Y-92679714D01*
X126289142Y-92794000D01*
X126289142Y-92965428D01*
X126232000Y-93079714D01*
X126174857Y-93136857D01*
X126060571Y-93194000D01*
X125717714Y-93194000D01*
X125603428Y-93136857D01*
X125546285Y-93079714D01*
X125489142Y-92965428D01*
X125489142Y-92794000D01*
X125489142Y-93708285D02*
X126289142Y-93708285D01*
X126060571Y-93708285D02*
X126174857Y-93765428D01*
X126232000Y-93822571D01*
X126289142Y-93936857D01*
X126289142Y-94051142D01*
X125489142Y-94965428D02*
X126117714Y-94965428D01*
X126232000Y-94908285D01*
X126289142Y-94794000D01*
X126289142Y-94565428D01*
X126232000Y-94451142D01*
X125546285Y-94965428D02*
X125489142Y-94851142D01*
X125489142Y-94565428D01*
X125546285Y-94451142D01*
X125660571Y-94394000D01*
X125774857Y-94394000D01*
X125889142Y-94451142D01*
X125946285Y-94565428D01*
X125946285Y-94851142D01*
X126003428Y-94965428D01*
X126289142Y-95365428D02*
X126289142Y-95822571D01*
X126689142Y-95536857D02*
X125660571Y-95536857D01*
X125546285Y-95594000D01*
X125489142Y-95708285D01*
X125489142Y-95822571D01*
X125489142Y-96222571D02*
X126289142Y-96222571D01*
X126689142Y-96222571D02*
X126632000Y-96165428D01*
X126574857Y-96222571D01*
X126632000Y-96279714D01*
X126689142Y-96222571D01*
X126574857Y-96222571D01*
X125489142Y-96965428D02*
X125546285Y-96851142D01*
X125603428Y-96794000D01*
X125717714Y-96736857D01*
X126060571Y-96736857D01*
X126174857Y-96794000D01*
X126232000Y-96851142D01*
X126289142Y-96965428D01*
X126289142Y-97136857D01*
X126232000Y-97251142D01*
X126174857Y-97308285D01*
X126060571Y-97365428D01*
X125717714Y-97365428D01*
X125603428Y-97308285D01*
X125546285Y-97251142D01*
X125489142Y-97136857D01*
X125489142Y-96965428D01*
X126289142Y-97879714D02*
X125489142Y-97879714D01*
X126174857Y-97879714D02*
X126232000Y-97936857D01*
X126289142Y-98051142D01*
X126289142Y-98222571D01*
X126232000Y-98336857D01*
X126117714Y-98394000D01*
X125489142Y-98394000D01*
X125489142Y-99879714D02*
X126689142Y-99879714D01*
X126689142Y-100336857D01*
X126632000Y-100451142D01*
X126574857Y-100508285D01*
X126460571Y-100565428D01*
X126289142Y-100565428D01*
X126174857Y-100508285D01*
X126117714Y-100451142D01*
X126060571Y-100336857D01*
X126060571Y-99879714D01*
X125489142Y-101079714D02*
X126289142Y-101079714D01*
X126060571Y-101079714D02*
X126174857Y-101136857D01*
X126232000Y-101194000D01*
X126289142Y-101308285D01*
X126289142Y-101422571D01*
X125489142Y-101994000D02*
X125546285Y-101879714D01*
X125603428Y-101822571D01*
X125717714Y-101765428D01*
X126060571Y-101765428D01*
X126174857Y-101822571D01*
X126232000Y-101879714D01*
X126289142Y-101994000D01*
X126289142Y-102165428D01*
X126232000Y-102279714D01*
X126174857Y-102336857D01*
X126060571Y-102394000D01*
X125717714Y-102394000D01*
X125603428Y-102336857D01*
X125546285Y-102279714D01*
X125489142Y-102165428D01*
X125489142Y-101994000D01*
X126289142Y-102908285D02*
X125260571Y-102908285D01*
X125146285Y-102851142D01*
X125089142Y-102736857D01*
X125089142Y-102679714D01*
X126689142Y-102908285D02*
X126632000Y-102851142D01*
X126574857Y-102908285D01*
X126632000Y-102965428D01*
X126689142Y-102908285D01*
X126574857Y-102908285D01*
X125546285Y-103936857D02*
X125489142Y-103822571D01*
X125489142Y-103594000D01*
X125546285Y-103479714D01*
X125660571Y-103422571D01*
X126117714Y-103422571D01*
X126232000Y-103479714D01*
X126289142Y-103594000D01*
X126289142Y-103822571D01*
X126232000Y-103936857D01*
X126117714Y-103994000D01*
X126003428Y-103994000D01*
X125889142Y-103422571D01*
X125546285Y-105022571D02*
X125489142Y-104908285D01*
X125489142Y-104679714D01*
X125546285Y-104565428D01*
X125603428Y-104508285D01*
X125717714Y-104451142D01*
X126060571Y-104451142D01*
X126174857Y-104508285D01*
X126232000Y-104565428D01*
X126289142Y-104679714D01*
X126289142Y-104908285D01*
X126232000Y-105022571D01*
X126289142Y-105365428D02*
X126289142Y-105822571D01*
X126689142Y-105536857D02*
X125660571Y-105536857D01*
X125546285Y-105594000D01*
X125489142Y-105708285D01*
X125489142Y-105822571D01*
D11*
X150694000Y-90446000D02*
X150694000Y-86846000D01*
X150682478Y-90484478D02*
G75*
G02X146244000Y-88646000I-1838478J1838478D01*
G01*
X150682478Y-86807522D02*
G75*
G03X146244000Y-88646000I-1838478J-1838478D01*
G01*
X146486000Y-80242000D02*
X146486000Y-83842000D01*
X146497522Y-80203522D02*
G75*
G02X150936000Y-82042000I1838478J-1838478D01*
G01*
X146497522Y-83880478D02*
G75*
G03X150936000Y-82042000I1838478J1838478D01*
G01*
X144586478Y-80203522D02*
G75*
G03X140148000Y-82042000I-1838478J-1838478D01*
G01*
X144586478Y-83880478D02*
G75*
G02X140148000Y-82042000I-1838478J1838478D01*
G01*
X144598000Y-83842000D02*
X144598000Y-80242000D01*
X138708000Y-80804000D02*
X139038000Y-80804000D01*
X139038000Y-80804000D02*
X139038000Y-87344000D01*
X139038000Y-87344000D02*
X138708000Y-87344000D01*
X136628000Y-80804000D02*
X136298000Y-80804000D01*
X136298000Y-80804000D02*
X136298000Y-87344000D01*
X136298000Y-87344000D02*
X136628000Y-87344000D01*
X142772000Y-95028000D02*
X143102000Y-95028000D01*
X143102000Y-95028000D02*
X143102000Y-101568000D01*
X143102000Y-101568000D02*
X142772000Y-101568000D01*
X140692000Y-95028000D02*
X140362000Y-95028000D01*
X140362000Y-95028000D02*
X140362000Y-101568000D01*
X140362000Y-101568000D02*
X140692000Y-101568000D01*
X136806000Y-119348000D02*
X137136000Y-119348000D01*
X136806000Y-112808000D02*
X136806000Y-119348000D01*
X137136000Y-112808000D02*
X136806000Y-112808000D01*
X139546000Y-119348000D02*
X139216000Y-119348000D01*
X139546000Y-112808000D02*
X139546000Y-119348000D01*
X139216000Y-112808000D02*
X139546000Y-112808000D01*
X147166000Y-95028000D02*
X146836000Y-95028000D01*
X147166000Y-101568000D02*
X147166000Y-95028000D01*
X146836000Y-101568000D02*
X147166000Y-101568000D01*
X144426000Y-95028000D02*
X144756000Y-95028000D01*
X144426000Y-101568000D02*
X144426000Y-95028000D01*
X144756000Y-101568000D02*
X144426000Y-101568000D01*
X147344000Y-112808000D02*
X147674000Y-112808000D01*
X147674000Y-112808000D02*
X147674000Y-119348000D01*
X147674000Y-119348000D02*
X147344000Y-119348000D01*
X145264000Y-112808000D02*
X144934000Y-112808000D01*
X144934000Y-112808000D02*
X144934000Y-119348000D01*
X144934000Y-119348000D02*
X145264000Y-119348000D01*
X137192000Y-105132000D02*
X137192000Y-104802000D01*
X137192000Y-104802000D02*
X143732000Y-104802000D01*
X143732000Y-104802000D02*
X143732000Y-105132000D01*
X137192000Y-107212000D02*
X137192000Y-107542000D01*
X137192000Y-107542000D02*
X143732000Y-107542000D01*
X143732000Y-107542000D02*
X143732000Y-107212000D01*
X139165000Y-95155000D02*
X138835000Y-95155000D01*
X139165000Y-101695000D02*
X139165000Y-95155000D01*
X138835000Y-101695000D02*
X139165000Y-101695000D01*
X136425000Y-95155000D02*
X136755000Y-95155000D01*
X136425000Y-101695000D02*
X136425000Y-95155000D01*
X136755000Y-101695000D02*
X136425000Y-101695000D01*
X143392000Y-86758000D02*
X143392000Y-91978000D01*
X140072000Y-86758000D02*
X140072000Y-91978000D01*
X143392000Y-86758000D02*
X142728000Y-86758000D01*
X140736000Y-86758000D02*
X140072000Y-86758000D01*
X143392000Y-91978000D02*
X142728000Y-91978000D01*
X140736000Y-91978000D02*
X140072000Y-91978000D01*
X141244000Y-117378000D02*
X140580000Y-117378000D01*
X143900000Y-117378000D02*
X143236000Y-117378000D01*
X141244000Y-112158000D02*
X140580000Y-112158000D01*
X143900000Y-112158000D02*
X143236000Y-112158000D01*
X140580000Y-112158000D02*
X140580000Y-117378000D01*
X143900000Y-112158000D02*
X143900000Y-117378000D01*
D12*
X145831619Y-88741238D02*
X145784000Y-88836476D01*
X145688761Y-88931714D01*
X145545904Y-89074571D01*
X145498285Y-89169809D01*
X145498285Y-89265047D01*
X145736380Y-89217428D02*
X145688761Y-89312666D01*
X145593523Y-89407904D01*
X145403047Y-89455523D01*
X145069714Y-89455523D01*
X144879238Y-89407904D01*
X144784000Y-89312666D01*
X144736380Y-89217428D01*
X144736380Y-89026952D01*
X144784000Y-88931714D01*
X144879238Y-88836476D01*
X145069714Y-88788857D01*
X145403047Y-88788857D01*
X145593523Y-88836476D01*
X145688761Y-88931714D01*
X145736380Y-89026952D01*
X145736380Y-89217428D01*
X145736380Y-87836476D02*
X145736380Y-88407904D01*
X145736380Y-88122190D02*
X144736380Y-88122190D01*
X144879238Y-88217428D01*
X144974476Y-88312666D01*
X145022095Y-88407904D01*
X148391619Y-97202285D02*
X148344000Y-97154666D01*
X148296380Y-97059428D01*
X148296380Y-96821333D01*
X148344000Y-96726095D01*
X148391619Y-96678476D01*
X148486857Y-96630857D01*
X148582095Y-96630857D01*
X148724952Y-96678476D01*
X149296380Y-97249904D01*
X149296380Y-96630857D01*
X149296380Y-96202285D02*
X148296380Y-96202285D01*
X149296380Y-95630857D01*
X148296380Y-95630857D01*
X148296380Y-95249904D02*
X148296380Y-94630857D01*
X148677333Y-94964190D01*
X148677333Y-94821333D01*
X148724952Y-94726095D01*
X148772571Y-94678476D01*
X148867809Y-94630857D01*
X149105904Y-94630857D01*
X149201142Y-94678476D01*
X149248761Y-94726095D01*
X149296380Y-94821333D01*
X149296380Y-95107047D01*
X149248761Y-95202285D01*
X149201142Y-95249904D01*
X149296380Y-94154666D02*
X149296380Y-93964190D01*
X149248761Y-93868952D01*
X149201142Y-93821333D01*
X149058285Y-93726095D01*
X148867809Y-93678476D01*
X148486857Y-93678476D01*
X148391619Y-93726095D01*
X148344000Y-93773714D01*
X148296380Y-93868952D01*
X148296380Y-94059428D01*
X148344000Y-94154666D01*
X148391619Y-94202285D01*
X148486857Y-94249904D01*
X148724952Y-94249904D01*
X148820190Y-94202285D01*
X148867809Y-94154666D01*
X148915428Y-94059428D01*
X148915428Y-93868952D01*
X148867809Y-93773714D01*
X148820190Y-93726095D01*
X148724952Y-93678476D01*
X148296380Y-93059428D02*
X148296380Y-92964190D01*
X148344000Y-92868952D01*
X148391619Y-92821333D01*
X148486857Y-92773714D01*
X148677333Y-92726095D01*
X148915428Y-92726095D01*
X149105904Y-92773714D01*
X149201142Y-92821333D01*
X149248761Y-92868952D01*
X149296380Y-92964190D01*
X149296380Y-93059428D01*
X149248761Y-93154666D01*
X149201142Y-93202285D01*
X149105904Y-93249904D01*
X148915428Y-93297523D01*
X148677333Y-93297523D01*
X148486857Y-93249904D01*
X148391619Y-93202285D01*
X148344000Y-93154666D01*
X148296380Y-93059428D01*
X148629714Y-91868952D02*
X149296380Y-91868952D01*
X148248761Y-92107047D02*
X148963047Y-92345142D01*
X148963047Y-91726095D01*
X148240761Y-85891619D02*
X148145523Y-85844000D01*
X148050285Y-85748761D01*
X147907428Y-85605904D01*
X147812190Y-85558285D01*
X147716952Y-85558285D01*
X147764571Y-85796380D02*
X147669333Y-85748761D01*
X147574095Y-85653523D01*
X147526476Y-85463047D01*
X147526476Y-85129714D01*
X147574095Y-84939238D01*
X147669333Y-84844000D01*
X147764571Y-84796380D01*
X147955047Y-84796380D01*
X148050285Y-84844000D01*
X148145523Y-84939238D01*
X148193142Y-85129714D01*
X148193142Y-85463047D01*
X148145523Y-85653523D01*
X148050285Y-85748761D01*
X147955047Y-85796380D01*
X147764571Y-85796380D01*
X148574095Y-84891619D02*
X148621714Y-84844000D01*
X148716952Y-84796380D01*
X148955047Y-84796380D01*
X149050285Y-84844000D01*
X149097904Y-84891619D01*
X149145523Y-84986857D01*
X149145523Y-85082095D01*
X149097904Y-85224952D01*
X148526476Y-85796380D01*
X149145523Y-85796380D01*
X145621714Y-78287619D02*
X145669333Y-78240000D01*
X145764571Y-78192380D01*
X146002666Y-78192380D01*
X146097904Y-78240000D01*
X146145523Y-78287619D01*
X146193142Y-78382857D01*
X146193142Y-78478095D01*
X146145523Y-78620952D01*
X145574095Y-79192380D01*
X146193142Y-79192380D01*
X146621714Y-79192380D02*
X146621714Y-78192380D01*
X147193142Y-79192380D01*
X147193142Y-78192380D01*
X147574095Y-78192380D02*
X148193142Y-78192380D01*
X147859809Y-78573333D01*
X148002666Y-78573333D01*
X148097904Y-78620952D01*
X148145523Y-78668571D01*
X148193142Y-78763809D01*
X148193142Y-79001904D01*
X148145523Y-79097142D01*
X148097904Y-79144761D01*
X148002666Y-79192380D01*
X147716952Y-79192380D01*
X147621714Y-79144761D01*
X147574095Y-79097142D01*
X148669333Y-79192380D02*
X148859809Y-79192380D01*
X148955047Y-79144761D01*
X149002666Y-79097142D01*
X149097904Y-78954285D01*
X149145523Y-78763809D01*
X149145523Y-78382857D01*
X149097904Y-78287619D01*
X149050285Y-78240000D01*
X148955047Y-78192380D01*
X148764571Y-78192380D01*
X148669333Y-78240000D01*
X148621714Y-78287619D01*
X148574095Y-78382857D01*
X148574095Y-78620952D01*
X148621714Y-78716190D01*
X148669333Y-78763809D01*
X148764571Y-78811428D01*
X148955047Y-78811428D01*
X149050285Y-78763809D01*
X149097904Y-78716190D01*
X149145523Y-78620952D01*
X149764571Y-78192380D02*
X149859809Y-78192380D01*
X149955047Y-78240000D01*
X150002666Y-78287619D01*
X150050285Y-78382857D01*
X150097904Y-78573333D01*
X150097904Y-78811428D01*
X150050285Y-79001904D01*
X150002666Y-79097142D01*
X149955047Y-79144761D01*
X149859809Y-79192380D01*
X149764571Y-79192380D01*
X149669333Y-79144761D01*
X149621714Y-79097142D01*
X149574095Y-79001904D01*
X149526476Y-78811428D01*
X149526476Y-78573333D01*
X149574095Y-78382857D01*
X149621714Y-78287619D01*
X149669333Y-78240000D01*
X149764571Y-78192380D01*
X150955047Y-78192380D02*
X150764571Y-78192380D01*
X150669333Y-78240000D01*
X150621714Y-78287619D01*
X150526476Y-78430476D01*
X150478857Y-78620952D01*
X150478857Y-79001904D01*
X150526476Y-79097142D01*
X150574095Y-79144761D01*
X150669333Y-79192380D01*
X150859809Y-79192380D01*
X150955047Y-79144761D01*
X151002666Y-79097142D01*
X151050285Y-79001904D01*
X151050285Y-78763809D01*
X151002666Y-78668571D01*
X150955047Y-78620952D01*
X150859809Y-78573333D01*
X150669333Y-78573333D01*
X150574095Y-78620952D01*
X150526476Y-78668571D01*
X150478857Y-78763809D01*
X140755619Y-78835238D02*
X140708000Y-78930476D01*
X140612761Y-79025714D01*
X140469904Y-79168571D01*
X140422285Y-79263809D01*
X140422285Y-79359047D01*
X140660380Y-79311428D02*
X140612761Y-79406666D01*
X140517523Y-79501904D01*
X140327047Y-79549523D01*
X139993714Y-79549523D01*
X139803238Y-79501904D01*
X139708000Y-79406666D01*
X139660380Y-79311428D01*
X139660380Y-79120952D01*
X139708000Y-79025714D01*
X139803238Y-78930476D01*
X139993714Y-78882857D01*
X140327047Y-78882857D01*
X140517523Y-78930476D01*
X140612761Y-79025714D01*
X140660380Y-79120952D01*
X140660380Y-79311428D01*
X139660380Y-78549523D02*
X139660380Y-77930476D01*
X140041333Y-78263809D01*
X140041333Y-78120952D01*
X140088952Y-78025714D01*
X140136571Y-77978095D01*
X140231809Y-77930476D01*
X140469904Y-77930476D01*
X140565142Y-77978095D01*
X140612761Y-78025714D01*
X140660380Y-78120952D01*
X140660380Y-78406666D01*
X140612761Y-78501904D01*
X140565142Y-78549523D01*
X145085619Y-84756285D02*
X145038000Y-84708666D01*
X144990380Y-84613428D01*
X144990380Y-84375333D01*
X145038000Y-84280095D01*
X145085619Y-84232476D01*
X145180857Y-84184857D01*
X145276095Y-84184857D01*
X145418952Y-84232476D01*
X145990380Y-84803904D01*
X145990380Y-84184857D01*
X145990380Y-83756285D02*
X144990380Y-83756285D01*
X145990380Y-83184857D01*
X144990380Y-83184857D01*
X144990380Y-82803904D02*
X144990380Y-82184857D01*
X145371333Y-82518190D01*
X145371333Y-82375333D01*
X145418952Y-82280095D01*
X145466571Y-82232476D01*
X145561809Y-82184857D01*
X145799904Y-82184857D01*
X145895142Y-82232476D01*
X145942761Y-82280095D01*
X145990380Y-82375333D01*
X145990380Y-82661047D01*
X145942761Y-82756285D01*
X145895142Y-82803904D01*
X145990380Y-81708666D02*
X145990380Y-81518190D01*
X145942761Y-81422952D01*
X145895142Y-81375333D01*
X145752285Y-81280095D01*
X145561809Y-81232476D01*
X145180857Y-81232476D01*
X145085619Y-81280095D01*
X145038000Y-81327714D01*
X144990380Y-81422952D01*
X144990380Y-81613428D01*
X145038000Y-81708666D01*
X145085619Y-81756285D01*
X145180857Y-81803904D01*
X145418952Y-81803904D01*
X145514190Y-81756285D01*
X145561809Y-81708666D01*
X145609428Y-81613428D01*
X145609428Y-81422952D01*
X145561809Y-81327714D01*
X145514190Y-81280095D01*
X145418952Y-81232476D01*
X144990380Y-80613428D02*
X144990380Y-80518190D01*
X145038000Y-80422952D01*
X145085619Y-80375333D01*
X145180857Y-80327714D01*
X145371333Y-80280095D01*
X145609428Y-80280095D01*
X145799904Y-80327714D01*
X145895142Y-80375333D01*
X145942761Y-80422952D01*
X145990380Y-80518190D01*
X145990380Y-80613428D01*
X145942761Y-80708666D01*
X145895142Y-80756285D01*
X145799904Y-80803904D01*
X145609428Y-80851523D01*
X145371333Y-80851523D01*
X145180857Y-80803904D01*
X145085619Y-80756285D01*
X145038000Y-80708666D01*
X144990380Y-80613428D01*
X145323714Y-79422952D02*
X145990380Y-79422952D01*
X144942761Y-79661047D02*
X145657047Y-79899142D01*
X145657047Y-79280095D01*
X140490380Y-85510666D02*
X140014190Y-85844000D01*
X140490380Y-86082095D02*
X139490380Y-86082095D01*
X139490380Y-85701142D01*
X139538000Y-85605904D01*
X139585619Y-85558285D01*
X139680857Y-85510666D01*
X139823714Y-85510666D01*
X139918952Y-85558285D01*
X139966571Y-85605904D01*
X140014190Y-85701142D01*
X140014190Y-86082095D01*
X140490380Y-84558285D02*
X140490380Y-85129714D01*
X140490380Y-84844000D02*
X139490380Y-84844000D01*
X139633238Y-84939238D01*
X139728476Y-85034476D01*
X139776095Y-85129714D01*
X148788380Y-98464666D02*
X148312190Y-98798000D01*
X148788380Y-99036095D02*
X147788380Y-99036095D01*
X147788380Y-98655142D01*
X147836000Y-98559904D01*
X147883619Y-98512285D01*
X147978857Y-98464666D01*
X148121714Y-98464666D01*
X148216952Y-98512285D01*
X148264571Y-98559904D01*
X148312190Y-98655142D01*
X148312190Y-99036095D01*
X147883619Y-98083714D02*
X147836000Y-98036095D01*
X147788380Y-97940857D01*
X147788380Y-97702761D01*
X147836000Y-97607523D01*
X147883619Y-97559904D01*
X147978857Y-97512285D01*
X148074095Y-97512285D01*
X148216952Y-97559904D01*
X148788380Y-98131333D01*
X148788380Y-97512285D01*
X140998380Y-117514666D02*
X140522190Y-117848000D01*
X140998380Y-118086095D02*
X139998380Y-118086095D01*
X139998380Y-117705142D01*
X140046000Y-117609904D01*
X140093619Y-117562285D01*
X140188857Y-117514666D01*
X140331714Y-117514666D01*
X140426952Y-117562285D01*
X140474571Y-117609904D01*
X140522190Y-117705142D01*
X140522190Y-118086095D01*
X139998380Y-117181333D02*
X139998380Y-116562285D01*
X140379333Y-116895619D01*
X140379333Y-116752761D01*
X140426952Y-116657523D01*
X140474571Y-116609904D01*
X140569809Y-116562285D01*
X140807904Y-116562285D01*
X140903142Y-116609904D01*
X140950761Y-116657523D01*
X140998380Y-116752761D01*
X140998380Y-117038476D01*
X140950761Y-117133714D01*
X140903142Y-117181333D01*
X144216380Y-98464666D02*
X143740190Y-98798000D01*
X144216380Y-99036095D02*
X143216380Y-99036095D01*
X143216380Y-98655142D01*
X143264000Y-98559904D01*
X143311619Y-98512285D01*
X143406857Y-98464666D01*
X143549714Y-98464666D01*
X143644952Y-98512285D01*
X143692571Y-98559904D01*
X143740190Y-98655142D01*
X143740190Y-99036095D01*
X143549714Y-97607523D02*
X144216380Y-97607523D01*
X143168761Y-97845619D02*
X143883047Y-98083714D01*
X143883047Y-97464666D01*
X149126380Y-116244666D02*
X148650190Y-116578000D01*
X149126380Y-116816095D02*
X148126380Y-116816095D01*
X148126380Y-116435142D01*
X148174000Y-116339904D01*
X148221619Y-116292285D01*
X148316857Y-116244666D01*
X148459714Y-116244666D01*
X148554952Y-116292285D01*
X148602571Y-116339904D01*
X148650190Y-116435142D01*
X148650190Y-116816095D01*
X148126380Y-115339904D02*
X148126380Y-115816095D01*
X148602571Y-115863714D01*
X148554952Y-115816095D01*
X148507333Y-115720857D01*
X148507333Y-115482761D01*
X148554952Y-115387523D01*
X148602571Y-115339904D01*
X148697809Y-115292285D01*
X148935904Y-115292285D01*
X149031142Y-115339904D01*
X149078761Y-115387523D01*
X149126380Y-115482761D01*
X149126380Y-115720857D01*
X149078761Y-115816095D01*
X149031142Y-115863714D01*
X140295333Y-104254380D02*
X139962000Y-103778190D01*
X139723904Y-104254380D02*
X139723904Y-103254380D01*
X140104857Y-103254380D01*
X140200095Y-103302000D01*
X140247714Y-103349619D01*
X140295333Y-103444857D01*
X140295333Y-103587714D01*
X140247714Y-103682952D01*
X140200095Y-103730571D01*
X140104857Y-103778190D01*
X139723904Y-103778190D01*
X141152476Y-103254380D02*
X140962000Y-103254380D01*
X140866761Y-103302000D01*
X140819142Y-103349619D01*
X140723904Y-103492476D01*
X140676285Y-103682952D01*
X140676285Y-104063904D01*
X140723904Y-104159142D01*
X140771523Y-104206761D01*
X140866761Y-104254380D01*
X141057238Y-104254380D01*
X141152476Y-104206761D01*
X141200095Y-104159142D01*
X141247714Y-104063904D01*
X141247714Y-103825809D01*
X141200095Y-103730571D01*
X141152476Y-103682952D01*
X141057238Y-103635333D01*
X140866761Y-103635333D01*
X140771523Y-103682952D01*
X140723904Y-103730571D01*
X140676285Y-103825809D01*
X135877380Y-98591666D02*
X135401190Y-98925000D01*
X135877380Y-99163095D02*
X134877380Y-99163095D01*
X134877380Y-98782142D01*
X134925000Y-98686904D01*
X134972619Y-98639285D01*
X135067857Y-98591666D01*
X135210714Y-98591666D01*
X135305952Y-98639285D01*
X135353571Y-98686904D01*
X135401190Y-98782142D01*
X135401190Y-99163095D01*
X134877380Y-98258333D02*
X134877380Y-97591666D01*
X135877380Y-98020238D01*
X144999142Y-89534666D02*
X145046761Y-89582285D01*
X145094380Y-89725142D01*
X145094380Y-89820380D01*
X145046761Y-89963238D01*
X144951523Y-90058476D01*
X144856285Y-90106095D01*
X144665809Y-90153714D01*
X144522952Y-90153714D01*
X144332476Y-90106095D01*
X144237238Y-90058476D01*
X144142000Y-89963238D01*
X144094380Y-89820380D01*
X144094380Y-89725142D01*
X144142000Y-89582285D01*
X144189619Y-89534666D01*
X145094380Y-88582285D02*
X145094380Y-89153714D01*
X145094380Y-88868000D02*
X144094380Y-88868000D01*
X144237238Y-88963238D01*
X144332476Y-89058476D01*
X144380095Y-89153714D01*
X145507142Y-114934666D02*
X145554761Y-114982285D01*
X145602380Y-115125142D01*
X145602380Y-115220380D01*
X145554761Y-115363238D01*
X145459523Y-115458476D01*
X145364285Y-115506095D01*
X145173809Y-115553714D01*
X145030952Y-115553714D01*
X144840476Y-115506095D01*
X144745238Y-115458476D01*
X144650000Y-115363238D01*
X144602380Y-115220380D01*
X144602380Y-115125142D01*
X144650000Y-114982285D01*
X144697619Y-114934666D01*
X144697619Y-114553714D02*
X144650000Y-114506095D01*
X144602380Y-114410857D01*
X144602380Y-114172761D01*
X144650000Y-114077523D01*
X144697619Y-114029904D01*
X144792857Y-113982285D01*
X144888095Y-113982285D01*
X145030952Y-114029904D01*
X145602380Y-114601333D01*
X145602380Y-113982285D01*
M02*
