G04 #@! TF.GenerationSoftware,KiCad,Pcbnew,(5.0.1)-3*
G04 #@! TF.CreationDate,2019-02-16T16:59:46-05:00*
G04 #@! TF.ProjectId,OdysseyDaughterCardFlipFlop,4F647973736579446175676874657243,1.1*
G04 #@! TF.SameCoordinates,Original*
G04 #@! TF.FileFunction,Soldermask,Top*
G04 #@! TF.FilePolarity,Negative*
%FSLAX46Y46*%
G04 Gerber Fmt 4.6, Leading zero omitted, Abs format (unit mm)*
G04 Created by KiCad (PCBNEW (5.0.1)-3) date 2/16/2019 4:59:46 PM*
%MOMM*%
%LPD*%
G01*
G04 APERTURE LIST*
%ADD10C,0.100000*%
G04 APERTURE END LIST*
D10*
G36*
X144976030Y-120426469D02*
X144976033Y-120426470D01*
X144976034Y-120426470D01*
X145164535Y-120483651D01*
X145164537Y-120483652D01*
X145338260Y-120576509D01*
X145490528Y-120701472D01*
X145615491Y-120853740D01*
X145708348Y-121027463D01*
X145765531Y-121215970D01*
X145784838Y-121412000D01*
X145765531Y-121608030D01*
X145708348Y-121796537D01*
X145615491Y-121970260D01*
X145490528Y-122122528D01*
X145338260Y-122247491D01*
X145338258Y-122247492D01*
X145164535Y-122340349D01*
X144976034Y-122397530D01*
X144976033Y-122397530D01*
X144976030Y-122397531D01*
X144829124Y-122412000D01*
X144730876Y-122412000D01*
X144583970Y-122397531D01*
X144583967Y-122397530D01*
X144583966Y-122397530D01*
X144395465Y-122340349D01*
X144221742Y-122247492D01*
X144221740Y-122247491D01*
X144069472Y-122122528D01*
X143944509Y-121970260D01*
X143851652Y-121796537D01*
X143794469Y-121608030D01*
X143775162Y-121412000D01*
X143794469Y-121215970D01*
X143851652Y-121027463D01*
X143944509Y-120853740D01*
X144069472Y-120701472D01*
X144221740Y-120576509D01*
X144395463Y-120483652D01*
X144395465Y-120483651D01*
X144583966Y-120426470D01*
X144583967Y-120426470D01*
X144583970Y-120426469D01*
X144730876Y-120412000D01*
X144829124Y-120412000D01*
X144976030Y-120426469D01*
X144976030Y-120426469D01*
G37*
G36*
X137335770Y-120427372D02*
X137451689Y-120450429D01*
X137633678Y-120525811D01*
X137797463Y-120635249D01*
X137936751Y-120774537D01*
X138046189Y-120938322D01*
X138121571Y-121120311D01*
X138160000Y-121313509D01*
X138160000Y-121510491D01*
X138121571Y-121703689D01*
X138046189Y-121885678D01*
X137936751Y-122049463D01*
X137797463Y-122188751D01*
X137633678Y-122298189D01*
X137451689Y-122373571D01*
X137335770Y-122396628D01*
X137258493Y-122412000D01*
X137061507Y-122412000D01*
X136984230Y-122396628D01*
X136868311Y-122373571D01*
X136686322Y-122298189D01*
X136522537Y-122188751D01*
X136383249Y-122049463D01*
X136273811Y-121885678D01*
X136198429Y-121703689D01*
X136160000Y-121510491D01*
X136160000Y-121313509D01*
X136198429Y-121120311D01*
X136273811Y-120938322D01*
X136383249Y-120774537D01*
X136522537Y-120635249D01*
X136686322Y-120525811D01*
X136868311Y-120450429D01*
X136984230Y-120427372D01*
X137061507Y-120412000D01*
X137258493Y-120412000D01*
X137335770Y-120427372D01*
X137335770Y-120427372D01*
G37*
G36*
X151826000Y-116550409D02*
X151815923Y-116551402D01*
X151792474Y-116558515D01*
X151770863Y-116570066D01*
X151751921Y-116585612D01*
X151736375Y-116604554D01*
X151724824Y-116626165D01*
X151717711Y-116649614D01*
X151715309Y-116674000D01*
X151717711Y-116698386D01*
X151724824Y-116721835D01*
X151730069Y-116732925D01*
X151774053Y-116815211D01*
X151774053Y-116815212D01*
X151815509Y-116951875D01*
X151829507Y-117094000D01*
X151815509Y-117236125D01*
X151791985Y-117313675D01*
X151774053Y-117372789D01*
X151706731Y-117498738D01*
X151616132Y-117609132D01*
X151587812Y-117632374D01*
X151570485Y-117649701D01*
X151556871Y-117670075D01*
X151547493Y-117692714D01*
X151542713Y-117716748D01*
X151542713Y-117741252D01*
X151547493Y-117765286D01*
X151556871Y-117787925D01*
X151570485Y-117808299D01*
X151587812Y-117825626D01*
X151616132Y-117848868D01*
X151706731Y-117959262D01*
X151774053Y-118085211D01*
X151774053Y-118085212D01*
X151815509Y-118221875D01*
X151829507Y-118364000D01*
X151815509Y-118506125D01*
X151787872Y-118597234D01*
X151774053Y-118642789D01*
X151706731Y-118768738D01*
X151616132Y-118879132D01*
X151505738Y-118969731D01*
X151379789Y-119037053D01*
X151334234Y-119050872D01*
X151243125Y-119078509D01*
X151172113Y-119085503D01*
X151136608Y-119089000D01*
X150615392Y-119089000D01*
X150579887Y-119085503D01*
X150508875Y-119078509D01*
X150417766Y-119050872D01*
X150372211Y-119037053D01*
X150246262Y-118969731D01*
X150135868Y-118879132D01*
X150045269Y-118768738D01*
X149977947Y-118642789D01*
X149964128Y-118597234D01*
X149936491Y-118506125D01*
X149922493Y-118364000D01*
X149936491Y-118221875D01*
X149977947Y-118085212D01*
X149977947Y-118085211D01*
X150045269Y-117959262D01*
X150135868Y-117848868D01*
X150164188Y-117825626D01*
X150181515Y-117808299D01*
X150195129Y-117787925D01*
X150204507Y-117765286D01*
X150209287Y-117741252D01*
X150209287Y-117716748D01*
X150204507Y-117692714D01*
X150195129Y-117670075D01*
X150181515Y-117649701D01*
X150164188Y-117632374D01*
X150135868Y-117609132D01*
X150045269Y-117498738D01*
X149977947Y-117372789D01*
X149960015Y-117313675D01*
X149936491Y-117236125D01*
X149922493Y-117094000D01*
X149936491Y-116951875D01*
X149977947Y-116815212D01*
X149977947Y-116815211D01*
X150021931Y-116732925D01*
X150031308Y-116710287D01*
X150036089Y-116686253D01*
X150036089Y-116661749D01*
X150031309Y-116637715D01*
X150021932Y-116615076D01*
X150008318Y-116594702D01*
X149990991Y-116577374D01*
X149970616Y-116563760D01*
X149947978Y-116554383D01*
X149926000Y-116550011D01*
X149926000Y-115099000D01*
X151826000Y-115099000D01*
X151826000Y-116550409D01*
X151826000Y-116550409D01*
G37*
G36*
X137356030Y-115854469D02*
X137356033Y-115854470D01*
X137356034Y-115854470D01*
X137544535Y-115911651D01*
X137544537Y-115911652D01*
X137718260Y-116004509D01*
X137870528Y-116129472D01*
X137995491Y-116281740D01*
X138047740Y-116379491D01*
X138088349Y-116455465D01*
X138136766Y-116615076D01*
X138145531Y-116643970D01*
X138164838Y-116840000D01*
X138145531Y-117036030D01*
X138088348Y-117224537D01*
X137995491Y-117398260D01*
X137870528Y-117550528D01*
X137718260Y-117675491D01*
X137546960Y-117767053D01*
X137544535Y-117768349D01*
X137356034Y-117825530D01*
X137356033Y-117825530D01*
X137356030Y-117825531D01*
X137209124Y-117840000D01*
X137110876Y-117840000D01*
X136963970Y-117825531D01*
X136963967Y-117825530D01*
X136963966Y-117825530D01*
X136775465Y-117768349D01*
X136773040Y-117767053D01*
X136601740Y-117675491D01*
X136449472Y-117550528D01*
X136324509Y-117398260D01*
X136231652Y-117224537D01*
X136174469Y-117036030D01*
X136155162Y-116840000D01*
X136174469Y-116643970D01*
X136183234Y-116615076D01*
X136231651Y-116455465D01*
X136272260Y-116379491D01*
X136324509Y-116281740D01*
X136449472Y-116129472D01*
X136601740Y-116004509D01*
X136775463Y-115911652D01*
X136775465Y-115911651D01*
X136963966Y-115854470D01*
X136963967Y-115854470D01*
X136963970Y-115854469D01*
X137110876Y-115840000D01*
X137209124Y-115840000D01*
X137356030Y-115854469D01*
X137356030Y-115854469D01*
G37*
G36*
X144955770Y-115855372D02*
X145071689Y-115878429D01*
X145253678Y-115953811D01*
X145417463Y-116063249D01*
X145556751Y-116202537D01*
X145666189Y-116366322D01*
X145741571Y-116548311D01*
X145761721Y-116649614D01*
X145780000Y-116741507D01*
X145780000Y-116938493D01*
X145764628Y-117015770D01*
X145741571Y-117131689D01*
X145666189Y-117313678D01*
X145556751Y-117477463D01*
X145417463Y-117616751D01*
X145253678Y-117726189D01*
X145071689Y-117801571D01*
X144984066Y-117819000D01*
X144878493Y-117840000D01*
X144681507Y-117840000D01*
X144575934Y-117819000D01*
X144488311Y-117801571D01*
X144306322Y-117726189D01*
X144142537Y-117616751D01*
X144003249Y-117477463D01*
X143893811Y-117313678D01*
X143818429Y-117131689D01*
X143795372Y-117015770D01*
X143780000Y-116938493D01*
X143780000Y-116741507D01*
X143798279Y-116649614D01*
X143818429Y-116548311D01*
X143893811Y-116366322D01*
X144003249Y-116202537D01*
X144142537Y-116063249D01*
X144306322Y-115953811D01*
X144488311Y-115878429D01*
X144604230Y-115855372D01*
X144681507Y-115840000D01*
X144878493Y-115840000D01*
X144955770Y-115855372D01*
X144955770Y-115855372D01*
G37*
G36*
X137335770Y-111791372D02*
X137451689Y-111814429D01*
X137633678Y-111889811D01*
X137797463Y-111999249D01*
X137936751Y-112138537D01*
X138046189Y-112302322D01*
X138121571Y-112484311D01*
X138160000Y-112677509D01*
X138160000Y-112874491D01*
X138121571Y-113067689D01*
X138046189Y-113249678D01*
X137936751Y-113413463D01*
X137797463Y-113552751D01*
X137633678Y-113662189D01*
X137451689Y-113737571D01*
X137335770Y-113760628D01*
X137258493Y-113776000D01*
X137061507Y-113776000D01*
X136984230Y-113760628D01*
X136868311Y-113737571D01*
X136686322Y-113662189D01*
X136522537Y-113552751D01*
X136383249Y-113413463D01*
X136273811Y-113249678D01*
X136198429Y-113067689D01*
X136160000Y-112874491D01*
X136160000Y-112677509D01*
X136198429Y-112484311D01*
X136273811Y-112302322D01*
X136383249Y-112138537D01*
X136522537Y-111999249D01*
X136686322Y-111889811D01*
X136868311Y-111814429D01*
X136984230Y-111791372D01*
X137061507Y-111776000D01*
X137258493Y-111776000D01*
X137335770Y-111791372D01*
X137335770Y-111791372D01*
G37*
G36*
X142335770Y-111791372D02*
X142451689Y-111814429D01*
X142633678Y-111889811D01*
X142797463Y-111999249D01*
X142936751Y-112138537D01*
X143046189Y-112302322D01*
X143121571Y-112484311D01*
X143160000Y-112677509D01*
X143160000Y-112874491D01*
X143121571Y-113067689D01*
X143046189Y-113249678D01*
X142936751Y-113413463D01*
X142797463Y-113552751D01*
X142633678Y-113662189D01*
X142451689Y-113737571D01*
X142335770Y-113760628D01*
X142258493Y-113776000D01*
X142061507Y-113776000D01*
X141984230Y-113760628D01*
X141868311Y-113737571D01*
X141686322Y-113662189D01*
X141522537Y-113552751D01*
X141383249Y-113413463D01*
X141273811Y-113249678D01*
X141198429Y-113067689D01*
X141160000Y-112874491D01*
X141160000Y-112677509D01*
X141198429Y-112484311D01*
X141273811Y-112302322D01*
X141383249Y-112138537D01*
X141522537Y-111999249D01*
X141686322Y-111889811D01*
X141868311Y-111814429D01*
X141984230Y-111791372D01*
X142061507Y-111776000D01*
X142258493Y-111776000D01*
X142335770Y-111791372D01*
X142335770Y-111791372D01*
G37*
G36*
X151826000Y-107914409D02*
X151815923Y-107915402D01*
X151792474Y-107922515D01*
X151770863Y-107934066D01*
X151751921Y-107949612D01*
X151736375Y-107968554D01*
X151724824Y-107990165D01*
X151717711Y-108013614D01*
X151715309Y-108038000D01*
X151717711Y-108062386D01*
X151724824Y-108085835D01*
X151730069Y-108096925D01*
X151774053Y-108179211D01*
X151774053Y-108179212D01*
X151815509Y-108315875D01*
X151829507Y-108458000D01*
X151815509Y-108600125D01*
X151798083Y-108657571D01*
X151774053Y-108736789D01*
X151706731Y-108862738D01*
X151616132Y-108973132D01*
X151587812Y-108996374D01*
X151570485Y-109013701D01*
X151556871Y-109034075D01*
X151547493Y-109056714D01*
X151542713Y-109080748D01*
X151542713Y-109105252D01*
X151547493Y-109129286D01*
X151556871Y-109151925D01*
X151570485Y-109172299D01*
X151587812Y-109189626D01*
X151616132Y-109212868D01*
X151706731Y-109323262D01*
X151774053Y-109449211D01*
X151774053Y-109449212D01*
X151815509Y-109585875D01*
X151829507Y-109728000D01*
X151815509Y-109870125D01*
X151787872Y-109961234D01*
X151774053Y-110006789D01*
X151706731Y-110132738D01*
X151616132Y-110243132D01*
X151505738Y-110333731D01*
X151379789Y-110401053D01*
X151334234Y-110414872D01*
X151243125Y-110442509D01*
X151172113Y-110449503D01*
X151136608Y-110453000D01*
X150615392Y-110453000D01*
X150579887Y-110449503D01*
X150508875Y-110442509D01*
X150417766Y-110414872D01*
X150372211Y-110401053D01*
X150246262Y-110333731D01*
X150135868Y-110243132D01*
X150045269Y-110132738D01*
X149977947Y-110006789D01*
X149964128Y-109961234D01*
X149936491Y-109870125D01*
X149922493Y-109728000D01*
X149936491Y-109585875D01*
X149977947Y-109449212D01*
X149977947Y-109449211D01*
X150045269Y-109323262D01*
X150135868Y-109212868D01*
X150164188Y-109189626D01*
X150181515Y-109172299D01*
X150195129Y-109151925D01*
X150204507Y-109129286D01*
X150209287Y-109105252D01*
X150209287Y-109080748D01*
X150204507Y-109056714D01*
X150195129Y-109034075D01*
X150181515Y-109013701D01*
X150164188Y-108996374D01*
X150135868Y-108973132D01*
X150045269Y-108862738D01*
X149977947Y-108736789D01*
X149953917Y-108657571D01*
X149936491Y-108600125D01*
X149922493Y-108458000D01*
X149936491Y-108315875D01*
X149977947Y-108179212D01*
X149977947Y-108179211D01*
X150021931Y-108096925D01*
X150031308Y-108074287D01*
X150036089Y-108050253D01*
X150036089Y-108025749D01*
X150031309Y-108001715D01*
X150021932Y-107979076D01*
X150008318Y-107958702D01*
X149990991Y-107941374D01*
X149970616Y-107927760D01*
X149947978Y-107918383D01*
X149926000Y-107914011D01*
X149926000Y-106463000D01*
X151826000Y-106463000D01*
X151826000Y-107914409D01*
X151826000Y-107914409D01*
G37*
G36*
X142415770Y-106711372D02*
X142531689Y-106734429D01*
X142713678Y-106809811D01*
X142877463Y-106919249D01*
X143016751Y-107058537D01*
X143126189Y-107222322D01*
X143201571Y-107404311D01*
X143240000Y-107597509D01*
X143240000Y-107794491D01*
X143201571Y-107987689D01*
X143126189Y-108169678D01*
X143016751Y-108333463D01*
X142877463Y-108472751D01*
X142713678Y-108582189D01*
X142531689Y-108657571D01*
X142415770Y-108680628D01*
X142338493Y-108696000D01*
X142141507Y-108696000D01*
X142064230Y-108680628D01*
X141948311Y-108657571D01*
X141766322Y-108582189D01*
X141602537Y-108472751D01*
X141463249Y-108333463D01*
X141353811Y-108169678D01*
X141278429Y-107987689D01*
X141240000Y-107794491D01*
X141240000Y-107597509D01*
X141278429Y-107404311D01*
X141353811Y-107222322D01*
X141463249Y-107058537D01*
X141602537Y-106919249D01*
X141766322Y-106809811D01*
X141948311Y-106734429D01*
X142064230Y-106711372D01*
X142141507Y-106696000D01*
X142338493Y-106696000D01*
X142415770Y-106711372D01*
X142415770Y-106711372D01*
G37*
G36*
X137415770Y-106711372D02*
X137531689Y-106734429D01*
X137713678Y-106809811D01*
X137877463Y-106919249D01*
X138016751Y-107058537D01*
X138126189Y-107222322D01*
X138201571Y-107404311D01*
X138240000Y-107597509D01*
X138240000Y-107794491D01*
X138201571Y-107987689D01*
X138126189Y-108169678D01*
X138016751Y-108333463D01*
X137877463Y-108472751D01*
X137713678Y-108582189D01*
X137531689Y-108657571D01*
X137415770Y-108680628D01*
X137338493Y-108696000D01*
X137141507Y-108696000D01*
X137064230Y-108680628D01*
X136948311Y-108657571D01*
X136766322Y-108582189D01*
X136602537Y-108472751D01*
X136463249Y-108333463D01*
X136353811Y-108169678D01*
X136278429Y-107987689D01*
X136240000Y-107794491D01*
X136240000Y-107597509D01*
X136278429Y-107404311D01*
X136353811Y-107222322D01*
X136463249Y-107058537D01*
X136602537Y-106919249D01*
X136766322Y-106809811D01*
X136948311Y-106734429D01*
X137064230Y-106711372D01*
X137141507Y-106696000D01*
X137338493Y-106696000D01*
X137415770Y-106711372D01*
X137415770Y-106711372D01*
G37*
G36*
X137335770Y-102139372D02*
X137451689Y-102162429D01*
X137633678Y-102237811D01*
X137797463Y-102347249D01*
X137936751Y-102486537D01*
X138046189Y-102650322D01*
X138121571Y-102832311D01*
X138160000Y-103025509D01*
X138160000Y-103222491D01*
X138121571Y-103415689D01*
X138046189Y-103597678D01*
X137936751Y-103761463D01*
X137797463Y-103900751D01*
X137633678Y-104010189D01*
X137451689Y-104085571D01*
X137335770Y-104108628D01*
X137258493Y-104124000D01*
X137061507Y-104124000D01*
X136984230Y-104108628D01*
X136868311Y-104085571D01*
X136686322Y-104010189D01*
X136522537Y-103900751D01*
X136383249Y-103761463D01*
X136273811Y-103597678D01*
X136198429Y-103415689D01*
X136160000Y-103222491D01*
X136160000Y-103025509D01*
X136198429Y-102832311D01*
X136273811Y-102650322D01*
X136383249Y-102486537D01*
X136522537Y-102347249D01*
X136686322Y-102237811D01*
X136868311Y-102162429D01*
X136984230Y-102139372D01*
X137061507Y-102124000D01*
X137258493Y-102124000D01*
X137335770Y-102139372D01*
X137335770Y-102139372D01*
G37*
G36*
X144976030Y-102138469D02*
X144976033Y-102138470D01*
X144976034Y-102138470D01*
X145164535Y-102195651D01*
X145164537Y-102195652D01*
X145338260Y-102288509D01*
X145490528Y-102413472D01*
X145615491Y-102565740D01*
X145708348Y-102739463D01*
X145765531Y-102927970D01*
X145784838Y-103124000D01*
X145765531Y-103320030D01*
X145708348Y-103508537D01*
X145615491Y-103682260D01*
X145490528Y-103834528D01*
X145338260Y-103959491D01*
X145338258Y-103959492D01*
X145164535Y-104052349D01*
X144976034Y-104109530D01*
X144976033Y-104109530D01*
X144976030Y-104109531D01*
X144829124Y-104124000D01*
X144730876Y-104124000D01*
X144583970Y-104109531D01*
X144583967Y-104109530D01*
X144583966Y-104109530D01*
X144395465Y-104052349D01*
X144221742Y-103959492D01*
X144221740Y-103959491D01*
X144069472Y-103834528D01*
X143944509Y-103682260D01*
X143851652Y-103508537D01*
X143794469Y-103320030D01*
X143775162Y-103124000D01*
X143794469Y-102927970D01*
X143851652Y-102739463D01*
X143944509Y-102565740D01*
X144069472Y-102413472D01*
X144221740Y-102288509D01*
X144395463Y-102195652D01*
X144395465Y-102195651D01*
X144583966Y-102138470D01*
X144583967Y-102138470D01*
X144583970Y-102138469D01*
X144730876Y-102124000D01*
X144829124Y-102124000D01*
X144976030Y-102138469D01*
X144976030Y-102138469D01*
G37*
G36*
X137335770Y-97567372D02*
X137451689Y-97590429D01*
X137633678Y-97665811D01*
X137797463Y-97775249D01*
X137936751Y-97914537D01*
X138046189Y-98078322D01*
X138121571Y-98260311D01*
X138160000Y-98453509D01*
X138160000Y-98650491D01*
X138121571Y-98843689D01*
X138046189Y-99025678D01*
X137936751Y-99189463D01*
X137797463Y-99328751D01*
X137633678Y-99438189D01*
X137451689Y-99513571D01*
X137335770Y-99536628D01*
X137258493Y-99552000D01*
X137061507Y-99552000D01*
X136984230Y-99536628D01*
X136868311Y-99513571D01*
X136686322Y-99438189D01*
X136522537Y-99328751D01*
X136383249Y-99189463D01*
X136273811Y-99025678D01*
X136198429Y-98843689D01*
X136160000Y-98650491D01*
X136160000Y-98453509D01*
X136198429Y-98260311D01*
X136273811Y-98078322D01*
X136383249Y-97914537D01*
X136522537Y-97775249D01*
X136686322Y-97665811D01*
X136868311Y-97590429D01*
X136984230Y-97567372D01*
X137061507Y-97552000D01*
X137258493Y-97552000D01*
X137335770Y-97567372D01*
X137335770Y-97567372D01*
G37*
G36*
X144976030Y-97566469D02*
X144976033Y-97566470D01*
X144976034Y-97566470D01*
X145164535Y-97623651D01*
X145164537Y-97623652D01*
X145338260Y-97716509D01*
X145490528Y-97841472D01*
X145615491Y-97993740D01*
X145708348Y-98167463D01*
X145765531Y-98355970D01*
X145784838Y-98552000D01*
X145765531Y-98748030D01*
X145708348Y-98936537D01*
X145615491Y-99110260D01*
X145490528Y-99262528D01*
X145338260Y-99387491D01*
X145338258Y-99387492D01*
X145164535Y-99480349D01*
X144976034Y-99537530D01*
X144976033Y-99537530D01*
X144976030Y-99537531D01*
X144829124Y-99552000D01*
X144730876Y-99552000D01*
X144583970Y-99537531D01*
X144583967Y-99537530D01*
X144583966Y-99537530D01*
X144395465Y-99480349D01*
X144221742Y-99387492D01*
X144221740Y-99387491D01*
X144069472Y-99262528D01*
X143944509Y-99110260D01*
X143851652Y-98936537D01*
X143794469Y-98748030D01*
X143775162Y-98552000D01*
X143794469Y-98355970D01*
X143851652Y-98167463D01*
X143944509Y-97993740D01*
X144069472Y-97841472D01*
X144221740Y-97716509D01*
X144395463Y-97623652D01*
X144395465Y-97623651D01*
X144583966Y-97566470D01*
X144583967Y-97566470D01*
X144583970Y-97566469D01*
X144730876Y-97552000D01*
X144829124Y-97552000D01*
X144976030Y-97566469D01*
X144976030Y-97566469D01*
G37*
G36*
X151318000Y-95214409D02*
X151307923Y-95215402D01*
X151284474Y-95222515D01*
X151262863Y-95234066D01*
X151243921Y-95249612D01*
X151228375Y-95268554D01*
X151216824Y-95290165D01*
X151209711Y-95313614D01*
X151207309Y-95338000D01*
X151209711Y-95362386D01*
X151216824Y-95385835D01*
X151222069Y-95396925D01*
X151266053Y-95479211D01*
X151266053Y-95479212D01*
X151307509Y-95615875D01*
X151321507Y-95758000D01*
X151307509Y-95900125D01*
X151279872Y-95991234D01*
X151266053Y-96036789D01*
X151198731Y-96162738D01*
X151108132Y-96273132D01*
X151079812Y-96296374D01*
X151062485Y-96313701D01*
X151048871Y-96334075D01*
X151039493Y-96356714D01*
X151034713Y-96380748D01*
X151034713Y-96405252D01*
X151039493Y-96429286D01*
X151048871Y-96451925D01*
X151062485Y-96472299D01*
X151079812Y-96489626D01*
X151108132Y-96512868D01*
X151198731Y-96623262D01*
X151266053Y-96749211D01*
X151266053Y-96749212D01*
X151307509Y-96885875D01*
X151321507Y-97028000D01*
X151307509Y-97170125D01*
X151279872Y-97261234D01*
X151266053Y-97306789D01*
X151198731Y-97432738D01*
X151108132Y-97543132D01*
X150997738Y-97633731D01*
X150871789Y-97701053D01*
X150826234Y-97714872D01*
X150735125Y-97742509D01*
X150664113Y-97749503D01*
X150628608Y-97753000D01*
X150107392Y-97753000D01*
X150071887Y-97749503D01*
X150000875Y-97742509D01*
X149909766Y-97714872D01*
X149864211Y-97701053D01*
X149738262Y-97633731D01*
X149627868Y-97543132D01*
X149537269Y-97432738D01*
X149469947Y-97306789D01*
X149456128Y-97261234D01*
X149428491Y-97170125D01*
X149414493Y-97028000D01*
X149428491Y-96885875D01*
X149469947Y-96749212D01*
X149469947Y-96749211D01*
X149537269Y-96623262D01*
X149627868Y-96512868D01*
X149656188Y-96489626D01*
X149673515Y-96472299D01*
X149687129Y-96451925D01*
X149696507Y-96429286D01*
X149701287Y-96405252D01*
X149701287Y-96380748D01*
X149696507Y-96356714D01*
X149687129Y-96334075D01*
X149673515Y-96313701D01*
X149656188Y-96296374D01*
X149627868Y-96273132D01*
X149537269Y-96162738D01*
X149469947Y-96036789D01*
X149456128Y-95991234D01*
X149428491Y-95900125D01*
X149414493Y-95758000D01*
X149428491Y-95615875D01*
X149469947Y-95479212D01*
X149469947Y-95479211D01*
X149513931Y-95396925D01*
X149523308Y-95374287D01*
X149528089Y-95350253D01*
X149528089Y-95325749D01*
X149523309Y-95301715D01*
X149513932Y-95279076D01*
X149500318Y-95258702D01*
X149482991Y-95241374D01*
X149462616Y-95227760D01*
X149439978Y-95218383D01*
X149418000Y-95214011D01*
X149418000Y-93763000D01*
X151318000Y-93763000D01*
X151318000Y-95214409D01*
X151318000Y-95214409D01*
G37*
G36*
X137356030Y-93502469D02*
X137356033Y-93502470D01*
X137356034Y-93502470D01*
X137544535Y-93559651D01*
X137544537Y-93559652D01*
X137718260Y-93652509D01*
X137870528Y-93777472D01*
X137995491Y-93929740D01*
X138088348Y-94103463D01*
X138145531Y-94291970D01*
X138164838Y-94488000D01*
X138145531Y-94684030D01*
X138088348Y-94872537D01*
X137995491Y-95046260D01*
X137870528Y-95198528D01*
X137718260Y-95323491D01*
X137645493Y-95362386D01*
X137544535Y-95416349D01*
X137356034Y-95473530D01*
X137356033Y-95473530D01*
X137356030Y-95473531D01*
X137209124Y-95488000D01*
X137110876Y-95488000D01*
X136963970Y-95473531D01*
X136963967Y-95473530D01*
X136963966Y-95473530D01*
X136775465Y-95416349D01*
X136674507Y-95362386D01*
X136601740Y-95323491D01*
X136449472Y-95198528D01*
X136324509Y-95046260D01*
X136231652Y-94872537D01*
X136174469Y-94684030D01*
X136155162Y-94488000D01*
X136174469Y-94291970D01*
X136231652Y-94103463D01*
X136324509Y-93929740D01*
X136449472Y-93777472D01*
X136601740Y-93652509D01*
X136775463Y-93559652D01*
X136775465Y-93559651D01*
X136963966Y-93502470D01*
X136963967Y-93502470D01*
X136963970Y-93502469D01*
X137110876Y-93488000D01*
X137209124Y-93488000D01*
X137356030Y-93502469D01*
X137356030Y-93502469D01*
G37*
G36*
X144955770Y-93503372D02*
X145071689Y-93526429D01*
X145253678Y-93601811D01*
X145417463Y-93711249D01*
X145556751Y-93850537D01*
X145666189Y-94014322D01*
X145741571Y-94196311D01*
X145780000Y-94389509D01*
X145780000Y-94586491D01*
X145741571Y-94779689D01*
X145666189Y-94961678D01*
X145556751Y-95125463D01*
X145417463Y-95264751D01*
X145253678Y-95374189D01*
X145071689Y-95449571D01*
X144955770Y-95472628D01*
X144878493Y-95488000D01*
X144681507Y-95488000D01*
X144604230Y-95472628D01*
X144488311Y-95449571D01*
X144306322Y-95374189D01*
X144142537Y-95264751D01*
X144003249Y-95125463D01*
X143893811Y-94961678D01*
X143818429Y-94779689D01*
X143780000Y-94586491D01*
X143780000Y-94389509D01*
X143818429Y-94196311D01*
X143893811Y-94014322D01*
X144003249Y-93850537D01*
X144142537Y-93711249D01*
X144306322Y-93601811D01*
X144488311Y-93526429D01*
X144604230Y-93503372D01*
X144681507Y-93488000D01*
X144878493Y-93488000D01*
X144955770Y-93503372D01*
X144955770Y-93503372D01*
G37*
G36*
X142335770Y-87915372D02*
X142451689Y-87938429D01*
X142633678Y-88013811D01*
X142797463Y-88123249D01*
X142936751Y-88262537D01*
X143046189Y-88426322D01*
X143121571Y-88608311D01*
X143160000Y-88801509D01*
X143160000Y-88998491D01*
X143121571Y-89191689D01*
X143046189Y-89373678D01*
X142936751Y-89537463D01*
X142797463Y-89676751D01*
X142633678Y-89786189D01*
X142451689Y-89861571D01*
X142335770Y-89884628D01*
X142258493Y-89900000D01*
X142061507Y-89900000D01*
X141984230Y-89884628D01*
X141868311Y-89861571D01*
X141686322Y-89786189D01*
X141522537Y-89676751D01*
X141383249Y-89537463D01*
X141273811Y-89373678D01*
X141198429Y-89191689D01*
X141160000Y-88998491D01*
X141160000Y-88801509D01*
X141198429Y-88608311D01*
X141273811Y-88426322D01*
X141383249Y-88262537D01*
X141522537Y-88123249D01*
X141686322Y-88013811D01*
X141868311Y-87938429D01*
X141984230Y-87915372D01*
X142061507Y-87900000D01*
X142258493Y-87900000D01*
X142335770Y-87915372D01*
X142335770Y-87915372D01*
G37*
G36*
X137335770Y-87915372D02*
X137451689Y-87938429D01*
X137633678Y-88013811D01*
X137797463Y-88123249D01*
X137936751Y-88262537D01*
X138046189Y-88426322D01*
X138121571Y-88608311D01*
X138160000Y-88801509D01*
X138160000Y-88998491D01*
X138121571Y-89191689D01*
X138046189Y-89373678D01*
X137936751Y-89537463D01*
X137797463Y-89676751D01*
X137633678Y-89786189D01*
X137451689Y-89861571D01*
X137335770Y-89884628D01*
X137258493Y-89900000D01*
X137061507Y-89900000D01*
X136984230Y-89884628D01*
X136868311Y-89861571D01*
X136686322Y-89786189D01*
X136522537Y-89676751D01*
X136383249Y-89537463D01*
X136273811Y-89373678D01*
X136198429Y-89191689D01*
X136160000Y-88998491D01*
X136160000Y-88801509D01*
X136198429Y-88608311D01*
X136273811Y-88426322D01*
X136383249Y-88262537D01*
X136522537Y-88123249D01*
X136686322Y-88013811D01*
X136868311Y-87938429D01*
X136984230Y-87915372D01*
X137061507Y-87900000D01*
X137258493Y-87900000D01*
X137335770Y-87915372D01*
X137335770Y-87915372D01*
G37*
G36*
X151318000Y-86578409D02*
X151307923Y-86579402D01*
X151284474Y-86586515D01*
X151262863Y-86598066D01*
X151243921Y-86613612D01*
X151228375Y-86632554D01*
X151216824Y-86654165D01*
X151209711Y-86677614D01*
X151207309Y-86702000D01*
X151209711Y-86726386D01*
X151216824Y-86749835D01*
X151222069Y-86760925D01*
X151266053Y-86843211D01*
X151266053Y-86843212D01*
X151307509Y-86979875D01*
X151321507Y-87122000D01*
X151307509Y-87264125D01*
X151279872Y-87355234D01*
X151266053Y-87400789D01*
X151198731Y-87526738D01*
X151108132Y-87637132D01*
X151079812Y-87660374D01*
X151062485Y-87677701D01*
X151048871Y-87698075D01*
X151039493Y-87720714D01*
X151034713Y-87744748D01*
X151034713Y-87769252D01*
X151039493Y-87793286D01*
X151048871Y-87815925D01*
X151062485Y-87836299D01*
X151079812Y-87853626D01*
X151108132Y-87876868D01*
X151198731Y-87987262D01*
X151266053Y-88113211D01*
X151266053Y-88113212D01*
X151307509Y-88249875D01*
X151321507Y-88392000D01*
X151307509Y-88534125D01*
X151285005Y-88608311D01*
X151266053Y-88670789D01*
X151198731Y-88796738D01*
X151108132Y-88907132D01*
X150997738Y-88997731D01*
X150871789Y-89065053D01*
X150826234Y-89078872D01*
X150735125Y-89106509D01*
X150664113Y-89113503D01*
X150628608Y-89117000D01*
X150107392Y-89117000D01*
X150071887Y-89113503D01*
X150000875Y-89106509D01*
X149909766Y-89078872D01*
X149864211Y-89065053D01*
X149738262Y-88997731D01*
X149627868Y-88907132D01*
X149537269Y-88796738D01*
X149469947Y-88670789D01*
X149450995Y-88608311D01*
X149428491Y-88534125D01*
X149414493Y-88392000D01*
X149428491Y-88249875D01*
X149469947Y-88113212D01*
X149469947Y-88113211D01*
X149537269Y-87987262D01*
X149627868Y-87876868D01*
X149656188Y-87853626D01*
X149673515Y-87836299D01*
X149687129Y-87815925D01*
X149696507Y-87793286D01*
X149701287Y-87769252D01*
X149701287Y-87744748D01*
X149696507Y-87720714D01*
X149687129Y-87698075D01*
X149673515Y-87677701D01*
X149656188Y-87660374D01*
X149627868Y-87637132D01*
X149537269Y-87526738D01*
X149469947Y-87400789D01*
X149456128Y-87355234D01*
X149428491Y-87264125D01*
X149414493Y-87122000D01*
X149428491Y-86979875D01*
X149469947Y-86843212D01*
X149469947Y-86843211D01*
X149513931Y-86760925D01*
X149523308Y-86738287D01*
X149528089Y-86714253D01*
X149528089Y-86689749D01*
X149523309Y-86665715D01*
X149513932Y-86643076D01*
X149500318Y-86622702D01*
X149482991Y-86605374D01*
X149462616Y-86591760D01*
X149439978Y-86582383D01*
X149418000Y-86578011D01*
X149418000Y-85127000D01*
X151318000Y-85127000D01*
X151318000Y-86578409D01*
X151318000Y-86578409D01*
G37*
G36*
X137335770Y-83851372D02*
X137451689Y-83874429D01*
X137633678Y-83949811D01*
X137797463Y-84059249D01*
X137936751Y-84198537D01*
X138046189Y-84362322D01*
X138121571Y-84544311D01*
X138160000Y-84737509D01*
X138160000Y-84934491D01*
X138121571Y-85127689D01*
X138046189Y-85309678D01*
X137936751Y-85473463D01*
X137797463Y-85612751D01*
X137633678Y-85722189D01*
X137451689Y-85797571D01*
X137335770Y-85820628D01*
X137258493Y-85836000D01*
X137061507Y-85836000D01*
X136984230Y-85820628D01*
X136868311Y-85797571D01*
X136686322Y-85722189D01*
X136522537Y-85612751D01*
X136383249Y-85473463D01*
X136273811Y-85309678D01*
X136198429Y-85127689D01*
X136160000Y-84934491D01*
X136160000Y-84737509D01*
X136198429Y-84544311D01*
X136273811Y-84362322D01*
X136383249Y-84198537D01*
X136522537Y-84059249D01*
X136686322Y-83949811D01*
X136868311Y-83874429D01*
X136984230Y-83851372D01*
X137061507Y-83836000D01*
X137258493Y-83836000D01*
X137335770Y-83851372D01*
X137335770Y-83851372D01*
G37*
G36*
X144976030Y-83850469D02*
X144976033Y-83850470D01*
X144976034Y-83850470D01*
X145164535Y-83907651D01*
X145164537Y-83907652D01*
X145338260Y-84000509D01*
X145490528Y-84125472D01*
X145615491Y-84277740D01*
X145708348Y-84451463D01*
X145765531Y-84639970D01*
X145784838Y-84836000D01*
X145765531Y-85032030D01*
X145708348Y-85220537D01*
X145615491Y-85394260D01*
X145490528Y-85546528D01*
X145338260Y-85671491D01*
X145338258Y-85671492D01*
X145164535Y-85764349D01*
X144976034Y-85821530D01*
X144976033Y-85821530D01*
X144976030Y-85821531D01*
X144829124Y-85836000D01*
X144730876Y-85836000D01*
X144583970Y-85821531D01*
X144583967Y-85821530D01*
X144583966Y-85821530D01*
X144395465Y-85764349D01*
X144221742Y-85671492D01*
X144221740Y-85671491D01*
X144069472Y-85546528D01*
X143944509Y-85394260D01*
X143851652Y-85220537D01*
X143794469Y-85032030D01*
X143775162Y-84836000D01*
X143794469Y-84639970D01*
X143851652Y-84451463D01*
X143944509Y-84277740D01*
X144069472Y-84125472D01*
X144221740Y-84000509D01*
X144395463Y-83907652D01*
X144395465Y-83907651D01*
X144583966Y-83850470D01*
X144583967Y-83850470D01*
X144583970Y-83850469D01*
X144730876Y-83836000D01*
X144829124Y-83836000D01*
X144976030Y-83850469D01*
X144976030Y-83850469D01*
G37*
G36*
X158116707Y-82015596D02*
X158193836Y-82023193D01*
X158325787Y-82063220D01*
X158391763Y-82083233D01*
X158574172Y-82180733D01*
X158734054Y-82311946D01*
X158865267Y-82471828D01*
X158962767Y-82654237D01*
X158962767Y-82654238D01*
X159022807Y-82852164D01*
X159043080Y-83058000D01*
X159022807Y-83263836D01*
X158982780Y-83395787D01*
X158962767Y-83461763D01*
X158865267Y-83644172D01*
X158734054Y-83804054D01*
X158574172Y-83935267D01*
X158391763Y-84032767D01*
X158325787Y-84052780D01*
X158193836Y-84092807D01*
X158116707Y-84100403D01*
X158039580Y-84108000D01*
X157936420Y-84108000D01*
X157859293Y-84100403D01*
X157782164Y-84092807D01*
X157650213Y-84052780D01*
X157584237Y-84032767D01*
X157401828Y-83935267D01*
X157241946Y-83804054D01*
X157110733Y-83644172D01*
X157013233Y-83461763D01*
X156993220Y-83395787D01*
X156953193Y-83263836D01*
X156932920Y-83058000D01*
X156953193Y-82852164D01*
X157013233Y-82654238D01*
X157013233Y-82654237D01*
X157110733Y-82471828D01*
X157241946Y-82311946D01*
X157401828Y-82180733D01*
X157584237Y-82083233D01*
X157650213Y-82063220D01*
X157782164Y-82023193D01*
X157859293Y-82015596D01*
X157936420Y-82008000D01*
X158039580Y-82008000D01*
X158116707Y-82015596D01*
X158116707Y-82015596D01*
G37*
G36*
X137335770Y-79787372D02*
X137451689Y-79810429D01*
X137633678Y-79885811D01*
X137797463Y-79995249D01*
X137936751Y-80134537D01*
X138046189Y-80298322D01*
X138121571Y-80480311D01*
X138160000Y-80673509D01*
X138160000Y-80870491D01*
X138121571Y-81063689D01*
X138046189Y-81245678D01*
X137936751Y-81409463D01*
X137797463Y-81548751D01*
X137633678Y-81658189D01*
X137451689Y-81733571D01*
X137335770Y-81756628D01*
X137258493Y-81772000D01*
X137061507Y-81772000D01*
X136984230Y-81756628D01*
X136868311Y-81733571D01*
X136686322Y-81658189D01*
X136522537Y-81548751D01*
X136383249Y-81409463D01*
X136273811Y-81245678D01*
X136198429Y-81063689D01*
X136160000Y-80870491D01*
X136160000Y-80673509D01*
X136198429Y-80480311D01*
X136273811Y-80298322D01*
X136383249Y-80134537D01*
X136522537Y-79995249D01*
X136686322Y-79885811D01*
X136868311Y-79810429D01*
X136984230Y-79787372D01*
X137061507Y-79772000D01*
X137258493Y-79772000D01*
X137335770Y-79787372D01*
X137335770Y-79787372D01*
G37*
G36*
X144976030Y-79786469D02*
X144976033Y-79786470D01*
X144976034Y-79786470D01*
X145164535Y-79843651D01*
X145164537Y-79843652D01*
X145338260Y-79936509D01*
X145490528Y-80061472D01*
X145615491Y-80213740D01*
X145708348Y-80387463D01*
X145765531Y-80575970D01*
X145784838Y-80772000D01*
X145765531Y-80968030D01*
X145708348Y-81156537D01*
X145615491Y-81330260D01*
X145490528Y-81482528D01*
X145338260Y-81607491D01*
X145338258Y-81607492D01*
X145164535Y-81700349D01*
X144976034Y-81757530D01*
X144976033Y-81757530D01*
X144976030Y-81757531D01*
X144829124Y-81772000D01*
X144730876Y-81772000D01*
X144583970Y-81757531D01*
X144583967Y-81757530D01*
X144583966Y-81757530D01*
X144395465Y-81700349D01*
X144221742Y-81607492D01*
X144221740Y-81607491D01*
X144069472Y-81482528D01*
X143944509Y-81330260D01*
X143851652Y-81156537D01*
X143794469Y-80968030D01*
X143775162Y-80772000D01*
X143794469Y-80575970D01*
X143851652Y-80387463D01*
X143944509Y-80213740D01*
X144069472Y-80061472D01*
X144221740Y-79936509D01*
X144395463Y-79843652D01*
X144395465Y-79843651D01*
X144583966Y-79786470D01*
X144583967Y-79786470D01*
X144583970Y-79786469D01*
X144730876Y-79772000D01*
X144829124Y-79772000D01*
X144976030Y-79786469D01*
X144976030Y-79786469D01*
G37*
G36*
X153083770Y-79787372D02*
X153199689Y-79810429D01*
X153381678Y-79885811D01*
X153545463Y-79995249D01*
X153684751Y-80134537D01*
X153794189Y-80298322D01*
X153869571Y-80480311D01*
X153908000Y-80673509D01*
X153908000Y-80870491D01*
X153869571Y-81063689D01*
X153794189Y-81245678D01*
X153684751Y-81409463D01*
X153545463Y-81548751D01*
X153381678Y-81658189D01*
X153199689Y-81733571D01*
X153083770Y-81756628D01*
X153006493Y-81772000D01*
X152809507Y-81772000D01*
X152732230Y-81756628D01*
X152616311Y-81733571D01*
X152434322Y-81658189D01*
X152270537Y-81548751D01*
X152131249Y-81409463D01*
X152021811Y-81245678D01*
X151946429Y-81063689D01*
X151908000Y-80870491D01*
X151908000Y-80673509D01*
X151946429Y-80480311D01*
X152021811Y-80298322D01*
X152131249Y-80134537D01*
X152270537Y-79995249D01*
X152434322Y-79885811D01*
X152616311Y-79810429D01*
X152732230Y-79787372D01*
X152809507Y-79772000D01*
X153006493Y-79772000D01*
X153083770Y-79787372D01*
X153083770Y-79787372D01*
G37*
G36*
X148083770Y-79787372D02*
X148199689Y-79810429D01*
X148381678Y-79885811D01*
X148545463Y-79995249D01*
X148684751Y-80134537D01*
X148794189Y-80298322D01*
X148869571Y-80480311D01*
X148908000Y-80673509D01*
X148908000Y-80870491D01*
X148869571Y-81063689D01*
X148794189Y-81245678D01*
X148684751Y-81409463D01*
X148545463Y-81548751D01*
X148381678Y-81658189D01*
X148199689Y-81733571D01*
X148083770Y-81756628D01*
X148006493Y-81772000D01*
X147809507Y-81772000D01*
X147732230Y-81756628D01*
X147616311Y-81733571D01*
X147434322Y-81658189D01*
X147270537Y-81548751D01*
X147131249Y-81409463D01*
X147021811Y-81245678D01*
X146946429Y-81063689D01*
X146908000Y-80870491D01*
X146908000Y-80673509D01*
X146946429Y-80480311D01*
X147021811Y-80298322D01*
X147131249Y-80134537D01*
X147270537Y-79995249D01*
X147434322Y-79885811D01*
X147616311Y-79810429D01*
X147732230Y-79787372D01*
X147809507Y-79772000D01*
X148006493Y-79772000D01*
X148083770Y-79787372D01*
X148083770Y-79787372D01*
G37*
G36*
X159038000Y-81568000D02*
X156938000Y-81568000D01*
X156938000Y-79468000D01*
X159038000Y-79468000D01*
X159038000Y-81568000D01*
X159038000Y-81568000D01*
G37*
M02*
