G04 #@! TF.GenerationSoftware,KiCad,Pcbnew,(2017-12-21 revision 23d71cfa9)-makepkg*
G04 #@! TF.CreationDate,2018-06-03T16:52:53-04:00*
G04 #@! TF.ProjectId,OdysseyDaughterCardSpotGenerator,4F647973736579446175676874657243,0.1*
G04 #@! TF.SameCoordinates,Original*
G04 #@! TF.FileFunction,Copper,L2,Bot,Signal*
G04 #@! TF.FilePolarity,Positive*
%FSLAX46Y46*%
G04 Gerber Fmt 4.6, Leading zero omitted, Abs format (unit mm)*
G04 Created by KiCad (PCBNEW (2017-12-21 revision 23d71cfa9)-makepkg) date 06/03/18 16:52:53*
%MOMM*%
%LPD*%
G01*
G04 APERTURE LIST*
%ADD10R,11.000000X3.250000*%
%ADD11C,1.600000*%
%ADD12C,1.400000*%
%ADD13O,1.600000X1.600000*%
%ADD14R,1.600000X1.600000*%
%ADD15R,1.500000X1.050000*%
%ADD16O,1.500000X1.050000*%
%ADD17C,0.800000*%
%ADD18C,0.250000*%
G04 APERTURE END LIST*
D10*
X129000000Y-81250000D03*
X129000000Y-85638888D03*
X129000000Y-90027776D03*
X129000000Y-94416664D03*
X129000000Y-98805552D03*
X129000000Y-103194440D03*
X129000000Y-107583328D03*
X129000000Y-111972216D03*
X129000000Y-116361104D03*
X129000000Y-120749992D03*
D11*
X148336000Y-83312000D03*
X148336000Y-80812000D03*
X155956000Y-99608000D03*
X155956000Y-102108000D03*
D12*
X149860000Y-102108000D03*
X149860000Y-99608000D03*
D11*
X149860000Y-94488000D03*
X149860000Y-96988000D03*
X148376000Y-116332000D03*
X150876000Y-116332000D03*
D13*
X137160000Y-80772000D03*
D14*
X144780000Y-80772000D03*
X144780000Y-120650000D03*
D13*
X137160000Y-120650000D03*
D15*
X155448000Y-88392000D03*
D16*
X155448000Y-90932000D03*
X155448000Y-89662000D03*
X156464000Y-106934000D03*
X156464000Y-105664000D03*
D15*
X156464000Y-108204000D03*
D16*
X149860000Y-89662000D03*
X149860000Y-88392000D03*
D15*
X149860000Y-90932000D03*
X150368000Y-108204000D03*
D16*
X150368000Y-105664000D03*
X150368000Y-106934000D03*
D11*
X144780000Y-84455000D03*
D13*
X137160000Y-84455000D03*
X144780000Y-95885000D03*
D11*
X137160000Y-95885000D03*
D13*
X144780000Y-88265000D03*
D11*
X137160000Y-88265000D03*
X137160000Y-103632000D03*
D13*
X144780000Y-103632000D03*
X137160000Y-107696000D03*
D11*
X144780000Y-107696000D03*
X144780000Y-99695000D03*
D13*
X137160000Y-99695000D03*
D11*
X144780000Y-92075000D03*
D13*
X137160000Y-92075000D03*
X137160000Y-116205000D03*
D11*
X144780000Y-116205000D03*
D17*
X135605800Y-94318300D03*
D18*
X144780000Y-95885000D02*
X144780000Y-94759700D01*
X152211600Y-87530100D02*
X148336000Y-87530100D01*
X154343500Y-89662000D02*
X152211600Y-87530100D01*
X155448000Y-89662000D02*
X154343500Y-89662000D01*
X148336000Y-91203700D02*
X148336000Y-87530100D01*
X144780000Y-94759700D02*
X148336000Y-91203700D01*
X148336000Y-87530100D02*
X148336000Y-83312000D01*
X144780000Y-80812000D02*
X148336000Y-80812000D01*
X144780000Y-84455000D02*
X144780000Y-80812000D01*
X144780000Y-80812000D02*
X144780000Y-80772000D01*
X155956000Y-92290300D02*
X155956000Y-99608000D01*
X155448000Y-91782300D02*
X155956000Y-92290300D01*
X155448000Y-90932000D02*
X155448000Y-91782300D01*
X156464000Y-106934000D02*
X155388700Y-106934000D01*
X155388700Y-102675300D02*
X155956000Y-102108000D01*
X155388700Y-106934000D02*
X155388700Y-102675300D01*
X134923700Y-94318300D02*
X134825300Y-94416700D01*
X135605800Y-94318300D02*
X134923700Y-94318300D01*
X129000000Y-94416700D02*
X134825300Y-94416700D01*
X151443400Y-113264600D02*
X148376000Y-116332000D01*
X151443400Y-103691400D02*
X151443400Y-113264600D01*
X149860000Y-102108000D02*
X151443400Y-103691400D01*
X150989300Y-98478700D02*
X149860000Y-99608000D01*
X150989300Y-89716000D02*
X150989300Y-98478700D01*
X150935300Y-89662000D02*
X150989300Y-89716000D01*
X149860000Y-89662000D02*
X150935300Y-89662000D01*
X149860000Y-90932000D02*
X149860000Y-94488000D01*
X150368000Y-106934000D02*
X149292700Y-106934000D01*
X149292700Y-106934000D02*
X149062500Y-106703700D01*
X136063400Y-108821400D02*
X134825300Y-107583300D01*
X146944800Y-108821400D02*
X136063400Y-108821400D01*
X149062500Y-106703700D02*
X146944800Y-108821400D01*
X129000000Y-107583300D02*
X134825300Y-107583300D01*
X148832200Y-98015800D02*
X149860000Y-96988000D01*
X148832200Y-106473400D02*
X148832200Y-98015800D01*
X149062500Y-106703700D02*
X148832200Y-106473400D01*
X135303300Y-80772000D02*
X134825300Y-81250000D01*
X137160000Y-80772000D02*
X135303300Y-80772000D01*
X129000000Y-81250000D02*
X134825300Y-81250000D01*
X134925300Y-120650000D02*
X134825300Y-120750000D01*
X137160000Y-120650000D02*
X134925300Y-120650000D01*
X129000000Y-120750000D02*
X134825300Y-120750000D01*
X157539300Y-89408000D02*
X156523300Y-88392000D01*
X157539300Y-108204000D02*
X157539300Y-89408000D01*
X156464000Y-108204000D02*
X157539300Y-108204000D01*
X155448000Y-88392000D02*
X156523300Y-88392000D01*
X147450100Y-111972200D02*
X129000000Y-111972200D01*
X150368000Y-109054300D02*
X147450100Y-111972200D01*
X150368000Y-108204000D02*
X150368000Y-109054300D01*
X136034700Y-104403800D02*
X134825300Y-103194400D01*
X136034700Y-107696000D02*
X136034700Y-104403800D01*
X137160000Y-107696000D02*
X136034700Y-107696000D01*
X129000000Y-103194400D02*
X134825300Y-103194400D01*
X136009200Y-84455000D02*
X134825300Y-85638900D01*
X137160000Y-84455000D02*
X136009200Y-84455000D01*
X129000000Y-85638900D02*
X134825300Y-85638900D01*
X137160000Y-88265000D02*
X137160000Y-92075000D01*
X137160000Y-92075000D02*
X137160000Y-95885000D01*
X137160000Y-99695000D02*
X137160000Y-103632000D01*
X129000000Y-98805500D02*
X134825300Y-98805500D01*
X137160000Y-98805500D02*
X134825300Y-98805500D01*
X137160000Y-95885000D02*
X137160000Y-98805500D01*
X137160000Y-98805500D02*
X137160000Y-99695000D01*
X144780000Y-107696000D02*
X144780000Y-103632000D01*
X143654700Y-101381400D02*
X144780000Y-102506700D01*
X143654700Y-93164500D02*
X143654700Y-101381400D01*
X137605500Y-87115300D02*
X143654700Y-93164500D01*
X136645700Y-87115300D02*
X137605500Y-87115300D01*
X134825300Y-88935700D02*
X136645700Y-87115300D01*
X134825300Y-90027800D02*
X134825300Y-88935700D01*
X129000000Y-90027800D02*
X134825300Y-90027800D01*
X144780000Y-103632000D02*
X144780000Y-102506700D01*
X134981400Y-116205000D02*
X134825300Y-116361100D01*
X137160000Y-116205000D02*
X134981400Y-116205000D01*
X129000000Y-116361100D02*
X134825300Y-116361100D01*
M02*
