G04 #@! TF.GenerationSoftware,KiCad,Pcbnew,(5.0.1)-3*
G04 #@! TF.CreationDate,2019-02-16T15:36:24-05:00*
G04 #@! TF.ProjectId,OdysseyDaughterCardSpotGenerator,4F647973736579446175676874657243,1.2*
G04 #@! TF.SameCoordinates,Original*
G04 #@! TF.FileFunction,Copper,L1,Top,Signal*
G04 #@! TF.FilePolarity,Positive*
%FSLAX46Y46*%
G04 Gerber Fmt 4.6, Leading zero omitted, Abs format (unit mm)*
G04 Created by KiCad (PCBNEW (5.0.1)-3) date 2/16/2019 3:36:24 PM*
%MOMM*%
%LPD*%
G01*
G04 APERTURE LIST*
G04 #@! TA.AperFunction,ComponentPad*
%ADD10C,1.600000*%
G04 #@! TD*
G04 #@! TA.AperFunction,ComponentPad*
%ADD11R,1.500000X1.050000*%
G04 #@! TD*
G04 #@! TA.AperFunction,ComponentPad*
%ADD12O,1.500000X1.050000*%
G04 #@! TD*
G04 #@! TA.AperFunction,ComponentPad*
%ADD13C,1.400000*%
G04 #@! TD*
G04 #@! TA.AperFunction,ComponentPad*
%ADD14O,1.600000X1.600000*%
G04 #@! TD*
G04 #@! TA.AperFunction,ComponentPad*
%ADD15R,1.600000X1.600000*%
G04 #@! TD*
G04 #@! TA.AperFunction,ComponentPad*
%ADD16R,1.700000X1.700000*%
G04 #@! TD*
G04 #@! TA.AperFunction,ComponentPad*
%ADD17O,1.700000X1.700000*%
G04 #@! TD*
G04 #@! TA.AperFunction,ViaPad*
%ADD18C,0.800000*%
G04 #@! TD*
G04 #@! TA.AperFunction,Conductor*
%ADD19C,0.250000*%
G04 #@! TD*
G04 APERTURE END LIST*
D10*
G04 #@! TO.P,C4,1*
G04 #@! TO.N,Net-(C4-Pad1)*
X148400000Y-86423500D03*
G04 #@! TO.P,C4,2*
G04 #@! TO.N,/Card4*
X148400000Y-88923500D03*
G04 #@! TD*
D11*
G04 #@! TO.P,Q1,1*
G04 #@! TO.N,GND*
X155448000Y-92646500D03*
D12*
G04 #@! TO.P,Q1,3*
G04 #@! TO.N,Net-(C2-Pad2)*
X155448000Y-95186500D03*
G04 #@! TO.P,Q1,2*
G04 #@! TO.N,Net-(C1-Pad1)*
X155448000Y-93916500D03*
G04 #@! TD*
D13*
G04 #@! TO.P,C3,1*
G04 #@! TO.N,Net-(C3-Pad1)*
X149860000Y-102108000D03*
G04 #@! TO.P,C3,2*
G04 #@! TO.N,Net-(C3-Pad2)*
X149860000Y-99608000D03*
G04 #@! TD*
D12*
G04 #@! TO.P,Q3,2*
G04 #@! TO.N,Net-(C3-Pad2)*
X149860000Y-93916500D03*
G04 #@! TO.P,Q3,3*
G04 #@! TO.N,GND*
X149860000Y-92646500D03*
D11*
G04 #@! TO.P,Q3,1*
G04 #@! TO.N,Net-(C4-Pad1)*
X149860000Y-95186500D03*
G04 #@! TD*
D10*
G04 #@! TO.P,R1,1*
G04 #@! TO.N,Net-(C1-Pad2)*
X144780000Y-84455000D03*
D14*
G04 #@! TO.P,R1,2*
G04 #@! TO.N,/Card9*
X137160000Y-84455000D03*
G04 #@! TD*
G04 #@! TO.P,R2,2*
G04 #@! TO.N,Net-(C1-Pad1)*
X144780000Y-95885000D03*
D10*
G04 #@! TO.P,R2,1*
G04 #@! TO.N,/Card6*
X137160000Y-95885000D03*
G04 #@! TD*
D14*
G04 #@! TO.P,R3,2*
G04 #@! TO.N,Net-(C2-Pad2)*
X144780000Y-88265000D03*
D10*
G04 #@! TO.P,R3,1*
G04 #@! TO.N,/Card6*
X137160000Y-88265000D03*
G04 #@! TD*
G04 #@! TO.P,R6,1*
G04 #@! TO.N,Net-(C3-Pad2)*
X144780000Y-99695000D03*
D14*
G04 #@! TO.P,R6,2*
G04 #@! TO.N,/Card6*
X137160000Y-99695000D03*
G04 #@! TD*
D10*
G04 #@! TO.P,R7,1*
G04 #@! TO.N,Net-(C4-Pad1)*
X144780000Y-92075000D03*
D14*
G04 #@! TO.P,R7,2*
G04 #@! TO.N,/Card6*
X137160000Y-92075000D03*
G04 #@! TD*
D10*
G04 #@! TO.P,C1,1*
G04 #@! TO.N,Net-(C1-Pad1)*
X148336000Y-83312000D03*
G04 #@! TO.P,C1,2*
G04 #@! TO.N,Net-(C1-Pad2)*
X148336000Y-80812000D03*
G04 #@! TD*
G04 #@! TO.P,C2,2*
G04 #@! TO.N,Net-(C2-Pad2)*
X155956000Y-99608000D03*
G04 #@! TO.P,C2,1*
G04 #@! TO.N,/Card7*
X155956000Y-102108000D03*
G04 #@! TD*
G04 #@! TO.P,C5,2*
G04 #@! TO.N,Net-(C3-Pad1)*
X148376000Y-116332000D03*
G04 #@! TO.P,C5,1*
G04 #@! TO.N,/Card4*
X150876000Y-116332000D03*
G04 #@! TD*
D14*
G04 #@! TO.P,D1,2*
G04 #@! TO.N,/Card10*
X137160000Y-80772000D03*
D15*
G04 #@! TO.P,D1,1*
G04 #@! TO.N,Net-(C1-Pad2)*
X144780000Y-80772000D03*
G04 #@! TD*
G04 #@! TO.P,D2,1*
G04 #@! TO.N,Net-(C3-Pad1)*
X144780000Y-120650000D03*
D14*
G04 #@! TO.P,D2,2*
G04 #@! TO.N,/Card1*
X137160000Y-120650000D03*
G04 #@! TD*
D12*
G04 #@! TO.P,Q2,2*
G04 #@! TO.N,/Card7*
X156464000Y-106934000D03*
G04 #@! TO.P,Q2,3*
G04 #@! TO.N,/Card5*
X156464000Y-105664000D03*
D11*
G04 #@! TO.P,Q2,1*
G04 #@! TO.N,GND*
X156464000Y-108204000D03*
G04 #@! TD*
G04 #@! TO.P,Q4,1*
G04 #@! TO.N,GND*
X150368000Y-108204000D03*
D12*
G04 #@! TO.P,Q4,3*
G04 #@! TO.N,/Card5*
X150368000Y-105664000D03*
G04 #@! TO.P,Q4,2*
G04 #@! TO.N,/Card4*
X150368000Y-106934000D03*
G04 #@! TD*
D10*
G04 #@! TO.P,R4,1*
G04 #@! TO.N,/Card6*
X137160000Y-103632000D03*
D14*
G04 #@! TO.P,R4,2*
G04 #@! TO.N,/Card8*
X144780000Y-103632000D03*
G04 #@! TD*
G04 #@! TO.P,R5,2*
G04 #@! TO.N,/Card5*
X137160000Y-107696000D03*
D10*
G04 #@! TO.P,R5,1*
G04 #@! TO.N,/Card8*
X144780000Y-107696000D03*
G04 #@! TD*
D14*
G04 #@! TO.P,R8,2*
G04 #@! TO.N,/Card2*
X137160000Y-116205000D03*
D10*
G04 #@! TO.P,R8,1*
G04 #@! TO.N,Net-(C3-Pad1)*
X144780000Y-116205000D03*
G04 #@! TD*
D16*
G04 #@! TO.P,J1,1*
G04 #@! TO.N,/Card2*
X156718000Y-120904000D03*
D17*
G04 #@! TO.P,J1,2*
G04 #@! TO.N,/Card9*
X156718000Y-118364000D03*
G04 #@! TO.P,J1,3*
G04 #@! TO.N,GND*
X156718000Y-115824000D03*
G04 #@! TD*
D16*
G04 #@! TO.P,J2,1*
G04 #@! TO.N,/Card6*
X156528000Y-87566500D03*
D17*
G04 #@! TO.P,J2,2*
G04 #@! TO.N,GND*
X156528000Y-85026500D03*
G04 #@! TO.P,J2,3*
G04 #@! TO.N,/Card10*
X156528000Y-82486500D03*
G04 #@! TO.P,J2,4*
G04 #@! TO.N,/Card1*
X156528000Y-79946500D03*
G04 #@! TD*
D18*
G04 #@! TO.N,/Card7*
X135606000Y-94318300D03*
G04 #@! TD*
D19*
G04 #@! TO.N,Net-(C1-Pad1)*
X144780000Y-95885000D02*
X145905300Y-95885000D01*
X145905300Y-95885000D02*
X146057100Y-96036800D01*
X146057100Y-96036800D02*
X151136400Y-96036800D01*
X151136400Y-96036800D02*
X153256700Y-93916500D01*
X153256700Y-93916500D02*
X155448000Y-93916500D01*
G04 #@! TO.N,Net-(C2-Pad2)*
X155956000Y-95186500D02*
X156523400Y-94619100D01*
X156523400Y-94619100D02*
X156523400Y-91986000D01*
X156523400Y-91986000D02*
X155487000Y-90949600D01*
X155487000Y-90949600D02*
X148589900Y-90949600D01*
X148589900Y-90949600D02*
X145905300Y-88265000D01*
X155956000Y-99608000D02*
X155956000Y-95186500D01*
X144780000Y-88265000D02*
X145905300Y-88265000D01*
X155448000Y-95186500D02*
X155956000Y-95186500D01*
G04 #@! TO.N,/Card7*
X155956000Y-102108000D02*
X154491300Y-100643300D01*
X154491300Y-100643300D02*
X147444200Y-100643300D01*
X147444200Y-100643300D02*
X141119200Y-94318300D01*
X141119200Y-94318300D02*
X135606000Y-94318300D01*
G04 #@! TO.N,Net-(C3-Pad1)*
X144780000Y-116205000D02*
X145810000Y-116205000D01*
X145810000Y-116205000D02*
X145937000Y-116332000D01*
X144780000Y-120650000D02*
X144780000Y-119525000D01*
X144780000Y-119525000D02*
X145937000Y-118368000D01*
X145937000Y-118368000D02*
X145937000Y-116332000D01*
X145937000Y-116332000D02*
X148376000Y-116332000D01*
G04 #@! TO.N,/Card4*
X150368000Y-106934000D02*
X149293000Y-106934000D01*
X149293000Y-106934000D02*
X149293000Y-114749000D01*
X149293000Y-114749000D02*
X150876000Y-116332000D01*
G04 #@! TO.N,/Card10*
X156528000Y-82486500D02*
X155352700Y-82486500D01*
X137160000Y-80772000D02*
X138285300Y-80772000D01*
X138285300Y-80772000D02*
X139575300Y-82062000D01*
X139575300Y-82062000D02*
X154928200Y-82062000D01*
X154928200Y-82062000D02*
X155352700Y-82486500D01*
G04 #@! TO.N,/Card1*
X156528000Y-79946500D02*
X155352700Y-79946500D01*
X137160000Y-120650000D02*
X134881000Y-118371000D01*
X134881000Y-118371000D02*
X134881000Y-80765200D01*
X134881000Y-80765200D02*
X136130100Y-79515900D01*
X136130100Y-79515900D02*
X154922100Y-79515900D01*
X154922100Y-79515900D02*
X155352700Y-79946500D01*
G04 #@! TO.N,GND*
X155448000Y-92646500D02*
X149860000Y-92646500D01*
X156464000Y-108204000D02*
X150368000Y-108204000D01*
G04 #@! TO.N,/Card5*
X137160000Y-107696000D02*
X138285000Y-107696000D01*
X138285000Y-107696000D02*
X140317000Y-105664000D01*
X140317000Y-105664000D02*
X150368000Y-105664000D01*
X156464000Y-105664000D02*
X150368000Y-105664000D01*
G04 #@! TO.N,/Card6*
X137160000Y-88265000D02*
X138306700Y-87118300D01*
X138306700Y-87118300D02*
X145474800Y-87118300D01*
X145474800Y-87118300D02*
X145923000Y-87566500D01*
X145923000Y-87566500D02*
X156528000Y-87566500D01*
G04 #@! TD*
M02*
