G04 #@! TF.GenerationSoftware,KiCad,Pcbnew,(2017-12-21 revision 23d71cfa9)-makepkg*
G04 #@! TF.CreationDate,2018-07-16T19:44:21-04:00*
G04 #@! TF.ProjectId,OdysseyDaughterCardHorizSyncGenerator,4F647973736579446175676874657243,0.1*
G04 #@! TF.SameCoordinates,Original*
G04 #@! TF.FileFunction,Legend,Top*
G04 #@! TF.FilePolarity,Positive*
%FSLAX46Y46*%
G04 Gerber Fmt 4.6, Leading zero omitted, Abs format (unit mm)*
G04 Created by KiCad (PCBNEW (2017-12-21 revision 23d71cfa9)-makepkg) date 07/16/18 19:44:21*
%MOMM*%
%LPD*%
G01*
G04 APERTURE LIST*
%ADD10C,0.200000*%
%ADD11C,0.120000*%
%ADD12C,0.150000*%
G04 APERTURE END LIST*
D10*
X167512142Y-79155714D02*
X168712142Y-79155714D01*
X168712142Y-79441428D01*
X168655000Y-79612857D01*
X168540714Y-79727142D01*
X168426428Y-79784285D01*
X168197857Y-79841428D01*
X168026428Y-79841428D01*
X167797857Y-79784285D01*
X167683571Y-79727142D01*
X167569285Y-79612857D01*
X167512142Y-79441428D01*
X167512142Y-79155714D01*
X167512142Y-80870000D02*
X168140714Y-80870000D01*
X168255000Y-80812857D01*
X168312142Y-80698571D01*
X168312142Y-80470000D01*
X168255000Y-80355714D01*
X167569285Y-80870000D02*
X167512142Y-80755714D01*
X167512142Y-80470000D01*
X167569285Y-80355714D01*
X167683571Y-80298571D01*
X167797857Y-80298571D01*
X167912142Y-80355714D01*
X167969285Y-80470000D01*
X167969285Y-80755714D01*
X168026428Y-80870000D01*
X168312142Y-81955714D02*
X167512142Y-81955714D01*
X168312142Y-81441428D02*
X167683571Y-81441428D01*
X167569285Y-81498571D01*
X167512142Y-81612857D01*
X167512142Y-81784285D01*
X167569285Y-81898571D01*
X167626428Y-81955714D01*
X168312142Y-83041428D02*
X167340714Y-83041428D01*
X167226428Y-82984285D01*
X167169285Y-82927142D01*
X167112142Y-82812857D01*
X167112142Y-82641428D01*
X167169285Y-82527142D01*
X167569285Y-83041428D02*
X167512142Y-82927142D01*
X167512142Y-82698571D01*
X167569285Y-82584285D01*
X167626428Y-82527142D01*
X167740714Y-82470000D01*
X168083571Y-82470000D01*
X168197857Y-82527142D01*
X168255000Y-82584285D01*
X168312142Y-82698571D01*
X168312142Y-82927142D01*
X168255000Y-83041428D01*
X167512142Y-83612857D02*
X168712142Y-83612857D01*
X167512142Y-84127142D02*
X168140714Y-84127142D01*
X168255000Y-84070000D01*
X168312142Y-83955714D01*
X168312142Y-83784285D01*
X168255000Y-83670000D01*
X168197857Y-83612857D01*
X168312142Y-84527142D02*
X168312142Y-84984285D01*
X168712142Y-84698571D02*
X167683571Y-84698571D01*
X167569285Y-84755714D01*
X167512142Y-84870000D01*
X167512142Y-84984285D01*
X167569285Y-85841428D02*
X167512142Y-85727142D01*
X167512142Y-85498571D01*
X167569285Y-85384285D01*
X167683571Y-85327142D01*
X168140714Y-85327142D01*
X168255000Y-85384285D01*
X168312142Y-85498571D01*
X168312142Y-85727142D01*
X168255000Y-85841428D01*
X168140714Y-85898571D01*
X168026428Y-85898571D01*
X167912142Y-85327142D01*
X167512142Y-86412857D02*
X168312142Y-86412857D01*
X168083571Y-86412857D02*
X168197857Y-86470000D01*
X168255000Y-86527142D01*
X168312142Y-86641428D01*
X168312142Y-86755714D01*
X167626428Y-88755714D02*
X167569285Y-88698571D01*
X167512142Y-88527142D01*
X167512142Y-88412857D01*
X167569285Y-88241428D01*
X167683571Y-88127142D01*
X167797857Y-88070000D01*
X168026428Y-88012857D01*
X168197857Y-88012857D01*
X168426428Y-88070000D01*
X168540714Y-88127142D01*
X168655000Y-88241428D01*
X168712142Y-88412857D01*
X168712142Y-88527142D01*
X168655000Y-88698571D01*
X168597857Y-88755714D01*
X167512142Y-89784285D02*
X168140714Y-89784285D01*
X168255000Y-89727142D01*
X168312142Y-89612857D01*
X168312142Y-89384285D01*
X168255000Y-89270000D01*
X167569285Y-89784285D02*
X167512142Y-89670000D01*
X167512142Y-89384285D01*
X167569285Y-89270000D01*
X167683571Y-89212857D01*
X167797857Y-89212857D01*
X167912142Y-89270000D01*
X167969285Y-89384285D01*
X167969285Y-89670000D01*
X168026428Y-89784285D01*
X167512142Y-90355714D02*
X168312142Y-90355714D01*
X168083571Y-90355714D02*
X168197857Y-90412857D01*
X168255000Y-90470000D01*
X168312142Y-90584285D01*
X168312142Y-90698571D01*
X167512142Y-91612857D02*
X168712142Y-91612857D01*
X167569285Y-91612857D02*
X167512142Y-91498571D01*
X167512142Y-91270000D01*
X167569285Y-91155714D01*
X167626428Y-91098571D01*
X167740714Y-91041428D01*
X168083571Y-91041428D01*
X168197857Y-91098571D01*
X168255000Y-91155714D01*
X168312142Y-91270000D01*
X168312142Y-91498571D01*
X168255000Y-91612857D01*
X167512142Y-93098571D02*
X168712142Y-93098571D01*
X168140714Y-93098571D02*
X168140714Y-93784285D01*
X167512142Y-93784285D02*
X168712142Y-93784285D01*
X167512142Y-94527142D02*
X167569285Y-94412857D01*
X167626428Y-94355714D01*
X167740714Y-94298571D01*
X168083571Y-94298571D01*
X168197857Y-94355714D01*
X168255000Y-94412857D01*
X168312142Y-94527142D01*
X168312142Y-94698571D01*
X168255000Y-94812857D01*
X168197857Y-94870000D01*
X168083571Y-94927142D01*
X167740714Y-94927142D01*
X167626428Y-94870000D01*
X167569285Y-94812857D01*
X167512142Y-94698571D01*
X167512142Y-94527142D01*
X167512142Y-95441428D02*
X168312142Y-95441428D01*
X168083571Y-95441428D02*
X168197857Y-95498571D01*
X168255000Y-95555714D01*
X168312142Y-95670000D01*
X168312142Y-95784285D01*
X167512142Y-96184285D02*
X168312142Y-96184285D01*
X168712142Y-96184285D02*
X168655000Y-96127142D01*
X168597857Y-96184285D01*
X168655000Y-96241428D01*
X168712142Y-96184285D01*
X168597857Y-96184285D01*
X168312142Y-96641428D02*
X168312142Y-97270000D01*
X167512142Y-96641428D01*
X167512142Y-97270000D01*
X167512142Y-97898571D02*
X167569285Y-97784285D01*
X167626428Y-97727142D01*
X167740714Y-97670000D01*
X168083571Y-97670000D01*
X168197857Y-97727142D01*
X168255000Y-97784285D01*
X168312142Y-97898571D01*
X168312142Y-98070000D01*
X168255000Y-98184285D01*
X168197857Y-98241428D01*
X168083571Y-98298571D01*
X167740714Y-98298571D01*
X167626428Y-98241428D01*
X167569285Y-98184285D01*
X167512142Y-98070000D01*
X167512142Y-97898571D01*
X168312142Y-98812857D02*
X167512142Y-98812857D01*
X168197857Y-98812857D02*
X168255000Y-98870000D01*
X168312142Y-98984285D01*
X168312142Y-99155714D01*
X168255000Y-99270000D01*
X168140714Y-99327142D01*
X167512142Y-99327142D01*
X168312142Y-99727142D02*
X168312142Y-100184285D01*
X168712142Y-99898571D02*
X167683571Y-99898571D01*
X167569285Y-99955714D01*
X167512142Y-100070000D01*
X167512142Y-100184285D01*
X167512142Y-101098571D02*
X168140714Y-101098571D01*
X168255000Y-101041428D01*
X168312142Y-100927142D01*
X168312142Y-100698571D01*
X168255000Y-100584285D01*
X167569285Y-101098571D02*
X167512142Y-100984285D01*
X167512142Y-100698571D01*
X167569285Y-100584285D01*
X167683571Y-100527142D01*
X167797857Y-100527142D01*
X167912142Y-100584285D01*
X167969285Y-100698571D01*
X167969285Y-100984285D01*
X168026428Y-101098571D01*
X167512142Y-101841428D02*
X167569285Y-101727142D01*
X167683571Y-101670000D01*
X168712142Y-101670000D01*
X167569285Y-103155714D02*
X167512142Y-103327142D01*
X167512142Y-103612857D01*
X167569285Y-103727142D01*
X167626428Y-103784285D01*
X167740714Y-103841428D01*
X167855000Y-103841428D01*
X167969285Y-103784285D01*
X168026428Y-103727142D01*
X168083571Y-103612857D01*
X168140714Y-103384285D01*
X168197857Y-103270000D01*
X168255000Y-103212857D01*
X168369285Y-103155714D01*
X168483571Y-103155714D01*
X168597857Y-103212857D01*
X168655000Y-103270000D01*
X168712142Y-103384285D01*
X168712142Y-103670000D01*
X168655000Y-103841428D01*
X168312142Y-104241428D02*
X167512142Y-104527142D01*
X168312142Y-104812857D02*
X167512142Y-104527142D01*
X167226428Y-104412857D01*
X167169285Y-104355714D01*
X167112142Y-104241428D01*
X168312142Y-105270000D02*
X167512142Y-105270000D01*
X168197857Y-105270000D02*
X168255000Y-105327142D01*
X168312142Y-105441428D01*
X168312142Y-105612857D01*
X168255000Y-105727142D01*
X168140714Y-105784285D01*
X167512142Y-105784285D01*
X167569285Y-106870000D02*
X167512142Y-106755714D01*
X167512142Y-106527142D01*
X167569285Y-106412857D01*
X167626428Y-106355714D01*
X167740714Y-106298571D01*
X168083571Y-106298571D01*
X168197857Y-106355714D01*
X168255000Y-106412857D01*
X168312142Y-106527142D01*
X168312142Y-106755714D01*
X168255000Y-106870000D01*
X168655000Y-108927142D02*
X168712142Y-108812857D01*
X168712142Y-108641428D01*
X168655000Y-108470000D01*
X168540714Y-108355714D01*
X168426428Y-108298571D01*
X168197857Y-108241428D01*
X168026428Y-108241428D01*
X167797857Y-108298571D01*
X167683571Y-108355714D01*
X167569285Y-108470000D01*
X167512142Y-108641428D01*
X167512142Y-108755714D01*
X167569285Y-108927142D01*
X167626428Y-108984285D01*
X168026428Y-108984285D01*
X168026428Y-108755714D01*
X167569285Y-109955714D02*
X167512142Y-109841428D01*
X167512142Y-109612857D01*
X167569285Y-109498571D01*
X167683571Y-109441428D01*
X168140714Y-109441428D01*
X168255000Y-109498571D01*
X168312142Y-109612857D01*
X168312142Y-109841428D01*
X168255000Y-109955714D01*
X168140714Y-110012857D01*
X168026428Y-110012857D01*
X167912142Y-109441428D01*
X168312142Y-110527142D02*
X167512142Y-110527142D01*
X168197857Y-110527142D02*
X168255000Y-110584285D01*
X168312142Y-110698571D01*
X168312142Y-110870000D01*
X168255000Y-110984285D01*
X168140714Y-111041428D01*
X167512142Y-111041428D01*
X167569285Y-112070000D02*
X167512142Y-111955714D01*
X167512142Y-111727142D01*
X167569285Y-111612857D01*
X167683571Y-111555714D01*
X168140714Y-111555714D01*
X168255000Y-111612857D01*
X168312142Y-111727142D01*
X168312142Y-111955714D01*
X168255000Y-112070000D01*
X168140714Y-112127142D01*
X168026428Y-112127142D01*
X167912142Y-111555714D01*
X167512142Y-112641428D02*
X168312142Y-112641428D01*
X168083571Y-112641428D02*
X168197857Y-112698571D01*
X168255000Y-112755714D01*
X168312142Y-112870000D01*
X168312142Y-112984285D01*
X167512142Y-113898571D02*
X168140714Y-113898571D01*
X168255000Y-113841428D01*
X168312142Y-113727142D01*
X168312142Y-113498571D01*
X168255000Y-113384285D01*
X167569285Y-113898571D02*
X167512142Y-113784285D01*
X167512142Y-113498571D01*
X167569285Y-113384285D01*
X167683571Y-113327142D01*
X167797857Y-113327142D01*
X167912142Y-113384285D01*
X167969285Y-113498571D01*
X167969285Y-113784285D01*
X168026428Y-113898571D01*
X168312142Y-114298571D02*
X168312142Y-114755714D01*
X168712142Y-114470000D02*
X167683571Y-114470000D01*
X167569285Y-114527142D01*
X167512142Y-114641428D01*
X167512142Y-114755714D01*
X167512142Y-115327142D02*
X167569285Y-115212857D01*
X167626428Y-115155714D01*
X167740714Y-115098571D01*
X168083571Y-115098571D01*
X168197857Y-115155714D01*
X168255000Y-115212857D01*
X168312142Y-115327142D01*
X168312142Y-115498571D01*
X168255000Y-115612857D01*
X168197857Y-115670000D01*
X168083571Y-115727142D01*
X167740714Y-115727142D01*
X167626428Y-115670000D01*
X167569285Y-115612857D01*
X167512142Y-115498571D01*
X167512142Y-115327142D01*
X167512142Y-116241428D02*
X168312142Y-116241428D01*
X168083571Y-116241428D02*
X168197857Y-116298571D01*
X168255000Y-116355714D01*
X168312142Y-116470000D01*
X168312142Y-116584285D01*
X166712142Y-79041428D02*
X166712142Y-79841428D01*
X165512142Y-79327142D01*
X165969285Y-80298571D02*
X165969285Y-81212857D01*
X165512142Y-82412857D02*
X165512142Y-81727142D01*
X165512142Y-82070000D02*
X166712142Y-82070000D01*
X166540714Y-81955714D01*
X166426428Y-81841428D01*
X166369285Y-81727142D01*
X166712142Y-83441428D02*
X166712142Y-83212857D01*
X166655000Y-83098571D01*
X166597857Y-83041428D01*
X166426428Y-82927142D01*
X166197857Y-82870000D01*
X165740714Y-82870000D01*
X165626428Y-82927142D01*
X165569285Y-82984285D01*
X165512142Y-83098571D01*
X165512142Y-83327142D01*
X165569285Y-83441428D01*
X165626428Y-83498571D01*
X165740714Y-83555714D01*
X166026428Y-83555714D01*
X166140714Y-83498571D01*
X166197857Y-83441428D01*
X166255000Y-83327142D01*
X166255000Y-83098571D01*
X166197857Y-82984285D01*
X166140714Y-82927142D01*
X166026428Y-82870000D01*
X165969285Y-84070000D02*
X165969285Y-84984285D01*
X166597857Y-85498571D02*
X166655000Y-85555714D01*
X166712142Y-85670000D01*
X166712142Y-85955714D01*
X166655000Y-86070000D01*
X166597857Y-86127142D01*
X166483571Y-86184285D01*
X166369285Y-86184285D01*
X166197857Y-86127142D01*
X165512142Y-85441428D01*
X165512142Y-86184285D01*
X166712142Y-86927142D02*
X166712142Y-87041428D01*
X166655000Y-87155714D01*
X166597857Y-87212857D01*
X166483571Y-87270000D01*
X166255000Y-87327142D01*
X165969285Y-87327142D01*
X165740714Y-87270000D01*
X165626428Y-87212857D01*
X165569285Y-87155714D01*
X165512142Y-87041428D01*
X165512142Y-86927142D01*
X165569285Y-86812857D01*
X165626428Y-86755714D01*
X165740714Y-86698571D01*
X165969285Y-86641428D01*
X166255000Y-86641428D01*
X166483571Y-86698571D01*
X166597857Y-86755714D01*
X166655000Y-86812857D01*
X166712142Y-86927142D01*
X165512142Y-88470000D02*
X165512142Y-87784285D01*
X165512142Y-88127142D02*
X166712142Y-88127142D01*
X166540714Y-88012857D01*
X166426428Y-87898571D01*
X166369285Y-87784285D01*
X166197857Y-89155714D02*
X166255000Y-89041428D01*
X166312142Y-88984285D01*
X166426428Y-88927142D01*
X166483571Y-88927142D01*
X166597857Y-88984285D01*
X166655000Y-89041428D01*
X166712142Y-89155714D01*
X166712142Y-89384285D01*
X166655000Y-89498571D01*
X166597857Y-89555714D01*
X166483571Y-89612857D01*
X166426428Y-89612857D01*
X166312142Y-89555714D01*
X166255000Y-89498571D01*
X166197857Y-89384285D01*
X166197857Y-89155714D01*
X166140714Y-89041428D01*
X166083571Y-88984285D01*
X165969285Y-88927142D01*
X165740714Y-88927142D01*
X165626428Y-88984285D01*
X165569285Y-89041428D01*
X165512142Y-89155714D01*
X165512142Y-89384285D01*
X165569285Y-89498571D01*
X165626428Y-89555714D01*
X165740714Y-89612857D01*
X165969285Y-89612857D01*
X166083571Y-89555714D01*
X166140714Y-89498571D01*
X166197857Y-89384285D01*
X165512142Y-91041428D02*
X166312142Y-91041428D01*
X166083571Y-91041428D02*
X166197857Y-91098571D01*
X166255000Y-91155714D01*
X166312142Y-91270000D01*
X166312142Y-91384285D01*
X166712142Y-92012857D02*
X166712142Y-92127142D01*
X166655000Y-92241428D01*
X166597857Y-92298571D01*
X166483571Y-92355714D01*
X166255000Y-92412857D01*
X165969285Y-92412857D01*
X165740714Y-92355714D01*
X165626428Y-92298571D01*
X165569285Y-92241428D01*
X165512142Y-92127142D01*
X165512142Y-92012857D01*
X165569285Y-91898571D01*
X165626428Y-91841428D01*
X165740714Y-91784285D01*
X165969285Y-91727142D01*
X166255000Y-91727142D01*
X166483571Y-91784285D01*
X166597857Y-91841428D01*
X166655000Y-91898571D01*
X166712142Y-92012857D01*
X165626428Y-92927142D02*
X165569285Y-92984285D01*
X165512142Y-92927142D01*
X165569285Y-92870000D01*
X165626428Y-92927142D01*
X165512142Y-92927142D01*
X165512142Y-94127142D02*
X165512142Y-93441428D01*
X165512142Y-93784285D02*
X166712142Y-93784285D01*
X166540714Y-93670000D01*
X166426428Y-93555714D01*
X166369285Y-93441428D01*
X164712142Y-79155714D02*
X163740714Y-79155714D01*
X163626428Y-79212857D01*
X163569285Y-79270000D01*
X163512142Y-79384285D01*
X163512142Y-79612857D01*
X163569285Y-79727142D01*
X163626428Y-79784285D01*
X163740714Y-79841428D01*
X164712142Y-79841428D01*
X164312142Y-80412857D02*
X163512142Y-80412857D01*
X164197857Y-80412857D02*
X164255000Y-80470000D01*
X164312142Y-80584285D01*
X164312142Y-80755714D01*
X164255000Y-80870000D01*
X164140714Y-80927142D01*
X163512142Y-80927142D01*
X163512142Y-81498571D02*
X164312142Y-81498571D01*
X164712142Y-81498571D02*
X164655000Y-81441428D01*
X164597857Y-81498571D01*
X164655000Y-81555714D01*
X164712142Y-81498571D01*
X164597857Y-81498571D01*
X164312142Y-81955714D02*
X163512142Y-82241428D01*
X164312142Y-82527142D01*
X163569285Y-83441428D02*
X163512142Y-83327142D01*
X163512142Y-83098571D01*
X163569285Y-82984285D01*
X163683571Y-82927142D01*
X164140714Y-82927142D01*
X164255000Y-82984285D01*
X164312142Y-83098571D01*
X164312142Y-83327142D01*
X164255000Y-83441428D01*
X164140714Y-83498571D01*
X164026428Y-83498571D01*
X163912142Y-82927142D01*
X163512142Y-84012857D02*
X164312142Y-84012857D01*
X164083571Y-84012857D02*
X164197857Y-84070000D01*
X164255000Y-84127142D01*
X164312142Y-84241428D01*
X164312142Y-84355714D01*
X163569285Y-84698571D02*
X163512142Y-84812857D01*
X163512142Y-85041428D01*
X163569285Y-85155714D01*
X163683571Y-85212857D01*
X163740714Y-85212857D01*
X163855000Y-85155714D01*
X163912142Y-85041428D01*
X163912142Y-84870000D01*
X163969285Y-84755714D01*
X164083571Y-84698571D01*
X164140714Y-84698571D01*
X164255000Y-84755714D01*
X164312142Y-84870000D01*
X164312142Y-85041428D01*
X164255000Y-85155714D01*
X163512142Y-85727142D02*
X164312142Y-85727142D01*
X164712142Y-85727142D02*
X164655000Y-85670000D01*
X164597857Y-85727142D01*
X164655000Y-85784285D01*
X164712142Y-85727142D01*
X164597857Y-85727142D01*
X164312142Y-86127142D02*
X164312142Y-86584285D01*
X164712142Y-86298571D02*
X163683571Y-86298571D01*
X163569285Y-86355714D01*
X163512142Y-86470000D01*
X163512142Y-86584285D01*
X164312142Y-86870000D02*
X163512142Y-87155714D01*
X164312142Y-87441428D02*
X163512142Y-87155714D01*
X163226428Y-87041428D01*
X163169285Y-86984285D01*
X163112142Y-86870000D01*
X163512142Y-88984285D02*
X163569285Y-88870000D01*
X163626428Y-88812857D01*
X163740714Y-88755714D01*
X164083571Y-88755714D01*
X164197857Y-88812857D01*
X164255000Y-88870000D01*
X164312142Y-88984285D01*
X164312142Y-89155714D01*
X164255000Y-89270000D01*
X164197857Y-89327142D01*
X164083571Y-89384285D01*
X163740714Y-89384285D01*
X163626428Y-89327142D01*
X163569285Y-89270000D01*
X163512142Y-89155714D01*
X163512142Y-88984285D01*
X164312142Y-89727142D02*
X164312142Y-90184285D01*
X163512142Y-89898571D02*
X164540714Y-89898571D01*
X164655000Y-89955714D01*
X164712142Y-90070000D01*
X164712142Y-90184285D01*
X163512142Y-91498571D02*
X164712142Y-91498571D01*
X164712142Y-91955714D01*
X164655000Y-92070000D01*
X164597857Y-92127142D01*
X164483571Y-92184285D01*
X164312142Y-92184285D01*
X164197857Y-92127142D01*
X164140714Y-92070000D01*
X164083571Y-91955714D01*
X164083571Y-91498571D01*
X163512142Y-92698571D02*
X164312142Y-92698571D01*
X164712142Y-92698571D02*
X164655000Y-92641428D01*
X164597857Y-92698571D01*
X164655000Y-92755714D01*
X164712142Y-92698571D01*
X164597857Y-92698571D01*
X164312142Y-93098571D02*
X164312142Y-93555714D01*
X164712142Y-93270000D02*
X163683571Y-93270000D01*
X163569285Y-93327142D01*
X163512142Y-93441428D01*
X163512142Y-93555714D01*
X164312142Y-93784285D02*
X164312142Y-94241428D01*
X164712142Y-93955714D02*
X163683571Y-93955714D01*
X163569285Y-94012857D01*
X163512142Y-94127142D01*
X163512142Y-94241428D01*
X163569285Y-94584285D02*
X163512142Y-94698571D01*
X163512142Y-94927142D01*
X163569285Y-95041428D01*
X163683571Y-95098571D01*
X163740714Y-95098571D01*
X163855000Y-95041428D01*
X163912142Y-94927142D01*
X163912142Y-94755714D01*
X163969285Y-94641428D01*
X164083571Y-94584285D01*
X164140714Y-94584285D01*
X164255000Y-94641428D01*
X164312142Y-94755714D01*
X164312142Y-94927142D01*
X164255000Y-95041428D01*
X163512142Y-95612857D02*
X164712142Y-95612857D01*
X164255000Y-95612857D02*
X164312142Y-95727142D01*
X164312142Y-95955714D01*
X164255000Y-96070000D01*
X164197857Y-96127142D01*
X164083571Y-96184285D01*
X163740714Y-96184285D01*
X163626428Y-96127142D01*
X163569285Y-96070000D01*
X163512142Y-95955714D01*
X163512142Y-95727142D01*
X163569285Y-95612857D01*
X164312142Y-97212857D02*
X163512142Y-97212857D01*
X164312142Y-96698571D02*
X163683571Y-96698571D01*
X163569285Y-96755714D01*
X163512142Y-96870000D01*
X163512142Y-97041428D01*
X163569285Y-97155714D01*
X163626428Y-97212857D01*
X163512142Y-97784285D02*
X164312142Y-97784285D01*
X164083571Y-97784285D02*
X164197857Y-97841428D01*
X164255000Y-97898571D01*
X164312142Y-98012857D01*
X164312142Y-98127142D01*
X164312142Y-99041428D02*
X163340714Y-99041428D01*
X163226428Y-98984285D01*
X163169285Y-98927142D01*
X163112142Y-98812857D01*
X163112142Y-98641428D01*
X163169285Y-98527142D01*
X163569285Y-99041428D02*
X163512142Y-98927142D01*
X163512142Y-98698571D01*
X163569285Y-98584285D01*
X163626428Y-98527142D01*
X163740714Y-98470000D01*
X164083571Y-98470000D01*
X164197857Y-98527142D01*
X164255000Y-98584285D01*
X164312142Y-98698571D01*
X164312142Y-98927142D01*
X164255000Y-99041428D01*
X163512142Y-99612857D02*
X164712142Y-99612857D01*
X163512142Y-100127142D02*
X164140714Y-100127142D01*
X164255000Y-100070000D01*
X164312142Y-99955714D01*
X164312142Y-99784285D01*
X164255000Y-99670000D01*
X164197857Y-99612857D01*
X162712142Y-79384285D02*
X162712142Y-79612857D01*
X162655000Y-79727142D01*
X162540714Y-79841428D01*
X162312142Y-79898571D01*
X161912142Y-79898571D01*
X161683571Y-79841428D01*
X161569285Y-79727142D01*
X161512142Y-79612857D01*
X161512142Y-79384285D01*
X161569285Y-79270000D01*
X161683571Y-79155714D01*
X161912142Y-79098571D01*
X162312142Y-79098571D01*
X162540714Y-79155714D01*
X162655000Y-79270000D01*
X162712142Y-79384285D01*
X161512142Y-80927142D02*
X162712142Y-80927142D01*
X161569285Y-80927142D02*
X161512142Y-80812857D01*
X161512142Y-80584285D01*
X161569285Y-80470000D01*
X161626428Y-80412857D01*
X161740714Y-80355714D01*
X162083571Y-80355714D01*
X162197857Y-80412857D01*
X162255000Y-80470000D01*
X162312142Y-80584285D01*
X162312142Y-80812857D01*
X162255000Y-80927142D01*
X162312142Y-81384285D02*
X161512142Y-81670000D01*
X162312142Y-81955714D02*
X161512142Y-81670000D01*
X161226428Y-81555714D01*
X161169285Y-81498571D01*
X161112142Y-81384285D01*
X161569285Y-82355714D02*
X161512142Y-82470000D01*
X161512142Y-82698571D01*
X161569285Y-82812857D01*
X161683571Y-82870000D01*
X161740714Y-82870000D01*
X161855000Y-82812857D01*
X161912142Y-82698571D01*
X161912142Y-82527142D01*
X161969285Y-82412857D01*
X162083571Y-82355714D01*
X162140714Y-82355714D01*
X162255000Y-82412857D01*
X162312142Y-82527142D01*
X162312142Y-82698571D01*
X162255000Y-82812857D01*
X161569285Y-83327142D02*
X161512142Y-83441428D01*
X161512142Y-83670000D01*
X161569285Y-83784285D01*
X161683571Y-83841428D01*
X161740714Y-83841428D01*
X161855000Y-83784285D01*
X161912142Y-83670000D01*
X161912142Y-83498571D01*
X161969285Y-83384285D01*
X162083571Y-83327142D01*
X162140714Y-83327142D01*
X162255000Y-83384285D01*
X162312142Y-83498571D01*
X162312142Y-83670000D01*
X162255000Y-83784285D01*
X161569285Y-84812857D02*
X161512142Y-84698571D01*
X161512142Y-84470000D01*
X161569285Y-84355714D01*
X161683571Y-84298571D01*
X162140714Y-84298571D01*
X162255000Y-84355714D01*
X162312142Y-84470000D01*
X162312142Y-84698571D01*
X162255000Y-84812857D01*
X162140714Y-84870000D01*
X162026428Y-84870000D01*
X161912142Y-84298571D01*
X162312142Y-85270000D02*
X161512142Y-85555714D01*
X162312142Y-85841428D02*
X161512142Y-85555714D01*
X161226428Y-85441428D01*
X161169285Y-85384285D01*
X161112142Y-85270000D01*
X161512142Y-87898571D02*
X162083571Y-87498571D01*
X161512142Y-87212857D02*
X162712142Y-87212857D01*
X162712142Y-87670000D01*
X162655000Y-87784285D01*
X162597857Y-87841428D01*
X162483571Y-87898571D01*
X162312142Y-87898571D01*
X162197857Y-87841428D01*
X162140714Y-87784285D01*
X162083571Y-87670000D01*
X162083571Y-87212857D01*
X161569285Y-88870000D02*
X161512142Y-88755714D01*
X161512142Y-88527142D01*
X161569285Y-88412857D01*
X161683571Y-88355714D01*
X162140714Y-88355714D01*
X162255000Y-88412857D01*
X162312142Y-88527142D01*
X162312142Y-88755714D01*
X162255000Y-88870000D01*
X162140714Y-88927142D01*
X162026428Y-88927142D01*
X161912142Y-88355714D01*
X161569285Y-89384285D02*
X161512142Y-89498571D01*
X161512142Y-89727142D01*
X161569285Y-89841428D01*
X161683571Y-89898571D01*
X161740714Y-89898571D01*
X161855000Y-89841428D01*
X161912142Y-89727142D01*
X161912142Y-89555714D01*
X161969285Y-89441428D01*
X162083571Y-89384285D01*
X162140714Y-89384285D01*
X162255000Y-89441428D01*
X162312142Y-89555714D01*
X162312142Y-89727142D01*
X162255000Y-89841428D01*
X162312142Y-90241428D02*
X162312142Y-90698571D01*
X162712142Y-90412857D02*
X161683571Y-90412857D01*
X161569285Y-90470000D01*
X161512142Y-90584285D01*
X161512142Y-90698571D01*
X161512142Y-91270000D02*
X161569285Y-91155714D01*
X161626428Y-91098571D01*
X161740714Y-91041428D01*
X162083571Y-91041428D01*
X162197857Y-91098571D01*
X162255000Y-91155714D01*
X162312142Y-91270000D01*
X162312142Y-91441428D01*
X162255000Y-91555714D01*
X162197857Y-91612857D01*
X162083571Y-91670000D01*
X161740714Y-91670000D01*
X161626428Y-91612857D01*
X161569285Y-91555714D01*
X161512142Y-91441428D01*
X161512142Y-91270000D01*
X161512142Y-92184285D02*
X162312142Y-92184285D01*
X162083571Y-92184285D02*
X162197857Y-92241428D01*
X162255000Y-92298571D01*
X162312142Y-92412857D01*
X162312142Y-92527142D01*
X161512142Y-93441428D02*
X162140714Y-93441428D01*
X162255000Y-93384285D01*
X162312142Y-93270000D01*
X162312142Y-93041428D01*
X162255000Y-92927142D01*
X161569285Y-93441428D02*
X161512142Y-93327142D01*
X161512142Y-93041428D01*
X161569285Y-92927142D01*
X161683571Y-92870000D01*
X161797857Y-92870000D01*
X161912142Y-92927142D01*
X161969285Y-93041428D01*
X161969285Y-93327142D01*
X162026428Y-93441428D01*
X162312142Y-93841428D02*
X162312142Y-94298571D01*
X162712142Y-94012857D02*
X161683571Y-94012857D01*
X161569285Y-94070000D01*
X161512142Y-94184285D01*
X161512142Y-94298571D01*
X161512142Y-94698571D02*
X162312142Y-94698571D01*
X162712142Y-94698571D02*
X162655000Y-94641428D01*
X162597857Y-94698571D01*
X162655000Y-94755714D01*
X162712142Y-94698571D01*
X162597857Y-94698571D01*
X161512142Y-95441428D02*
X161569285Y-95327142D01*
X161626428Y-95270000D01*
X161740714Y-95212857D01*
X162083571Y-95212857D01*
X162197857Y-95270000D01*
X162255000Y-95327142D01*
X162312142Y-95441428D01*
X162312142Y-95612857D01*
X162255000Y-95727142D01*
X162197857Y-95784285D01*
X162083571Y-95841428D01*
X161740714Y-95841428D01*
X161626428Y-95784285D01*
X161569285Y-95727142D01*
X161512142Y-95612857D01*
X161512142Y-95441428D01*
X162312142Y-96355714D02*
X161512142Y-96355714D01*
X162197857Y-96355714D02*
X162255000Y-96412857D01*
X162312142Y-96527142D01*
X162312142Y-96698571D01*
X162255000Y-96812857D01*
X162140714Y-96870000D01*
X161512142Y-96870000D01*
X161512142Y-98355714D02*
X162712142Y-98355714D01*
X162712142Y-98812857D01*
X162655000Y-98927142D01*
X162597857Y-98984285D01*
X162483571Y-99041428D01*
X162312142Y-99041428D01*
X162197857Y-98984285D01*
X162140714Y-98927142D01*
X162083571Y-98812857D01*
X162083571Y-98355714D01*
X161512142Y-99555714D02*
X162312142Y-99555714D01*
X162083571Y-99555714D02*
X162197857Y-99612857D01*
X162255000Y-99670000D01*
X162312142Y-99784285D01*
X162312142Y-99898571D01*
X161512142Y-100470000D02*
X161569285Y-100355714D01*
X161626428Y-100298571D01*
X161740714Y-100241428D01*
X162083571Y-100241428D01*
X162197857Y-100298571D01*
X162255000Y-100355714D01*
X162312142Y-100470000D01*
X162312142Y-100641428D01*
X162255000Y-100755714D01*
X162197857Y-100812857D01*
X162083571Y-100870000D01*
X161740714Y-100870000D01*
X161626428Y-100812857D01*
X161569285Y-100755714D01*
X161512142Y-100641428D01*
X161512142Y-100470000D01*
X162312142Y-101384285D02*
X161283571Y-101384285D01*
X161169285Y-101327142D01*
X161112142Y-101212857D01*
X161112142Y-101155714D01*
X162712142Y-101384285D02*
X162655000Y-101327142D01*
X162597857Y-101384285D01*
X162655000Y-101441428D01*
X162712142Y-101384285D01*
X162597857Y-101384285D01*
X161569285Y-102412857D02*
X161512142Y-102298571D01*
X161512142Y-102070000D01*
X161569285Y-101955714D01*
X161683571Y-101898571D01*
X162140714Y-101898571D01*
X162255000Y-101955714D01*
X162312142Y-102070000D01*
X162312142Y-102298571D01*
X162255000Y-102412857D01*
X162140714Y-102470000D01*
X162026428Y-102470000D01*
X161912142Y-101898571D01*
X161569285Y-103498571D02*
X161512142Y-103384285D01*
X161512142Y-103155714D01*
X161569285Y-103041428D01*
X161626428Y-102984285D01*
X161740714Y-102927142D01*
X162083571Y-102927142D01*
X162197857Y-102984285D01*
X162255000Y-103041428D01*
X162312142Y-103155714D01*
X162312142Y-103384285D01*
X162255000Y-103498571D01*
X162312142Y-103841428D02*
X162312142Y-104298571D01*
X162712142Y-104012857D02*
X161683571Y-104012857D01*
X161569285Y-104070000D01*
X161512142Y-104184285D01*
X161512142Y-104298571D01*
D11*
X152645000Y-96630000D02*
X152645000Y-91410000D01*
X155965000Y-96630000D02*
X155965000Y-91410000D01*
X152645000Y-96630000D02*
X153309000Y-96630000D01*
X155301000Y-96630000D02*
X155965000Y-96630000D01*
X152645000Y-91410000D02*
X153309000Y-91410000D01*
X155301000Y-91410000D02*
X155965000Y-91410000D01*
X142270000Y-112756000D02*
X142270000Y-113420000D01*
X142270000Y-110100000D02*
X142270000Y-110764000D01*
X137050000Y-112756000D02*
X137050000Y-113420000D01*
X137050000Y-110100000D02*
X137050000Y-110764000D01*
X137050000Y-113420000D02*
X142270000Y-113420000D01*
X137050000Y-110100000D02*
X142270000Y-110100000D01*
X141304000Y-82788000D02*
G75*
G03X141304000Y-82788000I-2620000J0D01*
G01*
X137644000Y-82788000D02*
X136104000Y-82788000D01*
X141264000Y-82788000D02*
X139724000Y-82788000D01*
X137644000Y-82828000D02*
X136104000Y-82828000D01*
X141264000Y-82828000D02*
X139724000Y-82828000D01*
X141263000Y-82868000D02*
X139724000Y-82868000D01*
X137644000Y-82868000D02*
X136105000Y-82868000D01*
X141262000Y-82908000D02*
X139724000Y-82908000D01*
X137644000Y-82908000D02*
X136106000Y-82908000D01*
X141260000Y-82948000D02*
X139724000Y-82948000D01*
X137644000Y-82948000D02*
X136108000Y-82948000D01*
X141257000Y-82988000D02*
X139724000Y-82988000D01*
X137644000Y-82988000D02*
X136111000Y-82988000D01*
X141253000Y-83028000D02*
X139724000Y-83028000D01*
X137644000Y-83028000D02*
X136115000Y-83028000D01*
X141249000Y-83068000D02*
X139724000Y-83068000D01*
X137644000Y-83068000D02*
X136119000Y-83068000D01*
X141245000Y-83108000D02*
X139724000Y-83108000D01*
X137644000Y-83108000D02*
X136123000Y-83108000D01*
X141240000Y-83148000D02*
X139724000Y-83148000D01*
X137644000Y-83148000D02*
X136128000Y-83148000D01*
X141234000Y-83188000D02*
X139724000Y-83188000D01*
X137644000Y-83188000D02*
X136134000Y-83188000D01*
X141227000Y-83228000D02*
X139724000Y-83228000D01*
X137644000Y-83228000D02*
X136141000Y-83228000D01*
X141220000Y-83268000D02*
X139724000Y-83268000D01*
X137644000Y-83268000D02*
X136148000Y-83268000D01*
X141212000Y-83308000D02*
X139724000Y-83308000D01*
X137644000Y-83308000D02*
X136156000Y-83308000D01*
X141204000Y-83348000D02*
X139724000Y-83348000D01*
X137644000Y-83348000D02*
X136164000Y-83348000D01*
X141195000Y-83388000D02*
X139724000Y-83388000D01*
X137644000Y-83388000D02*
X136173000Y-83388000D01*
X141185000Y-83428000D02*
X139724000Y-83428000D01*
X137644000Y-83428000D02*
X136183000Y-83428000D01*
X141175000Y-83468000D02*
X139724000Y-83468000D01*
X137644000Y-83468000D02*
X136193000Y-83468000D01*
X141164000Y-83509000D02*
X139724000Y-83509000D01*
X137644000Y-83509000D02*
X136204000Y-83509000D01*
X141152000Y-83549000D02*
X139724000Y-83549000D01*
X137644000Y-83549000D02*
X136216000Y-83549000D01*
X141139000Y-83589000D02*
X139724000Y-83589000D01*
X137644000Y-83589000D02*
X136229000Y-83589000D01*
X141126000Y-83629000D02*
X139724000Y-83629000D01*
X137644000Y-83629000D02*
X136242000Y-83629000D01*
X141112000Y-83669000D02*
X139724000Y-83669000D01*
X137644000Y-83669000D02*
X136256000Y-83669000D01*
X141098000Y-83709000D02*
X139724000Y-83709000D01*
X137644000Y-83709000D02*
X136270000Y-83709000D01*
X141082000Y-83749000D02*
X139724000Y-83749000D01*
X137644000Y-83749000D02*
X136286000Y-83749000D01*
X141066000Y-83789000D02*
X139724000Y-83789000D01*
X137644000Y-83789000D02*
X136302000Y-83789000D01*
X141049000Y-83829000D02*
X139724000Y-83829000D01*
X137644000Y-83829000D02*
X136319000Y-83829000D01*
X141032000Y-83869000D02*
X139724000Y-83869000D01*
X137644000Y-83869000D02*
X136336000Y-83869000D01*
X141013000Y-83909000D02*
X139724000Y-83909000D01*
X137644000Y-83909000D02*
X136355000Y-83909000D01*
X140994000Y-83949000D02*
X139724000Y-83949000D01*
X137644000Y-83949000D02*
X136374000Y-83949000D01*
X140974000Y-83989000D02*
X139724000Y-83989000D01*
X137644000Y-83989000D02*
X136394000Y-83989000D01*
X140952000Y-84029000D02*
X139724000Y-84029000D01*
X137644000Y-84029000D02*
X136416000Y-84029000D01*
X140931000Y-84069000D02*
X139724000Y-84069000D01*
X137644000Y-84069000D02*
X136437000Y-84069000D01*
X140908000Y-84109000D02*
X139724000Y-84109000D01*
X137644000Y-84109000D02*
X136460000Y-84109000D01*
X140884000Y-84149000D02*
X139724000Y-84149000D01*
X137644000Y-84149000D02*
X136484000Y-84149000D01*
X140859000Y-84189000D02*
X139724000Y-84189000D01*
X137644000Y-84189000D02*
X136509000Y-84189000D01*
X140833000Y-84229000D02*
X139724000Y-84229000D01*
X137644000Y-84229000D02*
X136535000Y-84229000D01*
X140806000Y-84269000D02*
X139724000Y-84269000D01*
X137644000Y-84269000D02*
X136562000Y-84269000D01*
X140779000Y-84309000D02*
X139724000Y-84309000D01*
X137644000Y-84309000D02*
X136589000Y-84309000D01*
X140749000Y-84349000D02*
X139724000Y-84349000D01*
X137644000Y-84349000D02*
X136619000Y-84349000D01*
X140719000Y-84389000D02*
X139724000Y-84389000D01*
X137644000Y-84389000D02*
X136649000Y-84389000D01*
X140688000Y-84429000D02*
X139724000Y-84429000D01*
X137644000Y-84429000D02*
X136680000Y-84429000D01*
X140655000Y-84469000D02*
X139724000Y-84469000D01*
X137644000Y-84469000D02*
X136713000Y-84469000D01*
X140621000Y-84509000D02*
X139724000Y-84509000D01*
X137644000Y-84509000D02*
X136747000Y-84509000D01*
X140585000Y-84549000D02*
X139724000Y-84549000D01*
X137644000Y-84549000D02*
X136783000Y-84549000D01*
X140548000Y-84589000D02*
X139724000Y-84589000D01*
X137644000Y-84589000D02*
X136820000Y-84589000D01*
X140510000Y-84629000D02*
X139724000Y-84629000D01*
X137644000Y-84629000D02*
X136858000Y-84629000D01*
X140469000Y-84669000D02*
X139724000Y-84669000D01*
X137644000Y-84669000D02*
X136899000Y-84669000D01*
X140427000Y-84709000D02*
X139724000Y-84709000D01*
X137644000Y-84709000D02*
X136941000Y-84709000D01*
X140383000Y-84749000D02*
X139724000Y-84749000D01*
X137644000Y-84749000D02*
X136985000Y-84749000D01*
X140337000Y-84789000D02*
X139724000Y-84789000D01*
X137644000Y-84789000D02*
X137031000Y-84789000D01*
X140289000Y-84829000D02*
X137079000Y-84829000D01*
X140238000Y-84869000D02*
X137130000Y-84869000D01*
X140184000Y-84909000D02*
X137184000Y-84909000D01*
X140127000Y-84949000D02*
X137241000Y-84949000D01*
X140067000Y-84989000D02*
X137301000Y-84989000D01*
X140003000Y-85029000D02*
X137365000Y-85029000D01*
X139935000Y-85069000D02*
X137433000Y-85069000D01*
X139862000Y-85109000D02*
X137506000Y-85109000D01*
X139782000Y-85149000D02*
X137586000Y-85149000D01*
X139695000Y-85189000D02*
X137673000Y-85189000D01*
X139599000Y-85229000D02*
X137769000Y-85229000D01*
X139489000Y-85269000D02*
X137879000Y-85269000D01*
X139361000Y-85309000D02*
X138007000Y-85309000D01*
X139202000Y-85349000D02*
X138166000Y-85349000D01*
X138968000Y-85389000D02*
X138400000Y-85389000D01*
X140159000Y-79983225D02*
X140159000Y-80483225D01*
X140409000Y-80233225D02*
X139909000Y-80233225D01*
X155141000Y-79725225D02*
X154641000Y-79725225D01*
X154891000Y-79475225D02*
X154891000Y-79975225D01*
X153700000Y-84881000D02*
X153132000Y-84881000D01*
X153934000Y-84841000D02*
X152898000Y-84841000D01*
X154093000Y-84801000D02*
X152739000Y-84801000D01*
X154221000Y-84761000D02*
X152611000Y-84761000D01*
X154331000Y-84721000D02*
X152501000Y-84721000D01*
X154427000Y-84681000D02*
X152405000Y-84681000D01*
X154514000Y-84641000D02*
X152318000Y-84641000D01*
X154594000Y-84601000D02*
X152238000Y-84601000D01*
X154667000Y-84561000D02*
X152165000Y-84561000D01*
X154735000Y-84521000D02*
X152097000Y-84521000D01*
X154799000Y-84481000D02*
X152033000Y-84481000D01*
X154859000Y-84441000D02*
X151973000Y-84441000D01*
X154916000Y-84401000D02*
X151916000Y-84401000D01*
X154970000Y-84361000D02*
X151862000Y-84361000D01*
X155021000Y-84321000D02*
X151811000Y-84321000D01*
X152376000Y-84281000D02*
X151763000Y-84281000D01*
X155069000Y-84281000D02*
X154456000Y-84281000D01*
X152376000Y-84241000D02*
X151717000Y-84241000D01*
X155115000Y-84241000D02*
X154456000Y-84241000D01*
X152376000Y-84201000D02*
X151673000Y-84201000D01*
X155159000Y-84201000D02*
X154456000Y-84201000D01*
X152376000Y-84161000D02*
X151631000Y-84161000D01*
X155201000Y-84161000D02*
X154456000Y-84161000D01*
X152376000Y-84121000D02*
X151590000Y-84121000D01*
X155242000Y-84121000D02*
X154456000Y-84121000D01*
X152376000Y-84081000D02*
X151552000Y-84081000D01*
X155280000Y-84081000D02*
X154456000Y-84081000D01*
X152376000Y-84041000D02*
X151515000Y-84041000D01*
X155317000Y-84041000D02*
X154456000Y-84041000D01*
X152376000Y-84001000D02*
X151479000Y-84001000D01*
X155353000Y-84001000D02*
X154456000Y-84001000D01*
X152376000Y-83961000D02*
X151445000Y-83961000D01*
X155387000Y-83961000D02*
X154456000Y-83961000D01*
X152376000Y-83921000D02*
X151412000Y-83921000D01*
X155420000Y-83921000D02*
X154456000Y-83921000D01*
X152376000Y-83881000D02*
X151381000Y-83881000D01*
X155451000Y-83881000D02*
X154456000Y-83881000D01*
X152376000Y-83841000D02*
X151351000Y-83841000D01*
X155481000Y-83841000D02*
X154456000Y-83841000D01*
X152376000Y-83801000D02*
X151321000Y-83801000D01*
X155511000Y-83801000D02*
X154456000Y-83801000D01*
X152376000Y-83761000D02*
X151294000Y-83761000D01*
X155538000Y-83761000D02*
X154456000Y-83761000D01*
X152376000Y-83721000D02*
X151267000Y-83721000D01*
X155565000Y-83721000D02*
X154456000Y-83721000D01*
X152376000Y-83681000D02*
X151241000Y-83681000D01*
X155591000Y-83681000D02*
X154456000Y-83681000D01*
X152376000Y-83641000D02*
X151216000Y-83641000D01*
X155616000Y-83641000D02*
X154456000Y-83641000D01*
X152376000Y-83601000D02*
X151192000Y-83601000D01*
X155640000Y-83601000D02*
X154456000Y-83601000D01*
X152376000Y-83561000D02*
X151169000Y-83561000D01*
X155663000Y-83561000D02*
X154456000Y-83561000D01*
X152376000Y-83521000D02*
X151148000Y-83521000D01*
X155684000Y-83521000D02*
X154456000Y-83521000D01*
X152376000Y-83481000D02*
X151126000Y-83481000D01*
X155706000Y-83481000D02*
X154456000Y-83481000D01*
X152376000Y-83441000D02*
X151106000Y-83441000D01*
X155726000Y-83441000D02*
X154456000Y-83441000D01*
X152376000Y-83401000D02*
X151087000Y-83401000D01*
X155745000Y-83401000D02*
X154456000Y-83401000D01*
X152376000Y-83361000D02*
X151068000Y-83361000D01*
X155764000Y-83361000D02*
X154456000Y-83361000D01*
X152376000Y-83321000D02*
X151051000Y-83321000D01*
X155781000Y-83321000D02*
X154456000Y-83321000D01*
X152376000Y-83281000D02*
X151034000Y-83281000D01*
X155798000Y-83281000D02*
X154456000Y-83281000D01*
X152376000Y-83241000D02*
X151018000Y-83241000D01*
X155814000Y-83241000D02*
X154456000Y-83241000D01*
X152376000Y-83201000D02*
X151002000Y-83201000D01*
X155830000Y-83201000D02*
X154456000Y-83201000D01*
X152376000Y-83161000D02*
X150988000Y-83161000D01*
X155844000Y-83161000D02*
X154456000Y-83161000D01*
X152376000Y-83121000D02*
X150974000Y-83121000D01*
X155858000Y-83121000D02*
X154456000Y-83121000D01*
X152376000Y-83081000D02*
X150961000Y-83081000D01*
X155871000Y-83081000D02*
X154456000Y-83081000D01*
X152376000Y-83041000D02*
X150948000Y-83041000D01*
X155884000Y-83041000D02*
X154456000Y-83041000D01*
X152376000Y-83001000D02*
X150936000Y-83001000D01*
X155896000Y-83001000D02*
X154456000Y-83001000D01*
X152376000Y-82960000D02*
X150925000Y-82960000D01*
X155907000Y-82960000D02*
X154456000Y-82960000D01*
X152376000Y-82920000D02*
X150915000Y-82920000D01*
X155917000Y-82920000D02*
X154456000Y-82920000D01*
X152376000Y-82880000D02*
X150905000Y-82880000D01*
X155927000Y-82880000D02*
X154456000Y-82880000D01*
X152376000Y-82840000D02*
X150896000Y-82840000D01*
X155936000Y-82840000D02*
X154456000Y-82840000D01*
X152376000Y-82800000D02*
X150888000Y-82800000D01*
X155944000Y-82800000D02*
X154456000Y-82800000D01*
X152376000Y-82760000D02*
X150880000Y-82760000D01*
X155952000Y-82760000D02*
X154456000Y-82760000D01*
X152376000Y-82720000D02*
X150873000Y-82720000D01*
X155959000Y-82720000D02*
X154456000Y-82720000D01*
X152376000Y-82680000D02*
X150866000Y-82680000D01*
X155966000Y-82680000D02*
X154456000Y-82680000D01*
X152376000Y-82640000D02*
X150860000Y-82640000D01*
X155972000Y-82640000D02*
X154456000Y-82640000D01*
X152376000Y-82600000D02*
X150855000Y-82600000D01*
X155977000Y-82600000D02*
X154456000Y-82600000D01*
X152376000Y-82560000D02*
X150851000Y-82560000D01*
X155981000Y-82560000D02*
X154456000Y-82560000D01*
X152376000Y-82520000D02*
X150847000Y-82520000D01*
X155985000Y-82520000D02*
X154456000Y-82520000D01*
X152376000Y-82480000D02*
X150843000Y-82480000D01*
X155989000Y-82480000D02*
X154456000Y-82480000D01*
X152376000Y-82440000D02*
X150840000Y-82440000D01*
X155992000Y-82440000D02*
X154456000Y-82440000D01*
X152376000Y-82400000D02*
X150838000Y-82400000D01*
X155994000Y-82400000D02*
X154456000Y-82400000D01*
X152376000Y-82360000D02*
X150837000Y-82360000D01*
X155995000Y-82360000D02*
X154456000Y-82360000D01*
X155996000Y-82320000D02*
X154456000Y-82320000D01*
X152376000Y-82320000D02*
X150836000Y-82320000D01*
X155996000Y-82280000D02*
X154456000Y-82280000D01*
X152376000Y-82280000D02*
X150836000Y-82280000D01*
X156036000Y-82280000D02*
G75*
G03X156036000Y-82280000I-2620000J0D01*
G01*
X149870000Y-81788000D02*
G75*
G03X149870000Y-81788000I-3590000J0D01*
G01*
X146740000Y-87735000D02*
X146740000Y-91335000D01*
X146751522Y-87696522D02*
G75*
G02X151190000Y-89535000I1838478J-1838478D01*
G01*
X146751522Y-91373478D02*
G75*
G03X151190000Y-89535000I1838478J1838478D01*
G01*
X151063478Y-117541522D02*
G75*
G03X146625000Y-119380000I-1838478J-1838478D01*
G01*
X151063478Y-121218478D02*
G75*
G02X146625000Y-119380000I-1838478J1838478D01*
G01*
X151075000Y-121180000D02*
X151075000Y-117580000D01*
X154360000Y-117580000D02*
X154360000Y-121180000D01*
X154371522Y-117541522D02*
G75*
G02X158810000Y-119380000I1838478J-1838478D01*
G01*
X154371522Y-121218478D02*
G75*
G03X158810000Y-119380000I1838478J1838478D01*
G01*
X144240000Y-122020000D02*
X144240000Y-121690000D01*
X137700000Y-122020000D02*
X144240000Y-122020000D01*
X137700000Y-121690000D02*
X137700000Y-122020000D01*
X144240000Y-119280000D02*
X144240000Y-119610000D01*
X137700000Y-119280000D02*
X144240000Y-119280000D01*
X137700000Y-119610000D02*
X137700000Y-119280000D01*
X137700000Y-97512000D02*
X137700000Y-97182000D01*
X137700000Y-97182000D02*
X144240000Y-97182000D01*
X144240000Y-97182000D02*
X144240000Y-97512000D01*
X137700000Y-99592000D02*
X137700000Y-99922000D01*
X137700000Y-99922000D02*
X144240000Y-99922000D01*
X144240000Y-99922000D02*
X144240000Y-99592000D01*
X137700000Y-115800000D02*
X137700000Y-115470000D01*
X137700000Y-115470000D02*
X144240000Y-115470000D01*
X144240000Y-115470000D02*
X144240000Y-115800000D01*
X137700000Y-117880000D02*
X137700000Y-118210000D01*
X137700000Y-118210000D02*
X144240000Y-118210000D01*
X144240000Y-118210000D02*
X144240000Y-117880000D01*
X149960000Y-97060000D02*
X149630000Y-97060000D01*
X149960000Y-103600000D02*
X149960000Y-97060000D01*
X149630000Y-103600000D02*
X149960000Y-103600000D01*
X147220000Y-97060000D02*
X147550000Y-97060000D01*
X147220000Y-103600000D02*
X147220000Y-97060000D01*
X147550000Y-103600000D02*
X147220000Y-103600000D01*
X137700000Y-106275000D02*
X137700000Y-105945000D01*
X137700000Y-105945000D02*
X144240000Y-105945000D01*
X144240000Y-105945000D02*
X144240000Y-106275000D01*
X137700000Y-108355000D02*
X137700000Y-108685000D01*
X137700000Y-108685000D02*
X144240000Y-108685000D01*
X144240000Y-108685000D02*
X144240000Y-108355000D01*
X147220000Y-113760000D02*
X147550000Y-113760000D01*
X147220000Y-107220000D02*
X147220000Y-113760000D01*
X147550000Y-107220000D02*
X147220000Y-107220000D01*
X149960000Y-113760000D02*
X149630000Y-113760000D01*
X149960000Y-107220000D02*
X149960000Y-113760000D01*
X149630000Y-107220000D02*
X149960000Y-107220000D01*
X137700000Y-93448000D02*
X137700000Y-93118000D01*
X137700000Y-93118000D02*
X144240000Y-93118000D01*
X144240000Y-93118000D02*
X144240000Y-93448000D01*
X137700000Y-95528000D02*
X137700000Y-95858000D01*
X137700000Y-95858000D02*
X144240000Y-95858000D01*
X144240000Y-95858000D02*
X144240000Y-95528000D01*
D12*
X151752142Y-94186666D02*
X151799761Y-94234285D01*
X151847380Y-94377142D01*
X151847380Y-94472380D01*
X151799761Y-94615238D01*
X151704523Y-94710476D01*
X151609285Y-94758095D01*
X151418809Y-94805714D01*
X151275952Y-94805714D01*
X151085476Y-94758095D01*
X150990238Y-94710476D01*
X150895000Y-94615238D01*
X150847380Y-94472380D01*
X150847380Y-94377142D01*
X150895000Y-94234285D01*
X150942619Y-94186666D01*
X151847380Y-93234285D02*
X151847380Y-93805714D01*
X151847380Y-93520000D02*
X150847380Y-93520000D01*
X150990238Y-93615238D01*
X151085476Y-93710476D01*
X151133095Y-93805714D01*
X144613333Y-112117142D02*
X144565714Y-112164761D01*
X144422857Y-112212380D01*
X144327619Y-112212380D01*
X144184761Y-112164761D01*
X144089523Y-112069523D01*
X144041904Y-111974285D01*
X143994285Y-111783809D01*
X143994285Y-111640952D01*
X144041904Y-111450476D01*
X144089523Y-111355238D01*
X144184761Y-111260000D01*
X144327619Y-111212380D01*
X144422857Y-111212380D01*
X144565714Y-111260000D01*
X144613333Y-111307619D01*
X144994285Y-111307619D02*
X145041904Y-111260000D01*
X145137142Y-111212380D01*
X145375238Y-111212380D01*
X145470476Y-111260000D01*
X145518095Y-111307619D01*
X145565714Y-111402857D01*
X145565714Y-111498095D01*
X145518095Y-111640952D01*
X144946666Y-112212380D01*
X145565714Y-112212380D01*
X137517142Y-87161666D02*
X137564761Y-87209285D01*
X137612380Y-87352142D01*
X137612380Y-87447380D01*
X137564761Y-87590238D01*
X137469523Y-87685476D01*
X137374285Y-87733095D01*
X137183809Y-87780714D01*
X137040952Y-87780714D01*
X136850476Y-87733095D01*
X136755238Y-87685476D01*
X136660000Y-87590238D01*
X136612380Y-87447380D01*
X136612380Y-87352142D01*
X136660000Y-87209285D01*
X136707619Y-87161666D01*
X136612380Y-86828333D02*
X136612380Y-86209285D01*
X136993333Y-86542619D01*
X136993333Y-86399761D01*
X137040952Y-86304523D01*
X137088571Y-86256904D01*
X137183809Y-86209285D01*
X137421904Y-86209285D01*
X137517142Y-86256904D01*
X137564761Y-86304523D01*
X137612380Y-86399761D01*
X137612380Y-86685476D01*
X137564761Y-86780714D01*
X137517142Y-86828333D01*
X139517380Y-87637857D02*
X139517380Y-88209285D01*
X139517380Y-87923571D02*
X138517380Y-87923571D01*
X138660238Y-88018809D01*
X138755476Y-88114047D01*
X138803095Y-88209285D01*
X138517380Y-87018809D02*
X138517380Y-86923571D01*
X138565000Y-86828333D01*
X138612619Y-86780714D01*
X138707857Y-86733095D01*
X138898333Y-86685476D01*
X139136428Y-86685476D01*
X139326904Y-86733095D01*
X139422142Y-86780714D01*
X139469761Y-86828333D01*
X139517380Y-86923571D01*
X139517380Y-87018809D01*
X139469761Y-87114047D01*
X139422142Y-87161666D01*
X139326904Y-87209285D01*
X139136428Y-87256904D01*
X138898333Y-87256904D01*
X138707857Y-87209285D01*
X138612619Y-87161666D01*
X138565000Y-87114047D01*
X138517380Y-87018809D01*
X138850714Y-85828333D02*
X139517380Y-85828333D01*
X138850714Y-86256904D02*
X139374523Y-86256904D01*
X139469761Y-86209285D01*
X139517380Y-86114047D01*
X139517380Y-85971190D01*
X139469761Y-85875952D01*
X139422142Y-85828333D01*
X157643142Y-82446666D02*
X157690761Y-82494285D01*
X157738380Y-82637142D01*
X157738380Y-82732380D01*
X157690761Y-82875238D01*
X157595523Y-82970476D01*
X157500285Y-83018095D01*
X157309809Y-83065714D01*
X157166952Y-83065714D01*
X156976476Y-83018095D01*
X156881238Y-82970476D01*
X156786000Y-82875238D01*
X156738380Y-82732380D01*
X156738380Y-82637142D01*
X156786000Y-82494285D01*
X156833619Y-82446666D01*
X157071714Y-81589523D02*
X157738380Y-81589523D01*
X156690761Y-81827619D02*
X157405047Y-82065714D01*
X157405047Y-81446666D01*
X159202380Y-83399047D02*
X159202380Y-83970476D01*
X159202380Y-83684761D02*
X158202380Y-83684761D01*
X158345238Y-83780000D01*
X158440476Y-83875238D01*
X158488095Y-83970476D01*
X158202380Y-82780000D02*
X158202380Y-82684761D01*
X158250000Y-82589523D01*
X158297619Y-82541904D01*
X158392857Y-82494285D01*
X158583333Y-82446666D01*
X158821428Y-82446666D01*
X159011904Y-82494285D01*
X159107142Y-82541904D01*
X159154761Y-82589523D01*
X159202380Y-82684761D01*
X159202380Y-82780000D01*
X159154761Y-82875238D01*
X159107142Y-82922857D01*
X159011904Y-82970476D01*
X158821428Y-83018095D01*
X158583333Y-83018095D01*
X158392857Y-82970476D01*
X158297619Y-82922857D01*
X158250000Y-82875238D01*
X158202380Y-82780000D01*
X158202380Y-81827619D02*
X158202380Y-81732380D01*
X158250000Y-81637142D01*
X158297619Y-81589523D01*
X158392857Y-81541904D01*
X158583333Y-81494285D01*
X158821428Y-81494285D01*
X159011904Y-81541904D01*
X159107142Y-81589523D01*
X159154761Y-81637142D01*
X159202380Y-81732380D01*
X159202380Y-81827619D01*
X159154761Y-81922857D01*
X159107142Y-81970476D01*
X159011904Y-82018095D01*
X158821428Y-82065714D01*
X158583333Y-82065714D01*
X158392857Y-82018095D01*
X158297619Y-81970476D01*
X158250000Y-81922857D01*
X158202380Y-81827619D01*
X158535714Y-80637142D02*
X159202380Y-80637142D01*
X158535714Y-81065714D02*
X159059523Y-81065714D01*
X159154761Y-81018095D01*
X159202380Y-80922857D01*
X159202380Y-80780000D01*
X159154761Y-80684761D01*
X159107142Y-80637142D01*
X142708333Y-86812380D02*
X142232142Y-86812380D01*
X142232142Y-85812380D01*
X143565476Y-86812380D02*
X142994047Y-86812380D01*
X143279761Y-86812380D02*
X143279761Y-85812380D01*
X143184523Y-85955238D01*
X143089285Y-86050476D01*
X142994047Y-86098095D01*
X141136904Y-87082380D02*
X140946428Y-87082380D01*
X140851190Y-87130000D01*
X140803571Y-87177619D01*
X140708333Y-87320476D01*
X140660714Y-87510952D01*
X140660714Y-87891904D01*
X140708333Y-87987142D01*
X140755952Y-88034761D01*
X140851190Y-88082380D01*
X141041666Y-88082380D01*
X141136904Y-88034761D01*
X141184523Y-87987142D01*
X141232142Y-87891904D01*
X141232142Y-87653809D01*
X141184523Y-87558571D01*
X141136904Y-87510952D01*
X141041666Y-87463333D01*
X140851190Y-87463333D01*
X140755952Y-87510952D01*
X140708333Y-87558571D01*
X140660714Y-87653809D01*
X141613095Y-87177619D02*
X141660714Y-87130000D01*
X141755952Y-87082380D01*
X141994047Y-87082380D01*
X142089285Y-87130000D01*
X142136904Y-87177619D01*
X142184523Y-87272857D01*
X142184523Y-87368095D01*
X142136904Y-87510952D01*
X141565476Y-88082380D01*
X142184523Y-88082380D01*
X142803571Y-87082380D02*
X142898809Y-87082380D01*
X142994047Y-87130000D01*
X143041666Y-87177619D01*
X143089285Y-87272857D01*
X143136904Y-87463333D01*
X143136904Y-87701428D01*
X143089285Y-87891904D01*
X143041666Y-87987142D01*
X142994047Y-88034761D01*
X142898809Y-88082380D01*
X142803571Y-88082380D01*
X142708333Y-88034761D01*
X142660714Y-87987142D01*
X142613095Y-87891904D01*
X142565476Y-87701428D01*
X142565476Y-87463333D01*
X142613095Y-87272857D01*
X142660714Y-87177619D01*
X142708333Y-87130000D01*
X142803571Y-87082380D01*
X143994047Y-87415714D02*
X143994047Y-88082380D01*
X143565476Y-87415714D02*
X143565476Y-87939523D01*
X143613095Y-88034761D01*
X143708333Y-88082380D01*
X143851190Y-88082380D01*
X143946428Y-88034761D01*
X143994047Y-87987142D01*
X144470238Y-88082380D02*
X144470238Y-87082380D01*
X144470238Y-87558571D02*
X145041666Y-87558571D01*
X145041666Y-88082380D02*
X145041666Y-87082380D01*
X152697619Y-89630238D02*
X152650000Y-89725476D01*
X152554761Y-89820714D01*
X152411904Y-89963571D01*
X152364285Y-90058809D01*
X152364285Y-90154047D01*
X152602380Y-90106428D02*
X152554761Y-90201666D01*
X152459523Y-90296904D01*
X152269047Y-90344523D01*
X151935714Y-90344523D01*
X151745238Y-90296904D01*
X151650000Y-90201666D01*
X151602380Y-90106428D01*
X151602380Y-89915952D01*
X151650000Y-89820714D01*
X151745238Y-89725476D01*
X151935714Y-89677857D01*
X152269047Y-89677857D01*
X152459523Y-89725476D01*
X152554761Y-89820714D01*
X152602380Y-89915952D01*
X152602380Y-90106428D01*
X152602380Y-88725476D02*
X152602380Y-89296904D01*
X152602380Y-89011190D02*
X151602380Y-89011190D01*
X151745238Y-89106428D01*
X151840476Y-89201666D01*
X151888095Y-89296904D01*
X145728571Y-91892142D02*
X145776190Y-91749285D01*
X145823809Y-91701666D01*
X145919047Y-91654047D01*
X146061904Y-91654047D01*
X146157142Y-91701666D01*
X146204761Y-91749285D01*
X146252380Y-91844523D01*
X146252380Y-92225476D01*
X145252380Y-92225476D01*
X145252380Y-91892142D01*
X145300000Y-91796904D01*
X145347619Y-91749285D01*
X145442857Y-91701666D01*
X145538095Y-91701666D01*
X145633333Y-91749285D01*
X145680952Y-91796904D01*
X145728571Y-91892142D01*
X145728571Y-92225476D01*
X146157142Y-90654047D02*
X146204761Y-90701666D01*
X146252380Y-90844523D01*
X146252380Y-90939761D01*
X146204761Y-91082619D01*
X146109523Y-91177857D01*
X146014285Y-91225476D01*
X145823809Y-91273095D01*
X145680952Y-91273095D01*
X145490476Y-91225476D01*
X145395238Y-91177857D01*
X145300000Y-91082619D01*
X145252380Y-90939761D01*
X145252380Y-90844523D01*
X145300000Y-90701666D01*
X145347619Y-90654047D01*
X145252380Y-89749285D02*
X145252380Y-90225476D01*
X145728571Y-90273095D01*
X145680952Y-90225476D01*
X145633333Y-90130238D01*
X145633333Y-89892142D01*
X145680952Y-89796904D01*
X145728571Y-89749285D01*
X145823809Y-89701666D01*
X146061904Y-89701666D01*
X146157142Y-89749285D01*
X146204761Y-89796904D01*
X146252380Y-89892142D01*
X146252380Y-90130238D01*
X146204761Y-90225476D01*
X146157142Y-90273095D01*
X145585714Y-88844523D02*
X146252380Y-88844523D01*
X145204761Y-89082619D02*
X145919047Y-89320714D01*
X145919047Y-88701666D01*
X145252380Y-88415952D02*
X145252380Y-87749285D01*
X146252380Y-88177857D01*
X145728571Y-87035000D02*
X145776190Y-86892142D01*
X145823809Y-86844523D01*
X145919047Y-86796904D01*
X146061904Y-86796904D01*
X146157142Y-86844523D01*
X146204761Y-86892142D01*
X146252380Y-86987380D01*
X146252380Y-87368333D01*
X145252380Y-87368333D01*
X145252380Y-87035000D01*
X145300000Y-86939761D01*
X145347619Y-86892142D01*
X145442857Y-86844523D01*
X145538095Y-86844523D01*
X145633333Y-86892142D01*
X145680952Y-86939761D01*
X145728571Y-87035000D01*
X145728571Y-87368333D01*
X152947619Y-121380238D02*
X152900000Y-121475476D01*
X152804761Y-121570714D01*
X152661904Y-121713571D01*
X152614285Y-121808809D01*
X152614285Y-121904047D01*
X152852380Y-121856428D02*
X152804761Y-121951666D01*
X152709523Y-122046904D01*
X152519047Y-122094523D01*
X152185714Y-122094523D01*
X151995238Y-122046904D01*
X151900000Y-121951666D01*
X151852380Y-121856428D01*
X151852380Y-121665952D01*
X151900000Y-121570714D01*
X151995238Y-121475476D01*
X152185714Y-121427857D01*
X152519047Y-121427857D01*
X152709523Y-121475476D01*
X152804761Y-121570714D01*
X152852380Y-121665952D01*
X152852380Y-121856428D01*
X151947619Y-121046904D02*
X151900000Y-120999285D01*
X151852380Y-120904047D01*
X151852380Y-120665952D01*
X151900000Y-120570714D01*
X151947619Y-120523095D01*
X152042857Y-120475476D01*
X152138095Y-120475476D01*
X152280952Y-120523095D01*
X152852380Y-121094523D01*
X152852380Y-120475476D01*
X152328571Y-119197142D02*
X152376190Y-119054285D01*
X152423809Y-119006666D01*
X152519047Y-118959047D01*
X152661904Y-118959047D01*
X152757142Y-119006666D01*
X152804761Y-119054285D01*
X152852380Y-119149523D01*
X152852380Y-119530476D01*
X151852380Y-119530476D01*
X151852380Y-119197142D01*
X151900000Y-119101904D01*
X151947619Y-119054285D01*
X152042857Y-119006666D01*
X152138095Y-119006666D01*
X152233333Y-119054285D01*
X152280952Y-119101904D01*
X152328571Y-119197142D01*
X152328571Y-119530476D01*
X152757142Y-117959047D02*
X152804761Y-118006666D01*
X152852380Y-118149523D01*
X152852380Y-118244761D01*
X152804761Y-118387619D01*
X152709523Y-118482857D01*
X152614285Y-118530476D01*
X152423809Y-118578095D01*
X152280952Y-118578095D01*
X152090476Y-118530476D01*
X151995238Y-118482857D01*
X151900000Y-118387619D01*
X151852380Y-118244761D01*
X151852380Y-118149523D01*
X151900000Y-118006666D01*
X151947619Y-117959047D01*
X151852380Y-117054285D02*
X151852380Y-117530476D01*
X152328571Y-117578095D01*
X152280952Y-117530476D01*
X152233333Y-117435238D01*
X152233333Y-117197142D01*
X152280952Y-117101904D01*
X152328571Y-117054285D01*
X152423809Y-117006666D01*
X152661904Y-117006666D01*
X152757142Y-117054285D01*
X152804761Y-117101904D01*
X152852380Y-117197142D01*
X152852380Y-117435238D01*
X152804761Y-117530476D01*
X152757142Y-117578095D01*
X151852380Y-116101904D02*
X151852380Y-116578095D01*
X152328571Y-116625714D01*
X152280952Y-116578095D01*
X152233333Y-116482857D01*
X152233333Y-116244761D01*
X152280952Y-116149523D01*
X152328571Y-116101904D01*
X152423809Y-116054285D01*
X152661904Y-116054285D01*
X152757142Y-116101904D01*
X152804761Y-116149523D01*
X152852380Y-116244761D01*
X152852380Y-116482857D01*
X152804761Y-116578095D01*
X152757142Y-116625714D01*
X151852380Y-115197142D02*
X151852380Y-115387619D01*
X151900000Y-115482857D01*
X151947619Y-115530476D01*
X152090476Y-115625714D01*
X152280952Y-115673333D01*
X152661904Y-115673333D01*
X152757142Y-115625714D01*
X152804761Y-115578095D01*
X152852380Y-115482857D01*
X152852380Y-115292380D01*
X152804761Y-115197142D01*
X152757142Y-115149523D01*
X152661904Y-115101904D01*
X152423809Y-115101904D01*
X152328571Y-115149523D01*
X152280952Y-115197142D01*
X152233333Y-115292380D01*
X152233333Y-115482857D01*
X152280952Y-115578095D01*
X152328571Y-115625714D01*
X152423809Y-115673333D01*
X152328571Y-114340000D02*
X152376190Y-114197142D01*
X152423809Y-114149523D01*
X152519047Y-114101904D01*
X152661904Y-114101904D01*
X152757142Y-114149523D01*
X152804761Y-114197142D01*
X152852380Y-114292380D01*
X152852380Y-114673333D01*
X151852380Y-114673333D01*
X151852380Y-114340000D01*
X151900000Y-114244761D01*
X151947619Y-114197142D01*
X152042857Y-114149523D01*
X152138095Y-114149523D01*
X152233333Y-114197142D01*
X152280952Y-114244761D01*
X152328571Y-114340000D01*
X152328571Y-114673333D01*
X160317619Y-119475238D02*
X160270000Y-119570476D01*
X160174761Y-119665714D01*
X160031904Y-119808571D01*
X159984285Y-119903809D01*
X159984285Y-119999047D01*
X160222380Y-119951428D02*
X160174761Y-120046666D01*
X160079523Y-120141904D01*
X159889047Y-120189523D01*
X159555714Y-120189523D01*
X159365238Y-120141904D01*
X159270000Y-120046666D01*
X159222380Y-119951428D01*
X159222380Y-119760952D01*
X159270000Y-119665714D01*
X159365238Y-119570476D01*
X159555714Y-119522857D01*
X159889047Y-119522857D01*
X160079523Y-119570476D01*
X160174761Y-119665714D01*
X160222380Y-119760952D01*
X160222380Y-119951428D01*
X159222380Y-119189523D02*
X159222380Y-118570476D01*
X159603333Y-118903809D01*
X159603333Y-118760952D01*
X159650952Y-118665714D01*
X159698571Y-118618095D01*
X159793809Y-118570476D01*
X160031904Y-118570476D01*
X160127142Y-118618095D01*
X160174761Y-118665714D01*
X160222380Y-118760952D01*
X160222380Y-119046666D01*
X160174761Y-119141904D01*
X160127142Y-119189523D01*
X160837619Y-122094285D02*
X160790000Y-122046666D01*
X160742380Y-121951428D01*
X160742380Y-121713333D01*
X160790000Y-121618095D01*
X160837619Y-121570476D01*
X160932857Y-121522857D01*
X161028095Y-121522857D01*
X161170952Y-121570476D01*
X161742380Y-122141904D01*
X161742380Y-121522857D01*
X161742380Y-121094285D02*
X160742380Y-121094285D01*
X161742380Y-120522857D01*
X160742380Y-120522857D01*
X160742380Y-120141904D02*
X160742380Y-119522857D01*
X161123333Y-119856190D01*
X161123333Y-119713333D01*
X161170952Y-119618095D01*
X161218571Y-119570476D01*
X161313809Y-119522857D01*
X161551904Y-119522857D01*
X161647142Y-119570476D01*
X161694761Y-119618095D01*
X161742380Y-119713333D01*
X161742380Y-119999047D01*
X161694761Y-120094285D01*
X161647142Y-120141904D01*
X161742380Y-119046666D02*
X161742380Y-118856190D01*
X161694761Y-118760952D01*
X161647142Y-118713333D01*
X161504285Y-118618095D01*
X161313809Y-118570476D01*
X160932857Y-118570476D01*
X160837619Y-118618095D01*
X160790000Y-118665714D01*
X160742380Y-118760952D01*
X160742380Y-118951428D01*
X160790000Y-119046666D01*
X160837619Y-119094285D01*
X160932857Y-119141904D01*
X161170952Y-119141904D01*
X161266190Y-119094285D01*
X161313809Y-119046666D01*
X161361428Y-118951428D01*
X161361428Y-118760952D01*
X161313809Y-118665714D01*
X161266190Y-118618095D01*
X161170952Y-118570476D01*
X160742380Y-117951428D02*
X160742380Y-117856190D01*
X160790000Y-117760952D01*
X160837619Y-117713333D01*
X160932857Y-117665714D01*
X161123333Y-117618095D01*
X161361428Y-117618095D01*
X161551904Y-117665714D01*
X161647142Y-117713333D01*
X161694761Y-117760952D01*
X161742380Y-117856190D01*
X161742380Y-117951428D01*
X161694761Y-118046666D01*
X161647142Y-118094285D01*
X161551904Y-118141904D01*
X161361428Y-118189523D01*
X161123333Y-118189523D01*
X160932857Y-118141904D01*
X160837619Y-118094285D01*
X160790000Y-118046666D01*
X160742380Y-117951428D01*
X161075714Y-116760952D02*
X161742380Y-116760952D01*
X160694761Y-116999047D02*
X161409047Y-117237142D01*
X161409047Y-116618095D01*
X140803333Y-123642380D02*
X140470000Y-123166190D01*
X140231904Y-123642380D02*
X140231904Y-122642380D01*
X140612857Y-122642380D01*
X140708095Y-122690000D01*
X140755714Y-122737619D01*
X140803333Y-122832857D01*
X140803333Y-122975714D01*
X140755714Y-123070952D01*
X140708095Y-123118571D01*
X140612857Y-123166190D01*
X140231904Y-123166190D01*
X141755714Y-123642380D02*
X141184285Y-123642380D01*
X141470000Y-123642380D02*
X141470000Y-122642380D01*
X141374761Y-122785238D01*
X141279523Y-122880476D01*
X141184285Y-122928095D01*
X140803333Y-101417380D02*
X140470000Y-100941190D01*
X140231904Y-101417380D02*
X140231904Y-100417380D01*
X140612857Y-100417380D01*
X140708095Y-100465000D01*
X140755714Y-100512619D01*
X140803333Y-100607857D01*
X140803333Y-100750714D01*
X140755714Y-100845952D01*
X140708095Y-100893571D01*
X140612857Y-100941190D01*
X140231904Y-100941190D01*
X141184285Y-100512619D02*
X141231904Y-100465000D01*
X141327142Y-100417380D01*
X141565238Y-100417380D01*
X141660476Y-100465000D01*
X141708095Y-100512619D01*
X141755714Y-100607857D01*
X141755714Y-100703095D01*
X141708095Y-100845952D01*
X141136666Y-101417380D01*
X141755714Y-101417380D01*
X144613333Y-114752380D02*
X144280000Y-114276190D01*
X144041904Y-114752380D02*
X144041904Y-113752380D01*
X144422857Y-113752380D01*
X144518095Y-113800000D01*
X144565714Y-113847619D01*
X144613333Y-113942857D01*
X144613333Y-114085714D01*
X144565714Y-114180952D01*
X144518095Y-114228571D01*
X144422857Y-114276190D01*
X144041904Y-114276190D01*
X144946666Y-113752380D02*
X145565714Y-113752380D01*
X145232380Y-114133333D01*
X145375238Y-114133333D01*
X145470476Y-114180952D01*
X145518095Y-114228571D01*
X145565714Y-114323809D01*
X145565714Y-114561904D01*
X145518095Y-114657142D01*
X145470476Y-114704761D01*
X145375238Y-114752380D01*
X145089523Y-114752380D01*
X144994285Y-114704761D01*
X144946666Y-114657142D01*
X146672380Y-100496666D02*
X146196190Y-100830000D01*
X146672380Y-101068095D02*
X145672380Y-101068095D01*
X145672380Y-100687142D01*
X145720000Y-100591904D01*
X145767619Y-100544285D01*
X145862857Y-100496666D01*
X146005714Y-100496666D01*
X146100952Y-100544285D01*
X146148571Y-100591904D01*
X146196190Y-100687142D01*
X146196190Y-101068095D01*
X146005714Y-99639523D02*
X146672380Y-99639523D01*
X145624761Y-99877619D02*
X146339047Y-100115714D01*
X146339047Y-99496666D01*
X140803333Y-105397380D02*
X140470000Y-104921190D01*
X140231904Y-105397380D02*
X140231904Y-104397380D01*
X140612857Y-104397380D01*
X140708095Y-104445000D01*
X140755714Y-104492619D01*
X140803333Y-104587857D01*
X140803333Y-104730714D01*
X140755714Y-104825952D01*
X140708095Y-104873571D01*
X140612857Y-104921190D01*
X140231904Y-104921190D01*
X141708095Y-104397380D02*
X141231904Y-104397380D01*
X141184285Y-104873571D01*
X141231904Y-104825952D01*
X141327142Y-104778333D01*
X141565238Y-104778333D01*
X141660476Y-104825952D01*
X141708095Y-104873571D01*
X141755714Y-104968809D01*
X141755714Y-105206904D01*
X141708095Y-105302142D01*
X141660476Y-105349761D01*
X141565238Y-105397380D01*
X141327142Y-105397380D01*
X141231904Y-105349761D01*
X141184285Y-105302142D01*
X151412380Y-110656666D02*
X150936190Y-110990000D01*
X151412380Y-111228095D02*
X150412380Y-111228095D01*
X150412380Y-110847142D01*
X150460000Y-110751904D01*
X150507619Y-110704285D01*
X150602857Y-110656666D01*
X150745714Y-110656666D01*
X150840952Y-110704285D01*
X150888571Y-110751904D01*
X150936190Y-110847142D01*
X150936190Y-111228095D01*
X150412380Y-109799523D02*
X150412380Y-109990000D01*
X150460000Y-110085238D01*
X150507619Y-110132857D01*
X150650476Y-110228095D01*
X150840952Y-110275714D01*
X151221904Y-110275714D01*
X151317142Y-110228095D01*
X151364761Y-110180476D01*
X151412380Y-110085238D01*
X151412380Y-109894761D01*
X151364761Y-109799523D01*
X151317142Y-109751904D01*
X151221904Y-109704285D01*
X150983809Y-109704285D01*
X150888571Y-109751904D01*
X150840952Y-109799523D01*
X150793333Y-109894761D01*
X150793333Y-110085238D01*
X150840952Y-110180476D01*
X150888571Y-110228095D01*
X150983809Y-110275714D01*
X140803333Y-92570380D02*
X140470000Y-92094190D01*
X140231904Y-92570380D02*
X140231904Y-91570380D01*
X140612857Y-91570380D01*
X140708095Y-91618000D01*
X140755714Y-91665619D01*
X140803333Y-91760857D01*
X140803333Y-91903714D01*
X140755714Y-91998952D01*
X140708095Y-92046571D01*
X140612857Y-92094190D01*
X140231904Y-92094190D01*
X141136666Y-91570380D02*
X141803333Y-91570380D01*
X141374761Y-92570380D01*
M02*
