G04 #@! TF.GenerationSoftware,KiCad,Pcbnew,(5.0.1)-3*
G04 #@! TF.CreationDate,2019-02-16T13:45:53-05:00*
G04 #@! TF.ProjectId,OdysseyDaughterCardSpotGenerator,4F647973736579446175676874657243,1.2*
G04 #@! TF.SameCoordinates,Original*
G04 #@! TF.FileFunction,Soldermask,Top*
G04 #@! TF.FilePolarity,Negative*
%FSLAX46Y46*%
G04 Gerber Fmt 4.6, Leading zero omitted, Abs format (unit mm)*
G04 Created by KiCad (PCBNEW (5.0.1)-3) date 2/16/2019 1:45:53 PM*
%MOMM*%
%LPD*%
G01*
G04 APERTURE LIST*
%ADD10C,0.100000*%
G04 APERTURE END LIST*
D10*
G36*
X157768000Y-121954000D02*
X155668000Y-121954000D01*
X155668000Y-119854000D01*
X157768000Y-119854000D01*
X157768000Y-121954000D01*
X157768000Y-121954000D01*
G37*
G36*
X145780000Y-121650000D02*
X143780000Y-121650000D01*
X143780000Y-119650000D01*
X145780000Y-119650000D01*
X145780000Y-121650000D01*
X145780000Y-121650000D01*
G37*
G36*
X137356030Y-119664469D02*
X137356033Y-119664470D01*
X137356034Y-119664470D01*
X137544535Y-119721651D01*
X137544537Y-119721652D01*
X137718260Y-119814509D01*
X137870528Y-119939472D01*
X137995491Y-120091740D01*
X138088348Y-120265463D01*
X138145531Y-120453970D01*
X138164838Y-120650000D01*
X138145531Y-120846030D01*
X138088348Y-121034537D01*
X137995491Y-121208260D01*
X137870528Y-121360528D01*
X137718260Y-121485491D01*
X137718258Y-121485492D01*
X137544535Y-121578349D01*
X137356034Y-121635530D01*
X137356033Y-121635530D01*
X137356030Y-121635531D01*
X137209124Y-121650000D01*
X137110876Y-121650000D01*
X136963970Y-121635531D01*
X136963967Y-121635530D01*
X136963966Y-121635530D01*
X136775465Y-121578349D01*
X136601742Y-121485492D01*
X136601740Y-121485491D01*
X136449472Y-121360528D01*
X136324509Y-121208260D01*
X136231652Y-121034537D01*
X136174469Y-120846030D01*
X136155162Y-120650000D01*
X136174469Y-120453970D01*
X136231652Y-120265463D01*
X136324509Y-120091740D01*
X136449472Y-119939472D01*
X136601740Y-119814509D01*
X136775463Y-119721652D01*
X136775465Y-119721651D01*
X136963966Y-119664470D01*
X136963967Y-119664470D01*
X136963970Y-119664469D01*
X137110876Y-119650000D01*
X137209124Y-119650000D01*
X137356030Y-119664469D01*
X137356030Y-119664469D01*
G37*
G36*
X156846707Y-117321596D02*
X156923836Y-117329193D01*
X157055787Y-117369220D01*
X157121763Y-117389233D01*
X157304172Y-117486733D01*
X157464054Y-117617946D01*
X157595267Y-117777828D01*
X157692767Y-117960237D01*
X157692767Y-117960238D01*
X157752807Y-118158164D01*
X157773080Y-118364000D01*
X157752807Y-118569836D01*
X157712780Y-118701787D01*
X157692767Y-118767763D01*
X157595267Y-118950172D01*
X157464054Y-119110054D01*
X157304172Y-119241267D01*
X157121763Y-119338767D01*
X157055787Y-119358780D01*
X156923836Y-119398807D01*
X156846707Y-119406404D01*
X156769580Y-119414000D01*
X156666420Y-119414000D01*
X156589293Y-119406404D01*
X156512164Y-119398807D01*
X156380213Y-119358780D01*
X156314237Y-119338767D01*
X156131828Y-119241267D01*
X155971946Y-119110054D01*
X155840733Y-118950172D01*
X155743233Y-118767763D01*
X155723220Y-118701787D01*
X155683193Y-118569836D01*
X155662920Y-118364000D01*
X155683193Y-118158164D01*
X155743233Y-117960238D01*
X155743233Y-117960237D01*
X155840733Y-117777828D01*
X155971946Y-117617946D01*
X156131828Y-117486733D01*
X156314237Y-117389233D01*
X156380213Y-117369220D01*
X156512164Y-117329193D01*
X156589293Y-117321596D01*
X156666420Y-117314000D01*
X156769580Y-117314000D01*
X156846707Y-117321596D01*
X156846707Y-117321596D01*
G37*
G36*
X148551770Y-115347372D02*
X148667689Y-115370429D01*
X148849678Y-115445811D01*
X149013463Y-115555249D01*
X149152751Y-115694537D01*
X149262189Y-115858322D01*
X149337571Y-116040311D01*
X149350738Y-116106507D01*
X149370330Y-116205000D01*
X149376000Y-116233509D01*
X149376000Y-116430491D01*
X149337571Y-116623689D01*
X149262189Y-116805678D01*
X149152751Y-116969463D01*
X149013463Y-117108751D01*
X148849678Y-117218189D01*
X148667689Y-117293571D01*
X148564984Y-117314000D01*
X148474493Y-117332000D01*
X148277507Y-117332000D01*
X148187016Y-117314000D01*
X148084311Y-117293571D01*
X147902322Y-117218189D01*
X147738537Y-117108751D01*
X147599249Y-116969463D01*
X147489811Y-116805678D01*
X147414429Y-116623689D01*
X147376000Y-116430491D01*
X147376000Y-116233509D01*
X147381671Y-116205000D01*
X147401262Y-116106507D01*
X147414429Y-116040311D01*
X147489811Y-115858322D01*
X147599249Y-115694537D01*
X147738537Y-115555249D01*
X147902322Y-115445811D01*
X148084311Y-115370429D01*
X148200230Y-115347372D01*
X148277507Y-115332000D01*
X148474493Y-115332000D01*
X148551770Y-115347372D01*
X148551770Y-115347372D01*
G37*
G36*
X151051770Y-115347372D02*
X151167689Y-115370429D01*
X151349678Y-115445811D01*
X151513463Y-115555249D01*
X151652751Y-115694537D01*
X151762189Y-115858322D01*
X151837571Y-116040311D01*
X151850738Y-116106507D01*
X151870330Y-116205000D01*
X151876000Y-116233509D01*
X151876000Y-116430491D01*
X151837571Y-116623689D01*
X151762189Y-116805678D01*
X151652751Y-116969463D01*
X151513463Y-117108751D01*
X151349678Y-117218189D01*
X151167689Y-117293571D01*
X151064984Y-117314000D01*
X150974493Y-117332000D01*
X150777507Y-117332000D01*
X150687016Y-117314000D01*
X150584311Y-117293571D01*
X150402322Y-117218189D01*
X150238537Y-117108751D01*
X150099249Y-116969463D01*
X149989811Y-116805678D01*
X149914429Y-116623689D01*
X149876000Y-116430491D01*
X149876000Y-116233509D01*
X149881671Y-116205000D01*
X149901262Y-116106507D01*
X149914429Y-116040311D01*
X149989811Y-115858322D01*
X150099249Y-115694537D01*
X150238537Y-115555249D01*
X150402322Y-115445811D01*
X150584311Y-115370429D01*
X150700230Y-115347372D01*
X150777507Y-115332000D01*
X150974493Y-115332000D01*
X151051770Y-115347372D01*
X151051770Y-115347372D01*
G37*
G36*
X144955770Y-115220372D02*
X145071689Y-115243429D01*
X145253678Y-115318811D01*
X145417463Y-115428249D01*
X145556751Y-115567537D01*
X145666189Y-115731322D01*
X145741571Y-115913311D01*
X145780000Y-116106509D01*
X145780000Y-116303491D01*
X145741571Y-116496689D01*
X145666189Y-116678678D01*
X145556751Y-116842463D01*
X145417463Y-116981751D01*
X145253678Y-117091189D01*
X145071689Y-117166571D01*
X144955770Y-117189628D01*
X144878493Y-117205000D01*
X144681507Y-117205000D01*
X144604230Y-117189628D01*
X144488311Y-117166571D01*
X144306322Y-117091189D01*
X144142537Y-116981751D01*
X144003249Y-116842463D01*
X143893811Y-116678678D01*
X143818429Y-116496689D01*
X143780000Y-116303491D01*
X143780000Y-116106509D01*
X143818429Y-115913311D01*
X143893811Y-115731322D01*
X144003249Y-115567537D01*
X144142537Y-115428249D01*
X144306322Y-115318811D01*
X144488311Y-115243429D01*
X144604230Y-115220372D01*
X144681507Y-115205000D01*
X144878493Y-115205000D01*
X144955770Y-115220372D01*
X144955770Y-115220372D01*
G37*
G36*
X137356030Y-115219469D02*
X137356033Y-115219470D01*
X137356034Y-115219470D01*
X137544535Y-115276651D01*
X137544537Y-115276652D01*
X137718260Y-115369509D01*
X137870528Y-115494472D01*
X137995491Y-115646740D01*
X137995492Y-115646742D01*
X138088349Y-115820465D01*
X138116513Y-115913311D01*
X138145531Y-116008970D01*
X138164838Y-116205000D01*
X138145531Y-116401030D01*
X138145530Y-116401033D01*
X138145530Y-116401034D01*
X138136594Y-116430493D01*
X138088348Y-116589537D01*
X137995491Y-116763260D01*
X137870528Y-116915528D01*
X137718260Y-117040491D01*
X137718258Y-117040492D01*
X137544535Y-117133349D01*
X137356034Y-117190530D01*
X137356033Y-117190530D01*
X137356030Y-117190531D01*
X137209124Y-117205000D01*
X137110876Y-117205000D01*
X136963970Y-117190531D01*
X136963967Y-117190530D01*
X136963966Y-117190530D01*
X136775465Y-117133349D01*
X136601742Y-117040492D01*
X136601740Y-117040491D01*
X136449472Y-116915528D01*
X136324509Y-116763260D01*
X136231652Y-116589537D01*
X136183407Y-116430493D01*
X136174470Y-116401034D01*
X136174470Y-116401033D01*
X136174469Y-116401030D01*
X136155162Y-116205000D01*
X136174469Y-116008970D01*
X136203487Y-115913311D01*
X136231651Y-115820465D01*
X136324508Y-115646742D01*
X136324509Y-115646740D01*
X136449472Y-115494472D01*
X136601740Y-115369509D01*
X136775463Y-115276652D01*
X136775465Y-115276651D01*
X136963966Y-115219470D01*
X136963967Y-115219470D01*
X136963970Y-115219469D01*
X137110876Y-115205000D01*
X137209124Y-115205000D01*
X137356030Y-115219469D01*
X137356030Y-115219469D01*
G37*
G36*
X156846707Y-114781596D02*
X156923836Y-114789193D01*
X157055787Y-114829220D01*
X157121763Y-114849233D01*
X157304172Y-114946733D01*
X157464054Y-115077946D01*
X157595267Y-115237828D01*
X157692767Y-115420237D01*
X157712780Y-115486213D01*
X157752807Y-115618164D01*
X157773080Y-115824000D01*
X157752807Y-116029836D01*
X157712780Y-116161787D01*
X157692767Y-116227763D01*
X157595267Y-116410172D01*
X157464054Y-116570054D01*
X157304172Y-116701267D01*
X157121763Y-116798767D01*
X157055787Y-116818780D01*
X156923836Y-116858807D01*
X156846707Y-116866403D01*
X156769580Y-116874000D01*
X156666420Y-116874000D01*
X156589293Y-116866403D01*
X156512164Y-116858807D01*
X156380213Y-116818780D01*
X156314237Y-116798767D01*
X156131828Y-116701267D01*
X155971946Y-116570054D01*
X155840733Y-116410172D01*
X155743233Y-116227763D01*
X155723220Y-116161787D01*
X155683193Y-116029836D01*
X155662920Y-115824000D01*
X155683193Y-115618164D01*
X155723220Y-115486213D01*
X155743233Y-115420237D01*
X155840733Y-115237828D01*
X155971946Y-115077946D01*
X156131828Y-114946733D01*
X156314237Y-114849233D01*
X156380213Y-114829220D01*
X156512164Y-114789193D01*
X156589293Y-114781596D01*
X156666420Y-114774000D01*
X156769580Y-114774000D01*
X156846707Y-114781596D01*
X156846707Y-114781596D01*
G37*
G36*
X156760113Y-104942497D02*
X156831125Y-104949491D01*
X156922234Y-104977128D01*
X156967789Y-104990947D01*
X157093738Y-105058269D01*
X157204132Y-105148868D01*
X157294731Y-105259262D01*
X157362053Y-105385211D01*
X157362053Y-105385212D01*
X157403509Y-105521875D01*
X157417507Y-105664000D01*
X157403509Y-105806125D01*
X157375872Y-105897234D01*
X157362053Y-105942789D01*
X157294731Y-106068738D01*
X157204132Y-106179132D01*
X157175812Y-106202374D01*
X157158485Y-106219701D01*
X157144871Y-106240075D01*
X157135493Y-106262714D01*
X157130713Y-106286748D01*
X157130713Y-106311252D01*
X157135493Y-106335286D01*
X157144871Y-106357925D01*
X157158485Y-106378299D01*
X157175812Y-106395626D01*
X157204132Y-106418868D01*
X157294731Y-106529262D01*
X157362053Y-106655211D01*
X157362053Y-106655212D01*
X157403509Y-106791875D01*
X157417507Y-106934000D01*
X157403509Y-107076125D01*
X157384818Y-107137740D01*
X157362053Y-107212789D01*
X157318069Y-107295075D01*
X157308692Y-107317713D01*
X157303911Y-107341747D01*
X157303911Y-107366251D01*
X157308691Y-107390285D01*
X157318068Y-107412924D01*
X157331682Y-107433298D01*
X157349009Y-107450626D01*
X157369384Y-107464240D01*
X157392022Y-107473617D01*
X157414000Y-107477989D01*
X157414000Y-108929000D01*
X155514000Y-108929000D01*
X155514000Y-107477591D01*
X155524077Y-107476598D01*
X155547526Y-107469485D01*
X155569137Y-107457934D01*
X155588079Y-107442388D01*
X155603625Y-107423446D01*
X155615176Y-107401835D01*
X155622289Y-107378386D01*
X155624691Y-107354000D01*
X155622289Y-107329614D01*
X155615176Y-107306165D01*
X155609931Y-107295075D01*
X155565947Y-107212789D01*
X155543182Y-107137740D01*
X155524491Y-107076125D01*
X155510493Y-106934000D01*
X155524491Y-106791875D01*
X155565947Y-106655212D01*
X155565947Y-106655211D01*
X155633269Y-106529262D01*
X155723868Y-106418868D01*
X155752188Y-106395626D01*
X155769515Y-106378299D01*
X155783129Y-106357925D01*
X155792507Y-106335286D01*
X155797287Y-106311252D01*
X155797287Y-106286748D01*
X155792507Y-106262714D01*
X155783129Y-106240075D01*
X155769515Y-106219701D01*
X155752188Y-106202374D01*
X155723868Y-106179132D01*
X155633269Y-106068738D01*
X155565947Y-105942789D01*
X155552128Y-105897234D01*
X155524491Y-105806125D01*
X155510493Y-105664000D01*
X155524491Y-105521875D01*
X155565947Y-105385212D01*
X155565947Y-105385211D01*
X155633269Y-105259262D01*
X155723868Y-105148868D01*
X155834262Y-105058269D01*
X155960211Y-104990947D01*
X156005766Y-104977128D01*
X156096875Y-104949491D01*
X156167887Y-104942497D01*
X156203392Y-104939000D01*
X156724608Y-104939000D01*
X156760113Y-104942497D01*
X156760113Y-104942497D01*
G37*
G36*
X150664113Y-104942497D02*
X150735125Y-104949491D01*
X150826234Y-104977128D01*
X150871789Y-104990947D01*
X150997738Y-105058269D01*
X151108132Y-105148868D01*
X151198731Y-105259262D01*
X151266053Y-105385211D01*
X151266053Y-105385212D01*
X151307509Y-105521875D01*
X151321507Y-105664000D01*
X151307509Y-105806125D01*
X151279872Y-105897234D01*
X151266053Y-105942789D01*
X151198731Y-106068738D01*
X151108132Y-106179132D01*
X151079812Y-106202374D01*
X151062485Y-106219701D01*
X151048871Y-106240075D01*
X151039493Y-106262714D01*
X151034713Y-106286748D01*
X151034713Y-106311252D01*
X151039493Y-106335286D01*
X151048871Y-106357925D01*
X151062485Y-106378299D01*
X151079812Y-106395626D01*
X151108132Y-106418868D01*
X151198731Y-106529262D01*
X151266053Y-106655211D01*
X151266053Y-106655212D01*
X151307509Y-106791875D01*
X151321507Y-106934000D01*
X151307509Y-107076125D01*
X151288818Y-107137740D01*
X151266053Y-107212789D01*
X151222069Y-107295075D01*
X151212692Y-107317713D01*
X151207911Y-107341747D01*
X151207911Y-107366251D01*
X151212691Y-107390285D01*
X151222068Y-107412924D01*
X151235682Y-107433298D01*
X151253009Y-107450626D01*
X151273384Y-107464240D01*
X151296022Y-107473617D01*
X151318000Y-107477989D01*
X151318000Y-108929000D01*
X149418000Y-108929000D01*
X149418000Y-107477591D01*
X149428077Y-107476598D01*
X149451526Y-107469485D01*
X149473137Y-107457934D01*
X149492079Y-107442388D01*
X149507625Y-107423446D01*
X149519176Y-107401835D01*
X149526289Y-107378386D01*
X149528691Y-107354000D01*
X149526289Y-107329614D01*
X149519176Y-107306165D01*
X149513931Y-107295075D01*
X149469947Y-107212789D01*
X149447182Y-107137740D01*
X149428491Y-107076125D01*
X149414493Y-106934000D01*
X149428491Y-106791875D01*
X149469947Y-106655212D01*
X149469947Y-106655211D01*
X149537269Y-106529262D01*
X149627868Y-106418868D01*
X149656188Y-106395626D01*
X149673515Y-106378299D01*
X149687129Y-106357925D01*
X149696507Y-106335286D01*
X149701287Y-106311252D01*
X149701287Y-106286748D01*
X149696507Y-106262714D01*
X149687129Y-106240075D01*
X149673515Y-106219701D01*
X149656188Y-106202374D01*
X149627868Y-106179132D01*
X149537269Y-106068738D01*
X149469947Y-105942789D01*
X149456128Y-105897234D01*
X149428491Y-105806125D01*
X149414493Y-105664000D01*
X149428491Y-105521875D01*
X149469947Y-105385212D01*
X149469947Y-105385211D01*
X149537269Y-105259262D01*
X149627868Y-105148868D01*
X149738262Y-105058269D01*
X149864211Y-104990947D01*
X149909766Y-104977128D01*
X150000875Y-104949491D01*
X150071887Y-104942497D01*
X150107392Y-104939000D01*
X150628608Y-104939000D01*
X150664113Y-104942497D01*
X150664113Y-104942497D01*
G37*
G36*
X144955770Y-106711372D02*
X145071689Y-106734429D01*
X145253678Y-106809811D01*
X145417463Y-106919249D01*
X145556751Y-107058537D01*
X145666189Y-107222322D01*
X145741571Y-107404311D01*
X145780000Y-107597509D01*
X145780000Y-107794491D01*
X145741571Y-107987689D01*
X145666189Y-108169678D01*
X145556751Y-108333463D01*
X145417463Y-108472751D01*
X145253678Y-108582189D01*
X145071689Y-108657571D01*
X144955770Y-108680628D01*
X144878493Y-108696000D01*
X144681507Y-108696000D01*
X144604230Y-108680628D01*
X144488311Y-108657571D01*
X144306322Y-108582189D01*
X144142537Y-108472751D01*
X144003249Y-108333463D01*
X143893811Y-108169678D01*
X143818429Y-107987689D01*
X143780000Y-107794491D01*
X143780000Y-107597509D01*
X143818429Y-107404311D01*
X143893811Y-107222322D01*
X144003249Y-107058537D01*
X144142537Y-106919249D01*
X144306322Y-106809811D01*
X144488311Y-106734429D01*
X144604230Y-106711372D01*
X144681507Y-106696000D01*
X144878493Y-106696000D01*
X144955770Y-106711372D01*
X144955770Y-106711372D01*
G37*
G36*
X137356030Y-106710469D02*
X137356033Y-106710470D01*
X137356034Y-106710470D01*
X137544535Y-106767651D01*
X137544537Y-106767652D01*
X137718260Y-106860509D01*
X137870528Y-106985472D01*
X137995491Y-107137740D01*
X137995492Y-107137742D01*
X138088349Y-107311465D01*
X138138863Y-107477989D01*
X138145531Y-107499970D01*
X138164838Y-107696000D01*
X138145531Y-107892030D01*
X138088348Y-108080537D01*
X137995491Y-108254260D01*
X137870528Y-108406528D01*
X137718260Y-108531491D01*
X137718258Y-108531492D01*
X137544535Y-108624349D01*
X137356034Y-108681530D01*
X137356033Y-108681530D01*
X137356030Y-108681531D01*
X137209124Y-108696000D01*
X137110876Y-108696000D01*
X136963970Y-108681531D01*
X136963967Y-108681530D01*
X136963966Y-108681530D01*
X136775465Y-108624349D01*
X136601742Y-108531492D01*
X136601740Y-108531491D01*
X136449472Y-108406528D01*
X136324509Y-108254260D01*
X136231652Y-108080537D01*
X136174469Y-107892030D01*
X136155162Y-107696000D01*
X136174469Y-107499970D01*
X136181137Y-107477989D01*
X136231651Y-107311465D01*
X136324508Y-107137742D01*
X136324509Y-107137740D01*
X136449472Y-106985472D01*
X136601740Y-106860509D01*
X136775463Y-106767652D01*
X136775465Y-106767651D01*
X136963966Y-106710470D01*
X136963967Y-106710470D01*
X136963970Y-106710469D01*
X137110876Y-106696000D01*
X137209124Y-106696000D01*
X137356030Y-106710469D01*
X137356030Y-106710469D01*
G37*
G36*
X144976030Y-102646469D02*
X144976033Y-102646470D01*
X144976034Y-102646470D01*
X145164535Y-102703651D01*
X145164537Y-102703652D01*
X145338260Y-102796509D01*
X145490528Y-102921472D01*
X145615491Y-103073740D01*
X145708348Y-103247463D01*
X145765531Y-103435970D01*
X145784838Y-103632000D01*
X145765531Y-103828030D01*
X145708348Y-104016537D01*
X145615491Y-104190260D01*
X145490528Y-104342528D01*
X145338260Y-104467491D01*
X145338258Y-104467492D01*
X145164535Y-104560349D01*
X144976034Y-104617530D01*
X144976033Y-104617530D01*
X144976030Y-104617531D01*
X144829124Y-104632000D01*
X144730876Y-104632000D01*
X144583970Y-104617531D01*
X144583967Y-104617530D01*
X144583966Y-104617530D01*
X144395465Y-104560349D01*
X144221742Y-104467492D01*
X144221740Y-104467491D01*
X144069472Y-104342528D01*
X143944509Y-104190260D01*
X143851652Y-104016537D01*
X143794469Y-103828030D01*
X143775162Y-103632000D01*
X143794469Y-103435970D01*
X143851652Y-103247463D01*
X143944509Y-103073740D01*
X144069472Y-102921472D01*
X144221740Y-102796509D01*
X144395463Y-102703652D01*
X144395465Y-102703651D01*
X144583966Y-102646470D01*
X144583967Y-102646470D01*
X144583970Y-102646469D01*
X144730876Y-102632000D01*
X144829124Y-102632000D01*
X144976030Y-102646469D01*
X144976030Y-102646469D01*
G37*
G36*
X137335770Y-102647372D02*
X137451689Y-102670429D01*
X137633678Y-102745811D01*
X137797463Y-102855249D01*
X137936751Y-102994537D01*
X138046189Y-103158322D01*
X138121571Y-103340311D01*
X138160000Y-103533509D01*
X138160000Y-103730491D01*
X138121571Y-103923689D01*
X138046189Y-104105678D01*
X137936751Y-104269463D01*
X137797463Y-104408751D01*
X137633678Y-104518189D01*
X137451689Y-104593571D01*
X137335770Y-104616628D01*
X137258493Y-104632000D01*
X137061507Y-104632000D01*
X136984230Y-104616628D01*
X136868311Y-104593571D01*
X136686322Y-104518189D01*
X136522537Y-104408751D01*
X136383249Y-104269463D01*
X136273811Y-104105678D01*
X136198429Y-103923689D01*
X136160000Y-103730491D01*
X136160000Y-103533509D01*
X136198429Y-103340311D01*
X136273811Y-103158322D01*
X136383249Y-102994537D01*
X136522537Y-102855249D01*
X136686322Y-102745811D01*
X136868311Y-102670429D01*
X136984230Y-102647372D01*
X137061507Y-102632000D01*
X137258493Y-102632000D01*
X137335770Y-102647372D01*
X137335770Y-102647372D01*
G37*
G36*
X156131770Y-101123372D02*
X156247689Y-101146429D01*
X156429678Y-101221811D01*
X156593463Y-101331249D01*
X156732751Y-101470537D01*
X156842189Y-101634322D01*
X156917571Y-101816311D01*
X156956000Y-102009509D01*
X156956000Y-102206491D01*
X156917571Y-102399689D01*
X156842189Y-102581678D01*
X156732751Y-102745463D01*
X156593463Y-102884751D01*
X156429678Y-102994189D01*
X156247689Y-103069571D01*
X156131770Y-103092628D01*
X156054493Y-103108000D01*
X155857507Y-103108000D01*
X155780230Y-103092628D01*
X155664311Y-103069571D01*
X155482322Y-102994189D01*
X155318537Y-102884751D01*
X155179249Y-102745463D01*
X155069811Y-102581678D01*
X154994429Y-102399689D01*
X154956000Y-102206491D01*
X154956000Y-102009509D01*
X154994429Y-101816311D01*
X155069811Y-101634322D01*
X155179249Y-101470537D01*
X155318537Y-101331249D01*
X155482322Y-101221811D01*
X155664311Y-101146429D01*
X155780230Y-101123372D01*
X155857507Y-101108000D01*
X156054493Y-101108000D01*
X156131770Y-101123372D01*
X156131770Y-101123372D01*
G37*
G36*
X150122521Y-101242586D02*
X150286309Y-101310429D01*
X150433720Y-101408926D01*
X150559074Y-101534280D01*
X150657571Y-101681691D01*
X150725414Y-101845479D01*
X150760000Y-102019356D01*
X150760000Y-102196644D01*
X150725414Y-102370521D01*
X150657571Y-102534309D01*
X150559074Y-102681720D01*
X150433720Y-102807074D01*
X150286309Y-102905571D01*
X150122521Y-102973414D01*
X149948644Y-103008000D01*
X149771356Y-103008000D01*
X149597479Y-102973414D01*
X149433691Y-102905571D01*
X149286280Y-102807074D01*
X149160926Y-102681720D01*
X149062429Y-102534309D01*
X148994586Y-102370521D01*
X148960000Y-102196644D01*
X148960000Y-102019356D01*
X148994586Y-101845479D01*
X149062429Y-101681691D01*
X149160926Y-101534280D01*
X149286280Y-101408926D01*
X149433691Y-101310429D01*
X149597479Y-101242586D01*
X149771356Y-101208000D01*
X149948644Y-101208000D01*
X150122521Y-101242586D01*
X150122521Y-101242586D01*
G37*
G36*
X137356030Y-98709469D02*
X137356033Y-98709470D01*
X137356034Y-98709470D01*
X137544535Y-98766651D01*
X137544537Y-98766652D01*
X137718260Y-98859509D01*
X137870528Y-98984472D01*
X137995491Y-99136740D01*
X137995492Y-99136742D01*
X138088349Y-99310465D01*
X138116513Y-99403311D01*
X138145531Y-99498970D01*
X138164838Y-99695000D01*
X138145531Y-99891030D01*
X138145530Y-99891033D01*
X138145530Y-99891034D01*
X138102068Y-100034310D01*
X138088348Y-100079537D01*
X137995491Y-100253260D01*
X137870528Y-100405528D01*
X137718260Y-100530491D01*
X137623411Y-100581189D01*
X137544535Y-100623349D01*
X137356034Y-100680530D01*
X137356033Y-100680530D01*
X137356030Y-100680531D01*
X137209124Y-100695000D01*
X137110876Y-100695000D01*
X136963970Y-100680531D01*
X136963967Y-100680530D01*
X136963966Y-100680530D01*
X136775465Y-100623349D01*
X136696589Y-100581189D01*
X136601740Y-100530491D01*
X136449472Y-100405528D01*
X136324509Y-100253260D01*
X136231652Y-100079537D01*
X136217933Y-100034310D01*
X136174470Y-99891034D01*
X136174470Y-99891033D01*
X136174469Y-99891030D01*
X136155162Y-99695000D01*
X136174469Y-99498970D01*
X136203487Y-99403311D01*
X136231651Y-99310465D01*
X136324508Y-99136742D01*
X136324509Y-99136740D01*
X136449472Y-98984472D01*
X136601740Y-98859509D01*
X136775463Y-98766652D01*
X136775465Y-98766651D01*
X136963966Y-98709470D01*
X136963967Y-98709470D01*
X136963970Y-98709469D01*
X137110876Y-98695000D01*
X137209124Y-98695000D01*
X137356030Y-98709469D01*
X137356030Y-98709469D01*
G37*
G36*
X144955770Y-98710372D02*
X145071689Y-98733429D01*
X145253678Y-98808811D01*
X145417463Y-98918249D01*
X145556751Y-99057537D01*
X145666189Y-99221322D01*
X145741571Y-99403311D01*
X145780000Y-99596509D01*
X145780000Y-99793491D01*
X145741571Y-99986689D01*
X145666189Y-100168678D01*
X145556751Y-100332463D01*
X145417463Y-100471751D01*
X145253678Y-100581189D01*
X145071689Y-100656571D01*
X144955770Y-100679628D01*
X144878493Y-100695000D01*
X144681507Y-100695000D01*
X144604230Y-100679628D01*
X144488311Y-100656571D01*
X144306322Y-100581189D01*
X144142537Y-100471751D01*
X144003249Y-100332463D01*
X143893811Y-100168678D01*
X143818429Y-99986689D01*
X143780000Y-99793491D01*
X143780000Y-99596509D01*
X143818429Y-99403311D01*
X143893811Y-99221322D01*
X144003249Y-99057537D01*
X144142537Y-98918249D01*
X144306322Y-98808811D01*
X144488311Y-98733429D01*
X144604230Y-98710372D01*
X144681507Y-98695000D01*
X144878493Y-98695000D01*
X144955770Y-98710372D01*
X144955770Y-98710372D01*
G37*
G36*
X156131770Y-98623372D02*
X156247689Y-98646429D01*
X156429678Y-98721811D01*
X156593463Y-98831249D01*
X156732751Y-98970537D01*
X156842189Y-99134322D01*
X156917571Y-99316311D01*
X156956000Y-99509509D01*
X156956000Y-99706491D01*
X156917571Y-99899689D01*
X156842189Y-100081678D01*
X156732751Y-100245463D01*
X156593463Y-100384751D01*
X156429678Y-100494189D01*
X156247689Y-100569571D01*
X156131770Y-100592628D01*
X156054493Y-100608000D01*
X155857507Y-100608000D01*
X155780230Y-100592628D01*
X155664311Y-100569571D01*
X155482322Y-100494189D01*
X155318537Y-100384751D01*
X155179249Y-100245463D01*
X155069811Y-100081678D01*
X154994429Y-99899689D01*
X154956000Y-99706491D01*
X154956000Y-99509509D01*
X154994429Y-99316311D01*
X155069811Y-99134322D01*
X155179249Y-98970537D01*
X155318537Y-98831249D01*
X155482322Y-98721811D01*
X155664311Y-98646429D01*
X155780230Y-98623372D01*
X155857507Y-98608000D01*
X156054493Y-98608000D01*
X156131770Y-98623372D01*
X156131770Y-98623372D01*
G37*
G36*
X150122521Y-98742586D02*
X150286309Y-98810429D01*
X150433720Y-98908926D01*
X150559074Y-99034280D01*
X150657571Y-99181691D01*
X150725414Y-99345479D01*
X150760000Y-99519356D01*
X150760000Y-99696644D01*
X150725414Y-99870521D01*
X150657571Y-100034309D01*
X150559074Y-100181720D01*
X150433720Y-100307074D01*
X150286309Y-100405571D01*
X150122521Y-100473414D01*
X149948644Y-100508000D01*
X149771356Y-100508000D01*
X149597479Y-100473414D01*
X149433691Y-100405571D01*
X149286280Y-100307074D01*
X149160926Y-100181720D01*
X149062429Y-100034309D01*
X148994586Y-99870521D01*
X148960000Y-99696644D01*
X148960000Y-99519356D01*
X148994586Y-99345479D01*
X149062429Y-99181691D01*
X149160926Y-99034280D01*
X149286280Y-98908926D01*
X149433691Y-98810429D01*
X149597479Y-98742586D01*
X149771356Y-98708000D01*
X149948644Y-98708000D01*
X150122521Y-98742586D01*
X150122521Y-98742586D01*
G37*
G36*
X150035770Y-96003372D02*
X150151689Y-96026429D01*
X150333678Y-96101811D01*
X150497463Y-96211249D01*
X150636751Y-96350537D01*
X150746189Y-96514322D01*
X150821571Y-96696311D01*
X150860000Y-96889509D01*
X150860000Y-97086491D01*
X150821571Y-97279689D01*
X150746189Y-97461678D01*
X150636751Y-97625463D01*
X150497463Y-97764751D01*
X150333678Y-97874189D01*
X150151689Y-97949571D01*
X150035770Y-97972628D01*
X149958493Y-97988000D01*
X149761507Y-97988000D01*
X149684230Y-97972628D01*
X149568311Y-97949571D01*
X149386322Y-97874189D01*
X149222537Y-97764751D01*
X149083249Y-97625463D01*
X148973811Y-97461678D01*
X148898429Y-97279689D01*
X148860000Y-97086491D01*
X148860000Y-96889509D01*
X148898429Y-96696311D01*
X148973811Y-96514322D01*
X149083249Y-96350537D01*
X149222537Y-96211249D01*
X149386322Y-96101811D01*
X149568311Y-96026429D01*
X149684230Y-96003372D01*
X149761507Y-95988000D01*
X149958493Y-95988000D01*
X150035770Y-96003372D01*
X150035770Y-96003372D01*
G37*
G36*
X137335770Y-94900372D02*
X137451689Y-94923429D01*
X137633678Y-94998811D01*
X137797463Y-95108249D01*
X137936751Y-95247537D01*
X138046189Y-95411322D01*
X138121571Y-95593311D01*
X138160000Y-95786509D01*
X138160000Y-95983491D01*
X138121571Y-96176689D01*
X138046189Y-96358678D01*
X137936751Y-96522463D01*
X137797463Y-96661751D01*
X137633678Y-96771189D01*
X137451689Y-96846571D01*
X137335770Y-96869628D01*
X137258493Y-96885000D01*
X137061507Y-96885000D01*
X136984230Y-96869628D01*
X136868311Y-96846571D01*
X136686322Y-96771189D01*
X136522537Y-96661751D01*
X136383249Y-96522463D01*
X136273811Y-96358678D01*
X136198429Y-96176689D01*
X136160000Y-95983491D01*
X136160000Y-95786509D01*
X136198429Y-95593311D01*
X136273811Y-95411322D01*
X136383249Y-95247537D01*
X136522537Y-95108249D01*
X136686322Y-94998811D01*
X136868311Y-94923429D01*
X136984230Y-94900372D01*
X137061507Y-94885000D01*
X137258493Y-94885000D01*
X137335770Y-94900372D01*
X137335770Y-94900372D01*
G37*
G36*
X144976030Y-94899469D02*
X144976033Y-94899470D01*
X144976034Y-94899470D01*
X145164535Y-94956651D01*
X145164537Y-94956652D01*
X145338260Y-95049509D01*
X145490528Y-95174472D01*
X145615491Y-95326740D01*
X145708348Y-95500463D01*
X145765531Y-95688970D01*
X145784838Y-95885000D01*
X145765531Y-96081030D01*
X145765530Y-96081033D01*
X145765530Y-96081034D01*
X145726029Y-96211253D01*
X145708348Y-96269537D01*
X145615491Y-96443260D01*
X145490528Y-96595528D01*
X145338260Y-96720491D01*
X145338258Y-96720492D01*
X145164535Y-96813349D01*
X144976034Y-96870530D01*
X144976033Y-96870530D01*
X144976030Y-96870531D01*
X144829124Y-96885000D01*
X144730876Y-96885000D01*
X144583970Y-96870531D01*
X144583967Y-96870530D01*
X144583966Y-96870530D01*
X144395465Y-96813349D01*
X144221742Y-96720492D01*
X144221740Y-96720491D01*
X144069472Y-96595528D01*
X143944509Y-96443260D01*
X143851652Y-96269537D01*
X143833972Y-96211253D01*
X143794470Y-96081034D01*
X143794470Y-96081033D01*
X143794469Y-96081030D01*
X143775162Y-95885000D01*
X143794469Y-95688970D01*
X143851652Y-95500463D01*
X143944509Y-95326740D01*
X144069472Y-95174472D01*
X144221740Y-95049509D01*
X144395463Y-94956652D01*
X144395465Y-94956651D01*
X144583966Y-94899470D01*
X144583967Y-94899470D01*
X144583970Y-94899469D01*
X144730876Y-94885000D01*
X144829124Y-94885000D01*
X144976030Y-94899469D01*
X144976030Y-94899469D01*
G37*
G36*
X150035770Y-93503372D02*
X150151689Y-93526429D01*
X150333678Y-93601811D01*
X150497463Y-93711249D01*
X150636751Y-93850537D01*
X150746189Y-94014322D01*
X150821571Y-94196311D01*
X150860000Y-94389509D01*
X150860000Y-94586491D01*
X150821571Y-94779689D01*
X150746189Y-94961678D01*
X150636751Y-95125463D01*
X150497463Y-95264751D01*
X150333678Y-95374189D01*
X150151689Y-95449571D01*
X150035770Y-95472628D01*
X149958493Y-95488000D01*
X149761507Y-95488000D01*
X149684230Y-95472628D01*
X149568311Y-95449571D01*
X149386322Y-95374189D01*
X149222537Y-95264751D01*
X149083249Y-95125463D01*
X148973811Y-94961678D01*
X148898429Y-94779689D01*
X148860000Y-94586491D01*
X148860000Y-94389509D01*
X148898429Y-94196311D01*
X148973811Y-94014322D01*
X149083249Y-93850537D01*
X149222537Y-93711249D01*
X149386322Y-93601811D01*
X149568311Y-93526429D01*
X149684230Y-93503372D01*
X149761507Y-93488000D01*
X149958493Y-93488000D01*
X150035770Y-93503372D01*
X150035770Y-93503372D01*
G37*
G36*
X144955770Y-91090372D02*
X145071689Y-91113429D01*
X145253678Y-91188811D01*
X145417463Y-91298249D01*
X145556751Y-91437537D01*
X145666189Y-91601322D01*
X145741571Y-91783311D01*
X145780000Y-91976509D01*
X145780000Y-92173491D01*
X145741571Y-92366689D01*
X145666189Y-92548678D01*
X145556751Y-92712463D01*
X145417463Y-92851751D01*
X145253678Y-92961189D01*
X145071689Y-93036571D01*
X144955770Y-93059628D01*
X144878493Y-93075000D01*
X144681507Y-93075000D01*
X144604230Y-93059628D01*
X144488311Y-93036571D01*
X144306322Y-92961189D01*
X144142537Y-92851751D01*
X144003249Y-92712463D01*
X143893811Y-92548678D01*
X143818429Y-92366689D01*
X143780000Y-92173491D01*
X143780000Y-91976509D01*
X143818429Y-91783311D01*
X143893811Y-91601322D01*
X144003249Y-91437537D01*
X144142537Y-91298249D01*
X144306322Y-91188811D01*
X144488311Y-91113429D01*
X144604230Y-91090372D01*
X144681507Y-91075000D01*
X144878493Y-91075000D01*
X144955770Y-91090372D01*
X144955770Y-91090372D01*
G37*
G36*
X137356030Y-91089469D02*
X137356033Y-91089470D01*
X137356034Y-91089470D01*
X137544535Y-91146651D01*
X137544537Y-91146652D01*
X137718260Y-91239509D01*
X137870528Y-91364472D01*
X137995491Y-91516740D01*
X138088348Y-91690463D01*
X138145531Y-91878970D01*
X138164838Y-92075000D01*
X138145531Y-92271030D01*
X138088348Y-92459537D01*
X137995491Y-92633260D01*
X137870528Y-92785528D01*
X137718260Y-92910491D01*
X137718258Y-92910492D01*
X137544535Y-93003349D01*
X137356034Y-93060530D01*
X137356033Y-93060530D01*
X137356030Y-93060531D01*
X137209124Y-93075000D01*
X137110876Y-93075000D01*
X136963970Y-93060531D01*
X136963967Y-93060530D01*
X136963966Y-93060530D01*
X136775465Y-93003349D01*
X136601742Y-92910492D01*
X136601740Y-92910491D01*
X136449472Y-92785528D01*
X136324509Y-92633260D01*
X136231652Y-92459537D01*
X136174469Y-92271030D01*
X136155162Y-92075000D01*
X136174469Y-91878970D01*
X136231652Y-91690463D01*
X136324509Y-91516740D01*
X136449472Y-91364472D01*
X136601740Y-91239509D01*
X136775463Y-91146652D01*
X136775465Y-91146651D01*
X136963966Y-91089470D01*
X136963967Y-91089470D01*
X136963970Y-91089469D01*
X137110876Y-91075000D01*
X137209124Y-91075000D01*
X137356030Y-91089469D01*
X137356030Y-91089469D01*
G37*
G36*
X156398000Y-89118409D02*
X156387923Y-89119402D01*
X156364474Y-89126515D01*
X156342863Y-89138066D01*
X156323921Y-89153612D01*
X156308375Y-89172554D01*
X156296824Y-89194165D01*
X156289711Y-89217614D01*
X156287309Y-89242000D01*
X156289711Y-89266386D01*
X156296824Y-89289835D01*
X156302069Y-89300925D01*
X156346053Y-89383211D01*
X156346053Y-89383212D01*
X156387509Y-89519875D01*
X156401507Y-89662000D01*
X156387509Y-89804125D01*
X156359872Y-89895234D01*
X156346053Y-89940789D01*
X156278731Y-90066738D01*
X156188132Y-90177132D01*
X156159812Y-90200374D01*
X156142485Y-90217701D01*
X156128871Y-90238075D01*
X156119493Y-90260714D01*
X156114713Y-90284748D01*
X156114713Y-90309252D01*
X156119493Y-90333286D01*
X156128871Y-90355925D01*
X156142485Y-90376299D01*
X156159812Y-90393626D01*
X156188132Y-90416868D01*
X156278731Y-90527262D01*
X156346053Y-90653211D01*
X156346053Y-90653212D01*
X156387509Y-90789875D01*
X156401507Y-90932000D01*
X156387509Y-91074125D01*
X156365508Y-91146652D01*
X156346053Y-91210789D01*
X156278731Y-91336738D01*
X156188132Y-91447132D01*
X156077738Y-91537731D01*
X155951789Y-91605053D01*
X155906234Y-91618872D01*
X155815125Y-91646509D01*
X155744113Y-91653503D01*
X155708608Y-91657000D01*
X155187392Y-91657000D01*
X155151887Y-91653503D01*
X155080875Y-91646509D01*
X154989766Y-91618872D01*
X154944211Y-91605053D01*
X154818262Y-91537731D01*
X154707868Y-91447132D01*
X154617269Y-91336738D01*
X154549947Y-91210789D01*
X154530492Y-91146652D01*
X154508491Y-91074125D01*
X154494493Y-90932000D01*
X154508491Y-90789875D01*
X154549947Y-90653212D01*
X154549947Y-90653211D01*
X154617269Y-90527262D01*
X154707868Y-90416868D01*
X154736188Y-90393626D01*
X154753515Y-90376299D01*
X154767129Y-90355925D01*
X154776507Y-90333286D01*
X154781287Y-90309252D01*
X154781287Y-90284748D01*
X154776507Y-90260714D01*
X154767129Y-90238075D01*
X154753515Y-90217701D01*
X154736188Y-90200374D01*
X154707868Y-90177132D01*
X154617269Y-90066738D01*
X154549947Y-89940789D01*
X154536128Y-89895234D01*
X154508491Y-89804125D01*
X154494493Y-89662000D01*
X154508491Y-89519875D01*
X154549947Y-89383212D01*
X154549947Y-89383211D01*
X154593931Y-89300925D01*
X154603308Y-89278287D01*
X154608089Y-89254253D01*
X154608089Y-89229749D01*
X154603309Y-89205715D01*
X154593932Y-89183076D01*
X154580318Y-89162702D01*
X154562991Y-89145374D01*
X154542616Y-89131760D01*
X154519978Y-89122383D01*
X154498000Y-89118011D01*
X154498000Y-87667000D01*
X156398000Y-87667000D01*
X156398000Y-89118409D01*
X156398000Y-89118409D01*
G37*
G36*
X150156113Y-87670497D02*
X150227125Y-87677491D01*
X150318234Y-87705128D01*
X150363789Y-87718947D01*
X150489738Y-87786269D01*
X150600132Y-87876868D01*
X150690731Y-87987262D01*
X150758053Y-88113211D01*
X150758053Y-88113212D01*
X150799509Y-88249875D01*
X150813507Y-88392000D01*
X150799509Y-88534125D01*
X150792665Y-88556686D01*
X150758053Y-88670789D01*
X150690731Y-88796738D01*
X150600132Y-88907132D01*
X150571812Y-88930374D01*
X150554485Y-88947701D01*
X150540871Y-88968075D01*
X150531493Y-88990714D01*
X150526713Y-89014748D01*
X150526713Y-89039252D01*
X150531493Y-89063286D01*
X150540871Y-89085925D01*
X150554485Y-89106299D01*
X150571812Y-89123626D01*
X150600132Y-89146868D01*
X150690731Y-89257262D01*
X150758053Y-89383211D01*
X150758053Y-89383212D01*
X150799509Y-89519875D01*
X150813507Y-89662000D01*
X150799509Y-89804125D01*
X150771872Y-89895234D01*
X150758053Y-89940789D01*
X150714069Y-90023075D01*
X150704692Y-90045713D01*
X150699911Y-90069747D01*
X150699911Y-90094251D01*
X150704691Y-90118285D01*
X150714068Y-90140924D01*
X150727682Y-90161298D01*
X150745009Y-90178626D01*
X150765384Y-90192240D01*
X150788022Y-90201617D01*
X150810000Y-90205989D01*
X150810000Y-91657000D01*
X148910000Y-91657000D01*
X148910000Y-90205591D01*
X148920077Y-90204598D01*
X148943526Y-90197485D01*
X148965137Y-90185934D01*
X148984079Y-90170388D01*
X148999625Y-90151446D01*
X149011176Y-90129835D01*
X149018289Y-90106386D01*
X149020691Y-90082000D01*
X149018289Y-90057614D01*
X149011176Y-90034165D01*
X149005931Y-90023075D01*
X148961947Y-89940789D01*
X148948128Y-89895234D01*
X148920491Y-89804125D01*
X148906493Y-89662000D01*
X148920491Y-89519875D01*
X148961947Y-89383212D01*
X148961947Y-89383211D01*
X149029269Y-89257262D01*
X149119868Y-89146868D01*
X149148188Y-89123626D01*
X149165515Y-89106299D01*
X149179129Y-89085925D01*
X149188507Y-89063286D01*
X149193287Y-89039252D01*
X149193287Y-89014748D01*
X149188507Y-88990714D01*
X149179129Y-88968075D01*
X149165515Y-88947701D01*
X149148188Y-88930374D01*
X149119868Y-88907132D01*
X149029269Y-88796738D01*
X148961947Y-88670789D01*
X148927335Y-88556686D01*
X148920491Y-88534125D01*
X148906493Y-88392000D01*
X148920491Y-88249875D01*
X148961947Y-88113212D01*
X148961947Y-88113211D01*
X149029269Y-87987262D01*
X149119868Y-87876868D01*
X149230262Y-87786269D01*
X149356211Y-87718947D01*
X149401766Y-87705128D01*
X149492875Y-87677491D01*
X149563887Y-87670497D01*
X149599392Y-87667000D01*
X150120608Y-87667000D01*
X150156113Y-87670497D01*
X150156113Y-87670497D01*
G37*
G36*
X144976030Y-87279469D02*
X144976033Y-87279470D01*
X144976034Y-87279470D01*
X145164535Y-87336651D01*
X145164537Y-87336652D01*
X145338260Y-87429509D01*
X145490528Y-87554472D01*
X145615491Y-87706740D01*
X145615492Y-87706742D01*
X145708349Y-87880465D01*
X145765530Y-88068966D01*
X145765531Y-88068970D01*
X145784838Y-88265000D01*
X145765531Y-88461030D01*
X145765530Y-88461033D01*
X145765530Y-88461034D01*
X145743359Y-88534123D01*
X145708348Y-88649537D01*
X145615491Y-88823260D01*
X145490528Y-88975528D01*
X145338260Y-89100491D01*
X145164537Y-89193348D01*
X145164535Y-89193349D01*
X144976034Y-89250530D01*
X144976033Y-89250530D01*
X144976030Y-89250531D01*
X144829124Y-89265000D01*
X144730876Y-89265000D01*
X144583970Y-89250531D01*
X144583967Y-89250530D01*
X144583966Y-89250530D01*
X144395465Y-89193349D01*
X144395463Y-89193348D01*
X144221740Y-89100491D01*
X144069472Y-88975528D01*
X143944509Y-88823260D01*
X143851652Y-88649537D01*
X143816642Y-88534123D01*
X143794470Y-88461034D01*
X143794470Y-88461033D01*
X143794469Y-88461030D01*
X143775162Y-88265000D01*
X143794469Y-88068970D01*
X143794470Y-88068966D01*
X143851651Y-87880465D01*
X143944508Y-87706742D01*
X143944509Y-87706740D01*
X144069472Y-87554472D01*
X144221740Y-87429509D01*
X144395463Y-87336652D01*
X144395465Y-87336651D01*
X144583966Y-87279470D01*
X144583967Y-87279470D01*
X144583970Y-87279469D01*
X144730876Y-87265000D01*
X144829124Y-87265000D01*
X144976030Y-87279469D01*
X144976030Y-87279469D01*
G37*
G36*
X137335770Y-87280372D02*
X137451689Y-87303429D01*
X137633678Y-87378811D01*
X137797463Y-87488249D01*
X137936751Y-87627537D01*
X138046189Y-87791322D01*
X138121571Y-87973311D01*
X138144628Y-88089230D01*
X138160000Y-88166507D01*
X138160000Y-88363493D01*
X138144628Y-88440770D01*
X138121571Y-88556689D01*
X138046189Y-88738678D01*
X137936751Y-88902463D01*
X137797463Y-89041751D01*
X137633678Y-89151189D01*
X137451689Y-89226571D01*
X137335770Y-89249628D01*
X137258493Y-89265000D01*
X137061507Y-89265000D01*
X136984230Y-89249628D01*
X136868311Y-89226571D01*
X136686322Y-89151189D01*
X136522537Y-89041751D01*
X136383249Y-88902463D01*
X136273811Y-88738678D01*
X136198429Y-88556689D01*
X136175372Y-88440770D01*
X136160000Y-88363493D01*
X136160000Y-88166507D01*
X136175372Y-88089230D01*
X136198429Y-87973311D01*
X136273811Y-87791322D01*
X136383249Y-87627537D01*
X136522537Y-87488249D01*
X136686322Y-87378811D01*
X136868311Y-87303429D01*
X136984230Y-87280372D01*
X137061507Y-87265000D01*
X137258493Y-87265000D01*
X137335770Y-87280372D01*
X137335770Y-87280372D01*
G37*
G36*
X144955770Y-83470372D02*
X145071689Y-83493429D01*
X145253678Y-83568811D01*
X145417463Y-83678249D01*
X145556751Y-83817537D01*
X145666189Y-83981322D01*
X145741571Y-84163311D01*
X145780000Y-84356509D01*
X145780000Y-84553491D01*
X145741571Y-84746689D01*
X145666189Y-84928678D01*
X145556751Y-85092463D01*
X145417463Y-85231751D01*
X145253678Y-85341189D01*
X145071689Y-85416571D01*
X144955770Y-85439628D01*
X144878493Y-85455000D01*
X144681507Y-85455000D01*
X144604230Y-85439628D01*
X144488311Y-85416571D01*
X144306322Y-85341189D01*
X144142537Y-85231751D01*
X144003249Y-85092463D01*
X143893811Y-84928678D01*
X143818429Y-84746689D01*
X143780000Y-84553491D01*
X143780000Y-84356509D01*
X143818429Y-84163311D01*
X143893811Y-83981322D01*
X144003249Y-83817537D01*
X144142537Y-83678249D01*
X144306322Y-83568811D01*
X144488311Y-83493429D01*
X144604230Y-83470372D01*
X144681507Y-83455000D01*
X144878493Y-83455000D01*
X144955770Y-83470372D01*
X144955770Y-83470372D01*
G37*
G36*
X137356030Y-83469469D02*
X137356033Y-83469470D01*
X137356034Y-83469470D01*
X137544535Y-83526651D01*
X137544537Y-83526652D01*
X137718260Y-83619509D01*
X137870528Y-83744472D01*
X137995491Y-83896740D01*
X137995492Y-83896742D01*
X138088349Y-84070465D01*
X138145530Y-84258966D01*
X138145531Y-84258970D01*
X138164838Y-84455000D01*
X138145531Y-84651030D01*
X138088348Y-84839537D01*
X137995491Y-85013260D01*
X137870528Y-85165528D01*
X137718260Y-85290491D01*
X137718258Y-85290492D01*
X137544535Y-85383349D01*
X137356034Y-85440530D01*
X137356033Y-85440530D01*
X137356030Y-85440531D01*
X137209124Y-85455000D01*
X137110876Y-85455000D01*
X136963970Y-85440531D01*
X136963967Y-85440530D01*
X136963966Y-85440530D01*
X136775465Y-85383349D01*
X136601742Y-85290492D01*
X136601740Y-85290491D01*
X136449472Y-85165528D01*
X136324509Y-85013260D01*
X136231652Y-84839537D01*
X136174469Y-84651030D01*
X136155162Y-84455000D01*
X136174469Y-84258970D01*
X136174470Y-84258966D01*
X136231651Y-84070465D01*
X136324508Y-83896742D01*
X136324509Y-83896740D01*
X136449472Y-83744472D01*
X136601740Y-83619509D01*
X136775463Y-83526652D01*
X136775465Y-83526651D01*
X136963966Y-83469470D01*
X136963967Y-83469470D01*
X136963970Y-83469469D01*
X137110876Y-83455000D01*
X137209124Y-83455000D01*
X137356030Y-83469469D01*
X137356030Y-83469469D01*
G37*
G36*
X148511770Y-82327372D02*
X148627689Y-82350429D01*
X148809678Y-82425811D01*
X148973463Y-82535249D01*
X149112751Y-82674537D01*
X149222189Y-82838322D01*
X149297571Y-83020311D01*
X149320628Y-83136230D01*
X149336000Y-83213507D01*
X149336000Y-83410493D01*
X149320628Y-83487770D01*
X149297571Y-83603689D01*
X149222189Y-83785678D01*
X149112751Y-83949463D01*
X148973463Y-84088751D01*
X148809678Y-84198189D01*
X148627689Y-84273571D01*
X148511770Y-84296628D01*
X148434493Y-84312000D01*
X148237507Y-84312000D01*
X148160230Y-84296628D01*
X148044311Y-84273571D01*
X147862322Y-84198189D01*
X147698537Y-84088751D01*
X147559249Y-83949463D01*
X147449811Y-83785678D01*
X147374429Y-83603689D01*
X147351372Y-83487770D01*
X147336000Y-83410493D01*
X147336000Y-83213507D01*
X147351372Y-83136230D01*
X147374429Y-83020311D01*
X147449811Y-82838322D01*
X147559249Y-82674537D01*
X147698537Y-82535249D01*
X147862322Y-82425811D01*
X148044311Y-82350429D01*
X148160230Y-82327372D01*
X148237507Y-82312000D01*
X148434493Y-82312000D01*
X148511770Y-82327372D01*
X148511770Y-82327372D01*
G37*
G36*
X157768000Y-83600000D02*
X155668000Y-83600000D01*
X155668000Y-81500000D01*
X157768000Y-81500000D01*
X157768000Y-83600000D01*
X157768000Y-83600000D01*
G37*
G36*
X148511770Y-79827372D02*
X148627689Y-79850429D01*
X148809678Y-79925811D01*
X148973463Y-80035249D01*
X149112751Y-80174537D01*
X149222189Y-80338322D01*
X149297571Y-80520311D01*
X149336000Y-80713509D01*
X149336000Y-80910491D01*
X149297571Y-81103689D01*
X149222189Y-81285678D01*
X149112751Y-81449463D01*
X148973463Y-81588751D01*
X148809678Y-81698189D01*
X148627689Y-81773571D01*
X148511770Y-81796628D01*
X148434493Y-81812000D01*
X148237507Y-81812000D01*
X148160230Y-81796628D01*
X148044311Y-81773571D01*
X147862322Y-81698189D01*
X147698537Y-81588751D01*
X147559249Y-81449463D01*
X147449811Y-81285678D01*
X147374429Y-81103689D01*
X147336000Y-80910491D01*
X147336000Y-80713509D01*
X147374429Y-80520311D01*
X147449811Y-80338322D01*
X147559249Y-80174537D01*
X147698537Y-80035249D01*
X147862322Y-79925811D01*
X148044311Y-79850429D01*
X148160230Y-79827372D01*
X148237507Y-79812000D01*
X148434493Y-79812000D01*
X148511770Y-79827372D01*
X148511770Y-79827372D01*
G37*
G36*
X145780000Y-81772000D02*
X143780000Y-81772000D01*
X143780000Y-79772000D01*
X145780000Y-79772000D01*
X145780000Y-81772000D01*
X145780000Y-81772000D01*
G37*
G36*
X137356030Y-79786469D02*
X137356033Y-79786470D01*
X137356034Y-79786470D01*
X137544535Y-79843651D01*
X137544537Y-79843652D01*
X137718260Y-79936509D01*
X137870528Y-80061472D01*
X137995491Y-80213740D01*
X138088348Y-80387463D01*
X138145531Y-80575970D01*
X138164838Y-80772000D01*
X138145531Y-80968030D01*
X138145530Y-80968033D01*
X138145530Y-80968034D01*
X138104380Y-81103689D01*
X138088348Y-81156537D01*
X137995491Y-81330260D01*
X137870528Y-81482528D01*
X137718260Y-81607491D01*
X137718258Y-81607492D01*
X137544535Y-81700349D01*
X137356034Y-81757530D01*
X137356033Y-81757530D01*
X137356030Y-81757531D01*
X137209124Y-81772000D01*
X137110876Y-81772000D01*
X136963970Y-81757531D01*
X136963967Y-81757530D01*
X136963966Y-81757530D01*
X136775465Y-81700349D01*
X136601742Y-81607492D01*
X136601740Y-81607491D01*
X136449472Y-81482528D01*
X136324509Y-81330260D01*
X136231652Y-81156537D01*
X136215621Y-81103689D01*
X136174470Y-80968034D01*
X136174470Y-80968033D01*
X136174469Y-80968030D01*
X136155162Y-80772000D01*
X136174469Y-80575970D01*
X136231652Y-80387463D01*
X136324509Y-80213740D01*
X136449472Y-80061472D01*
X136601740Y-79936509D01*
X136775463Y-79843652D01*
X136775465Y-79843651D01*
X136963966Y-79786470D01*
X136963967Y-79786470D01*
X136963970Y-79786469D01*
X137110876Y-79772000D01*
X137209124Y-79772000D01*
X137356030Y-79786469D01*
X137356030Y-79786469D01*
G37*
G36*
X156846707Y-78967597D02*
X156923836Y-78975193D01*
X157055787Y-79015220D01*
X157121763Y-79035233D01*
X157304172Y-79132733D01*
X157464054Y-79263946D01*
X157595267Y-79423828D01*
X157692767Y-79606237D01*
X157692767Y-79606238D01*
X157752807Y-79804164D01*
X157773080Y-80010000D01*
X157752807Y-80215836D01*
X157715651Y-80338322D01*
X157692767Y-80413763D01*
X157595267Y-80596172D01*
X157464054Y-80756054D01*
X157304172Y-80887267D01*
X157121763Y-80984767D01*
X157055787Y-81004780D01*
X156923836Y-81044807D01*
X156846707Y-81052404D01*
X156769580Y-81060000D01*
X156666420Y-81060000D01*
X156589293Y-81052404D01*
X156512164Y-81044807D01*
X156380213Y-81004780D01*
X156314237Y-80984767D01*
X156131828Y-80887267D01*
X155971946Y-80756054D01*
X155840733Y-80596172D01*
X155743233Y-80413763D01*
X155720349Y-80338322D01*
X155683193Y-80215836D01*
X155662920Y-80010000D01*
X155683193Y-79804164D01*
X155743233Y-79606238D01*
X155743233Y-79606237D01*
X155840733Y-79423828D01*
X155971946Y-79263946D01*
X156131828Y-79132733D01*
X156314237Y-79035233D01*
X156380213Y-79015220D01*
X156512164Y-78975193D01*
X156589293Y-78967597D01*
X156666420Y-78960000D01*
X156769580Y-78960000D01*
X156846707Y-78967597D01*
X156846707Y-78967597D01*
G37*
M02*
