M48
;DRILL file {KiCad (2017-12-21 revision 23d71cfa9)-makepkg} date 06/03/18 17:48:41
;FORMAT={-:-/ absolute / inch / decimal}
FMAT,2
INCH,TZ
T1C0.0315
T2C0.0433
%
G90
G05
M72
T1
X5.5Y-3.85
X5.8Y-3.85
X6.1Y-3.15
X5.5Y-3.15
X5.8Y-3.15
X5.5Y-3.7
X5.8Y-3.7
X5.5Y-4.8
X5.8Y-4.8
X5.4Y-4.
X5.4Y-4.3
X6.Y-4.5
X6.Y-4.8
X5.5Y-3.55
X5.8Y-3.55
X5.5Y-4.65
X5.8Y-4.65
X6.1Y-3.45
X5.5Y-3.35
X5.8Y-3.35
T2
X5.55Y-4.05
X5.85Y-4.05
X6.Y-4.05
X6.Y-4.35
X5.55Y-4.25
X5.85Y-4.25
X5.95Y-3.15
X5.95Y-3.45
X5.5Y-4.45
X5.8Y-4.45
X6.Y-3.6
X6.Y-3.9
T0
M30
