G04 #@! TF.GenerationSoftware,KiCad,Pcbnew,(2017-12-21 revision 23d71cfa9)-makepkg*
G04 #@! TF.CreationDate,2018-06-03T16:50:17-04:00*
G04 #@! TF.ProjectId,OdysseyDaughterCardGateMatrix,4F647973736579446175676874657243,0.1*
G04 #@! TF.SameCoordinates,Original*
G04 #@! TF.FileFunction,Soldermask,Bot*
G04 #@! TF.FilePolarity,Negative*
%FSLAX46Y46*%
G04 Gerber Fmt 4.6, Leading zero omitted, Abs format (unit mm)*
G04 Created by KiCad (PCBNEW (2017-12-21 revision 23d71cfa9)-makepkg) date 06/03/18 16:50:17*
%MOMM*%
%LPD*%
G01*
G04 APERTURE LIST*
%ADD10R,11.400000X3.650000*%
%ADD11R,2.600000X2.600000*%
%ADD12O,2.600000X2.600000*%
%ADD13R,2.000000X2.000000*%
%ADD14O,2.000000X2.000000*%
%ADD15C,2.000000*%
G04 APERTURE END LIST*
D10*
X129000000Y-81250000D03*
X129000000Y-85638888D03*
X129000000Y-90027776D03*
X129000000Y-94416664D03*
X129000000Y-98805552D03*
X129000000Y-103194440D03*
X129000000Y-107583328D03*
X129000000Y-111972216D03*
X129000000Y-116361104D03*
X129000000Y-120749992D03*
D11*
X147320000Y-113030000D03*
D12*
X139700000Y-113030000D03*
X151130000Y-87630000D03*
D11*
X151130000Y-80010000D03*
D13*
X152400000Y-121920000D03*
D14*
X152400000Y-114300000D03*
X154940000Y-87630000D03*
D13*
X154940000Y-80010000D03*
D11*
X140970000Y-107950000D03*
D12*
X148590000Y-107950000D03*
D11*
X152400000Y-99060000D03*
D12*
X152400000Y-91440000D03*
X152400000Y-110490000D03*
D11*
X152400000Y-102870000D03*
D13*
X139700000Y-90170000D03*
D14*
X147320000Y-90170000D03*
D12*
X148590000Y-102870000D03*
D11*
X140970000Y-102870000D03*
D14*
X139700000Y-121920000D03*
D15*
X147320000Y-121920000D03*
X147320000Y-85090000D03*
D14*
X139700000Y-85090000D03*
X139700000Y-118110000D03*
D15*
X147320000Y-118110000D03*
D14*
X139700000Y-80010000D03*
D15*
X147320000Y-80010000D03*
X139700000Y-97790000D03*
D14*
X147320000Y-97790000D03*
D15*
X147320000Y-93980000D03*
D14*
X139700000Y-93980000D03*
X137160000Y-109220000D03*
D15*
X137160000Y-101600000D03*
M02*
