G04 #@! TF.GenerationSoftware,KiCad,Pcbnew,(5.0.0)*
G04 #@! TF.CreationDate,2020-05-22T14:28:52-04:00*
G04 #@! TF.ProjectId,OdysseyDaughterCardSummer,4F647973736579446175676874657243,1.1*
G04 #@! TF.SameCoordinates,Original*
G04 #@! TF.FileFunction,Soldermask,Top*
G04 #@! TF.FilePolarity,Negative*
%FSLAX46Y46*%
G04 Gerber Fmt 4.6, Leading zero omitted, Abs format (unit mm)*
G04 Created by KiCad (PCBNEW (5.0.0)) date 05/22/20 14:28:52*
%MOMM*%
%LPD*%
G01*
G04 APERTURE LIST*
%ADD10C,0.100000*%
G04 APERTURE END LIST*
D10*
G36*
X145272000Y-121904000D02*
X143272000Y-121904000D01*
X143272000Y-119904000D01*
X145272000Y-119904000D01*
X145272000Y-121904000D01*
X145272000Y-121904000D01*
G37*
G36*
X136848030Y-119918469D02*
X136848033Y-119918470D01*
X136848034Y-119918470D01*
X137036535Y-119975651D01*
X137036537Y-119975652D01*
X137210260Y-120068509D01*
X137362528Y-120193472D01*
X137487491Y-120345740D01*
X137487492Y-120345742D01*
X137580349Y-120519465D01*
X137637530Y-120707966D01*
X137637531Y-120707970D01*
X137656838Y-120904000D01*
X137637531Y-121100030D01*
X137637530Y-121100033D01*
X137637530Y-121100034D01*
X137595056Y-121240054D01*
X137580348Y-121288537D01*
X137487491Y-121462260D01*
X137362528Y-121614528D01*
X137210260Y-121739491D01*
X137210258Y-121739492D01*
X137036535Y-121832349D01*
X136848034Y-121889530D01*
X136848033Y-121889530D01*
X136848030Y-121889531D01*
X136701124Y-121904000D01*
X136602876Y-121904000D01*
X136455970Y-121889531D01*
X136455967Y-121889530D01*
X136455966Y-121889530D01*
X136267465Y-121832349D01*
X136093742Y-121739492D01*
X136093740Y-121739491D01*
X135941472Y-121614528D01*
X135816509Y-121462260D01*
X135723652Y-121288537D01*
X135708945Y-121240054D01*
X135666470Y-121100034D01*
X135666470Y-121100033D01*
X135666469Y-121100030D01*
X135647162Y-120904000D01*
X135666469Y-120707970D01*
X135666470Y-120707966D01*
X135723651Y-120519465D01*
X135816508Y-120345742D01*
X135816509Y-120345740D01*
X135941472Y-120193472D01*
X136093740Y-120068509D01*
X136267463Y-119975652D01*
X136267465Y-119975651D01*
X136455966Y-119918470D01*
X136455967Y-119918470D01*
X136455970Y-119918469D01*
X136602876Y-119904000D01*
X136701124Y-119904000D01*
X136848030Y-119918469D01*
X136848030Y-119918469D01*
G37*
G36*
X149294030Y-119818469D02*
X149294033Y-119818470D01*
X149294034Y-119818470D01*
X149482535Y-119875651D01*
X149482537Y-119875652D01*
X149656260Y-119968509D01*
X149808528Y-120093472D01*
X149933491Y-120245740D01*
X149933492Y-120245742D01*
X150026349Y-120419465D01*
X150083530Y-120607966D01*
X150083531Y-120607970D01*
X150102838Y-120804000D01*
X150083531Y-121000030D01*
X150083530Y-121000033D01*
X150083530Y-121000034D01*
X150053197Y-121100030D01*
X150026348Y-121188537D01*
X149933491Y-121362260D01*
X149808528Y-121514528D01*
X149656260Y-121639491D01*
X149656258Y-121639492D01*
X149482535Y-121732349D01*
X149294034Y-121789530D01*
X149294033Y-121789530D01*
X149294030Y-121789531D01*
X149147124Y-121804000D01*
X149048876Y-121804000D01*
X148901970Y-121789531D01*
X148901967Y-121789530D01*
X148901966Y-121789530D01*
X148713465Y-121732349D01*
X148539742Y-121639492D01*
X148539740Y-121639491D01*
X148387472Y-121514528D01*
X148262509Y-121362260D01*
X148169652Y-121188537D01*
X148142804Y-121100030D01*
X148112470Y-121000034D01*
X148112470Y-121000033D01*
X148112469Y-121000030D01*
X148093162Y-120804000D01*
X148112469Y-120607970D01*
X148112470Y-120607966D01*
X148169651Y-120419465D01*
X148262508Y-120245742D01*
X148262509Y-120245740D01*
X148387472Y-120093472D01*
X148539740Y-119968509D01*
X148713463Y-119875652D01*
X148713465Y-119875651D01*
X148901966Y-119818470D01*
X148901967Y-119818470D01*
X148901970Y-119818469D01*
X149048876Y-119804000D01*
X149147124Y-119804000D01*
X149294030Y-119818469D01*
X149294030Y-119818469D01*
G37*
G36*
X156893770Y-119819372D02*
X157009689Y-119842429D01*
X157191678Y-119917811D01*
X157355463Y-120027249D01*
X157494751Y-120166537D01*
X157604189Y-120330322D01*
X157679571Y-120512311D01*
X157702628Y-120628230D01*
X157716872Y-120699834D01*
X157718000Y-120705509D01*
X157718000Y-120902491D01*
X157679571Y-121095689D01*
X157604189Y-121277678D01*
X157494751Y-121441463D01*
X157355463Y-121580751D01*
X157191678Y-121690189D01*
X157009689Y-121765571D01*
X156893770Y-121788628D01*
X156816493Y-121804000D01*
X156619507Y-121804000D01*
X156542230Y-121788628D01*
X156426311Y-121765571D01*
X156244322Y-121690189D01*
X156080537Y-121580751D01*
X155941249Y-121441463D01*
X155831811Y-121277678D01*
X155756429Y-121095689D01*
X155718000Y-120902491D01*
X155718000Y-120705509D01*
X155719129Y-120699834D01*
X155733372Y-120628230D01*
X155756429Y-120512311D01*
X155831811Y-120330322D01*
X155941249Y-120166537D01*
X156080537Y-120027249D01*
X156244322Y-119917811D01*
X156426311Y-119842429D01*
X156542230Y-119819372D01*
X156619507Y-119804000D01*
X156816493Y-119804000D01*
X156893770Y-119819372D01*
X156893770Y-119819372D01*
G37*
G36*
X165736707Y-119451597D02*
X165813836Y-119459193D01*
X165945787Y-119499220D01*
X166011763Y-119519233D01*
X166194172Y-119616733D01*
X166354054Y-119747946D01*
X166485267Y-119907828D01*
X166582767Y-120090237D01*
X166582767Y-120090238D01*
X166642807Y-120288164D01*
X166663080Y-120494000D01*
X166642807Y-120699836D01*
X166611209Y-120804000D01*
X166582767Y-120897763D01*
X166485267Y-121080172D01*
X166354054Y-121240054D01*
X166194172Y-121371267D01*
X166011763Y-121468767D01*
X165945787Y-121488780D01*
X165813836Y-121528807D01*
X165736707Y-121536403D01*
X165659580Y-121544000D01*
X165556420Y-121544000D01*
X165479293Y-121536403D01*
X165402164Y-121528807D01*
X165270213Y-121488780D01*
X165204237Y-121468767D01*
X165021828Y-121371267D01*
X164861946Y-121240054D01*
X164730733Y-121080172D01*
X164633233Y-120897763D01*
X164604791Y-120804000D01*
X164573193Y-120699836D01*
X164552920Y-120494000D01*
X164573193Y-120288164D01*
X164633233Y-120090238D01*
X164633233Y-120090237D01*
X164730733Y-119907828D01*
X164861946Y-119747946D01*
X165021828Y-119616733D01*
X165204237Y-119519233D01*
X165270213Y-119499220D01*
X165402164Y-119459193D01*
X165479293Y-119451597D01*
X165556420Y-119444000D01*
X165659580Y-119444000D01*
X165736707Y-119451597D01*
X165736707Y-119451597D01*
G37*
G36*
X166658000Y-119004000D02*
X164558000Y-119004000D01*
X164558000Y-116904000D01*
X166658000Y-116904000D01*
X166658000Y-119004000D01*
X166658000Y-119004000D01*
G37*
G36*
X136721030Y-115219469D02*
X136721033Y-115219470D01*
X136721034Y-115219470D01*
X136909535Y-115276651D01*
X136909537Y-115276652D01*
X137083260Y-115369509D01*
X137235528Y-115494472D01*
X137360491Y-115646740D01*
X137360492Y-115646742D01*
X137453349Y-115820465D01*
X137510530Y-116008966D01*
X137510531Y-116008970D01*
X137529838Y-116205000D01*
X137510531Y-116401030D01*
X137510530Y-116401033D01*
X137510530Y-116401034D01*
X137483684Y-116489535D01*
X137453348Y-116589537D01*
X137360491Y-116763260D01*
X137235528Y-116915528D01*
X137083260Y-117040491D01*
X137083258Y-117040492D01*
X136909535Y-117133349D01*
X136721034Y-117190530D01*
X136721033Y-117190530D01*
X136721030Y-117190531D01*
X136574124Y-117205000D01*
X136475876Y-117205000D01*
X136328970Y-117190531D01*
X136328967Y-117190530D01*
X136328966Y-117190530D01*
X136140465Y-117133349D01*
X135966742Y-117040492D01*
X135966740Y-117040491D01*
X135814472Y-116915528D01*
X135689509Y-116763260D01*
X135596652Y-116589537D01*
X135566317Y-116489535D01*
X135539470Y-116401034D01*
X135539470Y-116401033D01*
X135539469Y-116401030D01*
X135520162Y-116205000D01*
X135539469Y-116008970D01*
X135539470Y-116008966D01*
X135596651Y-115820465D01*
X135689508Y-115646742D01*
X135689509Y-115646740D01*
X135814472Y-115494472D01*
X135966740Y-115369509D01*
X136140463Y-115276652D01*
X136140465Y-115276651D01*
X136328966Y-115219470D01*
X136328967Y-115219470D01*
X136328970Y-115219469D01*
X136475876Y-115205000D01*
X136574124Y-115205000D01*
X136721030Y-115219469D01*
X136721030Y-115219469D01*
G37*
G36*
X145145000Y-117205000D02*
X143145000Y-117205000D01*
X143145000Y-115205000D01*
X145145000Y-115205000D01*
X145145000Y-117205000D01*
X145145000Y-117205000D01*
G37*
G36*
X156893770Y-115120372D02*
X157009689Y-115143429D01*
X157191678Y-115218811D01*
X157355463Y-115328249D01*
X157494751Y-115467537D01*
X157604189Y-115631322D01*
X157679571Y-115813311D01*
X157718000Y-116006509D01*
X157718000Y-116203491D01*
X157679571Y-116396689D01*
X157604189Y-116578678D01*
X157494751Y-116742463D01*
X157355463Y-116881751D01*
X157191678Y-116991189D01*
X157009689Y-117066571D01*
X156893770Y-117089628D01*
X156816493Y-117105000D01*
X156619507Y-117105000D01*
X156542230Y-117089628D01*
X156426311Y-117066571D01*
X156244322Y-116991189D01*
X156080537Y-116881751D01*
X155941249Y-116742463D01*
X155831811Y-116578678D01*
X155756429Y-116396689D01*
X155718000Y-116203491D01*
X155718000Y-116006509D01*
X155756429Y-115813311D01*
X155831811Y-115631322D01*
X155941249Y-115467537D01*
X156080537Y-115328249D01*
X156244322Y-115218811D01*
X156426311Y-115143429D01*
X156542230Y-115120372D01*
X156619507Y-115105000D01*
X156816493Y-115105000D01*
X156893770Y-115120372D01*
X156893770Y-115120372D01*
G37*
G36*
X149294030Y-115119469D02*
X149294033Y-115119470D01*
X149294034Y-115119470D01*
X149482535Y-115176651D01*
X149482537Y-115176652D01*
X149656260Y-115269509D01*
X149808528Y-115394472D01*
X149933491Y-115546740D01*
X149933492Y-115546742D01*
X150026349Y-115720465D01*
X150083530Y-115908966D01*
X150083531Y-115908970D01*
X150102838Y-116105000D01*
X150083531Y-116301030D01*
X150083530Y-116301033D01*
X150083530Y-116301034D01*
X150053197Y-116401030D01*
X150026348Y-116489537D01*
X149933491Y-116663260D01*
X149808528Y-116815528D01*
X149656260Y-116940491D01*
X149656258Y-116940492D01*
X149482535Y-117033349D01*
X149294034Y-117090530D01*
X149294033Y-117090530D01*
X149294030Y-117090531D01*
X149147124Y-117105000D01*
X149048876Y-117105000D01*
X148901970Y-117090531D01*
X148901967Y-117090530D01*
X148901966Y-117090530D01*
X148713465Y-117033349D01*
X148539742Y-116940492D01*
X148539740Y-116940491D01*
X148387472Y-116815528D01*
X148262509Y-116663260D01*
X148169652Y-116489537D01*
X148142804Y-116401030D01*
X148112470Y-116301034D01*
X148112470Y-116301033D01*
X148112469Y-116301030D01*
X148093162Y-116105000D01*
X148112469Y-115908970D01*
X148112470Y-115908966D01*
X148169651Y-115720465D01*
X148262508Y-115546742D01*
X148262509Y-115546740D01*
X148387472Y-115394472D01*
X148539740Y-115269509D01*
X148713463Y-115176652D01*
X148713465Y-115176651D01*
X148901966Y-115119470D01*
X148901967Y-115119470D01*
X148901970Y-115119469D01*
X149048876Y-115105000D01*
X149147124Y-115105000D01*
X149294030Y-115119469D01*
X149294030Y-115119469D01*
G37*
G36*
X165783770Y-112045372D02*
X165899689Y-112068429D01*
X166081678Y-112143811D01*
X166245463Y-112253249D01*
X166384751Y-112392537D01*
X166494189Y-112556322D01*
X166569571Y-112738311D01*
X166577017Y-112775747D01*
X166607173Y-112927348D01*
X166608000Y-112931509D01*
X166608000Y-113128491D01*
X166569571Y-113321689D01*
X166494189Y-113503678D01*
X166384751Y-113667463D01*
X166245463Y-113806751D01*
X166081678Y-113916189D01*
X165899689Y-113991571D01*
X165783770Y-114014628D01*
X165706493Y-114030000D01*
X165509507Y-114030000D01*
X165432230Y-114014628D01*
X165316311Y-113991571D01*
X165134322Y-113916189D01*
X164970537Y-113806751D01*
X164831249Y-113667463D01*
X164721811Y-113503678D01*
X164646429Y-113321689D01*
X164608000Y-113128491D01*
X164608000Y-112931509D01*
X164608828Y-112927348D01*
X164638983Y-112775747D01*
X164646429Y-112738311D01*
X164721811Y-112556322D01*
X164831249Y-112392537D01*
X164970537Y-112253249D01*
X165134322Y-112143811D01*
X165316311Y-112068429D01*
X165432230Y-112045372D01*
X165509507Y-112030000D01*
X165706493Y-112030000D01*
X165783770Y-112045372D01*
X165783770Y-112045372D01*
G37*
G36*
X136848030Y-111113469D02*
X136848033Y-111113470D01*
X136848034Y-111113470D01*
X137036535Y-111170651D01*
X137036537Y-111170652D01*
X137210260Y-111263509D01*
X137362528Y-111388472D01*
X137487491Y-111540740D01*
X137487492Y-111540742D01*
X137580349Y-111714465D01*
X137637530Y-111902966D01*
X137637531Y-111902970D01*
X137656838Y-112099000D01*
X137637531Y-112295030D01*
X137637530Y-112295033D01*
X137637530Y-112295034D01*
X137607954Y-112392534D01*
X137580348Y-112483537D01*
X137487491Y-112657260D01*
X137362528Y-112809528D01*
X137210260Y-112934491D01*
X137210258Y-112934492D01*
X137036535Y-113027349D01*
X136848034Y-113084530D01*
X136848033Y-113084530D01*
X136848030Y-113084531D01*
X136701124Y-113099000D01*
X136602876Y-113099000D01*
X136455970Y-113084531D01*
X136455967Y-113084530D01*
X136455966Y-113084530D01*
X136267465Y-113027349D01*
X136093742Y-112934492D01*
X136093740Y-112934491D01*
X135941472Y-112809528D01*
X135816509Y-112657260D01*
X135723652Y-112483537D01*
X135696047Y-112392534D01*
X135666470Y-112295034D01*
X135666470Y-112295033D01*
X135666469Y-112295030D01*
X135647162Y-112099000D01*
X135666469Y-111902970D01*
X135666470Y-111902966D01*
X135723651Y-111714465D01*
X135816508Y-111540742D01*
X135816509Y-111540740D01*
X135941472Y-111388472D01*
X136093740Y-111263509D01*
X136267463Y-111170652D01*
X136267465Y-111170651D01*
X136455966Y-111113470D01*
X136455967Y-111113470D01*
X136455970Y-111113469D01*
X136602876Y-111099000D01*
X136701124Y-111099000D01*
X136848030Y-111113469D01*
X136848030Y-111113469D01*
G37*
G36*
X145272000Y-113099000D02*
X143272000Y-113099000D01*
X143272000Y-111099000D01*
X145272000Y-111099000D01*
X145272000Y-113099000D01*
X145272000Y-113099000D01*
G37*
G36*
X156893770Y-111014372D02*
X157009689Y-111037429D01*
X157191678Y-111112811D01*
X157355463Y-111222249D01*
X157494751Y-111361537D01*
X157604189Y-111525322D01*
X157679571Y-111707311D01*
X157702628Y-111823230D01*
X157718000Y-111900507D01*
X157718000Y-112097493D01*
X157702628Y-112174770D01*
X157679571Y-112290689D01*
X157604189Y-112472678D01*
X157494751Y-112636463D01*
X157355463Y-112775751D01*
X157191678Y-112885189D01*
X157009689Y-112960571D01*
X156893770Y-112983628D01*
X156816493Y-112999000D01*
X156619507Y-112999000D01*
X156542230Y-112983628D01*
X156426311Y-112960571D01*
X156244322Y-112885189D01*
X156080537Y-112775751D01*
X155941249Y-112636463D01*
X155831811Y-112472678D01*
X155756429Y-112290689D01*
X155733372Y-112174770D01*
X155718000Y-112097493D01*
X155718000Y-111900507D01*
X155733372Y-111823230D01*
X155756429Y-111707311D01*
X155831811Y-111525322D01*
X155941249Y-111361537D01*
X156080537Y-111222249D01*
X156244322Y-111112811D01*
X156426311Y-111037429D01*
X156542230Y-111014372D01*
X156619507Y-110999000D01*
X156816493Y-110999000D01*
X156893770Y-111014372D01*
X156893770Y-111014372D01*
G37*
G36*
X149294030Y-111013469D02*
X149294033Y-111013470D01*
X149294034Y-111013470D01*
X149482535Y-111070651D01*
X149482537Y-111070652D01*
X149656260Y-111163509D01*
X149808528Y-111288472D01*
X149933491Y-111440740D01*
X149933492Y-111440742D01*
X150026349Y-111614465D01*
X150083530Y-111802966D01*
X150083531Y-111802970D01*
X150102838Y-111999000D01*
X150083531Y-112195030D01*
X150083530Y-112195033D01*
X150083530Y-112195034D01*
X150053197Y-112295030D01*
X150026348Y-112383537D01*
X149933491Y-112557260D01*
X149808528Y-112709528D01*
X149656260Y-112834491D01*
X149656258Y-112834492D01*
X149482535Y-112927349D01*
X149294034Y-112984530D01*
X149294033Y-112984530D01*
X149294030Y-112984531D01*
X149147124Y-112999000D01*
X149048876Y-112999000D01*
X148901970Y-112984531D01*
X148901967Y-112984530D01*
X148901966Y-112984530D01*
X148713465Y-112927349D01*
X148539742Y-112834492D01*
X148539740Y-112834491D01*
X148387472Y-112709528D01*
X148262509Y-112557260D01*
X148169652Y-112383537D01*
X148142804Y-112295030D01*
X148112470Y-112195034D01*
X148112470Y-112195033D01*
X148112469Y-112195030D01*
X148093162Y-111999000D01*
X148112469Y-111802970D01*
X148112470Y-111802966D01*
X148169651Y-111614465D01*
X148262508Y-111440742D01*
X148262509Y-111440740D01*
X148387472Y-111288472D01*
X148539740Y-111163509D01*
X148713463Y-111070652D01*
X148713465Y-111070651D01*
X148901966Y-111013470D01*
X148901967Y-111013470D01*
X148901970Y-111013469D01*
X149048876Y-110999000D01*
X149147124Y-110999000D01*
X149294030Y-111013469D01*
X149294030Y-111013469D01*
G37*
G36*
X159708030Y-107726469D02*
X159708033Y-107726470D01*
X159708034Y-107726470D01*
X159896535Y-107783651D01*
X159896537Y-107783652D01*
X160070260Y-107876509D01*
X160222528Y-108001472D01*
X160347491Y-108153740D01*
X160440348Y-108327463D01*
X160497531Y-108515970D01*
X160516838Y-108712000D01*
X160497531Y-108908030D01*
X160440348Y-109096537D01*
X160347491Y-109270260D01*
X160222528Y-109422528D01*
X160070260Y-109547491D01*
X160070258Y-109547492D01*
X159896535Y-109640349D01*
X159708034Y-109697530D01*
X159708033Y-109697530D01*
X159708030Y-109697531D01*
X159561124Y-109712000D01*
X159462876Y-109712000D01*
X159315970Y-109697531D01*
X159315967Y-109697530D01*
X159315966Y-109697530D01*
X159127465Y-109640349D01*
X158953742Y-109547492D01*
X158953740Y-109547491D01*
X158801472Y-109422528D01*
X158676509Y-109270260D01*
X158583652Y-109096537D01*
X158526469Y-108908030D01*
X158507162Y-108712000D01*
X158526469Y-108515970D01*
X158583652Y-108327463D01*
X158676509Y-108153740D01*
X158801472Y-108001472D01*
X158953740Y-107876509D01*
X159127463Y-107783652D01*
X159127465Y-107783651D01*
X159315966Y-107726470D01*
X159315967Y-107726470D01*
X159315970Y-107726469D01*
X159462876Y-107712000D01*
X159561124Y-107712000D01*
X159708030Y-107726469D01*
X159708030Y-107726469D01*
G37*
G36*
X151249000Y-109339000D02*
X150249000Y-109339000D01*
X150249000Y-107389000D01*
X151249000Y-107389000D01*
X151249000Y-109339000D01*
X151249000Y-109339000D01*
G37*
G36*
X152519000Y-109339000D02*
X151519000Y-109339000D01*
X151519000Y-107389000D01*
X152519000Y-107389000D01*
X152519000Y-109339000D01*
X152519000Y-109339000D01*
G37*
G36*
X153789000Y-109339000D02*
X152789000Y-109339000D01*
X152789000Y-107389000D01*
X153789000Y-107389000D01*
X153789000Y-109339000D01*
X153789000Y-109339000D01*
G37*
G36*
X155059000Y-109339000D02*
X154059000Y-109339000D01*
X154059000Y-107389000D01*
X155059000Y-107389000D01*
X155059000Y-109339000D01*
X155059000Y-109339000D01*
G37*
G36*
X148003770Y-105949372D02*
X148119689Y-105972429D01*
X148301678Y-106047811D01*
X148465463Y-106157249D01*
X148604751Y-106296537D01*
X148714189Y-106460322D01*
X148789571Y-106642311D01*
X148828000Y-106835509D01*
X148828000Y-107032491D01*
X148789571Y-107225689D01*
X148714189Y-107407678D01*
X148604751Y-107571463D01*
X148465463Y-107710751D01*
X148301678Y-107820189D01*
X148119689Y-107895571D01*
X148003770Y-107918628D01*
X147926493Y-107934000D01*
X147729507Y-107934000D01*
X147652230Y-107918628D01*
X147536311Y-107895571D01*
X147354322Y-107820189D01*
X147190537Y-107710751D01*
X147051249Y-107571463D01*
X146941811Y-107407678D01*
X146866429Y-107225689D01*
X146828000Y-107032491D01*
X146828000Y-106835509D01*
X146866429Y-106642311D01*
X146941811Y-106460322D01*
X147051249Y-106296537D01*
X147190537Y-106157249D01*
X147354322Y-106047811D01*
X147536311Y-105972429D01*
X147652230Y-105949372D01*
X147729507Y-105934000D01*
X147926493Y-105934000D01*
X148003770Y-105949372D01*
X148003770Y-105949372D01*
G37*
G36*
X137525000Y-107680000D02*
X135525000Y-107680000D01*
X135525000Y-105680000D01*
X137525000Y-105680000D01*
X137525000Y-107680000D01*
X137525000Y-107680000D01*
G37*
G36*
X144341030Y-105694469D02*
X144341033Y-105694470D01*
X144341034Y-105694470D01*
X144529535Y-105751651D01*
X144529537Y-105751652D01*
X144703260Y-105844509D01*
X144855528Y-105969472D01*
X144980491Y-106121740D01*
X144980492Y-106121742D01*
X145073349Y-106295465D01*
X145130530Y-106483966D01*
X145130531Y-106483970D01*
X145149838Y-106680000D01*
X145130531Y-106876030D01*
X145130530Y-106876033D01*
X145130530Y-106876034D01*
X145083069Y-107032493D01*
X145073348Y-107064537D01*
X144980491Y-107238260D01*
X144855528Y-107390528D01*
X144703260Y-107515491D01*
X144703258Y-107515492D01*
X144529535Y-107608349D01*
X144341034Y-107665530D01*
X144341033Y-107665530D01*
X144341030Y-107665531D01*
X144194124Y-107680000D01*
X144095876Y-107680000D01*
X143948970Y-107665531D01*
X143948967Y-107665530D01*
X143948966Y-107665530D01*
X143760465Y-107608349D01*
X143586742Y-107515492D01*
X143586740Y-107515491D01*
X143434472Y-107390528D01*
X143309509Y-107238260D01*
X143216652Y-107064537D01*
X143206932Y-107032493D01*
X143159470Y-106876034D01*
X143159470Y-106876033D01*
X143159469Y-106876030D01*
X143140162Y-106680000D01*
X143159469Y-106483970D01*
X143159470Y-106483966D01*
X143216651Y-106295465D01*
X143309508Y-106121742D01*
X143309509Y-106121740D01*
X143434472Y-105969472D01*
X143586740Y-105844509D01*
X143760463Y-105751652D01*
X143760465Y-105751651D01*
X143948966Y-105694470D01*
X143948967Y-105694470D01*
X143948970Y-105694469D01*
X144095876Y-105680000D01*
X144194124Y-105680000D01*
X144341030Y-105694469D01*
X144341030Y-105694469D01*
G37*
G36*
X165804030Y-104424469D02*
X165804033Y-104424470D01*
X165804034Y-104424470D01*
X165992535Y-104481651D01*
X165992537Y-104481652D01*
X166166260Y-104574509D01*
X166318528Y-104699472D01*
X166443491Y-104851740D01*
X166536348Y-105025463D01*
X166536349Y-105025465D01*
X166592555Y-105210751D01*
X166593531Y-105213970D01*
X166612838Y-105410000D01*
X166593531Y-105606030D01*
X166593530Y-105606033D01*
X166593530Y-105606034D01*
X166549358Y-105751651D01*
X166536348Y-105794537D01*
X166443491Y-105968260D01*
X166318528Y-106120528D01*
X166166260Y-106245491D01*
X166166258Y-106245492D01*
X165992535Y-106338349D01*
X165804034Y-106395530D01*
X165804033Y-106395530D01*
X165804030Y-106395531D01*
X165657124Y-106410000D01*
X165558876Y-106410000D01*
X165411970Y-106395531D01*
X165411967Y-106395530D01*
X165411966Y-106395530D01*
X165223465Y-106338349D01*
X165049742Y-106245492D01*
X165049740Y-106245491D01*
X164897472Y-106120528D01*
X164772509Y-105968260D01*
X164679652Y-105794537D01*
X164666643Y-105751651D01*
X164622470Y-105606034D01*
X164622470Y-105606033D01*
X164622469Y-105606030D01*
X164603162Y-105410000D01*
X164622469Y-105213970D01*
X164623445Y-105210751D01*
X164679651Y-105025465D01*
X164679652Y-105025463D01*
X164772509Y-104851740D01*
X164897472Y-104699472D01*
X165049740Y-104574509D01*
X165223463Y-104481652D01*
X165223465Y-104481651D01*
X165411966Y-104424470D01*
X165411967Y-104424470D01*
X165411970Y-104424469D01*
X165558876Y-104410000D01*
X165657124Y-104410000D01*
X165804030Y-104424469D01*
X165804030Y-104424469D01*
G37*
G36*
X148003770Y-103449372D02*
X148119689Y-103472429D01*
X148301678Y-103547811D01*
X148465463Y-103657249D01*
X148604751Y-103796537D01*
X148714189Y-103960322D01*
X148789571Y-104142311D01*
X148812628Y-104258230D01*
X148828000Y-104335507D01*
X148828000Y-104532493D01*
X148819642Y-104574509D01*
X148789571Y-104725689D01*
X148714189Y-104907678D01*
X148604751Y-105071463D01*
X148465463Y-105210751D01*
X148301678Y-105320189D01*
X148119689Y-105395571D01*
X148003770Y-105418628D01*
X147926493Y-105434000D01*
X147729507Y-105434000D01*
X147652230Y-105418628D01*
X147536311Y-105395571D01*
X147354322Y-105320189D01*
X147190537Y-105210751D01*
X147051249Y-105071463D01*
X146941811Y-104907678D01*
X146866429Y-104725689D01*
X146836358Y-104574509D01*
X146828000Y-104532493D01*
X146828000Y-104335507D01*
X146843372Y-104258230D01*
X146866429Y-104142311D01*
X146941811Y-103960322D01*
X147051249Y-103796537D01*
X147190537Y-103657249D01*
X147354322Y-103547811D01*
X147536311Y-103472429D01*
X147652230Y-103449372D01*
X147729507Y-103434000D01*
X147926493Y-103434000D01*
X148003770Y-103449372D01*
X148003770Y-103449372D01*
G37*
G36*
X145145000Y-104124000D02*
X143145000Y-104124000D01*
X143145000Y-102124000D01*
X145145000Y-102124000D01*
X145145000Y-104124000D01*
X145145000Y-104124000D01*
G37*
G36*
X136721030Y-102138469D02*
X136721033Y-102138470D01*
X136721034Y-102138470D01*
X136909535Y-102195651D01*
X136909537Y-102195652D01*
X137083260Y-102288509D01*
X137235528Y-102413472D01*
X137360491Y-102565740D01*
X137453348Y-102739463D01*
X137510531Y-102927970D01*
X137529838Y-103124000D01*
X137510531Y-103320030D01*
X137510530Y-103320033D01*
X137510530Y-103320034D01*
X137464302Y-103472429D01*
X137453348Y-103508537D01*
X137360491Y-103682260D01*
X137235528Y-103834528D01*
X137083260Y-103959491D01*
X137083258Y-103959492D01*
X136909535Y-104052349D01*
X136721034Y-104109530D01*
X136721033Y-104109530D01*
X136721030Y-104109531D01*
X136574124Y-104124000D01*
X136475876Y-104124000D01*
X136328970Y-104109531D01*
X136328967Y-104109530D01*
X136328966Y-104109530D01*
X136140465Y-104052349D01*
X135966742Y-103959492D01*
X135966740Y-103959491D01*
X135814472Y-103834528D01*
X135689509Y-103682260D01*
X135596652Y-103508537D01*
X135585699Y-103472429D01*
X135539470Y-103320034D01*
X135539470Y-103320033D01*
X135539469Y-103320030D01*
X135520162Y-103124000D01*
X135539469Y-102927970D01*
X135596652Y-102739463D01*
X135689509Y-102565740D01*
X135814472Y-102413472D01*
X135966740Y-102288509D01*
X136140463Y-102195652D01*
X136140465Y-102195651D01*
X136328966Y-102138470D01*
X136328967Y-102138470D01*
X136328970Y-102138469D01*
X136475876Y-102124000D01*
X136574124Y-102124000D01*
X136721030Y-102138469D01*
X136721030Y-102138469D01*
G37*
G36*
X155059000Y-103939000D02*
X154059000Y-103939000D01*
X154059000Y-101989000D01*
X155059000Y-101989000D01*
X155059000Y-103939000D01*
X155059000Y-103939000D01*
G37*
G36*
X152519000Y-103939000D02*
X151519000Y-103939000D01*
X151519000Y-101989000D01*
X152519000Y-101989000D01*
X152519000Y-103939000D01*
X152519000Y-103939000D01*
G37*
G36*
X151249000Y-103939000D02*
X150249000Y-103939000D01*
X150249000Y-101989000D01*
X151249000Y-101989000D01*
X151249000Y-103939000D01*
X151249000Y-103939000D01*
G37*
G36*
X153789000Y-103939000D02*
X152789000Y-103939000D01*
X152789000Y-101989000D01*
X153789000Y-101989000D01*
X153789000Y-103939000D01*
X153789000Y-103939000D01*
G37*
G36*
X159687770Y-100107372D02*
X159803689Y-100130429D01*
X159985678Y-100205811D01*
X160149463Y-100315249D01*
X160288751Y-100454537D01*
X160398189Y-100618322D01*
X160473571Y-100800311D01*
X160512000Y-100993509D01*
X160512000Y-101190491D01*
X160473571Y-101383689D01*
X160398189Y-101565678D01*
X160288751Y-101729463D01*
X160149463Y-101868751D01*
X159985678Y-101978189D01*
X159803689Y-102053571D01*
X159687770Y-102076628D01*
X159610493Y-102092000D01*
X159413507Y-102092000D01*
X159336230Y-102076628D01*
X159220311Y-102053571D01*
X159038322Y-101978189D01*
X158874537Y-101868751D01*
X158735249Y-101729463D01*
X158625811Y-101565678D01*
X158550429Y-101383689D01*
X158512000Y-101190491D01*
X158512000Y-100993509D01*
X158550429Y-100800311D01*
X158625811Y-100618322D01*
X158735249Y-100454537D01*
X158874537Y-100315249D01*
X159038322Y-100205811D01*
X159220311Y-100130429D01*
X159336230Y-100107372D01*
X159413507Y-100092000D01*
X159610493Y-100092000D01*
X159687770Y-100107372D01*
X159687770Y-100107372D01*
G37*
G36*
X145145000Y-99425000D02*
X143145000Y-99425000D01*
X143145000Y-97425000D01*
X145145000Y-97425000D01*
X145145000Y-99425000D01*
X145145000Y-99425000D01*
G37*
G36*
X136721030Y-97439469D02*
X136721033Y-97439470D01*
X136721034Y-97439470D01*
X136909535Y-97496651D01*
X136909537Y-97496652D01*
X137083260Y-97589509D01*
X137235528Y-97714472D01*
X137360491Y-97866740D01*
X137360492Y-97866742D01*
X137453349Y-98040465D01*
X137510530Y-98228966D01*
X137510531Y-98228970D01*
X137529838Y-98425000D01*
X137510531Y-98621030D01*
X137453348Y-98809537D01*
X137360491Y-98983260D01*
X137235528Y-99135528D01*
X137083260Y-99260491D01*
X137083258Y-99260492D01*
X136909535Y-99353349D01*
X136721034Y-99410530D01*
X136721033Y-99410530D01*
X136721030Y-99410531D01*
X136574124Y-99425000D01*
X136475876Y-99425000D01*
X136328970Y-99410531D01*
X136328967Y-99410530D01*
X136328966Y-99410530D01*
X136140465Y-99353349D01*
X135966742Y-99260492D01*
X135966740Y-99260491D01*
X135814472Y-99135528D01*
X135689509Y-98983260D01*
X135596652Y-98809537D01*
X135539469Y-98621030D01*
X135520162Y-98425000D01*
X135539469Y-98228970D01*
X135539470Y-98228966D01*
X135596651Y-98040465D01*
X135689508Y-97866742D01*
X135689509Y-97866740D01*
X135814472Y-97714472D01*
X135966740Y-97589509D01*
X136140463Y-97496652D01*
X136140465Y-97496651D01*
X136328966Y-97439470D01*
X136328967Y-97439470D01*
X136328970Y-97439469D01*
X136475876Y-97425000D01*
X136574124Y-97425000D01*
X136721030Y-97439469D01*
X136721030Y-97439469D01*
G37*
G36*
X156914030Y-97058469D02*
X156914033Y-97058470D01*
X156914034Y-97058470D01*
X157102535Y-97115651D01*
X157102537Y-97115652D01*
X157276260Y-97208509D01*
X157428528Y-97333472D01*
X157553491Y-97485740D01*
X157646348Y-97659463D01*
X157703531Y-97847970D01*
X157722838Y-98044000D01*
X157703531Y-98240030D01*
X157646348Y-98428537D01*
X157553491Y-98602260D01*
X157428528Y-98754528D01*
X157276260Y-98879491D01*
X157276258Y-98879492D01*
X157102535Y-98972349D01*
X156914034Y-99029530D01*
X156914033Y-99029530D01*
X156914030Y-99029531D01*
X156767124Y-99044000D01*
X156668876Y-99044000D01*
X156521970Y-99029531D01*
X156521967Y-99029530D01*
X156521966Y-99029530D01*
X156333465Y-98972349D01*
X156159742Y-98879492D01*
X156159740Y-98879491D01*
X156007472Y-98754528D01*
X155882509Y-98602260D01*
X155789652Y-98428537D01*
X155732469Y-98240030D01*
X155713162Y-98044000D01*
X155732469Y-97847970D01*
X155789652Y-97659463D01*
X155882509Y-97485740D01*
X156007472Y-97333472D01*
X156159740Y-97208509D01*
X156333463Y-97115652D01*
X156333465Y-97115651D01*
X156521966Y-97058470D01*
X156521967Y-97058470D01*
X156521970Y-97058469D01*
X156668876Y-97044000D01*
X156767124Y-97044000D01*
X156914030Y-97058469D01*
X156914030Y-97058469D01*
G37*
G36*
X149273770Y-97059372D02*
X149389689Y-97082429D01*
X149571678Y-97157811D01*
X149735463Y-97267249D01*
X149874751Y-97406537D01*
X149984189Y-97570322D01*
X150059571Y-97752311D01*
X150098000Y-97945509D01*
X150098000Y-98142491D01*
X150059571Y-98335689D01*
X149984189Y-98517678D01*
X149874751Y-98681463D01*
X149735463Y-98820751D01*
X149571678Y-98930189D01*
X149389689Y-99005571D01*
X149273770Y-99028628D01*
X149196493Y-99044000D01*
X148999507Y-99044000D01*
X148922230Y-99028628D01*
X148806311Y-99005571D01*
X148624322Y-98930189D01*
X148460537Y-98820751D01*
X148321249Y-98681463D01*
X148211811Y-98517678D01*
X148136429Y-98335689D01*
X148098000Y-98142491D01*
X148098000Y-97945509D01*
X148136429Y-97752311D01*
X148211811Y-97570322D01*
X148321249Y-97406537D01*
X148460537Y-97267249D01*
X148624322Y-97157811D01*
X148806311Y-97082429D01*
X148922230Y-97059372D01*
X148999507Y-97044000D01*
X149196493Y-97044000D01*
X149273770Y-97059372D01*
X149273770Y-97059372D01*
G37*
G36*
X156914030Y-93502469D02*
X156914033Y-93502470D01*
X156914034Y-93502470D01*
X157102535Y-93559651D01*
X157102537Y-93559652D01*
X157276260Y-93652509D01*
X157428528Y-93777472D01*
X157553491Y-93929740D01*
X157646348Y-94103463D01*
X157703531Y-94291970D01*
X157722838Y-94488000D01*
X157703531Y-94684030D01*
X157646348Y-94872537D01*
X157553491Y-95046260D01*
X157428528Y-95198528D01*
X157276260Y-95323491D01*
X157276258Y-95323492D01*
X157102535Y-95416349D01*
X156914034Y-95473530D01*
X156914033Y-95473530D01*
X156914030Y-95473531D01*
X156767124Y-95488000D01*
X156668876Y-95488000D01*
X156521970Y-95473531D01*
X156521967Y-95473530D01*
X156521966Y-95473530D01*
X156333465Y-95416349D01*
X156159742Y-95323492D01*
X156159740Y-95323491D01*
X156007472Y-95198528D01*
X155882509Y-95046260D01*
X155789652Y-94872537D01*
X155732469Y-94684030D01*
X155713162Y-94488000D01*
X155732469Y-94291970D01*
X155789652Y-94103463D01*
X155882509Y-93929740D01*
X156007472Y-93777472D01*
X156159740Y-93652509D01*
X156333463Y-93559652D01*
X156333465Y-93559651D01*
X156521966Y-93502470D01*
X156521967Y-93502470D01*
X156521970Y-93502469D01*
X156668876Y-93488000D01*
X156767124Y-93488000D01*
X156914030Y-93502469D01*
X156914030Y-93502469D01*
G37*
G36*
X144468030Y-93502469D02*
X144468033Y-93502470D01*
X144468034Y-93502470D01*
X144656535Y-93559651D01*
X144656537Y-93559652D01*
X144830260Y-93652509D01*
X144982528Y-93777472D01*
X145107491Y-93929740D01*
X145200348Y-94103463D01*
X145257531Y-94291970D01*
X145276838Y-94488000D01*
X145257531Y-94684030D01*
X145200348Y-94872537D01*
X145107491Y-95046260D01*
X144982528Y-95198528D01*
X144830260Y-95323491D01*
X144830258Y-95323492D01*
X144656535Y-95416349D01*
X144468034Y-95473530D01*
X144468033Y-95473530D01*
X144468030Y-95473531D01*
X144321124Y-95488000D01*
X144222876Y-95488000D01*
X144075970Y-95473531D01*
X144075967Y-95473530D01*
X144075966Y-95473530D01*
X143887465Y-95416349D01*
X143713742Y-95323492D01*
X143713740Y-95323491D01*
X143561472Y-95198528D01*
X143436509Y-95046260D01*
X143343652Y-94872537D01*
X143286469Y-94684030D01*
X143267162Y-94488000D01*
X143286469Y-94291970D01*
X143343652Y-94103463D01*
X143436509Y-93929740D01*
X143561472Y-93777472D01*
X143713740Y-93652509D01*
X143887463Y-93559652D01*
X143887465Y-93559651D01*
X144075966Y-93502470D01*
X144075967Y-93502470D01*
X144075970Y-93502469D01*
X144222876Y-93488000D01*
X144321124Y-93488000D01*
X144468030Y-93502469D01*
X144468030Y-93502469D01*
G37*
G36*
X149273770Y-93503372D02*
X149389689Y-93526429D01*
X149571678Y-93601811D01*
X149735463Y-93711249D01*
X149874751Y-93850537D01*
X149984189Y-94014322D01*
X150059571Y-94196311D01*
X150098000Y-94389509D01*
X150098000Y-94586491D01*
X150059571Y-94779689D01*
X149984189Y-94961678D01*
X149874751Y-95125463D01*
X149735463Y-95264751D01*
X149571678Y-95374189D01*
X149389689Y-95449571D01*
X149273770Y-95472628D01*
X149196493Y-95488000D01*
X148999507Y-95488000D01*
X148922230Y-95472628D01*
X148806311Y-95449571D01*
X148624322Y-95374189D01*
X148460537Y-95264751D01*
X148321249Y-95125463D01*
X148211811Y-94961678D01*
X148136429Y-94779689D01*
X148098000Y-94586491D01*
X148098000Y-94389509D01*
X148136429Y-94196311D01*
X148211811Y-94014322D01*
X148321249Y-93850537D01*
X148460537Y-93711249D01*
X148624322Y-93601811D01*
X148806311Y-93526429D01*
X148922230Y-93503372D01*
X148999507Y-93488000D01*
X149196493Y-93488000D01*
X149273770Y-93503372D01*
X149273770Y-93503372D01*
G37*
G36*
X137652000Y-95488000D02*
X135652000Y-95488000D01*
X135652000Y-93488000D01*
X137652000Y-93488000D01*
X137652000Y-95488000D01*
X137652000Y-95488000D01*
G37*
G36*
X165736707Y-91667597D02*
X165813836Y-91675193D01*
X165945787Y-91715220D01*
X166011763Y-91735233D01*
X166194172Y-91832733D01*
X166354054Y-91963946D01*
X166485267Y-92123828D01*
X166582767Y-92306237D01*
X166582767Y-92306238D01*
X166642807Y-92504164D01*
X166663080Y-92710000D01*
X166642807Y-92915836D01*
X166602780Y-93047787D01*
X166582767Y-93113763D01*
X166485267Y-93296172D01*
X166354054Y-93456054D01*
X166194172Y-93587267D01*
X166011763Y-93684767D01*
X165945787Y-93704780D01*
X165813836Y-93744807D01*
X165736707Y-93752403D01*
X165659580Y-93760000D01*
X165556420Y-93760000D01*
X165479293Y-93752403D01*
X165402164Y-93744807D01*
X165270213Y-93704780D01*
X165204237Y-93684767D01*
X165021828Y-93587267D01*
X164861946Y-93456054D01*
X164730733Y-93296172D01*
X164633233Y-93113763D01*
X164613220Y-93047787D01*
X164573193Y-92915836D01*
X164552920Y-92710000D01*
X164573193Y-92504164D01*
X164633233Y-92306238D01*
X164633233Y-92306237D01*
X164730733Y-92123828D01*
X164861946Y-91963946D01*
X165021828Y-91832733D01*
X165204237Y-91735233D01*
X165270213Y-91715220D01*
X165402164Y-91675193D01*
X165479293Y-91667596D01*
X165556420Y-91660000D01*
X165659580Y-91660000D01*
X165736707Y-91667597D01*
X165736707Y-91667597D01*
G37*
G36*
X166658000Y-91220000D02*
X164558000Y-91220000D01*
X164558000Y-89120000D01*
X166658000Y-89120000D01*
X166658000Y-91220000D01*
X166658000Y-91220000D01*
G37*
G36*
X156893770Y-89185372D02*
X157009689Y-89208429D01*
X157191678Y-89283811D01*
X157355463Y-89393249D01*
X157494751Y-89532537D01*
X157604189Y-89696322D01*
X157679571Y-89878311D01*
X157702628Y-89994230D01*
X157718000Y-90071507D01*
X157718000Y-90268493D01*
X157702628Y-90345770D01*
X157679571Y-90461689D01*
X157604189Y-90643678D01*
X157494751Y-90807463D01*
X157355463Y-90946751D01*
X157191678Y-91056189D01*
X157009689Y-91131571D01*
X156893770Y-91154628D01*
X156816493Y-91170000D01*
X156619507Y-91170000D01*
X156542230Y-91154628D01*
X156426311Y-91131571D01*
X156244322Y-91056189D01*
X156080537Y-90946751D01*
X155941249Y-90807463D01*
X155831811Y-90643678D01*
X155756429Y-90461689D01*
X155733372Y-90345770D01*
X155718000Y-90268493D01*
X155718000Y-90071507D01*
X155733372Y-89994230D01*
X155756429Y-89878311D01*
X155831811Y-89696322D01*
X155941249Y-89532537D01*
X156080537Y-89393249D01*
X156244322Y-89283811D01*
X156426311Y-89208429D01*
X156542230Y-89185372D01*
X156619507Y-89170000D01*
X156816493Y-89170000D01*
X156893770Y-89185372D01*
X156893770Y-89185372D01*
G37*
G36*
X149294030Y-89184469D02*
X149294033Y-89184470D01*
X149294034Y-89184470D01*
X149482535Y-89241651D01*
X149482537Y-89241652D01*
X149656260Y-89334509D01*
X149808528Y-89459472D01*
X149933491Y-89611740D01*
X149933492Y-89611742D01*
X150026349Y-89785465D01*
X150057838Y-89889270D01*
X150083531Y-89973970D01*
X150102838Y-90170000D01*
X150083531Y-90366030D01*
X150083530Y-90366033D01*
X150083530Y-90366034D01*
X150052042Y-90469837D01*
X150026348Y-90554537D01*
X149933491Y-90728260D01*
X149808528Y-90880528D01*
X149656260Y-91005491D01*
X149506948Y-91085300D01*
X149482535Y-91098349D01*
X149294034Y-91155530D01*
X149294033Y-91155530D01*
X149294030Y-91155531D01*
X149147124Y-91170000D01*
X149048876Y-91170000D01*
X148901970Y-91155531D01*
X148901967Y-91155530D01*
X148901966Y-91155530D01*
X148713465Y-91098349D01*
X148689052Y-91085300D01*
X148539740Y-91005491D01*
X148387472Y-90880528D01*
X148262509Y-90728260D01*
X148169652Y-90554537D01*
X148143959Y-90469837D01*
X148112470Y-90366034D01*
X148112470Y-90366033D01*
X148112469Y-90366030D01*
X148093162Y-90170000D01*
X148112469Y-89973970D01*
X148138162Y-89889270D01*
X148169651Y-89785465D01*
X148262508Y-89611742D01*
X148262509Y-89611740D01*
X148387472Y-89459472D01*
X148539740Y-89334509D01*
X148713463Y-89241652D01*
X148713465Y-89241651D01*
X148901966Y-89184470D01*
X148901967Y-89184470D01*
X148901970Y-89184469D01*
X149048876Y-89170000D01*
X149147124Y-89170000D01*
X149294030Y-89184469D01*
X149294030Y-89184469D01*
G37*
G36*
X144468030Y-89099769D02*
X144468033Y-89099770D01*
X144468034Y-89099770D01*
X144656535Y-89156951D01*
X144656537Y-89156952D01*
X144830260Y-89249809D01*
X144982528Y-89374772D01*
X145107491Y-89527040D01*
X145107492Y-89527042D01*
X145200349Y-89700765D01*
X145226042Y-89785465D01*
X145257531Y-89889270D01*
X145276838Y-90085300D01*
X145257531Y-90281330D01*
X145257530Y-90281333D01*
X145257530Y-90281334D01*
X145231837Y-90366034D01*
X145200348Y-90469837D01*
X145107491Y-90643560D01*
X144982528Y-90795828D01*
X144830260Y-90920791D01*
X144830258Y-90920792D01*
X144656535Y-91013649D01*
X144468034Y-91070830D01*
X144468033Y-91070830D01*
X144468030Y-91070831D01*
X144321124Y-91085300D01*
X144222876Y-91085300D01*
X144075970Y-91070831D01*
X144075967Y-91070830D01*
X144075966Y-91070830D01*
X143887465Y-91013649D01*
X143713742Y-90920792D01*
X143713740Y-90920791D01*
X143561472Y-90795828D01*
X143436509Y-90643560D01*
X143343652Y-90469837D01*
X143312164Y-90366034D01*
X143286470Y-90281334D01*
X143286470Y-90281333D01*
X143286469Y-90281330D01*
X143267162Y-90085300D01*
X143286469Y-89889270D01*
X143317958Y-89785465D01*
X143343651Y-89700765D01*
X143436508Y-89527042D01*
X143436509Y-89527040D01*
X143561472Y-89374772D01*
X143713740Y-89249809D01*
X143887463Y-89156952D01*
X143887465Y-89156951D01*
X144075966Y-89099770D01*
X144075967Y-89099770D01*
X144075970Y-89099769D01*
X144222876Y-89085300D01*
X144321124Y-89085300D01*
X144468030Y-89099769D01*
X144468030Y-89099769D01*
G37*
G36*
X137652000Y-91085300D02*
X135652000Y-91085300D01*
X135652000Y-89085300D01*
X137652000Y-89085300D01*
X137652000Y-91085300D01*
X137652000Y-91085300D01*
G37*
G36*
X165731627Y-84814677D02*
X165808756Y-84822273D01*
X165940707Y-84862300D01*
X166006683Y-84882313D01*
X166189092Y-84979813D01*
X166348974Y-85111026D01*
X166480187Y-85270908D01*
X166577687Y-85453317D01*
X166577687Y-85453318D01*
X166637727Y-85651244D01*
X166658000Y-85857080D01*
X166637727Y-86062916D01*
X166609376Y-86156378D01*
X166577687Y-86260843D01*
X166480187Y-86443252D01*
X166348974Y-86603134D01*
X166189092Y-86734347D01*
X166006683Y-86831847D01*
X165940707Y-86851860D01*
X165808756Y-86891887D01*
X165731627Y-86899484D01*
X165654500Y-86907080D01*
X165551340Y-86907080D01*
X165474213Y-86899484D01*
X165397084Y-86891887D01*
X165265133Y-86851860D01*
X165199157Y-86831847D01*
X165016748Y-86734347D01*
X164856866Y-86603134D01*
X164725653Y-86443252D01*
X164628153Y-86260843D01*
X164596464Y-86156378D01*
X164568113Y-86062916D01*
X164547840Y-85857080D01*
X164568113Y-85651244D01*
X164628153Y-85453318D01*
X164628153Y-85453317D01*
X164725653Y-85270908D01*
X164856866Y-85111026D01*
X165016748Y-84979813D01*
X165199157Y-84882313D01*
X165265133Y-84862300D01*
X165397084Y-84822273D01*
X165474213Y-84814677D01*
X165551340Y-84807080D01*
X165654500Y-84807080D01*
X165731627Y-84814677D01*
X165731627Y-84814677D01*
G37*
G36*
X136827770Y-84698072D02*
X136943689Y-84721129D01*
X137125678Y-84796511D01*
X137289463Y-84905949D01*
X137428751Y-85045237D01*
X137538189Y-85209022D01*
X137613571Y-85391011D01*
X137635152Y-85499507D01*
X137652000Y-85584207D01*
X137652000Y-85781193D01*
X137636905Y-85857080D01*
X137613571Y-85974389D01*
X137538189Y-86156378D01*
X137428751Y-86320163D01*
X137289463Y-86459451D01*
X137125678Y-86568889D01*
X136943689Y-86644271D01*
X136827770Y-86667328D01*
X136750493Y-86682700D01*
X136553507Y-86682700D01*
X136476230Y-86667328D01*
X136360311Y-86644271D01*
X136178322Y-86568889D01*
X136014537Y-86459451D01*
X135875249Y-86320163D01*
X135765811Y-86156378D01*
X135690429Y-85974389D01*
X135667095Y-85857080D01*
X135652000Y-85781193D01*
X135652000Y-85584207D01*
X135668848Y-85499507D01*
X135690429Y-85391011D01*
X135765811Y-85209022D01*
X135875249Y-85045237D01*
X136014537Y-84905949D01*
X136178322Y-84796511D01*
X136360311Y-84721129D01*
X136476230Y-84698072D01*
X136553507Y-84682700D01*
X136750493Y-84682700D01*
X136827770Y-84698072D01*
X136827770Y-84698072D01*
G37*
G36*
X144468030Y-84697169D02*
X144468033Y-84697170D01*
X144468034Y-84697170D01*
X144656535Y-84754351D01*
X144656537Y-84754352D01*
X144830260Y-84847209D01*
X144982528Y-84972172D01*
X145107491Y-85124440D01*
X145107492Y-85124442D01*
X145200349Y-85298165D01*
X145247414Y-85453318D01*
X145257531Y-85486670D01*
X145276838Y-85682700D01*
X145257531Y-85878730D01*
X145257530Y-85878733D01*
X145257530Y-85878734D01*
X145201660Y-86062914D01*
X145200348Y-86067237D01*
X145107491Y-86240960D01*
X144982528Y-86393228D01*
X144830260Y-86518191D01*
X144680948Y-86598000D01*
X144656535Y-86611049D01*
X144468034Y-86668230D01*
X144468033Y-86668230D01*
X144468030Y-86668231D01*
X144321124Y-86682700D01*
X144222876Y-86682700D01*
X144075970Y-86668231D01*
X144075967Y-86668230D01*
X144075966Y-86668230D01*
X143887465Y-86611049D01*
X143863052Y-86598000D01*
X143713740Y-86518191D01*
X143561472Y-86393228D01*
X143436509Y-86240960D01*
X143343652Y-86067237D01*
X143342341Y-86062914D01*
X143286470Y-85878734D01*
X143286470Y-85878733D01*
X143286469Y-85878730D01*
X143267162Y-85682700D01*
X143286469Y-85486670D01*
X143296586Y-85453318D01*
X143343651Y-85298165D01*
X143436508Y-85124442D01*
X143436509Y-85124440D01*
X143561472Y-84972172D01*
X143713740Y-84847209D01*
X143887463Y-84754352D01*
X143887465Y-84754351D01*
X144075966Y-84697170D01*
X144075967Y-84697170D01*
X144075970Y-84697169D01*
X144222876Y-84682700D01*
X144321124Y-84682700D01*
X144468030Y-84697169D01*
X144468030Y-84697169D01*
G37*
G36*
X156893770Y-84613372D02*
X157009689Y-84636429D01*
X157191678Y-84711811D01*
X157355463Y-84821249D01*
X157494751Y-84960537D01*
X157604189Y-85124322D01*
X157679571Y-85306311D01*
X157702628Y-85422230D01*
X157715447Y-85486670D01*
X157718000Y-85499509D01*
X157718000Y-85696491D01*
X157679571Y-85889689D01*
X157604189Y-86071678D01*
X157494751Y-86235463D01*
X157355463Y-86374751D01*
X157191678Y-86484189D01*
X157009689Y-86559571D01*
X156893770Y-86582628D01*
X156816493Y-86598000D01*
X156619507Y-86598000D01*
X156542230Y-86582628D01*
X156426311Y-86559571D01*
X156244322Y-86484189D01*
X156080537Y-86374751D01*
X155941249Y-86235463D01*
X155831811Y-86071678D01*
X155756429Y-85889689D01*
X155718000Y-85696491D01*
X155718000Y-85499509D01*
X155720554Y-85486670D01*
X155733372Y-85422230D01*
X155756429Y-85306311D01*
X155831811Y-85124322D01*
X155941249Y-84960537D01*
X156080537Y-84821249D01*
X156244322Y-84711811D01*
X156426311Y-84636429D01*
X156542230Y-84613372D01*
X156619507Y-84598000D01*
X156816493Y-84598000D01*
X156893770Y-84613372D01*
X156893770Y-84613372D01*
G37*
G36*
X149294030Y-84612469D02*
X149294033Y-84612470D01*
X149294034Y-84612470D01*
X149482535Y-84669651D01*
X149482537Y-84669652D01*
X149656260Y-84762509D01*
X149808528Y-84887472D01*
X149933491Y-85039740D01*
X149933492Y-85039742D01*
X150026349Y-85213465D01*
X150052042Y-85298165D01*
X150083531Y-85401970D01*
X150102838Y-85598000D01*
X150083531Y-85794030D01*
X150083530Y-85794033D01*
X150083530Y-85794034D01*
X150057837Y-85878734D01*
X150026348Y-85982537D01*
X149933491Y-86156260D01*
X149808528Y-86308528D01*
X149656260Y-86433491D01*
X149656258Y-86433492D01*
X149482535Y-86526349D01*
X149294034Y-86583530D01*
X149294033Y-86583530D01*
X149294030Y-86583531D01*
X149147124Y-86598000D01*
X149048876Y-86598000D01*
X148901970Y-86583531D01*
X148901967Y-86583530D01*
X148901966Y-86583530D01*
X148713465Y-86526349D01*
X148539742Y-86433492D01*
X148539740Y-86433491D01*
X148387472Y-86308528D01*
X148262509Y-86156260D01*
X148169652Y-85982537D01*
X148138164Y-85878734D01*
X148112470Y-85794034D01*
X148112470Y-85794033D01*
X148112469Y-85794030D01*
X148093162Y-85598000D01*
X148112469Y-85401970D01*
X148143958Y-85298165D01*
X148169651Y-85213465D01*
X148262508Y-85039742D01*
X148262509Y-85039740D01*
X148387472Y-84887472D01*
X148539740Y-84762509D01*
X148713463Y-84669652D01*
X148713465Y-84669651D01*
X148901966Y-84612470D01*
X148901967Y-84612470D01*
X148901970Y-84612469D01*
X149048876Y-84598000D01*
X149147124Y-84598000D01*
X149294030Y-84612469D01*
X149294030Y-84612469D01*
G37*
G36*
X165731627Y-82274677D02*
X165808756Y-82282273D01*
X165940707Y-82322300D01*
X166006683Y-82342313D01*
X166189092Y-82439813D01*
X166348974Y-82571026D01*
X166480187Y-82730908D01*
X166577687Y-82913317D01*
X166577687Y-82913318D01*
X166637727Y-83111244D01*
X166658000Y-83317080D01*
X166637727Y-83522916D01*
X166597700Y-83654867D01*
X166577687Y-83720843D01*
X166480187Y-83903252D01*
X166348974Y-84063134D01*
X166189092Y-84194347D01*
X166006683Y-84291847D01*
X165940707Y-84311860D01*
X165808756Y-84351887D01*
X165731627Y-84359483D01*
X165654500Y-84367080D01*
X165551340Y-84367080D01*
X165474213Y-84359483D01*
X165397084Y-84351887D01*
X165265133Y-84311860D01*
X165199157Y-84291847D01*
X165016748Y-84194347D01*
X164856866Y-84063134D01*
X164725653Y-83903252D01*
X164628153Y-83720843D01*
X164608140Y-83654867D01*
X164568113Y-83522916D01*
X164547840Y-83317080D01*
X164568113Y-83111244D01*
X164628153Y-82913318D01*
X164628153Y-82913317D01*
X164725653Y-82730908D01*
X164856866Y-82571026D01*
X165016748Y-82439813D01*
X165199157Y-82342313D01*
X165265133Y-82322300D01*
X165397084Y-82282273D01*
X165474213Y-82274677D01*
X165551340Y-82267080D01*
X165654500Y-82267080D01*
X165731627Y-82274677D01*
X165731627Y-82274677D01*
G37*
G36*
X144447770Y-80295372D02*
X144563689Y-80318429D01*
X144745678Y-80393811D01*
X144909463Y-80503249D01*
X145048751Y-80642537D01*
X145158189Y-80806322D01*
X145233571Y-80988311D01*
X145272000Y-81181509D01*
X145272000Y-81378491D01*
X145233571Y-81571689D01*
X145158189Y-81753678D01*
X145048751Y-81917463D01*
X144909463Y-82056751D01*
X144745678Y-82166189D01*
X144563689Y-82241571D01*
X144447770Y-82264628D01*
X144370493Y-82280000D01*
X144173507Y-82280000D01*
X144096230Y-82264628D01*
X143980311Y-82241571D01*
X143798322Y-82166189D01*
X143634537Y-82056751D01*
X143495249Y-81917463D01*
X143385811Y-81753678D01*
X143310429Y-81571689D01*
X143272000Y-81378491D01*
X143272000Y-81181509D01*
X143310429Y-80988311D01*
X143385811Y-80806322D01*
X143495249Y-80642537D01*
X143634537Y-80503249D01*
X143798322Y-80393811D01*
X143980311Y-80318429D01*
X144096230Y-80295372D01*
X144173507Y-80280000D01*
X144370493Y-80280000D01*
X144447770Y-80295372D01*
X144447770Y-80295372D01*
G37*
G36*
X136848030Y-80294469D02*
X136848033Y-80294470D01*
X136848034Y-80294470D01*
X137036535Y-80351651D01*
X137036537Y-80351652D01*
X137210260Y-80444509D01*
X137362528Y-80569472D01*
X137487491Y-80721740D01*
X137487492Y-80721742D01*
X137580349Y-80895465D01*
X137590069Y-80927509D01*
X137637531Y-81083970D01*
X137656838Y-81280000D01*
X137637531Y-81476030D01*
X137637530Y-81476033D01*
X137637530Y-81476034D01*
X137604701Y-81584258D01*
X137580348Y-81664537D01*
X137487491Y-81838260D01*
X137362528Y-81990528D01*
X137210260Y-82115491D01*
X137210258Y-82115492D01*
X137036535Y-82208349D01*
X136848034Y-82265530D01*
X136848033Y-82265530D01*
X136848030Y-82265531D01*
X136701124Y-82280000D01*
X136602876Y-82280000D01*
X136455970Y-82265531D01*
X136455967Y-82265530D01*
X136455966Y-82265530D01*
X136267465Y-82208349D01*
X136093742Y-82115492D01*
X136093740Y-82115491D01*
X135941472Y-81990528D01*
X135816509Y-81838260D01*
X135723652Y-81664537D01*
X135699300Y-81584258D01*
X135666470Y-81476034D01*
X135666470Y-81476033D01*
X135666469Y-81476030D01*
X135647162Y-81280000D01*
X135666469Y-81083970D01*
X135713931Y-80927509D01*
X135723651Y-80895465D01*
X135816508Y-80721742D01*
X135816509Y-80721740D01*
X135941472Y-80569472D01*
X136093740Y-80444509D01*
X136267463Y-80351652D01*
X136267465Y-80351651D01*
X136455966Y-80294470D01*
X136455967Y-80294470D01*
X136455970Y-80294469D01*
X136602876Y-80280000D01*
X136701124Y-80280000D01*
X136848030Y-80294469D01*
X136848030Y-80294469D01*
G37*
G36*
X156893770Y-80041372D02*
X157009689Y-80064429D01*
X157191678Y-80139811D01*
X157355463Y-80249249D01*
X157494751Y-80388537D01*
X157604189Y-80552322D01*
X157679571Y-80734311D01*
X157718000Y-80927509D01*
X157718000Y-81124491D01*
X157679571Y-81317689D01*
X157604189Y-81499678D01*
X157494751Y-81663463D01*
X157355463Y-81802751D01*
X157191678Y-81912189D01*
X157009689Y-81987571D01*
X156893770Y-82010628D01*
X156816493Y-82026000D01*
X156619507Y-82026000D01*
X156542230Y-82010628D01*
X156426311Y-81987571D01*
X156244322Y-81912189D01*
X156080537Y-81802751D01*
X155941249Y-81663463D01*
X155831811Y-81499678D01*
X155756429Y-81317689D01*
X155718000Y-81124491D01*
X155718000Y-80927509D01*
X155756429Y-80734311D01*
X155831811Y-80552322D01*
X155941249Y-80388537D01*
X156080537Y-80249249D01*
X156244322Y-80139811D01*
X156426311Y-80064429D01*
X156542230Y-80041372D01*
X156619507Y-80026000D01*
X156816493Y-80026000D01*
X156893770Y-80041372D01*
X156893770Y-80041372D01*
G37*
G36*
X149294030Y-80040469D02*
X149294033Y-80040470D01*
X149294034Y-80040470D01*
X149482535Y-80097651D01*
X149482537Y-80097652D01*
X149656260Y-80190509D01*
X149808528Y-80315472D01*
X149933491Y-80467740D01*
X149933492Y-80467742D01*
X150026349Y-80641465D01*
X150083530Y-80829966D01*
X150083531Y-80829970D01*
X150102838Y-81026000D01*
X150083531Y-81222030D01*
X150083530Y-81222033D01*
X150083530Y-81222034D01*
X150036069Y-81378493D01*
X150026348Y-81410537D01*
X149933491Y-81584260D01*
X149808528Y-81736528D01*
X149656260Y-81861491D01*
X149656258Y-81861492D01*
X149482535Y-81954349D01*
X149294034Y-82011530D01*
X149294033Y-82011530D01*
X149294030Y-82011531D01*
X149147124Y-82026000D01*
X149048876Y-82026000D01*
X148901970Y-82011531D01*
X148901967Y-82011530D01*
X148901966Y-82011530D01*
X148713465Y-81954349D01*
X148539742Y-81861492D01*
X148539740Y-81861491D01*
X148387472Y-81736528D01*
X148262509Y-81584260D01*
X148169652Y-81410537D01*
X148159932Y-81378493D01*
X148112470Y-81222034D01*
X148112470Y-81222033D01*
X148112469Y-81222030D01*
X148093162Y-81026000D01*
X148112469Y-80829970D01*
X148112470Y-80829966D01*
X148169651Y-80641465D01*
X148262508Y-80467742D01*
X148262509Y-80467740D01*
X148387472Y-80315472D01*
X148539740Y-80190509D01*
X148713463Y-80097652D01*
X148713465Y-80097651D01*
X148901966Y-80040470D01*
X148901967Y-80040470D01*
X148901970Y-80040469D01*
X149048876Y-80026000D01*
X149147124Y-80026000D01*
X149294030Y-80040469D01*
X149294030Y-80040469D01*
G37*
G36*
X166652920Y-81827080D02*
X164552920Y-81827080D01*
X164552920Y-79727080D01*
X166652920Y-79727080D01*
X166652920Y-81827080D01*
X166652920Y-81827080D01*
G37*
M02*
