M48
;DRILL file {KiCad (5.0.1)-3} date 2/16/2019 3:36:26 PM
;FORMAT={-:-/ absolute / inch / decimal}
FMAT,2
INCH,TZ
T1C0.0157
T2C0.0276
T3C0.0295
T4C0.0315
T5C0.0394
%
G90
G05
M72
T1
X5.3388Y-3.7133
T2
X5.9Y-3.9216
X5.9Y-4.02
T3
X5.92Y-4.16
X5.92Y-4.21
X5.92Y-4.26
X5.9Y-3.6475
X5.9Y-3.6975
X5.9Y-3.7475
X6.16Y-4.16
X6.16Y-4.21
X6.16Y-4.26
X6.12Y-3.6475
X6.12Y-3.6975
X6.12Y-3.7475
T4
X5.4Y-3.475
X5.7Y-3.475
X5.4Y-4.575
X5.7Y-4.575
X5.4Y-3.775
X5.7Y-3.775
X5.4Y-3.18
X5.7Y-3.18
X5.4Y-3.625
X5.7Y-3.625
X5.4Y-3.325
X5.7Y-3.325
X5.8416Y-4.58
X5.94Y-4.58
X5.4Y-3.925
X5.7Y-3.925
X5.8425Y-3.4025
X5.8425Y-3.5009
X5.4Y-4.75
X5.7Y-4.75
X5.84Y-3.1816
X5.84Y-3.28
X6.14Y-3.9216
X6.14Y-4.02
X5.4Y-4.24
X5.7Y-4.24
X5.4Y-4.08
X5.7Y-4.08
T5
X6.1625Y-3.1475
X6.1625Y-3.2475
X6.1625Y-3.3475
X6.1625Y-3.4475
X6.17Y-4.56
X6.17Y-4.66
X6.17Y-4.76
T0
M30
