G04 #@! TF.GenerationSoftware,KiCad,Pcbnew,8.0.1*
G04 #@! TF.CreationDate,2024-06-18T23:30:07-04:00*
G04 #@! TF.ProjectId,OdysseyDaughterCardSpotGenerator,4f647973-7365-4794-9461-756768746572,1.3*
G04 #@! TF.SameCoordinates,Original*
G04 #@! TF.FileFunction,Copper,L2,Bot*
G04 #@! TF.FilePolarity,Positive*
%FSLAX46Y46*%
G04 Gerber Fmt 4.6, Leading zero omitted, Abs format (unit mm)*
G04 Created by KiCad (PCBNEW 8.0.1) date 2024-06-18 23:30:07*
%MOMM*%
%LPD*%
G01*
G04 APERTURE LIST*
G04 #@! TA.AperFunction,ComponentPad*
%ADD10R,1.500000X1.500000*%
G04 #@! TD*
G04 #@! TA.AperFunction,ComponentPad*
%ADD11C,1.500000*%
G04 #@! TD*
G04 #@! TA.AperFunction,SMDPad,CuDef*
%ADD12R,11.000000X3.250000*%
G04 #@! TD*
G04 #@! TA.AperFunction,ComponentPad*
%ADD13C,1.600000*%
G04 #@! TD*
G04 #@! TA.AperFunction,ComponentPad*
%ADD14C,1.400000*%
G04 #@! TD*
G04 #@! TA.AperFunction,ComponentPad*
%ADD15O,1.600000X1.600000*%
G04 #@! TD*
G04 #@! TA.AperFunction,ComponentPad*
%ADD16R,1.600000X1.600000*%
G04 #@! TD*
G04 #@! TA.AperFunction,ComponentPad*
%ADD17O,1.700000X1.700000*%
G04 #@! TD*
G04 #@! TA.AperFunction,ComponentPad*
%ADD18R,1.700000X1.700000*%
G04 #@! TD*
G04 #@! TA.AperFunction,ViaPad*
%ADD19C,0.800000*%
G04 #@! TD*
G04 #@! TA.AperFunction,Conductor*
%ADD20C,0.250000*%
G04 #@! TD*
G04 APERTURE END LIST*
D10*
X150368000Y-110236000D03*
D11*
X150368000Y-107696000D03*
X150368000Y-105156000D03*
D10*
X149860000Y-96520000D03*
D11*
X149860000Y-93980000D03*
X149860000Y-91440000D03*
D10*
X156464000Y-110236000D03*
D11*
X156464000Y-107696000D03*
X156464000Y-105156000D03*
D10*
X155448000Y-91440000D03*
D11*
X155448000Y-93980000D03*
X155448000Y-96520000D03*
D12*
X129000000Y-81250000D03*
X129000000Y-85638888D03*
X129000000Y-90027776D03*
X129000000Y-94416664D03*
X129000000Y-98805552D03*
X129000000Y-103194440D03*
X129000000Y-107583328D03*
X129000000Y-111972216D03*
X129000000Y-116361104D03*
X129000000Y-120749992D03*
D13*
X148336000Y-80812000D03*
X148336000Y-83312000D03*
X155956000Y-99608000D03*
X155956000Y-102108000D03*
D14*
X149860000Y-99608000D03*
X149860000Y-102108000D03*
D13*
X148400000Y-88923500D03*
X148400000Y-86423500D03*
X148376000Y-116332000D03*
X150876000Y-116332000D03*
D15*
X137160000Y-80772000D03*
D16*
X144780000Y-80772000D03*
D15*
X137160000Y-120650000D03*
D16*
X144780000Y-120650000D03*
D15*
X137160000Y-84455000D03*
D13*
X144780000Y-84455000D03*
D15*
X144780000Y-95885000D03*
D13*
X137160000Y-95885000D03*
D15*
X144780000Y-88265000D03*
D13*
X137160000Y-88265000D03*
D15*
X144780000Y-103632000D03*
D13*
X137160000Y-103632000D03*
D15*
X137160000Y-107696000D03*
D13*
X144780000Y-107696000D03*
D15*
X137160000Y-99695000D03*
D13*
X144780000Y-99695000D03*
D15*
X137160000Y-92075000D03*
D13*
X144780000Y-92075000D03*
D15*
X137160000Y-116205000D03*
D13*
X144780000Y-116205000D03*
D17*
X156718000Y-115824000D03*
X156718000Y-118364000D03*
D18*
X156718000Y-120904000D03*
D17*
X156528000Y-79946500D03*
X156528000Y-82486500D03*
X156528000Y-85026500D03*
D18*
X156528000Y-87566500D03*
D19*
X135606000Y-94318300D03*
D20*
X157539000Y-93531000D02*
X155448000Y-91440000D01*
X157539000Y-109161000D02*
X157539000Y-93531000D01*
X156464000Y-110236000D02*
X157539000Y-109161000D01*
X150622000Y-100838000D02*
X148844000Y-100838000D01*
X151388100Y-100071900D02*
X150622000Y-100838000D01*
X151388100Y-91447820D02*
X151388100Y-100071900D01*
X148844000Y-100838000D02*
X148070000Y-101612000D01*
X148863780Y-88923500D02*
X151388100Y-91447820D01*
X148070000Y-101612000D02*
X148070000Y-107696000D01*
X148400000Y-88923500D02*
X148863780Y-88923500D01*
X155338300Y-102725700D02*
X155956000Y-102108000D01*
X155338300Y-106570300D02*
X155338300Y-102725700D01*
X156464000Y-107696000D02*
X155338300Y-106570300D01*
X156464000Y-115570000D02*
X156718000Y-115824000D01*
X156464000Y-110236000D02*
X156464000Y-115570000D01*
X138049000Y-110236000D02*
X136356216Y-111928784D01*
X136356216Y-111928784D02*
X136356216Y-111972216D01*
X150368000Y-110236000D02*
X138049000Y-110236000D01*
X136356216Y-111972216D02*
X129000000Y-111972216D01*
X151497200Y-113210800D02*
X151497200Y-103745200D01*
X148376000Y-116332000D02*
X151497200Y-113210800D01*
X151497200Y-103745200D02*
X149860000Y-102108000D01*
X148070000Y-107696000D02*
X146945000Y-108821000D01*
X150368000Y-107696000D02*
X148070000Y-107696000D01*
X152683600Y-89040800D02*
X152683600Y-114583600D01*
X154940000Y-90932000D02*
X154940000Y-86360000D01*
X155448000Y-91440000D02*
X154940000Y-90932000D01*
X154372700Y-92904700D02*
X155448000Y-93980000D01*
X154372700Y-89348700D02*
X154372700Y-92904700D01*
X144780000Y-90043500D02*
X148400000Y-86423500D01*
X144780000Y-92075000D02*
X144780000Y-90043500D01*
X149225000Y-96520000D02*
X144780000Y-92075000D01*
X149860000Y-96520000D02*
X149225000Y-96520000D01*
X150935300Y-95055300D02*
X150935300Y-98532700D01*
X149860000Y-93980000D02*
X150935300Y-95055300D01*
X154372700Y-89348700D02*
X148336000Y-83312000D01*
X144780000Y-80812000D02*
X148336000Y-80812000D01*
X144780000Y-84455000D02*
X144780000Y-80812000D01*
X144780000Y-80812000D02*
X144780000Y-80772000D01*
X129000000Y-94416700D02*
X134825000Y-94416700D01*
X134825000Y-94416700D02*
X134924000Y-94318300D01*
X134924000Y-94318300D02*
X135606000Y-94318300D01*
X144780000Y-99695000D02*
X149773000Y-99695000D01*
X150935300Y-98532700D02*
X149860000Y-99608000D01*
X149773000Y-99695000D02*
X149860000Y-99608000D01*
X129000000Y-107583000D02*
X129000300Y-107583000D01*
X129000300Y-107583000D02*
X129000000Y-107583300D01*
X129000300Y-107583000D02*
X134825000Y-107583000D01*
X134825000Y-107583000D02*
X136063000Y-108821000D01*
X136063000Y-108821000D02*
X146945000Y-108821000D01*
X129000000Y-81250000D02*
X134825000Y-81250000D01*
X135303000Y-80772000D02*
X137160000Y-80772000D01*
X134825000Y-81250000D02*
X135303000Y-80772000D01*
X134825000Y-120750000D02*
X134925000Y-120650000D01*
X129000000Y-120750000D02*
X134825000Y-120750000D01*
X134925000Y-120650000D02*
X137160000Y-120650000D01*
X154940000Y-86360000D02*
X156273500Y-85026500D01*
X129000200Y-111972000D02*
X129000000Y-111972200D01*
X129000200Y-111972000D02*
X129000000Y-111972000D01*
X156273500Y-85026500D02*
X156528000Y-85026500D01*
X136035000Y-104404000D02*
X136035000Y-107696000D01*
X134825000Y-103194000D02*
X136035000Y-104404000D01*
X129000000Y-103194000D02*
X129000400Y-103194000D01*
X129000400Y-103194000D02*
X129000000Y-103194400D01*
X129000400Y-103194000D02*
X134825000Y-103194000D01*
X136035000Y-107696000D02*
X137160000Y-107696000D01*
X129000000Y-85638900D02*
X134825000Y-85638900D01*
X156718000Y-118618000D02*
X156718000Y-118364000D01*
X152683600Y-114583600D02*
X156718000Y-118618000D01*
X148890000Y-85247200D02*
X152683600Y-89040800D01*
X134825000Y-85638900D02*
X136009000Y-84455000D01*
X138285300Y-84455000D02*
X139410600Y-85580300D01*
X137160000Y-84455000D02*
X138285300Y-84455000D01*
X145873100Y-85580300D02*
X146206200Y-85247200D01*
X136009000Y-84455000D02*
X137160000Y-84455000D01*
X146206200Y-85247200D02*
X148890000Y-85247200D01*
X139410600Y-85580300D02*
X145873100Y-85580300D01*
X137160000Y-98805500D02*
X129000000Y-98805500D01*
X137160000Y-88265000D02*
X137160000Y-92075000D01*
X137160000Y-98805500D02*
X137160000Y-99695000D01*
X137160000Y-99695000D02*
X137160000Y-103632000D01*
X137160000Y-95885000D02*
X137160000Y-98805500D01*
X137160000Y-92075000D02*
X137160000Y-95885000D01*
X136684400Y-87076800D02*
X137599100Y-87076800D01*
X134825000Y-90027800D02*
X134825000Y-88935700D01*
X134825000Y-88935700D02*
X136521200Y-87240100D01*
X136521200Y-87240100D02*
X136521200Y-87240000D01*
X139700000Y-97426700D02*
X144780000Y-102506700D01*
X136521200Y-87240100D02*
X136646000Y-87115300D01*
X139700000Y-89177700D02*
X139700000Y-97426700D01*
X144780000Y-107696000D02*
X144780000Y-103632000D01*
X136521200Y-87240000D02*
X136684400Y-87076800D01*
X137599100Y-87076800D02*
X139700000Y-89177700D01*
X129000000Y-90027800D02*
X134825000Y-90027800D01*
X144780000Y-102506700D02*
X144780000Y-103632000D01*
X129000000Y-116361000D02*
X129000100Y-116361000D01*
X137160000Y-116205000D02*
X142476000Y-116205000D01*
X134981000Y-116205000D02*
X137160000Y-116205000D01*
X129000100Y-116361000D02*
X129000000Y-116361100D01*
X142476000Y-116205000D02*
X147175000Y-120904000D01*
X134825000Y-116361000D02*
X134981000Y-116205000D01*
X147175000Y-120904000D02*
X156718000Y-120904000D01*
X129000100Y-116361000D02*
X134825000Y-116361000D01*
G04 #@! TA.AperFunction,Conductor*
G36*
X147490192Y-88037568D02*
G01*
X147546125Y-88079440D01*
X147570542Y-88144904D01*
X147555690Y-88213177D01*
X147545813Y-88228476D01*
X147460327Y-88341679D01*
X147369422Y-88524239D01*
X147369417Y-88524252D01*
X147313602Y-88720417D01*
X147294785Y-88923499D01*
X147294785Y-88923500D01*
X147313602Y-89126582D01*
X147369417Y-89322747D01*
X147369422Y-89322760D01*
X147460327Y-89505321D01*
X147583237Y-89668081D01*
X147733958Y-89805480D01*
X147733960Y-89805482D01*
X147797970Y-89845115D01*
X147907363Y-89912848D01*
X148097544Y-89986524D01*
X148298024Y-90024000D01*
X148298026Y-90024000D01*
X148501974Y-90024000D01*
X148501976Y-90024000D01*
X148702456Y-89986524D01*
X148892637Y-89912848D01*
X149030692Y-89827367D01*
X149098048Y-89808813D01*
X149164748Y-89829621D01*
X149183647Y-89845115D01*
X149420594Y-90082062D01*
X149454079Y-90143385D01*
X149449095Y-90213077D01*
X149407223Y-90269010D01*
X149385318Y-90282125D01*
X149232613Y-90353333D01*
X149170427Y-90396874D01*
X149813553Y-91040000D01*
X149807339Y-91040000D01*
X149705606Y-91067259D01*
X149614394Y-91119920D01*
X149539920Y-91194394D01*
X149487259Y-91285606D01*
X149460000Y-91387339D01*
X149460000Y-91393554D01*
X148816874Y-90750428D01*
X148773333Y-90812613D01*
X148680898Y-91010840D01*
X148680894Y-91010849D01*
X148624289Y-91222105D01*
X148624287Y-91222115D01*
X148605225Y-91439999D01*
X148605225Y-91440000D01*
X148624287Y-91657884D01*
X148624289Y-91657894D01*
X148680894Y-91869150D01*
X148680898Y-91869159D01*
X148773333Y-92067387D01*
X148816874Y-92129571D01*
X149460000Y-91486445D01*
X149460000Y-91492661D01*
X149487259Y-91594394D01*
X149539920Y-91685606D01*
X149614394Y-91760080D01*
X149705606Y-91812741D01*
X149807339Y-91840000D01*
X149813553Y-91840000D01*
X149170427Y-92483124D01*
X149232612Y-92526666D01*
X149430840Y-92619101D01*
X149430849Y-92619105D01*
X149642105Y-92675710D01*
X149642116Y-92675712D01*
X149766325Y-92686579D01*
X149831394Y-92712031D01*
X149860504Y-92752232D01*
X149879179Y-92720109D01*
X149941377Y-92688278D01*
X149953674Y-92686579D01*
X150077883Y-92675712D01*
X150077894Y-92675710D01*
X150289150Y-92619105D01*
X150289164Y-92619100D01*
X150487383Y-92526669D01*
X150487385Y-92526668D01*
X150549571Y-92483124D01*
X149906448Y-91840000D01*
X149912661Y-91840000D01*
X150014394Y-91812741D01*
X150105606Y-91760080D01*
X150180080Y-91685606D01*
X150232741Y-91594394D01*
X150260000Y-91492661D01*
X150260000Y-91486446D01*
X150926281Y-92152727D01*
X150959766Y-92214050D01*
X150962600Y-92240408D01*
X150962600Y-93321385D01*
X150942915Y-93388424D01*
X150890111Y-93434179D01*
X150820953Y-93444123D01*
X150757397Y-93415098D01*
X150742123Y-93397786D01*
X150741549Y-93398258D01*
X150606410Y-93233589D01*
X150464346Y-93117002D01*
X150446450Y-93102315D01*
X150263954Y-93004768D01*
X150118736Y-92960717D01*
X150065932Y-92944699D01*
X149952326Y-92933510D01*
X149887539Y-92907349D01*
X149859566Y-92867818D01*
X149841797Y-92899168D01*
X149779951Y-92931676D01*
X149767673Y-92933510D01*
X149654067Y-92944699D01*
X149456043Y-93004769D01*
X149345898Y-93063643D01*
X149273550Y-93102315D01*
X149273548Y-93102316D01*
X149273547Y-93102317D01*
X149113589Y-93233589D01*
X148982317Y-93393547D01*
X148982315Y-93393550D01*
X148960598Y-93434179D01*
X148884769Y-93576043D01*
X148824699Y-93774067D01*
X148804417Y-93980000D01*
X148824699Y-94185932D01*
X148824700Y-94185934D01*
X148884768Y-94383954D01*
X148982315Y-94566450D01*
X148982317Y-94566452D01*
X149113589Y-94726410D01*
X149186480Y-94786229D01*
X149273550Y-94857685D01*
X149456046Y-94955232D01*
X149654066Y-95015300D01*
X149654065Y-95015300D01*
X149672529Y-95017118D01*
X149860000Y-95035583D01*
X150065934Y-95015300D01*
X150169452Y-94983897D01*
X150239319Y-94983274D01*
X150293129Y-95014877D01*
X150473481Y-95195229D01*
X150506966Y-95256552D01*
X150509800Y-95282910D01*
X150509800Y-95345500D01*
X150490115Y-95412539D01*
X150437311Y-95458294D01*
X150385800Y-95469500D01*
X149065143Y-95469500D01*
X149065117Y-95469502D01*
X149040012Y-95472413D01*
X149040010Y-95472414D01*
X148936762Y-95518002D01*
X148867484Y-95527073D01*
X148804299Y-95497249D01*
X148798996Y-95492248D01*
X145855556Y-92548808D01*
X145822071Y-92487485D01*
X145823971Y-92427192D01*
X145860907Y-92297379D01*
X145866397Y-92278083D01*
X145885215Y-92075000D01*
X145866397Y-91871917D01*
X145810582Y-91675750D01*
X145719673Y-91493179D01*
X145643117Y-91391802D01*
X145596762Y-91330418D01*
X145446041Y-91193019D01*
X145446039Y-91193017D01*
X145267763Y-91082634D01*
X145268620Y-91081248D01*
X145222987Y-91038934D01*
X145205500Y-90975444D01*
X145205500Y-90271109D01*
X145225185Y-90204070D01*
X145241814Y-90183433D01*
X147359179Y-88066067D01*
X147420500Y-88032584D01*
X147490192Y-88037568D01*
G37*
G04 #@! TD.AperFunction*
G04 #@! TA.AperFunction,Conductor*
G36*
X126042539Y-77795185D02*
G01*
X126088294Y-77847989D01*
X126099500Y-77899500D01*
X126099500Y-78884982D01*
X126099500Y-78915018D01*
X126110994Y-78942767D01*
X126132233Y-78964006D01*
X126159982Y-78975500D01*
X126159984Y-78975500D01*
X130790016Y-78975500D01*
X130790018Y-78975500D01*
X130817767Y-78964006D01*
X130839006Y-78942767D01*
X130850500Y-78915018D01*
X130850500Y-77899500D01*
X130870185Y-77832461D01*
X130922989Y-77786706D01*
X130974500Y-77775500D01*
X159312500Y-77775500D01*
X159379539Y-77795185D01*
X159425294Y-77847989D01*
X159436500Y-77899500D01*
X159436500Y-124100500D01*
X159416815Y-124167539D01*
X159364011Y-124213294D01*
X159312500Y-124224500D01*
X130974500Y-124224500D01*
X130907461Y-124204815D01*
X130861706Y-124152011D01*
X130850500Y-124100500D01*
X130850500Y-123084983D01*
X130850500Y-123084982D01*
X130839006Y-123057233D01*
X130817767Y-123035994D01*
X130790018Y-123024500D01*
X126190018Y-123024500D01*
X126159982Y-123024500D01*
X126132231Y-123035995D01*
X126110995Y-123057231D01*
X126099500Y-123084982D01*
X126099500Y-124100500D01*
X126079815Y-124167539D01*
X126027011Y-124213294D01*
X125975500Y-124224500D01*
X122624500Y-124224500D01*
X122557461Y-124204815D01*
X122511706Y-124152011D01*
X122500500Y-124100500D01*
X122500500Y-122419848D01*
X123199500Y-122419848D01*
X123199502Y-122419874D01*
X123202413Y-122444979D01*
X123202415Y-122444983D01*
X123247793Y-122547756D01*
X123247794Y-122547757D01*
X123327235Y-122627198D01*
X123430009Y-122672577D01*
X123455135Y-122675492D01*
X134544864Y-122675491D01*
X134544879Y-122675489D01*
X134544882Y-122675489D01*
X134569987Y-122672578D01*
X134569988Y-122672577D01*
X134569991Y-122672577D01*
X134672765Y-122627198D01*
X134752206Y-122547757D01*
X134797585Y-122444983D01*
X134800500Y-122419857D01*
X134800500Y-121292222D01*
X134820185Y-121225183D01*
X134872989Y-121179428D01*
X134892396Y-121172451D01*
X134989237Y-121146503D01*
X135083443Y-121092112D01*
X135145443Y-121075500D01*
X136065712Y-121075500D01*
X136132751Y-121095185D01*
X136176710Y-121144225D01*
X136220327Y-121231821D01*
X136265940Y-121292222D01*
X136343237Y-121394581D01*
X136493958Y-121531980D01*
X136493960Y-121531982D01*
X136593141Y-121593392D01*
X136667363Y-121639348D01*
X136857544Y-121713024D01*
X137058024Y-121750500D01*
X137058026Y-121750500D01*
X137261974Y-121750500D01*
X137261976Y-121750500D01*
X137462456Y-121713024D01*
X137652637Y-121639348D01*
X137826041Y-121531981D01*
X137976764Y-121394579D01*
X138099673Y-121231821D01*
X138190582Y-121049250D01*
X138246397Y-120853083D01*
X138265215Y-120650000D01*
X138246397Y-120446917D01*
X138190582Y-120250750D01*
X138099673Y-120068179D01*
X137976764Y-119905421D01*
X137976762Y-119905418D01*
X137826041Y-119768019D01*
X137826039Y-119768017D01*
X137652642Y-119660655D01*
X137652635Y-119660651D01*
X137495019Y-119599591D01*
X137462456Y-119586976D01*
X137261976Y-119549500D01*
X137058024Y-119549500D01*
X136857544Y-119586976D01*
X136857541Y-119586976D01*
X136857541Y-119586977D01*
X136667364Y-119660651D01*
X136667357Y-119660655D01*
X136493960Y-119768017D01*
X136493958Y-119768019D01*
X136343237Y-119905418D01*
X136220329Y-120068176D01*
X136220327Y-120068179D01*
X136176710Y-120155774D01*
X136129210Y-120207008D01*
X136065712Y-120224500D01*
X134924499Y-120224500D01*
X134857460Y-120204815D01*
X134811705Y-120152011D01*
X134800499Y-120100500D01*
X134800499Y-119080135D01*
X134800499Y-119080128D01*
X134800497Y-119080109D01*
X134797586Y-119055004D01*
X134797585Y-119055002D01*
X134797585Y-119055001D01*
X134752206Y-118952227D01*
X134672765Y-118872786D01*
X134672763Y-118872785D01*
X134569992Y-118827407D01*
X134544865Y-118824492D01*
X123455143Y-118824492D01*
X123455117Y-118824494D01*
X123430012Y-118827405D01*
X123430008Y-118827407D01*
X123327235Y-118872785D01*
X123247794Y-118952226D01*
X123202415Y-119054998D01*
X123202415Y-119055000D01*
X123199500Y-119080123D01*
X123199500Y-122419848D01*
X122500500Y-122419848D01*
X122500500Y-118030960D01*
X123199500Y-118030960D01*
X123199502Y-118030986D01*
X123202413Y-118056091D01*
X123202415Y-118056095D01*
X123247793Y-118158868D01*
X123247794Y-118158869D01*
X123327235Y-118238310D01*
X123430009Y-118283689D01*
X123455135Y-118286604D01*
X134544864Y-118286603D01*
X134544879Y-118286601D01*
X134544882Y-118286601D01*
X134569987Y-118283690D01*
X134569988Y-118283689D01*
X134569991Y-118283689D01*
X134672765Y-118238310D01*
X134752206Y-118158869D01*
X134797585Y-118056095D01*
X134800500Y-118030969D01*
X134800500Y-116903222D01*
X134820185Y-116836183D01*
X134872989Y-116790428D01*
X134892396Y-116783451D01*
X134989237Y-116757503D01*
X135086263Y-116701485D01*
X135120929Y-116666819D01*
X135182252Y-116633334D01*
X135208610Y-116630500D01*
X136065712Y-116630500D01*
X136132751Y-116650185D01*
X136176710Y-116699225D01*
X136220327Y-116786821D01*
X136277179Y-116862105D01*
X136343237Y-116949581D01*
X136493958Y-117086980D01*
X136493960Y-117086982D01*
X136582908Y-117142056D01*
X136667363Y-117194348D01*
X136857544Y-117268024D01*
X137058024Y-117305500D01*
X137058026Y-117305500D01*
X137261974Y-117305500D01*
X137261976Y-117305500D01*
X137462456Y-117268024D01*
X137652637Y-117194348D01*
X137826041Y-117086981D01*
X137976764Y-116949579D01*
X138099673Y-116786821D01*
X138143289Y-116699225D01*
X138190790Y-116647992D01*
X138254288Y-116630500D01*
X142248390Y-116630500D01*
X142315429Y-116650185D01*
X142336071Y-116666819D01*
X145007071Y-119337819D01*
X145040556Y-119399142D01*
X145035572Y-119468834D01*
X144993700Y-119524767D01*
X144928236Y-119549184D01*
X144919390Y-119549500D01*
X143935143Y-119549500D01*
X143935117Y-119549502D01*
X143910012Y-119552413D01*
X143910008Y-119552415D01*
X143807235Y-119597793D01*
X143727794Y-119677234D01*
X143682415Y-119780006D01*
X143682415Y-119780008D01*
X143679500Y-119805131D01*
X143679500Y-121494856D01*
X143679502Y-121494882D01*
X143682413Y-121519987D01*
X143682415Y-121519991D01*
X143727793Y-121622764D01*
X143727794Y-121622765D01*
X143807235Y-121702206D01*
X143910009Y-121747585D01*
X143935135Y-121750500D01*
X145624864Y-121750499D01*
X145624879Y-121750497D01*
X145624882Y-121750497D01*
X145649987Y-121747586D01*
X145649988Y-121747585D01*
X145649991Y-121747585D01*
X145752765Y-121702206D01*
X145832206Y-121622765D01*
X145877585Y-121519991D01*
X145880500Y-121494865D01*
X145880499Y-120510608D01*
X145900183Y-120443570D01*
X145952987Y-120397815D01*
X146022146Y-120387871D01*
X146085702Y-120416896D01*
X146092180Y-120422928D01*
X146834515Y-121165263D01*
X146913737Y-121244485D01*
X147010763Y-121300503D01*
X147118982Y-121329500D01*
X155443501Y-121329500D01*
X155510540Y-121349185D01*
X155556295Y-121401989D01*
X155567501Y-121453500D01*
X155567501Y-121798856D01*
X155567502Y-121798882D01*
X155570413Y-121823987D01*
X155570415Y-121823991D01*
X155615793Y-121926764D01*
X155615794Y-121926765D01*
X155695235Y-122006206D01*
X155798009Y-122051585D01*
X155823135Y-122054500D01*
X157612864Y-122054499D01*
X157612879Y-122054497D01*
X157612882Y-122054497D01*
X157637987Y-122051586D01*
X157637988Y-122051585D01*
X157637991Y-122051585D01*
X157740765Y-122006206D01*
X157820206Y-121926765D01*
X157865585Y-121823991D01*
X157868500Y-121798865D01*
X157868499Y-120009136D01*
X157868497Y-120009117D01*
X157865586Y-119984012D01*
X157865585Y-119984010D01*
X157865585Y-119984009D01*
X157820206Y-119881235D01*
X157740765Y-119801794D01*
X157691427Y-119780009D01*
X157637992Y-119756415D01*
X157612868Y-119753500D01*
X156884243Y-119753500D01*
X156817204Y-119733815D01*
X156771449Y-119681011D01*
X156761505Y-119611853D01*
X156790530Y-119548297D01*
X156849308Y-119510523D01*
X156861441Y-119507614D01*
X157034198Y-119475321D01*
X157233019Y-119398298D01*
X157414302Y-119286052D01*
X157571872Y-119142407D01*
X157700366Y-118972255D01*
X157772492Y-118827405D01*
X157795403Y-118781394D01*
X157795403Y-118781393D01*
X157795405Y-118781389D01*
X157853756Y-118576310D01*
X157873429Y-118364000D01*
X157853756Y-118151690D01*
X157795405Y-117946611D01*
X157795403Y-117946606D01*
X157795403Y-117946605D01*
X157700367Y-117755746D01*
X157571872Y-117585593D01*
X157414302Y-117441948D01*
X157233019Y-117329702D01*
X157204037Y-117318474D01*
X157148636Y-117275903D01*
X157125045Y-117210136D01*
X157140756Y-117142056D01*
X157190779Y-117093276D01*
X157196426Y-117090466D01*
X157395578Y-116997599D01*
X157589082Y-116862105D01*
X157756105Y-116695082D01*
X157891600Y-116501578D01*
X157991429Y-116287492D01*
X157991432Y-116287486D01*
X158048636Y-116074000D01*
X157151012Y-116074000D01*
X157183925Y-116016993D01*
X157218000Y-115889826D01*
X157218000Y-115758174D01*
X157183925Y-115631007D01*
X157151012Y-115574000D01*
X158048636Y-115574000D01*
X158048635Y-115573999D01*
X157991432Y-115360513D01*
X157991429Y-115360507D01*
X157891600Y-115146422D01*
X157891599Y-115146420D01*
X157756113Y-114952926D01*
X157756108Y-114952920D01*
X157589082Y-114785894D01*
X157395578Y-114650399D01*
X157181492Y-114550570D01*
X157181486Y-114550567D01*
X156968000Y-114493364D01*
X156968000Y-115390988D01*
X156910993Y-115358075D01*
X156783826Y-115324000D01*
X156652174Y-115324000D01*
X156525007Y-115358075D01*
X156468000Y-115390988D01*
X156468000Y-114493364D01*
X156467999Y-114493364D01*
X156254513Y-114550567D01*
X156254507Y-114550570D01*
X156040422Y-114650399D01*
X156040420Y-114650400D01*
X155846926Y-114785886D01*
X155846920Y-114785891D01*
X155679891Y-114952920D01*
X155679886Y-114952926D01*
X155544400Y-115146420D01*
X155544399Y-115146422D01*
X155444570Y-115360507D01*
X155444567Y-115360513D01*
X155387364Y-115573999D01*
X155387364Y-115574000D01*
X156284988Y-115574000D01*
X156252075Y-115631007D01*
X156218000Y-115758174D01*
X156218000Y-115889826D01*
X156252075Y-116016993D01*
X156284988Y-116074000D01*
X155387364Y-116074000D01*
X155444567Y-116287486D01*
X155444570Y-116287492D01*
X155545207Y-116503310D01*
X155555699Y-116572388D01*
X155527179Y-116636172D01*
X155468703Y-116674411D01*
X155398835Y-116674966D01*
X155345144Y-116643396D01*
X153145419Y-114443671D01*
X153111934Y-114382348D01*
X153109100Y-114355990D01*
X153109100Y-102108000D01*
X154850785Y-102108000D01*
X154869602Y-102311082D01*
X154869603Y-102311084D01*
X154925413Y-102507238D01*
X154927488Y-102512592D01*
X154925944Y-102513189D01*
X154936846Y-102574376D01*
X154933361Y-102592944D01*
X154912800Y-102669680D01*
X154912800Y-102669682D01*
X154912800Y-106514282D01*
X154912800Y-106626318D01*
X154936208Y-106713676D01*
X154941797Y-106734536D01*
X154941798Y-106734539D01*
X154945611Y-106741143D01*
X154997815Y-106831563D01*
X154997817Y-106831565D01*
X155429122Y-107262870D01*
X155462607Y-107324193D01*
X155460102Y-107386545D01*
X155428699Y-107490067D01*
X155408417Y-107696000D01*
X155428699Y-107901932D01*
X155428700Y-107901934D01*
X155488768Y-108099954D01*
X155586315Y-108282450D01*
X155619602Y-108323011D01*
X155717589Y-108442410D01*
X155814209Y-108521702D01*
X155877550Y-108573685D01*
X156060046Y-108671232D01*
X156258066Y-108731300D01*
X156258065Y-108731300D01*
X156332152Y-108738597D01*
X156396939Y-108764758D01*
X156437298Y-108821792D01*
X156440415Y-108891592D01*
X156405300Y-108951997D01*
X156343103Y-108983828D01*
X156319998Y-108986000D01*
X155666155Y-108986000D01*
X155606627Y-108992401D01*
X155606620Y-108992403D01*
X155471913Y-109042645D01*
X155471906Y-109042649D01*
X155356812Y-109128809D01*
X155356809Y-109128812D01*
X155270649Y-109243906D01*
X155270645Y-109243913D01*
X155220403Y-109378620D01*
X155220401Y-109378627D01*
X155214000Y-109438155D01*
X155214000Y-109986000D01*
X156148314Y-109986000D01*
X156143920Y-109990394D01*
X156091259Y-110081606D01*
X156064000Y-110183339D01*
X156064000Y-110288661D01*
X156091259Y-110390394D01*
X156143920Y-110481606D01*
X156148314Y-110486000D01*
X155214000Y-110486000D01*
X155214000Y-111033844D01*
X155220401Y-111093372D01*
X155220403Y-111093379D01*
X155270645Y-111228086D01*
X155270649Y-111228093D01*
X155356809Y-111343187D01*
X155356812Y-111343190D01*
X155471906Y-111429350D01*
X155471913Y-111429354D01*
X155606620Y-111479596D01*
X155606627Y-111479598D01*
X155666155Y-111485999D01*
X155666172Y-111486000D01*
X156214000Y-111486000D01*
X156214000Y-110551686D01*
X156218394Y-110556080D01*
X156309606Y-110608741D01*
X156411339Y-110636000D01*
X156516661Y-110636000D01*
X156618394Y-110608741D01*
X156709606Y-110556080D01*
X156714000Y-110551686D01*
X156714000Y-111486000D01*
X157261828Y-111486000D01*
X157261844Y-111485999D01*
X157321372Y-111479598D01*
X157321379Y-111479596D01*
X157456086Y-111429354D01*
X157456093Y-111429350D01*
X157571187Y-111343190D01*
X157571190Y-111343187D01*
X157657350Y-111228093D01*
X157657354Y-111228086D01*
X157707596Y-111093379D01*
X157707598Y-111093372D01*
X157713999Y-111033844D01*
X157714000Y-111033827D01*
X157714000Y-110486000D01*
X156779686Y-110486000D01*
X156784080Y-110481606D01*
X156836741Y-110390394D01*
X156864000Y-110288661D01*
X156864000Y-110183339D01*
X156836741Y-110081606D01*
X156784080Y-109990394D01*
X156779686Y-109986000D01*
X157714000Y-109986000D01*
X157714000Y-109438172D01*
X157713999Y-109438155D01*
X157707598Y-109378627D01*
X157707596Y-109378620D01*
X157657354Y-109243913D01*
X157657350Y-109243906D01*
X157571190Y-109128812D01*
X157571187Y-109128809D01*
X157456093Y-109042649D01*
X157456086Y-109042645D01*
X157321379Y-108992403D01*
X157321372Y-108992401D01*
X157261844Y-108986000D01*
X156608002Y-108986000D01*
X156540963Y-108966315D01*
X156495208Y-108913511D01*
X156485264Y-108844353D01*
X156514289Y-108780797D01*
X156573067Y-108743023D01*
X156595848Y-108738597D01*
X156614916Y-108736718D01*
X156669934Y-108731300D01*
X156867954Y-108671232D01*
X157050450Y-108573685D01*
X157210410Y-108442410D01*
X157341685Y-108282450D01*
X157439232Y-108099954D01*
X157499300Y-107901934D01*
X157519583Y-107696000D01*
X157499300Y-107490066D01*
X157439232Y-107292046D01*
X157341685Y-107109550D01*
X157211913Y-106951421D01*
X157210410Y-106949589D01*
X157050452Y-106818317D01*
X157050453Y-106818317D01*
X157050450Y-106818315D01*
X156867954Y-106720768D01*
X156669934Y-106660700D01*
X156669932Y-106660699D01*
X156669934Y-106660699D01*
X156464000Y-106640417D01*
X156258067Y-106660699D01*
X156154545Y-106692102D01*
X156084678Y-106692725D01*
X156030870Y-106661122D01*
X155800119Y-106430371D01*
X155766634Y-106369048D01*
X155763800Y-106342690D01*
X155763800Y-106179766D01*
X155783485Y-106112727D01*
X155836289Y-106066972D01*
X155905447Y-106057028D01*
X155946252Y-106070407D01*
X156060046Y-106131232D01*
X156258066Y-106191300D01*
X156258065Y-106191300D01*
X156276529Y-106193118D01*
X156464000Y-106211583D01*
X156669934Y-106191300D01*
X156867954Y-106131232D01*
X157050450Y-106033685D01*
X157210410Y-105902410D01*
X157341685Y-105742450D01*
X157439232Y-105559954D01*
X157499300Y-105361934D01*
X157519583Y-105156000D01*
X157499300Y-104950066D01*
X157439232Y-104752046D01*
X157341685Y-104569550D01*
X157271049Y-104483479D01*
X157210410Y-104409589D01*
X157050452Y-104278317D01*
X157050453Y-104278317D01*
X157050450Y-104278315D01*
X156867954Y-104180768D01*
X156669934Y-104120700D01*
X156669932Y-104120699D01*
X156669934Y-104120699D01*
X156464000Y-104100417D01*
X156258067Y-104120699D01*
X156060041Y-104180769D01*
X155946253Y-104241591D01*
X155877850Y-104255833D01*
X155812607Y-104230833D01*
X155771236Y-104174528D01*
X155763800Y-104132233D01*
X155763800Y-103332500D01*
X155783485Y-103265461D01*
X155836289Y-103219706D01*
X155887800Y-103208500D01*
X156057974Y-103208500D01*
X156057976Y-103208500D01*
X156258456Y-103171024D01*
X156448637Y-103097348D01*
X156622041Y-102989981D01*
X156771737Y-102853515D01*
X156772762Y-102852581D01*
X156772764Y-102852579D01*
X156895673Y-102689821D01*
X156986582Y-102507250D01*
X157042397Y-102311083D01*
X157061215Y-102108000D01*
X157042397Y-101904917D01*
X156986582Y-101708750D01*
X156895673Y-101526179D01*
X156797876Y-101396675D01*
X156772762Y-101363418D01*
X156622041Y-101226019D01*
X156622039Y-101226017D01*
X156448642Y-101118655D01*
X156448635Y-101118651D01*
X156353546Y-101081814D01*
X156258456Y-101044976D01*
X156057976Y-101007500D01*
X155854024Y-101007500D01*
X155653544Y-101044976D01*
X155653541Y-101044976D01*
X155653541Y-101044977D01*
X155463364Y-101118651D01*
X155463357Y-101118655D01*
X155289960Y-101226017D01*
X155289958Y-101226019D01*
X155139237Y-101363418D01*
X155016327Y-101526178D01*
X154925422Y-101708739D01*
X154925417Y-101708752D01*
X154869602Y-101904917D01*
X154850785Y-102107999D01*
X154850785Y-102108000D01*
X153109100Y-102108000D01*
X153109100Y-99608000D01*
X154850785Y-99608000D01*
X154869602Y-99811082D01*
X154925417Y-100007247D01*
X154925422Y-100007260D01*
X155016327Y-100189821D01*
X155139237Y-100352581D01*
X155289958Y-100489980D01*
X155289960Y-100489982D01*
X155307017Y-100500543D01*
X155463363Y-100597348D01*
X155653544Y-100671024D01*
X155854024Y-100708500D01*
X155854026Y-100708500D01*
X156057974Y-100708500D01*
X156057976Y-100708500D01*
X156258456Y-100671024D01*
X156448637Y-100597348D01*
X156622041Y-100489981D01*
X156772764Y-100352579D01*
X156895673Y-100189821D01*
X156986582Y-100007250D01*
X157042397Y-99811083D01*
X157061215Y-99608000D01*
X157042397Y-99404917D01*
X156986582Y-99208750D01*
X156984193Y-99203953D01*
X156938992Y-99113176D01*
X156895673Y-99026179D01*
X156772764Y-98863421D01*
X156772762Y-98863418D01*
X156622041Y-98726019D01*
X156622039Y-98726017D01*
X156448642Y-98618655D01*
X156448635Y-98618651D01*
X156353546Y-98581814D01*
X156258456Y-98544976D01*
X156057976Y-98507500D01*
X155854024Y-98507500D01*
X155653544Y-98544976D01*
X155653541Y-98544976D01*
X155653541Y-98544977D01*
X155463364Y-98618651D01*
X155463357Y-98618655D01*
X155289960Y-98726017D01*
X155289958Y-98726019D01*
X155139237Y-98863418D01*
X155016327Y-99026178D01*
X154925422Y-99208739D01*
X154925417Y-99208752D01*
X154869602Y-99404917D01*
X154850785Y-99607999D01*
X154850785Y-99608000D01*
X153109100Y-99608000D01*
X153109100Y-96520000D01*
X154392417Y-96520000D01*
X154412699Y-96725932D01*
X154442734Y-96824944D01*
X154472768Y-96923954D01*
X154570315Y-97106450D01*
X154594294Y-97135669D01*
X154701589Y-97266410D01*
X154791244Y-97339987D01*
X154861550Y-97397685D01*
X155044046Y-97495232D01*
X155242066Y-97555300D01*
X155242065Y-97555300D01*
X155260529Y-97557118D01*
X155448000Y-97575583D01*
X155653934Y-97555300D01*
X155851954Y-97495232D01*
X156034450Y-97397685D01*
X156194410Y-97266410D01*
X156325685Y-97106450D01*
X156423232Y-96923954D01*
X156483300Y-96725934D01*
X156503583Y-96520000D01*
X156483300Y-96314066D01*
X156423232Y-96116046D01*
X156325685Y-95933550D01*
X156273702Y-95870209D01*
X156194410Y-95773589D01*
X156034452Y-95642317D01*
X156034453Y-95642317D01*
X156034450Y-95642315D01*
X155851954Y-95544768D01*
X155653934Y-95484700D01*
X155653932Y-95484699D01*
X155653934Y-95484699D01*
X155448000Y-95464417D01*
X155242067Y-95484699D01*
X155044043Y-95544769D01*
X154989095Y-95574140D01*
X154861550Y-95642315D01*
X154861548Y-95642316D01*
X154861547Y-95642317D01*
X154701589Y-95773589D01*
X154570317Y-95933547D01*
X154472769Y-96116043D01*
X154412699Y-96314067D01*
X154392417Y-96520000D01*
X153109100Y-96520000D01*
X153109100Y-88986210D01*
X153128785Y-88919171D01*
X153181589Y-88873416D01*
X153250747Y-88863472D01*
X153314303Y-88892497D01*
X153320781Y-88898529D01*
X153910881Y-89488629D01*
X153944366Y-89549952D01*
X153947200Y-89576310D01*
X153947200Y-92848682D01*
X153947200Y-92960718D01*
X153976197Y-93068937D01*
X154032215Y-93165963D01*
X154032217Y-93165965D01*
X154413122Y-93546870D01*
X154446607Y-93608193D01*
X154444102Y-93670545D01*
X154412699Y-93774067D01*
X154392417Y-93980000D01*
X154412699Y-94185932D01*
X154412700Y-94185934D01*
X154472768Y-94383954D01*
X154570315Y-94566450D01*
X154570317Y-94566452D01*
X154701589Y-94726410D01*
X154774480Y-94786229D01*
X154861550Y-94857685D01*
X155044046Y-94955232D01*
X155242066Y-95015300D01*
X155242065Y-95015300D01*
X155260529Y-95017118D01*
X155448000Y-95035583D01*
X155653934Y-95015300D01*
X155851954Y-94955232D01*
X156034450Y-94857685D01*
X156194410Y-94726410D01*
X156325685Y-94566450D01*
X156423232Y-94383954D01*
X156483300Y-94185934D01*
X156503583Y-93980000D01*
X156483300Y-93774066D01*
X156423232Y-93576046D01*
X156325685Y-93393550D01*
X156266461Y-93321385D01*
X156194410Y-93233589D01*
X156052346Y-93117002D01*
X156034450Y-93102315D01*
X155851954Y-93004768D01*
X155653934Y-92944700D01*
X155653932Y-92944699D01*
X155653934Y-92944699D01*
X155579848Y-92937403D01*
X155515061Y-92911242D01*
X155474702Y-92854208D01*
X155471585Y-92784408D01*
X155506700Y-92724003D01*
X155568897Y-92692172D01*
X155592002Y-92690000D01*
X156245828Y-92690000D01*
X156245844Y-92689999D01*
X156305372Y-92683598D01*
X156305379Y-92683596D01*
X156440086Y-92633354D01*
X156440093Y-92633350D01*
X156555187Y-92547190D01*
X156555190Y-92547187D01*
X156641350Y-92432093D01*
X156641354Y-92432086D01*
X156691596Y-92297379D01*
X156691598Y-92297372D01*
X156697999Y-92237844D01*
X156698000Y-92237827D01*
X156698000Y-91690000D01*
X155763686Y-91690000D01*
X155768080Y-91685606D01*
X155820741Y-91594394D01*
X155848000Y-91492661D01*
X155848000Y-91387339D01*
X155820741Y-91285606D01*
X155768080Y-91194394D01*
X155763686Y-91190000D01*
X156698000Y-91190000D01*
X156698000Y-90642172D01*
X156697999Y-90642155D01*
X156691598Y-90582627D01*
X156691596Y-90582620D01*
X156641354Y-90447913D01*
X156641350Y-90447906D01*
X156555190Y-90332812D01*
X156555187Y-90332809D01*
X156440093Y-90246649D01*
X156440086Y-90246645D01*
X156305379Y-90196403D01*
X156305372Y-90196401D01*
X156245844Y-90190000D01*
X155698000Y-90190000D01*
X155698000Y-91124314D01*
X155693606Y-91119920D01*
X155602394Y-91067259D01*
X155500661Y-91040000D01*
X155395339Y-91040000D01*
X155293606Y-91067259D01*
X155202394Y-91119920D01*
X155198000Y-91124314D01*
X155198000Y-90190000D01*
X154922200Y-90190000D01*
X154855161Y-90170315D01*
X154809406Y-90117511D01*
X154798200Y-90066000D01*
X154798200Y-89292684D01*
X154798200Y-89292682D01*
X154769203Y-89184463D01*
X154713185Y-89087437D01*
X154633963Y-89008215D01*
X150902248Y-85276500D01*
X155197364Y-85276500D01*
X155254567Y-85489986D01*
X155254570Y-85489992D01*
X155354399Y-85704078D01*
X155489894Y-85897582D01*
X155656917Y-86064605D01*
X155836605Y-86190425D01*
X155880230Y-86245002D01*
X155887422Y-86314501D01*
X155855900Y-86376855D01*
X155795670Y-86412269D01*
X155765482Y-86416000D01*
X155633144Y-86416000D01*
X155633117Y-86416002D01*
X155608012Y-86418913D01*
X155608008Y-86418915D01*
X155505235Y-86464293D01*
X155425794Y-86543734D01*
X155380415Y-86646506D01*
X155380415Y-86646508D01*
X155377500Y-86671631D01*
X155377500Y-88461356D01*
X155377502Y-88461382D01*
X155380413Y-88486487D01*
X155380415Y-88486491D01*
X155425793Y-88589264D01*
X155425794Y-88589265D01*
X155505235Y-88668706D01*
X155608009Y-88714085D01*
X155633135Y-88717000D01*
X157422864Y-88716999D01*
X157422879Y-88716997D01*
X157422882Y-88716997D01*
X157447987Y-88714086D01*
X157447988Y-88714085D01*
X157447991Y-88714085D01*
X157550765Y-88668706D01*
X157630206Y-88589265D01*
X157675585Y-88486491D01*
X157678500Y-88461365D01*
X157678499Y-86671636D01*
X157676141Y-86651300D01*
X157675586Y-86646512D01*
X157675585Y-86646510D01*
X157675585Y-86646509D01*
X157630206Y-86543735D01*
X157550765Y-86464294D01*
X157542657Y-86460714D01*
X157447992Y-86418915D01*
X157422868Y-86416000D01*
X157290519Y-86416000D01*
X157223480Y-86396315D01*
X157177725Y-86343511D01*
X157167781Y-86274353D01*
X157196806Y-86210797D01*
X157219395Y-86190425D01*
X157399082Y-86064605D01*
X157566105Y-85897582D01*
X157701600Y-85704078D01*
X157801429Y-85489992D01*
X157801432Y-85489986D01*
X157858636Y-85276500D01*
X156961012Y-85276500D01*
X156993925Y-85219493D01*
X157028000Y-85092326D01*
X157028000Y-84960674D01*
X156993925Y-84833507D01*
X156961012Y-84776500D01*
X157858636Y-84776500D01*
X157858635Y-84776499D01*
X157801432Y-84563013D01*
X157801429Y-84563007D01*
X157701600Y-84348922D01*
X157701599Y-84348920D01*
X157566113Y-84155426D01*
X157566108Y-84155420D01*
X157399082Y-83988394D01*
X157205578Y-83852899D01*
X157006426Y-83760033D01*
X156953987Y-83713860D01*
X156934835Y-83646667D01*
X156955051Y-83579786D01*
X157008216Y-83534451D01*
X157014005Y-83532037D01*
X157043019Y-83520798D01*
X157224302Y-83408552D01*
X157381872Y-83264907D01*
X157510366Y-83094755D01*
X157533764Y-83047765D01*
X157605403Y-82903894D01*
X157605403Y-82903893D01*
X157605405Y-82903889D01*
X157663756Y-82698810D01*
X157683429Y-82486500D01*
X157663756Y-82274190D01*
X157605405Y-82069111D01*
X157605403Y-82069106D01*
X157605403Y-82069105D01*
X157510367Y-81878246D01*
X157381872Y-81708093D01*
X157309362Y-81641991D01*
X157224302Y-81564448D01*
X157043019Y-81452202D01*
X157043017Y-81452201D01*
X156892319Y-81393821D01*
X156844198Y-81375179D01*
X156647385Y-81338388D01*
X156585106Y-81306721D01*
X156549833Y-81246408D01*
X156552767Y-81176600D01*
X156592976Y-81119460D01*
X156647384Y-81094611D01*
X156844198Y-81057821D01*
X157043019Y-80980798D01*
X157224302Y-80868552D01*
X157381872Y-80724907D01*
X157510366Y-80554755D01*
X157540341Y-80494557D01*
X157605403Y-80363894D01*
X157605403Y-80363893D01*
X157605405Y-80363889D01*
X157663756Y-80158810D01*
X157683429Y-79946500D01*
X157663756Y-79734190D01*
X157605405Y-79529111D01*
X157605403Y-79529106D01*
X157605403Y-79529105D01*
X157510367Y-79338246D01*
X157381872Y-79168093D01*
X157224302Y-79024448D01*
X157043019Y-78912202D01*
X157043017Y-78912201D01*
X156943608Y-78873690D01*
X156844198Y-78835179D01*
X156634610Y-78796000D01*
X156421390Y-78796000D01*
X156211802Y-78835179D01*
X156211799Y-78835179D01*
X156211799Y-78835180D01*
X156012982Y-78912201D01*
X156012980Y-78912202D01*
X155831699Y-79024447D01*
X155674127Y-79168093D01*
X155545632Y-79338246D01*
X155450596Y-79529105D01*
X155450596Y-79529107D01*
X155392244Y-79734189D01*
X155372571Y-79946499D01*
X155372571Y-79946500D01*
X155392244Y-80158810D01*
X155450596Y-80363892D01*
X155450596Y-80363894D01*
X155545632Y-80554753D01*
X155634742Y-80672752D01*
X155674128Y-80724907D01*
X155831698Y-80868552D01*
X156012981Y-80980798D01*
X156211802Y-81057821D01*
X156408613Y-81094611D01*
X156470893Y-81126279D01*
X156506166Y-81186592D01*
X156503232Y-81256400D01*
X156463023Y-81313540D01*
X156408613Y-81338388D01*
X156211802Y-81375179D01*
X156211799Y-81375179D01*
X156211799Y-81375180D01*
X156012982Y-81452201D01*
X156012980Y-81452202D01*
X155831699Y-81564447D01*
X155674127Y-81708093D01*
X155545632Y-81878246D01*
X155450596Y-82069105D01*
X155450596Y-82069107D01*
X155392244Y-82274189D01*
X155372571Y-82486499D01*
X155372571Y-82486500D01*
X155392244Y-82698810D01*
X155450596Y-82903892D01*
X155450596Y-82903894D01*
X155545632Y-83094753D01*
X155606610Y-83175500D01*
X155674128Y-83264907D01*
X155831698Y-83408552D01*
X156012981Y-83520798D01*
X156041961Y-83532025D01*
X156097362Y-83574595D01*
X156120954Y-83640361D01*
X156105244Y-83708442D01*
X156055222Y-83757222D01*
X156049573Y-83760033D01*
X155850422Y-83852899D01*
X155850420Y-83852900D01*
X155656926Y-83988386D01*
X155656920Y-83988391D01*
X155489891Y-84155420D01*
X155489886Y-84155426D01*
X155354400Y-84348920D01*
X155354399Y-84348922D01*
X155254570Y-84563007D01*
X155254567Y-84563013D01*
X155197364Y-84776499D01*
X155197364Y-84776500D01*
X156094988Y-84776500D01*
X156062075Y-84833507D01*
X156028000Y-84960674D01*
X156028000Y-85092326D01*
X156062075Y-85219493D01*
X156094988Y-85276500D01*
X155197364Y-85276500D01*
X150902248Y-85276500D01*
X149411556Y-83785808D01*
X149378071Y-83724485D01*
X149379971Y-83664192D01*
X149384958Y-83646667D01*
X149422397Y-83515083D01*
X149441215Y-83312000D01*
X149428296Y-83172584D01*
X149422397Y-83108917D01*
X149366582Y-82912750D01*
X149362172Y-82903894D01*
X149322272Y-82823764D01*
X149275673Y-82730179D01*
X149152764Y-82567421D01*
X149152762Y-82567418D01*
X149002041Y-82430019D01*
X149002039Y-82430017D01*
X148828642Y-82322655D01*
X148828635Y-82322651D01*
X148703539Y-82274189D01*
X148638456Y-82248976D01*
X148437976Y-82211500D01*
X148234024Y-82211500D01*
X148033544Y-82248976D01*
X148033541Y-82248976D01*
X148033541Y-82248977D01*
X147843364Y-82322651D01*
X147843357Y-82322655D01*
X147669960Y-82430017D01*
X147669958Y-82430019D01*
X147519237Y-82567418D01*
X147396327Y-82730178D01*
X147305422Y-82912739D01*
X147305417Y-82912752D01*
X147249602Y-83108917D01*
X147230785Y-83311999D01*
X147230785Y-83312000D01*
X147249602Y-83515082D01*
X147305417Y-83711247D01*
X147305422Y-83711260D01*
X147396327Y-83893821D01*
X147519237Y-84056581D01*
X147669958Y-84193980D01*
X147669960Y-84193982D01*
X147763529Y-84251917D01*
X147843363Y-84301348D01*
X148033544Y-84375024D01*
X148234024Y-84412500D01*
X148234026Y-84412500D01*
X148437974Y-84412500D01*
X148437976Y-84412500D01*
X148638456Y-84375024D01*
X148677586Y-84359865D01*
X148747209Y-84354002D01*
X148808950Y-84386711D01*
X148810062Y-84387810D01*
X149032271Y-84610019D01*
X149065756Y-84671342D01*
X149060772Y-84741034D01*
X149018900Y-84796967D01*
X148953436Y-84821384D01*
X148944590Y-84821700D01*
X146150182Y-84821700D01*
X146041963Y-84850697D01*
X146041960Y-84850698D01*
X146031317Y-84856843D01*
X145963416Y-84873313D01*
X145897390Y-84850459D01*
X145854201Y-84795537D01*
X145847562Y-84725983D01*
X145850048Y-84715542D01*
X145866397Y-84658083D01*
X145885215Y-84455000D01*
X145866397Y-84251917D01*
X145810582Y-84055750D01*
X145804887Y-84044313D01*
X145729951Y-83893821D01*
X145719673Y-83873179D01*
X145653694Y-83785808D01*
X145596762Y-83710418D01*
X145446041Y-83573019D01*
X145446039Y-83573017D01*
X145267763Y-83462634D01*
X145268620Y-83461248D01*
X145222987Y-83418934D01*
X145205500Y-83355444D01*
X145205500Y-81996499D01*
X145225185Y-81929460D01*
X145277989Y-81883705D01*
X145329500Y-81872499D01*
X145624856Y-81872499D01*
X145624864Y-81872499D01*
X145624879Y-81872497D01*
X145624882Y-81872497D01*
X145649987Y-81869586D01*
X145649988Y-81869585D01*
X145649991Y-81869585D01*
X145752765Y-81824206D01*
X145832206Y-81744765D01*
X145877585Y-81641991D01*
X145880500Y-81616865D01*
X145880500Y-81361500D01*
X145900185Y-81294461D01*
X145952989Y-81248706D01*
X146004500Y-81237500D01*
X147241712Y-81237500D01*
X147308751Y-81257185D01*
X147352710Y-81306225D01*
X147396327Y-81393821D01*
X147440414Y-81452202D01*
X147519237Y-81556581D01*
X147669958Y-81693980D01*
X147669960Y-81693982D01*
X147751978Y-81744765D01*
X147843363Y-81801348D01*
X148033544Y-81875024D01*
X148234024Y-81912500D01*
X148234026Y-81912500D01*
X148437974Y-81912500D01*
X148437976Y-81912500D01*
X148638456Y-81875024D01*
X148828637Y-81801348D01*
X149002041Y-81693981D01*
X149152764Y-81556579D01*
X149275673Y-81393821D01*
X149366582Y-81211250D01*
X149422397Y-81015083D01*
X149441215Y-80812000D01*
X149437508Y-80771999D01*
X149422397Y-80608917D01*
X149389858Y-80494557D01*
X149366582Y-80412750D01*
X149348032Y-80375497D01*
X149291767Y-80262500D01*
X149275673Y-80230179D01*
X149152764Y-80067421D01*
X149152762Y-80067418D01*
X149002041Y-79930019D01*
X149002039Y-79930017D01*
X148828642Y-79822655D01*
X148828635Y-79822651D01*
X148725382Y-79782651D01*
X148638456Y-79748976D01*
X148437976Y-79711500D01*
X148234024Y-79711500D01*
X148033544Y-79748976D01*
X148033541Y-79748976D01*
X148033541Y-79748977D01*
X147843364Y-79822651D01*
X147843357Y-79822655D01*
X147669960Y-79930017D01*
X147669958Y-79930019D01*
X147519237Y-80067418D01*
X147396329Y-80230176D01*
X147396327Y-80230179D01*
X147352710Y-80317774D01*
X147305210Y-80369008D01*
X147241712Y-80386500D01*
X146004499Y-80386500D01*
X145937460Y-80366815D01*
X145891705Y-80314011D01*
X145880499Y-80262500D01*
X145880499Y-79927143D01*
X145880499Y-79927136D01*
X145880497Y-79927117D01*
X145877586Y-79902012D01*
X145877585Y-79902010D01*
X145877585Y-79902009D01*
X145832206Y-79799235D01*
X145752765Y-79719794D01*
X145728267Y-79708977D01*
X145649992Y-79674415D01*
X145624865Y-79671500D01*
X143935143Y-79671500D01*
X143935117Y-79671502D01*
X143910012Y-79674413D01*
X143910008Y-79674415D01*
X143807235Y-79719793D01*
X143727794Y-79799234D01*
X143682415Y-79902006D01*
X143682415Y-79902008D01*
X143679500Y-79927131D01*
X143679500Y-81616856D01*
X143679502Y-81616882D01*
X143682413Y-81641987D01*
X143682415Y-81641991D01*
X143727793Y-81744764D01*
X143727794Y-81744765D01*
X143807235Y-81824206D01*
X143910009Y-81869585D01*
X143935135Y-81872500D01*
X144230501Y-81872499D01*
X144297539Y-81892183D01*
X144343294Y-81944987D01*
X144354500Y-81996499D01*
X144354500Y-83355444D01*
X144334815Y-83422483D01*
X144291447Y-83461359D01*
X144292237Y-83462634D01*
X144113960Y-83573017D01*
X144113958Y-83573019D01*
X143963237Y-83710418D01*
X143840327Y-83873178D01*
X143749422Y-84055739D01*
X143749417Y-84055752D01*
X143693602Y-84251917D01*
X143674785Y-84454999D01*
X143674785Y-84455000D01*
X143693602Y-84658082D01*
X143749417Y-84854247D01*
X143749422Y-84854260D01*
X143809807Y-84975528D01*
X143822068Y-85044314D01*
X143795195Y-85108809D01*
X143737719Y-85148536D01*
X143698807Y-85154800D01*
X139638210Y-85154800D01*
X139571171Y-85135115D01*
X139550529Y-85118481D01*
X138546565Y-84114517D01*
X138546563Y-84114515D01*
X138449537Y-84058497D01*
X138341318Y-84029500D01*
X138341317Y-84029500D01*
X138254288Y-84029500D01*
X138187249Y-84009815D01*
X138143289Y-83960774D01*
X138099673Y-83873179D01*
X137981206Y-83716303D01*
X137976762Y-83710418D01*
X137826041Y-83573019D01*
X137826039Y-83573017D01*
X137652642Y-83465655D01*
X137652635Y-83465651D01*
X137505244Y-83408552D01*
X137462456Y-83391976D01*
X137261976Y-83354500D01*
X137058024Y-83354500D01*
X136857544Y-83391976D01*
X136857541Y-83391976D01*
X136857541Y-83391977D01*
X136667364Y-83465651D01*
X136667357Y-83465655D01*
X136493960Y-83573017D01*
X136493958Y-83573019D01*
X136343237Y-83710418D01*
X136235641Y-83852900D01*
X136220327Y-83873179D01*
X136176710Y-83960774D01*
X136129210Y-84012008D01*
X136065712Y-84029500D01*
X136009018Y-84029500D01*
X135952999Y-84029498D01*
X135952998Y-84029498D01*
X135952973Y-84029498D01*
X135952943Y-84029502D01*
X135952183Y-84029713D01*
X135897700Y-84044312D01*
X135897696Y-84044313D01*
X135844772Y-84058492D01*
X135844763Y-84058496D01*
X135844763Y-84058497D01*
X135840522Y-84060945D01*
X135797129Y-84085995D01*
X135797130Y-84085996D01*
X135747743Y-84114508D01*
X135747741Y-84114510D01*
X135712334Y-84149916D01*
X135712332Y-84149918D01*
X135012176Y-84850014D01*
X134950852Y-84883496D01*
X134881160Y-84878509D01*
X134825229Y-84836635D01*
X134800815Y-84771170D01*
X134800499Y-84762329D01*
X134800499Y-83969031D01*
X134800499Y-83969024D01*
X134799542Y-83960771D01*
X134797586Y-83943900D01*
X134797585Y-83943898D01*
X134797585Y-83943897D01*
X134752206Y-83841123D01*
X134672765Y-83761682D01*
X134662664Y-83757222D01*
X134569992Y-83716303D01*
X134544865Y-83713388D01*
X123455143Y-83713388D01*
X123455117Y-83713390D01*
X123430012Y-83716301D01*
X123430008Y-83716303D01*
X123327235Y-83761681D01*
X123247794Y-83841122D01*
X123202415Y-83943894D01*
X123202415Y-83943896D01*
X123199500Y-83969019D01*
X123199500Y-87308744D01*
X123199502Y-87308770D01*
X123202413Y-87333875D01*
X123202415Y-87333879D01*
X123247793Y-87436652D01*
X123247794Y-87436653D01*
X123327235Y-87516094D01*
X123430009Y-87561473D01*
X123455135Y-87564388D01*
X134544864Y-87564387D01*
X134544879Y-87564385D01*
X134544882Y-87564385D01*
X134569987Y-87561474D01*
X134569988Y-87561473D01*
X134569991Y-87561473D01*
X134672765Y-87516094D01*
X134752206Y-87436653D01*
X134797585Y-87333879D01*
X134800500Y-87308753D01*
X134800500Y-86181123D01*
X134820185Y-86114084D01*
X134872989Y-86068329D01*
X134892404Y-86061348D01*
X134910647Y-86056460D01*
X134938988Y-86048867D01*
X134938991Y-86048866D01*
X134945308Y-86047173D01*
X134985455Y-86036418D01*
X134989604Y-86035449D01*
X134990098Y-86035190D01*
X134994384Y-86032430D01*
X135040511Y-86005800D01*
X135083104Y-85981211D01*
X135086497Y-85979386D01*
X135086534Y-85979357D01*
X135089583Y-85976064D01*
X135121666Y-85943981D01*
X136037209Y-85028514D01*
X136098533Y-84995034D01*
X136168224Y-85000021D01*
X136223840Y-85041474D01*
X136343237Y-85199580D01*
X136493958Y-85336980D01*
X136493960Y-85336982D01*
X136593141Y-85398392D01*
X136667363Y-85444348D01*
X136857544Y-85518024D01*
X137058024Y-85555500D01*
X137058026Y-85555500D01*
X137261974Y-85555500D01*
X137261976Y-85555500D01*
X137462456Y-85518024D01*
X137652637Y-85444348D01*
X137826041Y-85336981D01*
X137976764Y-85199579D01*
X138085092Y-85056128D01*
X138141201Y-85014493D01*
X138210913Y-85009802D01*
X138271727Y-85043175D01*
X139070115Y-85841563D01*
X139149337Y-85920785D01*
X139246363Y-85976803D01*
X139354582Y-86005800D01*
X139354584Y-86005800D01*
X145929116Y-86005800D01*
X145929118Y-86005800D01*
X146037337Y-85976803D01*
X146134363Y-85920785D01*
X146346129Y-85709019D01*
X146407452Y-85675534D01*
X146433810Y-85672700D01*
X147344202Y-85672700D01*
X147411241Y-85692385D01*
X147456996Y-85745189D01*
X147466940Y-85814347D01*
X147455202Y-85851972D01*
X147369422Y-86024239D01*
X147369417Y-86024252D01*
X147313602Y-86220417D01*
X147294785Y-86423499D01*
X147294785Y-86423500D01*
X147313602Y-86626582D01*
X147313603Y-86626584D01*
X147356028Y-86775692D01*
X147355441Y-86845559D01*
X147324443Y-86897307D01*
X146078061Y-88143689D01*
X146016738Y-88177174D01*
X145947046Y-88172190D01*
X145891113Y-88130318D01*
X145866909Y-88067445D01*
X145866397Y-88061917D01*
X145810582Y-87865750D01*
X145807956Y-87860477D01*
X145766272Y-87776764D01*
X145719673Y-87683179D01*
X145596764Y-87520421D01*
X145596762Y-87520418D01*
X145446041Y-87383019D01*
X145446039Y-87383017D01*
X145272642Y-87275655D01*
X145272635Y-87275651D01*
X145177546Y-87238814D01*
X145082456Y-87201976D01*
X144881976Y-87164500D01*
X144678024Y-87164500D01*
X144477544Y-87201976D01*
X144477541Y-87201976D01*
X144477541Y-87201977D01*
X144287364Y-87275651D01*
X144287357Y-87275655D01*
X144113960Y-87383017D01*
X144113958Y-87383019D01*
X143963237Y-87520418D01*
X143840327Y-87683178D01*
X143749422Y-87865739D01*
X143749417Y-87865752D01*
X143693602Y-88061917D01*
X143674785Y-88264999D01*
X143674785Y-88265000D01*
X143693602Y-88468082D01*
X143749417Y-88664247D01*
X143749422Y-88664260D01*
X143840327Y-88846821D01*
X143963237Y-89009581D01*
X144113958Y-89146980D01*
X144113960Y-89146982D01*
X144213141Y-89208392D01*
X144287363Y-89254348D01*
X144398793Y-89297516D01*
X144450708Y-89317628D01*
X144477544Y-89328024D01*
X144596945Y-89350343D01*
X144659223Y-89382010D01*
X144694497Y-89442322D01*
X144691564Y-89512130D01*
X144661840Y-89559912D01*
X144518737Y-89703015D01*
X144439517Y-89782234D01*
X144439513Y-89782240D01*
X144383498Y-89879260D01*
X144383497Y-89879263D01*
X144354500Y-89987482D01*
X144354500Y-90975444D01*
X144334815Y-91042483D01*
X144291447Y-91081359D01*
X144292237Y-91082634D01*
X144113960Y-91193017D01*
X144113958Y-91193019D01*
X143963237Y-91330418D01*
X143840327Y-91493178D01*
X143749422Y-91675739D01*
X143749417Y-91675752D01*
X143693602Y-91871917D01*
X143674785Y-92074999D01*
X143674785Y-92075000D01*
X143693602Y-92278082D01*
X143749417Y-92474247D01*
X143749422Y-92474260D01*
X143840327Y-92656821D01*
X143963237Y-92819581D01*
X144113958Y-92956980D01*
X144113960Y-92956982D01*
X144119994Y-92960718D01*
X144287363Y-93064348D01*
X144477544Y-93138024D01*
X144678024Y-93175500D01*
X144678026Y-93175500D01*
X144881974Y-93175500D01*
X144881976Y-93175500D01*
X145082456Y-93138024D01*
X145121586Y-93122865D01*
X145191209Y-93117002D01*
X145252950Y-93149711D01*
X145254062Y-93150810D01*
X148773181Y-96669928D01*
X148806666Y-96731251D01*
X148809500Y-96757609D01*
X148809500Y-97314856D01*
X148809502Y-97314882D01*
X148812413Y-97339987D01*
X148812415Y-97339991D01*
X148857793Y-97442764D01*
X148857794Y-97442765D01*
X148937235Y-97522206D01*
X149040009Y-97567585D01*
X149065135Y-97570500D01*
X150385800Y-97570499D01*
X150452839Y-97590184D01*
X150498594Y-97642987D01*
X150509800Y-97694499D01*
X150509800Y-98305089D01*
X150490115Y-98372128D01*
X150473481Y-98392770D01*
X150253040Y-98613210D01*
X150191717Y-98646695D01*
X150129365Y-98644190D01*
X150056132Y-98621976D01*
X149860000Y-98602659D01*
X149663870Y-98621975D01*
X149475266Y-98679188D01*
X149301467Y-98772086D01*
X149301460Y-98772090D01*
X149149116Y-98897116D01*
X149024090Y-99049460D01*
X149024086Y-99049467D01*
X148941512Y-99203953D01*
X148892550Y-99253797D01*
X148832154Y-99269500D01*
X145874288Y-99269500D01*
X145807249Y-99249815D01*
X145763289Y-99200774D01*
X145719673Y-99113179D01*
X145596764Y-98950421D01*
X145596762Y-98950418D01*
X145446041Y-98813019D01*
X145446039Y-98813017D01*
X145272642Y-98705655D01*
X145272635Y-98705651D01*
X145113984Y-98644190D01*
X145082456Y-98631976D01*
X144881976Y-98594500D01*
X144678024Y-98594500D01*
X144477544Y-98631976D01*
X144477541Y-98631976D01*
X144477541Y-98631977D01*
X144287364Y-98705651D01*
X144287357Y-98705655D01*
X144113960Y-98813017D01*
X144113958Y-98813019D01*
X143963237Y-98950418D01*
X143840327Y-99113178D01*
X143749422Y-99295739D01*
X143749417Y-99295752D01*
X143693602Y-99491917D01*
X143674785Y-99694999D01*
X143674785Y-99695000D01*
X143693602Y-99898082D01*
X143749417Y-100094247D01*
X143749422Y-100094260D01*
X143840327Y-100276821D01*
X143963235Y-100439578D01*
X143963236Y-100439580D01*
X144113958Y-100576980D01*
X144113960Y-100576982D01*
X144156493Y-100603317D01*
X144287363Y-100684348D01*
X144477544Y-100758024D01*
X144678024Y-100795500D01*
X144678026Y-100795500D01*
X144881974Y-100795500D01*
X144881976Y-100795500D01*
X145082456Y-100758024D01*
X145272637Y-100684348D01*
X145446041Y-100576981D01*
X145596764Y-100439579D01*
X145719673Y-100276821D01*
X145763289Y-100189225D01*
X145810790Y-100137992D01*
X145874288Y-100120500D01*
X148927660Y-100120500D01*
X148994699Y-100140185D01*
X149023513Y-100165835D01*
X149059623Y-100209835D01*
X149086936Y-100274145D01*
X149075145Y-100343012D01*
X149027993Y-100394573D01*
X148963770Y-100412500D01*
X148787981Y-100412500D01*
X148686924Y-100439577D01*
X148686921Y-100439579D01*
X148679763Y-100441497D01*
X148679762Y-100441497D01*
X148679760Y-100441498D01*
X148679759Y-100441498D01*
X148582740Y-100497512D01*
X148582734Y-100497517D01*
X148503513Y-100576739D01*
X147791296Y-101288955D01*
X147791295Y-101288955D01*
X147791296Y-101288956D01*
X147729514Y-101350738D01*
X147729513Y-101350740D01*
X147673498Y-101447760D01*
X147673497Y-101447763D01*
X147644500Y-101555982D01*
X147644500Y-107468390D01*
X147624815Y-107535429D01*
X147608181Y-107556071D01*
X146805071Y-108359181D01*
X146743748Y-108392666D01*
X146717390Y-108395500D01*
X145861343Y-108395500D01*
X145794304Y-108375815D01*
X145748549Y-108323011D01*
X145738605Y-108253853D01*
X145750343Y-108216229D01*
X145810575Y-108095265D01*
X145810576Y-108095260D01*
X145810582Y-108095250D01*
X145866397Y-107899083D01*
X145885215Y-107696000D01*
X145866397Y-107492917D01*
X145810582Y-107296750D01*
X145808238Y-107292043D01*
X145724655Y-107124185D01*
X145719673Y-107114179D01*
X145596764Y-106951421D01*
X145596762Y-106951418D01*
X145446041Y-106814019D01*
X145446039Y-106814017D01*
X145267763Y-106703634D01*
X145268620Y-106702248D01*
X145222987Y-106659934D01*
X145205500Y-106596444D01*
X145205500Y-104731555D01*
X145225185Y-104664516D01*
X145268555Y-104625645D01*
X145267763Y-104624366D01*
X145446039Y-104513982D01*
X145446038Y-104513982D01*
X145446041Y-104513981D01*
X145596764Y-104376579D01*
X145719673Y-104213821D01*
X145810582Y-104031250D01*
X145866397Y-103835083D01*
X145885215Y-103632000D01*
X145884023Y-103619141D01*
X145866397Y-103428917D01*
X145859511Y-103404715D01*
X145810582Y-103232750D01*
X145719673Y-103050179D01*
X145639425Y-102943913D01*
X145596762Y-102887418D01*
X145446041Y-102750019D01*
X145446039Y-102750017D01*
X145267763Y-102639634D01*
X145268620Y-102638248D01*
X145222987Y-102595934D01*
X145205500Y-102532444D01*
X145205500Y-102450684D01*
X145205500Y-102450682D01*
X145176503Y-102342463D01*
X145120485Y-102245437D01*
X145041263Y-102166215D01*
X140161819Y-97286771D01*
X140128334Y-97225448D01*
X140125500Y-97199090D01*
X140125500Y-95885000D01*
X143674785Y-95885000D01*
X143693602Y-96088082D01*
X143749417Y-96284247D01*
X143749422Y-96284260D01*
X143840327Y-96466821D01*
X143963237Y-96629581D01*
X144113958Y-96766980D01*
X144113960Y-96766982D01*
X144213141Y-96828392D01*
X144287363Y-96874348D01*
X144477544Y-96948024D01*
X144678024Y-96985500D01*
X144678026Y-96985500D01*
X144881974Y-96985500D01*
X144881976Y-96985500D01*
X145082456Y-96948024D01*
X145272637Y-96874348D01*
X145446041Y-96766981D01*
X145596764Y-96629579D01*
X145719673Y-96466821D01*
X145810582Y-96284250D01*
X145866397Y-96088083D01*
X145885215Y-95885000D01*
X145874891Y-95773589D01*
X145866397Y-95681917D01*
X145835731Y-95574140D01*
X145810582Y-95485750D01*
X145810059Y-95484700D01*
X145740746Y-95345500D01*
X145719673Y-95303179D01*
X145596764Y-95140421D01*
X145596762Y-95140418D01*
X145446041Y-95003019D01*
X145446039Y-95003017D01*
X145272642Y-94895655D01*
X145272635Y-94895651D01*
X145135094Y-94842368D01*
X145082456Y-94821976D01*
X144881976Y-94784500D01*
X144678024Y-94784500D01*
X144477544Y-94821976D01*
X144477541Y-94821976D01*
X144477541Y-94821977D01*
X144287364Y-94895651D01*
X144287357Y-94895655D01*
X144113960Y-95003017D01*
X144113958Y-95003019D01*
X143963237Y-95140418D01*
X143840327Y-95303178D01*
X143749422Y-95485739D01*
X143749417Y-95485752D01*
X143693602Y-95681917D01*
X143674785Y-95884999D01*
X143674785Y-95885000D01*
X140125500Y-95885000D01*
X140125500Y-89121684D01*
X140125500Y-89121682D01*
X140096503Y-89013463D01*
X140040485Y-88916437D01*
X139961263Y-88837215D01*
X139961262Y-88837214D01*
X139956932Y-88832884D01*
X139956921Y-88832874D01*
X137860365Y-86736317D01*
X137860364Y-86736316D01*
X137860363Y-86736315D01*
X137795679Y-86698969D01*
X137763339Y-86680298D01*
X137763338Y-86680297D01*
X137763337Y-86680297D01*
X137655118Y-86651300D01*
X136740419Y-86651300D01*
X136628382Y-86651300D01*
X136520163Y-86680297D01*
X136520160Y-86680298D01*
X136423140Y-86736313D01*
X136423134Y-86736317D01*
X136175342Y-86984109D01*
X136174744Y-86984790D01*
X134928310Y-88230784D01*
X134866981Y-88264258D01*
X134797290Y-88259261D01*
X134752963Y-88230768D01*
X134672765Y-88150570D01*
X134569992Y-88105191D01*
X134544865Y-88102276D01*
X123455143Y-88102276D01*
X123455117Y-88102278D01*
X123430012Y-88105189D01*
X123430008Y-88105191D01*
X123327235Y-88150569D01*
X123247794Y-88230010D01*
X123202415Y-88332782D01*
X123202415Y-88332784D01*
X123199500Y-88357907D01*
X123199500Y-91697632D01*
X123199502Y-91697658D01*
X123202413Y-91722763D01*
X123202415Y-91722767D01*
X123247793Y-91825540D01*
X123247794Y-91825541D01*
X123327235Y-91904982D01*
X123430009Y-91950361D01*
X123455135Y-91953276D01*
X134544864Y-91953275D01*
X134544879Y-91953273D01*
X134544882Y-91953273D01*
X134569987Y-91950362D01*
X134569988Y-91950361D01*
X134569991Y-91950361D01*
X134672765Y-91904982D01*
X134752206Y-91825541D01*
X134797585Y-91722767D01*
X134800500Y-91697641D01*
X134800500Y-90570022D01*
X134820185Y-90502983D01*
X134872989Y-90457228D01*
X134892396Y-90450251D01*
X134989237Y-90424303D01*
X135086263Y-90368285D01*
X135165485Y-90289063D01*
X135221503Y-90192037D01*
X135250500Y-90083818D01*
X135250500Y-89163367D01*
X135270185Y-89096328D01*
X135286830Y-89075673D01*
X135884776Y-88477938D01*
X135946101Y-88444467D01*
X136015792Y-88449464D01*
X136071718Y-88491345D01*
X136091704Y-88531703D01*
X136129417Y-88664247D01*
X136129422Y-88664260D01*
X136220327Y-88846821D01*
X136343237Y-89009581D01*
X136493958Y-89146980D01*
X136493960Y-89146982D01*
X136672237Y-89257366D01*
X136671375Y-89258756D01*
X136716998Y-89301041D01*
X136734500Y-89364555D01*
X136734500Y-90975444D01*
X136714815Y-91042483D01*
X136671447Y-91081359D01*
X136672237Y-91082634D01*
X136493960Y-91193017D01*
X136493958Y-91193019D01*
X136343237Y-91330418D01*
X136220327Y-91493178D01*
X136129422Y-91675739D01*
X136129417Y-91675752D01*
X136073602Y-91871917D01*
X136054785Y-92074999D01*
X136054785Y-92075000D01*
X136073602Y-92278082D01*
X136129417Y-92474247D01*
X136129422Y-92474260D01*
X136220327Y-92656821D01*
X136343237Y-92819581D01*
X136493958Y-92956980D01*
X136493960Y-92956982D01*
X136672237Y-93067366D01*
X136671375Y-93068756D01*
X136716998Y-93111041D01*
X136734500Y-93174555D01*
X136734500Y-94785444D01*
X136714815Y-94852483D01*
X136671447Y-94891359D01*
X136672237Y-94892634D01*
X136493960Y-95003017D01*
X136493958Y-95003019D01*
X136343237Y-95140418D01*
X136220327Y-95303178D01*
X136129422Y-95485739D01*
X136129417Y-95485752D01*
X136073602Y-95681917D01*
X136054785Y-95884999D01*
X136054785Y-95885000D01*
X136073602Y-96088082D01*
X136129417Y-96284247D01*
X136129422Y-96284260D01*
X136220327Y-96466821D01*
X136343237Y-96629581D01*
X136493958Y-96766980D01*
X136493960Y-96766982D01*
X136672237Y-96877366D01*
X136671375Y-96878756D01*
X136716998Y-96921041D01*
X136734500Y-96984555D01*
X136734500Y-98256000D01*
X136714815Y-98323039D01*
X136662011Y-98368794D01*
X136610500Y-98380000D01*
X134924499Y-98380000D01*
X134857460Y-98360315D01*
X134811705Y-98307511D01*
X134800499Y-98256000D01*
X134800499Y-97135695D01*
X134800499Y-97135688D01*
X134800497Y-97135669D01*
X134797586Y-97110564D01*
X134797585Y-97110562D01*
X134797585Y-97110561D01*
X134752206Y-97007787D01*
X134672765Y-96928346D01*
X134656221Y-96921041D01*
X134569992Y-96882967D01*
X134544865Y-96880052D01*
X123455143Y-96880052D01*
X123455117Y-96880054D01*
X123430012Y-96882965D01*
X123430008Y-96882967D01*
X123327235Y-96928345D01*
X123247794Y-97007786D01*
X123202415Y-97110558D01*
X123202415Y-97110560D01*
X123199500Y-97135683D01*
X123199500Y-100475408D01*
X123199502Y-100475434D01*
X123202413Y-100500539D01*
X123202415Y-100500543D01*
X123247793Y-100603316D01*
X123247794Y-100603317D01*
X123327235Y-100682758D01*
X123430009Y-100728137D01*
X123455135Y-100731052D01*
X134544864Y-100731051D01*
X134544879Y-100731049D01*
X134544882Y-100731049D01*
X134569987Y-100728138D01*
X134569988Y-100728137D01*
X134569991Y-100728137D01*
X134672765Y-100682758D01*
X134752206Y-100603317D01*
X134797585Y-100500543D01*
X134800500Y-100475417D01*
X134800500Y-99355000D01*
X134820185Y-99287961D01*
X134872989Y-99242206D01*
X134924500Y-99231000D01*
X135983639Y-99231000D01*
X136050678Y-99250685D01*
X136096433Y-99303489D01*
X136106377Y-99372647D01*
X136102907Y-99388924D01*
X136088009Y-99441283D01*
X136073602Y-99491918D01*
X136054785Y-99694999D01*
X136054785Y-99695000D01*
X136073602Y-99898082D01*
X136129417Y-100094247D01*
X136129422Y-100094260D01*
X136220327Y-100276821D01*
X136343235Y-100439578D01*
X136343236Y-100439580D01*
X136493958Y-100576980D01*
X136493960Y-100576982D01*
X136672237Y-100687366D01*
X136671375Y-100688756D01*
X136716998Y-100731041D01*
X136734500Y-100794555D01*
X136734500Y-102532444D01*
X136714815Y-102599483D01*
X136671447Y-102638359D01*
X136672237Y-102639634D01*
X136493960Y-102750017D01*
X136493958Y-102750019D01*
X136343237Y-102887418D01*
X136220327Y-103050178D01*
X136129422Y-103232739D01*
X136129417Y-103232752D01*
X136073602Y-103428917D01*
X136063041Y-103542901D01*
X136037255Y-103607838D01*
X135980455Y-103648526D01*
X135910674Y-103652046D01*
X135851889Y-103619141D01*
X135086265Y-102853517D01*
X135086263Y-102853515D01*
X134989239Y-102797498D01*
X134989238Y-102797497D01*
X134892405Y-102771551D01*
X134832745Y-102735185D01*
X134802216Y-102672338D01*
X134800499Y-102651776D01*
X134800499Y-101524583D01*
X134800499Y-101524576D01*
X134799734Y-101517979D01*
X134797586Y-101499452D01*
X134797585Y-101499450D01*
X134797585Y-101499449D01*
X134752206Y-101396675D01*
X134672765Y-101317234D01*
X134672763Y-101317233D01*
X134569992Y-101271855D01*
X134544865Y-101268940D01*
X123455143Y-101268940D01*
X123455117Y-101268942D01*
X123430012Y-101271853D01*
X123430008Y-101271855D01*
X123327235Y-101317233D01*
X123247794Y-101396674D01*
X123202415Y-101499446D01*
X123202415Y-101499448D01*
X123199500Y-101524571D01*
X123199500Y-104864296D01*
X123199502Y-104864322D01*
X123202413Y-104889427D01*
X123202415Y-104889431D01*
X123247793Y-104992204D01*
X123247794Y-104992205D01*
X123327235Y-105071646D01*
X123430009Y-105117025D01*
X123455135Y-105119940D01*
X134544864Y-105119939D01*
X134544879Y-105119937D01*
X134544882Y-105119937D01*
X134569987Y-105117026D01*
X134569988Y-105117025D01*
X134569991Y-105117025D01*
X134672765Y-105071646D01*
X134752206Y-104992205D01*
X134797585Y-104889431D01*
X134800500Y-104864305D01*
X134800499Y-104070608D01*
X134820183Y-104003570D01*
X134872987Y-103957815D01*
X134942146Y-103947871D01*
X135005702Y-103976896D01*
X135012180Y-103982928D01*
X135573181Y-104543929D01*
X135606666Y-104605252D01*
X135609500Y-104631610D01*
X135609500Y-107466390D01*
X135589815Y-107533429D01*
X135537011Y-107579184D01*
X135467853Y-107589128D01*
X135404297Y-107560103D01*
X135397819Y-107554071D01*
X135086265Y-107242517D01*
X135086263Y-107242515D01*
X134989239Y-107186498D01*
X134989238Y-107186497D01*
X134892405Y-107160551D01*
X134832745Y-107124185D01*
X134802216Y-107061338D01*
X134800499Y-107040776D01*
X134800499Y-105913471D01*
X134800499Y-105913464D01*
X134799217Y-105902410D01*
X134797586Y-105888340D01*
X134797585Y-105888338D01*
X134797585Y-105888337D01*
X134752206Y-105785563D01*
X134672765Y-105706122D01*
X134672763Y-105706121D01*
X134569992Y-105660743D01*
X134544865Y-105657828D01*
X123455143Y-105657828D01*
X123455117Y-105657830D01*
X123430012Y-105660741D01*
X123430008Y-105660743D01*
X123327235Y-105706121D01*
X123247794Y-105785562D01*
X123202415Y-105888334D01*
X123202415Y-105888336D01*
X123199500Y-105913459D01*
X123199500Y-109253184D01*
X123199502Y-109253210D01*
X123202413Y-109278315D01*
X123202415Y-109278319D01*
X123247793Y-109381092D01*
X123247794Y-109381093D01*
X123327235Y-109460534D01*
X123430009Y-109505913D01*
X123455135Y-109508828D01*
X134544864Y-109508827D01*
X134544879Y-109508825D01*
X134544882Y-109508825D01*
X134569987Y-109505914D01*
X134569988Y-109505913D01*
X134569991Y-109505913D01*
X134672765Y-109460534D01*
X134752206Y-109381093D01*
X134797585Y-109278319D01*
X134800500Y-109253193D01*
X134800499Y-108459608D01*
X134820183Y-108392570D01*
X134872987Y-108346815D01*
X134942146Y-108336871D01*
X135005702Y-108365896D01*
X135012180Y-108371928D01*
X135722515Y-109082263D01*
X135801737Y-109161485D01*
X135898763Y-109217503D01*
X136006981Y-109246500D01*
X136006982Y-109246500D01*
X136006983Y-109246500D01*
X147001016Y-109246500D01*
X147001018Y-109246500D01*
X147109237Y-109217503D01*
X147206263Y-109161485D01*
X148209928Y-108157818D01*
X148271251Y-108124334D01*
X148297609Y-108121500D01*
X149329962Y-108121500D01*
X149397001Y-108141185D01*
X149439320Y-108187047D01*
X149490310Y-108282444D01*
X149490315Y-108282450D01*
X149621589Y-108442410D01*
X149718209Y-108521702D01*
X149781550Y-108573685D01*
X149964046Y-108671232D01*
X150162066Y-108731300D01*
X150162065Y-108731300D01*
X150236152Y-108738597D01*
X150300939Y-108764758D01*
X150341298Y-108821792D01*
X150344415Y-108891592D01*
X150309300Y-108951997D01*
X150247103Y-108983828D01*
X150223998Y-108986000D01*
X149570155Y-108986000D01*
X149510627Y-108992401D01*
X149510620Y-108992403D01*
X149375913Y-109042645D01*
X149375906Y-109042649D01*
X149260812Y-109128809D01*
X149260809Y-109128812D01*
X149174649Y-109243906D01*
X149174645Y-109243913D01*
X149124403Y-109378620D01*
X149124401Y-109378627D01*
X149118000Y-109438155D01*
X149118000Y-109986000D01*
X150052314Y-109986000D01*
X150047920Y-109990394D01*
X149995259Y-110081606D01*
X149968000Y-110183339D01*
X149968000Y-110288661D01*
X149995259Y-110390394D01*
X150047920Y-110481606D01*
X150052314Y-110486000D01*
X149118000Y-110486000D01*
X149118000Y-111033844D01*
X149124401Y-111093372D01*
X149124403Y-111093379D01*
X149174645Y-111228086D01*
X149174649Y-111228093D01*
X149260809Y-111343187D01*
X149260812Y-111343190D01*
X149375906Y-111429350D01*
X149375913Y-111429354D01*
X149510620Y-111479596D01*
X149510627Y-111479598D01*
X149570155Y-111485999D01*
X149570172Y-111486000D01*
X150118000Y-111486000D01*
X150118000Y-110551686D01*
X150122394Y-110556080D01*
X150213606Y-110608741D01*
X150315339Y-110636000D01*
X150420661Y-110636000D01*
X150522394Y-110608741D01*
X150613606Y-110556080D01*
X150618000Y-110551686D01*
X150618000Y-111486000D01*
X150947700Y-111486000D01*
X151014739Y-111505685D01*
X151060494Y-111558489D01*
X151071700Y-111610000D01*
X151071700Y-112983189D01*
X151052015Y-113050228D01*
X151035381Y-113070870D01*
X148850061Y-115256189D01*
X148788738Y-115289674D01*
X148719046Y-115284690D01*
X148717587Y-115284135D01*
X148678460Y-115268977D01*
X148678457Y-115268976D01*
X148610051Y-115256189D01*
X148477976Y-115231500D01*
X148274024Y-115231500D01*
X148073544Y-115268976D01*
X148073541Y-115268976D01*
X148073541Y-115268977D01*
X147883364Y-115342651D01*
X147883357Y-115342655D01*
X147709960Y-115450017D01*
X147709958Y-115450019D01*
X147559237Y-115587418D01*
X147436327Y-115750178D01*
X147345422Y-115932739D01*
X147345417Y-115932752D01*
X147289602Y-116128917D01*
X147270785Y-116331999D01*
X147270785Y-116332000D01*
X147289602Y-116535082D01*
X147345417Y-116731247D01*
X147345422Y-116731260D01*
X147436327Y-116913821D01*
X147559237Y-117076581D01*
X147709958Y-117213980D01*
X147709960Y-117213982D01*
X147783218Y-117259341D01*
X147883363Y-117321348D01*
X148073544Y-117395024D01*
X148274024Y-117432500D01*
X148274026Y-117432500D01*
X148477974Y-117432500D01*
X148477976Y-117432500D01*
X148678456Y-117395024D01*
X148868637Y-117321348D01*
X149042041Y-117213981D01*
X149177531Y-117090466D01*
X149192762Y-117076581D01*
X149192764Y-117076579D01*
X149315673Y-116913821D01*
X149406582Y-116731250D01*
X149462397Y-116535083D01*
X149481215Y-116332000D01*
X149462397Y-116128917D01*
X149419970Y-115979803D01*
X149420556Y-115909940D01*
X149451553Y-115858193D01*
X149835180Y-115474566D01*
X149896502Y-115441082D01*
X149966194Y-115446066D01*
X150022127Y-115487938D01*
X150046544Y-115553402D01*
X150031692Y-115621675D01*
X150021814Y-115636974D01*
X149936328Y-115750175D01*
X149845422Y-115932739D01*
X149845417Y-115932752D01*
X149789602Y-116128917D01*
X149770785Y-116331999D01*
X149770785Y-116332000D01*
X149789602Y-116535082D01*
X149845417Y-116731247D01*
X149845422Y-116731260D01*
X149936327Y-116913821D01*
X150059237Y-117076581D01*
X150209958Y-117213980D01*
X150209960Y-117213982D01*
X150283218Y-117259341D01*
X150383363Y-117321348D01*
X150573544Y-117395024D01*
X150774024Y-117432500D01*
X150774026Y-117432500D01*
X150977974Y-117432500D01*
X150977976Y-117432500D01*
X151178456Y-117395024D01*
X151368637Y-117321348D01*
X151542041Y-117213981D01*
X151677531Y-117090466D01*
X151692762Y-117076581D01*
X151692764Y-117076579D01*
X151815673Y-116913821D01*
X151906582Y-116731250D01*
X151962397Y-116535083D01*
X151981215Y-116332000D01*
X151962397Y-116128917D01*
X151906582Y-115932750D01*
X151815673Y-115750179D01*
X151719767Y-115623179D01*
X151692762Y-115587418D01*
X151542041Y-115450019D01*
X151542039Y-115450017D01*
X151368642Y-115342655D01*
X151368635Y-115342651D01*
X151231884Y-115289674D01*
X151178456Y-115268976D01*
X150977976Y-115231500D01*
X150774024Y-115231500D01*
X150573544Y-115268976D01*
X150573541Y-115268976D01*
X150573541Y-115268977D01*
X150383364Y-115342651D01*
X150383357Y-115342655D01*
X150209960Y-115450017D01*
X150205385Y-115453473D01*
X150203905Y-115451513D01*
X150150559Y-115477488D01*
X150081176Y-115469257D01*
X150027257Y-115424821D01*
X150005922Y-115358289D01*
X150023944Y-115290783D01*
X150042200Y-115267546D01*
X151748253Y-113561492D01*
X151748258Y-113561489D01*
X151758461Y-113551285D01*
X151758463Y-113551285D01*
X151837685Y-113472063D01*
X151893703Y-113375037D01*
X151922700Y-113266818D01*
X151922700Y-103689182D01*
X151893703Y-103580963D01*
X151837685Y-103483937D01*
X151758463Y-103404715D01*
X150854788Y-102501040D01*
X150821303Y-102439717D01*
X150823808Y-102377364D01*
X150846024Y-102304132D01*
X150865341Y-102108000D01*
X150846024Y-101911868D01*
X150788814Y-101723273D01*
X150788811Y-101723269D01*
X150788811Y-101723266D01*
X150695913Y-101549467D01*
X150695909Y-101549460D01*
X150622311Y-101459781D01*
X150594998Y-101395471D01*
X150606789Y-101326603D01*
X150653941Y-101275043D01*
X150686065Y-101261343D01*
X150786237Y-101234503D01*
X150883263Y-101178485D01*
X151728585Y-100333163D01*
X151784603Y-100236137D01*
X151813600Y-100127918D01*
X151813600Y-100015882D01*
X151813600Y-91391802D01*
X151784603Y-91283583D01*
X151728585Y-91186557D01*
X151649363Y-91107335D01*
X149540927Y-88998899D01*
X149507442Y-88937576D01*
X149505137Y-88922659D01*
X149504560Y-88916437D01*
X149486397Y-88720417D01*
X149430582Y-88524250D01*
X149421769Y-88506552D01*
X149347756Y-88357912D01*
X149339673Y-88341679D01*
X149216764Y-88178921D01*
X149216762Y-88178918D01*
X149066041Y-88041519D01*
X149066039Y-88041517D01*
X148892642Y-87934155D01*
X148892635Y-87934151D01*
X148797546Y-87897314D01*
X148702456Y-87860476D01*
X148501976Y-87823000D01*
X148298024Y-87823000D01*
X148097544Y-87860476D01*
X148097541Y-87860476D01*
X148097541Y-87860477D01*
X147907364Y-87934151D01*
X147907357Y-87934155D01*
X147733960Y-88041517D01*
X147729385Y-88044973D01*
X147727908Y-88043018D01*
X147674525Y-88068990D01*
X147605145Y-88060737D01*
X147551240Y-88016284D01*
X147529926Y-87949744D01*
X147547969Y-87882245D01*
X147566203Y-87859043D01*
X147925938Y-87499308D01*
X147987259Y-87465825D01*
X148056951Y-87470809D01*
X148058410Y-87471364D01*
X148092576Y-87484599D01*
X148097544Y-87486524D01*
X148298024Y-87524000D01*
X148298026Y-87524000D01*
X148501974Y-87524000D01*
X148501976Y-87524000D01*
X148702456Y-87486524D01*
X148892637Y-87412848D01*
X149066041Y-87305481D01*
X149216764Y-87168079D01*
X149339673Y-87005321D01*
X149430582Y-86822750D01*
X149468797Y-86688438D01*
X149506076Y-86629345D01*
X149569386Y-86599788D01*
X149638625Y-86609150D01*
X149675744Y-86634692D01*
X152221781Y-89180729D01*
X152255266Y-89242052D01*
X152258100Y-89268410D01*
X152258100Y-114527582D01*
X152258100Y-114639618D01*
X152287097Y-114747837D01*
X152343115Y-114844863D01*
X152343117Y-114844865D01*
X155546824Y-118048572D01*
X155580309Y-118109895D01*
X155582614Y-118147694D01*
X155562571Y-118363999D01*
X155562571Y-118364000D01*
X155582244Y-118576310D01*
X155640596Y-118781392D01*
X155640596Y-118781394D01*
X155735632Y-118972253D01*
X155817102Y-119080135D01*
X155864128Y-119142407D01*
X156021698Y-119286052D01*
X156202981Y-119398298D01*
X156401802Y-119475321D01*
X156574544Y-119507612D01*
X156636823Y-119539279D01*
X156672096Y-119599591D01*
X156669162Y-119669400D01*
X156628953Y-119726540D01*
X156564235Y-119752871D01*
X156551757Y-119753500D01*
X155823143Y-119753500D01*
X155823117Y-119753502D01*
X155798012Y-119756413D01*
X155798008Y-119756415D01*
X155695235Y-119801793D01*
X155615794Y-119881234D01*
X155570415Y-119984006D01*
X155570415Y-119984008D01*
X155567500Y-120009131D01*
X155567500Y-120354500D01*
X155547815Y-120421539D01*
X155495011Y-120467294D01*
X155443500Y-120478500D01*
X147402610Y-120478500D01*
X147335571Y-120458815D01*
X147314929Y-120442181D01*
X144343454Y-117470706D01*
X144309969Y-117409383D01*
X144314953Y-117339691D01*
X144356825Y-117283758D01*
X144422289Y-117259341D01*
X144471925Y-117266797D01*
X144472023Y-117266454D01*
X144474694Y-117267213D01*
X144475933Y-117267400D01*
X144477544Y-117268024D01*
X144678024Y-117305500D01*
X144678026Y-117305500D01*
X144881974Y-117305500D01*
X144881976Y-117305500D01*
X145082456Y-117268024D01*
X145272637Y-117194348D01*
X145446041Y-117086981D01*
X145596764Y-116949579D01*
X145719673Y-116786821D01*
X145810582Y-116604250D01*
X145866397Y-116408083D01*
X145885215Y-116205000D01*
X145866397Y-116001917D01*
X145810582Y-115805750D01*
X145719673Y-115623179D01*
X145617544Y-115487938D01*
X145596762Y-115460418D01*
X145446041Y-115323019D01*
X145446039Y-115323017D01*
X145272642Y-115215655D01*
X145272635Y-115215651D01*
X145177546Y-115178814D01*
X145082456Y-115141976D01*
X144881976Y-115104500D01*
X144678024Y-115104500D01*
X144477544Y-115141976D01*
X144477541Y-115141976D01*
X144477541Y-115141977D01*
X144287364Y-115215651D01*
X144287357Y-115215655D01*
X144113960Y-115323017D01*
X144113958Y-115323019D01*
X143963237Y-115460418D01*
X143840327Y-115623178D01*
X143749422Y-115805739D01*
X143749417Y-115805752D01*
X143693602Y-116001917D01*
X143674785Y-116204999D01*
X143674785Y-116205000D01*
X143693602Y-116408082D01*
X143693603Y-116408084D01*
X143727091Y-116525781D01*
X143726505Y-116595648D01*
X143688238Y-116654107D01*
X143624441Y-116682597D01*
X143555368Y-116672073D01*
X143520144Y-116647396D01*
X142737265Y-115864517D01*
X142737263Y-115864515D01*
X142640237Y-115808497D01*
X142532018Y-115779500D01*
X142532017Y-115779500D01*
X138254288Y-115779500D01*
X138187249Y-115759815D01*
X138143289Y-115710774D01*
X138099673Y-115623179D01*
X137997544Y-115487938D01*
X137976762Y-115460418D01*
X137826041Y-115323019D01*
X137826039Y-115323017D01*
X137652642Y-115215655D01*
X137652635Y-115215651D01*
X137557546Y-115178814D01*
X137462456Y-115141976D01*
X137261976Y-115104500D01*
X137058024Y-115104500D01*
X136857544Y-115141976D01*
X136857541Y-115141976D01*
X136857541Y-115141977D01*
X136667364Y-115215651D01*
X136667357Y-115215655D01*
X136493960Y-115323017D01*
X136493958Y-115323019D01*
X136343237Y-115460418D01*
X136220329Y-115623176D01*
X136220327Y-115623179D01*
X136176710Y-115710774D01*
X136129210Y-115762008D01*
X136065712Y-115779500D01*
X134924499Y-115779500D01*
X134857460Y-115759815D01*
X134811705Y-115707011D01*
X134800499Y-115655500D01*
X134800499Y-114691247D01*
X134800499Y-114691240D01*
X134800497Y-114691221D01*
X134797586Y-114666116D01*
X134797585Y-114666114D01*
X134797585Y-114666113D01*
X134752206Y-114563339D01*
X134672765Y-114483898D01*
X134672763Y-114483897D01*
X134569992Y-114438519D01*
X134544865Y-114435604D01*
X123455143Y-114435604D01*
X123455117Y-114435606D01*
X123430012Y-114438517D01*
X123430008Y-114438519D01*
X123327235Y-114483897D01*
X123247794Y-114563338D01*
X123202415Y-114666110D01*
X123202415Y-114666112D01*
X123199500Y-114691235D01*
X123199500Y-118030960D01*
X122500500Y-118030960D01*
X122500500Y-112222216D01*
X123000000Y-112222216D01*
X123000000Y-113645060D01*
X123006401Y-113704588D01*
X123006403Y-113704595D01*
X123056645Y-113839302D01*
X123056649Y-113839309D01*
X123142809Y-113954403D01*
X123142812Y-113954406D01*
X123257906Y-114040566D01*
X123257913Y-114040570D01*
X123392620Y-114090812D01*
X123392627Y-114090814D01*
X123452155Y-114097215D01*
X123452172Y-114097216D01*
X128750000Y-114097216D01*
X128750000Y-112222216D01*
X129250000Y-112222216D01*
X129250000Y-114097216D01*
X134547828Y-114097216D01*
X134547844Y-114097215D01*
X134607372Y-114090814D01*
X134607379Y-114090812D01*
X134742086Y-114040570D01*
X134742093Y-114040566D01*
X134857187Y-113954406D01*
X134857190Y-113954403D01*
X134943350Y-113839309D01*
X134943354Y-113839302D01*
X134993596Y-113704595D01*
X134993598Y-113704588D01*
X134999999Y-113645060D01*
X135000000Y-113645043D01*
X135000000Y-112222216D01*
X129250000Y-112222216D01*
X128750000Y-112222216D01*
X123000000Y-112222216D01*
X122500500Y-112222216D01*
X122500500Y-111722216D01*
X123000000Y-111722216D01*
X128750000Y-111722216D01*
X128750000Y-109847216D01*
X129250000Y-109847216D01*
X129250000Y-111722216D01*
X135000000Y-111722216D01*
X135000000Y-110299388D01*
X134999999Y-110299371D01*
X134993598Y-110239843D01*
X134993596Y-110239836D01*
X134943354Y-110105129D01*
X134943350Y-110105122D01*
X134857190Y-109990028D01*
X134857187Y-109990025D01*
X134742093Y-109903865D01*
X134742086Y-109903861D01*
X134607379Y-109853619D01*
X134607372Y-109853617D01*
X134547844Y-109847216D01*
X129250000Y-109847216D01*
X128750000Y-109847216D01*
X123452155Y-109847216D01*
X123392627Y-109853617D01*
X123392620Y-109853619D01*
X123257913Y-109903861D01*
X123257906Y-109903865D01*
X123142812Y-109990025D01*
X123142809Y-109990028D01*
X123056649Y-110105122D01*
X123056645Y-110105129D01*
X123006403Y-110239836D01*
X123006401Y-110239843D01*
X123000000Y-110299371D01*
X123000000Y-111722216D01*
X122500500Y-111722216D01*
X122500500Y-96086520D01*
X123199500Y-96086520D01*
X123199502Y-96086546D01*
X123202413Y-96111651D01*
X123202415Y-96111655D01*
X123247793Y-96214428D01*
X123247794Y-96214429D01*
X123327235Y-96293870D01*
X123430009Y-96339249D01*
X123455135Y-96342164D01*
X134544864Y-96342163D01*
X134544879Y-96342161D01*
X134544882Y-96342161D01*
X134569987Y-96339250D01*
X134569988Y-96339249D01*
X134569991Y-96339249D01*
X134672765Y-96293870D01*
X134752206Y-96214429D01*
X134797585Y-96111655D01*
X134800500Y-96086529D01*
X134800500Y-94958922D01*
X134820185Y-94891883D01*
X134872989Y-94846128D01*
X134892386Y-94839153D01*
X134934585Y-94827846D01*
X134988031Y-94813700D01*
X134988031Y-94813699D01*
X134988042Y-94813697D01*
X134988794Y-94813386D01*
X134989048Y-94813281D01*
X134995331Y-94810697D01*
X134995530Y-94810599D01*
X134996865Y-94810048D01*
X134997292Y-94811083D01*
X134997716Y-94810942D01*
X134997835Y-94810911D01*
X134998322Y-94812781D01*
X135051787Y-94799787D01*
X135117823Y-94822612D01*
X135128162Y-94830830D01*
X135169799Y-94867717D01*
X135205150Y-94899036D01*
X135355773Y-94978089D01*
X135355775Y-94978090D01*
X135520944Y-95018800D01*
X135691056Y-95018800D01*
X135856225Y-94978090D01*
X135935692Y-94936381D01*
X136006849Y-94899036D01*
X136006850Y-94899034D01*
X136006852Y-94899034D01*
X136134183Y-94786229D01*
X136230818Y-94646230D01*
X136291140Y-94487172D01*
X136311645Y-94318300D01*
X136291140Y-94149428D01*
X136230818Y-93990370D01*
X136134183Y-93850371D01*
X136006852Y-93737566D01*
X136006849Y-93737563D01*
X135856226Y-93658510D01*
X135691056Y-93617800D01*
X135520944Y-93617800D01*
X135355773Y-93658510D01*
X135205150Y-93737563D01*
X135077814Y-93850373D01*
X135077233Y-93851030D01*
X135076687Y-93851372D01*
X135072203Y-93855345D01*
X135071542Y-93854599D01*
X135018042Y-93888155D01*
X134984420Y-93892800D01*
X134924850Y-93892800D01*
X134924155Y-93892798D01*
X134924141Y-93892797D01*
X134923792Y-93892796D01*
X134856866Y-93872730D01*
X134811413Y-93819666D01*
X134800499Y-93768798D01*
X134800499Y-92746807D01*
X134800499Y-92746800D01*
X134800497Y-92746781D01*
X134797586Y-92721676D01*
X134797585Y-92721674D01*
X134797585Y-92721673D01*
X134752206Y-92618899D01*
X134672765Y-92539458D01*
X134643801Y-92526669D01*
X134569992Y-92494079D01*
X134544865Y-92491164D01*
X123455143Y-92491164D01*
X123455117Y-92491166D01*
X123430012Y-92494077D01*
X123430008Y-92494079D01*
X123327235Y-92539457D01*
X123247794Y-92618898D01*
X123202415Y-92721670D01*
X123202415Y-92721672D01*
X123199500Y-92746795D01*
X123199500Y-96086520D01*
X122500500Y-96086520D01*
X122500500Y-82919856D01*
X123199500Y-82919856D01*
X123199502Y-82919882D01*
X123202413Y-82944987D01*
X123202415Y-82944991D01*
X123247793Y-83047764D01*
X123247794Y-83047765D01*
X123327235Y-83127206D01*
X123430009Y-83172585D01*
X123455135Y-83175500D01*
X134544864Y-83175499D01*
X134544879Y-83175497D01*
X134544882Y-83175497D01*
X134569987Y-83172586D01*
X134569988Y-83172585D01*
X134569991Y-83172585D01*
X134672765Y-83127206D01*
X134752206Y-83047765D01*
X134797585Y-82944991D01*
X134800500Y-82919865D01*
X134800500Y-81792222D01*
X134820185Y-81725183D01*
X134872989Y-81679428D01*
X134892396Y-81672451D01*
X134989237Y-81646503D01*
X135086263Y-81590485D01*
X135442929Y-81233819D01*
X135504252Y-81200334D01*
X135530610Y-81197500D01*
X136065712Y-81197500D01*
X136132751Y-81217185D01*
X136176710Y-81266225D01*
X136220327Y-81353821D01*
X136220329Y-81353823D01*
X136343237Y-81516581D01*
X136493958Y-81653980D01*
X136493960Y-81653982D01*
X136528713Y-81675500D01*
X136667363Y-81761348D01*
X136857544Y-81835024D01*
X137058024Y-81872500D01*
X137058026Y-81872500D01*
X137261974Y-81872500D01*
X137261976Y-81872500D01*
X137462456Y-81835024D01*
X137652637Y-81761348D01*
X137826041Y-81653981D01*
X137976764Y-81516579D01*
X138099673Y-81353821D01*
X138190582Y-81171250D01*
X138246397Y-80975083D01*
X138265215Y-80772000D01*
X138246397Y-80568917D01*
X138190582Y-80372750D01*
X138186172Y-80363894D01*
X138135684Y-80262500D01*
X138099673Y-80190179D01*
X137976764Y-80027421D01*
X137976762Y-80027418D01*
X137826041Y-79890019D01*
X137826039Y-79890017D01*
X137652642Y-79782655D01*
X137652635Y-79782651D01*
X137527539Y-79734189D01*
X137462456Y-79708976D01*
X137261976Y-79671500D01*
X137058024Y-79671500D01*
X136857544Y-79708976D01*
X136857541Y-79708976D01*
X136857541Y-79708977D01*
X136667364Y-79782651D01*
X136667357Y-79782655D01*
X136493960Y-79890017D01*
X136493958Y-79890019D01*
X136343237Y-80027418D01*
X136220329Y-80190176D01*
X136220327Y-80190179D01*
X136176710Y-80277774D01*
X136129210Y-80329008D01*
X136065712Y-80346500D01*
X135246982Y-80346500D01*
X135138763Y-80375497D01*
X135138760Y-80375498D01*
X135041735Y-80431516D01*
X135012179Y-80461072D01*
X134950855Y-80494557D01*
X134881164Y-80489571D01*
X134825231Y-80447699D01*
X134800815Y-80382234D01*
X134800499Y-80373390D01*
X134800499Y-79580143D01*
X134800499Y-79580136D01*
X134800497Y-79580117D01*
X134797586Y-79555012D01*
X134797585Y-79555010D01*
X134797585Y-79555009D01*
X134752206Y-79452235D01*
X134672765Y-79372794D01*
X134672763Y-79372793D01*
X134569992Y-79327415D01*
X134544865Y-79324500D01*
X123455143Y-79324500D01*
X123455117Y-79324502D01*
X123430012Y-79327413D01*
X123430008Y-79327415D01*
X123327235Y-79372793D01*
X123247794Y-79452234D01*
X123202415Y-79555006D01*
X123202415Y-79555008D01*
X123199500Y-79580131D01*
X123199500Y-82919856D01*
X122500500Y-82919856D01*
X122500500Y-77899500D01*
X122520185Y-77832461D01*
X122572989Y-77786706D01*
X122624500Y-77775500D01*
X125975500Y-77775500D01*
X126042539Y-77795185D01*
G37*
G04 #@! TD.AperFunction*
M02*
