M48
; DRILL file {KiCad 8.0.1} date 2024-06-18T23:30:09-0400
; FORMAT={-:-/ absolute / inch / decimal}
; #@! TF.CreationDate,2024-06-18T23:30:09-04:00
; #@! TF.GenerationSoftware,Kicad,Pcbnew,8.0.1
; #@! TF.FileFunction,Plated,1,2,PTH
FMAT,2
INCH
; #@! TA.AperFunction,Plated,PTH,ViaDrill
T1C0.0157
; #@! TA.AperFunction,Plated,PTH,ComponentDrill
T2C0.0276
; #@! TA.AperFunction,Plated,PTH,ComponentDrill
T3C0.0315
; #@! TA.AperFunction,Plated,PTH,ComponentDrill
T4C0.0394
%
G90
G05
T1
X5.3388Y-3.7133
T2
X5.9Y-3.9216
X5.9Y-4.02
T3
X5.4Y-3.18
X5.4Y-3.325
X5.4Y-3.475
X5.4Y-3.625
X5.4Y-3.775
X5.4Y-3.925
X5.4Y-4.08
X5.4Y-4.24
X5.4Y-4.575
X5.4Y-4.75
X5.7Y-3.18
X5.7Y-3.325
X5.7Y-3.475
X5.7Y-3.625
X5.7Y-3.775
X5.7Y-3.925
X5.7Y-4.08
X5.7Y-4.24
X5.7Y-4.575
X5.7Y-4.75
X5.84Y-3.1816
X5.84Y-3.28
X5.8416Y-4.58
X5.8425Y-3.4025
X5.8425Y-3.5009
X5.9Y-3.6
X5.9Y-3.7
X5.9Y-3.8
X5.92Y-4.14
X5.92Y-4.24
X5.92Y-4.34
X5.94Y-4.58
X6.12Y-3.6
X6.12Y-3.7
X6.12Y-3.8
X6.14Y-3.9216
X6.14Y-4.02
X6.16Y-4.14
X6.16Y-4.24
X6.16Y-4.34
T4
X6.1625Y-3.1475
X6.1625Y-3.2475
X6.1625Y-3.3475
X6.1625Y-3.4475
X6.17Y-4.56
X6.17Y-4.66
X6.17Y-4.76
M30
