G04 #@! TF.GenerationSoftware,KiCad,Pcbnew,8.0.1*
G04 #@! TF.CreationDate,2024-06-18T23:30:07-04:00*
G04 #@! TF.ProjectId,OdysseyDaughterCardSpotGenerator,4f647973-7365-4794-9461-756768746572,1.3*
G04 #@! TF.SameCoordinates,Original*
G04 #@! TF.FileFunction,Soldermask,Top*
G04 #@! TF.FilePolarity,Negative*
%FSLAX46Y46*%
G04 Gerber Fmt 4.6, Leading zero omitted, Abs format (unit mm)*
G04 Created by KiCad (PCBNEW 8.0.1) date 2024-06-18 23:30:07*
%MOMM*%
%LPD*%
G01*
G04 APERTURE LIST*
G04 APERTURE END LIST*
G36*
X157584043Y-119857191D02*
G01*
X157616727Y-119861494D01*
X157624948Y-119865327D01*
X157644537Y-119869224D01*
X157670480Y-119886559D01*
X157681608Y-119891748D01*
X157688378Y-119898518D01*
X157709421Y-119912579D01*
X157723481Y-119933621D01*
X157730251Y-119940391D01*
X157735438Y-119951516D01*
X157752776Y-119977463D01*
X157756672Y-119997053D01*
X157760505Y-120005272D01*
X157764806Y-120037945D01*
X157768000Y-120054000D01*
X157768000Y-121754000D01*
X157764805Y-121770058D01*
X157760505Y-121802727D01*
X157756673Y-121810944D01*
X157752776Y-121830537D01*
X157735437Y-121856485D01*
X157730251Y-121867608D01*
X157723483Y-121874375D01*
X157709421Y-121895421D01*
X157688375Y-121909483D01*
X157681608Y-121916251D01*
X157670485Y-121921437D01*
X157644537Y-121938776D01*
X157624944Y-121942673D01*
X157616727Y-121946505D01*
X157584056Y-121950806D01*
X157568000Y-121954000D01*
X155868000Y-121954000D01*
X155851943Y-121950806D01*
X155819272Y-121946505D01*
X155811053Y-121942672D01*
X155791463Y-121938776D01*
X155765516Y-121921438D01*
X155754391Y-121916251D01*
X155747621Y-121909481D01*
X155726579Y-121895421D01*
X155712518Y-121874378D01*
X155705748Y-121867608D01*
X155700559Y-121856480D01*
X155683224Y-121830537D01*
X155679327Y-121810948D01*
X155675494Y-121802727D01*
X155671190Y-121770041D01*
X155668000Y-121754000D01*
X155668000Y-120054000D01*
X155671190Y-120037958D01*
X155675494Y-120005272D01*
X155679327Y-119997049D01*
X155683224Y-119977463D01*
X155700557Y-119951521D01*
X155705748Y-119940391D01*
X155712520Y-119933618D01*
X155726579Y-119912579D01*
X155747618Y-119898520D01*
X155754391Y-119891748D01*
X155765521Y-119886557D01*
X155791463Y-119869224D01*
X155811049Y-119865327D01*
X155819272Y-119861494D01*
X155851960Y-119857190D01*
X155868000Y-119854000D01*
X157568000Y-119854000D01*
X157584043Y-119857191D01*
G37*
G36*
X137208724Y-119654799D02*
G01*
X137252218Y-119654799D01*
X137300658Y-119663853D01*
X137355090Y-119669215D01*
X137396438Y-119681757D01*
X137433518Y-119688689D01*
X137484868Y-119708582D01*
X137542683Y-119726120D01*
X137575720Y-119743778D01*
X137605501Y-119755316D01*
X137657245Y-119787354D01*
X137715570Y-119818530D01*
X137740076Y-119838641D01*
X137762311Y-119852409D01*
X137811575Y-119897319D01*
X137867107Y-119942893D01*
X137883563Y-119962945D01*
X137898611Y-119976663D01*
X137942297Y-120034513D01*
X137991470Y-120094430D01*
X138000977Y-120112218D01*
X138009762Y-120123850D01*
X138044713Y-120194040D01*
X138083880Y-120267317D01*
X138088056Y-120281086D01*
X138091972Y-120288949D01*
X138115105Y-120370255D01*
X138140785Y-120454910D01*
X138141628Y-120463473D01*
X138142446Y-120466347D01*
X138150943Y-120558047D01*
X138160000Y-120650000D01*
X138150942Y-120741960D01*
X138142446Y-120833652D01*
X138141628Y-120836524D01*
X138140785Y-120845090D01*
X138115100Y-120929759D01*
X138091972Y-121011050D01*
X138088057Y-121018911D01*
X138083880Y-121032683D01*
X138044705Y-121105972D01*
X138009762Y-121176149D01*
X138000979Y-121187778D01*
X137991470Y-121205570D01*
X137942288Y-121265498D01*
X137898611Y-121323336D01*
X137883566Y-121337050D01*
X137867107Y-121357107D01*
X137811564Y-121402689D01*
X137762311Y-121447590D01*
X137740081Y-121461354D01*
X137715570Y-121481470D01*
X137657233Y-121512651D01*
X137605501Y-121544683D01*
X137575727Y-121556217D01*
X137542683Y-121573880D01*
X137484856Y-121591421D01*
X137433518Y-121611310D01*
X137396445Y-121618240D01*
X137355090Y-121630785D01*
X137300655Y-121636146D01*
X137252218Y-121645201D01*
X137208724Y-121645201D01*
X137160000Y-121650000D01*
X137111276Y-121645201D01*
X137067782Y-121645201D01*
X137019343Y-121636146D01*
X136964910Y-121630785D01*
X136923555Y-121618240D01*
X136886481Y-121611310D01*
X136835139Y-121591419D01*
X136777317Y-121573880D01*
X136744275Y-121556218D01*
X136714498Y-121544683D01*
X136662759Y-121512647D01*
X136604430Y-121481470D01*
X136579921Y-121461356D01*
X136557688Y-121447590D01*
X136508425Y-121402681D01*
X136452893Y-121357107D01*
X136436436Y-121337054D01*
X136421388Y-121323336D01*
X136377699Y-121265482D01*
X136328530Y-121205570D01*
X136319022Y-121187783D01*
X136310237Y-121176149D01*
X136275279Y-121105945D01*
X136236120Y-121032683D01*
X136231943Y-121018916D01*
X136228027Y-121011050D01*
X136204882Y-120929706D01*
X136179215Y-120845090D01*
X136178371Y-120836530D01*
X136177553Y-120833652D01*
X136169040Y-120741788D01*
X136160000Y-120650000D01*
X136169039Y-120558219D01*
X136177553Y-120466347D01*
X136178372Y-120463468D01*
X136179215Y-120454910D01*
X136204878Y-120370308D01*
X136228027Y-120288949D01*
X136231944Y-120281081D01*
X136236120Y-120267317D01*
X136275272Y-120194068D01*
X136310237Y-120123850D01*
X136319024Y-120112213D01*
X136328530Y-120094430D01*
X136377689Y-120034528D01*
X136421388Y-119976663D01*
X136436439Y-119962941D01*
X136452893Y-119942893D01*
X136508414Y-119897327D01*
X136557688Y-119852409D01*
X136579926Y-119838639D01*
X136604430Y-119818530D01*
X136662747Y-119787358D01*
X136714498Y-119755316D01*
X136744282Y-119743777D01*
X136777317Y-119726120D01*
X136835127Y-119708583D01*
X136886481Y-119688689D01*
X136923562Y-119681757D01*
X136964910Y-119669215D01*
X137019340Y-119663853D01*
X137067782Y-119654799D01*
X137111276Y-119654799D01*
X137160000Y-119650000D01*
X137208724Y-119654799D01*
G37*
G36*
X145596043Y-119653191D02*
G01*
X145628727Y-119657494D01*
X145636948Y-119661327D01*
X145656537Y-119665224D01*
X145682480Y-119682559D01*
X145693608Y-119687748D01*
X145700378Y-119694518D01*
X145721421Y-119708579D01*
X145735481Y-119729621D01*
X145742251Y-119736391D01*
X145747438Y-119747516D01*
X145764776Y-119773463D01*
X145768672Y-119793053D01*
X145772505Y-119801272D01*
X145776806Y-119833945D01*
X145780000Y-119850000D01*
X145780000Y-121450000D01*
X145776805Y-121466058D01*
X145772505Y-121498727D01*
X145768673Y-121506944D01*
X145764776Y-121526537D01*
X145747437Y-121552485D01*
X145742251Y-121563608D01*
X145735483Y-121570375D01*
X145721421Y-121591421D01*
X145700375Y-121605483D01*
X145693608Y-121612251D01*
X145682485Y-121617437D01*
X145656537Y-121634776D01*
X145636944Y-121638673D01*
X145628727Y-121642505D01*
X145596056Y-121646806D01*
X145580000Y-121650000D01*
X143980000Y-121650000D01*
X143963943Y-121646806D01*
X143931272Y-121642505D01*
X143923053Y-121638672D01*
X143903463Y-121634776D01*
X143877516Y-121617438D01*
X143866391Y-121612251D01*
X143859621Y-121605481D01*
X143838579Y-121591421D01*
X143824518Y-121570378D01*
X143817748Y-121563608D01*
X143812559Y-121552480D01*
X143795224Y-121526537D01*
X143791327Y-121506948D01*
X143787494Y-121498727D01*
X143783190Y-121466041D01*
X143780000Y-121450000D01*
X143780000Y-119850000D01*
X143783190Y-119833958D01*
X143787494Y-119801272D01*
X143791327Y-119793049D01*
X143795224Y-119773463D01*
X143812557Y-119747521D01*
X143817748Y-119736391D01*
X143824520Y-119729618D01*
X143838579Y-119708579D01*
X143859618Y-119694520D01*
X143866391Y-119687748D01*
X143877521Y-119682557D01*
X143903463Y-119665224D01*
X143923049Y-119661327D01*
X143931272Y-119657494D01*
X143963960Y-119653190D01*
X143980000Y-119650000D01*
X145580000Y-119650000D01*
X145596043Y-119653191D01*
G37*
G36*
X156768889Y-117319012D02*
G01*
X156814830Y-117319012D01*
X156865988Y-117328575D01*
X156922845Y-117334175D01*
X156966042Y-117347278D01*
X157005202Y-117354599D01*
X157059438Y-117375609D01*
X157119818Y-117393926D01*
X157154315Y-117412365D01*
X157185786Y-117424557D01*
X157240469Y-117458415D01*
X157301349Y-117490957D01*
X157326929Y-117511950D01*
X157350442Y-117526509D01*
X157402546Y-117574008D01*
X157460462Y-117621538D01*
X157477621Y-117642446D01*
X157493564Y-117656980D01*
X157539838Y-117718258D01*
X157591043Y-117780651D01*
X157600947Y-117799180D01*
X157610273Y-117811530D01*
X157647372Y-117886034D01*
X157688074Y-117962182D01*
X157692415Y-117976492D01*
X157696596Y-117984889D01*
X157721295Y-118071697D01*
X157747825Y-118159155D01*
X157748696Y-118168003D01*
X157749594Y-118171158D01*
X157758933Y-118271944D01*
X157768000Y-118364000D01*
X157758932Y-118456063D01*
X157749594Y-118556841D01*
X157748696Y-118559994D01*
X157747825Y-118568845D01*
X157721290Y-118656317D01*
X157696596Y-118743110D01*
X157692415Y-118751504D01*
X157688074Y-118765818D01*
X157647364Y-118841979D01*
X157610273Y-118916469D01*
X157600949Y-118928815D01*
X157591043Y-118947349D01*
X157539829Y-119009752D01*
X157493564Y-119071019D01*
X157477624Y-119085549D01*
X157460462Y-119106462D01*
X157402535Y-119154000D01*
X157350442Y-119201490D01*
X157326934Y-119216045D01*
X157301349Y-119237043D01*
X157240457Y-119269590D01*
X157185786Y-119303442D01*
X157154321Y-119315631D01*
X157119818Y-119334074D01*
X157059426Y-119352393D01*
X157005202Y-119373400D01*
X156966049Y-119380719D01*
X156922845Y-119393825D01*
X156865985Y-119399425D01*
X156814830Y-119408988D01*
X156768889Y-119408988D01*
X156718000Y-119414000D01*
X156667111Y-119408988D01*
X156621170Y-119408988D01*
X156570014Y-119399424D01*
X156513155Y-119393825D01*
X156469952Y-119380719D01*
X156430797Y-119373400D01*
X156376569Y-119352392D01*
X156316182Y-119334074D01*
X156281680Y-119315632D01*
X156250213Y-119303442D01*
X156195535Y-119269586D01*
X156134651Y-119237043D01*
X156109068Y-119216047D01*
X156085557Y-119201490D01*
X156033454Y-119153992D01*
X155975538Y-119106462D01*
X155958378Y-119085553D01*
X155942435Y-119071019D01*
X155896158Y-119009737D01*
X155844957Y-118947349D01*
X155835053Y-118928820D01*
X155825726Y-118916469D01*
X155788620Y-118841951D01*
X155747926Y-118765818D01*
X155743585Y-118751509D01*
X155739403Y-118743110D01*
X155714693Y-118656264D01*
X155688175Y-118568845D01*
X155687303Y-118560000D01*
X155686405Y-118556841D01*
X155677050Y-118455891D01*
X155668000Y-118364000D01*
X155677049Y-118272116D01*
X155686405Y-118171158D01*
X155687304Y-118167998D01*
X155688175Y-118159155D01*
X155714688Y-118071750D01*
X155739403Y-117984889D01*
X155743586Y-117976487D01*
X155747926Y-117962182D01*
X155788613Y-117886061D01*
X155825726Y-117811530D01*
X155835054Y-117799176D01*
X155844957Y-117780651D01*
X155896148Y-117718274D01*
X155942435Y-117656980D01*
X155958381Y-117642442D01*
X155975538Y-117621538D01*
X156033443Y-117574016D01*
X156085557Y-117526509D01*
X156109073Y-117511948D01*
X156134651Y-117490957D01*
X156195523Y-117458419D01*
X156250213Y-117424557D01*
X156281687Y-117412363D01*
X156316182Y-117393926D01*
X156376557Y-117375611D01*
X156430797Y-117354599D01*
X156469959Y-117347278D01*
X156513155Y-117334175D01*
X156570011Y-117328575D01*
X156621170Y-117319012D01*
X156667111Y-117319012D01*
X156718000Y-117314000D01*
X156768889Y-117319012D01*
G37*
G36*
X148424724Y-115336799D02*
G01*
X148468218Y-115336799D01*
X148516658Y-115345853D01*
X148571090Y-115351215D01*
X148612438Y-115363757D01*
X148649518Y-115370689D01*
X148700868Y-115390582D01*
X148758683Y-115408120D01*
X148791720Y-115425778D01*
X148821501Y-115437316D01*
X148873245Y-115469354D01*
X148931570Y-115500530D01*
X148956076Y-115520641D01*
X148978311Y-115534409D01*
X149027575Y-115579319D01*
X149083107Y-115624893D01*
X149099563Y-115644945D01*
X149114611Y-115658663D01*
X149158297Y-115716513D01*
X149207470Y-115776430D01*
X149216977Y-115794218D01*
X149225762Y-115805850D01*
X149260713Y-115876040D01*
X149299880Y-115949317D01*
X149304056Y-115963086D01*
X149307972Y-115970949D01*
X149331105Y-116052255D01*
X149356785Y-116136910D01*
X149357628Y-116145473D01*
X149358446Y-116148347D01*
X149366943Y-116240047D01*
X149376000Y-116332000D01*
X149366942Y-116423960D01*
X149358446Y-116515652D01*
X149357628Y-116518524D01*
X149356785Y-116527090D01*
X149331100Y-116611759D01*
X149307972Y-116693050D01*
X149304057Y-116700911D01*
X149299880Y-116714683D01*
X149260705Y-116787972D01*
X149225762Y-116858149D01*
X149216979Y-116869778D01*
X149207470Y-116887570D01*
X149158288Y-116947498D01*
X149114611Y-117005336D01*
X149099566Y-117019050D01*
X149083107Y-117039107D01*
X149027564Y-117084689D01*
X148978311Y-117129590D01*
X148956081Y-117143354D01*
X148931570Y-117163470D01*
X148873233Y-117194651D01*
X148821501Y-117226683D01*
X148791727Y-117238217D01*
X148758683Y-117255880D01*
X148700856Y-117273421D01*
X148649518Y-117293310D01*
X148612445Y-117300240D01*
X148571090Y-117312785D01*
X148516655Y-117318146D01*
X148468218Y-117327201D01*
X148424724Y-117327201D01*
X148376000Y-117332000D01*
X148327276Y-117327201D01*
X148283782Y-117327201D01*
X148235343Y-117318146D01*
X148180910Y-117312785D01*
X148139555Y-117300240D01*
X148102481Y-117293310D01*
X148051139Y-117273419D01*
X147993317Y-117255880D01*
X147960275Y-117238218D01*
X147930498Y-117226683D01*
X147878759Y-117194647D01*
X147820430Y-117163470D01*
X147795921Y-117143356D01*
X147773688Y-117129590D01*
X147724425Y-117084681D01*
X147668893Y-117039107D01*
X147652436Y-117019054D01*
X147637388Y-117005336D01*
X147593699Y-116947482D01*
X147544530Y-116887570D01*
X147535022Y-116869783D01*
X147526237Y-116858149D01*
X147491279Y-116787945D01*
X147452120Y-116714683D01*
X147447943Y-116700916D01*
X147444027Y-116693050D01*
X147420882Y-116611706D01*
X147395215Y-116527090D01*
X147394371Y-116518530D01*
X147393553Y-116515652D01*
X147385040Y-116423788D01*
X147376000Y-116332000D01*
X147385039Y-116240219D01*
X147393553Y-116148347D01*
X147394372Y-116145468D01*
X147395215Y-116136910D01*
X147420878Y-116052308D01*
X147444027Y-115970949D01*
X147447944Y-115963081D01*
X147452120Y-115949317D01*
X147491272Y-115876068D01*
X147526237Y-115805850D01*
X147535024Y-115794213D01*
X147544530Y-115776430D01*
X147593689Y-115716528D01*
X147637388Y-115658663D01*
X147652439Y-115644941D01*
X147668893Y-115624893D01*
X147724414Y-115579327D01*
X147773688Y-115534409D01*
X147795926Y-115520639D01*
X147820430Y-115500530D01*
X147878747Y-115469358D01*
X147930498Y-115437316D01*
X147960282Y-115425777D01*
X147993317Y-115408120D01*
X148051127Y-115390583D01*
X148102481Y-115370689D01*
X148139562Y-115363757D01*
X148180910Y-115351215D01*
X148235340Y-115345853D01*
X148283782Y-115336799D01*
X148327276Y-115336799D01*
X148376000Y-115332000D01*
X148424724Y-115336799D01*
G37*
G36*
X150924724Y-115336799D02*
G01*
X150968218Y-115336799D01*
X151016658Y-115345853D01*
X151071090Y-115351215D01*
X151112438Y-115363757D01*
X151149518Y-115370689D01*
X151200868Y-115390582D01*
X151258683Y-115408120D01*
X151291720Y-115425778D01*
X151321501Y-115437316D01*
X151373245Y-115469354D01*
X151431570Y-115500530D01*
X151456076Y-115520641D01*
X151478311Y-115534409D01*
X151527575Y-115579319D01*
X151583107Y-115624893D01*
X151599563Y-115644945D01*
X151614611Y-115658663D01*
X151658297Y-115716513D01*
X151707470Y-115776430D01*
X151716977Y-115794218D01*
X151725762Y-115805850D01*
X151760713Y-115876040D01*
X151799880Y-115949317D01*
X151804056Y-115963086D01*
X151807972Y-115970949D01*
X151831105Y-116052255D01*
X151856785Y-116136910D01*
X151857628Y-116145473D01*
X151858446Y-116148347D01*
X151866943Y-116240047D01*
X151876000Y-116332000D01*
X151866942Y-116423960D01*
X151858446Y-116515652D01*
X151857628Y-116518524D01*
X151856785Y-116527090D01*
X151831100Y-116611759D01*
X151807972Y-116693050D01*
X151804057Y-116700911D01*
X151799880Y-116714683D01*
X151760705Y-116787972D01*
X151725762Y-116858149D01*
X151716979Y-116869778D01*
X151707470Y-116887570D01*
X151658288Y-116947498D01*
X151614611Y-117005336D01*
X151599566Y-117019050D01*
X151583107Y-117039107D01*
X151527564Y-117084689D01*
X151478311Y-117129590D01*
X151456081Y-117143354D01*
X151431570Y-117163470D01*
X151373233Y-117194651D01*
X151321501Y-117226683D01*
X151291727Y-117238217D01*
X151258683Y-117255880D01*
X151200856Y-117273421D01*
X151149518Y-117293310D01*
X151112445Y-117300240D01*
X151071090Y-117312785D01*
X151016655Y-117318146D01*
X150968218Y-117327201D01*
X150924724Y-117327201D01*
X150876000Y-117332000D01*
X150827276Y-117327201D01*
X150783782Y-117327201D01*
X150735343Y-117318146D01*
X150680910Y-117312785D01*
X150639555Y-117300240D01*
X150602481Y-117293310D01*
X150551139Y-117273419D01*
X150493317Y-117255880D01*
X150460275Y-117238218D01*
X150430498Y-117226683D01*
X150378759Y-117194647D01*
X150320430Y-117163470D01*
X150295921Y-117143356D01*
X150273688Y-117129590D01*
X150224425Y-117084681D01*
X150168893Y-117039107D01*
X150152436Y-117019054D01*
X150137388Y-117005336D01*
X150093699Y-116947482D01*
X150044530Y-116887570D01*
X150035022Y-116869783D01*
X150026237Y-116858149D01*
X149991279Y-116787945D01*
X149952120Y-116714683D01*
X149947943Y-116700916D01*
X149944027Y-116693050D01*
X149920882Y-116611706D01*
X149895215Y-116527090D01*
X149894371Y-116518530D01*
X149893553Y-116515652D01*
X149885040Y-116423788D01*
X149876000Y-116332000D01*
X149885039Y-116240219D01*
X149893553Y-116148347D01*
X149894372Y-116145468D01*
X149895215Y-116136910D01*
X149920878Y-116052308D01*
X149944027Y-115970949D01*
X149947944Y-115963081D01*
X149952120Y-115949317D01*
X149991272Y-115876068D01*
X150026237Y-115805850D01*
X150035024Y-115794213D01*
X150044530Y-115776430D01*
X150093689Y-115716528D01*
X150137388Y-115658663D01*
X150152439Y-115644941D01*
X150168893Y-115624893D01*
X150224414Y-115579327D01*
X150273688Y-115534409D01*
X150295926Y-115520639D01*
X150320430Y-115500530D01*
X150378747Y-115469358D01*
X150430498Y-115437316D01*
X150460282Y-115425777D01*
X150493317Y-115408120D01*
X150551127Y-115390583D01*
X150602481Y-115370689D01*
X150639562Y-115363757D01*
X150680910Y-115351215D01*
X150735340Y-115345853D01*
X150783782Y-115336799D01*
X150827276Y-115336799D01*
X150876000Y-115332000D01*
X150924724Y-115336799D01*
G37*
G36*
X137208724Y-115209799D02*
G01*
X137252218Y-115209799D01*
X137300658Y-115218853D01*
X137355090Y-115224215D01*
X137396438Y-115236757D01*
X137433518Y-115243689D01*
X137484868Y-115263582D01*
X137542683Y-115281120D01*
X137575720Y-115298778D01*
X137605501Y-115310316D01*
X137657245Y-115342354D01*
X137715570Y-115373530D01*
X137740076Y-115393641D01*
X137762311Y-115407409D01*
X137811575Y-115452319D01*
X137867107Y-115497893D01*
X137883563Y-115517945D01*
X137898611Y-115531663D01*
X137942297Y-115589513D01*
X137991470Y-115649430D01*
X138000977Y-115667218D01*
X138009762Y-115678850D01*
X138044713Y-115749040D01*
X138083880Y-115822317D01*
X138088056Y-115836086D01*
X138091972Y-115843949D01*
X138115105Y-115925255D01*
X138140785Y-116009910D01*
X138141628Y-116018473D01*
X138142446Y-116021347D01*
X138150943Y-116113047D01*
X138160000Y-116205000D01*
X138150942Y-116296960D01*
X138142446Y-116388652D01*
X138141628Y-116391524D01*
X138140785Y-116400090D01*
X138115100Y-116484759D01*
X138091972Y-116566050D01*
X138088057Y-116573911D01*
X138083880Y-116587683D01*
X138044705Y-116660972D01*
X138009762Y-116731149D01*
X138000979Y-116742778D01*
X137991470Y-116760570D01*
X137942288Y-116820498D01*
X137898611Y-116878336D01*
X137883566Y-116892050D01*
X137867107Y-116912107D01*
X137811564Y-116957689D01*
X137762311Y-117002590D01*
X137740081Y-117016354D01*
X137715570Y-117036470D01*
X137657233Y-117067651D01*
X137605501Y-117099683D01*
X137575727Y-117111217D01*
X137542683Y-117128880D01*
X137484856Y-117146421D01*
X137433518Y-117166310D01*
X137396445Y-117173240D01*
X137355090Y-117185785D01*
X137300655Y-117191146D01*
X137252218Y-117200201D01*
X137208724Y-117200201D01*
X137160000Y-117205000D01*
X137111276Y-117200201D01*
X137067782Y-117200201D01*
X137019343Y-117191146D01*
X136964910Y-117185785D01*
X136923555Y-117173240D01*
X136886481Y-117166310D01*
X136835139Y-117146419D01*
X136777317Y-117128880D01*
X136744275Y-117111218D01*
X136714498Y-117099683D01*
X136662759Y-117067647D01*
X136604430Y-117036470D01*
X136579921Y-117016356D01*
X136557688Y-117002590D01*
X136508425Y-116957681D01*
X136452893Y-116912107D01*
X136436436Y-116892054D01*
X136421388Y-116878336D01*
X136377699Y-116820482D01*
X136328530Y-116760570D01*
X136319022Y-116742783D01*
X136310237Y-116731149D01*
X136275279Y-116660945D01*
X136236120Y-116587683D01*
X136231943Y-116573916D01*
X136228027Y-116566050D01*
X136204882Y-116484706D01*
X136179215Y-116400090D01*
X136178371Y-116391530D01*
X136177553Y-116388652D01*
X136169040Y-116296788D01*
X136160000Y-116205000D01*
X136169039Y-116113219D01*
X136177553Y-116021347D01*
X136178372Y-116018468D01*
X136179215Y-116009910D01*
X136204878Y-115925308D01*
X136228027Y-115843949D01*
X136231944Y-115836081D01*
X136236120Y-115822317D01*
X136275272Y-115749068D01*
X136310237Y-115678850D01*
X136319024Y-115667213D01*
X136328530Y-115649430D01*
X136377689Y-115589528D01*
X136421388Y-115531663D01*
X136436439Y-115517941D01*
X136452893Y-115497893D01*
X136508414Y-115452327D01*
X136557688Y-115407409D01*
X136579926Y-115393639D01*
X136604430Y-115373530D01*
X136662747Y-115342358D01*
X136714498Y-115310316D01*
X136744282Y-115298777D01*
X136777317Y-115281120D01*
X136835127Y-115263583D01*
X136886481Y-115243689D01*
X136923562Y-115236757D01*
X136964910Y-115224215D01*
X137019340Y-115218853D01*
X137067782Y-115209799D01*
X137111276Y-115209799D01*
X137160000Y-115205000D01*
X137208724Y-115209799D01*
G37*
G36*
X144828724Y-115209799D02*
G01*
X144872218Y-115209799D01*
X144920658Y-115218853D01*
X144975090Y-115224215D01*
X145016438Y-115236757D01*
X145053518Y-115243689D01*
X145104868Y-115263582D01*
X145162683Y-115281120D01*
X145195720Y-115298778D01*
X145225501Y-115310316D01*
X145277245Y-115342354D01*
X145335570Y-115373530D01*
X145360076Y-115393641D01*
X145382311Y-115407409D01*
X145431575Y-115452319D01*
X145487107Y-115497893D01*
X145503563Y-115517945D01*
X145518611Y-115531663D01*
X145562297Y-115589513D01*
X145611470Y-115649430D01*
X145620977Y-115667218D01*
X145629762Y-115678850D01*
X145664713Y-115749040D01*
X145703880Y-115822317D01*
X145708056Y-115836086D01*
X145711972Y-115843949D01*
X145735105Y-115925255D01*
X145760785Y-116009910D01*
X145761628Y-116018473D01*
X145762446Y-116021347D01*
X145770943Y-116113047D01*
X145780000Y-116205000D01*
X145770942Y-116296960D01*
X145762446Y-116388652D01*
X145761628Y-116391524D01*
X145760785Y-116400090D01*
X145735100Y-116484759D01*
X145711972Y-116566050D01*
X145708057Y-116573911D01*
X145703880Y-116587683D01*
X145664705Y-116660972D01*
X145629762Y-116731149D01*
X145620979Y-116742778D01*
X145611470Y-116760570D01*
X145562288Y-116820498D01*
X145518611Y-116878336D01*
X145503566Y-116892050D01*
X145487107Y-116912107D01*
X145431564Y-116957689D01*
X145382311Y-117002590D01*
X145360081Y-117016354D01*
X145335570Y-117036470D01*
X145277233Y-117067651D01*
X145225501Y-117099683D01*
X145195727Y-117111217D01*
X145162683Y-117128880D01*
X145104856Y-117146421D01*
X145053518Y-117166310D01*
X145016445Y-117173240D01*
X144975090Y-117185785D01*
X144920655Y-117191146D01*
X144872218Y-117200201D01*
X144828724Y-117200201D01*
X144780000Y-117205000D01*
X144731276Y-117200201D01*
X144687782Y-117200201D01*
X144639343Y-117191146D01*
X144584910Y-117185785D01*
X144543555Y-117173240D01*
X144506481Y-117166310D01*
X144455139Y-117146419D01*
X144397317Y-117128880D01*
X144364275Y-117111218D01*
X144334498Y-117099683D01*
X144282759Y-117067647D01*
X144224430Y-117036470D01*
X144199921Y-117016356D01*
X144177688Y-117002590D01*
X144128425Y-116957681D01*
X144072893Y-116912107D01*
X144056436Y-116892054D01*
X144041388Y-116878336D01*
X143997699Y-116820482D01*
X143948530Y-116760570D01*
X143939022Y-116742783D01*
X143930237Y-116731149D01*
X143895279Y-116660945D01*
X143856120Y-116587683D01*
X143851943Y-116573916D01*
X143848027Y-116566050D01*
X143824882Y-116484706D01*
X143799215Y-116400090D01*
X143798371Y-116391530D01*
X143797553Y-116388652D01*
X143789040Y-116296788D01*
X143780000Y-116205000D01*
X143789039Y-116113219D01*
X143797553Y-116021347D01*
X143798372Y-116018468D01*
X143799215Y-116009910D01*
X143824878Y-115925308D01*
X143848027Y-115843949D01*
X143851944Y-115836081D01*
X143856120Y-115822317D01*
X143895272Y-115749068D01*
X143930237Y-115678850D01*
X143939024Y-115667213D01*
X143948530Y-115649430D01*
X143997689Y-115589528D01*
X144041388Y-115531663D01*
X144056439Y-115517941D01*
X144072893Y-115497893D01*
X144128414Y-115452327D01*
X144177688Y-115407409D01*
X144199926Y-115393639D01*
X144224430Y-115373530D01*
X144282747Y-115342358D01*
X144334498Y-115310316D01*
X144364282Y-115298777D01*
X144397317Y-115281120D01*
X144455127Y-115263583D01*
X144506481Y-115243689D01*
X144543562Y-115236757D01*
X144584910Y-115224215D01*
X144639340Y-115218853D01*
X144687782Y-115209799D01*
X144731276Y-115209799D01*
X144780000Y-115205000D01*
X144828724Y-115209799D01*
G37*
G36*
X156768889Y-114779012D02*
G01*
X156814830Y-114779012D01*
X156865988Y-114788575D01*
X156922845Y-114794175D01*
X156966042Y-114807278D01*
X157005202Y-114814599D01*
X157059438Y-114835609D01*
X157119818Y-114853926D01*
X157154315Y-114872365D01*
X157185786Y-114884557D01*
X157240469Y-114918415D01*
X157301349Y-114950957D01*
X157326929Y-114971950D01*
X157350442Y-114986509D01*
X157402546Y-115034008D01*
X157460462Y-115081538D01*
X157477621Y-115102446D01*
X157493564Y-115116980D01*
X157539838Y-115178258D01*
X157591043Y-115240651D01*
X157600947Y-115259180D01*
X157610273Y-115271530D01*
X157647372Y-115346034D01*
X157688074Y-115422182D01*
X157692415Y-115436492D01*
X157696596Y-115444889D01*
X157721285Y-115531663D01*
X157747825Y-115619155D01*
X157748696Y-115628003D01*
X157749594Y-115631158D01*
X157758933Y-115731944D01*
X157768000Y-115824000D01*
X157758932Y-115916063D01*
X157749594Y-116016841D01*
X157748696Y-116019994D01*
X157747825Y-116028845D01*
X157721290Y-116116317D01*
X157696596Y-116203110D01*
X157692415Y-116211504D01*
X157688074Y-116225818D01*
X157647364Y-116301979D01*
X157610273Y-116376469D01*
X157600949Y-116388815D01*
X157591043Y-116407349D01*
X157539829Y-116469752D01*
X157493564Y-116531019D01*
X157477624Y-116545549D01*
X157460462Y-116566462D01*
X157402535Y-116614000D01*
X157350442Y-116661490D01*
X157326934Y-116676045D01*
X157301349Y-116697043D01*
X157240457Y-116729590D01*
X157185786Y-116763442D01*
X157154321Y-116775631D01*
X157119818Y-116794074D01*
X157059426Y-116812393D01*
X157005202Y-116833400D01*
X156966049Y-116840719D01*
X156922845Y-116853825D01*
X156865985Y-116859425D01*
X156814830Y-116868988D01*
X156768889Y-116868988D01*
X156718000Y-116874000D01*
X156667111Y-116868988D01*
X156621170Y-116868988D01*
X156570014Y-116859424D01*
X156513155Y-116853825D01*
X156469952Y-116840719D01*
X156430797Y-116833400D01*
X156376569Y-116812392D01*
X156316182Y-116794074D01*
X156281680Y-116775632D01*
X156250213Y-116763442D01*
X156195535Y-116729586D01*
X156134651Y-116697043D01*
X156109068Y-116676047D01*
X156085557Y-116661490D01*
X156033454Y-116613992D01*
X155975538Y-116566462D01*
X155958378Y-116545553D01*
X155942435Y-116531019D01*
X155896158Y-116469737D01*
X155844957Y-116407349D01*
X155835053Y-116388820D01*
X155825726Y-116376469D01*
X155788620Y-116301951D01*
X155747926Y-116225818D01*
X155743585Y-116211509D01*
X155739403Y-116203110D01*
X155714693Y-116116264D01*
X155688175Y-116028845D01*
X155687303Y-116020000D01*
X155686405Y-116016841D01*
X155677050Y-115915891D01*
X155668000Y-115824000D01*
X155677049Y-115732116D01*
X155686405Y-115631158D01*
X155687304Y-115627998D01*
X155688175Y-115619155D01*
X155714688Y-115531750D01*
X155739403Y-115444889D01*
X155743586Y-115436487D01*
X155747926Y-115422182D01*
X155788613Y-115346061D01*
X155825726Y-115271530D01*
X155835054Y-115259176D01*
X155844957Y-115240651D01*
X155896148Y-115178274D01*
X155942435Y-115116980D01*
X155958381Y-115102442D01*
X155975538Y-115081538D01*
X156033443Y-115034016D01*
X156085557Y-114986509D01*
X156109073Y-114971948D01*
X156134651Y-114950957D01*
X156195523Y-114918419D01*
X156250213Y-114884557D01*
X156281687Y-114872363D01*
X156316182Y-114853926D01*
X156376557Y-114835611D01*
X156430797Y-114814599D01*
X156469959Y-114807278D01*
X156513155Y-114794175D01*
X156570011Y-114788575D01*
X156621170Y-114779012D01*
X156667111Y-114779012D01*
X156718000Y-114774000D01*
X156768889Y-114779012D01*
G37*
G36*
X151168023Y-109288650D02*
G01*
X151180670Y-109294547D01*
X151196036Y-109297604D01*
X151216389Y-109311204D01*
X151234485Y-109319642D01*
X151245493Y-109330650D01*
X151262192Y-109341808D01*
X151273349Y-109358506D01*
X151284357Y-109369514D01*
X151292794Y-109387607D01*
X151306396Y-109407964D01*
X151309452Y-109423331D01*
X151315349Y-109435976D01*
X151318000Y-109456111D01*
X151318000Y-111015888D01*
X151315349Y-111036023D01*
X151309453Y-111048666D01*
X151306396Y-111064036D01*
X151292792Y-111084394D01*
X151284357Y-111102485D01*
X151273351Y-111113490D01*
X151262192Y-111130192D01*
X151245490Y-111141351D01*
X151234485Y-111152357D01*
X151216394Y-111160792D01*
X151196036Y-111174396D01*
X151180666Y-111177453D01*
X151168023Y-111183349D01*
X151147889Y-111186000D01*
X151137698Y-111186000D01*
X149598302Y-111186000D01*
X149588111Y-111186000D01*
X149567976Y-111183349D01*
X149555331Y-111177452D01*
X149539964Y-111174396D01*
X149519607Y-111160794D01*
X149501514Y-111152357D01*
X149490506Y-111141349D01*
X149473808Y-111130192D01*
X149462650Y-111113493D01*
X149451642Y-111102485D01*
X149443204Y-111084389D01*
X149429604Y-111064036D01*
X149426547Y-111048670D01*
X149420650Y-111036023D01*
X149418000Y-111015888D01*
X149418000Y-109456111D01*
X149420650Y-109435976D01*
X149426547Y-109423327D01*
X149429604Y-109407964D01*
X149443202Y-109387612D01*
X149451642Y-109369514D01*
X149462652Y-109358503D01*
X149473808Y-109341808D01*
X149490503Y-109330652D01*
X149501514Y-109319642D01*
X149519612Y-109311202D01*
X149539964Y-109297604D01*
X149555327Y-109294547D01*
X149567976Y-109288650D01*
X149588111Y-109286000D01*
X151147889Y-109286000D01*
X151168023Y-109288650D01*
G37*
G36*
X157264023Y-109288650D02*
G01*
X157276670Y-109294547D01*
X157292036Y-109297604D01*
X157312389Y-109311204D01*
X157330485Y-109319642D01*
X157341493Y-109330650D01*
X157358192Y-109341808D01*
X157369349Y-109358506D01*
X157380357Y-109369514D01*
X157388794Y-109387607D01*
X157402396Y-109407964D01*
X157405452Y-109423331D01*
X157411349Y-109435976D01*
X157414000Y-109456111D01*
X157414000Y-111015888D01*
X157411349Y-111036023D01*
X157405453Y-111048666D01*
X157402396Y-111064036D01*
X157388792Y-111084394D01*
X157380357Y-111102485D01*
X157369351Y-111113490D01*
X157358192Y-111130192D01*
X157341490Y-111141351D01*
X157330485Y-111152357D01*
X157312394Y-111160792D01*
X157292036Y-111174396D01*
X157276666Y-111177453D01*
X157264023Y-111183349D01*
X157243889Y-111186000D01*
X157233698Y-111186000D01*
X155694302Y-111186000D01*
X155684111Y-111186000D01*
X155663976Y-111183349D01*
X155651331Y-111177452D01*
X155635964Y-111174396D01*
X155615607Y-111160794D01*
X155597514Y-111152357D01*
X155586506Y-111141349D01*
X155569808Y-111130192D01*
X155558650Y-111113493D01*
X155547642Y-111102485D01*
X155539204Y-111084389D01*
X155525604Y-111064036D01*
X155522547Y-111048670D01*
X155516650Y-111036023D01*
X155514000Y-111015888D01*
X155514000Y-109456111D01*
X155516650Y-109435976D01*
X155522547Y-109423327D01*
X155525604Y-109407964D01*
X155539202Y-109387612D01*
X155547642Y-109369514D01*
X155558652Y-109358503D01*
X155569808Y-109341808D01*
X155586503Y-109330652D01*
X155597514Y-109319642D01*
X155615612Y-109311202D01*
X155635964Y-109297604D01*
X155651327Y-109294547D01*
X155663976Y-109288650D01*
X155684111Y-109286000D01*
X157243889Y-109286000D01*
X157264023Y-109288650D01*
G37*
G36*
X137208724Y-106700799D02*
G01*
X137252218Y-106700799D01*
X137300658Y-106709853D01*
X137355090Y-106715215D01*
X137396438Y-106727757D01*
X137433518Y-106734689D01*
X137484868Y-106754582D01*
X137542683Y-106772120D01*
X137575720Y-106789778D01*
X137605501Y-106801316D01*
X137657245Y-106833354D01*
X137715570Y-106864530D01*
X137740076Y-106884641D01*
X137762311Y-106898409D01*
X137811575Y-106943319D01*
X137867107Y-106988893D01*
X137883563Y-107008945D01*
X137898611Y-107022663D01*
X137942297Y-107080513D01*
X137991470Y-107140430D01*
X138000977Y-107158218D01*
X138009762Y-107169850D01*
X138044713Y-107240040D01*
X138083880Y-107313317D01*
X138088056Y-107327086D01*
X138091972Y-107334949D01*
X138115105Y-107416255D01*
X138140785Y-107500910D01*
X138141628Y-107509473D01*
X138142446Y-107512347D01*
X138150943Y-107604047D01*
X138160000Y-107696000D01*
X138150942Y-107787960D01*
X138142446Y-107879652D01*
X138141628Y-107882524D01*
X138140785Y-107891090D01*
X138115100Y-107975759D01*
X138091972Y-108057050D01*
X138088057Y-108064911D01*
X138083880Y-108078683D01*
X138044705Y-108151972D01*
X138009762Y-108222149D01*
X138000979Y-108233778D01*
X137991470Y-108251570D01*
X137942288Y-108311498D01*
X137898611Y-108369336D01*
X137883566Y-108383050D01*
X137867107Y-108403107D01*
X137811564Y-108448689D01*
X137762311Y-108493590D01*
X137740081Y-108507354D01*
X137715570Y-108527470D01*
X137657233Y-108558651D01*
X137605501Y-108590683D01*
X137575727Y-108602217D01*
X137542683Y-108619880D01*
X137484856Y-108637421D01*
X137433518Y-108657310D01*
X137396445Y-108664240D01*
X137355090Y-108676785D01*
X137300655Y-108682146D01*
X137252218Y-108691201D01*
X137208724Y-108691201D01*
X137160000Y-108696000D01*
X137111276Y-108691201D01*
X137067782Y-108691201D01*
X137019343Y-108682146D01*
X136964910Y-108676785D01*
X136923555Y-108664240D01*
X136886481Y-108657310D01*
X136835139Y-108637419D01*
X136777317Y-108619880D01*
X136744275Y-108602218D01*
X136714498Y-108590683D01*
X136662759Y-108558647D01*
X136604430Y-108527470D01*
X136579921Y-108507356D01*
X136557688Y-108493590D01*
X136508425Y-108448681D01*
X136452893Y-108403107D01*
X136436436Y-108383054D01*
X136421388Y-108369336D01*
X136377699Y-108311482D01*
X136328530Y-108251570D01*
X136319022Y-108233783D01*
X136310237Y-108222149D01*
X136275279Y-108151945D01*
X136236120Y-108078683D01*
X136231943Y-108064916D01*
X136228027Y-108057050D01*
X136204882Y-107975706D01*
X136179215Y-107891090D01*
X136178371Y-107882530D01*
X136177553Y-107879652D01*
X136169040Y-107787788D01*
X136160000Y-107696000D01*
X136169039Y-107604219D01*
X136177553Y-107512347D01*
X136178372Y-107509468D01*
X136179215Y-107500910D01*
X136204878Y-107416308D01*
X136228027Y-107334949D01*
X136231944Y-107327081D01*
X136236120Y-107313317D01*
X136275272Y-107240068D01*
X136310237Y-107169850D01*
X136319024Y-107158213D01*
X136328530Y-107140430D01*
X136377689Y-107080528D01*
X136421388Y-107022663D01*
X136436439Y-107008941D01*
X136452893Y-106988893D01*
X136508414Y-106943327D01*
X136557688Y-106898409D01*
X136579926Y-106884639D01*
X136604430Y-106864530D01*
X136662747Y-106833358D01*
X136714498Y-106801316D01*
X136744282Y-106789777D01*
X136777317Y-106772120D01*
X136835127Y-106754583D01*
X136886481Y-106734689D01*
X136923562Y-106727757D01*
X136964910Y-106715215D01*
X137019340Y-106709853D01*
X137067782Y-106700799D01*
X137111276Y-106700799D01*
X137160000Y-106696000D01*
X137208724Y-106700799D01*
G37*
G36*
X144828724Y-106700799D02*
G01*
X144872218Y-106700799D01*
X144920658Y-106709853D01*
X144975090Y-106715215D01*
X145016438Y-106727757D01*
X145053518Y-106734689D01*
X145104868Y-106754582D01*
X145162683Y-106772120D01*
X145195720Y-106789778D01*
X145225501Y-106801316D01*
X145277245Y-106833354D01*
X145335570Y-106864530D01*
X145360076Y-106884641D01*
X145382311Y-106898409D01*
X145431575Y-106943319D01*
X145487107Y-106988893D01*
X145503563Y-107008945D01*
X145518611Y-107022663D01*
X145562297Y-107080513D01*
X145611470Y-107140430D01*
X145620977Y-107158218D01*
X145629762Y-107169850D01*
X145664713Y-107240040D01*
X145703880Y-107313317D01*
X145708056Y-107327086D01*
X145711972Y-107334949D01*
X145735105Y-107416255D01*
X145760785Y-107500910D01*
X145761628Y-107509473D01*
X145762446Y-107512347D01*
X145770943Y-107604047D01*
X145780000Y-107696000D01*
X145770942Y-107787960D01*
X145762446Y-107879652D01*
X145761628Y-107882524D01*
X145760785Y-107891090D01*
X145735100Y-107975759D01*
X145711972Y-108057050D01*
X145708057Y-108064911D01*
X145703880Y-108078683D01*
X145664705Y-108151972D01*
X145629762Y-108222149D01*
X145620979Y-108233778D01*
X145611470Y-108251570D01*
X145562288Y-108311498D01*
X145518611Y-108369336D01*
X145503566Y-108383050D01*
X145487107Y-108403107D01*
X145431564Y-108448689D01*
X145382311Y-108493590D01*
X145360081Y-108507354D01*
X145335570Y-108527470D01*
X145277233Y-108558651D01*
X145225501Y-108590683D01*
X145195727Y-108602217D01*
X145162683Y-108619880D01*
X145104856Y-108637421D01*
X145053518Y-108657310D01*
X145016445Y-108664240D01*
X144975090Y-108676785D01*
X144920655Y-108682146D01*
X144872218Y-108691201D01*
X144828724Y-108691201D01*
X144780000Y-108696000D01*
X144731276Y-108691201D01*
X144687782Y-108691201D01*
X144639343Y-108682146D01*
X144584910Y-108676785D01*
X144543555Y-108664240D01*
X144506481Y-108657310D01*
X144455139Y-108637419D01*
X144397317Y-108619880D01*
X144364275Y-108602218D01*
X144334498Y-108590683D01*
X144282759Y-108558647D01*
X144224430Y-108527470D01*
X144199921Y-108507356D01*
X144177688Y-108493590D01*
X144128425Y-108448681D01*
X144072893Y-108403107D01*
X144056436Y-108383054D01*
X144041388Y-108369336D01*
X143997699Y-108311482D01*
X143948530Y-108251570D01*
X143939022Y-108233783D01*
X143930237Y-108222149D01*
X143895279Y-108151945D01*
X143856120Y-108078683D01*
X143851943Y-108064916D01*
X143848027Y-108057050D01*
X143824882Y-107975706D01*
X143799215Y-107891090D01*
X143798371Y-107882530D01*
X143797553Y-107879652D01*
X143789040Y-107787788D01*
X143780000Y-107696000D01*
X143789039Y-107604219D01*
X143797553Y-107512347D01*
X143798372Y-107509468D01*
X143799215Y-107500910D01*
X143824878Y-107416308D01*
X143848027Y-107334949D01*
X143851944Y-107327081D01*
X143856120Y-107313317D01*
X143895272Y-107240068D01*
X143930237Y-107169850D01*
X143939024Y-107158213D01*
X143948530Y-107140430D01*
X143997689Y-107080528D01*
X144041388Y-107022663D01*
X144056439Y-107008941D01*
X144072893Y-106988893D01*
X144128414Y-106943327D01*
X144177688Y-106898409D01*
X144199926Y-106884639D01*
X144224430Y-106864530D01*
X144282747Y-106833358D01*
X144334498Y-106801316D01*
X144364282Y-106789777D01*
X144397317Y-106772120D01*
X144455127Y-106754583D01*
X144506481Y-106734689D01*
X144543562Y-106727757D01*
X144584910Y-106715215D01*
X144639340Y-106709853D01*
X144687782Y-106700799D01*
X144731276Y-106700799D01*
X144780000Y-106696000D01*
X144828724Y-106700799D01*
G37*
G36*
X150414675Y-106746000D02*
G01*
X150456028Y-106746000D01*
X150502078Y-106754608D01*
X150554233Y-106759745D01*
X150593855Y-106771764D01*
X150629096Y-106778352D01*
X150677904Y-106797260D01*
X150733308Y-106814067D01*
X150764962Y-106830986D01*
X150793267Y-106841952D01*
X150842449Y-106872404D01*
X150898346Y-106902282D01*
X150921830Y-106921555D01*
X150942955Y-106934635D01*
X150989760Y-106977304D01*
X151043002Y-107020998D01*
X151058779Y-107040222D01*
X151073064Y-107053245D01*
X151114533Y-107108159D01*
X151161718Y-107165654D01*
X151170842Y-107182724D01*
X151179167Y-107193748D01*
X151212287Y-107260262D01*
X151249933Y-107330692D01*
X151253947Y-107343927D01*
X151257643Y-107351348D01*
X151279467Y-107428055D01*
X151304255Y-107509767D01*
X151305069Y-107518035D01*
X151305824Y-107520688D01*
X151313671Y-107605374D01*
X151322597Y-107696000D01*
X151313670Y-107786633D01*
X151305824Y-107871311D01*
X151305069Y-107873962D01*
X151304255Y-107882233D01*
X151279463Y-107963960D01*
X151257643Y-108040651D01*
X151253948Y-108048070D01*
X151249933Y-108061308D01*
X151212280Y-108131750D01*
X151179167Y-108198251D01*
X151170844Y-108209272D01*
X151161718Y-108226346D01*
X151114524Y-108283852D01*
X151073064Y-108338754D01*
X151058782Y-108351773D01*
X151043002Y-108371002D01*
X150989749Y-108414704D01*
X150942955Y-108457364D01*
X150921835Y-108470440D01*
X150898346Y-108489718D01*
X150842438Y-108519601D01*
X150793267Y-108550047D01*
X150764969Y-108561009D01*
X150733308Y-108577933D01*
X150677892Y-108594743D01*
X150629096Y-108613647D01*
X150593862Y-108620233D01*
X150554233Y-108632255D01*
X150502075Y-108637391D01*
X150456028Y-108646000D01*
X150414675Y-108646000D01*
X150368000Y-108650597D01*
X150321325Y-108646000D01*
X150279972Y-108646000D01*
X150233923Y-108637391D01*
X150181767Y-108632255D01*
X150142138Y-108620233D01*
X150106903Y-108613647D01*
X150058102Y-108594741D01*
X150002692Y-108577933D01*
X149971032Y-108561010D01*
X149942732Y-108550047D01*
X149893554Y-108519597D01*
X149837654Y-108489718D01*
X149814167Y-108470443D01*
X149793044Y-108457364D01*
X149746240Y-108414696D01*
X149692998Y-108371002D01*
X149677220Y-108351776D01*
X149662935Y-108338754D01*
X149621463Y-108283836D01*
X149574282Y-108226346D01*
X149565158Y-108209276D01*
X149556832Y-108198251D01*
X149523705Y-108131723D01*
X149486067Y-108061308D01*
X149482052Y-108048075D01*
X149478356Y-108040651D01*
X149456520Y-107963906D01*
X149431745Y-107882233D01*
X149430930Y-107873968D01*
X149430175Y-107871311D01*
X149422312Y-107786462D01*
X149413403Y-107696000D01*
X149422311Y-107605545D01*
X149430175Y-107520688D01*
X149430931Y-107518030D01*
X149431745Y-107509767D01*
X149456516Y-107428108D01*
X149478356Y-107351348D01*
X149482053Y-107343922D01*
X149486067Y-107330692D01*
X149523697Y-107260290D01*
X149556832Y-107193748D01*
X149565160Y-107182719D01*
X149574282Y-107165654D01*
X149621453Y-107108174D01*
X149662935Y-107053245D01*
X149677223Y-107040219D01*
X149692998Y-107020998D01*
X149746229Y-106977312D01*
X149793044Y-106934635D01*
X149814172Y-106921552D01*
X149837654Y-106902282D01*
X149893542Y-106872408D01*
X149942732Y-106841952D01*
X149971039Y-106830985D01*
X150002692Y-106814067D01*
X150058090Y-106797261D01*
X150106903Y-106778352D01*
X150142145Y-106771764D01*
X150181767Y-106759745D01*
X150233920Y-106754608D01*
X150279972Y-106746000D01*
X150321325Y-106746000D01*
X150368000Y-106741403D01*
X150414675Y-106746000D01*
G37*
G36*
X156510675Y-106746000D02*
G01*
X156552028Y-106746000D01*
X156598078Y-106754608D01*
X156650233Y-106759745D01*
X156689855Y-106771764D01*
X156725096Y-106778352D01*
X156773904Y-106797260D01*
X156829308Y-106814067D01*
X156860962Y-106830986D01*
X156889267Y-106841952D01*
X156938449Y-106872404D01*
X156994346Y-106902282D01*
X157017830Y-106921555D01*
X157038955Y-106934635D01*
X157085760Y-106977304D01*
X157139002Y-107020998D01*
X157154779Y-107040222D01*
X157169064Y-107053245D01*
X157210533Y-107108159D01*
X157257718Y-107165654D01*
X157266842Y-107182724D01*
X157275167Y-107193748D01*
X157308287Y-107260262D01*
X157345933Y-107330692D01*
X157349947Y-107343927D01*
X157353643Y-107351348D01*
X157375467Y-107428055D01*
X157400255Y-107509767D01*
X157401069Y-107518035D01*
X157401824Y-107520688D01*
X157409671Y-107605374D01*
X157418597Y-107696000D01*
X157409670Y-107786633D01*
X157401824Y-107871311D01*
X157401069Y-107873962D01*
X157400255Y-107882233D01*
X157375463Y-107963960D01*
X157353643Y-108040651D01*
X157349948Y-108048070D01*
X157345933Y-108061308D01*
X157308280Y-108131750D01*
X157275167Y-108198251D01*
X157266844Y-108209272D01*
X157257718Y-108226346D01*
X157210524Y-108283852D01*
X157169064Y-108338754D01*
X157154782Y-108351773D01*
X157139002Y-108371002D01*
X157085749Y-108414704D01*
X157038955Y-108457364D01*
X157017835Y-108470440D01*
X156994346Y-108489718D01*
X156938438Y-108519601D01*
X156889267Y-108550047D01*
X156860969Y-108561009D01*
X156829308Y-108577933D01*
X156773892Y-108594743D01*
X156725096Y-108613647D01*
X156689862Y-108620233D01*
X156650233Y-108632255D01*
X156598075Y-108637391D01*
X156552028Y-108646000D01*
X156510675Y-108646000D01*
X156464000Y-108650597D01*
X156417325Y-108646000D01*
X156375972Y-108646000D01*
X156329923Y-108637391D01*
X156277767Y-108632255D01*
X156238138Y-108620233D01*
X156202903Y-108613647D01*
X156154102Y-108594741D01*
X156098692Y-108577933D01*
X156067032Y-108561010D01*
X156038732Y-108550047D01*
X155989554Y-108519597D01*
X155933654Y-108489718D01*
X155910167Y-108470443D01*
X155889044Y-108457364D01*
X155842240Y-108414696D01*
X155788998Y-108371002D01*
X155773220Y-108351776D01*
X155758935Y-108338754D01*
X155717463Y-108283836D01*
X155670282Y-108226346D01*
X155661158Y-108209276D01*
X155652832Y-108198251D01*
X155619705Y-108131723D01*
X155582067Y-108061308D01*
X155578052Y-108048075D01*
X155574356Y-108040651D01*
X155552520Y-107963906D01*
X155527745Y-107882233D01*
X155526930Y-107873968D01*
X155526175Y-107871311D01*
X155518312Y-107786462D01*
X155509403Y-107696000D01*
X155518311Y-107605545D01*
X155526175Y-107520688D01*
X155526931Y-107518030D01*
X155527745Y-107509767D01*
X155552516Y-107428108D01*
X155574356Y-107351348D01*
X155578053Y-107343922D01*
X155582067Y-107330692D01*
X155619697Y-107260290D01*
X155652832Y-107193748D01*
X155661160Y-107182719D01*
X155670282Y-107165654D01*
X155717453Y-107108174D01*
X155758935Y-107053245D01*
X155773223Y-107040219D01*
X155788998Y-107020998D01*
X155842229Y-106977312D01*
X155889044Y-106934635D01*
X155910172Y-106921552D01*
X155933654Y-106902282D01*
X155989542Y-106872408D01*
X156038732Y-106841952D01*
X156067039Y-106830985D01*
X156098692Y-106814067D01*
X156154090Y-106797261D01*
X156202903Y-106778352D01*
X156238145Y-106771764D01*
X156277767Y-106759745D01*
X156329920Y-106754608D01*
X156375972Y-106746000D01*
X156417325Y-106746000D01*
X156464000Y-106741403D01*
X156510675Y-106746000D01*
G37*
G36*
X150414675Y-104206000D02*
G01*
X150456028Y-104206000D01*
X150502078Y-104214608D01*
X150554233Y-104219745D01*
X150593855Y-104231764D01*
X150629096Y-104238352D01*
X150677904Y-104257260D01*
X150733308Y-104274067D01*
X150764962Y-104290986D01*
X150793267Y-104301952D01*
X150842449Y-104332404D01*
X150898346Y-104362282D01*
X150921830Y-104381555D01*
X150942955Y-104394635D01*
X150989760Y-104437304D01*
X151043002Y-104480998D01*
X151058779Y-104500222D01*
X151073064Y-104513245D01*
X151114533Y-104568159D01*
X151161718Y-104625654D01*
X151170842Y-104642724D01*
X151179167Y-104653748D01*
X151212287Y-104720262D01*
X151249933Y-104790692D01*
X151253947Y-104803927D01*
X151257643Y-104811348D01*
X151279467Y-104888055D01*
X151304255Y-104969767D01*
X151305069Y-104978035D01*
X151305824Y-104980688D01*
X151313671Y-105065374D01*
X151322597Y-105156000D01*
X151313670Y-105246633D01*
X151305824Y-105331311D01*
X151305069Y-105333962D01*
X151304255Y-105342233D01*
X151279463Y-105423960D01*
X151257643Y-105500651D01*
X151253948Y-105508070D01*
X151249933Y-105521308D01*
X151212280Y-105591750D01*
X151179167Y-105658251D01*
X151170844Y-105669272D01*
X151161718Y-105686346D01*
X151114524Y-105743852D01*
X151073064Y-105798754D01*
X151058782Y-105811773D01*
X151043002Y-105831002D01*
X150989749Y-105874704D01*
X150942955Y-105917364D01*
X150921835Y-105930440D01*
X150898346Y-105949718D01*
X150842438Y-105979601D01*
X150793267Y-106010047D01*
X150764969Y-106021009D01*
X150733308Y-106037933D01*
X150677892Y-106054743D01*
X150629096Y-106073647D01*
X150593862Y-106080233D01*
X150554233Y-106092255D01*
X150502075Y-106097391D01*
X150456028Y-106106000D01*
X150414675Y-106106000D01*
X150368000Y-106110597D01*
X150321325Y-106106000D01*
X150279972Y-106106000D01*
X150233923Y-106097391D01*
X150181767Y-106092255D01*
X150142138Y-106080233D01*
X150106903Y-106073647D01*
X150058102Y-106054741D01*
X150002692Y-106037933D01*
X149971032Y-106021010D01*
X149942732Y-106010047D01*
X149893554Y-105979597D01*
X149837654Y-105949718D01*
X149814167Y-105930443D01*
X149793044Y-105917364D01*
X149746240Y-105874696D01*
X149692998Y-105831002D01*
X149677220Y-105811776D01*
X149662935Y-105798754D01*
X149621463Y-105743836D01*
X149574282Y-105686346D01*
X149565158Y-105669276D01*
X149556832Y-105658251D01*
X149523705Y-105591723D01*
X149486067Y-105521308D01*
X149482052Y-105508075D01*
X149478356Y-105500651D01*
X149456520Y-105423906D01*
X149431745Y-105342233D01*
X149430930Y-105333968D01*
X149430175Y-105331311D01*
X149422312Y-105246462D01*
X149413403Y-105156000D01*
X149422311Y-105065545D01*
X149430175Y-104980688D01*
X149430931Y-104978030D01*
X149431745Y-104969767D01*
X149456516Y-104888108D01*
X149478356Y-104811348D01*
X149482053Y-104803922D01*
X149486067Y-104790692D01*
X149523697Y-104720290D01*
X149556832Y-104653748D01*
X149565160Y-104642719D01*
X149574282Y-104625654D01*
X149621453Y-104568174D01*
X149662935Y-104513245D01*
X149677223Y-104500219D01*
X149692998Y-104480998D01*
X149746229Y-104437312D01*
X149793044Y-104394635D01*
X149814172Y-104381552D01*
X149837654Y-104362282D01*
X149893542Y-104332408D01*
X149942732Y-104301952D01*
X149971039Y-104290985D01*
X150002692Y-104274067D01*
X150058090Y-104257261D01*
X150106903Y-104238352D01*
X150142145Y-104231764D01*
X150181767Y-104219745D01*
X150233920Y-104214608D01*
X150279972Y-104206000D01*
X150321325Y-104206000D01*
X150368000Y-104201403D01*
X150414675Y-104206000D01*
G37*
G36*
X156510675Y-104206000D02*
G01*
X156552028Y-104206000D01*
X156598078Y-104214608D01*
X156650233Y-104219745D01*
X156689855Y-104231764D01*
X156725096Y-104238352D01*
X156773904Y-104257260D01*
X156829308Y-104274067D01*
X156860962Y-104290986D01*
X156889267Y-104301952D01*
X156938449Y-104332404D01*
X156994346Y-104362282D01*
X157017830Y-104381555D01*
X157038955Y-104394635D01*
X157085760Y-104437304D01*
X157139002Y-104480998D01*
X157154779Y-104500222D01*
X157169064Y-104513245D01*
X157210533Y-104568159D01*
X157257718Y-104625654D01*
X157266842Y-104642724D01*
X157275167Y-104653748D01*
X157308287Y-104720262D01*
X157345933Y-104790692D01*
X157349947Y-104803927D01*
X157353643Y-104811348D01*
X157375467Y-104888055D01*
X157400255Y-104969767D01*
X157401069Y-104978035D01*
X157401824Y-104980688D01*
X157409671Y-105065374D01*
X157418597Y-105156000D01*
X157409670Y-105246633D01*
X157401824Y-105331311D01*
X157401069Y-105333962D01*
X157400255Y-105342233D01*
X157375463Y-105423960D01*
X157353643Y-105500651D01*
X157349948Y-105508070D01*
X157345933Y-105521308D01*
X157308280Y-105591750D01*
X157275167Y-105658251D01*
X157266844Y-105669272D01*
X157257718Y-105686346D01*
X157210524Y-105743852D01*
X157169064Y-105798754D01*
X157154782Y-105811773D01*
X157139002Y-105831002D01*
X157085749Y-105874704D01*
X157038955Y-105917364D01*
X157017835Y-105930440D01*
X156994346Y-105949718D01*
X156938438Y-105979601D01*
X156889267Y-106010047D01*
X156860969Y-106021009D01*
X156829308Y-106037933D01*
X156773892Y-106054743D01*
X156725096Y-106073647D01*
X156689862Y-106080233D01*
X156650233Y-106092255D01*
X156598075Y-106097391D01*
X156552028Y-106106000D01*
X156510675Y-106106000D01*
X156464000Y-106110597D01*
X156417325Y-106106000D01*
X156375972Y-106106000D01*
X156329923Y-106097391D01*
X156277767Y-106092255D01*
X156238138Y-106080233D01*
X156202903Y-106073647D01*
X156154102Y-106054741D01*
X156098692Y-106037933D01*
X156067032Y-106021010D01*
X156038732Y-106010047D01*
X155989554Y-105979597D01*
X155933654Y-105949718D01*
X155910167Y-105930443D01*
X155889044Y-105917364D01*
X155842240Y-105874696D01*
X155788998Y-105831002D01*
X155773220Y-105811776D01*
X155758935Y-105798754D01*
X155717463Y-105743836D01*
X155670282Y-105686346D01*
X155661158Y-105669276D01*
X155652832Y-105658251D01*
X155619705Y-105591723D01*
X155582067Y-105521308D01*
X155578052Y-105508075D01*
X155574356Y-105500651D01*
X155552520Y-105423906D01*
X155527745Y-105342233D01*
X155526930Y-105333968D01*
X155526175Y-105331311D01*
X155518312Y-105246462D01*
X155509403Y-105156000D01*
X155518311Y-105065545D01*
X155526175Y-104980688D01*
X155526931Y-104978030D01*
X155527745Y-104969767D01*
X155552516Y-104888108D01*
X155574356Y-104811348D01*
X155578053Y-104803922D01*
X155582067Y-104790692D01*
X155619697Y-104720290D01*
X155652832Y-104653748D01*
X155661160Y-104642719D01*
X155670282Y-104625654D01*
X155717453Y-104568174D01*
X155758935Y-104513245D01*
X155773223Y-104500219D01*
X155788998Y-104480998D01*
X155842229Y-104437312D01*
X155889044Y-104394635D01*
X155910172Y-104381552D01*
X155933654Y-104362282D01*
X155989542Y-104332408D01*
X156038732Y-104301952D01*
X156067039Y-104290985D01*
X156098692Y-104274067D01*
X156154090Y-104257261D01*
X156202903Y-104238352D01*
X156238145Y-104231764D01*
X156277767Y-104219745D01*
X156329920Y-104214608D01*
X156375972Y-104206000D01*
X156417325Y-104206000D01*
X156464000Y-104201403D01*
X156510675Y-104206000D01*
G37*
G36*
X137208724Y-102636799D02*
G01*
X137252218Y-102636799D01*
X137300658Y-102645853D01*
X137355090Y-102651215D01*
X137396438Y-102663757D01*
X137433518Y-102670689D01*
X137484868Y-102690582D01*
X137542683Y-102708120D01*
X137575720Y-102725778D01*
X137605501Y-102737316D01*
X137657245Y-102769354D01*
X137715570Y-102800530D01*
X137740076Y-102820641D01*
X137762311Y-102834409D01*
X137811575Y-102879319D01*
X137867107Y-102924893D01*
X137883563Y-102944945D01*
X137898611Y-102958663D01*
X137942297Y-103016513D01*
X137991470Y-103076430D01*
X138000977Y-103094218D01*
X138009762Y-103105850D01*
X138044713Y-103176040D01*
X138083880Y-103249317D01*
X138088056Y-103263086D01*
X138091972Y-103270949D01*
X138115105Y-103352255D01*
X138140785Y-103436910D01*
X138141628Y-103445473D01*
X138142446Y-103448347D01*
X138150943Y-103540047D01*
X138160000Y-103632000D01*
X138150942Y-103723960D01*
X138142446Y-103815652D01*
X138141628Y-103818524D01*
X138140785Y-103827090D01*
X138115100Y-103911759D01*
X138091972Y-103993050D01*
X138088057Y-104000911D01*
X138083880Y-104014683D01*
X138044705Y-104087972D01*
X138009762Y-104158149D01*
X138000979Y-104169778D01*
X137991470Y-104187570D01*
X137942288Y-104247498D01*
X137898611Y-104305336D01*
X137883566Y-104319050D01*
X137867107Y-104339107D01*
X137811564Y-104384689D01*
X137762311Y-104429590D01*
X137740081Y-104443354D01*
X137715570Y-104463470D01*
X137657233Y-104494651D01*
X137605501Y-104526683D01*
X137575727Y-104538217D01*
X137542683Y-104555880D01*
X137484856Y-104573421D01*
X137433518Y-104593310D01*
X137396445Y-104600240D01*
X137355090Y-104612785D01*
X137300655Y-104618146D01*
X137252218Y-104627201D01*
X137208724Y-104627201D01*
X137160000Y-104632000D01*
X137111276Y-104627201D01*
X137067782Y-104627201D01*
X137019343Y-104618146D01*
X136964910Y-104612785D01*
X136923555Y-104600240D01*
X136886481Y-104593310D01*
X136835139Y-104573419D01*
X136777317Y-104555880D01*
X136744275Y-104538218D01*
X136714498Y-104526683D01*
X136662759Y-104494647D01*
X136604430Y-104463470D01*
X136579921Y-104443356D01*
X136557688Y-104429590D01*
X136508425Y-104384681D01*
X136452893Y-104339107D01*
X136436436Y-104319054D01*
X136421388Y-104305336D01*
X136377699Y-104247482D01*
X136328530Y-104187570D01*
X136319022Y-104169783D01*
X136310237Y-104158149D01*
X136275279Y-104087945D01*
X136236120Y-104014683D01*
X136231943Y-104000916D01*
X136228027Y-103993050D01*
X136204882Y-103911706D01*
X136179215Y-103827090D01*
X136178371Y-103818530D01*
X136177553Y-103815652D01*
X136169040Y-103723788D01*
X136160000Y-103632000D01*
X136169039Y-103540219D01*
X136177553Y-103448347D01*
X136178372Y-103445468D01*
X136179215Y-103436910D01*
X136204878Y-103352308D01*
X136228027Y-103270949D01*
X136231944Y-103263081D01*
X136236120Y-103249317D01*
X136275272Y-103176068D01*
X136310237Y-103105850D01*
X136319024Y-103094213D01*
X136328530Y-103076430D01*
X136377689Y-103016528D01*
X136421388Y-102958663D01*
X136436439Y-102944941D01*
X136452893Y-102924893D01*
X136508414Y-102879327D01*
X136557688Y-102834409D01*
X136579926Y-102820639D01*
X136604430Y-102800530D01*
X136662747Y-102769358D01*
X136714498Y-102737316D01*
X136744282Y-102725777D01*
X136777317Y-102708120D01*
X136835127Y-102690583D01*
X136886481Y-102670689D01*
X136923562Y-102663757D01*
X136964910Y-102651215D01*
X137019340Y-102645853D01*
X137067782Y-102636799D01*
X137111276Y-102636799D01*
X137160000Y-102632000D01*
X137208724Y-102636799D01*
G37*
G36*
X144828724Y-102636799D02*
G01*
X144872218Y-102636799D01*
X144920658Y-102645853D01*
X144975090Y-102651215D01*
X145016438Y-102663757D01*
X145053518Y-102670689D01*
X145104868Y-102690582D01*
X145162683Y-102708120D01*
X145195720Y-102725778D01*
X145225501Y-102737316D01*
X145277245Y-102769354D01*
X145335570Y-102800530D01*
X145360076Y-102820641D01*
X145382311Y-102834409D01*
X145431575Y-102879319D01*
X145487107Y-102924893D01*
X145503563Y-102944945D01*
X145518611Y-102958663D01*
X145562297Y-103016513D01*
X145611470Y-103076430D01*
X145620977Y-103094218D01*
X145629762Y-103105850D01*
X145664713Y-103176040D01*
X145703880Y-103249317D01*
X145708056Y-103263086D01*
X145711972Y-103270949D01*
X145735105Y-103352255D01*
X145760785Y-103436910D01*
X145761628Y-103445473D01*
X145762446Y-103448347D01*
X145770943Y-103540047D01*
X145780000Y-103632000D01*
X145770942Y-103723960D01*
X145762446Y-103815652D01*
X145761628Y-103818524D01*
X145760785Y-103827090D01*
X145735100Y-103911759D01*
X145711972Y-103993050D01*
X145708057Y-104000911D01*
X145703880Y-104014683D01*
X145664705Y-104087972D01*
X145629762Y-104158149D01*
X145620979Y-104169778D01*
X145611470Y-104187570D01*
X145562288Y-104247498D01*
X145518611Y-104305336D01*
X145503566Y-104319050D01*
X145487107Y-104339107D01*
X145431564Y-104384689D01*
X145382311Y-104429590D01*
X145360081Y-104443354D01*
X145335570Y-104463470D01*
X145277233Y-104494651D01*
X145225501Y-104526683D01*
X145195727Y-104538217D01*
X145162683Y-104555880D01*
X145104856Y-104573421D01*
X145053518Y-104593310D01*
X145016445Y-104600240D01*
X144975090Y-104612785D01*
X144920655Y-104618146D01*
X144872218Y-104627201D01*
X144828724Y-104627201D01*
X144780000Y-104632000D01*
X144731276Y-104627201D01*
X144687782Y-104627201D01*
X144639343Y-104618146D01*
X144584910Y-104612785D01*
X144543555Y-104600240D01*
X144506481Y-104593310D01*
X144455139Y-104573419D01*
X144397317Y-104555880D01*
X144364275Y-104538218D01*
X144334498Y-104526683D01*
X144282759Y-104494647D01*
X144224430Y-104463470D01*
X144199921Y-104443356D01*
X144177688Y-104429590D01*
X144128425Y-104384681D01*
X144072893Y-104339107D01*
X144056436Y-104319054D01*
X144041388Y-104305336D01*
X143997699Y-104247482D01*
X143948530Y-104187570D01*
X143939022Y-104169783D01*
X143930237Y-104158149D01*
X143895279Y-104087945D01*
X143856120Y-104014683D01*
X143851943Y-104000916D01*
X143848027Y-103993050D01*
X143824882Y-103911706D01*
X143799215Y-103827090D01*
X143798371Y-103818530D01*
X143797553Y-103815652D01*
X143789040Y-103723788D01*
X143780000Y-103632000D01*
X143789039Y-103540219D01*
X143797553Y-103448347D01*
X143798372Y-103445468D01*
X143799215Y-103436910D01*
X143824878Y-103352308D01*
X143848027Y-103270949D01*
X143851944Y-103263081D01*
X143856120Y-103249317D01*
X143895272Y-103176068D01*
X143930237Y-103105850D01*
X143939024Y-103094213D01*
X143948530Y-103076430D01*
X143997689Y-103016528D01*
X144041388Y-102958663D01*
X144056439Y-102944941D01*
X144072893Y-102924893D01*
X144128414Y-102879327D01*
X144177688Y-102834409D01*
X144199926Y-102820639D01*
X144224430Y-102800530D01*
X144282747Y-102769358D01*
X144334498Y-102737316D01*
X144364282Y-102725777D01*
X144397317Y-102708120D01*
X144455127Y-102690583D01*
X144506481Y-102670689D01*
X144543562Y-102663757D01*
X144584910Y-102651215D01*
X144639340Y-102645853D01*
X144687782Y-102636799D01*
X144731276Y-102636799D01*
X144780000Y-102632000D01*
X144828724Y-102636799D01*
G37*
G36*
X156004724Y-101112799D02*
G01*
X156048218Y-101112799D01*
X156096658Y-101121853D01*
X156151090Y-101127215D01*
X156192438Y-101139757D01*
X156229518Y-101146689D01*
X156280868Y-101166582D01*
X156338683Y-101184120D01*
X156371720Y-101201778D01*
X156401501Y-101213316D01*
X156453245Y-101245354D01*
X156511570Y-101276530D01*
X156536076Y-101296641D01*
X156558311Y-101310409D01*
X156607575Y-101355319D01*
X156663107Y-101400893D01*
X156679563Y-101420945D01*
X156694611Y-101434663D01*
X156738297Y-101492513D01*
X156787470Y-101552430D01*
X156796977Y-101570218D01*
X156805762Y-101581850D01*
X156840713Y-101652040D01*
X156879880Y-101725317D01*
X156884056Y-101739086D01*
X156887972Y-101746949D01*
X156911105Y-101828255D01*
X156936785Y-101912910D01*
X156937628Y-101921473D01*
X156938446Y-101924347D01*
X156946943Y-102016047D01*
X156956000Y-102108000D01*
X156946942Y-102199960D01*
X156938446Y-102291652D01*
X156937628Y-102294524D01*
X156936785Y-102303090D01*
X156911100Y-102387759D01*
X156887972Y-102469050D01*
X156884057Y-102476911D01*
X156879880Y-102490683D01*
X156840705Y-102563972D01*
X156805762Y-102634149D01*
X156796979Y-102645778D01*
X156787470Y-102663570D01*
X156738288Y-102723498D01*
X156694611Y-102781336D01*
X156679566Y-102795050D01*
X156663107Y-102815107D01*
X156607564Y-102860689D01*
X156558311Y-102905590D01*
X156536081Y-102919354D01*
X156511570Y-102939470D01*
X156453233Y-102970651D01*
X156401501Y-103002683D01*
X156371727Y-103014217D01*
X156338683Y-103031880D01*
X156280856Y-103049421D01*
X156229518Y-103069310D01*
X156192445Y-103076240D01*
X156151090Y-103088785D01*
X156096655Y-103094146D01*
X156048218Y-103103201D01*
X156004724Y-103103201D01*
X155956000Y-103108000D01*
X155907276Y-103103201D01*
X155863782Y-103103201D01*
X155815343Y-103094146D01*
X155760910Y-103088785D01*
X155719555Y-103076240D01*
X155682481Y-103069310D01*
X155631139Y-103049419D01*
X155573317Y-103031880D01*
X155540275Y-103014218D01*
X155510498Y-103002683D01*
X155458759Y-102970647D01*
X155400430Y-102939470D01*
X155375921Y-102919356D01*
X155353688Y-102905590D01*
X155304425Y-102860681D01*
X155248893Y-102815107D01*
X155232436Y-102795054D01*
X155217388Y-102781336D01*
X155173699Y-102723482D01*
X155124530Y-102663570D01*
X155115022Y-102645783D01*
X155106237Y-102634149D01*
X155071279Y-102563945D01*
X155032120Y-102490683D01*
X155027943Y-102476916D01*
X155024027Y-102469050D01*
X155000882Y-102387706D01*
X154975215Y-102303090D01*
X154974371Y-102294530D01*
X154973553Y-102291652D01*
X154965040Y-102199788D01*
X154956000Y-102108000D01*
X154965039Y-102016219D01*
X154973553Y-101924347D01*
X154974372Y-101921468D01*
X154975215Y-101912910D01*
X155000878Y-101828308D01*
X155024027Y-101746949D01*
X155027944Y-101739081D01*
X155032120Y-101725317D01*
X155071272Y-101652068D01*
X155106237Y-101581850D01*
X155115024Y-101570213D01*
X155124530Y-101552430D01*
X155173689Y-101492528D01*
X155217388Y-101434663D01*
X155232439Y-101420941D01*
X155248893Y-101400893D01*
X155304414Y-101355327D01*
X155353688Y-101310409D01*
X155375926Y-101296639D01*
X155400430Y-101276530D01*
X155458747Y-101245358D01*
X155510498Y-101213316D01*
X155540282Y-101201777D01*
X155573317Y-101184120D01*
X155631127Y-101166583D01*
X155682481Y-101146689D01*
X155719562Y-101139757D01*
X155760910Y-101127215D01*
X155815340Y-101121853D01*
X155863782Y-101112799D01*
X155907276Y-101112799D01*
X155956000Y-101108000D01*
X156004724Y-101112799D01*
G37*
G36*
X149903921Y-101212930D02*
G01*
X149954076Y-101212930D01*
X149997385Y-101222135D01*
X150035460Y-101225886D01*
X150083296Y-101240396D01*
X150138115Y-101252049D01*
X150173191Y-101267665D01*
X150204186Y-101277068D01*
X150253442Y-101303396D01*
X150310000Y-101328577D01*
X150336294Y-101347680D01*
X150359673Y-101360177D01*
X150407367Y-101399318D01*
X150462218Y-101439170D01*
X150480025Y-101458947D01*
X150495968Y-101472031D01*
X150538808Y-101524232D01*
X150588115Y-101578993D01*
X150598474Y-101596935D01*
X150607822Y-101608326D01*
X150642398Y-101673015D01*
X150682191Y-101741937D01*
X150686768Y-101756026D01*
X150690931Y-101763813D01*
X150713875Y-101839450D01*
X150740333Y-101920879D01*
X150741264Y-101929741D01*
X150742113Y-101932539D01*
X150750377Y-102016448D01*
X150760000Y-102108000D01*
X150750376Y-102199559D01*
X150742113Y-102283460D01*
X150741264Y-102286256D01*
X150740333Y-102295121D01*
X150713870Y-102376563D01*
X150690931Y-102452186D01*
X150686769Y-102459971D01*
X150682191Y-102474063D01*
X150642391Y-102542997D01*
X150607822Y-102607673D01*
X150598476Y-102619060D01*
X150588115Y-102637007D01*
X150538799Y-102691777D01*
X150495968Y-102743968D01*
X150480029Y-102757048D01*
X150462218Y-102776830D01*
X150407356Y-102816688D01*
X150359673Y-102855822D01*
X150336299Y-102868315D01*
X150310000Y-102887423D01*
X150253431Y-102912608D01*
X150204186Y-102938931D01*
X150173198Y-102948330D01*
X150138115Y-102963951D01*
X150083285Y-102975605D01*
X150035460Y-102990113D01*
X149997394Y-102993862D01*
X149954076Y-103003070D01*
X149903911Y-103003070D01*
X149860000Y-103007395D01*
X149816089Y-103003070D01*
X149765924Y-103003070D01*
X149722605Y-102993862D01*
X149684539Y-102990113D01*
X149636711Y-102975604D01*
X149581885Y-102963951D01*
X149546803Y-102948331D01*
X149515813Y-102938931D01*
X149466562Y-102912606D01*
X149410000Y-102887423D01*
X149383703Y-102868317D01*
X149360326Y-102855822D01*
X149312634Y-102816682D01*
X149257782Y-102776830D01*
X149239973Y-102757051D01*
X149224031Y-102743968D01*
X149181189Y-102691765D01*
X149131885Y-102637007D01*
X149121526Y-102619065D01*
X149112177Y-102607673D01*
X149077594Y-102542974D01*
X149037809Y-102474063D01*
X149033231Y-102459976D01*
X149029068Y-102452186D01*
X149006114Y-102376517D01*
X148979667Y-102295121D01*
X148978735Y-102286261D01*
X148977886Y-102283460D01*
X148969607Y-102199408D01*
X148960000Y-102108000D01*
X148969606Y-102016599D01*
X148977886Y-101932539D01*
X148978736Y-101929736D01*
X148979667Y-101920879D01*
X149006109Y-101839496D01*
X149029068Y-101763813D01*
X149033232Y-101756021D01*
X149037809Y-101741937D01*
X149077587Y-101673038D01*
X149112177Y-101608326D01*
X149121528Y-101596931D01*
X149131885Y-101578993D01*
X149181180Y-101524245D01*
X149224031Y-101472031D01*
X149239976Y-101458944D01*
X149257782Y-101439170D01*
X149312623Y-101399325D01*
X149360326Y-101360177D01*
X149383708Y-101347678D01*
X149410000Y-101328577D01*
X149466551Y-101303398D01*
X149515813Y-101277068D01*
X149546810Y-101267664D01*
X149581885Y-101252049D01*
X149636700Y-101240397D01*
X149684539Y-101225886D01*
X149722614Y-101222135D01*
X149765924Y-101212930D01*
X149816079Y-101212930D01*
X149860000Y-101208604D01*
X149903921Y-101212930D01*
G37*
G36*
X137208724Y-98699799D02*
G01*
X137252218Y-98699799D01*
X137300658Y-98708853D01*
X137355090Y-98714215D01*
X137396438Y-98726757D01*
X137433518Y-98733689D01*
X137484868Y-98753582D01*
X137542683Y-98771120D01*
X137575720Y-98788778D01*
X137605501Y-98800316D01*
X137657245Y-98832354D01*
X137715570Y-98863530D01*
X137740076Y-98883641D01*
X137762311Y-98897409D01*
X137811575Y-98942319D01*
X137867107Y-98987893D01*
X137883563Y-99007945D01*
X137898611Y-99021663D01*
X137942297Y-99079513D01*
X137991470Y-99139430D01*
X138000977Y-99157218D01*
X138009762Y-99168850D01*
X138044713Y-99239040D01*
X138083880Y-99312317D01*
X138088056Y-99326086D01*
X138091972Y-99333949D01*
X138115105Y-99415255D01*
X138140785Y-99499910D01*
X138141628Y-99508473D01*
X138142446Y-99511347D01*
X138150943Y-99603047D01*
X138160000Y-99695000D01*
X138150942Y-99786960D01*
X138142446Y-99878652D01*
X138141628Y-99881524D01*
X138140785Y-99890090D01*
X138115100Y-99974759D01*
X138091972Y-100056050D01*
X138088057Y-100063911D01*
X138083880Y-100077683D01*
X138044705Y-100150972D01*
X138009762Y-100221149D01*
X138000979Y-100232778D01*
X137991470Y-100250570D01*
X137942288Y-100310498D01*
X137898611Y-100368336D01*
X137883566Y-100382050D01*
X137867107Y-100402107D01*
X137811564Y-100447689D01*
X137762311Y-100492590D01*
X137740081Y-100506354D01*
X137715570Y-100526470D01*
X137657233Y-100557651D01*
X137605501Y-100589683D01*
X137575727Y-100601217D01*
X137542683Y-100618880D01*
X137484856Y-100636421D01*
X137433518Y-100656310D01*
X137396445Y-100663240D01*
X137355090Y-100675785D01*
X137300655Y-100681146D01*
X137252218Y-100690201D01*
X137208724Y-100690201D01*
X137160000Y-100695000D01*
X137111276Y-100690201D01*
X137067782Y-100690201D01*
X137019343Y-100681146D01*
X136964910Y-100675785D01*
X136923555Y-100663240D01*
X136886481Y-100656310D01*
X136835139Y-100636419D01*
X136777317Y-100618880D01*
X136744275Y-100601218D01*
X136714498Y-100589683D01*
X136662759Y-100557647D01*
X136604430Y-100526470D01*
X136579921Y-100506356D01*
X136557688Y-100492590D01*
X136508425Y-100447681D01*
X136452893Y-100402107D01*
X136436436Y-100382054D01*
X136421388Y-100368336D01*
X136377699Y-100310482D01*
X136328530Y-100250570D01*
X136319022Y-100232783D01*
X136310237Y-100221149D01*
X136275279Y-100150945D01*
X136236120Y-100077683D01*
X136231943Y-100063916D01*
X136228027Y-100056050D01*
X136204882Y-99974706D01*
X136179215Y-99890090D01*
X136178371Y-99881530D01*
X136177553Y-99878652D01*
X136169040Y-99786788D01*
X136160000Y-99695000D01*
X136169039Y-99603219D01*
X136177553Y-99511347D01*
X136178372Y-99508468D01*
X136179215Y-99499910D01*
X136204878Y-99415308D01*
X136228027Y-99333949D01*
X136231944Y-99326081D01*
X136236120Y-99312317D01*
X136275272Y-99239068D01*
X136310237Y-99168850D01*
X136319024Y-99157213D01*
X136328530Y-99139430D01*
X136377689Y-99079528D01*
X136421388Y-99021663D01*
X136436439Y-99007941D01*
X136452893Y-98987893D01*
X136508414Y-98942327D01*
X136557688Y-98897409D01*
X136579926Y-98883639D01*
X136604430Y-98863530D01*
X136662747Y-98832358D01*
X136714498Y-98800316D01*
X136744282Y-98788777D01*
X136777317Y-98771120D01*
X136835127Y-98753583D01*
X136886481Y-98733689D01*
X136923562Y-98726757D01*
X136964910Y-98714215D01*
X137019340Y-98708853D01*
X137067782Y-98699799D01*
X137111276Y-98699799D01*
X137160000Y-98695000D01*
X137208724Y-98699799D01*
G37*
G36*
X144828724Y-98699799D02*
G01*
X144872218Y-98699799D01*
X144920658Y-98708853D01*
X144975090Y-98714215D01*
X145016438Y-98726757D01*
X145053518Y-98733689D01*
X145104868Y-98753582D01*
X145162683Y-98771120D01*
X145195720Y-98788778D01*
X145225501Y-98800316D01*
X145277245Y-98832354D01*
X145335570Y-98863530D01*
X145360076Y-98883641D01*
X145382311Y-98897409D01*
X145431575Y-98942319D01*
X145487107Y-98987893D01*
X145503563Y-99007945D01*
X145518611Y-99021663D01*
X145562297Y-99079513D01*
X145611470Y-99139430D01*
X145620977Y-99157218D01*
X145629762Y-99168850D01*
X145664713Y-99239040D01*
X145703880Y-99312317D01*
X145708056Y-99326086D01*
X145711972Y-99333949D01*
X145735105Y-99415255D01*
X145760785Y-99499910D01*
X145761628Y-99508473D01*
X145762446Y-99511347D01*
X145770943Y-99603047D01*
X145780000Y-99695000D01*
X145770942Y-99786960D01*
X145762446Y-99878652D01*
X145761628Y-99881524D01*
X145760785Y-99890090D01*
X145735100Y-99974759D01*
X145711972Y-100056050D01*
X145708057Y-100063911D01*
X145703880Y-100077683D01*
X145664705Y-100150972D01*
X145629762Y-100221149D01*
X145620979Y-100232778D01*
X145611470Y-100250570D01*
X145562288Y-100310498D01*
X145518611Y-100368336D01*
X145503566Y-100382050D01*
X145487107Y-100402107D01*
X145431564Y-100447689D01*
X145382311Y-100492590D01*
X145360081Y-100506354D01*
X145335570Y-100526470D01*
X145277233Y-100557651D01*
X145225501Y-100589683D01*
X145195727Y-100601217D01*
X145162683Y-100618880D01*
X145104856Y-100636421D01*
X145053518Y-100656310D01*
X145016445Y-100663240D01*
X144975090Y-100675785D01*
X144920655Y-100681146D01*
X144872218Y-100690201D01*
X144828724Y-100690201D01*
X144780000Y-100695000D01*
X144731276Y-100690201D01*
X144687782Y-100690201D01*
X144639343Y-100681146D01*
X144584910Y-100675785D01*
X144543555Y-100663240D01*
X144506481Y-100656310D01*
X144455139Y-100636419D01*
X144397317Y-100618880D01*
X144364275Y-100601218D01*
X144334498Y-100589683D01*
X144282759Y-100557647D01*
X144224430Y-100526470D01*
X144199921Y-100506356D01*
X144177688Y-100492590D01*
X144128425Y-100447681D01*
X144072893Y-100402107D01*
X144056436Y-100382054D01*
X144041388Y-100368336D01*
X143997699Y-100310482D01*
X143948530Y-100250570D01*
X143939022Y-100232783D01*
X143930237Y-100221149D01*
X143895279Y-100150945D01*
X143856120Y-100077683D01*
X143851943Y-100063916D01*
X143848027Y-100056050D01*
X143824882Y-99974706D01*
X143799215Y-99890090D01*
X143798371Y-99881530D01*
X143797553Y-99878652D01*
X143789040Y-99786788D01*
X143780000Y-99695000D01*
X143789039Y-99603219D01*
X143797553Y-99511347D01*
X143798372Y-99508468D01*
X143799215Y-99499910D01*
X143824878Y-99415308D01*
X143848027Y-99333949D01*
X143851944Y-99326081D01*
X143856120Y-99312317D01*
X143895272Y-99239068D01*
X143930237Y-99168850D01*
X143939024Y-99157213D01*
X143948530Y-99139430D01*
X143997689Y-99079528D01*
X144041388Y-99021663D01*
X144056439Y-99007941D01*
X144072893Y-98987893D01*
X144128414Y-98942327D01*
X144177688Y-98897409D01*
X144199926Y-98883639D01*
X144224430Y-98863530D01*
X144282747Y-98832358D01*
X144334498Y-98800316D01*
X144364282Y-98788777D01*
X144397317Y-98771120D01*
X144455127Y-98753583D01*
X144506481Y-98733689D01*
X144543562Y-98726757D01*
X144584910Y-98714215D01*
X144639340Y-98708853D01*
X144687782Y-98699799D01*
X144731276Y-98699799D01*
X144780000Y-98695000D01*
X144828724Y-98699799D01*
G37*
G36*
X156004724Y-98612799D02*
G01*
X156048218Y-98612799D01*
X156096658Y-98621853D01*
X156151090Y-98627215D01*
X156192438Y-98639757D01*
X156229518Y-98646689D01*
X156280868Y-98666582D01*
X156338683Y-98684120D01*
X156371720Y-98701778D01*
X156401501Y-98713316D01*
X156453245Y-98745354D01*
X156511570Y-98776530D01*
X156536076Y-98796641D01*
X156558311Y-98810409D01*
X156607575Y-98855319D01*
X156663107Y-98900893D01*
X156679563Y-98920945D01*
X156694611Y-98934663D01*
X156738297Y-98992513D01*
X156787470Y-99052430D01*
X156796977Y-99070218D01*
X156805762Y-99081850D01*
X156840713Y-99152040D01*
X156879880Y-99225317D01*
X156884056Y-99239086D01*
X156887972Y-99246949D01*
X156911105Y-99328255D01*
X156936785Y-99412910D01*
X156937628Y-99421473D01*
X156938446Y-99424347D01*
X156946943Y-99516047D01*
X156956000Y-99608000D01*
X156946942Y-99699960D01*
X156938446Y-99791652D01*
X156937628Y-99794524D01*
X156936785Y-99803090D01*
X156911100Y-99887759D01*
X156887972Y-99969050D01*
X156884057Y-99976911D01*
X156879880Y-99990683D01*
X156840705Y-100063972D01*
X156805762Y-100134149D01*
X156796979Y-100145778D01*
X156787470Y-100163570D01*
X156738288Y-100223498D01*
X156694611Y-100281336D01*
X156679566Y-100295050D01*
X156663107Y-100315107D01*
X156607564Y-100360689D01*
X156558311Y-100405590D01*
X156536081Y-100419354D01*
X156511570Y-100439470D01*
X156453233Y-100470651D01*
X156401501Y-100502683D01*
X156371727Y-100514217D01*
X156338683Y-100531880D01*
X156280856Y-100549421D01*
X156229518Y-100569310D01*
X156192445Y-100576240D01*
X156151090Y-100588785D01*
X156096655Y-100594146D01*
X156048218Y-100603201D01*
X156004724Y-100603201D01*
X155956000Y-100608000D01*
X155907276Y-100603201D01*
X155863782Y-100603201D01*
X155815343Y-100594146D01*
X155760910Y-100588785D01*
X155719555Y-100576240D01*
X155682481Y-100569310D01*
X155631139Y-100549419D01*
X155573317Y-100531880D01*
X155540275Y-100514218D01*
X155510498Y-100502683D01*
X155458759Y-100470647D01*
X155400430Y-100439470D01*
X155375921Y-100419356D01*
X155353688Y-100405590D01*
X155304425Y-100360681D01*
X155248893Y-100315107D01*
X155232436Y-100295054D01*
X155217388Y-100281336D01*
X155173699Y-100223482D01*
X155124530Y-100163570D01*
X155115022Y-100145783D01*
X155106237Y-100134149D01*
X155071279Y-100063945D01*
X155032120Y-99990683D01*
X155027943Y-99976916D01*
X155024027Y-99969050D01*
X155000882Y-99887706D01*
X154975215Y-99803090D01*
X154974371Y-99794530D01*
X154973553Y-99791652D01*
X154965040Y-99699788D01*
X154956000Y-99608000D01*
X154965039Y-99516219D01*
X154973553Y-99424347D01*
X154974372Y-99421468D01*
X154975215Y-99412910D01*
X155000878Y-99328308D01*
X155024027Y-99246949D01*
X155027944Y-99239081D01*
X155032120Y-99225317D01*
X155071272Y-99152068D01*
X155106237Y-99081850D01*
X155115024Y-99070213D01*
X155124530Y-99052430D01*
X155173689Y-98992528D01*
X155217388Y-98934663D01*
X155232439Y-98920941D01*
X155248893Y-98900893D01*
X155304414Y-98855327D01*
X155353688Y-98810409D01*
X155375926Y-98796639D01*
X155400430Y-98776530D01*
X155458747Y-98745358D01*
X155510498Y-98713316D01*
X155540282Y-98701777D01*
X155573317Y-98684120D01*
X155631127Y-98666583D01*
X155682481Y-98646689D01*
X155719562Y-98639757D01*
X155760910Y-98627215D01*
X155815340Y-98621853D01*
X155863782Y-98612799D01*
X155907276Y-98612799D01*
X155956000Y-98608000D01*
X156004724Y-98612799D01*
G37*
G36*
X149903921Y-98712930D02*
G01*
X149954076Y-98712930D01*
X149997385Y-98722135D01*
X150035460Y-98725886D01*
X150083296Y-98740396D01*
X150138115Y-98752049D01*
X150173191Y-98767665D01*
X150204186Y-98777068D01*
X150253442Y-98803396D01*
X150310000Y-98828577D01*
X150336294Y-98847680D01*
X150359673Y-98860177D01*
X150407367Y-98899318D01*
X150462218Y-98939170D01*
X150480025Y-98958947D01*
X150495968Y-98972031D01*
X150538808Y-99024232D01*
X150588115Y-99078993D01*
X150598474Y-99096935D01*
X150607822Y-99108326D01*
X150642398Y-99173015D01*
X150682191Y-99241937D01*
X150686768Y-99256026D01*
X150690931Y-99263813D01*
X150713875Y-99339450D01*
X150740333Y-99420879D01*
X150741264Y-99429741D01*
X150742113Y-99432539D01*
X150750377Y-99516448D01*
X150760000Y-99608000D01*
X150750376Y-99699559D01*
X150742113Y-99783460D01*
X150741264Y-99786256D01*
X150740333Y-99795121D01*
X150713870Y-99876563D01*
X150690931Y-99952186D01*
X150686769Y-99959971D01*
X150682191Y-99974063D01*
X150642391Y-100042997D01*
X150607822Y-100107673D01*
X150598476Y-100119060D01*
X150588115Y-100137007D01*
X150538799Y-100191777D01*
X150495968Y-100243968D01*
X150480029Y-100257048D01*
X150462218Y-100276830D01*
X150407356Y-100316688D01*
X150359673Y-100355822D01*
X150336299Y-100368315D01*
X150310000Y-100387423D01*
X150253431Y-100412608D01*
X150204186Y-100438931D01*
X150173198Y-100448330D01*
X150138115Y-100463951D01*
X150083285Y-100475605D01*
X150035460Y-100490113D01*
X149997394Y-100493862D01*
X149954076Y-100503070D01*
X149903911Y-100503070D01*
X149860000Y-100507395D01*
X149816089Y-100503070D01*
X149765924Y-100503070D01*
X149722605Y-100493862D01*
X149684539Y-100490113D01*
X149636711Y-100475604D01*
X149581885Y-100463951D01*
X149546803Y-100448331D01*
X149515813Y-100438931D01*
X149466562Y-100412606D01*
X149410000Y-100387423D01*
X149383703Y-100368317D01*
X149360326Y-100355822D01*
X149312634Y-100316682D01*
X149257782Y-100276830D01*
X149239973Y-100257051D01*
X149224031Y-100243968D01*
X149181189Y-100191765D01*
X149131885Y-100137007D01*
X149121526Y-100119065D01*
X149112177Y-100107673D01*
X149077594Y-100042974D01*
X149037809Y-99974063D01*
X149033231Y-99959976D01*
X149029068Y-99952186D01*
X149006114Y-99876517D01*
X148979667Y-99795121D01*
X148978735Y-99786261D01*
X148977886Y-99783460D01*
X148969607Y-99699408D01*
X148960000Y-99608000D01*
X148969606Y-99516599D01*
X148977886Y-99432539D01*
X148978736Y-99429736D01*
X148979667Y-99420879D01*
X149006109Y-99339496D01*
X149029068Y-99263813D01*
X149033232Y-99256021D01*
X149037809Y-99241937D01*
X149077587Y-99173038D01*
X149112177Y-99108326D01*
X149121528Y-99096931D01*
X149131885Y-99078993D01*
X149181180Y-99024245D01*
X149224031Y-98972031D01*
X149239976Y-98958944D01*
X149257782Y-98939170D01*
X149312623Y-98899325D01*
X149360326Y-98860177D01*
X149383708Y-98847678D01*
X149410000Y-98828577D01*
X149466551Y-98803398D01*
X149515813Y-98777068D01*
X149546810Y-98767664D01*
X149581885Y-98752049D01*
X149636700Y-98740397D01*
X149684539Y-98725886D01*
X149722614Y-98722135D01*
X149765924Y-98712930D01*
X149816079Y-98712930D01*
X149860000Y-98708604D01*
X149903921Y-98712930D01*
G37*
G36*
X155494675Y-95570000D02*
G01*
X155536028Y-95570000D01*
X155582078Y-95578608D01*
X155634233Y-95583745D01*
X155673855Y-95595764D01*
X155709096Y-95602352D01*
X155757904Y-95621260D01*
X155813308Y-95638067D01*
X155844962Y-95654986D01*
X155873267Y-95665952D01*
X155922449Y-95696404D01*
X155978346Y-95726282D01*
X156001830Y-95745555D01*
X156022955Y-95758635D01*
X156069760Y-95801304D01*
X156123002Y-95844998D01*
X156138779Y-95864222D01*
X156153064Y-95877245D01*
X156194533Y-95932159D01*
X156241718Y-95989654D01*
X156250842Y-96006724D01*
X156259167Y-96017748D01*
X156292287Y-96084262D01*
X156329933Y-96154692D01*
X156333947Y-96167927D01*
X156337643Y-96175348D01*
X156359467Y-96252055D01*
X156384255Y-96333767D01*
X156385069Y-96342035D01*
X156385824Y-96344688D01*
X156393671Y-96429374D01*
X156402597Y-96520000D01*
X156393670Y-96610633D01*
X156385824Y-96695311D01*
X156385069Y-96697962D01*
X156384255Y-96706233D01*
X156359463Y-96787960D01*
X156337643Y-96864651D01*
X156333948Y-96872070D01*
X156329933Y-96885308D01*
X156292280Y-96955750D01*
X156259167Y-97022251D01*
X156250844Y-97033272D01*
X156241718Y-97050346D01*
X156194524Y-97107852D01*
X156153064Y-97162754D01*
X156138782Y-97175773D01*
X156123002Y-97195002D01*
X156069749Y-97238704D01*
X156022955Y-97281364D01*
X156001835Y-97294440D01*
X155978346Y-97313718D01*
X155922438Y-97343601D01*
X155873267Y-97374047D01*
X155844969Y-97385009D01*
X155813308Y-97401933D01*
X155757892Y-97418743D01*
X155709096Y-97437647D01*
X155673862Y-97444233D01*
X155634233Y-97456255D01*
X155582075Y-97461391D01*
X155536028Y-97470000D01*
X155494675Y-97470000D01*
X155448000Y-97474597D01*
X155401325Y-97470000D01*
X155359972Y-97470000D01*
X155313923Y-97461391D01*
X155261767Y-97456255D01*
X155222138Y-97444233D01*
X155186903Y-97437647D01*
X155138102Y-97418741D01*
X155082692Y-97401933D01*
X155051032Y-97385010D01*
X155022732Y-97374047D01*
X154973554Y-97343597D01*
X154917654Y-97313718D01*
X154894167Y-97294443D01*
X154873044Y-97281364D01*
X154826240Y-97238696D01*
X154772998Y-97195002D01*
X154757220Y-97175776D01*
X154742935Y-97162754D01*
X154701463Y-97107836D01*
X154654282Y-97050346D01*
X154645158Y-97033276D01*
X154636832Y-97022251D01*
X154603705Y-96955723D01*
X154566067Y-96885308D01*
X154562052Y-96872075D01*
X154558356Y-96864651D01*
X154536520Y-96787906D01*
X154511745Y-96706233D01*
X154510930Y-96697968D01*
X154510175Y-96695311D01*
X154502312Y-96610462D01*
X154493403Y-96520000D01*
X154502311Y-96429545D01*
X154510175Y-96344688D01*
X154510931Y-96342030D01*
X154511745Y-96333767D01*
X154536516Y-96252108D01*
X154558356Y-96175348D01*
X154562053Y-96167922D01*
X154566067Y-96154692D01*
X154603697Y-96084290D01*
X154636832Y-96017748D01*
X154645160Y-96006719D01*
X154654282Y-95989654D01*
X154701453Y-95932174D01*
X154742935Y-95877245D01*
X154757223Y-95864219D01*
X154772998Y-95844998D01*
X154826229Y-95801312D01*
X154873044Y-95758635D01*
X154894172Y-95745552D01*
X154917654Y-95726282D01*
X154973542Y-95696408D01*
X155022732Y-95665952D01*
X155051039Y-95654985D01*
X155082692Y-95638067D01*
X155138090Y-95621261D01*
X155186903Y-95602352D01*
X155222145Y-95595764D01*
X155261767Y-95583745D01*
X155313920Y-95578608D01*
X155359972Y-95570000D01*
X155401325Y-95570000D01*
X155448000Y-95565403D01*
X155494675Y-95570000D01*
G37*
G36*
X150660023Y-95572650D02*
G01*
X150672670Y-95578547D01*
X150688036Y-95581604D01*
X150708389Y-95595204D01*
X150726485Y-95603642D01*
X150737493Y-95614650D01*
X150754192Y-95625808D01*
X150765349Y-95642506D01*
X150776357Y-95653514D01*
X150784794Y-95671607D01*
X150798396Y-95691964D01*
X150801452Y-95707331D01*
X150807349Y-95719976D01*
X150810000Y-95740111D01*
X150810000Y-97299888D01*
X150807349Y-97320023D01*
X150801453Y-97332666D01*
X150798396Y-97348036D01*
X150784792Y-97368394D01*
X150776357Y-97386485D01*
X150765351Y-97397490D01*
X150754192Y-97414192D01*
X150737490Y-97425351D01*
X150726485Y-97436357D01*
X150708394Y-97444792D01*
X150688036Y-97458396D01*
X150672666Y-97461453D01*
X150660023Y-97467349D01*
X150639889Y-97470000D01*
X150629698Y-97470000D01*
X149090302Y-97470000D01*
X149080111Y-97470000D01*
X149059976Y-97467349D01*
X149047331Y-97461452D01*
X149031964Y-97458396D01*
X149011607Y-97444794D01*
X148993514Y-97436357D01*
X148982506Y-97425349D01*
X148965808Y-97414192D01*
X148954650Y-97397493D01*
X148943642Y-97386485D01*
X148935204Y-97368389D01*
X148921604Y-97348036D01*
X148918547Y-97332670D01*
X148912650Y-97320023D01*
X148910000Y-97299888D01*
X148910000Y-95740111D01*
X148912650Y-95719976D01*
X148918547Y-95707327D01*
X148921604Y-95691964D01*
X148935202Y-95671612D01*
X148943642Y-95653514D01*
X148954652Y-95642503D01*
X148965808Y-95625808D01*
X148982503Y-95614652D01*
X148993514Y-95603642D01*
X149011612Y-95595202D01*
X149031964Y-95581604D01*
X149047327Y-95578547D01*
X149059976Y-95572650D01*
X149080111Y-95570000D01*
X150639889Y-95570000D01*
X150660023Y-95572650D01*
G37*
G36*
X137208724Y-94889799D02*
G01*
X137252218Y-94889799D01*
X137300658Y-94898853D01*
X137355090Y-94904215D01*
X137396438Y-94916757D01*
X137433518Y-94923689D01*
X137484868Y-94943582D01*
X137542683Y-94961120D01*
X137575720Y-94978778D01*
X137605501Y-94990316D01*
X137657245Y-95022354D01*
X137715570Y-95053530D01*
X137740076Y-95073641D01*
X137762311Y-95087409D01*
X137811575Y-95132319D01*
X137867107Y-95177893D01*
X137883563Y-95197945D01*
X137898611Y-95211663D01*
X137942297Y-95269513D01*
X137991470Y-95329430D01*
X138000977Y-95347218D01*
X138009762Y-95358850D01*
X138044713Y-95429040D01*
X138083880Y-95502317D01*
X138088056Y-95516086D01*
X138091972Y-95523949D01*
X138115105Y-95605255D01*
X138140785Y-95689910D01*
X138141628Y-95698473D01*
X138142446Y-95701347D01*
X138150943Y-95793047D01*
X138160000Y-95885000D01*
X138150942Y-95976960D01*
X138142446Y-96068652D01*
X138141628Y-96071524D01*
X138140785Y-96080090D01*
X138115100Y-96164759D01*
X138091972Y-96246050D01*
X138088057Y-96253911D01*
X138083880Y-96267683D01*
X138044705Y-96340972D01*
X138009762Y-96411149D01*
X138000979Y-96422778D01*
X137991470Y-96440570D01*
X137942288Y-96500498D01*
X137898611Y-96558336D01*
X137883566Y-96572050D01*
X137867107Y-96592107D01*
X137811564Y-96637689D01*
X137762311Y-96682590D01*
X137740081Y-96696354D01*
X137715570Y-96716470D01*
X137657233Y-96747651D01*
X137605501Y-96779683D01*
X137575727Y-96791217D01*
X137542683Y-96808880D01*
X137484856Y-96826421D01*
X137433518Y-96846310D01*
X137396445Y-96853240D01*
X137355090Y-96865785D01*
X137300655Y-96871146D01*
X137252218Y-96880201D01*
X137208724Y-96880201D01*
X137160000Y-96885000D01*
X137111276Y-96880201D01*
X137067782Y-96880201D01*
X137019343Y-96871146D01*
X136964910Y-96865785D01*
X136923555Y-96853240D01*
X136886481Y-96846310D01*
X136835139Y-96826419D01*
X136777317Y-96808880D01*
X136744275Y-96791218D01*
X136714498Y-96779683D01*
X136662759Y-96747647D01*
X136604430Y-96716470D01*
X136579921Y-96696356D01*
X136557688Y-96682590D01*
X136508425Y-96637681D01*
X136452893Y-96592107D01*
X136436436Y-96572054D01*
X136421388Y-96558336D01*
X136377699Y-96500482D01*
X136328530Y-96440570D01*
X136319022Y-96422783D01*
X136310237Y-96411149D01*
X136275279Y-96340945D01*
X136236120Y-96267683D01*
X136231943Y-96253916D01*
X136228027Y-96246050D01*
X136204882Y-96164706D01*
X136179215Y-96080090D01*
X136178371Y-96071530D01*
X136177553Y-96068652D01*
X136169040Y-95976788D01*
X136160000Y-95885000D01*
X136169039Y-95793219D01*
X136177553Y-95701347D01*
X136178372Y-95698468D01*
X136179215Y-95689910D01*
X136204878Y-95605308D01*
X136228027Y-95523949D01*
X136231944Y-95516081D01*
X136236120Y-95502317D01*
X136275272Y-95429068D01*
X136310237Y-95358850D01*
X136319024Y-95347213D01*
X136328530Y-95329430D01*
X136377689Y-95269528D01*
X136421388Y-95211663D01*
X136436439Y-95197941D01*
X136452893Y-95177893D01*
X136508414Y-95132327D01*
X136557688Y-95087409D01*
X136579926Y-95073639D01*
X136604430Y-95053530D01*
X136662747Y-95022358D01*
X136714498Y-94990316D01*
X136744282Y-94978777D01*
X136777317Y-94961120D01*
X136835127Y-94943583D01*
X136886481Y-94923689D01*
X136923562Y-94916757D01*
X136964910Y-94904215D01*
X137019340Y-94898853D01*
X137067782Y-94889799D01*
X137111276Y-94889799D01*
X137160000Y-94885000D01*
X137208724Y-94889799D01*
G37*
G36*
X144828724Y-94889799D02*
G01*
X144872218Y-94889799D01*
X144920658Y-94898853D01*
X144975090Y-94904215D01*
X145016438Y-94916757D01*
X145053518Y-94923689D01*
X145104868Y-94943582D01*
X145162683Y-94961120D01*
X145195720Y-94978778D01*
X145225501Y-94990316D01*
X145277245Y-95022354D01*
X145335570Y-95053530D01*
X145360076Y-95073641D01*
X145382311Y-95087409D01*
X145431575Y-95132319D01*
X145487107Y-95177893D01*
X145503563Y-95197945D01*
X145518611Y-95211663D01*
X145562297Y-95269513D01*
X145611470Y-95329430D01*
X145620977Y-95347218D01*
X145629762Y-95358850D01*
X145664713Y-95429040D01*
X145703880Y-95502317D01*
X145708056Y-95516086D01*
X145711972Y-95523949D01*
X145735105Y-95605255D01*
X145760785Y-95689910D01*
X145761628Y-95698473D01*
X145762446Y-95701347D01*
X145770943Y-95793047D01*
X145780000Y-95885000D01*
X145770942Y-95976960D01*
X145762446Y-96068652D01*
X145761628Y-96071524D01*
X145760785Y-96080090D01*
X145735100Y-96164759D01*
X145711972Y-96246050D01*
X145708057Y-96253911D01*
X145703880Y-96267683D01*
X145664705Y-96340972D01*
X145629762Y-96411149D01*
X145620979Y-96422778D01*
X145611470Y-96440570D01*
X145562288Y-96500498D01*
X145518611Y-96558336D01*
X145503566Y-96572050D01*
X145487107Y-96592107D01*
X145431564Y-96637689D01*
X145382311Y-96682590D01*
X145360081Y-96696354D01*
X145335570Y-96716470D01*
X145277233Y-96747651D01*
X145225501Y-96779683D01*
X145195727Y-96791217D01*
X145162683Y-96808880D01*
X145104856Y-96826421D01*
X145053518Y-96846310D01*
X145016445Y-96853240D01*
X144975090Y-96865785D01*
X144920655Y-96871146D01*
X144872218Y-96880201D01*
X144828724Y-96880201D01*
X144780000Y-96885000D01*
X144731276Y-96880201D01*
X144687782Y-96880201D01*
X144639343Y-96871146D01*
X144584910Y-96865785D01*
X144543555Y-96853240D01*
X144506481Y-96846310D01*
X144455139Y-96826419D01*
X144397317Y-96808880D01*
X144364275Y-96791218D01*
X144334498Y-96779683D01*
X144282759Y-96747647D01*
X144224430Y-96716470D01*
X144199921Y-96696356D01*
X144177688Y-96682590D01*
X144128425Y-96637681D01*
X144072893Y-96592107D01*
X144056436Y-96572054D01*
X144041388Y-96558336D01*
X143997699Y-96500482D01*
X143948530Y-96440570D01*
X143939022Y-96422783D01*
X143930237Y-96411149D01*
X143895279Y-96340945D01*
X143856120Y-96267683D01*
X143851943Y-96253916D01*
X143848027Y-96246050D01*
X143824882Y-96164706D01*
X143799215Y-96080090D01*
X143798371Y-96071530D01*
X143797553Y-96068652D01*
X143789040Y-95976788D01*
X143780000Y-95885000D01*
X143789039Y-95793219D01*
X143797553Y-95701347D01*
X143798372Y-95698468D01*
X143799215Y-95689910D01*
X143824878Y-95605308D01*
X143848027Y-95523949D01*
X143851944Y-95516081D01*
X143856120Y-95502317D01*
X143895272Y-95429068D01*
X143930237Y-95358850D01*
X143939024Y-95347213D01*
X143948530Y-95329430D01*
X143997689Y-95269528D01*
X144041388Y-95211663D01*
X144056439Y-95197941D01*
X144072893Y-95177893D01*
X144128414Y-95132327D01*
X144177688Y-95087409D01*
X144199926Y-95073639D01*
X144224430Y-95053530D01*
X144282747Y-95022358D01*
X144334498Y-94990316D01*
X144364282Y-94978777D01*
X144397317Y-94961120D01*
X144455127Y-94943583D01*
X144506481Y-94923689D01*
X144543562Y-94916757D01*
X144584910Y-94904215D01*
X144639340Y-94898853D01*
X144687782Y-94889799D01*
X144731276Y-94889799D01*
X144780000Y-94885000D01*
X144828724Y-94889799D01*
G37*
G36*
X149906675Y-93030000D02*
G01*
X149948028Y-93030000D01*
X149994078Y-93038608D01*
X150046233Y-93043745D01*
X150085855Y-93055764D01*
X150121096Y-93062352D01*
X150169904Y-93081260D01*
X150225308Y-93098067D01*
X150256962Y-93114986D01*
X150285267Y-93125952D01*
X150334449Y-93156404D01*
X150390346Y-93186282D01*
X150413830Y-93205555D01*
X150434955Y-93218635D01*
X150481760Y-93261304D01*
X150535002Y-93304998D01*
X150550779Y-93324222D01*
X150565064Y-93337245D01*
X150606533Y-93392159D01*
X150653718Y-93449654D01*
X150662842Y-93466724D01*
X150671167Y-93477748D01*
X150704287Y-93544262D01*
X150741933Y-93614692D01*
X150745947Y-93627927D01*
X150749643Y-93635348D01*
X150771467Y-93712055D01*
X150796255Y-93793767D01*
X150797069Y-93802035D01*
X150797824Y-93804688D01*
X150805671Y-93889374D01*
X150814597Y-93980000D01*
X150805670Y-94070633D01*
X150797824Y-94155311D01*
X150797069Y-94157962D01*
X150796255Y-94166233D01*
X150771463Y-94247960D01*
X150749643Y-94324651D01*
X150745948Y-94332070D01*
X150741933Y-94345308D01*
X150704280Y-94415750D01*
X150671167Y-94482251D01*
X150662844Y-94493272D01*
X150653718Y-94510346D01*
X150606524Y-94567852D01*
X150565064Y-94622754D01*
X150550782Y-94635773D01*
X150535002Y-94655002D01*
X150481749Y-94698704D01*
X150434955Y-94741364D01*
X150413835Y-94754440D01*
X150390346Y-94773718D01*
X150334438Y-94803601D01*
X150285267Y-94834047D01*
X150256969Y-94845009D01*
X150225308Y-94861933D01*
X150169892Y-94878743D01*
X150121096Y-94897647D01*
X150085862Y-94904233D01*
X150046233Y-94916255D01*
X149994075Y-94921391D01*
X149948028Y-94930000D01*
X149906675Y-94930000D01*
X149860000Y-94934597D01*
X149813325Y-94930000D01*
X149771972Y-94930000D01*
X149725923Y-94921391D01*
X149673767Y-94916255D01*
X149634138Y-94904233D01*
X149598903Y-94897647D01*
X149550102Y-94878741D01*
X149494692Y-94861933D01*
X149463032Y-94845010D01*
X149434732Y-94834047D01*
X149385554Y-94803597D01*
X149329654Y-94773718D01*
X149306167Y-94754443D01*
X149285044Y-94741364D01*
X149238240Y-94698696D01*
X149184998Y-94655002D01*
X149169220Y-94635776D01*
X149154935Y-94622754D01*
X149113463Y-94567836D01*
X149066282Y-94510346D01*
X149057158Y-94493276D01*
X149048832Y-94482251D01*
X149015705Y-94415723D01*
X148978067Y-94345308D01*
X148974052Y-94332075D01*
X148970356Y-94324651D01*
X148948520Y-94247906D01*
X148923745Y-94166233D01*
X148922930Y-94157968D01*
X148922175Y-94155311D01*
X148914312Y-94070462D01*
X148905403Y-93980000D01*
X148914311Y-93889545D01*
X148922175Y-93804688D01*
X148922931Y-93802030D01*
X148923745Y-93793767D01*
X148948516Y-93712108D01*
X148970356Y-93635348D01*
X148974053Y-93627922D01*
X148978067Y-93614692D01*
X149015697Y-93544290D01*
X149048832Y-93477748D01*
X149057160Y-93466719D01*
X149066282Y-93449654D01*
X149113453Y-93392174D01*
X149154935Y-93337245D01*
X149169223Y-93324219D01*
X149184998Y-93304998D01*
X149238229Y-93261312D01*
X149285044Y-93218635D01*
X149306172Y-93205552D01*
X149329654Y-93186282D01*
X149385542Y-93156408D01*
X149434732Y-93125952D01*
X149463039Y-93114985D01*
X149494692Y-93098067D01*
X149550090Y-93081261D01*
X149598903Y-93062352D01*
X149634145Y-93055764D01*
X149673767Y-93043745D01*
X149725920Y-93038608D01*
X149771972Y-93030000D01*
X149813325Y-93030000D01*
X149860000Y-93025403D01*
X149906675Y-93030000D01*
G37*
G36*
X155494675Y-93030000D02*
G01*
X155536028Y-93030000D01*
X155582078Y-93038608D01*
X155634233Y-93043745D01*
X155673855Y-93055764D01*
X155709096Y-93062352D01*
X155757904Y-93081260D01*
X155813308Y-93098067D01*
X155844962Y-93114986D01*
X155873267Y-93125952D01*
X155922449Y-93156404D01*
X155978346Y-93186282D01*
X156001830Y-93205555D01*
X156022955Y-93218635D01*
X156069760Y-93261304D01*
X156123002Y-93304998D01*
X156138779Y-93324222D01*
X156153064Y-93337245D01*
X156194533Y-93392159D01*
X156241718Y-93449654D01*
X156250842Y-93466724D01*
X156259167Y-93477748D01*
X156292287Y-93544262D01*
X156329933Y-93614692D01*
X156333947Y-93627927D01*
X156337643Y-93635348D01*
X156359467Y-93712055D01*
X156384255Y-93793767D01*
X156385069Y-93802035D01*
X156385824Y-93804688D01*
X156393671Y-93889374D01*
X156402597Y-93980000D01*
X156393670Y-94070633D01*
X156385824Y-94155311D01*
X156385069Y-94157962D01*
X156384255Y-94166233D01*
X156359463Y-94247960D01*
X156337643Y-94324651D01*
X156333948Y-94332070D01*
X156329933Y-94345308D01*
X156292280Y-94415750D01*
X156259167Y-94482251D01*
X156250844Y-94493272D01*
X156241718Y-94510346D01*
X156194524Y-94567852D01*
X156153064Y-94622754D01*
X156138782Y-94635773D01*
X156123002Y-94655002D01*
X156069749Y-94698704D01*
X156022955Y-94741364D01*
X156001835Y-94754440D01*
X155978346Y-94773718D01*
X155922438Y-94803601D01*
X155873267Y-94834047D01*
X155844969Y-94845009D01*
X155813308Y-94861933D01*
X155757892Y-94878743D01*
X155709096Y-94897647D01*
X155673862Y-94904233D01*
X155634233Y-94916255D01*
X155582075Y-94921391D01*
X155536028Y-94930000D01*
X155494675Y-94930000D01*
X155448000Y-94934597D01*
X155401325Y-94930000D01*
X155359972Y-94930000D01*
X155313923Y-94921391D01*
X155261767Y-94916255D01*
X155222138Y-94904233D01*
X155186903Y-94897647D01*
X155138102Y-94878741D01*
X155082692Y-94861933D01*
X155051032Y-94845010D01*
X155022732Y-94834047D01*
X154973554Y-94803597D01*
X154917654Y-94773718D01*
X154894167Y-94754443D01*
X154873044Y-94741364D01*
X154826240Y-94698696D01*
X154772998Y-94655002D01*
X154757220Y-94635776D01*
X154742935Y-94622754D01*
X154701463Y-94567836D01*
X154654282Y-94510346D01*
X154645158Y-94493276D01*
X154636832Y-94482251D01*
X154603705Y-94415723D01*
X154566067Y-94345308D01*
X154562052Y-94332075D01*
X154558356Y-94324651D01*
X154536520Y-94247906D01*
X154511745Y-94166233D01*
X154510930Y-94157968D01*
X154510175Y-94155311D01*
X154502312Y-94070462D01*
X154493403Y-93980000D01*
X154502311Y-93889545D01*
X154510175Y-93804688D01*
X154510931Y-93802030D01*
X154511745Y-93793767D01*
X154536516Y-93712108D01*
X154558356Y-93635348D01*
X154562053Y-93627922D01*
X154566067Y-93614692D01*
X154603697Y-93544290D01*
X154636832Y-93477748D01*
X154645160Y-93466719D01*
X154654282Y-93449654D01*
X154701453Y-93392174D01*
X154742935Y-93337245D01*
X154757223Y-93324219D01*
X154772998Y-93304998D01*
X154826229Y-93261312D01*
X154873044Y-93218635D01*
X154894172Y-93205552D01*
X154917654Y-93186282D01*
X154973542Y-93156408D01*
X155022732Y-93125952D01*
X155051039Y-93114985D01*
X155082692Y-93098067D01*
X155138090Y-93081261D01*
X155186903Y-93062352D01*
X155222145Y-93055764D01*
X155261767Y-93043745D01*
X155313920Y-93038608D01*
X155359972Y-93030000D01*
X155401325Y-93030000D01*
X155448000Y-93025403D01*
X155494675Y-93030000D01*
G37*
G36*
X137208724Y-91079799D02*
G01*
X137252218Y-91079799D01*
X137300658Y-91088853D01*
X137355090Y-91094215D01*
X137396438Y-91106757D01*
X137433518Y-91113689D01*
X137484868Y-91133582D01*
X137542683Y-91151120D01*
X137575720Y-91168778D01*
X137605501Y-91180316D01*
X137657245Y-91212354D01*
X137715570Y-91243530D01*
X137740076Y-91263641D01*
X137762311Y-91277409D01*
X137811575Y-91322319D01*
X137867107Y-91367893D01*
X137883563Y-91387945D01*
X137898611Y-91401663D01*
X137942297Y-91459513D01*
X137991470Y-91519430D01*
X138000977Y-91537218D01*
X138009762Y-91548850D01*
X138044713Y-91619040D01*
X138083880Y-91692317D01*
X138088056Y-91706086D01*
X138091972Y-91713949D01*
X138115105Y-91795255D01*
X138140785Y-91879910D01*
X138141628Y-91888473D01*
X138142446Y-91891347D01*
X138150943Y-91983047D01*
X138160000Y-92075000D01*
X138150942Y-92166960D01*
X138142446Y-92258652D01*
X138141628Y-92261524D01*
X138140785Y-92270090D01*
X138115100Y-92354759D01*
X138091972Y-92436050D01*
X138088057Y-92443911D01*
X138083880Y-92457683D01*
X138044705Y-92530972D01*
X138009762Y-92601149D01*
X138000979Y-92612778D01*
X137991470Y-92630570D01*
X137942288Y-92690498D01*
X137898611Y-92748336D01*
X137883566Y-92762050D01*
X137867107Y-92782107D01*
X137811564Y-92827689D01*
X137762311Y-92872590D01*
X137740081Y-92886354D01*
X137715570Y-92906470D01*
X137657233Y-92937651D01*
X137605501Y-92969683D01*
X137575727Y-92981217D01*
X137542683Y-92998880D01*
X137484856Y-93016421D01*
X137433518Y-93036310D01*
X137396445Y-93043240D01*
X137355090Y-93055785D01*
X137300655Y-93061146D01*
X137252218Y-93070201D01*
X137208724Y-93070201D01*
X137160000Y-93075000D01*
X137111276Y-93070201D01*
X137067782Y-93070201D01*
X137019343Y-93061146D01*
X136964910Y-93055785D01*
X136923555Y-93043240D01*
X136886481Y-93036310D01*
X136835139Y-93016419D01*
X136777317Y-92998880D01*
X136744275Y-92981218D01*
X136714498Y-92969683D01*
X136662759Y-92937647D01*
X136604430Y-92906470D01*
X136579921Y-92886356D01*
X136557688Y-92872590D01*
X136508425Y-92827681D01*
X136452893Y-92782107D01*
X136436436Y-92762054D01*
X136421388Y-92748336D01*
X136377699Y-92690482D01*
X136328530Y-92630570D01*
X136319022Y-92612783D01*
X136310237Y-92601149D01*
X136275279Y-92530945D01*
X136236120Y-92457683D01*
X136231943Y-92443916D01*
X136228027Y-92436050D01*
X136204882Y-92354706D01*
X136179215Y-92270090D01*
X136178371Y-92261530D01*
X136177553Y-92258652D01*
X136169040Y-92166788D01*
X136160000Y-92075000D01*
X136169039Y-91983219D01*
X136177553Y-91891347D01*
X136178372Y-91888468D01*
X136179215Y-91879910D01*
X136204878Y-91795308D01*
X136228027Y-91713949D01*
X136231944Y-91706081D01*
X136236120Y-91692317D01*
X136275272Y-91619068D01*
X136310237Y-91548850D01*
X136319024Y-91537213D01*
X136328530Y-91519430D01*
X136377689Y-91459528D01*
X136421388Y-91401663D01*
X136436439Y-91387941D01*
X136452893Y-91367893D01*
X136508414Y-91322327D01*
X136557688Y-91277409D01*
X136579926Y-91263639D01*
X136604430Y-91243530D01*
X136662747Y-91212358D01*
X136714498Y-91180316D01*
X136744282Y-91168777D01*
X136777317Y-91151120D01*
X136835127Y-91133583D01*
X136886481Y-91113689D01*
X136923562Y-91106757D01*
X136964910Y-91094215D01*
X137019340Y-91088853D01*
X137067782Y-91079799D01*
X137111276Y-91079799D01*
X137160000Y-91075000D01*
X137208724Y-91079799D01*
G37*
G36*
X144828724Y-91079799D02*
G01*
X144872218Y-91079799D01*
X144920658Y-91088853D01*
X144975090Y-91094215D01*
X145016438Y-91106757D01*
X145053518Y-91113689D01*
X145104868Y-91133582D01*
X145162683Y-91151120D01*
X145195720Y-91168778D01*
X145225501Y-91180316D01*
X145277245Y-91212354D01*
X145335570Y-91243530D01*
X145360076Y-91263641D01*
X145382311Y-91277409D01*
X145431575Y-91322319D01*
X145487107Y-91367893D01*
X145503563Y-91387945D01*
X145518611Y-91401663D01*
X145562297Y-91459513D01*
X145611470Y-91519430D01*
X145620977Y-91537218D01*
X145629762Y-91548850D01*
X145664713Y-91619040D01*
X145703880Y-91692317D01*
X145708056Y-91706086D01*
X145711972Y-91713949D01*
X145735105Y-91795255D01*
X145760785Y-91879910D01*
X145761628Y-91888473D01*
X145762446Y-91891347D01*
X145770943Y-91983047D01*
X145780000Y-92075000D01*
X145770942Y-92166960D01*
X145762446Y-92258652D01*
X145761628Y-92261524D01*
X145760785Y-92270090D01*
X145735100Y-92354759D01*
X145711972Y-92436050D01*
X145708057Y-92443911D01*
X145703880Y-92457683D01*
X145664705Y-92530972D01*
X145629762Y-92601149D01*
X145620979Y-92612778D01*
X145611470Y-92630570D01*
X145562288Y-92690498D01*
X145518611Y-92748336D01*
X145503566Y-92762050D01*
X145487107Y-92782107D01*
X145431564Y-92827689D01*
X145382311Y-92872590D01*
X145360081Y-92886354D01*
X145335570Y-92906470D01*
X145277233Y-92937651D01*
X145225501Y-92969683D01*
X145195727Y-92981217D01*
X145162683Y-92998880D01*
X145104856Y-93016421D01*
X145053518Y-93036310D01*
X145016445Y-93043240D01*
X144975090Y-93055785D01*
X144920655Y-93061146D01*
X144872218Y-93070201D01*
X144828724Y-93070201D01*
X144780000Y-93075000D01*
X144731276Y-93070201D01*
X144687782Y-93070201D01*
X144639343Y-93061146D01*
X144584910Y-93055785D01*
X144543555Y-93043240D01*
X144506481Y-93036310D01*
X144455139Y-93016419D01*
X144397317Y-92998880D01*
X144364275Y-92981218D01*
X144334498Y-92969683D01*
X144282759Y-92937647D01*
X144224430Y-92906470D01*
X144199921Y-92886356D01*
X144177688Y-92872590D01*
X144128425Y-92827681D01*
X144072893Y-92782107D01*
X144056436Y-92762054D01*
X144041388Y-92748336D01*
X143997699Y-92690482D01*
X143948530Y-92630570D01*
X143939022Y-92612783D01*
X143930237Y-92601149D01*
X143895279Y-92530945D01*
X143856120Y-92457683D01*
X143851943Y-92443916D01*
X143848027Y-92436050D01*
X143824882Y-92354706D01*
X143799215Y-92270090D01*
X143798371Y-92261530D01*
X143797553Y-92258652D01*
X143789040Y-92166788D01*
X143780000Y-92075000D01*
X143789039Y-91983219D01*
X143797553Y-91891347D01*
X143798372Y-91888468D01*
X143799215Y-91879910D01*
X143824878Y-91795308D01*
X143848027Y-91713949D01*
X143851944Y-91706081D01*
X143856120Y-91692317D01*
X143895272Y-91619068D01*
X143930237Y-91548850D01*
X143939024Y-91537213D01*
X143948530Y-91519430D01*
X143997689Y-91459528D01*
X144041388Y-91401663D01*
X144056439Y-91387941D01*
X144072893Y-91367893D01*
X144128414Y-91322327D01*
X144177688Y-91277409D01*
X144199926Y-91263639D01*
X144224430Y-91243530D01*
X144282747Y-91212358D01*
X144334498Y-91180316D01*
X144364282Y-91168777D01*
X144397317Y-91151120D01*
X144455127Y-91133583D01*
X144506481Y-91113689D01*
X144543562Y-91106757D01*
X144584910Y-91094215D01*
X144639340Y-91088853D01*
X144687782Y-91079799D01*
X144731276Y-91079799D01*
X144780000Y-91075000D01*
X144828724Y-91079799D01*
G37*
G36*
X149906675Y-90490000D02*
G01*
X149948028Y-90490000D01*
X149994078Y-90498608D01*
X150046233Y-90503745D01*
X150085855Y-90515764D01*
X150121096Y-90522352D01*
X150169904Y-90541260D01*
X150225308Y-90558067D01*
X150256962Y-90574986D01*
X150285267Y-90585952D01*
X150334449Y-90616404D01*
X150390346Y-90646282D01*
X150413830Y-90665555D01*
X150434955Y-90678635D01*
X150481760Y-90721304D01*
X150535002Y-90764998D01*
X150550779Y-90784222D01*
X150565064Y-90797245D01*
X150606533Y-90852159D01*
X150653718Y-90909654D01*
X150662842Y-90926724D01*
X150671167Y-90937748D01*
X150704287Y-91004262D01*
X150741933Y-91074692D01*
X150745947Y-91087927D01*
X150749643Y-91095348D01*
X150771467Y-91172055D01*
X150796255Y-91253767D01*
X150797069Y-91262035D01*
X150797824Y-91264688D01*
X150805671Y-91349374D01*
X150814597Y-91440000D01*
X150805670Y-91530633D01*
X150797824Y-91615311D01*
X150797069Y-91617962D01*
X150796255Y-91626233D01*
X150771463Y-91707960D01*
X150749643Y-91784651D01*
X150745948Y-91792070D01*
X150741933Y-91805308D01*
X150704280Y-91875750D01*
X150671167Y-91942251D01*
X150662844Y-91953272D01*
X150653718Y-91970346D01*
X150606524Y-92027852D01*
X150565064Y-92082754D01*
X150550782Y-92095773D01*
X150535002Y-92115002D01*
X150481749Y-92158704D01*
X150434955Y-92201364D01*
X150413835Y-92214440D01*
X150390346Y-92233718D01*
X150334438Y-92263601D01*
X150285267Y-92294047D01*
X150256969Y-92305009D01*
X150225308Y-92321933D01*
X150169892Y-92338743D01*
X150121096Y-92357647D01*
X150085862Y-92364233D01*
X150046233Y-92376255D01*
X149994075Y-92381391D01*
X149948028Y-92390000D01*
X149906675Y-92390000D01*
X149860000Y-92394597D01*
X149813325Y-92390000D01*
X149771972Y-92390000D01*
X149725923Y-92381391D01*
X149673767Y-92376255D01*
X149634138Y-92364233D01*
X149598903Y-92357647D01*
X149550102Y-92338741D01*
X149494692Y-92321933D01*
X149463032Y-92305010D01*
X149434732Y-92294047D01*
X149385554Y-92263597D01*
X149329654Y-92233718D01*
X149306167Y-92214443D01*
X149285044Y-92201364D01*
X149238240Y-92158696D01*
X149184998Y-92115002D01*
X149169220Y-92095776D01*
X149154935Y-92082754D01*
X149113463Y-92027836D01*
X149066282Y-91970346D01*
X149057158Y-91953276D01*
X149048832Y-91942251D01*
X149015705Y-91875723D01*
X148978067Y-91805308D01*
X148974052Y-91792075D01*
X148970356Y-91784651D01*
X148948520Y-91707906D01*
X148923745Y-91626233D01*
X148922930Y-91617968D01*
X148922175Y-91615311D01*
X148914312Y-91530462D01*
X148905403Y-91440000D01*
X148914311Y-91349545D01*
X148922175Y-91264688D01*
X148922931Y-91262030D01*
X148923745Y-91253767D01*
X148948516Y-91172108D01*
X148970356Y-91095348D01*
X148974053Y-91087922D01*
X148978067Y-91074692D01*
X149015697Y-91004290D01*
X149048832Y-90937748D01*
X149057160Y-90926719D01*
X149066282Y-90909654D01*
X149113453Y-90852174D01*
X149154935Y-90797245D01*
X149169223Y-90784219D01*
X149184998Y-90764998D01*
X149238229Y-90721312D01*
X149285044Y-90678635D01*
X149306172Y-90665552D01*
X149329654Y-90646282D01*
X149385542Y-90616408D01*
X149434732Y-90585952D01*
X149463039Y-90574985D01*
X149494692Y-90558067D01*
X149550090Y-90541261D01*
X149598903Y-90522352D01*
X149634145Y-90515764D01*
X149673767Y-90503745D01*
X149725920Y-90498608D01*
X149771972Y-90490000D01*
X149813325Y-90490000D01*
X149860000Y-90485403D01*
X149906675Y-90490000D01*
G37*
G36*
X156248023Y-90492650D02*
G01*
X156260670Y-90498547D01*
X156276036Y-90501604D01*
X156296389Y-90515204D01*
X156314485Y-90523642D01*
X156325493Y-90534650D01*
X156342192Y-90545808D01*
X156353349Y-90562506D01*
X156364357Y-90573514D01*
X156372794Y-90591607D01*
X156386396Y-90611964D01*
X156389452Y-90627331D01*
X156395349Y-90639976D01*
X156398000Y-90660111D01*
X156398000Y-92219888D01*
X156395349Y-92240023D01*
X156389453Y-92252666D01*
X156386396Y-92268036D01*
X156372792Y-92288394D01*
X156364357Y-92306485D01*
X156353351Y-92317490D01*
X156342192Y-92334192D01*
X156325490Y-92345351D01*
X156314485Y-92356357D01*
X156296394Y-92364792D01*
X156276036Y-92378396D01*
X156260666Y-92381453D01*
X156248023Y-92387349D01*
X156227889Y-92390000D01*
X156217698Y-92390000D01*
X154678302Y-92390000D01*
X154668111Y-92390000D01*
X154647976Y-92387349D01*
X154635331Y-92381452D01*
X154619964Y-92378396D01*
X154599607Y-92364794D01*
X154581514Y-92356357D01*
X154570506Y-92345349D01*
X154553808Y-92334192D01*
X154542650Y-92317493D01*
X154531642Y-92306485D01*
X154523204Y-92288389D01*
X154509604Y-92268036D01*
X154506547Y-92252670D01*
X154500650Y-92240023D01*
X154498000Y-92219888D01*
X154498000Y-90660111D01*
X154500650Y-90639976D01*
X154506547Y-90627327D01*
X154509604Y-90611964D01*
X154523202Y-90591612D01*
X154531642Y-90573514D01*
X154542652Y-90562503D01*
X154553808Y-90545808D01*
X154570503Y-90534652D01*
X154581514Y-90523642D01*
X154599612Y-90515202D01*
X154619964Y-90501604D01*
X154635327Y-90498547D01*
X154647976Y-90492650D01*
X154668111Y-90490000D01*
X156227889Y-90490000D01*
X156248023Y-90492650D01*
G37*
G36*
X148448724Y-87928299D02*
G01*
X148492218Y-87928299D01*
X148540658Y-87937353D01*
X148595090Y-87942715D01*
X148636438Y-87955257D01*
X148673518Y-87962189D01*
X148724868Y-87982082D01*
X148782683Y-87999620D01*
X148815720Y-88017278D01*
X148845501Y-88028816D01*
X148897245Y-88060854D01*
X148955570Y-88092030D01*
X148980076Y-88112141D01*
X149002311Y-88125909D01*
X149051575Y-88170819D01*
X149107107Y-88216393D01*
X149123563Y-88236445D01*
X149138611Y-88250163D01*
X149182297Y-88308013D01*
X149231470Y-88367930D01*
X149240977Y-88385718D01*
X149249762Y-88397350D01*
X149284713Y-88467540D01*
X149323880Y-88540817D01*
X149328056Y-88554586D01*
X149331972Y-88562449D01*
X149355105Y-88643755D01*
X149380785Y-88728410D01*
X149381628Y-88736973D01*
X149382446Y-88739847D01*
X149390943Y-88831547D01*
X149400000Y-88923500D01*
X149390942Y-89015460D01*
X149382446Y-89107152D01*
X149381628Y-89110024D01*
X149380785Y-89118590D01*
X149355100Y-89203259D01*
X149331972Y-89284550D01*
X149328057Y-89292411D01*
X149323880Y-89306183D01*
X149284705Y-89379472D01*
X149249762Y-89449649D01*
X149240979Y-89461278D01*
X149231470Y-89479070D01*
X149182288Y-89538998D01*
X149138611Y-89596836D01*
X149123566Y-89610550D01*
X149107107Y-89630607D01*
X149051564Y-89676189D01*
X149002311Y-89721090D01*
X148980081Y-89734854D01*
X148955570Y-89754970D01*
X148897233Y-89786151D01*
X148845501Y-89818183D01*
X148815727Y-89829717D01*
X148782683Y-89847380D01*
X148724856Y-89864921D01*
X148673518Y-89884810D01*
X148636445Y-89891740D01*
X148595090Y-89904285D01*
X148540655Y-89909646D01*
X148492218Y-89918701D01*
X148448724Y-89918701D01*
X148400000Y-89923500D01*
X148351276Y-89918701D01*
X148307782Y-89918701D01*
X148259343Y-89909646D01*
X148204910Y-89904285D01*
X148163555Y-89891740D01*
X148126481Y-89884810D01*
X148075139Y-89864919D01*
X148017317Y-89847380D01*
X147984275Y-89829718D01*
X147954498Y-89818183D01*
X147902759Y-89786147D01*
X147844430Y-89754970D01*
X147819921Y-89734856D01*
X147797688Y-89721090D01*
X147748425Y-89676181D01*
X147692893Y-89630607D01*
X147676436Y-89610554D01*
X147661388Y-89596836D01*
X147617699Y-89538982D01*
X147568530Y-89479070D01*
X147559022Y-89461283D01*
X147550237Y-89449649D01*
X147515279Y-89379445D01*
X147476120Y-89306183D01*
X147471943Y-89292416D01*
X147468027Y-89284550D01*
X147444882Y-89203206D01*
X147419215Y-89118590D01*
X147418371Y-89110030D01*
X147417553Y-89107152D01*
X147409040Y-89015288D01*
X147400000Y-88923500D01*
X147409039Y-88831719D01*
X147417553Y-88739847D01*
X147418372Y-88736968D01*
X147419215Y-88728410D01*
X147444878Y-88643808D01*
X147468027Y-88562449D01*
X147471944Y-88554581D01*
X147476120Y-88540817D01*
X147515272Y-88467568D01*
X147550237Y-88397350D01*
X147559024Y-88385713D01*
X147568530Y-88367930D01*
X147617689Y-88308028D01*
X147661388Y-88250163D01*
X147676439Y-88236441D01*
X147692893Y-88216393D01*
X147748414Y-88170827D01*
X147797688Y-88125909D01*
X147819926Y-88112139D01*
X147844430Y-88092030D01*
X147902747Y-88060858D01*
X147954498Y-88028816D01*
X147984282Y-88017277D01*
X148017317Y-87999620D01*
X148075127Y-87982083D01*
X148126481Y-87962189D01*
X148163562Y-87955257D01*
X148204910Y-87942715D01*
X148259340Y-87937353D01*
X148307782Y-87928299D01*
X148351276Y-87928299D01*
X148400000Y-87923500D01*
X148448724Y-87928299D01*
G37*
G36*
X137208724Y-87269799D02*
G01*
X137252218Y-87269799D01*
X137300658Y-87278853D01*
X137355090Y-87284215D01*
X137396438Y-87296757D01*
X137433518Y-87303689D01*
X137484868Y-87323582D01*
X137542683Y-87341120D01*
X137575720Y-87358778D01*
X137605501Y-87370316D01*
X137657245Y-87402354D01*
X137715570Y-87433530D01*
X137740076Y-87453641D01*
X137762311Y-87467409D01*
X137811575Y-87512319D01*
X137867107Y-87557893D01*
X137883563Y-87577945D01*
X137898611Y-87591663D01*
X137942297Y-87649513D01*
X137991470Y-87709430D01*
X138000977Y-87727218D01*
X138009762Y-87738850D01*
X138044713Y-87809040D01*
X138083880Y-87882317D01*
X138088056Y-87896086D01*
X138091972Y-87903949D01*
X138115105Y-87985255D01*
X138140785Y-88069910D01*
X138141628Y-88078473D01*
X138142446Y-88081347D01*
X138150943Y-88173047D01*
X138160000Y-88265000D01*
X138150942Y-88356960D01*
X138142446Y-88448652D01*
X138141628Y-88451524D01*
X138140785Y-88460090D01*
X138115100Y-88544759D01*
X138091972Y-88626050D01*
X138088057Y-88633911D01*
X138083880Y-88647683D01*
X138044705Y-88720972D01*
X138009762Y-88791149D01*
X138000979Y-88802778D01*
X137991470Y-88820570D01*
X137942288Y-88880498D01*
X137898611Y-88938336D01*
X137883566Y-88952050D01*
X137867107Y-88972107D01*
X137811564Y-89017689D01*
X137762311Y-89062590D01*
X137740081Y-89076354D01*
X137715570Y-89096470D01*
X137657233Y-89127651D01*
X137605501Y-89159683D01*
X137575727Y-89171217D01*
X137542683Y-89188880D01*
X137484856Y-89206421D01*
X137433518Y-89226310D01*
X137396445Y-89233240D01*
X137355090Y-89245785D01*
X137300655Y-89251146D01*
X137252218Y-89260201D01*
X137208724Y-89260201D01*
X137160000Y-89265000D01*
X137111276Y-89260201D01*
X137067782Y-89260201D01*
X137019343Y-89251146D01*
X136964910Y-89245785D01*
X136923555Y-89233240D01*
X136886481Y-89226310D01*
X136835139Y-89206419D01*
X136777317Y-89188880D01*
X136744275Y-89171218D01*
X136714498Y-89159683D01*
X136662759Y-89127647D01*
X136604430Y-89096470D01*
X136579921Y-89076356D01*
X136557688Y-89062590D01*
X136508425Y-89017681D01*
X136452893Y-88972107D01*
X136436436Y-88952054D01*
X136421388Y-88938336D01*
X136377699Y-88880482D01*
X136328530Y-88820570D01*
X136319022Y-88802783D01*
X136310237Y-88791149D01*
X136275279Y-88720945D01*
X136236120Y-88647683D01*
X136231943Y-88633916D01*
X136228027Y-88626050D01*
X136204882Y-88544706D01*
X136179215Y-88460090D01*
X136178371Y-88451530D01*
X136177553Y-88448652D01*
X136169040Y-88356788D01*
X136160000Y-88265000D01*
X136169039Y-88173219D01*
X136177553Y-88081347D01*
X136178372Y-88078468D01*
X136179215Y-88069910D01*
X136204878Y-87985308D01*
X136228027Y-87903949D01*
X136231944Y-87896081D01*
X136236120Y-87882317D01*
X136275272Y-87809068D01*
X136310237Y-87738850D01*
X136319024Y-87727213D01*
X136328530Y-87709430D01*
X136377689Y-87649528D01*
X136421388Y-87591663D01*
X136436439Y-87577941D01*
X136452893Y-87557893D01*
X136508414Y-87512327D01*
X136557688Y-87467409D01*
X136579926Y-87453639D01*
X136604430Y-87433530D01*
X136662747Y-87402358D01*
X136714498Y-87370316D01*
X136744282Y-87358777D01*
X136777317Y-87341120D01*
X136835127Y-87323583D01*
X136886481Y-87303689D01*
X136923562Y-87296757D01*
X136964910Y-87284215D01*
X137019340Y-87278853D01*
X137067782Y-87269799D01*
X137111276Y-87269799D01*
X137160000Y-87265000D01*
X137208724Y-87269799D01*
G37*
G36*
X144828724Y-87269799D02*
G01*
X144872218Y-87269799D01*
X144920658Y-87278853D01*
X144975090Y-87284215D01*
X145016438Y-87296757D01*
X145053518Y-87303689D01*
X145104868Y-87323582D01*
X145162683Y-87341120D01*
X145195720Y-87358778D01*
X145225501Y-87370316D01*
X145277245Y-87402354D01*
X145335570Y-87433530D01*
X145360076Y-87453641D01*
X145382311Y-87467409D01*
X145431575Y-87512319D01*
X145487107Y-87557893D01*
X145503563Y-87577945D01*
X145518611Y-87591663D01*
X145562297Y-87649513D01*
X145611470Y-87709430D01*
X145620977Y-87727218D01*
X145629762Y-87738850D01*
X145664713Y-87809040D01*
X145703880Y-87882317D01*
X145708056Y-87896086D01*
X145711972Y-87903949D01*
X145735105Y-87985255D01*
X145760785Y-88069910D01*
X145761628Y-88078473D01*
X145762446Y-88081347D01*
X145770943Y-88173047D01*
X145780000Y-88265000D01*
X145770942Y-88356960D01*
X145762446Y-88448652D01*
X145761628Y-88451524D01*
X145760785Y-88460090D01*
X145735100Y-88544759D01*
X145711972Y-88626050D01*
X145708057Y-88633911D01*
X145703880Y-88647683D01*
X145664705Y-88720972D01*
X145629762Y-88791149D01*
X145620979Y-88802778D01*
X145611470Y-88820570D01*
X145562288Y-88880498D01*
X145518611Y-88938336D01*
X145503566Y-88952050D01*
X145487107Y-88972107D01*
X145431564Y-89017689D01*
X145382311Y-89062590D01*
X145360081Y-89076354D01*
X145335570Y-89096470D01*
X145277233Y-89127651D01*
X145225501Y-89159683D01*
X145195727Y-89171217D01*
X145162683Y-89188880D01*
X145104856Y-89206421D01*
X145053518Y-89226310D01*
X145016445Y-89233240D01*
X144975090Y-89245785D01*
X144920655Y-89251146D01*
X144872218Y-89260201D01*
X144828724Y-89260201D01*
X144780000Y-89265000D01*
X144731276Y-89260201D01*
X144687782Y-89260201D01*
X144639343Y-89251146D01*
X144584910Y-89245785D01*
X144543555Y-89233240D01*
X144506481Y-89226310D01*
X144455139Y-89206419D01*
X144397317Y-89188880D01*
X144364275Y-89171218D01*
X144334498Y-89159683D01*
X144282759Y-89127647D01*
X144224430Y-89096470D01*
X144199921Y-89076356D01*
X144177688Y-89062590D01*
X144128425Y-89017681D01*
X144072893Y-88972107D01*
X144056436Y-88952054D01*
X144041388Y-88938336D01*
X143997699Y-88880482D01*
X143948530Y-88820570D01*
X143939022Y-88802783D01*
X143930237Y-88791149D01*
X143895279Y-88720945D01*
X143856120Y-88647683D01*
X143851943Y-88633916D01*
X143848027Y-88626050D01*
X143824882Y-88544706D01*
X143799215Y-88460090D01*
X143798371Y-88451530D01*
X143797553Y-88448652D01*
X143789040Y-88356788D01*
X143780000Y-88265000D01*
X143789039Y-88173219D01*
X143797553Y-88081347D01*
X143798372Y-88078468D01*
X143799215Y-88069910D01*
X143824878Y-87985308D01*
X143848027Y-87903949D01*
X143851944Y-87896081D01*
X143856120Y-87882317D01*
X143895272Y-87809068D01*
X143930237Y-87738850D01*
X143939024Y-87727213D01*
X143948530Y-87709430D01*
X143997689Y-87649528D01*
X144041388Y-87591663D01*
X144056439Y-87577941D01*
X144072893Y-87557893D01*
X144128414Y-87512327D01*
X144177688Y-87467409D01*
X144199926Y-87453639D01*
X144224430Y-87433530D01*
X144282747Y-87402358D01*
X144334498Y-87370316D01*
X144364282Y-87358777D01*
X144397317Y-87341120D01*
X144455127Y-87323583D01*
X144506481Y-87303689D01*
X144543562Y-87296757D01*
X144584910Y-87284215D01*
X144639340Y-87278853D01*
X144687782Y-87269799D01*
X144731276Y-87269799D01*
X144780000Y-87265000D01*
X144828724Y-87269799D01*
G37*
G36*
X157394043Y-86519691D02*
G01*
X157426727Y-86523994D01*
X157434948Y-86527827D01*
X157454537Y-86531724D01*
X157480480Y-86549059D01*
X157491608Y-86554248D01*
X157498378Y-86561018D01*
X157519421Y-86575079D01*
X157533481Y-86596121D01*
X157540251Y-86602891D01*
X157545438Y-86614016D01*
X157562776Y-86639963D01*
X157566672Y-86659553D01*
X157570505Y-86667772D01*
X157574806Y-86700445D01*
X157578000Y-86716500D01*
X157578000Y-88416500D01*
X157574805Y-88432558D01*
X157570505Y-88465227D01*
X157566673Y-88473444D01*
X157562776Y-88493037D01*
X157545437Y-88518985D01*
X157540251Y-88530108D01*
X157533483Y-88536875D01*
X157519421Y-88557921D01*
X157498375Y-88571983D01*
X157491608Y-88578751D01*
X157480485Y-88583937D01*
X157454537Y-88601276D01*
X157434944Y-88605173D01*
X157426727Y-88609005D01*
X157394056Y-88613306D01*
X157378000Y-88616500D01*
X155678000Y-88616500D01*
X155661943Y-88613306D01*
X155629272Y-88609005D01*
X155621053Y-88605172D01*
X155601463Y-88601276D01*
X155575516Y-88583938D01*
X155564391Y-88578751D01*
X155557621Y-88571981D01*
X155536579Y-88557921D01*
X155522518Y-88536878D01*
X155515748Y-88530108D01*
X155510559Y-88518980D01*
X155493224Y-88493037D01*
X155489327Y-88473448D01*
X155485494Y-88465227D01*
X155481190Y-88432541D01*
X155478000Y-88416500D01*
X155478000Y-86716500D01*
X155481190Y-86700458D01*
X155485494Y-86667772D01*
X155489327Y-86659549D01*
X155493224Y-86639963D01*
X155510557Y-86614021D01*
X155515748Y-86602891D01*
X155522520Y-86596118D01*
X155536579Y-86575079D01*
X155557618Y-86561020D01*
X155564391Y-86554248D01*
X155575521Y-86549057D01*
X155601463Y-86531724D01*
X155621049Y-86527827D01*
X155629272Y-86523994D01*
X155661960Y-86519690D01*
X155678000Y-86516500D01*
X157378000Y-86516500D01*
X157394043Y-86519691D01*
G37*
G36*
X148448724Y-85428299D02*
G01*
X148492218Y-85428299D01*
X148540658Y-85437353D01*
X148595090Y-85442715D01*
X148636438Y-85455257D01*
X148673518Y-85462189D01*
X148724868Y-85482082D01*
X148782683Y-85499620D01*
X148815720Y-85517278D01*
X148845501Y-85528816D01*
X148897245Y-85560854D01*
X148955570Y-85592030D01*
X148980076Y-85612141D01*
X149002311Y-85625909D01*
X149051575Y-85670819D01*
X149107107Y-85716393D01*
X149123563Y-85736445D01*
X149138611Y-85750163D01*
X149182297Y-85808013D01*
X149231470Y-85867930D01*
X149240977Y-85885718D01*
X149249762Y-85897350D01*
X149284713Y-85967540D01*
X149323880Y-86040817D01*
X149328056Y-86054586D01*
X149331972Y-86062449D01*
X149355105Y-86143755D01*
X149380785Y-86228410D01*
X149381628Y-86236973D01*
X149382446Y-86239847D01*
X149390943Y-86331547D01*
X149400000Y-86423500D01*
X149390942Y-86515460D01*
X149382446Y-86607152D01*
X149381628Y-86610024D01*
X149380785Y-86618590D01*
X149355100Y-86703259D01*
X149331972Y-86784550D01*
X149328057Y-86792411D01*
X149323880Y-86806183D01*
X149284705Y-86879472D01*
X149249762Y-86949649D01*
X149240979Y-86961278D01*
X149231470Y-86979070D01*
X149182288Y-87038998D01*
X149138611Y-87096836D01*
X149123566Y-87110550D01*
X149107107Y-87130607D01*
X149051564Y-87176189D01*
X149002311Y-87221090D01*
X148980081Y-87234854D01*
X148955570Y-87254970D01*
X148897233Y-87286151D01*
X148845501Y-87318183D01*
X148815727Y-87329717D01*
X148782683Y-87347380D01*
X148724856Y-87364921D01*
X148673518Y-87384810D01*
X148636445Y-87391740D01*
X148595090Y-87404285D01*
X148540655Y-87409646D01*
X148492218Y-87418701D01*
X148448724Y-87418701D01*
X148400000Y-87423500D01*
X148351276Y-87418701D01*
X148307782Y-87418701D01*
X148259343Y-87409646D01*
X148204910Y-87404285D01*
X148163555Y-87391740D01*
X148126481Y-87384810D01*
X148075139Y-87364919D01*
X148017317Y-87347380D01*
X147984275Y-87329718D01*
X147954498Y-87318183D01*
X147902759Y-87286147D01*
X147844430Y-87254970D01*
X147819921Y-87234856D01*
X147797688Y-87221090D01*
X147748425Y-87176181D01*
X147692893Y-87130607D01*
X147676436Y-87110554D01*
X147661388Y-87096836D01*
X147617699Y-87038982D01*
X147568530Y-86979070D01*
X147559022Y-86961283D01*
X147550237Y-86949649D01*
X147515279Y-86879445D01*
X147476120Y-86806183D01*
X147471943Y-86792416D01*
X147468027Y-86784550D01*
X147444882Y-86703206D01*
X147419215Y-86618590D01*
X147418371Y-86610030D01*
X147417553Y-86607152D01*
X147409040Y-86515288D01*
X147400000Y-86423500D01*
X147409039Y-86331719D01*
X147417553Y-86239847D01*
X147418372Y-86236968D01*
X147419215Y-86228410D01*
X147444878Y-86143808D01*
X147468027Y-86062449D01*
X147471944Y-86054581D01*
X147476120Y-86040817D01*
X147515272Y-85967568D01*
X147550237Y-85897350D01*
X147559024Y-85885713D01*
X147568530Y-85867930D01*
X147617689Y-85808028D01*
X147661388Y-85750163D01*
X147676439Y-85736441D01*
X147692893Y-85716393D01*
X147748414Y-85670827D01*
X147797688Y-85625909D01*
X147819926Y-85612139D01*
X147844430Y-85592030D01*
X147902747Y-85560858D01*
X147954498Y-85528816D01*
X147984282Y-85517277D01*
X148017317Y-85499620D01*
X148075127Y-85482083D01*
X148126481Y-85462189D01*
X148163562Y-85455257D01*
X148204910Y-85442715D01*
X148259340Y-85437353D01*
X148307782Y-85428299D01*
X148351276Y-85428299D01*
X148400000Y-85423500D01*
X148448724Y-85428299D01*
G37*
G36*
X156578889Y-83981512D02*
G01*
X156624830Y-83981512D01*
X156675988Y-83991075D01*
X156732845Y-83996675D01*
X156776042Y-84009778D01*
X156815202Y-84017099D01*
X156869438Y-84038109D01*
X156929818Y-84056426D01*
X156964315Y-84074865D01*
X156995786Y-84087057D01*
X157050469Y-84120915D01*
X157111349Y-84153457D01*
X157136929Y-84174450D01*
X157160442Y-84189009D01*
X157212546Y-84236508D01*
X157270462Y-84284038D01*
X157287621Y-84304946D01*
X157303564Y-84319480D01*
X157349838Y-84380758D01*
X157401043Y-84443151D01*
X157410947Y-84461680D01*
X157420273Y-84474030D01*
X157457372Y-84548534D01*
X157498074Y-84624682D01*
X157502415Y-84638992D01*
X157506596Y-84647389D01*
X157531295Y-84734197D01*
X157557825Y-84821655D01*
X157558696Y-84830503D01*
X157559594Y-84833658D01*
X157568933Y-84934444D01*
X157578000Y-85026500D01*
X157568932Y-85118563D01*
X157559594Y-85219341D01*
X157558696Y-85222494D01*
X157557825Y-85231345D01*
X157531290Y-85318817D01*
X157506596Y-85405610D01*
X157502415Y-85414004D01*
X157498074Y-85428318D01*
X157457364Y-85504479D01*
X157420273Y-85578969D01*
X157410949Y-85591315D01*
X157401043Y-85609849D01*
X157349829Y-85672252D01*
X157303564Y-85733519D01*
X157287624Y-85748049D01*
X157270462Y-85768962D01*
X157212535Y-85816500D01*
X157160442Y-85863990D01*
X157136934Y-85878545D01*
X157111349Y-85899543D01*
X157050457Y-85932090D01*
X156995786Y-85965942D01*
X156964321Y-85978131D01*
X156929818Y-85996574D01*
X156869426Y-86014893D01*
X156815202Y-86035900D01*
X156776049Y-86043219D01*
X156732845Y-86056325D01*
X156675985Y-86061925D01*
X156624830Y-86071488D01*
X156578889Y-86071488D01*
X156528000Y-86076500D01*
X156477111Y-86071488D01*
X156431170Y-86071488D01*
X156380014Y-86061924D01*
X156323155Y-86056325D01*
X156279952Y-86043219D01*
X156240797Y-86035900D01*
X156186569Y-86014892D01*
X156126182Y-85996574D01*
X156091680Y-85978132D01*
X156060213Y-85965942D01*
X156005535Y-85932086D01*
X155944651Y-85899543D01*
X155919068Y-85878547D01*
X155895557Y-85863990D01*
X155843454Y-85816492D01*
X155785538Y-85768962D01*
X155768378Y-85748053D01*
X155752435Y-85733519D01*
X155706158Y-85672237D01*
X155654957Y-85609849D01*
X155645053Y-85591320D01*
X155635726Y-85578969D01*
X155598620Y-85504451D01*
X155557926Y-85428318D01*
X155553585Y-85414009D01*
X155549403Y-85405610D01*
X155524693Y-85318764D01*
X155498175Y-85231345D01*
X155497303Y-85222500D01*
X155496405Y-85219341D01*
X155487050Y-85118391D01*
X155478000Y-85026500D01*
X155487049Y-84934616D01*
X155496405Y-84833658D01*
X155497304Y-84830498D01*
X155498175Y-84821655D01*
X155524688Y-84734250D01*
X155549403Y-84647389D01*
X155553586Y-84638987D01*
X155557926Y-84624682D01*
X155598613Y-84548561D01*
X155635726Y-84474030D01*
X155645054Y-84461676D01*
X155654957Y-84443151D01*
X155706148Y-84380774D01*
X155752435Y-84319480D01*
X155768381Y-84304942D01*
X155785538Y-84284038D01*
X155843443Y-84236516D01*
X155895557Y-84189009D01*
X155919073Y-84174448D01*
X155944651Y-84153457D01*
X156005523Y-84120919D01*
X156060213Y-84087057D01*
X156091687Y-84074863D01*
X156126182Y-84056426D01*
X156186557Y-84038111D01*
X156240797Y-84017099D01*
X156279959Y-84009778D01*
X156323155Y-83996675D01*
X156380011Y-83991075D01*
X156431170Y-83981512D01*
X156477111Y-83981512D01*
X156528000Y-83976500D01*
X156578889Y-83981512D01*
G37*
G36*
X137208724Y-83459799D02*
G01*
X137252218Y-83459799D01*
X137300658Y-83468853D01*
X137355090Y-83474215D01*
X137396438Y-83486757D01*
X137433518Y-83493689D01*
X137484868Y-83513582D01*
X137542683Y-83531120D01*
X137575720Y-83548778D01*
X137605501Y-83560316D01*
X137657245Y-83592354D01*
X137715570Y-83623530D01*
X137740076Y-83643641D01*
X137762311Y-83657409D01*
X137811575Y-83702319D01*
X137867107Y-83747893D01*
X137883563Y-83767945D01*
X137898611Y-83781663D01*
X137942297Y-83839513D01*
X137991470Y-83899430D01*
X138000977Y-83917218D01*
X138009762Y-83928850D01*
X138044713Y-83999040D01*
X138083880Y-84072317D01*
X138088056Y-84086086D01*
X138091972Y-84093949D01*
X138115105Y-84175255D01*
X138140785Y-84259910D01*
X138141628Y-84268473D01*
X138142446Y-84271347D01*
X138150943Y-84363047D01*
X138160000Y-84455000D01*
X138150942Y-84546960D01*
X138142446Y-84638652D01*
X138141628Y-84641524D01*
X138140785Y-84650090D01*
X138115100Y-84734759D01*
X138091972Y-84816050D01*
X138088057Y-84823911D01*
X138083880Y-84837683D01*
X138044705Y-84910972D01*
X138009762Y-84981149D01*
X138000979Y-84992778D01*
X137991470Y-85010570D01*
X137942288Y-85070498D01*
X137898611Y-85128336D01*
X137883566Y-85142050D01*
X137867107Y-85162107D01*
X137811564Y-85207689D01*
X137762311Y-85252590D01*
X137740081Y-85266354D01*
X137715570Y-85286470D01*
X137657233Y-85317651D01*
X137605501Y-85349683D01*
X137575727Y-85361217D01*
X137542683Y-85378880D01*
X137484856Y-85396421D01*
X137433518Y-85416310D01*
X137396445Y-85423240D01*
X137355090Y-85435785D01*
X137300655Y-85441146D01*
X137252218Y-85450201D01*
X137208724Y-85450201D01*
X137160000Y-85455000D01*
X137111276Y-85450201D01*
X137067782Y-85450201D01*
X137019343Y-85441146D01*
X136964910Y-85435785D01*
X136923555Y-85423240D01*
X136886481Y-85416310D01*
X136835139Y-85396419D01*
X136777317Y-85378880D01*
X136744275Y-85361218D01*
X136714498Y-85349683D01*
X136662759Y-85317647D01*
X136604430Y-85286470D01*
X136579921Y-85266356D01*
X136557688Y-85252590D01*
X136508425Y-85207681D01*
X136452893Y-85162107D01*
X136436436Y-85142054D01*
X136421388Y-85128336D01*
X136377699Y-85070482D01*
X136328530Y-85010570D01*
X136319022Y-84992783D01*
X136310237Y-84981149D01*
X136275279Y-84910945D01*
X136236120Y-84837683D01*
X136231943Y-84823916D01*
X136228027Y-84816050D01*
X136204882Y-84734706D01*
X136179215Y-84650090D01*
X136178371Y-84641530D01*
X136177553Y-84638652D01*
X136169040Y-84546788D01*
X136160000Y-84455000D01*
X136169039Y-84363219D01*
X136177553Y-84271347D01*
X136178372Y-84268468D01*
X136179215Y-84259910D01*
X136204878Y-84175308D01*
X136228027Y-84093949D01*
X136231944Y-84086081D01*
X136236120Y-84072317D01*
X136275272Y-83999068D01*
X136310237Y-83928850D01*
X136319024Y-83917213D01*
X136328530Y-83899430D01*
X136377689Y-83839528D01*
X136421388Y-83781663D01*
X136436439Y-83767941D01*
X136452893Y-83747893D01*
X136508414Y-83702327D01*
X136557688Y-83657409D01*
X136579926Y-83643639D01*
X136604430Y-83623530D01*
X136662747Y-83592358D01*
X136714498Y-83560316D01*
X136744282Y-83548777D01*
X136777317Y-83531120D01*
X136835127Y-83513583D01*
X136886481Y-83493689D01*
X136923562Y-83486757D01*
X136964910Y-83474215D01*
X137019340Y-83468853D01*
X137067782Y-83459799D01*
X137111276Y-83459799D01*
X137160000Y-83455000D01*
X137208724Y-83459799D01*
G37*
G36*
X144828724Y-83459799D02*
G01*
X144872218Y-83459799D01*
X144920658Y-83468853D01*
X144975090Y-83474215D01*
X145016438Y-83486757D01*
X145053518Y-83493689D01*
X145104868Y-83513582D01*
X145162683Y-83531120D01*
X145195720Y-83548778D01*
X145225501Y-83560316D01*
X145277245Y-83592354D01*
X145335570Y-83623530D01*
X145360076Y-83643641D01*
X145382311Y-83657409D01*
X145431575Y-83702319D01*
X145487107Y-83747893D01*
X145503563Y-83767945D01*
X145518611Y-83781663D01*
X145562297Y-83839513D01*
X145611470Y-83899430D01*
X145620977Y-83917218D01*
X145629762Y-83928850D01*
X145664713Y-83999040D01*
X145703880Y-84072317D01*
X145708056Y-84086086D01*
X145711972Y-84093949D01*
X145735105Y-84175255D01*
X145760785Y-84259910D01*
X145761628Y-84268473D01*
X145762446Y-84271347D01*
X145770943Y-84363047D01*
X145780000Y-84455000D01*
X145770942Y-84546960D01*
X145762446Y-84638652D01*
X145761628Y-84641524D01*
X145760785Y-84650090D01*
X145735100Y-84734759D01*
X145711972Y-84816050D01*
X145708057Y-84823911D01*
X145703880Y-84837683D01*
X145664705Y-84910972D01*
X145629762Y-84981149D01*
X145620979Y-84992778D01*
X145611470Y-85010570D01*
X145562288Y-85070498D01*
X145518611Y-85128336D01*
X145503566Y-85142050D01*
X145487107Y-85162107D01*
X145431564Y-85207689D01*
X145382311Y-85252590D01*
X145360081Y-85266354D01*
X145335570Y-85286470D01*
X145277233Y-85317651D01*
X145225501Y-85349683D01*
X145195727Y-85361217D01*
X145162683Y-85378880D01*
X145104856Y-85396421D01*
X145053518Y-85416310D01*
X145016445Y-85423240D01*
X144975090Y-85435785D01*
X144920655Y-85441146D01*
X144872218Y-85450201D01*
X144828724Y-85450201D01*
X144780000Y-85455000D01*
X144731276Y-85450201D01*
X144687782Y-85450201D01*
X144639343Y-85441146D01*
X144584910Y-85435785D01*
X144543555Y-85423240D01*
X144506481Y-85416310D01*
X144455139Y-85396419D01*
X144397317Y-85378880D01*
X144364275Y-85361218D01*
X144334498Y-85349683D01*
X144282759Y-85317647D01*
X144224430Y-85286470D01*
X144199921Y-85266356D01*
X144177688Y-85252590D01*
X144128425Y-85207681D01*
X144072893Y-85162107D01*
X144056436Y-85142054D01*
X144041388Y-85128336D01*
X143997699Y-85070482D01*
X143948530Y-85010570D01*
X143939022Y-84992783D01*
X143930237Y-84981149D01*
X143895279Y-84910945D01*
X143856120Y-84837683D01*
X143851943Y-84823916D01*
X143848027Y-84816050D01*
X143824882Y-84734706D01*
X143799215Y-84650090D01*
X143798371Y-84641530D01*
X143797553Y-84638652D01*
X143789040Y-84546788D01*
X143780000Y-84455000D01*
X143789039Y-84363219D01*
X143797553Y-84271347D01*
X143798372Y-84268468D01*
X143799215Y-84259910D01*
X143824878Y-84175308D01*
X143848027Y-84093949D01*
X143851944Y-84086081D01*
X143856120Y-84072317D01*
X143895272Y-83999068D01*
X143930237Y-83928850D01*
X143939024Y-83917213D01*
X143948530Y-83899430D01*
X143997689Y-83839528D01*
X144041388Y-83781663D01*
X144056439Y-83767941D01*
X144072893Y-83747893D01*
X144128414Y-83702327D01*
X144177688Y-83657409D01*
X144199926Y-83643639D01*
X144224430Y-83623530D01*
X144282747Y-83592358D01*
X144334498Y-83560316D01*
X144364282Y-83548777D01*
X144397317Y-83531120D01*
X144455127Y-83513583D01*
X144506481Y-83493689D01*
X144543562Y-83486757D01*
X144584910Y-83474215D01*
X144639340Y-83468853D01*
X144687782Y-83459799D01*
X144731276Y-83459799D01*
X144780000Y-83455000D01*
X144828724Y-83459799D01*
G37*
G36*
X148384724Y-82316799D02*
G01*
X148428218Y-82316799D01*
X148476658Y-82325853D01*
X148531090Y-82331215D01*
X148572438Y-82343757D01*
X148609518Y-82350689D01*
X148660868Y-82370582D01*
X148718683Y-82388120D01*
X148751720Y-82405778D01*
X148781501Y-82417316D01*
X148833245Y-82449354D01*
X148891570Y-82480530D01*
X148916076Y-82500641D01*
X148938311Y-82514409D01*
X148987575Y-82559319D01*
X149043107Y-82604893D01*
X149059563Y-82624945D01*
X149074611Y-82638663D01*
X149118297Y-82696513D01*
X149167470Y-82756430D01*
X149176977Y-82774218D01*
X149185762Y-82785850D01*
X149220713Y-82856040D01*
X149259880Y-82929317D01*
X149264056Y-82943086D01*
X149267972Y-82950949D01*
X149291105Y-83032255D01*
X149316785Y-83116910D01*
X149317628Y-83125473D01*
X149318446Y-83128347D01*
X149326943Y-83220047D01*
X149336000Y-83312000D01*
X149326942Y-83403960D01*
X149318446Y-83495652D01*
X149317628Y-83498524D01*
X149316785Y-83507090D01*
X149291100Y-83591759D01*
X149267972Y-83673050D01*
X149264057Y-83680911D01*
X149259880Y-83694683D01*
X149220705Y-83767972D01*
X149185762Y-83838149D01*
X149176979Y-83849778D01*
X149167470Y-83867570D01*
X149118288Y-83927498D01*
X149074611Y-83985336D01*
X149059566Y-83999050D01*
X149043107Y-84019107D01*
X148987564Y-84064689D01*
X148938311Y-84109590D01*
X148916081Y-84123354D01*
X148891570Y-84143470D01*
X148833233Y-84174651D01*
X148781501Y-84206683D01*
X148751727Y-84218217D01*
X148718683Y-84235880D01*
X148660856Y-84253421D01*
X148609518Y-84273310D01*
X148572445Y-84280240D01*
X148531090Y-84292785D01*
X148476655Y-84298146D01*
X148428218Y-84307201D01*
X148384724Y-84307201D01*
X148336000Y-84312000D01*
X148287276Y-84307201D01*
X148243782Y-84307201D01*
X148195343Y-84298146D01*
X148140910Y-84292785D01*
X148099555Y-84280240D01*
X148062481Y-84273310D01*
X148011139Y-84253419D01*
X147953317Y-84235880D01*
X147920275Y-84218218D01*
X147890498Y-84206683D01*
X147838759Y-84174647D01*
X147780430Y-84143470D01*
X147755921Y-84123356D01*
X147733688Y-84109590D01*
X147684425Y-84064681D01*
X147628893Y-84019107D01*
X147612436Y-83999054D01*
X147597388Y-83985336D01*
X147553699Y-83927482D01*
X147504530Y-83867570D01*
X147495022Y-83849783D01*
X147486237Y-83838149D01*
X147451279Y-83767945D01*
X147412120Y-83694683D01*
X147407943Y-83680916D01*
X147404027Y-83673050D01*
X147380882Y-83591706D01*
X147355215Y-83507090D01*
X147354371Y-83498530D01*
X147353553Y-83495652D01*
X147345040Y-83403788D01*
X147336000Y-83312000D01*
X147345039Y-83220219D01*
X147353553Y-83128347D01*
X147354372Y-83125468D01*
X147355215Y-83116910D01*
X147380878Y-83032308D01*
X147404027Y-82950949D01*
X147407944Y-82943081D01*
X147412120Y-82929317D01*
X147451272Y-82856068D01*
X147486237Y-82785850D01*
X147495024Y-82774213D01*
X147504530Y-82756430D01*
X147553689Y-82696528D01*
X147597388Y-82638663D01*
X147612439Y-82624941D01*
X147628893Y-82604893D01*
X147684414Y-82559327D01*
X147733688Y-82514409D01*
X147755926Y-82500639D01*
X147780430Y-82480530D01*
X147838747Y-82449358D01*
X147890498Y-82417316D01*
X147920282Y-82405777D01*
X147953317Y-82388120D01*
X148011127Y-82370583D01*
X148062481Y-82350689D01*
X148099562Y-82343757D01*
X148140910Y-82331215D01*
X148195340Y-82325853D01*
X148243782Y-82316799D01*
X148287276Y-82316799D01*
X148336000Y-82312000D01*
X148384724Y-82316799D01*
G37*
G36*
X156578889Y-81441512D02*
G01*
X156624830Y-81441512D01*
X156675988Y-81451075D01*
X156732845Y-81456675D01*
X156776042Y-81469778D01*
X156815202Y-81477099D01*
X156869438Y-81498109D01*
X156929818Y-81516426D01*
X156964315Y-81534865D01*
X156995786Y-81547057D01*
X157050469Y-81580915D01*
X157111349Y-81613457D01*
X157136929Y-81634450D01*
X157160442Y-81649009D01*
X157212546Y-81696508D01*
X157270462Y-81744038D01*
X157287621Y-81764946D01*
X157303564Y-81779480D01*
X157349838Y-81840758D01*
X157401043Y-81903151D01*
X157410947Y-81921680D01*
X157420273Y-81934030D01*
X157457372Y-82008534D01*
X157498074Y-82084682D01*
X157502415Y-82098992D01*
X157506596Y-82107389D01*
X157531295Y-82194197D01*
X157557825Y-82281655D01*
X157558696Y-82290503D01*
X157559594Y-82293658D01*
X157568933Y-82394444D01*
X157578000Y-82486500D01*
X157568932Y-82578563D01*
X157559594Y-82679341D01*
X157558696Y-82682494D01*
X157557825Y-82691345D01*
X157531290Y-82778817D01*
X157506596Y-82865610D01*
X157502415Y-82874004D01*
X157498074Y-82888318D01*
X157457364Y-82964479D01*
X157420273Y-83038969D01*
X157410949Y-83051315D01*
X157401043Y-83069849D01*
X157349829Y-83132252D01*
X157303564Y-83193519D01*
X157287624Y-83208049D01*
X157270462Y-83228962D01*
X157212535Y-83276500D01*
X157160442Y-83323990D01*
X157136934Y-83338545D01*
X157111349Y-83359543D01*
X157050457Y-83392090D01*
X156995786Y-83425942D01*
X156964321Y-83438131D01*
X156929818Y-83456574D01*
X156869426Y-83474893D01*
X156815202Y-83495900D01*
X156776049Y-83503219D01*
X156732845Y-83516325D01*
X156675985Y-83521925D01*
X156624830Y-83531488D01*
X156578889Y-83531488D01*
X156528000Y-83536500D01*
X156477111Y-83531488D01*
X156431170Y-83531488D01*
X156380014Y-83521924D01*
X156323155Y-83516325D01*
X156279952Y-83503219D01*
X156240797Y-83495900D01*
X156186569Y-83474892D01*
X156126182Y-83456574D01*
X156091680Y-83438132D01*
X156060213Y-83425942D01*
X156005535Y-83392086D01*
X155944651Y-83359543D01*
X155919068Y-83338547D01*
X155895557Y-83323990D01*
X155843454Y-83276492D01*
X155785538Y-83228962D01*
X155768378Y-83208053D01*
X155752435Y-83193519D01*
X155706158Y-83132237D01*
X155654957Y-83069849D01*
X155645053Y-83051320D01*
X155635726Y-83038969D01*
X155598620Y-82964451D01*
X155557926Y-82888318D01*
X155553585Y-82874009D01*
X155549403Y-82865610D01*
X155524693Y-82778764D01*
X155498175Y-82691345D01*
X155497303Y-82682500D01*
X155496405Y-82679341D01*
X155487050Y-82578391D01*
X155478000Y-82486500D01*
X155487049Y-82394616D01*
X155496405Y-82293658D01*
X155497304Y-82290498D01*
X155498175Y-82281655D01*
X155524688Y-82194250D01*
X155549403Y-82107389D01*
X155553586Y-82098987D01*
X155557926Y-82084682D01*
X155598613Y-82008561D01*
X155635726Y-81934030D01*
X155645054Y-81921676D01*
X155654957Y-81903151D01*
X155706148Y-81840774D01*
X155752435Y-81779480D01*
X155768381Y-81764942D01*
X155785538Y-81744038D01*
X155843443Y-81696516D01*
X155895557Y-81649009D01*
X155919073Y-81634448D01*
X155944651Y-81613457D01*
X156005523Y-81580919D01*
X156060213Y-81547057D01*
X156091687Y-81534863D01*
X156126182Y-81516426D01*
X156186557Y-81498111D01*
X156240797Y-81477099D01*
X156279959Y-81469778D01*
X156323155Y-81456675D01*
X156380011Y-81451075D01*
X156431170Y-81441512D01*
X156477111Y-81441512D01*
X156528000Y-81436500D01*
X156578889Y-81441512D01*
G37*
G36*
X148384724Y-79816799D02*
G01*
X148428218Y-79816799D01*
X148476658Y-79825853D01*
X148531090Y-79831215D01*
X148572438Y-79843757D01*
X148609518Y-79850689D01*
X148660868Y-79870582D01*
X148718683Y-79888120D01*
X148751720Y-79905778D01*
X148781501Y-79917316D01*
X148833245Y-79949354D01*
X148891570Y-79980530D01*
X148916076Y-80000641D01*
X148938311Y-80014409D01*
X148987575Y-80059319D01*
X149043107Y-80104893D01*
X149059563Y-80124945D01*
X149074611Y-80138663D01*
X149118297Y-80196513D01*
X149167470Y-80256430D01*
X149176977Y-80274218D01*
X149185762Y-80285850D01*
X149220713Y-80356040D01*
X149259880Y-80429317D01*
X149264056Y-80443086D01*
X149267972Y-80450949D01*
X149291105Y-80532255D01*
X149316785Y-80616910D01*
X149317628Y-80625473D01*
X149318446Y-80628347D01*
X149326943Y-80720047D01*
X149336000Y-80812000D01*
X149326942Y-80903960D01*
X149318446Y-80995652D01*
X149317628Y-80998524D01*
X149316785Y-81007090D01*
X149291100Y-81091759D01*
X149267972Y-81173050D01*
X149264057Y-81180911D01*
X149259880Y-81194683D01*
X149220705Y-81267972D01*
X149185762Y-81338149D01*
X149176979Y-81349778D01*
X149167470Y-81367570D01*
X149118288Y-81427498D01*
X149074611Y-81485336D01*
X149059566Y-81499050D01*
X149043107Y-81519107D01*
X148987564Y-81564689D01*
X148938311Y-81609590D01*
X148916081Y-81623354D01*
X148891570Y-81643470D01*
X148833233Y-81674651D01*
X148781501Y-81706683D01*
X148751727Y-81718217D01*
X148718683Y-81735880D01*
X148660856Y-81753421D01*
X148609518Y-81773310D01*
X148572445Y-81780240D01*
X148531090Y-81792785D01*
X148476655Y-81798146D01*
X148428218Y-81807201D01*
X148384724Y-81807201D01*
X148336000Y-81812000D01*
X148287276Y-81807201D01*
X148243782Y-81807201D01*
X148195343Y-81798146D01*
X148140910Y-81792785D01*
X148099555Y-81780240D01*
X148062481Y-81773310D01*
X148011139Y-81753419D01*
X147953317Y-81735880D01*
X147920275Y-81718218D01*
X147890498Y-81706683D01*
X147838759Y-81674647D01*
X147780430Y-81643470D01*
X147755921Y-81623356D01*
X147733688Y-81609590D01*
X147684425Y-81564681D01*
X147628893Y-81519107D01*
X147612436Y-81499054D01*
X147597388Y-81485336D01*
X147553699Y-81427482D01*
X147504530Y-81367570D01*
X147495022Y-81349783D01*
X147486237Y-81338149D01*
X147451279Y-81267945D01*
X147412120Y-81194683D01*
X147407943Y-81180916D01*
X147404027Y-81173050D01*
X147380882Y-81091706D01*
X147355215Y-81007090D01*
X147354371Y-80998530D01*
X147353553Y-80995652D01*
X147345040Y-80903788D01*
X147336000Y-80812000D01*
X147345039Y-80720219D01*
X147353553Y-80628347D01*
X147354372Y-80625468D01*
X147355215Y-80616910D01*
X147380878Y-80532308D01*
X147404027Y-80450949D01*
X147407944Y-80443081D01*
X147412120Y-80429317D01*
X147451272Y-80356068D01*
X147486237Y-80285850D01*
X147495024Y-80274213D01*
X147504530Y-80256430D01*
X147553689Y-80196528D01*
X147597388Y-80138663D01*
X147612439Y-80124941D01*
X147628893Y-80104893D01*
X147684414Y-80059327D01*
X147733688Y-80014409D01*
X147755926Y-80000639D01*
X147780430Y-79980530D01*
X147838747Y-79949358D01*
X147890498Y-79917316D01*
X147920282Y-79905777D01*
X147953317Y-79888120D01*
X148011127Y-79870583D01*
X148062481Y-79850689D01*
X148099562Y-79843757D01*
X148140910Y-79831215D01*
X148195340Y-79825853D01*
X148243782Y-79816799D01*
X148287276Y-79816799D01*
X148336000Y-79812000D01*
X148384724Y-79816799D01*
G37*
G36*
X137208724Y-79776799D02*
G01*
X137252218Y-79776799D01*
X137300658Y-79785853D01*
X137355090Y-79791215D01*
X137396438Y-79803757D01*
X137433518Y-79810689D01*
X137484868Y-79830582D01*
X137542683Y-79848120D01*
X137575720Y-79865778D01*
X137605501Y-79877316D01*
X137657245Y-79909354D01*
X137715570Y-79940530D01*
X137740076Y-79960641D01*
X137762311Y-79974409D01*
X137811575Y-80019319D01*
X137867107Y-80064893D01*
X137883563Y-80084945D01*
X137898611Y-80098663D01*
X137942297Y-80156513D01*
X137991470Y-80216430D01*
X138000977Y-80234218D01*
X138009762Y-80245850D01*
X138044713Y-80316040D01*
X138083880Y-80389317D01*
X138088056Y-80403086D01*
X138091972Y-80410949D01*
X138115105Y-80492255D01*
X138140785Y-80576910D01*
X138141628Y-80585473D01*
X138142446Y-80588347D01*
X138150943Y-80680047D01*
X138160000Y-80772000D01*
X138150942Y-80863960D01*
X138142446Y-80955652D01*
X138141628Y-80958524D01*
X138140785Y-80967090D01*
X138115100Y-81051759D01*
X138091972Y-81133050D01*
X138088057Y-81140911D01*
X138083880Y-81154683D01*
X138044705Y-81227972D01*
X138009762Y-81298149D01*
X138000979Y-81309778D01*
X137991470Y-81327570D01*
X137942288Y-81387498D01*
X137898611Y-81445336D01*
X137883566Y-81459050D01*
X137867107Y-81479107D01*
X137811564Y-81524689D01*
X137762311Y-81569590D01*
X137740081Y-81583354D01*
X137715570Y-81603470D01*
X137657233Y-81634651D01*
X137605501Y-81666683D01*
X137575727Y-81678217D01*
X137542683Y-81695880D01*
X137484856Y-81713421D01*
X137433518Y-81733310D01*
X137396445Y-81740240D01*
X137355090Y-81752785D01*
X137300655Y-81758146D01*
X137252218Y-81767201D01*
X137208724Y-81767201D01*
X137160000Y-81772000D01*
X137111276Y-81767201D01*
X137067782Y-81767201D01*
X137019343Y-81758146D01*
X136964910Y-81752785D01*
X136923555Y-81740240D01*
X136886481Y-81733310D01*
X136835139Y-81713419D01*
X136777317Y-81695880D01*
X136744275Y-81678218D01*
X136714498Y-81666683D01*
X136662759Y-81634647D01*
X136604430Y-81603470D01*
X136579921Y-81583356D01*
X136557688Y-81569590D01*
X136508425Y-81524681D01*
X136452893Y-81479107D01*
X136436436Y-81459054D01*
X136421388Y-81445336D01*
X136377699Y-81387482D01*
X136328530Y-81327570D01*
X136319022Y-81309783D01*
X136310237Y-81298149D01*
X136275279Y-81227945D01*
X136236120Y-81154683D01*
X136231943Y-81140916D01*
X136228027Y-81133050D01*
X136204882Y-81051706D01*
X136179215Y-80967090D01*
X136178371Y-80958530D01*
X136177553Y-80955652D01*
X136169040Y-80863788D01*
X136160000Y-80772000D01*
X136169039Y-80680219D01*
X136177553Y-80588347D01*
X136178372Y-80585468D01*
X136179215Y-80576910D01*
X136204878Y-80492308D01*
X136228027Y-80410949D01*
X136231944Y-80403081D01*
X136236120Y-80389317D01*
X136275272Y-80316068D01*
X136310237Y-80245850D01*
X136319024Y-80234213D01*
X136328530Y-80216430D01*
X136377689Y-80156528D01*
X136421388Y-80098663D01*
X136436439Y-80084941D01*
X136452893Y-80064893D01*
X136508414Y-80019327D01*
X136557688Y-79974409D01*
X136579926Y-79960639D01*
X136604430Y-79940530D01*
X136662747Y-79909358D01*
X136714498Y-79877316D01*
X136744282Y-79865777D01*
X136777317Y-79848120D01*
X136835127Y-79830583D01*
X136886481Y-79810689D01*
X136923562Y-79803757D01*
X136964910Y-79791215D01*
X137019340Y-79785853D01*
X137067782Y-79776799D01*
X137111276Y-79776799D01*
X137160000Y-79772000D01*
X137208724Y-79776799D01*
G37*
G36*
X145596043Y-79775191D02*
G01*
X145628727Y-79779494D01*
X145636948Y-79783327D01*
X145656537Y-79787224D01*
X145682480Y-79804559D01*
X145693608Y-79809748D01*
X145700378Y-79816518D01*
X145721421Y-79830579D01*
X145735481Y-79851621D01*
X145742251Y-79858391D01*
X145747438Y-79869516D01*
X145764776Y-79895463D01*
X145768672Y-79915053D01*
X145772505Y-79923272D01*
X145776806Y-79955945D01*
X145780000Y-79972000D01*
X145780000Y-81572000D01*
X145776805Y-81588058D01*
X145772505Y-81620727D01*
X145768673Y-81628944D01*
X145764776Y-81648537D01*
X145747437Y-81674485D01*
X145742251Y-81685608D01*
X145735483Y-81692375D01*
X145721421Y-81713421D01*
X145700375Y-81727483D01*
X145693608Y-81734251D01*
X145682485Y-81739437D01*
X145656537Y-81756776D01*
X145636944Y-81760673D01*
X145628727Y-81764505D01*
X145596056Y-81768806D01*
X145580000Y-81772000D01*
X143980000Y-81772000D01*
X143963943Y-81768806D01*
X143931272Y-81764505D01*
X143923053Y-81760672D01*
X143903463Y-81756776D01*
X143877516Y-81739438D01*
X143866391Y-81734251D01*
X143859621Y-81727481D01*
X143838579Y-81713421D01*
X143824518Y-81692378D01*
X143817748Y-81685608D01*
X143812559Y-81674480D01*
X143795224Y-81648537D01*
X143791327Y-81628948D01*
X143787494Y-81620727D01*
X143783190Y-81588041D01*
X143780000Y-81572000D01*
X143780000Y-79972000D01*
X143783190Y-79955958D01*
X143787494Y-79923272D01*
X143791327Y-79915049D01*
X143795224Y-79895463D01*
X143812557Y-79869521D01*
X143817748Y-79858391D01*
X143824520Y-79851618D01*
X143838579Y-79830579D01*
X143859618Y-79816520D01*
X143866391Y-79809748D01*
X143877521Y-79804557D01*
X143903463Y-79787224D01*
X143923049Y-79783327D01*
X143931272Y-79779494D01*
X143963960Y-79775190D01*
X143980000Y-79772000D01*
X145580000Y-79772000D01*
X145596043Y-79775191D01*
G37*
G36*
X156578889Y-78901512D02*
G01*
X156624830Y-78901512D01*
X156675988Y-78911075D01*
X156732845Y-78916675D01*
X156776042Y-78929778D01*
X156815202Y-78937099D01*
X156869438Y-78958109D01*
X156929818Y-78976426D01*
X156964315Y-78994865D01*
X156995786Y-79007057D01*
X157050469Y-79040915D01*
X157111349Y-79073457D01*
X157136929Y-79094450D01*
X157160442Y-79109009D01*
X157212546Y-79156508D01*
X157270462Y-79204038D01*
X157287621Y-79224946D01*
X157303564Y-79239480D01*
X157349838Y-79300758D01*
X157401043Y-79363151D01*
X157410947Y-79381680D01*
X157420273Y-79394030D01*
X157457372Y-79468534D01*
X157498074Y-79544682D01*
X157502415Y-79558992D01*
X157506596Y-79567389D01*
X157531295Y-79654197D01*
X157557825Y-79741655D01*
X157558696Y-79750503D01*
X157559594Y-79753658D01*
X157568933Y-79854444D01*
X157578000Y-79946500D01*
X157568932Y-80038563D01*
X157559594Y-80139341D01*
X157558696Y-80142494D01*
X157557825Y-80151345D01*
X157531290Y-80238817D01*
X157506596Y-80325610D01*
X157502415Y-80334004D01*
X157498074Y-80348318D01*
X157457364Y-80424479D01*
X157420273Y-80498969D01*
X157410949Y-80511315D01*
X157401043Y-80529849D01*
X157349829Y-80592252D01*
X157303564Y-80653519D01*
X157287624Y-80668049D01*
X157270462Y-80688962D01*
X157212535Y-80736500D01*
X157160442Y-80783990D01*
X157136934Y-80798545D01*
X157111349Y-80819543D01*
X157050457Y-80852090D01*
X156995786Y-80885942D01*
X156964321Y-80898131D01*
X156929818Y-80916574D01*
X156869426Y-80934893D01*
X156815202Y-80955900D01*
X156776049Y-80963219D01*
X156732845Y-80976325D01*
X156675985Y-80981925D01*
X156624830Y-80991488D01*
X156578889Y-80991488D01*
X156528000Y-80996500D01*
X156477111Y-80991488D01*
X156431170Y-80991488D01*
X156380014Y-80981924D01*
X156323155Y-80976325D01*
X156279952Y-80963219D01*
X156240797Y-80955900D01*
X156186569Y-80934892D01*
X156126182Y-80916574D01*
X156091680Y-80898132D01*
X156060213Y-80885942D01*
X156005535Y-80852086D01*
X155944651Y-80819543D01*
X155919068Y-80798547D01*
X155895557Y-80783990D01*
X155843454Y-80736492D01*
X155785538Y-80688962D01*
X155768378Y-80668053D01*
X155752435Y-80653519D01*
X155706158Y-80592237D01*
X155654957Y-80529849D01*
X155645053Y-80511320D01*
X155635726Y-80498969D01*
X155598620Y-80424451D01*
X155557926Y-80348318D01*
X155553585Y-80334009D01*
X155549403Y-80325610D01*
X155524693Y-80238764D01*
X155498175Y-80151345D01*
X155497303Y-80142500D01*
X155496405Y-80139341D01*
X155487050Y-80038391D01*
X155478000Y-79946500D01*
X155487049Y-79854616D01*
X155496405Y-79753658D01*
X155497304Y-79750498D01*
X155498175Y-79741655D01*
X155524688Y-79654250D01*
X155549403Y-79567389D01*
X155553586Y-79558987D01*
X155557926Y-79544682D01*
X155598613Y-79468561D01*
X155635726Y-79394030D01*
X155645054Y-79381676D01*
X155654957Y-79363151D01*
X155706148Y-79300774D01*
X155752435Y-79239480D01*
X155768381Y-79224942D01*
X155785538Y-79204038D01*
X155843443Y-79156516D01*
X155895557Y-79109009D01*
X155919073Y-79094448D01*
X155944651Y-79073457D01*
X156005523Y-79040919D01*
X156060213Y-79007057D01*
X156091687Y-78994863D01*
X156126182Y-78976426D01*
X156186557Y-78958111D01*
X156240797Y-78937099D01*
X156279959Y-78929778D01*
X156323155Y-78916675D01*
X156380011Y-78911075D01*
X156431170Y-78901512D01*
X156477111Y-78901512D01*
X156528000Y-78896500D01*
X156578889Y-78901512D01*
G37*
M02*
