M48
; DRILL file {KiCad 8.0.1} date 2024-06-18T21:42:58-0400
; FORMAT={-:-/ absolute / inch / decimal}
; #@! TF.CreationDate,2024-06-18T21:42:58-04:00
; #@! TF.GenerationSoftware,Kicad,Pcbnew,8.0.1
; #@! TF.FileFunction,Plated,1,2,PTH
FMAT,2
INCH
; #@! TA.AperFunction,Plated,PTH,ComponentDrill
T1C0.0315
; #@! TA.AperFunction,Plated,PTH,ComponentDrill
T2C0.0394
; #@! TA.AperFunction,Plated,PTH,ComponentDrill
T3C0.0433
%
G90
G05
T1
X5.4Y-4.0
X5.4Y-4.3
X5.5Y-3.15
X5.5Y-3.35
X5.5Y-3.55
X5.5Y-3.7
X5.5Y-3.85
X5.5Y-4.65
X5.5Y-4.8
X5.8Y-3.15
X5.8Y-3.35
X5.8Y-3.55
X5.8Y-3.7
X5.8Y-3.85
X5.8Y-4.65
X5.8Y-4.8
X6.0Y-4.5
X6.0Y-4.8
X6.1Y-3.15
X6.1Y-3.45
T2
X6.19Y-4.64
T3
X5.5Y-4.45
X5.55Y-4.05
X5.55Y-4.25
X5.8Y-4.45
X5.85Y-4.05
X5.85Y-4.25
X5.95Y-3.15
X5.95Y-3.45
X6.0Y-3.6
X6.0Y-3.9
X6.0Y-4.05
X6.0Y-4.35
M30
