G04 #@! TF.GenerationSoftware,KiCad,Pcbnew,8.0.1*
G04 #@! TF.CreationDate,2024-06-18T21:42:56-04:00*
G04 #@! TF.ProjectId,OdysseyDaughterCardGateMatrix,4f647973-7365-4794-9461-756768746572,1.1*
G04 #@! TF.SameCoordinates,Original*
G04 #@! TF.FileFunction,Copper,L1,Top*
G04 #@! TF.FilePolarity,Positive*
%FSLAX46Y46*%
G04 Gerber Fmt 4.6, Leading zero omitted, Abs format (unit mm)*
G04 Created by KiCad (PCBNEW 8.0.1) date 2024-06-18 21:42:56*
%MOMM*%
%LPD*%
G01*
G04 APERTURE LIST*
G04 #@! TA.AperFunction,ComponentPad*
%ADD10R,2.200000X2.200000*%
G04 #@! TD*
G04 #@! TA.AperFunction,ComponentPad*
%ADD11O,2.200000X2.200000*%
G04 #@! TD*
G04 #@! TA.AperFunction,ComponentPad*
%ADD12R,1.600000X1.600000*%
G04 #@! TD*
G04 #@! TA.AperFunction,ComponentPad*
%ADD13O,1.600000X1.600000*%
G04 #@! TD*
G04 #@! TA.AperFunction,ComponentPad*
%ADD14C,1.600000*%
G04 #@! TD*
G04 #@! TA.AperFunction,ComponentPad*
%ADD15R,1.700000X1.700000*%
G04 #@! TD*
G04 #@! TA.AperFunction,Conductor*
%ADD16C,0.250000*%
G04 #@! TD*
G04 APERTURE END LIST*
D10*
X151130000Y-80010000D03*
D11*
X151130000Y-87630000D03*
D12*
X152400000Y-121920000D03*
D13*
X152400000Y-114300000D03*
D12*
X154940000Y-80010000D03*
D13*
X154940000Y-87630000D03*
D10*
X140970000Y-107950000D03*
D11*
X148590000Y-107950000D03*
D10*
X152400000Y-99060000D03*
D11*
X152400000Y-91440000D03*
D10*
X152400000Y-102870000D03*
D11*
X152400000Y-110490000D03*
D12*
X139700000Y-90170000D03*
D13*
X147320000Y-90170000D03*
D14*
X147320000Y-121920000D03*
D13*
X139700000Y-121920000D03*
D14*
X147320000Y-85090000D03*
D13*
X139700000Y-85090000D03*
D14*
X147320000Y-118110000D03*
D13*
X139700000Y-118110000D03*
D14*
X147320000Y-80010000D03*
D13*
X139700000Y-80010000D03*
D14*
X139700000Y-97790000D03*
D13*
X147320000Y-97790000D03*
D14*
X147320000Y-93980000D03*
D13*
X139700000Y-93980000D03*
D14*
X137160000Y-101600000D03*
D13*
X137160000Y-109220000D03*
D10*
X147320000Y-113030000D03*
D11*
X139700000Y-113030000D03*
D10*
X140970000Y-102870000D03*
D11*
X148590000Y-102870000D03*
D15*
X157226000Y-117856000D03*
D16*
X140499999Y-118909999D02*
X139700000Y-118110000D01*
X140825001Y-119235001D02*
X140499999Y-118909999D01*
X157226000Y-117856000D02*
X156126000Y-117856000D01*
X156126000Y-117856000D02*
X154746999Y-119235001D01*
X154746999Y-119235001D02*
X140825001Y-119235001D01*
G04 #@! TA.AperFunction,Conductor*
G36*
X126042539Y-77795185D02*
G01*
X126088294Y-77847989D01*
X126099500Y-77899500D01*
X126099500Y-78884982D01*
X126099500Y-78915018D01*
X126110994Y-78942767D01*
X126132233Y-78964006D01*
X126159982Y-78975500D01*
X126159984Y-78975500D01*
X130790016Y-78975500D01*
X130790018Y-78975500D01*
X130817767Y-78964006D01*
X130839006Y-78942767D01*
X130850500Y-78915018D01*
X130850500Y-77899500D01*
X130870185Y-77832461D01*
X130922989Y-77786706D01*
X130974500Y-77775500D01*
X159820500Y-77775500D01*
X159887539Y-77795185D01*
X159933294Y-77847989D01*
X159944500Y-77899500D01*
X159944500Y-124100500D01*
X159924815Y-124167539D01*
X159872011Y-124213294D01*
X159820500Y-124224500D01*
X130974500Y-124224500D01*
X130907461Y-124204815D01*
X130861706Y-124152011D01*
X130850500Y-124100500D01*
X130850500Y-123084983D01*
X130850500Y-123084982D01*
X130839006Y-123057233D01*
X130817767Y-123035994D01*
X130790018Y-123024500D01*
X126190018Y-123024500D01*
X126159982Y-123024500D01*
X126132231Y-123035995D01*
X126110995Y-123057231D01*
X126099500Y-123084982D01*
X126099500Y-124100500D01*
X126079815Y-124167539D01*
X126027011Y-124213294D01*
X125975500Y-124224500D01*
X122624500Y-124224500D01*
X122557461Y-124204815D01*
X122511706Y-124152011D01*
X122500500Y-124100500D01*
X122500500Y-121920000D01*
X138594785Y-121920000D01*
X138613602Y-122123082D01*
X138669417Y-122319247D01*
X138669422Y-122319260D01*
X138760327Y-122501821D01*
X138883237Y-122664581D01*
X139033958Y-122801980D01*
X139033960Y-122801982D01*
X139133141Y-122863392D01*
X139207363Y-122909348D01*
X139397544Y-122983024D01*
X139598024Y-123020500D01*
X139598026Y-123020500D01*
X139801974Y-123020500D01*
X139801976Y-123020500D01*
X140002456Y-122983024D01*
X140192637Y-122909348D01*
X140366041Y-122801981D01*
X140516764Y-122664579D01*
X140639673Y-122501821D01*
X140730582Y-122319250D01*
X140786397Y-122123083D01*
X140805215Y-121920000D01*
X146214785Y-121920000D01*
X146233602Y-122123082D01*
X146289417Y-122319247D01*
X146289422Y-122319260D01*
X146380327Y-122501821D01*
X146503237Y-122664581D01*
X146653958Y-122801980D01*
X146653960Y-122801982D01*
X146753141Y-122863392D01*
X146827363Y-122909348D01*
X147017544Y-122983024D01*
X147218024Y-123020500D01*
X147218026Y-123020500D01*
X147421974Y-123020500D01*
X147421976Y-123020500D01*
X147622456Y-122983024D01*
X147812637Y-122909348D01*
X147986041Y-122801981D01*
X148026765Y-122764856D01*
X151299500Y-122764856D01*
X151299502Y-122764882D01*
X151302413Y-122789987D01*
X151302415Y-122789991D01*
X151347793Y-122892764D01*
X151347794Y-122892765D01*
X151427235Y-122972206D01*
X151530009Y-123017585D01*
X151555135Y-123020500D01*
X153244864Y-123020499D01*
X153244879Y-123020497D01*
X153244882Y-123020497D01*
X153269987Y-123017586D01*
X153269988Y-123017585D01*
X153269991Y-123017585D01*
X153372765Y-122972206D01*
X153452206Y-122892765D01*
X153497585Y-122789991D01*
X153500500Y-122764865D01*
X153500499Y-121075136D01*
X153500497Y-121075117D01*
X153497586Y-121050012D01*
X153497585Y-121050010D01*
X153497585Y-121050009D01*
X153452206Y-120947235D01*
X153372765Y-120867794D01*
X153348267Y-120856977D01*
X153269992Y-120822415D01*
X153244865Y-120819500D01*
X151555143Y-120819500D01*
X151555117Y-120819502D01*
X151530012Y-120822413D01*
X151530008Y-120822415D01*
X151427235Y-120867793D01*
X151347794Y-120947234D01*
X151302415Y-121050006D01*
X151302415Y-121050008D01*
X151299500Y-121075131D01*
X151299500Y-122764856D01*
X148026765Y-122764856D01*
X148136764Y-122664579D01*
X148259673Y-122501821D01*
X148350582Y-122319250D01*
X148406397Y-122123083D01*
X148425215Y-121920000D01*
X148406397Y-121716917D01*
X148350582Y-121520750D01*
X148259673Y-121338179D01*
X148136764Y-121175421D01*
X148136762Y-121175418D01*
X147986041Y-121038019D01*
X147986039Y-121038017D01*
X147812642Y-120930655D01*
X147812635Y-120930651D01*
X147717546Y-120893814D01*
X147622456Y-120856976D01*
X147421976Y-120819500D01*
X147218024Y-120819500D01*
X147017544Y-120856976D01*
X147017541Y-120856976D01*
X147017541Y-120856977D01*
X146827364Y-120930651D01*
X146827357Y-120930655D01*
X146653960Y-121038017D01*
X146653958Y-121038019D01*
X146503237Y-121175418D01*
X146380327Y-121338178D01*
X146289422Y-121520739D01*
X146289417Y-121520752D01*
X146233602Y-121716917D01*
X146214785Y-121919999D01*
X146214785Y-121920000D01*
X140805215Y-121920000D01*
X140786397Y-121716917D01*
X140730582Y-121520750D01*
X140639673Y-121338179D01*
X140516764Y-121175421D01*
X140516762Y-121175418D01*
X140366041Y-121038019D01*
X140366039Y-121038017D01*
X140192642Y-120930655D01*
X140192635Y-120930651D01*
X140097546Y-120893814D01*
X140002456Y-120856976D01*
X139801976Y-120819500D01*
X139598024Y-120819500D01*
X139397544Y-120856976D01*
X139397541Y-120856976D01*
X139397541Y-120856977D01*
X139207364Y-120930651D01*
X139207357Y-120930655D01*
X139033960Y-121038017D01*
X139033958Y-121038019D01*
X138883237Y-121175418D01*
X138760327Y-121338178D01*
X138669422Y-121520739D01*
X138669417Y-121520752D01*
X138613602Y-121716917D01*
X138594785Y-121919999D01*
X138594785Y-121920000D01*
X122500500Y-121920000D01*
X122500500Y-118110000D01*
X138594785Y-118110000D01*
X138613602Y-118313082D01*
X138669417Y-118509247D01*
X138669422Y-118509260D01*
X138760327Y-118691821D01*
X138883237Y-118854581D01*
X139033958Y-118991980D01*
X139033960Y-118991982D01*
X139057403Y-119006497D01*
X139207363Y-119099348D01*
X139397544Y-119173024D01*
X139598024Y-119210500D01*
X139598026Y-119210500D01*
X139801974Y-119210500D01*
X139801976Y-119210500D01*
X140002456Y-119173024D01*
X140041586Y-119157865D01*
X140111209Y-119152002D01*
X140172950Y-119184711D01*
X140174062Y-119185810D01*
X140484514Y-119496262D01*
X140484516Y-119496264D01*
X140563738Y-119575486D01*
X140660764Y-119631504D01*
X140768982Y-119660501D01*
X140768983Y-119660501D01*
X140768984Y-119660501D01*
X154803015Y-119660501D01*
X154803017Y-119660501D01*
X154911236Y-119631504D01*
X155008262Y-119575486D01*
X155869331Y-118714415D01*
X155930652Y-118680932D01*
X156000343Y-118685916D01*
X156056277Y-118727787D01*
X156076659Y-118769540D01*
X156078413Y-118775989D01*
X156123793Y-118878764D01*
X156123794Y-118878765D01*
X156203235Y-118958206D01*
X156306009Y-119003585D01*
X156331135Y-119006500D01*
X158120864Y-119006499D01*
X158120879Y-119006497D01*
X158120882Y-119006497D01*
X158145987Y-119003586D01*
X158145988Y-119003585D01*
X158145991Y-119003585D01*
X158248765Y-118958206D01*
X158328206Y-118878765D01*
X158373585Y-118775991D01*
X158376500Y-118750865D01*
X158376499Y-116961136D01*
X158376497Y-116961117D01*
X158373586Y-116936012D01*
X158373585Y-116936010D01*
X158373585Y-116936009D01*
X158328206Y-116833235D01*
X158248765Y-116753794D01*
X158248763Y-116753793D01*
X158145992Y-116708415D01*
X158120865Y-116705500D01*
X156331143Y-116705500D01*
X156331117Y-116705502D01*
X156306012Y-116708413D01*
X156306008Y-116708415D01*
X156203235Y-116753793D01*
X156123794Y-116833234D01*
X156078415Y-116936006D01*
X156078415Y-116936008D01*
X156075500Y-116961131D01*
X156075500Y-117333873D01*
X156055815Y-117400912D01*
X156003011Y-117446667D01*
X155983600Y-117453645D01*
X155961763Y-117459497D01*
X155961761Y-117459498D01*
X155961760Y-117459498D01*
X155864740Y-117515513D01*
X155864734Y-117515517D01*
X154607070Y-118773182D01*
X154545747Y-118806667D01*
X154519389Y-118809501D01*
X148401342Y-118809501D01*
X148334303Y-118789816D01*
X148288548Y-118737012D01*
X148278604Y-118667854D01*
X148290342Y-118630229D01*
X148350577Y-118509260D01*
X148350576Y-118509260D01*
X148350582Y-118509250D01*
X148406397Y-118313083D01*
X148425215Y-118110000D01*
X148406397Y-117906917D01*
X148350582Y-117710750D01*
X148259673Y-117528179D01*
X148136764Y-117365421D01*
X148136762Y-117365418D01*
X147986041Y-117228019D01*
X147986039Y-117228017D01*
X147812642Y-117120655D01*
X147812635Y-117120651D01*
X147717546Y-117083814D01*
X147622456Y-117046976D01*
X147421976Y-117009500D01*
X147218024Y-117009500D01*
X147017544Y-117046976D01*
X147017541Y-117046976D01*
X147017541Y-117046977D01*
X146827364Y-117120651D01*
X146827357Y-117120655D01*
X146653960Y-117228017D01*
X146653958Y-117228019D01*
X146503237Y-117365418D01*
X146380327Y-117528178D01*
X146289422Y-117710739D01*
X146289417Y-117710752D01*
X146233602Y-117906917D01*
X146214785Y-118109999D01*
X146214785Y-118110000D01*
X146233602Y-118313082D01*
X146289417Y-118509247D01*
X146289422Y-118509260D01*
X146349658Y-118630229D01*
X146361919Y-118699015D01*
X146335046Y-118763510D01*
X146277570Y-118803237D01*
X146238658Y-118809501D01*
X141052610Y-118809501D01*
X140985571Y-118789816D01*
X140964929Y-118773182D01*
X140877663Y-118685916D01*
X140775556Y-118583808D01*
X140742071Y-118522485D01*
X140743971Y-118462192D01*
X140786397Y-118313082D01*
X140805215Y-118110000D01*
X140805215Y-118109999D01*
X140786397Y-117906917D01*
X140730582Y-117710750D01*
X140639673Y-117528179D01*
X140516764Y-117365421D01*
X140516762Y-117365418D01*
X140366041Y-117228019D01*
X140366039Y-117228017D01*
X140192642Y-117120655D01*
X140192635Y-117120651D01*
X140097546Y-117083814D01*
X140002456Y-117046976D01*
X139801976Y-117009500D01*
X139598024Y-117009500D01*
X139397544Y-117046976D01*
X139397541Y-117046976D01*
X139397541Y-117046977D01*
X139207364Y-117120651D01*
X139207357Y-117120655D01*
X139033960Y-117228017D01*
X139033958Y-117228019D01*
X138883237Y-117365418D01*
X138760327Y-117528178D01*
X138669422Y-117710739D01*
X138669417Y-117710752D01*
X138613602Y-117906917D01*
X138594785Y-118109999D01*
X138594785Y-118110000D01*
X122500500Y-118110000D01*
X122500500Y-113030006D01*
X138294700Y-113030006D01*
X138313864Y-113261297D01*
X138313866Y-113261308D01*
X138370842Y-113486300D01*
X138464075Y-113698848D01*
X138591016Y-113893147D01*
X138591019Y-113893151D01*
X138591021Y-113893153D01*
X138748216Y-114063913D01*
X138748219Y-114063915D01*
X138748222Y-114063918D01*
X138931365Y-114206464D01*
X138931371Y-114206468D01*
X138931374Y-114206470D01*
X139135497Y-114316936D01*
X139249487Y-114356068D01*
X139355015Y-114392297D01*
X139355017Y-114392297D01*
X139355019Y-114392298D01*
X139583951Y-114430500D01*
X139583952Y-114430500D01*
X139816048Y-114430500D01*
X139816049Y-114430500D01*
X140044981Y-114392298D01*
X140264503Y-114316936D01*
X140468626Y-114206470D01*
X140476951Y-114199991D01*
X140509244Y-114174856D01*
X145919500Y-114174856D01*
X145919502Y-114174882D01*
X145922413Y-114199987D01*
X145922415Y-114199991D01*
X145967793Y-114302764D01*
X145967794Y-114302765D01*
X146047235Y-114382206D01*
X146150009Y-114427585D01*
X146175135Y-114430500D01*
X148464864Y-114430499D01*
X148464879Y-114430497D01*
X148464882Y-114430497D01*
X148489987Y-114427586D01*
X148489988Y-114427585D01*
X148489991Y-114427585D01*
X148592765Y-114382206D01*
X148672206Y-114302765D01*
X148673427Y-114300000D01*
X151294785Y-114300000D01*
X151313602Y-114503082D01*
X151369417Y-114699247D01*
X151369422Y-114699260D01*
X151460327Y-114881821D01*
X151583237Y-115044581D01*
X151733958Y-115181980D01*
X151733960Y-115181982D01*
X151833141Y-115243392D01*
X151907363Y-115289348D01*
X152097544Y-115363024D01*
X152298024Y-115400500D01*
X152298026Y-115400500D01*
X152501974Y-115400500D01*
X152501976Y-115400500D01*
X152702456Y-115363024D01*
X152892637Y-115289348D01*
X153066041Y-115181981D01*
X153216764Y-115044579D01*
X153339673Y-114881821D01*
X153430582Y-114699250D01*
X153486397Y-114503083D01*
X153505215Y-114300000D01*
X153486397Y-114096917D01*
X153430582Y-113900750D01*
X153426799Y-113893153D01*
X153386272Y-113811764D01*
X153339673Y-113718179D01*
X153216764Y-113555421D01*
X153216762Y-113555418D01*
X153066041Y-113418019D01*
X153066039Y-113418017D01*
X152892642Y-113310655D01*
X152892635Y-113310651D01*
X152797546Y-113273814D01*
X152702456Y-113236976D01*
X152501976Y-113199500D01*
X152298024Y-113199500D01*
X152097544Y-113236976D01*
X152097541Y-113236976D01*
X152097541Y-113236977D01*
X151907364Y-113310651D01*
X151907357Y-113310655D01*
X151733960Y-113418017D01*
X151733958Y-113418019D01*
X151583237Y-113555418D01*
X151460327Y-113718178D01*
X151369422Y-113900739D01*
X151369417Y-113900752D01*
X151313602Y-114096917D01*
X151294785Y-114299999D01*
X151294785Y-114300000D01*
X148673427Y-114300000D01*
X148717585Y-114199991D01*
X148720500Y-114174865D01*
X148720499Y-111885136D01*
X148720497Y-111885117D01*
X148717586Y-111860012D01*
X148717585Y-111860010D01*
X148717585Y-111860009D01*
X148672206Y-111757235D01*
X148592765Y-111677794D01*
X148569909Y-111667702D01*
X148489992Y-111632415D01*
X148464865Y-111629500D01*
X146175143Y-111629500D01*
X146175117Y-111629502D01*
X146150012Y-111632413D01*
X146150008Y-111632415D01*
X146047235Y-111677793D01*
X145967794Y-111757234D01*
X145922415Y-111860006D01*
X145922415Y-111860008D01*
X145919500Y-111885131D01*
X145919500Y-114174856D01*
X140509244Y-114174856D01*
X140609380Y-114096917D01*
X140651784Y-114063913D01*
X140808979Y-113893153D01*
X140935924Y-113698849D01*
X141029157Y-113486300D01*
X141086134Y-113261305D01*
X141088150Y-113236976D01*
X141105300Y-113030006D01*
X141105300Y-113029993D01*
X141086135Y-112798702D01*
X141086133Y-112798691D01*
X141029157Y-112573699D01*
X140935924Y-112361151D01*
X140808983Y-112166852D01*
X140808980Y-112166849D01*
X140808979Y-112166847D01*
X140651784Y-111996087D01*
X140651779Y-111996083D01*
X140651777Y-111996081D01*
X140468634Y-111853535D01*
X140468628Y-111853531D01*
X140264504Y-111743064D01*
X140264495Y-111743061D01*
X140044984Y-111667702D01*
X139873282Y-111639050D01*
X139816049Y-111629500D01*
X139583951Y-111629500D01*
X139538164Y-111637140D01*
X139355015Y-111667702D01*
X139135504Y-111743061D01*
X139135495Y-111743064D01*
X138931371Y-111853531D01*
X138931365Y-111853535D01*
X138748222Y-111996081D01*
X138748219Y-111996084D01*
X138591016Y-112166852D01*
X138464075Y-112361151D01*
X138370842Y-112573699D01*
X138313866Y-112798691D01*
X138313864Y-112798702D01*
X138294700Y-113029993D01*
X138294700Y-113030006D01*
X122500500Y-113030006D01*
X122500500Y-110490006D01*
X150994700Y-110490006D01*
X151013864Y-110721297D01*
X151013866Y-110721308D01*
X151070842Y-110946300D01*
X151164075Y-111158848D01*
X151291016Y-111353147D01*
X151291019Y-111353151D01*
X151291021Y-111353153D01*
X151448216Y-111523913D01*
X151448219Y-111523915D01*
X151448222Y-111523918D01*
X151631365Y-111666464D01*
X151631371Y-111666468D01*
X151631374Y-111666470D01*
X151835497Y-111776936D01*
X151949487Y-111816068D01*
X152055015Y-111852297D01*
X152055017Y-111852297D01*
X152055019Y-111852298D01*
X152283951Y-111890500D01*
X152283952Y-111890500D01*
X152516048Y-111890500D01*
X152516049Y-111890500D01*
X152744981Y-111852298D01*
X152964503Y-111776936D01*
X153168626Y-111666470D01*
X153351784Y-111523913D01*
X153508979Y-111353153D01*
X153635924Y-111158849D01*
X153729157Y-110946300D01*
X153786134Y-110721305D01*
X153805300Y-110490000D01*
X153805300Y-110489993D01*
X153786135Y-110258702D01*
X153786133Y-110258691D01*
X153729157Y-110033699D01*
X153635924Y-109821151D01*
X153508983Y-109626852D01*
X153508980Y-109626849D01*
X153508979Y-109626847D01*
X153351784Y-109456087D01*
X153351779Y-109456083D01*
X153351777Y-109456081D01*
X153168634Y-109313535D01*
X153168628Y-109313531D01*
X152964504Y-109203064D01*
X152964495Y-109203061D01*
X152744984Y-109127702D01*
X152573282Y-109099050D01*
X152516049Y-109089500D01*
X152283951Y-109089500D01*
X152238164Y-109097140D01*
X152055015Y-109127702D01*
X151835504Y-109203061D01*
X151835495Y-109203064D01*
X151631371Y-109313531D01*
X151631365Y-109313535D01*
X151448222Y-109456081D01*
X151448219Y-109456084D01*
X151291016Y-109626852D01*
X151164075Y-109821151D01*
X151070842Y-110033699D01*
X151013866Y-110258691D01*
X151013864Y-110258702D01*
X150994700Y-110489993D01*
X150994700Y-110490006D01*
X122500500Y-110490006D01*
X122500500Y-109220000D01*
X136054785Y-109220000D01*
X136073602Y-109423082D01*
X136129417Y-109619247D01*
X136129422Y-109619260D01*
X136220327Y-109801821D01*
X136343237Y-109964581D01*
X136493958Y-110101980D01*
X136493960Y-110101982D01*
X136593141Y-110163392D01*
X136667363Y-110209348D01*
X136857544Y-110283024D01*
X137058024Y-110320500D01*
X137058026Y-110320500D01*
X137261974Y-110320500D01*
X137261976Y-110320500D01*
X137462456Y-110283024D01*
X137652637Y-110209348D01*
X137826041Y-110101981D01*
X137976764Y-109964579D01*
X138099673Y-109801821D01*
X138190582Y-109619250D01*
X138246397Y-109423083D01*
X138265215Y-109220000D01*
X138253619Y-109094856D01*
X139569500Y-109094856D01*
X139569502Y-109094882D01*
X139572413Y-109119987D01*
X139572415Y-109119991D01*
X139617793Y-109222764D01*
X139617794Y-109222765D01*
X139697235Y-109302206D01*
X139800009Y-109347585D01*
X139825135Y-109350500D01*
X142114864Y-109350499D01*
X142114879Y-109350497D01*
X142114882Y-109350497D01*
X142139987Y-109347586D01*
X142139988Y-109347585D01*
X142139991Y-109347585D01*
X142242765Y-109302206D01*
X142322206Y-109222765D01*
X142367585Y-109119991D01*
X142370500Y-109094865D01*
X142370500Y-107950006D01*
X147184700Y-107950006D01*
X147203864Y-108181297D01*
X147203866Y-108181308D01*
X147260842Y-108406300D01*
X147354075Y-108618848D01*
X147481016Y-108813147D01*
X147481019Y-108813151D01*
X147481021Y-108813153D01*
X147638216Y-108983913D01*
X147638219Y-108983915D01*
X147638222Y-108983918D01*
X147821365Y-109126464D01*
X147821371Y-109126468D01*
X147821374Y-109126470D01*
X148025497Y-109236936D01*
X148139487Y-109276068D01*
X148245015Y-109312297D01*
X148245017Y-109312297D01*
X148245019Y-109312298D01*
X148473951Y-109350500D01*
X148473952Y-109350500D01*
X148706048Y-109350500D01*
X148706049Y-109350500D01*
X148934981Y-109312298D01*
X149154503Y-109236936D01*
X149358626Y-109126470D01*
X149366951Y-109119991D01*
X149499380Y-109016917D01*
X149541784Y-108983913D01*
X149698979Y-108813153D01*
X149825924Y-108618849D01*
X149919157Y-108406300D01*
X149976134Y-108181305D01*
X149978150Y-108156976D01*
X149995300Y-107950006D01*
X149995300Y-107949993D01*
X149976135Y-107718702D01*
X149976133Y-107718691D01*
X149919157Y-107493699D01*
X149825924Y-107281151D01*
X149698983Y-107086852D01*
X149698980Y-107086849D01*
X149698979Y-107086847D01*
X149541784Y-106916087D01*
X149541779Y-106916083D01*
X149541777Y-106916081D01*
X149358634Y-106773535D01*
X149358628Y-106773531D01*
X149154504Y-106663064D01*
X149154495Y-106663061D01*
X148934984Y-106587702D01*
X148763282Y-106559050D01*
X148706049Y-106549500D01*
X148473951Y-106549500D01*
X148428164Y-106557140D01*
X148245015Y-106587702D01*
X148025504Y-106663061D01*
X148025495Y-106663064D01*
X147821371Y-106773531D01*
X147821365Y-106773535D01*
X147638222Y-106916081D01*
X147638219Y-106916084D01*
X147481016Y-107086852D01*
X147354075Y-107281151D01*
X147260842Y-107493699D01*
X147203866Y-107718691D01*
X147203864Y-107718702D01*
X147184700Y-107949993D01*
X147184700Y-107950006D01*
X142370500Y-107950006D01*
X142370499Y-106805136D01*
X142370497Y-106805117D01*
X142367586Y-106780012D01*
X142367585Y-106780010D01*
X142367585Y-106780009D01*
X142322206Y-106677235D01*
X142242765Y-106597794D01*
X142219909Y-106587702D01*
X142139992Y-106552415D01*
X142114865Y-106549500D01*
X139825143Y-106549500D01*
X139825117Y-106549502D01*
X139800012Y-106552413D01*
X139800008Y-106552415D01*
X139697235Y-106597793D01*
X139617794Y-106677234D01*
X139572415Y-106780006D01*
X139572415Y-106780008D01*
X139569500Y-106805131D01*
X139569500Y-109094856D01*
X138253619Y-109094856D01*
X138246397Y-109016917D01*
X138190582Y-108820750D01*
X138186799Y-108813153D01*
X138146272Y-108731764D01*
X138099673Y-108638179D01*
X137976764Y-108475421D01*
X137976762Y-108475418D01*
X137826041Y-108338019D01*
X137826039Y-108338017D01*
X137652642Y-108230655D01*
X137652635Y-108230651D01*
X137557546Y-108193814D01*
X137462456Y-108156976D01*
X137261976Y-108119500D01*
X137058024Y-108119500D01*
X136857544Y-108156976D01*
X136857541Y-108156976D01*
X136857541Y-108156977D01*
X136667364Y-108230651D01*
X136667357Y-108230655D01*
X136493960Y-108338017D01*
X136493958Y-108338019D01*
X136343237Y-108475418D01*
X136220327Y-108638178D01*
X136129422Y-108820739D01*
X136129417Y-108820752D01*
X136073602Y-109016917D01*
X136054785Y-109219999D01*
X136054785Y-109220000D01*
X122500500Y-109220000D01*
X122500500Y-104014856D01*
X139569500Y-104014856D01*
X139569502Y-104014882D01*
X139572413Y-104039987D01*
X139572415Y-104039991D01*
X139617793Y-104142764D01*
X139617794Y-104142765D01*
X139697235Y-104222206D01*
X139800009Y-104267585D01*
X139825135Y-104270500D01*
X142114864Y-104270499D01*
X142114879Y-104270497D01*
X142114882Y-104270497D01*
X142139987Y-104267586D01*
X142139988Y-104267585D01*
X142139991Y-104267585D01*
X142242765Y-104222206D01*
X142322206Y-104142765D01*
X142367585Y-104039991D01*
X142370500Y-104014865D01*
X142370500Y-102870006D01*
X147184700Y-102870006D01*
X147203864Y-103101297D01*
X147203866Y-103101308D01*
X147260842Y-103326300D01*
X147354075Y-103538848D01*
X147481016Y-103733147D01*
X147481019Y-103733151D01*
X147481021Y-103733153D01*
X147638216Y-103903913D01*
X147638219Y-103903915D01*
X147638222Y-103903918D01*
X147821365Y-104046464D01*
X147821371Y-104046468D01*
X147821374Y-104046470D01*
X148025497Y-104156936D01*
X148139487Y-104196068D01*
X148245015Y-104232297D01*
X148245017Y-104232297D01*
X148245019Y-104232298D01*
X148473951Y-104270500D01*
X148473952Y-104270500D01*
X148706048Y-104270500D01*
X148706049Y-104270500D01*
X148934981Y-104232298D01*
X149154503Y-104156936D01*
X149358626Y-104046470D01*
X149366951Y-104039991D01*
X149399244Y-104014856D01*
X150999500Y-104014856D01*
X150999502Y-104014882D01*
X151002413Y-104039987D01*
X151002415Y-104039991D01*
X151047793Y-104142764D01*
X151047794Y-104142765D01*
X151127235Y-104222206D01*
X151230009Y-104267585D01*
X151255135Y-104270500D01*
X153544864Y-104270499D01*
X153544879Y-104270497D01*
X153544882Y-104270497D01*
X153569987Y-104267586D01*
X153569988Y-104267585D01*
X153569991Y-104267585D01*
X153672765Y-104222206D01*
X153752206Y-104142765D01*
X153797585Y-104039991D01*
X153800500Y-104014865D01*
X153800499Y-101725136D01*
X153800497Y-101725117D01*
X153797586Y-101700012D01*
X153797585Y-101700010D01*
X153797585Y-101700009D01*
X153752206Y-101597235D01*
X153672765Y-101517794D01*
X153649909Y-101507702D01*
X153569992Y-101472415D01*
X153544865Y-101469500D01*
X151255143Y-101469500D01*
X151255117Y-101469502D01*
X151230012Y-101472413D01*
X151230008Y-101472415D01*
X151127235Y-101517793D01*
X151047794Y-101597234D01*
X151002415Y-101700006D01*
X151002415Y-101700008D01*
X150999500Y-101725131D01*
X150999500Y-104014856D01*
X149399244Y-104014856D01*
X149420129Y-103998600D01*
X149541784Y-103903913D01*
X149698979Y-103733153D01*
X149825924Y-103538849D01*
X149919157Y-103326300D01*
X149976134Y-103101305D01*
X149992403Y-102904966D01*
X149995300Y-102870006D01*
X149995300Y-102869993D01*
X149976135Y-102638702D01*
X149976133Y-102638691D01*
X149919157Y-102413699D01*
X149825924Y-102201151D01*
X149698983Y-102006852D01*
X149698980Y-102006849D01*
X149698979Y-102006847D01*
X149541784Y-101836087D01*
X149541779Y-101836083D01*
X149541777Y-101836081D01*
X149358634Y-101693535D01*
X149358628Y-101693531D01*
X149154504Y-101583064D01*
X149154495Y-101583061D01*
X148934984Y-101507702D01*
X148763282Y-101479050D01*
X148706049Y-101469500D01*
X148473951Y-101469500D01*
X148428164Y-101477140D01*
X148245015Y-101507702D01*
X148025504Y-101583061D01*
X148025495Y-101583064D01*
X147821371Y-101693531D01*
X147821365Y-101693535D01*
X147638222Y-101836081D01*
X147638219Y-101836084D01*
X147481016Y-102006852D01*
X147354075Y-102201151D01*
X147260842Y-102413699D01*
X147203866Y-102638691D01*
X147203864Y-102638702D01*
X147184700Y-102869993D01*
X147184700Y-102870006D01*
X142370500Y-102870006D01*
X142370499Y-101725136D01*
X142370497Y-101725117D01*
X142367586Y-101700012D01*
X142367585Y-101700010D01*
X142367585Y-101700009D01*
X142322206Y-101597235D01*
X142242765Y-101517794D01*
X142219909Y-101507702D01*
X142139992Y-101472415D01*
X142114865Y-101469500D01*
X139825143Y-101469500D01*
X139825117Y-101469502D01*
X139800012Y-101472413D01*
X139800008Y-101472415D01*
X139697235Y-101517793D01*
X139617794Y-101597234D01*
X139572415Y-101700006D01*
X139572415Y-101700008D01*
X139569500Y-101725131D01*
X139569500Y-104014856D01*
X122500500Y-104014856D01*
X122500500Y-101600002D01*
X135855034Y-101600002D01*
X135874858Y-101826599D01*
X135874860Y-101826610D01*
X135933730Y-102046317D01*
X135933735Y-102046331D01*
X136029863Y-102252478D01*
X136080974Y-102325472D01*
X136760000Y-101646446D01*
X136760000Y-101652661D01*
X136787259Y-101754394D01*
X136839920Y-101845606D01*
X136914394Y-101920080D01*
X137005606Y-101972741D01*
X137107339Y-102000000D01*
X137113553Y-102000000D01*
X136434526Y-102679025D01*
X136507513Y-102730132D01*
X136507521Y-102730136D01*
X136713668Y-102826264D01*
X136713682Y-102826269D01*
X136933389Y-102885139D01*
X136933400Y-102885141D01*
X137159998Y-102904966D01*
X137160002Y-102904966D01*
X137386599Y-102885141D01*
X137386610Y-102885139D01*
X137606317Y-102826269D01*
X137606331Y-102826264D01*
X137812478Y-102730136D01*
X137885471Y-102679024D01*
X137206447Y-102000000D01*
X137212661Y-102000000D01*
X137314394Y-101972741D01*
X137405606Y-101920080D01*
X137480080Y-101845606D01*
X137532741Y-101754394D01*
X137560000Y-101652661D01*
X137560000Y-101646447D01*
X138239024Y-102325471D01*
X138290136Y-102252478D01*
X138386264Y-102046331D01*
X138386269Y-102046317D01*
X138445139Y-101826610D01*
X138445141Y-101826599D01*
X138464966Y-101600002D01*
X138464966Y-101599997D01*
X138445141Y-101373400D01*
X138445139Y-101373389D01*
X138386269Y-101153682D01*
X138386264Y-101153668D01*
X138290136Y-100947521D01*
X138290132Y-100947513D01*
X138239025Y-100874526D01*
X137560000Y-101553551D01*
X137560000Y-101547339D01*
X137532741Y-101445606D01*
X137480080Y-101354394D01*
X137405606Y-101279920D01*
X137314394Y-101227259D01*
X137212661Y-101200000D01*
X137206448Y-101200000D01*
X137885472Y-100520974D01*
X137812478Y-100469863D01*
X137606331Y-100373735D01*
X137606317Y-100373730D01*
X137386610Y-100314860D01*
X137386599Y-100314858D01*
X137160002Y-100295034D01*
X137159998Y-100295034D01*
X136933400Y-100314858D01*
X136933389Y-100314860D01*
X136713682Y-100373730D01*
X136713673Y-100373734D01*
X136507516Y-100469866D01*
X136507512Y-100469868D01*
X136434526Y-100520973D01*
X136434526Y-100520974D01*
X137113553Y-101200000D01*
X137107339Y-101200000D01*
X137005606Y-101227259D01*
X136914394Y-101279920D01*
X136839920Y-101354394D01*
X136787259Y-101445606D01*
X136760000Y-101547339D01*
X136760000Y-101553552D01*
X136080974Y-100874526D01*
X136080973Y-100874526D01*
X136029868Y-100947512D01*
X136029866Y-100947516D01*
X135933734Y-101153673D01*
X135933730Y-101153682D01*
X135874860Y-101373389D01*
X135874858Y-101373400D01*
X135855034Y-101599997D01*
X135855034Y-101600002D01*
X122500500Y-101600002D01*
X122500500Y-100204856D01*
X150999500Y-100204856D01*
X150999502Y-100204882D01*
X151002413Y-100229987D01*
X151002415Y-100229991D01*
X151047793Y-100332764D01*
X151047794Y-100332765D01*
X151127235Y-100412206D01*
X151230009Y-100457585D01*
X151255135Y-100460500D01*
X153544864Y-100460499D01*
X153544879Y-100460497D01*
X153544882Y-100460497D01*
X153569987Y-100457586D01*
X153569988Y-100457585D01*
X153569991Y-100457585D01*
X153672765Y-100412206D01*
X153752206Y-100332765D01*
X153797585Y-100229991D01*
X153800500Y-100204865D01*
X153800499Y-97915136D01*
X153800497Y-97915117D01*
X153797586Y-97890012D01*
X153797585Y-97890010D01*
X153797585Y-97890009D01*
X153752206Y-97787235D01*
X153672765Y-97707794D01*
X153672763Y-97707793D01*
X153569992Y-97662415D01*
X153544865Y-97659500D01*
X151255143Y-97659500D01*
X151255117Y-97659502D01*
X151230012Y-97662413D01*
X151230008Y-97662415D01*
X151127235Y-97707793D01*
X151047794Y-97787234D01*
X151002415Y-97890006D01*
X151002415Y-97890008D01*
X150999500Y-97915131D01*
X150999500Y-100204856D01*
X122500500Y-100204856D01*
X122500500Y-97790002D01*
X138395034Y-97790002D01*
X138414858Y-98016599D01*
X138414860Y-98016610D01*
X138473730Y-98236317D01*
X138473735Y-98236331D01*
X138569863Y-98442478D01*
X138620974Y-98515472D01*
X139300000Y-97836446D01*
X139300000Y-97842661D01*
X139327259Y-97944394D01*
X139379920Y-98035606D01*
X139454394Y-98110080D01*
X139545606Y-98162741D01*
X139647339Y-98190000D01*
X139653553Y-98190000D01*
X138974526Y-98869025D01*
X139047513Y-98920132D01*
X139047521Y-98920136D01*
X139253668Y-99016264D01*
X139253682Y-99016269D01*
X139473389Y-99075139D01*
X139473400Y-99075141D01*
X139699998Y-99094966D01*
X139700002Y-99094966D01*
X139926599Y-99075141D01*
X139926610Y-99075139D01*
X140146317Y-99016269D01*
X140146331Y-99016264D01*
X140352478Y-98920136D01*
X140425471Y-98869024D01*
X139746447Y-98190000D01*
X139752661Y-98190000D01*
X139854394Y-98162741D01*
X139945606Y-98110080D01*
X140020080Y-98035606D01*
X140072741Y-97944394D01*
X140100000Y-97842661D01*
X140100000Y-97836447D01*
X140779024Y-98515471D01*
X140830136Y-98442478D01*
X140926264Y-98236331D01*
X140926269Y-98236317D01*
X140985139Y-98016610D01*
X140985141Y-98016599D01*
X141004966Y-97790002D01*
X141004966Y-97790000D01*
X146214785Y-97790000D01*
X146233602Y-97993082D01*
X146289417Y-98189247D01*
X146289422Y-98189260D01*
X146380327Y-98371821D01*
X146503237Y-98534581D01*
X146653958Y-98671980D01*
X146653960Y-98671982D01*
X146753141Y-98733392D01*
X146827363Y-98779348D01*
X147017544Y-98853024D01*
X147218024Y-98890500D01*
X147218026Y-98890500D01*
X147421974Y-98890500D01*
X147421976Y-98890500D01*
X147622456Y-98853024D01*
X147812637Y-98779348D01*
X147986041Y-98671981D01*
X148136764Y-98534579D01*
X148259673Y-98371821D01*
X148350582Y-98189250D01*
X148406397Y-97993083D01*
X148425215Y-97790000D01*
X148406397Y-97586917D01*
X148350582Y-97390750D01*
X148259673Y-97208179D01*
X148200704Y-97130091D01*
X148136762Y-97045418D01*
X147986041Y-96908019D01*
X147986039Y-96908017D01*
X147812642Y-96800655D01*
X147812635Y-96800651D01*
X147717546Y-96763814D01*
X147622456Y-96726976D01*
X147421976Y-96689500D01*
X147218024Y-96689500D01*
X147017544Y-96726976D01*
X147017541Y-96726976D01*
X147017541Y-96726977D01*
X146827364Y-96800651D01*
X146827357Y-96800655D01*
X146653960Y-96908017D01*
X146653958Y-96908019D01*
X146503237Y-97045418D01*
X146380327Y-97208178D01*
X146289422Y-97390739D01*
X146289417Y-97390752D01*
X146233602Y-97586917D01*
X146214785Y-97789999D01*
X146214785Y-97790000D01*
X141004966Y-97790000D01*
X141004966Y-97789997D01*
X140985141Y-97563400D01*
X140985139Y-97563389D01*
X140926269Y-97343682D01*
X140926264Y-97343668D01*
X140830136Y-97137521D01*
X140830132Y-97137513D01*
X140779025Y-97064526D01*
X140100000Y-97743551D01*
X140100000Y-97737339D01*
X140072741Y-97635606D01*
X140020080Y-97544394D01*
X139945606Y-97469920D01*
X139854394Y-97417259D01*
X139752661Y-97390000D01*
X139746448Y-97390000D01*
X140425472Y-96710974D01*
X140352478Y-96659863D01*
X140146331Y-96563735D01*
X140146317Y-96563730D01*
X139926610Y-96504860D01*
X139926599Y-96504858D01*
X139700002Y-96485034D01*
X139699998Y-96485034D01*
X139473400Y-96504858D01*
X139473389Y-96504860D01*
X139253682Y-96563730D01*
X139253673Y-96563734D01*
X139047516Y-96659866D01*
X139047512Y-96659868D01*
X138974526Y-96710973D01*
X138974526Y-96710974D01*
X139653553Y-97390000D01*
X139647339Y-97390000D01*
X139545606Y-97417259D01*
X139454394Y-97469920D01*
X139379920Y-97544394D01*
X139327259Y-97635606D01*
X139300000Y-97737339D01*
X139300000Y-97743552D01*
X138620974Y-97064526D01*
X138620973Y-97064526D01*
X138569868Y-97137512D01*
X138569866Y-97137516D01*
X138473734Y-97343673D01*
X138473730Y-97343682D01*
X138414860Y-97563389D01*
X138414858Y-97563400D01*
X138395034Y-97789997D01*
X138395034Y-97790002D01*
X122500500Y-97790002D01*
X122500500Y-93980000D01*
X138594785Y-93980000D01*
X138613602Y-94183082D01*
X138669417Y-94379247D01*
X138669422Y-94379260D01*
X138760327Y-94561821D01*
X138883237Y-94724581D01*
X139033958Y-94861980D01*
X139033960Y-94861982D01*
X139133141Y-94923392D01*
X139207363Y-94969348D01*
X139397544Y-95043024D01*
X139598024Y-95080500D01*
X139598026Y-95080500D01*
X139801974Y-95080500D01*
X139801976Y-95080500D01*
X140002456Y-95043024D01*
X140192637Y-94969348D01*
X140366041Y-94861981D01*
X140516764Y-94724579D01*
X140639673Y-94561821D01*
X140730582Y-94379250D01*
X140786397Y-94183083D01*
X140805215Y-93980002D01*
X146015034Y-93980002D01*
X146034858Y-94206599D01*
X146034860Y-94206610D01*
X146093730Y-94426317D01*
X146093735Y-94426331D01*
X146189863Y-94632478D01*
X146240974Y-94705472D01*
X146920000Y-94026446D01*
X146920000Y-94032661D01*
X146947259Y-94134394D01*
X146999920Y-94225606D01*
X147074394Y-94300080D01*
X147165606Y-94352741D01*
X147267339Y-94380000D01*
X147273553Y-94380000D01*
X146594526Y-95059025D01*
X146667513Y-95110132D01*
X146667521Y-95110136D01*
X146873668Y-95206264D01*
X146873682Y-95206269D01*
X147093389Y-95265139D01*
X147093400Y-95265141D01*
X147319998Y-95284966D01*
X147320002Y-95284966D01*
X147546599Y-95265141D01*
X147546610Y-95265139D01*
X147766317Y-95206269D01*
X147766331Y-95206264D01*
X147972478Y-95110136D01*
X148045471Y-95059024D01*
X147366447Y-94380000D01*
X147372661Y-94380000D01*
X147474394Y-94352741D01*
X147565606Y-94300080D01*
X147640080Y-94225606D01*
X147692741Y-94134394D01*
X147720000Y-94032661D01*
X147720000Y-94026447D01*
X148399024Y-94705471D01*
X148450136Y-94632478D01*
X148546264Y-94426331D01*
X148546269Y-94426317D01*
X148605139Y-94206610D01*
X148605141Y-94206599D01*
X148624966Y-93980002D01*
X148624966Y-93979997D01*
X148605141Y-93753400D01*
X148605139Y-93753389D01*
X148546269Y-93533682D01*
X148546264Y-93533668D01*
X148450136Y-93327521D01*
X148450132Y-93327513D01*
X148399025Y-93254526D01*
X147720000Y-93933551D01*
X147720000Y-93927339D01*
X147692741Y-93825606D01*
X147640080Y-93734394D01*
X147565606Y-93659920D01*
X147474394Y-93607259D01*
X147372661Y-93580000D01*
X147366448Y-93580000D01*
X148045472Y-92900974D01*
X147972478Y-92849863D01*
X147766331Y-92753735D01*
X147766317Y-92753730D01*
X147546610Y-92694860D01*
X147546599Y-92694858D01*
X147320002Y-92675034D01*
X147319998Y-92675034D01*
X147093400Y-92694858D01*
X147093389Y-92694860D01*
X146873682Y-92753730D01*
X146873673Y-92753734D01*
X146667516Y-92849866D01*
X146667512Y-92849868D01*
X146594526Y-92900973D01*
X146594526Y-92900974D01*
X147273553Y-93580000D01*
X147267339Y-93580000D01*
X147165606Y-93607259D01*
X147074394Y-93659920D01*
X146999920Y-93734394D01*
X146947259Y-93825606D01*
X146920000Y-93927339D01*
X146920000Y-93933552D01*
X146240974Y-93254526D01*
X146240973Y-93254526D01*
X146189868Y-93327512D01*
X146189866Y-93327516D01*
X146093734Y-93533673D01*
X146093730Y-93533682D01*
X146034860Y-93753389D01*
X146034858Y-93753400D01*
X146015034Y-93979997D01*
X146015034Y-93980002D01*
X140805215Y-93980002D01*
X140805215Y-93980000D01*
X140786397Y-93776917D01*
X140730582Y-93580750D01*
X140639673Y-93398179D01*
X140580704Y-93320091D01*
X140516762Y-93235418D01*
X140366041Y-93098019D01*
X140366039Y-93098017D01*
X140192642Y-92990655D01*
X140192635Y-92990651D01*
X140097546Y-92953814D01*
X140002456Y-92916976D01*
X139801976Y-92879500D01*
X139598024Y-92879500D01*
X139397544Y-92916976D01*
X139397541Y-92916976D01*
X139397541Y-92916977D01*
X139207364Y-92990651D01*
X139207357Y-92990655D01*
X139033960Y-93098017D01*
X139033958Y-93098019D01*
X138883237Y-93235418D01*
X138760327Y-93398178D01*
X138669422Y-93580739D01*
X138669417Y-93580752D01*
X138613602Y-93776917D01*
X138594785Y-93979999D01*
X138594785Y-93980000D01*
X122500500Y-93980000D01*
X122500500Y-91440006D01*
X150994700Y-91440006D01*
X151013864Y-91671297D01*
X151013866Y-91671308D01*
X151070842Y-91896300D01*
X151164075Y-92108848D01*
X151291016Y-92303147D01*
X151291019Y-92303151D01*
X151291021Y-92303153D01*
X151448216Y-92473913D01*
X151448219Y-92473915D01*
X151448222Y-92473918D01*
X151631365Y-92616464D01*
X151631371Y-92616468D01*
X151631374Y-92616470D01*
X151835497Y-92726936D01*
X151913557Y-92753734D01*
X152055015Y-92802297D01*
X152055017Y-92802297D01*
X152055019Y-92802298D01*
X152283951Y-92840500D01*
X152283952Y-92840500D01*
X152516048Y-92840500D01*
X152516049Y-92840500D01*
X152744981Y-92802298D01*
X152964503Y-92726936D01*
X153168626Y-92616470D01*
X153351784Y-92473913D01*
X153508979Y-92303153D01*
X153635924Y-92108849D01*
X153729157Y-91896300D01*
X153786134Y-91671305D01*
X153805300Y-91440000D01*
X153805300Y-91439993D01*
X153786135Y-91208702D01*
X153786133Y-91208691D01*
X153729157Y-90983699D01*
X153635924Y-90771151D01*
X153508983Y-90576852D01*
X153508980Y-90576849D01*
X153508979Y-90576847D01*
X153351784Y-90406087D01*
X153351779Y-90406083D01*
X153351777Y-90406081D01*
X153168634Y-90263535D01*
X153168628Y-90263531D01*
X152964504Y-90153064D01*
X152964495Y-90153061D01*
X152744984Y-90077702D01*
X152573282Y-90049050D01*
X152516049Y-90039500D01*
X152283951Y-90039500D01*
X152238164Y-90047140D01*
X152055015Y-90077702D01*
X151835504Y-90153061D01*
X151835495Y-90153064D01*
X151631371Y-90263531D01*
X151631365Y-90263535D01*
X151448222Y-90406081D01*
X151448219Y-90406084D01*
X151291016Y-90576852D01*
X151164075Y-90771151D01*
X151070842Y-90983699D01*
X151013866Y-91208691D01*
X151013864Y-91208702D01*
X150994700Y-91439993D01*
X150994700Y-91440006D01*
X122500500Y-91440006D01*
X122500500Y-91014856D01*
X138599500Y-91014856D01*
X138599502Y-91014882D01*
X138602413Y-91039987D01*
X138602415Y-91039991D01*
X138647793Y-91142764D01*
X138647794Y-91142765D01*
X138727235Y-91222206D01*
X138830009Y-91267585D01*
X138855135Y-91270500D01*
X140544864Y-91270499D01*
X140544879Y-91270497D01*
X140544882Y-91270497D01*
X140569987Y-91267586D01*
X140569988Y-91267585D01*
X140569991Y-91267585D01*
X140672765Y-91222206D01*
X140752206Y-91142765D01*
X140797585Y-91039991D01*
X140800500Y-91014865D01*
X140800499Y-90170000D01*
X146214785Y-90170000D01*
X146233602Y-90373082D01*
X146289417Y-90569247D01*
X146289422Y-90569260D01*
X146380327Y-90751821D01*
X146503237Y-90914581D01*
X146653958Y-91051980D01*
X146653960Y-91051982D01*
X146753141Y-91113392D01*
X146827363Y-91159348D01*
X147017544Y-91233024D01*
X147218024Y-91270500D01*
X147218026Y-91270500D01*
X147421974Y-91270500D01*
X147421976Y-91270500D01*
X147622456Y-91233024D01*
X147812637Y-91159348D01*
X147986041Y-91051981D01*
X148136764Y-90914579D01*
X148259673Y-90751821D01*
X148350582Y-90569250D01*
X148406397Y-90373083D01*
X148425215Y-90170000D01*
X148406397Y-89966917D01*
X148350582Y-89770750D01*
X148259673Y-89588179D01*
X148136764Y-89425421D01*
X148136762Y-89425418D01*
X147986041Y-89288019D01*
X147986039Y-89288017D01*
X147812642Y-89180655D01*
X147812635Y-89180651D01*
X147717546Y-89143814D01*
X147622456Y-89106976D01*
X147421976Y-89069500D01*
X147218024Y-89069500D01*
X147017544Y-89106976D01*
X147017541Y-89106976D01*
X147017541Y-89106977D01*
X146827364Y-89180651D01*
X146827357Y-89180655D01*
X146653960Y-89288017D01*
X146653958Y-89288019D01*
X146503237Y-89425418D01*
X146380327Y-89588178D01*
X146289422Y-89770739D01*
X146289417Y-89770752D01*
X146233602Y-89966917D01*
X146214785Y-90169999D01*
X146214785Y-90170000D01*
X140800499Y-90170000D01*
X140800499Y-89325136D01*
X140800497Y-89325117D01*
X140797586Y-89300012D01*
X140797585Y-89300010D01*
X140797585Y-89300009D01*
X140752206Y-89197235D01*
X140672765Y-89117794D01*
X140648267Y-89106977D01*
X140569992Y-89072415D01*
X140544865Y-89069500D01*
X138855143Y-89069500D01*
X138855117Y-89069502D01*
X138830012Y-89072413D01*
X138830008Y-89072415D01*
X138727235Y-89117793D01*
X138647794Y-89197234D01*
X138602415Y-89300006D01*
X138602415Y-89300008D01*
X138599500Y-89325131D01*
X138599500Y-91014856D01*
X122500500Y-91014856D01*
X122500500Y-87630006D01*
X149724700Y-87630006D01*
X149743864Y-87861297D01*
X149743866Y-87861308D01*
X149800842Y-88086300D01*
X149894075Y-88298848D01*
X150021016Y-88493147D01*
X150021019Y-88493151D01*
X150021021Y-88493153D01*
X150178216Y-88663913D01*
X150178219Y-88663915D01*
X150178222Y-88663918D01*
X150361365Y-88806464D01*
X150361371Y-88806468D01*
X150361374Y-88806470D01*
X150565497Y-88916936D01*
X150679487Y-88956068D01*
X150785015Y-88992297D01*
X150785017Y-88992297D01*
X150785019Y-88992298D01*
X151013951Y-89030500D01*
X151013952Y-89030500D01*
X151246048Y-89030500D01*
X151246049Y-89030500D01*
X151474981Y-88992298D01*
X151694503Y-88916936D01*
X151898626Y-88806470D01*
X152081784Y-88663913D01*
X152238979Y-88493153D01*
X152365924Y-88298849D01*
X152459157Y-88086300D01*
X152516134Y-87861305D01*
X152516135Y-87861297D01*
X152535300Y-87630006D01*
X152535300Y-87630000D01*
X153834785Y-87630000D01*
X153853602Y-87833082D01*
X153909417Y-88029247D01*
X153909422Y-88029260D01*
X154000327Y-88211821D01*
X154123237Y-88374581D01*
X154273958Y-88511980D01*
X154273960Y-88511982D01*
X154373141Y-88573392D01*
X154447363Y-88619348D01*
X154637544Y-88693024D01*
X154838024Y-88730500D01*
X154838026Y-88730500D01*
X155041974Y-88730500D01*
X155041976Y-88730500D01*
X155242456Y-88693024D01*
X155432637Y-88619348D01*
X155606041Y-88511981D01*
X155756764Y-88374579D01*
X155879673Y-88211821D01*
X155970582Y-88029250D01*
X156026397Y-87833083D01*
X156045215Y-87630000D01*
X156026397Y-87426917D01*
X155970582Y-87230750D01*
X155879673Y-87048179D01*
X155756764Y-86885421D01*
X155756762Y-86885418D01*
X155606041Y-86748019D01*
X155606039Y-86748017D01*
X155432642Y-86640655D01*
X155432635Y-86640651D01*
X155317585Y-86596081D01*
X155242456Y-86566976D01*
X155041976Y-86529500D01*
X154838024Y-86529500D01*
X154637544Y-86566976D01*
X154637541Y-86566976D01*
X154637541Y-86566977D01*
X154447364Y-86640651D01*
X154447357Y-86640655D01*
X154273960Y-86748017D01*
X154273958Y-86748019D01*
X154123237Y-86885418D01*
X154000327Y-87048178D01*
X153909422Y-87230739D01*
X153909417Y-87230752D01*
X153853602Y-87426917D01*
X153834785Y-87629999D01*
X153834785Y-87630000D01*
X152535300Y-87630000D01*
X152535300Y-87629993D01*
X152516135Y-87398702D01*
X152516133Y-87398691D01*
X152459157Y-87173699D01*
X152365924Y-86961151D01*
X152238983Y-86766852D01*
X152238980Y-86766849D01*
X152238979Y-86766847D01*
X152081784Y-86596087D01*
X152081779Y-86596083D01*
X152081777Y-86596081D01*
X151898634Y-86453535D01*
X151898628Y-86453531D01*
X151694504Y-86343064D01*
X151694495Y-86343061D01*
X151474984Y-86267702D01*
X151303282Y-86239050D01*
X151246049Y-86229500D01*
X151013951Y-86229500D01*
X150968164Y-86237140D01*
X150785015Y-86267702D01*
X150565504Y-86343061D01*
X150565495Y-86343064D01*
X150361371Y-86453531D01*
X150361365Y-86453535D01*
X150178222Y-86596081D01*
X150178219Y-86596084D01*
X150178216Y-86596086D01*
X150178216Y-86596087D01*
X150119267Y-86660122D01*
X150021016Y-86766852D01*
X149894075Y-86961151D01*
X149800842Y-87173699D01*
X149743866Y-87398691D01*
X149743864Y-87398702D01*
X149724700Y-87629993D01*
X149724700Y-87630006D01*
X122500500Y-87630006D01*
X122500500Y-85090000D01*
X138594785Y-85090000D01*
X138613602Y-85293082D01*
X138669417Y-85489247D01*
X138669422Y-85489260D01*
X138760327Y-85671821D01*
X138883237Y-85834581D01*
X139033958Y-85971980D01*
X139033960Y-85971982D01*
X139133141Y-86033392D01*
X139207363Y-86079348D01*
X139397544Y-86153024D01*
X139598024Y-86190500D01*
X139598026Y-86190500D01*
X139801974Y-86190500D01*
X139801976Y-86190500D01*
X140002456Y-86153024D01*
X140192637Y-86079348D01*
X140366041Y-85971981D01*
X140516764Y-85834579D01*
X140639673Y-85671821D01*
X140730582Y-85489250D01*
X140786397Y-85293083D01*
X140805215Y-85090000D01*
X146214785Y-85090000D01*
X146233602Y-85293082D01*
X146289417Y-85489247D01*
X146289422Y-85489260D01*
X146380327Y-85671821D01*
X146503237Y-85834581D01*
X146653958Y-85971980D01*
X146653960Y-85971982D01*
X146753141Y-86033392D01*
X146827363Y-86079348D01*
X147017544Y-86153024D01*
X147218024Y-86190500D01*
X147218026Y-86190500D01*
X147421974Y-86190500D01*
X147421976Y-86190500D01*
X147622456Y-86153024D01*
X147812637Y-86079348D01*
X147986041Y-85971981D01*
X148136764Y-85834579D01*
X148259673Y-85671821D01*
X148350582Y-85489250D01*
X148406397Y-85293083D01*
X148425215Y-85090000D01*
X148406397Y-84886917D01*
X148350582Y-84690750D01*
X148259673Y-84508179D01*
X148136764Y-84345421D01*
X148136762Y-84345418D01*
X147986041Y-84208019D01*
X147986039Y-84208017D01*
X147812642Y-84100655D01*
X147812635Y-84100651D01*
X147717546Y-84063814D01*
X147622456Y-84026976D01*
X147421976Y-83989500D01*
X147218024Y-83989500D01*
X147017544Y-84026976D01*
X147017541Y-84026976D01*
X147017541Y-84026977D01*
X146827364Y-84100651D01*
X146827357Y-84100655D01*
X146653960Y-84208017D01*
X146653958Y-84208019D01*
X146503237Y-84345418D01*
X146380327Y-84508178D01*
X146289422Y-84690739D01*
X146289417Y-84690752D01*
X146233602Y-84886917D01*
X146214785Y-85089999D01*
X146214785Y-85090000D01*
X140805215Y-85090000D01*
X140786397Y-84886917D01*
X140730582Y-84690750D01*
X140639673Y-84508179D01*
X140516764Y-84345421D01*
X140516762Y-84345418D01*
X140366041Y-84208019D01*
X140366039Y-84208017D01*
X140192642Y-84100655D01*
X140192635Y-84100651D01*
X140097546Y-84063814D01*
X140002456Y-84026976D01*
X139801976Y-83989500D01*
X139598024Y-83989500D01*
X139397544Y-84026976D01*
X139397541Y-84026976D01*
X139397541Y-84026977D01*
X139207364Y-84100651D01*
X139207357Y-84100655D01*
X139033960Y-84208017D01*
X139033958Y-84208019D01*
X138883237Y-84345418D01*
X138760327Y-84508178D01*
X138669422Y-84690739D01*
X138669417Y-84690752D01*
X138613602Y-84886917D01*
X138594785Y-85089999D01*
X138594785Y-85090000D01*
X122500500Y-85090000D01*
X122500500Y-81154856D01*
X149729500Y-81154856D01*
X149729502Y-81154882D01*
X149732413Y-81179987D01*
X149732415Y-81179991D01*
X149777793Y-81282764D01*
X149777794Y-81282765D01*
X149857235Y-81362206D01*
X149960009Y-81407585D01*
X149985135Y-81410500D01*
X152274864Y-81410499D01*
X152274879Y-81410497D01*
X152274882Y-81410497D01*
X152299987Y-81407586D01*
X152299988Y-81407585D01*
X152299991Y-81407585D01*
X152402765Y-81362206D01*
X152482206Y-81282765D01*
X152527585Y-81179991D01*
X152530500Y-81154865D01*
X152530500Y-80854856D01*
X153839500Y-80854856D01*
X153839502Y-80854882D01*
X153842413Y-80879987D01*
X153842415Y-80879991D01*
X153887793Y-80982764D01*
X153887794Y-80982765D01*
X153967235Y-81062206D01*
X154070009Y-81107585D01*
X154095135Y-81110500D01*
X155784864Y-81110499D01*
X155784879Y-81110497D01*
X155784882Y-81110497D01*
X155809987Y-81107586D01*
X155809988Y-81107585D01*
X155809991Y-81107585D01*
X155912765Y-81062206D01*
X155992206Y-80982765D01*
X156037585Y-80879991D01*
X156040500Y-80854865D01*
X156040499Y-79165136D01*
X156040497Y-79165117D01*
X156037586Y-79140012D01*
X156037585Y-79140010D01*
X156037585Y-79140009D01*
X155992206Y-79037235D01*
X155912765Y-78957794D01*
X155888267Y-78946977D01*
X155809992Y-78912415D01*
X155784865Y-78909500D01*
X154095143Y-78909500D01*
X154095117Y-78909502D01*
X154070012Y-78912413D01*
X154070008Y-78912415D01*
X153967235Y-78957793D01*
X153887794Y-79037234D01*
X153842415Y-79140006D01*
X153842415Y-79140008D01*
X153839500Y-79165131D01*
X153839500Y-80854856D01*
X152530500Y-80854856D01*
X152530499Y-78865136D01*
X152530497Y-78865117D01*
X152527586Y-78840012D01*
X152527585Y-78840010D01*
X152527585Y-78840009D01*
X152482206Y-78737235D01*
X152402765Y-78657794D01*
X152402763Y-78657793D01*
X152299992Y-78612415D01*
X152274865Y-78609500D01*
X149985143Y-78609500D01*
X149985117Y-78609502D01*
X149960012Y-78612413D01*
X149960008Y-78612415D01*
X149857235Y-78657793D01*
X149777794Y-78737234D01*
X149732415Y-78840006D01*
X149732415Y-78840008D01*
X149729500Y-78865131D01*
X149729500Y-81154856D01*
X122500500Y-81154856D01*
X122500500Y-80010000D01*
X138594785Y-80010000D01*
X138613602Y-80213082D01*
X138669417Y-80409247D01*
X138669422Y-80409260D01*
X138760327Y-80591821D01*
X138883237Y-80754581D01*
X139033958Y-80891980D01*
X139033960Y-80891982D01*
X139133141Y-80953392D01*
X139207363Y-80999348D01*
X139397544Y-81073024D01*
X139598024Y-81110500D01*
X139598026Y-81110500D01*
X139801974Y-81110500D01*
X139801976Y-81110500D01*
X140002456Y-81073024D01*
X140192637Y-80999348D01*
X140366041Y-80891981D01*
X140516764Y-80754579D01*
X140639673Y-80591821D01*
X140730582Y-80409250D01*
X140786397Y-80213083D01*
X140805215Y-80010000D01*
X146214785Y-80010000D01*
X146233602Y-80213082D01*
X146289417Y-80409247D01*
X146289422Y-80409260D01*
X146380327Y-80591821D01*
X146503237Y-80754581D01*
X146653958Y-80891980D01*
X146653960Y-80891982D01*
X146753141Y-80953392D01*
X146827363Y-80999348D01*
X147017544Y-81073024D01*
X147218024Y-81110500D01*
X147218026Y-81110500D01*
X147421974Y-81110500D01*
X147421976Y-81110500D01*
X147622456Y-81073024D01*
X147812637Y-80999348D01*
X147986041Y-80891981D01*
X148136764Y-80754579D01*
X148259673Y-80591821D01*
X148350582Y-80409250D01*
X148406397Y-80213083D01*
X148425215Y-80010000D01*
X148406397Y-79806917D01*
X148350582Y-79610750D01*
X148259673Y-79428179D01*
X148136764Y-79265421D01*
X148136762Y-79265418D01*
X147986041Y-79128019D01*
X147986039Y-79128017D01*
X147812642Y-79020655D01*
X147812635Y-79020651D01*
X147696083Y-78975499D01*
X147622456Y-78946976D01*
X147421976Y-78909500D01*
X147218024Y-78909500D01*
X147017544Y-78946976D01*
X147017541Y-78946976D01*
X147017541Y-78946977D01*
X146827364Y-79020651D01*
X146827357Y-79020655D01*
X146653960Y-79128017D01*
X146653958Y-79128019D01*
X146503237Y-79265418D01*
X146380327Y-79428178D01*
X146289422Y-79610739D01*
X146289417Y-79610752D01*
X146233602Y-79806917D01*
X146214785Y-80009999D01*
X146214785Y-80010000D01*
X140805215Y-80010000D01*
X140786397Y-79806917D01*
X140730582Y-79610750D01*
X140639673Y-79428179D01*
X140516764Y-79265421D01*
X140516762Y-79265418D01*
X140366041Y-79128019D01*
X140366039Y-79128017D01*
X140192642Y-79020655D01*
X140192635Y-79020651D01*
X140076083Y-78975499D01*
X140002456Y-78946976D01*
X139801976Y-78909500D01*
X139598024Y-78909500D01*
X139397544Y-78946976D01*
X139397541Y-78946976D01*
X139397541Y-78946977D01*
X139207364Y-79020651D01*
X139207357Y-79020655D01*
X139033960Y-79128017D01*
X139033958Y-79128019D01*
X138883237Y-79265418D01*
X138760327Y-79428178D01*
X138669422Y-79610739D01*
X138669417Y-79610752D01*
X138613602Y-79806917D01*
X138594785Y-80009999D01*
X138594785Y-80010000D01*
X122500500Y-80010000D01*
X122500500Y-77899500D01*
X122520185Y-77832461D01*
X122572989Y-77786706D01*
X122624500Y-77775500D01*
X125975500Y-77775500D01*
X126042539Y-77795185D01*
G37*
G04 #@! TD.AperFunction*
M02*
