G04 #@! TF.GenerationSoftware,KiCad,Pcbnew,8.0.1*
G04 #@! TF.CreationDate,2024-06-18T21:42:57-04:00*
G04 #@! TF.ProjectId,OdysseyDaughterCardGateMatrix,4f647973-7365-4794-9461-756768746572,1.1*
G04 #@! TF.SameCoordinates,Original*
G04 #@! TF.FileFunction,Soldermask,Bot*
G04 #@! TF.FilePolarity,Negative*
%FSLAX46Y46*%
G04 Gerber Fmt 4.6, Leading zero omitted, Abs format (unit mm)*
G04 Created by KiCad (PCBNEW 8.0.1) date 2024-06-18 21:42:57*
%MOMM*%
%LPD*%
G01*
G04 APERTURE LIST*
G04 APERTURE END LIST*
G36*
X139748724Y-120924799D02*
G01*
X139792218Y-120924799D01*
X139840658Y-120933853D01*
X139895090Y-120939215D01*
X139936438Y-120951757D01*
X139973518Y-120958689D01*
X140024868Y-120978582D01*
X140082683Y-120996120D01*
X140115720Y-121013778D01*
X140145501Y-121025316D01*
X140197245Y-121057354D01*
X140255570Y-121088530D01*
X140280076Y-121108641D01*
X140302311Y-121122409D01*
X140351575Y-121167319D01*
X140407107Y-121212893D01*
X140423563Y-121232945D01*
X140438611Y-121246663D01*
X140482297Y-121304513D01*
X140531470Y-121364430D01*
X140540977Y-121382218D01*
X140549762Y-121393850D01*
X140584713Y-121464040D01*
X140623880Y-121537317D01*
X140628056Y-121551086D01*
X140631972Y-121558949D01*
X140655105Y-121640255D01*
X140680785Y-121724910D01*
X140681628Y-121733473D01*
X140682446Y-121736347D01*
X140690943Y-121828047D01*
X140700000Y-121920000D01*
X140690942Y-122011960D01*
X140682446Y-122103652D01*
X140681628Y-122106524D01*
X140680785Y-122115090D01*
X140655100Y-122199759D01*
X140631972Y-122281050D01*
X140628057Y-122288911D01*
X140623880Y-122302683D01*
X140584705Y-122375972D01*
X140549762Y-122446149D01*
X140540979Y-122457778D01*
X140531470Y-122475570D01*
X140482288Y-122535498D01*
X140438611Y-122593336D01*
X140423566Y-122607050D01*
X140407107Y-122627107D01*
X140351564Y-122672689D01*
X140302311Y-122717590D01*
X140280081Y-122731354D01*
X140255570Y-122751470D01*
X140197233Y-122782651D01*
X140145501Y-122814683D01*
X140115727Y-122826217D01*
X140082683Y-122843880D01*
X140024856Y-122861421D01*
X139973518Y-122881310D01*
X139936445Y-122888240D01*
X139895090Y-122900785D01*
X139840655Y-122906146D01*
X139792218Y-122915201D01*
X139748724Y-122915201D01*
X139700000Y-122920000D01*
X139651276Y-122915201D01*
X139607782Y-122915201D01*
X139559343Y-122906146D01*
X139504910Y-122900785D01*
X139463555Y-122888240D01*
X139426481Y-122881310D01*
X139375139Y-122861419D01*
X139317317Y-122843880D01*
X139284275Y-122826218D01*
X139254498Y-122814683D01*
X139202759Y-122782647D01*
X139144430Y-122751470D01*
X139119921Y-122731356D01*
X139097688Y-122717590D01*
X139048425Y-122672681D01*
X138992893Y-122627107D01*
X138976436Y-122607054D01*
X138961388Y-122593336D01*
X138917699Y-122535482D01*
X138868530Y-122475570D01*
X138859022Y-122457783D01*
X138850237Y-122446149D01*
X138815279Y-122375945D01*
X138776120Y-122302683D01*
X138771943Y-122288916D01*
X138768027Y-122281050D01*
X138744882Y-122199706D01*
X138719215Y-122115090D01*
X138718371Y-122106530D01*
X138717553Y-122103652D01*
X138709040Y-122011788D01*
X138700000Y-121920000D01*
X138709039Y-121828219D01*
X138717553Y-121736347D01*
X138718372Y-121733468D01*
X138719215Y-121724910D01*
X138744878Y-121640308D01*
X138768027Y-121558949D01*
X138771944Y-121551081D01*
X138776120Y-121537317D01*
X138815272Y-121464068D01*
X138850237Y-121393850D01*
X138859024Y-121382213D01*
X138868530Y-121364430D01*
X138917689Y-121304528D01*
X138961388Y-121246663D01*
X138976439Y-121232941D01*
X138992893Y-121212893D01*
X139048414Y-121167327D01*
X139097688Y-121122409D01*
X139119926Y-121108639D01*
X139144430Y-121088530D01*
X139202747Y-121057358D01*
X139254498Y-121025316D01*
X139284282Y-121013777D01*
X139317317Y-120996120D01*
X139375127Y-120978583D01*
X139426481Y-120958689D01*
X139463562Y-120951757D01*
X139504910Y-120939215D01*
X139559340Y-120933853D01*
X139607782Y-120924799D01*
X139651276Y-120924799D01*
X139700000Y-120920000D01*
X139748724Y-120924799D01*
G37*
G36*
X147368724Y-120924799D02*
G01*
X147412218Y-120924799D01*
X147460658Y-120933853D01*
X147515090Y-120939215D01*
X147556438Y-120951757D01*
X147593518Y-120958689D01*
X147644868Y-120978582D01*
X147702683Y-120996120D01*
X147735720Y-121013778D01*
X147765501Y-121025316D01*
X147817245Y-121057354D01*
X147875570Y-121088530D01*
X147900076Y-121108641D01*
X147922311Y-121122409D01*
X147971575Y-121167319D01*
X148027107Y-121212893D01*
X148043563Y-121232945D01*
X148058611Y-121246663D01*
X148102297Y-121304513D01*
X148151470Y-121364430D01*
X148160977Y-121382218D01*
X148169762Y-121393850D01*
X148204713Y-121464040D01*
X148243880Y-121537317D01*
X148248056Y-121551086D01*
X148251972Y-121558949D01*
X148275105Y-121640255D01*
X148300785Y-121724910D01*
X148301628Y-121733473D01*
X148302446Y-121736347D01*
X148310943Y-121828047D01*
X148320000Y-121920000D01*
X148310942Y-122011960D01*
X148302446Y-122103652D01*
X148301628Y-122106524D01*
X148300785Y-122115090D01*
X148275100Y-122199759D01*
X148251972Y-122281050D01*
X148248057Y-122288911D01*
X148243880Y-122302683D01*
X148204705Y-122375972D01*
X148169762Y-122446149D01*
X148160979Y-122457778D01*
X148151470Y-122475570D01*
X148102288Y-122535498D01*
X148058611Y-122593336D01*
X148043566Y-122607050D01*
X148027107Y-122627107D01*
X147971564Y-122672689D01*
X147922311Y-122717590D01*
X147900081Y-122731354D01*
X147875570Y-122751470D01*
X147817233Y-122782651D01*
X147765501Y-122814683D01*
X147735727Y-122826217D01*
X147702683Y-122843880D01*
X147644856Y-122861421D01*
X147593518Y-122881310D01*
X147556445Y-122888240D01*
X147515090Y-122900785D01*
X147460655Y-122906146D01*
X147412218Y-122915201D01*
X147368724Y-122915201D01*
X147320000Y-122920000D01*
X147271276Y-122915201D01*
X147227782Y-122915201D01*
X147179343Y-122906146D01*
X147124910Y-122900785D01*
X147083555Y-122888240D01*
X147046481Y-122881310D01*
X146995139Y-122861419D01*
X146937317Y-122843880D01*
X146904275Y-122826218D01*
X146874498Y-122814683D01*
X146822759Y-122782647D01*
X146764430Y-122751470D01*
X146739921Y-122731356D01*
X146717688Y-122717590D01*
X146668425Y-122672681D01*
X146612893Y-122627107D01*
X146596436Y-122607054D01*
X146581388Y-122593336D01*
X146537699Y-122535482D01*
X146488530Y-122475570D01*
X146479022Y-122457783D01*
X146470237Y-122446149D01*
X146435279Y-122375945D01*
X146396120Y-122302683D01*
X146391943Y-122288916D01*
X146388027Y-122281050D01*
X146364882Y-122199706D01*
X146339215Y-122115090D01*
X146338371Y-122106530D01*
X146337553Y-122103652D01*
X146329040Y-122011788D01*
X146320000Y-121920000D01*
X146329039Y-121828219D01*
X146337553Y-121736347D01*
X146338372Y-121733468D01*
X146339215Y-121724910D01*
X146364878Y-121640308D01*
X146388027Y-121558949D01*
X146391944Y-121551081D01*
X146396120Y-121537317D01*
X146435272Y-121464068D01*
X146470237Y-121393850D01*
X146479024Y-121382213D01*
X146488530Y-121364430D01*
X146537689Y-121304528D01*
X146581388Y-121246663D01*
X146596439Y-121232941D01*
X146612893Y-121212893D01*
X146668414Y-121167327D01*
X146717688Y-121122409D01*
X146739926Y-121108639D01*
X146764430Y-121088530D01*
X146822747Y-121057358D01*
X146874498Y-121025316D01*
X146904282Y-121013777D01*
X146937317Y-120996120D01*
X146995127Y-120978583D01*
X147046481Y-120958689D01*
X147083562Y-120951757D01*
X147124910Y-120939215D01*
X147179340Y-120933853D01*
X147227782Y-120924799D01*
X147271276Y-120924799D01*
X147320000Y-120920000D01*
X147368724Y-120924799D01*
G37*
G36*
X153216043Y-120923191D02*
G01*
X153248727Y-120927494D01*
X153256948Y-120931327D01*
X153276537Y-120935224D01*
X153302480Y-120952559D01*
X153313608Y-120957748D01*
X153320378Y-120964518D01*
X153341421Y-120978579D01*
X153355481Y-120999621D01*
X153362251Y-121006391D01*
X153367438Y-121017516D01*
X153384776Y-121043463D01*
X153388672Y-121063053D01*
X153392505Y-121071272D01*
X153396806Y-121103945D01*
X153400000Y-121120000D01*
X153400000Y-122720000D01*
X153396805Y-122736058D01*
X153392505Y-122768727D01*
X153388673Y-122776944D01*
X153384776Y-122796537D01*
X153367437Y-122822485D01*
X153362251Y-122833608D01*
X153355483Y-122840375D01*
X153341421Y-122861421D01*
X153320375Y-122875483D01*
X153313608Y-122882251D01*
X153302485Y-122887437D01*
X153276537Y-122904776D01*
X153256944Y-122908673D01*
X153248727Y-122912505D01*
X153216056Y-122916806D01*
X153200000Y-122920000D01*
X151600000Y-122920000D01*
X151583943Y-122916806D01*
X151551272Y-122912505D01*
X151543053Y-122908672D01*
X151523463Y-122904776D01*
X151497516Y-122887438D01*
X151486391Y-122882251D01*
X151479621Y-122875481D01*
X151458579Y-122861421D01*
X151444518Y-122840378D01*
X151437748Y-122833608D01*
X151432559Y-122822480D01*
X151415224Y-122796537D01*
X151411327Y-122776948D01*
X151407494Y-122768727D01*
X151403190Y-122736041D01*
X151400000Y-122720000D01*
X151400000Y-121120000D01*
X151403190Y-121103958D01*
X151407494Y-121071272D01*
X151411327Y-121063049D01*
X151415224Y-121043463D01*
X151432557Y-121017521D01*
X151437748Y-121006391D01*
X151444520Y-120999618D01*
X151458579Y-120978579D01*
X151479618Y-120964520D01*
X151486391Y-120957748D01*
X151497521Y-120952557D01*
X151523463Y-120935224D01*
X151543049Y-120931327D01*
X151551272Y-120927494D01*
X151583960Y-120923190D01*
X151600000Y-120920000D01*
X153200000Y-120920000D01*
X153216043Y-120923191D01*
G37*
G36*
X134516043Y-118928183D02*
G01*
X134548727Y-118932486D01*
X134556948Y-118936319D01*
X134576537Y-118940216D01*
X134602480Y-118957551D01*
X134613608Y-118962740D01*
X134620378Y-118969510D01*
X134641421Y-118983571D01*
X134655481Y-119004613D01*
X134662251Y-119011383D01*
X134667438Y-119022508D01*
X134684776Y-119048455D01*
X134688672Y-119068045D01*
X134692505Y-119076264D01*
X134696806Y-119108937D01*
X134700000Y-119124992D01*
X134700000Y-122374992D01*
X134696805Y-122391050D01*
X134692505Y-122423719D01*
X134688673Y-122431936D01*
X134684776Y-122451529D01*
X134667437Y-122477477D01*
X134662251Y-122488600D01*
X134655483Y-122495367D01*
X134641421Y-122516413D01*
X134620375Y-122530475D01*
X134613608Y-122537243D01*
X134602485Y-122542429D01*
X134576537Y-122559768D01*
X134556944Y-122563665D01*
X134548727Y-122567497D01*
X134516056Y-122571798D01*
X134500000Y-122574992D01*
X123500000Y-122574992D01*
X123483943Y-122571798D01*
X123451272Y-122567497D01*
X123443053Y-122563664D01*
X123423463Y-122559768D01*
X123397516Y-122542430D01*
X123386391Y-122537243D01*
X123379621Y-122530473D01*
X123358579Y-122516413D01*
X123344518Y-122495370D01*
X123337748Y-122488600D01*
X123332559Y-122477472D01*
X123315224Y-122451529D01*
X123311327Y-122431940D01*
X123307494Y-122423719D01*
X123303190Y-122391033D01*
X123300000Y-122374992D01*
X123300000Y-119124992D01*
X123303190Y-119108950D01*
X123307494Y-119076264D01*
X123311327Y-119068041D01*
X123315224Y-119048455D01*
X123332557Y-119022513D01*
X123337748Y-119011383D01*
X123344520Y-119004610D01*
X123358579Y-118983571D01*
X123379618Y-118969512D01*
X123386391Y-118962740D01*
X123397521Y-118957549D01*
X123423463Y-118940216D01*
X123443049Y-118936319D01*
X123451272Y-118932486D01*
X123483960Y-118928182D01*
X123500000Y-118924992D01*
X134500000Y-118924992D01*
X134516043Y-118928183D01*
G37*
G36*
X139748724Y-117114799D02*
G01*
X139792218Y-117114799D01*
X139840658Y-117123853D01*
X139895090Y-117129215D01*
X139936438Y-117141757D01*
X139973518Y-117148689D01*
X140024868Y-117168582D01*
X140082683Y-117186120D01*
X140115720Y-117203778D01*
X140145501Y-117215316D01*
X140197245Y-117247354D01*
X140255570Y-117278530D01*
X140280076Y-117298641D01*
X140302311Y-117312409D01*
X140351575Y-117357319D01*
X140407107Y-117402893D01*
X140423563Y-117422945D01*
X140438611Y-117436663D01*
X140482297Y-117494513D01*
X140531470Y-117554430D01*
X140540977Y-117572218D01*
X140549762Y-117583850D01*
X140584713Y-117654040D01*
X140623880Y-117727317D01*
X140628056Y-117741086D01*
X140631972Y-117748949D01*
X140655105Y-117830255D01*
X140680785Y-117914910D01*
X140681628Y-117923473D01*
X140682446Y-117926347D01*
X140690943Y-118018047D01*
X140700000Y-118110000D01*
X140690942Y-118201960D01*
X140682446Y-118293652D01*
X140681628Y-118296524D01*
X140680785Y-118305090D01*
X140655100Y-118389759D01*
X140631972Y-118471050D01*
X140628057Y-118478911D01*
X140623880Y-118492683D01*
X140584705Y-118565972D01*
X140549762Y-118636149D01*
X140540979Y-118647778D01*
X140531470Y-118665570D01*
X140482288Y-118725498D01*
X140438611Y-118783336D01*
X140423566Y-118797050D01*
X140407107Y-118817107D01*
X140351564Y-118862689D01*
X140302311Y-118907590D01*
X140280081Y-118921354D01*
X140255570Y-118941470D01*
X140197233Y-118972651D01*
X140145501Y-119004683D01*
X140115727Y-119016217D01*
X140082683Y-119033880D01*
X140024856Y-119051421D01*
X139973518Y-119071310D01*
X139936445Y-119078240D01*
X139895090Y-119090785D01*
X139840655Y-119096146D01*
X139792218Y-119105201D01*
X139748724Y-119105201D01*
X139700000Y-119110000D01*
X139651276Y-119105201D01*
X139607782Y-119105201D01*
X139559343Y-119096146D01*
X139504910Y-119090785D01*
X139463555Y-119078240D01*
X139426481Y-119071310D01*
X139375139Y-119051419D01*
X139317317Y-119033880D01*
X139284275Y-119016218D01*
X139254498Y-119004683D01*
X139202759Y-118972647D01*
X139144430Y-118941470D01*
X139119921Y-118921356D01*
X139097688Y-118907590D01*
X139048425Y-118862681D01*
X138992893Y-118817107D01*
X138976436Y-118797054D01*
X138961388Y-118783336D01*
X138917699Y-118725482D01*
X138868530Y-118665570D01*
X138859022Y-118647783D01*
X138850237Y-118636149D01*
X138815279Y-118565945D01*
X138776120Y-118492683D01*
X138771943Y-118478916D01*
X138768027Y-118471050D01*
X138744882Y-118389706D01*
X138719215Y-118305090D01*
X138718371Y-118296530D01*
X138717553Y-118293652D01*
X138709040Y-118201788D01*
X138700000Y-118110000D01*
X138709039Y-118018219D01*
X138717553Y-117926347D01*
X138718372Y-117923468D01*
X138719215Y-117914910D01*
X138744878Y-117830308D01*
X138768027Y-117748949D01*
X138771944Y-117741081D01*
X138776120Y-117727317D01*
X138815272Y-117654068D01*
X138850237Y-117583850D01*
X138859024Y-117572213D01*
X138868530Y-117554430D01*
X138917689Y-117494528D01*
X138961388Y-117436663D01*
X138976439Y-117422941D01*
X138992893Y-117402893D01*
X139048414Y-117357327D01*
X139097688Y-117312409D01*
X139119926Y-117298639D01*
X139144430Y-117278530D01*
X139202747Y-117247358D01*
X139254498Y-117215316D01*
X139284282Y-117203777D01*
X139317317Y-117186120D01*
X139375127Y-117168583D01*
X139426481Y-117148689D01*
X139463562Y-117141757D01*
X139504910Y-117129215D01*
X139559340Y-117123853D01*
X139607782Y-117114799D01*
X139651276Y-117114799D01*
X139700000Y-117110000D01*
X139748724Y-117114799D01*
G37*
G36*
X147368724Y-117114799D02*
G01*
X147412218Y-117114799D01*
X147460658Y-117123853D01*
X147515090Y-117129215D01*
X147556438Y-117141757D01*
X147593518Y-117148689D01*
X147644868Y-117168582D01*
X147702683Y-117186120D01*
X147735720Y-117203778D01*
X147765501Y-117215316D01*
X147817245Y-117247354D01*
X147875570Y-117278530D01*
X147900076Y-117298641D01*
X147922311Y-117312409D01*
X147971575Y-117357319D01*
X148027107Y-117402893D01*
X148043563Y-117422945D01*
X148058611Y-117436663D01*
X148102297Y-117494513D01*
X148151470Y-117554430D01*
X148160977Y-117572218D01*
X148169762Y-117583850D01*
X148204713Y-117654040D01*
X148243880Y-117727317D01*
X148248056Y-117741086D01*
X148251972Y-117748949D01*
X148275105Y-117830255D01*
X148300785Y-117914910D01*
X148301628Y-117923473D01*
X148302446Y-117926347D01*
X148310943Y-118018047D01*
X148320000Y-118110000D01*
X148310942Y-118201960D01*
X148302446Y-118293652D01*
X148301628Y-118296524D01*
X148300785Y-118305090D01*
X148275100Y-118389759D01*
X148251972Y-118471050D01*
X148248057Y-118478911D01*
X148243880Y-118492683D01*
X148204705Y-118565972D01*
X148169762Y-118636149D01*
X148160979Y-118647778D01*
X148151470Y-118665570D01*
X148102288Y-118725498D01*
X148058611Y-118783336D01*
X148043566Y-118797050D01*
X148027107Y-118817107D01*
X147971564Y-118862689D01*
X147922311Y-118907590D01*
X147900081Y-118921354D01*
X147875570Y-118941470D01*
X147817233Y-118972651D01*
X147765501Y-119004683D01*
X147735727Y-119016217D01*
X147702683Y-119033880D01*
X147644856Y-119051421D01*
X147593518Y-119071310D01*
X147556445Y-119078240D01*
X147515090Y-119090785D01*
X147460655Y-119096146D01*
X147412218Y-119105201D01*
X147368724Y-119105201D01*
X147320000Y-119110000D01*
X147271276Y-119105201D01*
X147227782Y-119105201D01*
X147179343Y-119096146D01*
X147124910Y-119090785D01*
X147083555Y-119078240D01*
X147046481Y-119071310D01*
X146995139Y-119051419D01*
X146937317Y-119033880D01*
X146904275Y-119016218D01*
X146874498Y-119004683D01*
X146822759Y-118972647D01*
X146764430Y-118941470D01*
X146739921Y-118921356D01*
X146717688Y-118907590D01*
X146668425Y-118862681D01*
X146612893Y-118817107D01*
X146596436Y-118797054D01*
X146581388Y-118783336D01*
X146537699Y-118725482D01*
X146488530Y-118665570D01*
X146479022Y-118647783D01*
X146470237Y-118636149D01*
X146435279Y-118565945D01*
X146396120Y-118492683D01*
X146391943Y-118478916D01*
X146388027Y-118471050D01*
X146364882Y-118389706D01*
X146339215Y-118305090D01*
X146338371Y-118296530D01*
X146337553Y-118293652D01*
X146329040Y-118201788D01*
X146320000Y-118110000D01*
X146329039Y-118018219D01*
X146337553Y-117926347D01*
X146338372Y-117923468D01*
X146339215Y-117914910D01*
X146364878Y-117830308D01*
X146388027Y-117748949D01*
X146391944Y-117741081D01*
X146396120Y-117727317D01*
X146435272Y-117654068D01*
X146470237Y-117583850D01*
X146479024Y-117572213D01*
X146488530Y-117554430D01*
X146537689Y-117494528D01*
X146581388Y-117436663D01*
X146596439Y-117422941D01*
X146612893Y-117402893D01*
X146668414Y-117357327D01*
X146717688Y-117312409D01*
X146739926Y-117298639D01*
X146764430Y-117278530D01*
X146822747Y-117247358D01*
X146874498Y-117215316D01*
X146904282Y-117203777D01*
X146937317Y-117186120D01*
X146995127Y-117168583D01*
X147046481Y-117148689D01*
X147083562Y-117141757D01*
X147124910Y-117129215D01*
X147179340Y-117123853D01*
X147227782Y-117114799D01*
X147271276Y-117114799D01*
X147320000Y-117110000D01*
X147368724Y-117114799D01*
G37*
G36*
X158092043Y-116809191D02*
G01*
X158124727Y-116813494D01*
X158132948Y-116817327D01*
X158152537Y-116821224D01*
X158178480Y-116838559D01*
X158189608Y-116843748D01*
X158196378Y-116850518D01*
X158217421Y-116864579D01*
X158231481Y-116885621D01*
X158238251Y-116892391D01*
X158243438Y-116903516D01*
X158260776Y-116929463D01*
X158264672Y-116949053D01*
X158268505Y-116957272D01*
X158272806Y-116989945D01*
X158276000Y-117006000D01*
X158276000Y-118706000D01*
X158272805Y-118722058D01*
X158268505Y-118754727D01*
X158264673Y-118762944D01*
X158260776Y-118782537D01*
X158243437Y-118808485D01*
X158238251Y-118819608D01*
X158231483Y-118826375D01*
X158217421Y-118847421D01*
X158196375Y-118861483D01*
X158189608Y-118868251D01*
X158178485Y-118873437D01*
X158152537Y-118890776D01*
X158132944Y-118894673D01*
X158124727Y-118898505D01*
X158092056Y-118902806D01*
X158076000Y-118906000D01*
X156376000Y-118906000D01*
X156359943Y-118902806D01*
X156327272Y-118898505D01*
X156319053Y-118894672D01*
X156299463Y-118890776D01*
X156273516Y-118873438D01*
X156262391Y-118868251D01*
X156255621Y-118861481D01*
X156234579Y-118847421D01*
X156220518Y-118826378D01*
X156213748Y-118819608D01*
X156208559Y-118808480D01*
X156191224Y-118782537D01*
X156187327Y-118762948D01*
X156183494Y-118754727D01*
X156179190Y-118722041D01*
X156176000Y-118706000D01*
X156176000Y-117006000D01*
X156179190Y-116989958D01*
X156183494Y-116957272D01*
X156187327Y-116949049D01*
X156191224Y-116929463D01*
X156208557Y-116903521D01*
X156213748Y-116892391D01*
X156220520Y-116885618D01*
X156234579Y-116864579D01*
X156255618Y-116850520D01*
X156262391Y-116843748D01*
X156273521Y-116838557D01*
X156299463Y-116821224D01*
X156319049Y-116817327D01*
X156327272Y-116813494D01*
X156359960Y-116809190D01*
X156376000Y-116806000D01*
X158076000Y-116806000D01*
X158092043Y-116809191D01*
G37*
G36*
X134516043Y-114539295D02*
G01*
X134548727Y-114543598D01*
X134556948Y-114547431D01*
X134576537Y-114551328D01*
X134602480Y-114568663D01*
X134613608Y-114573852D01*
X134620378Y-114580622D01*
X134641421Y-114594683D01*
X134655481Y-114615725D01*
X134662251Y-114622495D01*
X134667438Y-114633620D01*
X134684776Y-114659567D01*
X134688672Y-114679157D01*
X134692505Y-114687376D01*
X134696806Y-114720049D01*
X134700000Y-114736104D01*
X134700000Y-117986104D01*
X134696805Y-118002162D01*
X134692505Y-118034831D01*
X134688673Y-118043048D01*
X134684776Y-118062641D01*
X134667437Y-118088589D01*
X134662251Y-118099712D01*
X134655483Y-118106479D01*
X134641421Y-118127525D01*
X134620375Y-118141587D01*
X134613608Y-118148355D01*
X134602485Y-118153541D01*
X134576537Y-118170880D01*
X134556944Y-118174777D01*
X134548727Y-118178609D01*
X134516056Y-118182910D01*
X134500000Y-118186104D01*
X123500000Y-118186104D01*
X123483943Y-118182910D01*
X123451272Y-118178609D01*
X123443053Y-118174776D01*
X123423463Y-118170880D01*
X123397516Y-118153542D01*
X123386391Y-118148355D01*
X123379621Y-118141585D01*
X123358579Y-118127525D01*
X123344518Y-118106482D01*
X123337748Y-118099712D01*
X123332559Y-118088584D01*
X123315224Y-118062641D01*
X123311327Y-118043052D01*
X123307494Y-118034831D01*
X123303190Y-118002145D01*
X123300000Y-117986104D01*
X123300000Y-114736104D01*
X123303190Y-114720062D01*
X123307494Y-114687376D01*
X123311327Y-114679153D01*
X123315224Y-114659567D01*
X123332557Y-114633625D01*
X123337748Y-114622495D01*
X123344520Y-114615722D01*
X123358579Y-114594683D01*
X123379618Y-114580624D01*
X123386391Y-114573852D01*
X123397521Y-114568661D01*
X123423463Y-114551328D01*
X123443049Y-114547431D01*
X123451272Y-114543598D01*
X123483960Y-114539294D01*
X123500000Y-114536104D01*
X134500000Y-114536104D01*
X134516043Y-114539295D01*
G37*
G36*
X152448724Y-113304799D02*
G01*
X152492218Y-113304799D01*
X152540658Y-113313853D01*
X152595090Y-113319215D01*
X152636438Y-113331757D01*
X152673518Y-113338689D01*
X152724868Y-113358582D01*
X152782683Y-113376120D01*
X152815720Y-113393778D01*
X152845501Y-113405316D01*
X152897245Y-113437354D01*
X152955570Y-113468530D01*
X152980076Y-113488641D01*
X153002311Y-113502409D01*
X153051575Y-113547319D01*
X153107107Y-113592893D01*
X153123563Y-113612945D01*
X153138611Y-113626663D01*
X153182297Y-113684513D01*
X153231470Y-113744430D01*
X153240977Y-113762218D01*
X153249762Y-113773850D01*
X153284713Y-113844040D01*
X153323880Y-113917317D01*
X153328056Y-113931086D01*
X153331972Y-113938949D01*
X153355105Y-114020255D01*
X153380785Y-114104910D01*
X153381628Y-114113473D01*
X153382446Y-114116347D01*
X153390943Y-114208047D01*
X153400000Y-114300000D01*
X153390942Y-114391960D01*
X153382446Y-114483652D01*
X153381628Y-114486524D01*
X153380785Y-114495090D01*
X153355100Y-114579759D01*
X153331972Y-114661050D01*
X153328057Y-114668911D01*
X153323880Y-114682683D01*
X153284705Y-114755972D01*
X153249762Y-114826149D01*
X153240979Y-114837778D01*
X153231470Y-114855570D01*
X153182288Y-114915498D01*
X153138611Y-114973336D01*
X153123566Y-114987050D01*
X153107107Y-115007107D01*
X153051564Y-115052689D01*
X153002311Y-115097590D01*
X152980081Y-115111354D01*
X152955570Y-115131470D01*
X152897233Y-115162651D01*
X152845501Y-115194683D01*
X152815727Y-115206217D01*
X152782683Y-115223880D01*
X152724856Y-115241421D01*
X152673518Y-115261310D01*
X152636445Y-115268240D01*
X152595090Y-115280785D01*
X152540655Y-115286146D01*
X152492218Y-115295201D01*
X152448724Y-115295201D01*
X152400000Y-115300000D01*
X152351276Y-115295201D01*
X152307782Y-115295201D01*
X152259343Y-115286146D01*
X152204910Y-115280785D01*
X152163555Y-115268240D01*
X152126481Y-115261310D01*
X152075139Y-115241419D01*
X152017317Y-115223880D01*
X151984275Y-115206218D01*
X151954498Y-115194683D01*
X151902759Y-115162647D01*
X151844430Y-115131470D01*
X151819921Y-115111356D01*
X151797688Y-115097590D01*
X151748425Y-115052681D01*
X151692893Y-115007107D01*
X151676436Y-114987054D01*
X151661388Y-114973336D01*
X151617699Y-114915482D01*
X151568530Y-114855570D01*
X151559022Y-114837783D01*
X151550237Y-114826149D01*
X151515279Y-114755945D01*
X151476120Y-114682683D01*
X151471943Y-114668916D01*
X151468027Y-114661050D01*
X151444882Y-114579706D01*
X151419215Y-114495090D01*
X151418371Y-114486530D01*
X151417553Y-114483652D01*
X151409040Y-114391788D01*
X151400000Y-114300000D01*
X151409039Y-114208219D01*
X151417553Y-114116347D01*
X151418372Y-114113468D01*
X151419215Y-114104910D01*
X151444878Y-114020308D01*
X151468027Y-113938949D01*
X151471944Y-113931081D01*
X151476120Y-113917317D01*
X151515272Y-113844068D01*
X151550237Y-113773850D01*
X151559024Y-113762213D01*
X151568530Y-113744430D01*
X151617689Y-113684528D01*
X151661388Y-113626663D01*
X151676439Y-113612941D01*
X151692893Y-113592893D01*
X151748414Y-113547327D01*
X151797688Y-113502409D01*
X151819926Y-113488639D01*
X151844430Y-113468530D01*
X151902747Y-113437358D01*
X151954498Y-113405316D01*
X151984282Y-113393777D01*
X152017317Y-113376120D01*
X152075127Y-113358583D01*
X152126481Y-113338689D01*
X152163562Y-113331757D01*
X152204910Y-113319215D01*
X152259340Y-113313853D01*
X152307782Y-113304799D01*
X152351276Y-113304799D01*
X152400000Y-113300000D01*
X152448724Y-113304799D01*
G37*
G36*
X139755630Y-111734867D02*
G01*
X139807318Y-111734867D01*
X139864284Y-111744373D01*
X139925743Y-111749750D01*
X139974009Y-111762682D01*
X140019026Y-111770195D01*
X140079419Y-111790927D01*
X140144626Y-111808400D01*
X140184564Y-111827023D01*
X140222032Y-111839886D01*
X140283587Y-111873198D01*
X140350000Y-111904167D01*
X140381268Y-111926061D01*
X140410796Y-111942041D01*
X140470903Y-111988824D01*
X140535624Y-112034142D01*
X140558433Y-112056951D01*
X140580177Y-112073875D01*
X140636033Y-112134551D01*
X140695858Y-112194376D01*
X140710958Y-112215942D01*
X140725543Y-112231785D01*
X140774201Y-112306261D01*
X140825833Y-112380000D01*
X140834450Y-112398480D01*
X140842937Y-112411470D01*
X140881459Y-112499292D01*
X140921600Y-112585374D01*
X140925338Y-112599324D01*
X140929158Y-112608033D01*
X140954736Y-112709039D01*
X140980250Y-112804257D01*
X140980989Y-112812711D01*
X140981847Y-112816097D01*
X140991891Y-112937321D01*
X141000000Y-113030000D01*
X140991890Y-113122686D01*
X140981847Y-113243902D01*
X140980989Y-113247286D01*
X140980250Y-113255743D01*
X140954731Y-113350977D01*
X140929158Y-113451966D01*
X140925338Y-113460673D01*
X140921600Y-113474626D01*
X140881452Y-113560723D01*
X140842937Y-113648529D01*
X140834452Y-113661515D01*
X140825833Y-113680000D01*
X140774191Y-113753751D01*
X140725543Y-113828214D01*
X140710961Y-113844053D01*
X140695858Y-113865624D01*
X140636021Y-113925460D01*
X140580177Y-113986124D01*
X140558437Y-114003044D01*
X140535624Y-114025858D01*
X140470890Y-114071184D01*
X140410796Y-114117958D01*
X140381274Y-114133934D01*
X140350000Y-114155833D01*
X140283573Y-114186807D01*
X140222032Y-114220113D01*
X140184573Y-114232972D01*
X140144626Y-114251600D01*
X140079406Y-114269075D01*
X140019026Y-114289804D01*
X139974016Y-114297314D01*
X139925743Y-114310250D01*
X139864280Y-114315627D01*
X139807318Y-114325133D01*
X139755630Y-114325133D01*
X139700000Y-114330000D01*
X139644370Y-114325133D01*
X139592682Y-114325133D01*
X139535718Y-114315627D01*
X139474257Y-114310250D01*
X139425984Y-114297315D01*
X139380973Y-114289804D01*
X139320588Y-114269074D01*
X139255374Y-114251600D01*
X139215429Y-114232973D01*
X139177967Y-114220113D01*
X139116418Y-114186804D01*
X139050000Y-114155833D01*
X139018728Y-114133936D01*
X138989203Y-114117958D01*
X138929099Y-114071177D01*
X138864376Y-114025858D01*
X138841565Y-114003047D01*
X138819822Y-113986124D01*
X138763965Y-113925447D01*
X138704142Y-113865624D01*
X138689041Y-113844057D01*
X138674456Y-113828214D01*
X138625793Y-113753730D01*
X138574167Y-113680000D01*
X138565550Y-113661521D01*
X138557062Y-113648529D01*
X138518530Y-113560687D01*
X138478400Y-113474626D01*
X138474662Y-113460678D01*
X138470841Y-113451966D01*
X138445250Y-113350909D01*
X138419750Y-113255743D01*
X138419010Y-113247293D01*
X138418152Y-113243902D01*
X138408090Y-113122470D01*
X138400000Y-113030000D01*
X138408089Y-112937537D01*
X138418152Y-112816097D01*
X138419010Y-112812705D01*
X138419750Y-112804257D01*
X138445245Y-112709107D01*
X138470841Y-112608033D01*
X138474663Y-112599318D01*
X138478400Y-112585374D01*
X138518523Y-112499328D01*
X138557062Y-112411470D01*
X138565551Y-112398475D01*
X138574167Y-112380000D01*
X138625783Y-112306283D01*
X138674456Y-112231785D01*
X138689044Y-112215937D01*
X138704142Y-112194376D01*
X138763953Y-112134564D01*
X138819822Y-112073875D01*
X138841570Y-112056947D01*
X138864376Y-112034142D01*
X138929086Y-111988831D01*
X138989203Y-111942041D01*
X139018735Y-111926058D01*
X139050000Y-111904167D01*
X139116405Y-111873201D01*
X139177967Y-111839886D01*
X139215437Y-111827022D01*
X139255374Y-111808400D01*
X139320575Y-111790929D01*
X139380973Y-111770195D01*
X139425992Y-111762682D01*
X139474257Y-111749750D01*
X139535715Y-111744373D01*
X139592682Y-111734867D01*
X139644370Y-111734867D01*
X139700000Y-111730000D01*
X139755630Y-111734867D01*
G37*
G36*
X148436043Y-111733191D02*
G01*
X148468727Y-111737494D01*
X148476948Y-111741327D01*
X148496537Y-111745224D01*
X148522480Y-111762559D01*
X148533608Y-111767748D01*
X148540378Y-111774518D01*
X148561421Y-111788579D01*
X148575481Y-111809621D01*
X148582251Y-111816391D01*
X148587438Y-111827516D01*
X148604776Y-111853463D01*
X148608672Y-111873053D01*
X148612505Y-111881272D01*
X148616806Y-111913945D01*
X148620000Y-111930000D01*
X148620000Y-114130000D01*
X148616805Y-114146058D01*
X148612505Y-114178727D01*
X148608673Y-114186944D01*
X148604776Y-114206537D01*
X148587437Y-114232485D01*
X148582251Y-114243608D01*
X148575483Y-114250375D01*
X148561421Y-114271421D01*
X148540375Y-114285483D01*
X148533608Y-114292251D01*
X148522485Y-114297437D01*
X148496537Y-114314776D01*
X148476944Y-114318673D01*
X148468727Y-114322505D01*
X148436056Y-114326806D01*
X148420000Y-114330000D01*
X146220000Y-114330000D01*
X146203943Y-114326806D01*
X146171272Y-114322505D01*
X146163053Y-114318672D01*
X146143463Y-114314776D01*
X146117516Y-114297438D01*
X146106391Y-114292251D01*
X146099621Y-114285481D01*
X146078579Y-114271421D01*
X146064518Y-114250378D01*
X146057748Y-114243608D01*
X146052559Y-114232480D01*
X146035224Y-114206537D01*
X146031327Y-114186948D01*
X146027494Y-114178727D01*
X146023190Y-114146041D01*
X146020000Y-114130000D01*
X146020000Y-111930000D01*
X146023190Y-111913958D01*
X146027494Y-111881272D01*
X146031327Y-111873049D01*
X146035224Y-111853463D01*
X146052557Y-111827521D01*
X146057748Y-111816391D01*
X146064520Y-111809618D01*
X146078579Y-111788579D01*
X146099618Y-111774520D01*
X146106391Y-111767748D01*
X146117521Y-111762557D01*
X146143463Y-111745224D01*
X146163049Y-111741327D01*
X146171272Y-111737494D01*
X146203960Y-111733190D01*
X146220000Y-111730000D01*
X148420000Y-111730000D01*
X148436043Y-111733191D01*
G37*
G36*
X134516043Y-110150407D02*
G01*
X134548727Y-110154710D01*
X134556948Y-110158543D01*
X134576537Y-110162440D01*
X134602480Y-110179775D01*
X134613608Y-110184964D01*
X134620378Y-110191734D01*
X134641421Y-110205795D01*
X134655481Y-110226837D01*
X134662251Y-110233607D01*
X134667438Y-110244732D01*
X134684776Y-110270679D01*
X134688672Y-110290269D01*
X134692505Y-110298488D01*
X134696806Y-110331161D01*
X134700000Y-110347216D01*
X134700000Y-113597216D01*
X134696805Y-113613274D01*
X134692505Y-113645943D01*
X134688673Y-113654160D01*
X134684776Y-113673753D01*
X134667437Y-113699701D01*
X134662251Y-113710824D01*
X134655483Y-113717591D01*
X134641421Y-113738637D01*
X134620375Y-113752699D01*
X134613608Y-113759467D01*
X134602485Y-113764653D01*
X134576537Y-113781992D01*
X134556944Y-113785889D01*
X134548727Y-113789721D01*
X134516056Y-113794022D01*
X134500000Y-113797216D01*
X123500000Y-113797216D01*
X123483943Y-113794022D01*
X123451272Y-113789721D01*
X123443053Y-113785888D01*
X123423463Y-113781992D01*
X123397516Y-113764654D01*
X123386391Y-113759467D01*
X123379621Y-113752697D01*
X123358579Y-113738637D01*
X123344518Y-113717594D01*
X123337748Y-113710824D01*
X123332559Y-113699696D01*
X123315224Y-113673753D01*
X123311327Y-113654164D01*
X123307494Y-113645943D01*
X123303190Y-113613257D01*
X123300000Y-113597216D01*
X123300000Y-110347216D01*
X123303190Y-110331174D01*
X123307494Y-110298488D01*
X123311327Y-110290265D01*
X123315224Y-110270679D01*
X123332557Y-110244737D01*
X123337748Y-110233607D01*
X123344520Y-110226834D01*
X123358579Y-110205795D01*
X123379618Y-110191736D01*
X123386391Y-110184964D01*
X123397521Y-110179773D01*
X123423463Y-110162440D01*
X123443049Y-110158543D01*
X123451272Y-110154710D01*
X123483960Y-110150406D01*
X123500000Y-110147216D01*
X134500000Y-110147216D01*
X134516043Y-110150407D01*
G37*
G36*
X152455630Y-109194867D02*
G01*
X152507318Y-109194867D01*
X152564284Y-109204373D01*
X152625743Y-109209750D01*
X152674009Y-109222682D01*
X152719026Y-109230195D01*
X152779419Y-109250927D01*
X152844626Y-109268400D01*
X152884564Y-109287023D01*
X152922032Y-109299886D01*
X152983587Y-109333198D01*
X153050000Y-109364167D01*
X153081268Y-109386061D01*
X153110796Y-109402041D01*
X153170903Y-109448824D01*
X153235624Y-109494142D01*
X153258433Y-109516951D01*
X153280177Y-109533875D01*
X153336033Y-109594551D01*
X153395858Y-109654376D01*
X153410958Y-109675942D01*
X153425543Y-109691785D01*
X153474201Y-109766261D01*
X153525833Y-109840000D01*
X153534450Y-109858480D01*
X153542937Y-109871470D01*
X153581459Y-109959292D01*
X153621600Y-110045374D01*
X153625338Y-110059324D01*
X153629158Y-110068033D01*
X153654736Y-110169039D01*
X153680250Y-110264257D01*
X153680989Y-110272711D01*
X153681847Y-110276097D01*
X153691891Y-110397321D01*
X153700000Y-110490000D01*
X153691890Y-110582686D01*
X153681847Y-110703902D01*
X153680989Y-110707286D01*
X153680250Y-110715743D01*
X153654731Y-110810977D01*
X153629158Y-110911966D01*
X153625338Y-110920673D01*
X153621600Y-110934626D01*
X153581452Y-111020723D01*
X153542937Y-111108529D01*
X153534452Y-111121515D01*
X153525833Y-111140000D01*
X153474191Y-111213751D01*
X153425543Y-111288214D01*
X153410961Y-111304053D01*
X153395858Y-111325624D01*
X153336021Y-111385460D01*
X153280177Y-111446124D01*
X153258437Y-111463044D01*
X153235624Y-111485858D01*
X153170890Y-111531184D01*
X153110796Y-111577958D01*
X153081274Y-111593934D01*
X153050000Y-111615833D01*
X152983573Y-111646807D01*
X152922032Y-111680113D01*
X152884573Y-111692972D01*
X152844626Y-111711600D01*
X152779406Y-111729075D01*
X152719026Y-111749804D01*
X152674016Y-111757314D01*
X152625743Y-111770250D01*
X152564280Y-111775627D01*
X152507318Y-111785133D01*
X152455630Y-111785133D01*
X152400000Y-111790000D01*
X152344370Y-111785133D01*
X152292682Y-111785133D01*
X152235718Y-111775627D01*
X152174257Y-111770250D01*
X152125984Y-111757315D01*
X152080973Y-111749804D01*
X152020588Y-111729074D01*
X151955374Y-111711600D01*
X151915429Y-111692973D01*
X151877967Y-111680113D01*
X151816418Y-111646804D01*
X151750000Y-111615833D01*
X151718728Y-111593936D01*
X151689203Y-111577958D01*
X151629099Y-111531177D01*
X151564376Y-111485858D01*
X151541565Y-111463047D01*
X151519822Y-111446124D01*
X151463965Y-111385447D01*
X151404142Y-111325624D01*
X151389041Y-111304057D01*
X151374456Y-111288214D01*
X151325793Y-111213730D01*
X151274167Y-111140000D01*
X151265550Y-111121521D01*
X151257062Y-111108529D01*
X151218530Y-111020687D01*
X151178400Y-110934626D01*
X151174662Y-110920678D01*
X151170841Y-110911966D01*
X151145250Y-110810909D01*
X151119750Y-110715743D01*
X151119010Y-110707293D01*
X151118152Y-110703902D01*
X151108090Y-110582470D01*
X151100000Y-110490000D01*
X151108089Y-110397537D01*
X151118152Y-110276097D01*
X151119010Y-110272705D01*
X151119750Y-110264257D01*
X151145245Y-110169107D01*
X151170841Y-110068033D01*
X151174663Y-110059318D01*
X151178400Y-110045374D01*
X151218523Y-109959328D01*
X151257062Y-109871470D01*
X151265551Y-109858475D01*
X151274167Y-109840000D01*
X151325783Y-109766283D01*
X151374456Y-109691785D01*
X151389044Y-109675937D01*
X151404142Y-109654376D01*
X151463953Y-109594564D01*
X151519822Y-109533875D01*
X151541570Y-109516947D01*
X151564376Y-109494142D01*
X151629086Y-109448831D01*
X151689203Y-109402041D01*
X151718735Y-109386058D01*
X151750000Y-109364167D01*
X151816405Y-109333201D01*
X151877967Y-109299886D01*
X151915437Y-109287022D01*
X151955374Y-109268400D01*
X152020575Y-109250929D01*
X152080973Y-109230195D01*
X152125992Y-109222682D01*
X152174257Y-109209750D01*
X152235715Y-109204373D01*
X152292682Y-109194867D01*
X152344370Y-109194867D01*
X152400000Y-109190000D01*
X152455630Y-109194867D01*
G37*
G36*
X137208724Y-108224799D02*
G01*
X137252218Y-108224799D01*
X137300658Y-108233853D01*
X137355090Y-108239215D01*
X137396438Y-108251757D01*
X137433518Y-108258689D01*
X137484868Y-108278582D01*
X137542683Y-108296120D01*
X137575720Y-108313778D01*
X137605501Y-108325316D01*
X137657245Y-108357354D01*
X137715570Y-108388530D01*
X137740076Y-108408641D01*
X137762311Y-108422409D01*
X137811575Y-108467319D01*
X137867107Y-108512893D01*
X137883563Y-108532945D01*
X137898611Y-108546663D01*
X137942297Y-108604513D01*
X137991470Y-108664430D01*
X138000977Y-108682218D01*
X138009762Y-108693850D01*
X138044713Y-108764040D01*
X138083880Y-108837317D01*
X138088056Y-108851086D01*
X138091972Y-108858949D01*
X138115105Y-108940255D01*
X138140785Y-109024910D01*
X138141628Y-109033473D01*
X138142446Y-109036347D01*
X138150943Y-109128047D01*
X138160000Y-109220000D01*
X138150942Y-109311960D01*
X138142446Y-109403652D01*
X138141628Y-109406524D01*
X138140785Y-109415090D01*
X138115100Y-109499759D01*
X138091972Y-109581050D01*
X138088057Y-109588911D01*
X138083880Y-109602683D01*
X138044705Y-109675972D01*
X138009762Y-109746149D01*
X138000979Y-109757778D01*
X137991470Y-109775570D01*
X137942288Y-109835498D01*
X137898611Y-109893336D01*
X137883566Y-109907050D01*
X137867107Y-109927107D01*
X137811564Y-109972689D01*
X137762311Y-110017590D01*
X137740081Y-110031354D01*
X137715570Y-110051470D01*
X137657233Y-110082651D01*
X137605501Y-110114683D01*
X137575727Y-110126217D01*
X137542683Y-110143880D01*
X137484856Y-110161421D01*
X137433518Y-110181310D01*
X137396445Y-110188240D01*
X137355090Y-110200785D01*
X137300655Y-110206146D01*
X137252218Y-110215201D01*
X137208724Y-110215201D01*
X137160000Y-110220000D01*
X137111276Y-110215201D01*
X137067782Y-110215201D01*
X137019343Y-110206146D01*
X136964910Y-110200785D01*
X136923555Y-110188240D01*
X136886481Y-110181310D01*
X136835139Y-110161419D01*
X136777317Y-110143880D01*
X136744275Y-110126218D01*
X136714498Y-110114683D01*
X136662759Y-110082647D01*
X136604430Y-110051470D01*
X136579921Y-110031356D01*
X136557688Y-110017590D01*
X136508425Y-109972681D01*
X136452893Y-109927107D01*
X136436436Y-109907054D01*
X136421388Y-109893336D01*
X136377699Y-109835482D01*
X136328530Y-109775570D01*
X136319022Y-109757783D01*
X136310237Y-109746149D01*
X136275279Y-109675945D01*
X136236120Y-109602683D01*
X136231943Y-109588916D01*
X136228027Y-109581050D01*
X136204882Y-109499706D01*
X136179215Y-109415090D01*
X136178371Y-109406530D01*
X136177553Y-109403652D01*
X136169040Y-109311788D01*
X136160000Y-109220000D01*
X136169039Y-109128219D01*
X136177553Y-109036347D01*
X136178372Y-109033468D01*
X136179215Y-109024910D01*
X136204878Y-108940308D01*
X136228027Y-108858949D01*
X136231944Y-108851081D01*
X136236120Y-108837317D01*
X136275272Y-108764068D01*
X136310237Y-108693850D01*
X136319024Y-108682213D01*
X136328530Y-108664430D01*
X136377689Y-108604528D01*
X136421388Y-108546663D01*
X136436439Y-108532941D01*
X136452893Y-108512893D01*
X136508414Y-108467327D01*
X136557688Y-108422409D01*
X136579926Y-108408639D01*
X136604430Y-108388530D01*
X136662747Y-108357358D01*
X136714498Y-108325316D01*
X136744282Y-108313777D01*
X136777317Y-108296120D01*
X136835127Y-108278583D01*
X136886481Y-108258689D01*
X136923562Y-108251757D01*
X136964910Y-108239215D01*
X137019340Y-108233853D01*
X137067782Y-108224799D01*
X137111276Y-108224799D01*
X137160000Y-108220000D01*
X137208724Y-108224799D01*
G37*
G36*
X134516043Y-105761519D02*
G01*
X134548727Y-105765822D01*
X134556948Y-105769655D01*
X134576537Y-105773552D01*
X134602480Y-105790887D01*
X134613608Y-105796076D01*
X134620378Y-105802846D01*
X134641421Y-105816907D01*
X134655481Y-105837949D01*
X134662251Y-105844719D01*
X134667438Y-105855844D01*
X134684776Y-105881791D01*
X134688672Y-105901381D01*
X134692505Y-105909600D01*
X134696806Y-105942273D01*
X134700000Y-105958328D01*
X134700000Y-109208328D01*
X134696805Y-109224386D01*
X134692505Y-109257055D01*
X134688673Y-109265272D01*
X134684776Y-109284865D01*
X134667437Y-109310813D01*
X134662251Y-109321936D01*
X134655483Y-109328703D01*
X134641421Y-109349749D01*
X134620375Y-109363811D01*
X134613608Y-109370579D01*
X134602485Y-109375765D01*
X134576537Y-109393104D01*
X134556944Y-109397001D01*
X134548727Y-109400833D01*
X134516056Y-109405134D01*
X134500000Y-109408328D01*
X123500000Y-109408328D01*
X123483943Y-109405134D01*
X123451272Y-109400833D01*
X123443053Y-109397000D01*
X123423463Y-109393104D01*
X123397516Y-109375766D01*
X123386391Y-109370579D01*
X123379621Y-109363809D01*
X123358579Y-109349749D01*
X123344518Y-109328706D01*
X123337748Y-109321936D01*
X123332559Y-109310808D01*
X123315224Y-109284865D01*
X123311327Y-109265276D01*
X123307494Y-109257055D01*
X123303190Y-109224369D01*
X123300000Y-109208328D01*
X123300000Y-105958328D01*
X123303190Y-105942286D01*
X123307494Y-105909600D01*
X123311327Y-105901377D01*
X123315224Y-105881791D01*
X123332557Y-105855849D01*
X123337748Y-105844719D01*
X123344520Y-105837946D01*
X123358579Y-105816907D01*
X123379618Y-105802848D01*
X123386391Y-105796076D01*
X123397521Y-105790885D01*
X123423463Y-105773552D01*
X123443049Y-105769655D01*
X123451272Y-105765822D01*
X123483960Y-105761518D01*
X123500000Y-105758328D01*
X134500000Y-105758328D01*
X134516043Y-105761519D01*
G37*
G36*
X142086043Y-106653191D02*
G01*
X142118727Y-106657494D01*
X142126948Y-106661327D01*
X142146537Y-106665224D01*
X142172480Y-106682559D01*
X142183608Y-106687748D01*
X142190378Y-106694518D01*
X142211421Y-106708579D01*
X142225481Y-106729621D01*
X142232251Y-106736391D01*
X142237438Y-106747516D01*
X142254776Y-106773463D01*
X142258672Y-106793053D01*
X142262505Y-106801272D01*
X142266806Y-106833945D01*
X142270000Y-106850000D01*
X142270000Y-109050000D01*
X142266805Y-109066058D01*
X142262505Y-109098727D01*
X142258673Y-109106944D01*
X142254776Y-109126537D01*
X142237437Y-109152485D01*
X142232251Y-109163608D01*
X142225483Y-109170375D01*
X142211421Y-109191421D01*
X142190375Y-109205483D01*
X142183608Y-109212251D01*
X142172485Y-109217437D01*
X142146537Y-109234776D01*
X142126944Y-109238673D01*
X142118727Y-109242505D01*
X142086056Y-109246806D01*
X142070000Y-109250000D01*
X139870000Y-109250000D01*
X139853943Y-109246806D01*
X139821272Y-109242505D01*
X139813053Y-109238672D01*
X139793463Y-109234776D01*
X139767516Y-109217438D01*
X139756391Y-109212251D01*
X139749621Y-109205481D01*
X139728579Y-109191421D01*
X139714518Y-109170378D01*
X139707748Y-109163608D01*
X139702559Y-109152480D01*
X139685224Y-109126537D01*
X139681327Y-109106948D01*
X139677494Y-109098727D01*
X139673190Y-109066041D01*
X139670000Y-109050000D01*
X139670000Y-106850000D01*
X139673190Y-106833958D01*
X139677494Y-106801272D01*
X139681327Y-106793049D01*
X139685224Y-106773463D01*
X139702557Y-106747521D01*
X139707748Y-106736391D01*
X139714520Y-106729618D01*
X139728579Y-106708579D01*
X139749618Y-106694520D01*
X139756391Y-106687748D01*
X139767521Y-106682557D01*
X139793463Y-106665224D01*
X139813049Y-106661327D01*
X139821272Y-106657494D01*
X139853960Y-106653190D01*
X139870000Y-106650000D01*
X142070000Y-106650000D01*
X142086043Y-106653191D01*
G37*
G36*
X148645630Y-106654867D02*
G01*
X148697318Y-106654867D01*
X148754284Y-106664373D01*
X148815743Y-106669750D01*
X148864009Y-106682682D01*
X148909026Y-106690195D01*
X148969419Y-106710927D01*
X149034626Y-106728400D01*
X149074564Y-106747023D01*
X149112032Y-106759886D01*
X149173587Y-106793198D01*
X149240000Y-106824167D01*
X149271268Y-106846061D01*
X149300796Y-106862041D01*
X149360903Y-106908824D01*
X149425624Y-106954142D01*
X149448433Y-106976951D01*
X149470177Y-106993875D01*
X149526033Y-107054551D01*
X149585858Y-107114376D01*
X149600958Y-107135942D01*
X149615543Y-107151785D01*
X149664201Y-107226261D01*
X149715833Y-107300000D01*
X149724450Y-107318480D01*
X149732937Y-107331470D01*
X149771459Y-107419292D01*
X149811600Y-107505374D01*
X149815338Y-107519324D01*
X149819158Y-107528033D01*
X149844736Y-107629039D01*
X149870250Y-107724257D01*
X149870989Y-107732711D01*
X149871847Y-107736097D01*
X149881891Y-107857321D01*
X149890000Y-107950000D01*
X149881890Y-108042686D01*
X149871847Y-108163902D01*
X149870989Y-108167286D01*
X149870250Y-108175743D01*
X149844731Y-108270977D01*
X149819158Y-108371966D01*
X149815338Y-108380673D01*
X149811600Y-108394626D01*
X149771452Y-108480723D01*
X149732937Y-108568529D01*
X149724452Y-108581515D01*
X149715833Y-108600000D01*
X149664191Y-108673751D01*
X149615543Y-108748214D01*
X149600961Y-108764053D01*
X149585858Y-108785624D01*
X149526021Y-108845460D01*
X149470177Y-108906124D01*
X149448437Y-108923044D01*
X149425624Y-108945858D01*
X149360890Y-108991184D01*
X149300796Y-109037958D01*
X149271274Y-109053934D01*
X149240000Y-109075833D01*
X149173573Y-109106807D01*
X149112032Y-109140113D01*
X149074573Y-109152972D01*
X149034626Y-109171600D01*
X148969406Y-109189075D01*
X148909026Y-109209804D01*
X148864016Y-109217314D01*
X148815743Y-109230250D01*
X148754280Y-109235627D01*
X148697318Y-109245133D01*
X148645630Y-109245133D01*
X148590000Y-109250000D01*
X148534370Y-109245133D01*
X148482682Y-109245133D01*
X148425718Y-109235627D01*
X148364257Y-109230250D01*
X148315984Y-109217315D01*
X148270973Y-109209804D01*
X148210588Y-109189074D01*
X148145374Y-109171600D01*
X148105429Y-109152973D01*
X148067967Y-109140113D01*
X148006418Y-109106804D01*
X147940000Y-109075833D01*
X147908728Y-109053936D01*
X147879203Y-109037958D01*
X147819099Y-108991177D01*
X147754376Y-108945858D01*
X147731565Y-108923047D01*
X147709822Y-108906124D01*
X147653965Y-108845447D01*
X147594142Y-108785624D01*
X147579041Y-108764057D01*
X147564456Y-108748214D01*
X147515793Y-108673730D01*
X147464167Y-108600000D01*
X147455550Y-108581521D01*
X147447062Y-108568529D01*
X147408530Y-108480687D01*
X147368400Y-108394626D01*
X147364662Y-108380678D01*
X147360841Y-108371966D01*
X147335250Y-108270909D01*
X147309750Y-108175743D01*
X147309010Y-108167293D01*
X147308152Y-108163902D01*
X147298090Y-108042470D01*
X147290000Y-107950000D01*
X147298089Y-107857537D01*
X147308152Y-107736097D01*
X147309010Y-107732705D01*
X147309750Y-107724257D01*
X147335245Y-107629107D01*
X147360841Y-107528033D01*
X147364663Y-107519318D01*
X147368400Y-107505374D01*
X147408523Y-107419328D01*
X147447062Y-107331470D01*
X147455551Y-107318475D01*
X147464167Y-107300000D01*
X147515783Y-107226283D01*
X147564456Y-107151785D01*
X147579044Y-107135937D01*
X147594142Y-107114376D01*
X147653953Y-107054564D01*
X147709822Y-106993875D01*
X147731570Y-106976947D01*
X147754376Y-106954142D01*
X147819086Y-106908831D01*
X147879203Y-106862041D01*
X147908735Y-106846058D01*
X147940000Y-106824167D01*
X148006405Y-106793201D01*
X148067967Y-106759886D01*
X148105437Y-106747022D01*
X148145374Y-106728400D01*
X148210575Y-106710929D01*
X148270973Y-106690195D01*
X148315992Y-106682682D01*
X148364257Y-106669750D01*
X148425715Y-106664373D01*
X148482682Y-106654867D01*
X148534370Y-106654867D01*
X148590000Y-106650000D01*
X148645630Y-106654867D01*
G37*
G36*
X134516043Y-101372631D02*
G01*
X134548727Y-101376934D01*
X134556948Y-101380767D01*
X134576537Y-101384664D01*
X134602480Y-101401999D01*
X134613608Y-101407188D01*
X134620378Y-101413958D01*
X134641421Y-101428019D01*
X134655481Y-101449061D01*
X134662251Y-101455831D01*
X134667438Y-101466956D01*
X134684776Y-101492903D01*
X134688672Y-101512493D01*
X134692505Y-101520712D01*
X134696806Y-101553385D01*
X134700000Y-101569440D01*
X134700000Y-104819440D01*
X134696805Y-104835498D01*
X134692505Y-104868167D01*
X134688673Y-104876384D01*
X134684776Y-104895977D01*
X134667437Y-104921925D01*
X134662251Y-104933048D01*
X134655483Y-104939815D01*
X134641421Y-104960861D01*
X134620375Y-104974923D01*
X134613608Y-104981691D01*
X134602485Y-104986877D01*
X134576537Y-105004216D01*
X134556944Y-105008113D01*
X134548727Y-105011945D01*
X134516056Y-105016246D01*
X134500000Y-105019440D01*
X123500000Y-105019440D01*
X123483943Y-105016246D01*
X123451272Y-105011945D01*
X123443053Y-105008112D01*
X123423463Y-105004216D01*
X123397516Y-104986878D01*
X123386391Y-104981691D01*
X123379621Y-104974921D01*
X123358579Y-104960861D01*
X123344518Y-104939818D01*
X123337748Y-104933048D01*
X123332559Y-104921920D01*
X123315224Y-104895977D01*
X123311327Y-104876388D01*
X123307494Y-104868167D01*
X123303190Y-104835481D01*
X123300000Y-104819440D01*
X123300000Y-101569440D01*
X123303190Y-101553398D01*
X123307494Y-101520712D01*
X123311327Y-101512489D01*
X123315224Y-101492903D01*
X123332557Y-101466961D01*
X123337748Y-101455831D01*
X123344520Y-101449058D01*
X123358579Y-101428019D01*
X123379618Y-101413960D01*
X123386391Y-101407188D01*
X123397521Y-101401997D01*
X123423463Y-101384664D01*
X123443049Y-101380767D01*
X123451272Y-101376934D01*
X123483960Y-101372630D01*
X123500000Y-101369440D01*
X134500000Y-101369440D01*
X134516043Y-101372631D01*
G37*
G36*
X142086043Y-101573191D02*
G01*
X142118727Y-101577494D01*
X142126948Y-101581327D01*
X142146537Y-101585224D01*
X142172480Y-101602559D01*
X142183608Y-101607748D01*
X142190378Y-101614518D01*
X142211421Y-101628579D01*
X142225481Y-101649621D01*
X142232251Y-101656391D01*
X142237438Y-101667516D01*
X142254776Y-101693463D01*
X142258672Y-101713053D01*
X142262505Y-101721272D01*
X142266806Y-101753945D01*
X142270000Y-101770000D01*
X142270000Y-103970000D01*
X142266805Y-103986058D01*
X142262505Y-104018727D01*
X142258673Y-104026944D01*
X142254776Y-104046537D01*
X142237437Y-104072485D01*
X142232251Y-104083608D01*
X142225483Y-104090375D01*
X142211421Y-104111421D01*
X142190375Y-104125483D01*
X142183608Y-104132251D01*
X142172485Y-104137437D01*
X142146537Y-104154776D01*
X142126944Y-104158673D01*
X142118727Y-104162505D01*
X142086056Y-104166806D01*
X142070000Y-104170000D01*
X139870000Y-104170000D01*
X139853943Y-104166806D01*
X139821272Y-104162505D01*
X139813053Y-104158672D01*
X139793463Y-104154776D01*
X139767516Y-104137438D01*
X139756391Y-104132251D01*
X139749621Y-104125481D01*
X139728579Y-104111421D01*
X139714518Y-104090378D01*
X139707748Y-104083608D01*
X139702559Y-104072480D01*
X139685224Y-104046537D01*
X139681327Y-104026948D01*
X139677494Y-104018727D01*
X139673190Y-103986041D01*
X139670000Y-103970000D01*
X139670000Y-101770000D01*
X139673190Y-101753958D01*
X139677494Y-101721272D01*
X139681327Y-101713049D01*
X139685224Y-101693463D01*
X139702557Y-101667521D01*
X139707748Y-101656391D01*
X139714520Y-101649618D01*
X139728579Y-101628579D01*
X139749618Y-101614520D01*
X139756391Y-101607748D01*
X139767521Y-101602557D01*
X139793463Y-101585224D01*
X139813049Y-101581327D01*
X139821272Y-101577494D01*
X139853960Y-101573190D01*
X139870000Y-101570000D01*
X142070000Y-101570000D01*
X142086043Y-101573191D01*
G37*
G36*
X148645630Y-101574867D02*
G01*
X148697318Y-101574867D01*
X148754284Y-101584373D01*
X148815743Y-101589750D01*
X148864009Y-101602682D01*
X148909026Y-101610195D01*
X148969419Y-101630927D01*
X149034626Y-101648400D01*
X149074564Y-101667023D01*
X149112032Y-101679886D01*
X149173587Y-101713198D01*
X149240000Y-101744167D01*
X149271268Y-101766061D01*
X149300796Y-101782041D01*
X149360903Y-101828824D01*
X149425624Y-101874142D01*
X149448433Y-101896951D01*
X149470177Y-101913875D01*
X149526033Y-101974551D01*
X149585858Y-102034376D01*
X149600958Y-102055942D01*
X149615543Y-102071785D01*
X149664201Y-102146261D01*
X149715833Y-102220000D01*
X149724450Y-102238480D01*
X149732937Y-102251470D01*
X149771459Y-102339292D01*
X149811600Y-102425374D01*
X149815338Y-102439324D01*
X149819158Y-102448033D01*
X149844736Y-102549039D01*
X149870250Y-102644257D01*
X149870989Y-102652711D01*
X149871847Y-102656097D01*
X149881891Y-102777321D01*
X149890000Y-102870000D01*
X149881890Y-102962686D01*
X149871847Y-103083902D01*
X149870989Y-103087286D01*
X149870250Y-103095743D01*
X149844731Y-103190977D01*
X149819158Y-103291966D01*
X149815338Y-103300673D01*
X149811600Y-103314626D01*
X149771452Y-103400723D01*
X149732937Y-103488529D01*
X149724452Y-103501515D01*
X149715833Y-103520000D01*
X149664191Y-103593751D01*
X149615543Y-103668214D01*
X149600961Y-103684053D01*
X149585858Y-103705624D01*
X149526021Y-103765460D01*
X149470177Y-103826124D01*
X149448437Y-103843044D01*
X149425624Y-103865858D01*
X149360890Y-103911184D01*
X149300796Y-103957958D01*
X149271274Y-103973934D01*
X149240000Y-103995833D01*
X149173573Y-104026807D01*
X149112032Y-104060113D01*
X149074573Y-104072972D01*
X149034626Y-104091600D01*
X148969406Y-104109075D01*
X148909026Y-104129804D01*
X148864016Y-104137314D01*
X148815743Y-104150250D01*
X148754280Y-104155627D01*
X148697318Y-104165133D01*
X148645630Y-104165133D01*
X148590000Y-104170000D01*
X148534370Y-104165133D01*
X148482682Y-104165133D01*
X148425718Y-104155627D01*
X148364257Y-104150250D01*
X148315984Y-104137315D01*
X148270973Y-104129804D01*
X148210588Y-104109074D01*
X148145374Y-104091600D01*
X148105429Y-104072973D01*
X148067967Y-104060113D01*
X148006418Y-104026804D01*
X147940000Y-103995833D01*
X147908728Y-103973936D01*
X147879203Y-103957958D01*
X147819099Y-103911177D01*
X147754376Y-103865858D01*
X147731565Y-103843047D01*
X147709822Y-103826124D01*
X147653965Y-103765447D01*
X147594142Y-103705624D01*
X147579041Y-103684057D01*
X147564456Y-103668214D01*
X147515793Y-103593730D01*
X147464167Y-103520000D01*
X147455550Y-103501521D01*
X147447062Y-103488529D01*
X147408530Y-103400687D01*
X147368400Y-103314626D01*
X147364662Y-103300678D01*
X147360841Y-103291966D01*
X147335250Y-103190909D01*
X147309750Y-103095743D01*
X147309010Y-103087293D01*
X147308152Y-103083902D01*
X147298090Y-102962470D01*
X147290000Y-102870000D01*
X147298089Y-102777537D01*
X147308152Y-102656097D01*
X147309010Y-102652705D01*
X147309750Y-102644257D01*
X147335245Y-102549107D01*
X147360841Y-102448033D01*
X147364663Y-102439318D01*
X147368400Y-102425374D01*
X147408523Y-102339328D01*
X147447062Y-102251470D01*
X147455551Y-102238475D01*
X147464167Y-102220000D01*
X147515783Y-102146283D01*
X147564456Y-102071785D01*
X147579044Y-102055937D01*
X147594142Y-102034376D01*
X147653953Y-101974564D01*
X147709822Y-101913875D01*
X147731570Y-101896947D01*
X147754376Y-101874142D01*
X147819086Y-101828831D01*
X147879203Y-101782041D01*
X147908735Y-101766058D01*
X147940000Y-101744167D01*
X148006405Y-101713201D01*
X148067967Y-101679886D01*
X148105437Y-101667022D01*
X148145374Y-101648400D01*
X148210575Y-101630929D01*
X148270973Y-101610195D01*
X148315992Y-101602682D01*
X148364257Y-101589750D01*
X148425715Y-101584373D01*
X148482682Y-101574867D01*
X148534370Y-101574867D01*
X148590000Y-101570000D01*
X148645630Y-101574867D01*
G37*
G36*
X153516043Y-101573191D02*
G01*
X153548727Y-101577494D01*
X153556948Y-101581327D01*
X153576537Y-101585224D01*
X153602480Y-101602559D01*
X153613608Y-101607748D01*
X153620378Y-101614518D01*
X153641421Y-101628579D01*
X153655481Y-101649621D01*
X153662251Y-101656391D01*
X153667438Y-101667516D01*
X153684776Y-101693463D01*
X153688672Y-101713053D01*
X153692505Y-101721272D01*
X153696806Y-101753945D01*
X153700000Y-101770000D01*
X153700000Y-103970000D01*
X153696805Y-103986058D01*
X153692505Y-104018727D01*
X153688673Y-104026944D01*
X153684776Y-104046537D01*
X153667437Y-104072485D01*
X153662251Y-104083608D01*
X153655483Y-104090375D01*
X153641421Y-104111421D01*
X153620375Y-104125483D01*
X153613608Y-104132251D01*
X153602485Y-104137437D01*
X153576537Y-104154776D01*
X153556944Y-104158673D01*
X153548727Y-104162505D01*
X153516056Y-104166806D01*
X153500000Y-104170000D01*
X151300000Y-104170000D01*
X151283943Y-104166806D01*
X151251272Y-104162505D01*
X151243053Y-104158672D01*
X151223463Y-104154776D01*
X151197516Y-104137438D01*
X151186391Y-104132251D01*
X151179621Y-104125481D01*
X151158579Y-104111421D01*
X151144518Y-104090378D01*
X151137748Y-104083608D01*
X151132559Y-104072480D01*
X151115224Y-104046537D01*
X151111327Y-104026948D01*
X151107494Y-104018727D01*
X151103190Y-103986041D01*
X151100000Y-103970000D01*
X151100000Y-101770000D01*
X151103190Y-101753958D01*
X151107494Y-101721272D01*
X151111327Y-101713049D01*
X151115224Y-101693463D01*
X151132557Y-101667521D01*
X151137748Y-101656391D01*
X151144520Y-101649618D01*
X151158579Y-101628579D01*
X151179618Y-101614520D01*
X151186391Y-101607748D01*
X151197521Y-101602557D01*
X151223463Y-101585224D01*
X151243049Y-101581327D01*
X151251272Y-101577494D01*
X151283960Y-101573190D01*
X151300000Y-101570000D01*
X153500000Y-101570000D01*
X153516043Y-101573191D01*
G37*
G36*
X137208724Y-100604799D02*
G01*
X137252218Y-100604799D01*
X137300658Y-100613853D01*
X137355090Y-100619215D01*
X137396438Y-100631757D01*
X137433518Y-100638689D01*
X137484868Y-100658582D01*
X137542683Y-100676120D01*
X137575720Y-100693778D01*
X137605501Y-100705316D01*
X137657245Y-100737354D01*
X137715570Y-100768530D01*
X137740076Y-100788641D01*
X137762311Y-100802409D01*
X137811575Y-100847319D01*
X137867107Y-100892893D01*
X137883563Y-100912945D01*
X137898611Y-100926663D01*
X137942297Y-100984513D01*
X137991470Y-101044430D01*
X138000977Y-101062218D01*
X138009762Y-101073850D01*
X138044713Y-101144040D01*
X138083880Y-101217317D01*
X138088056Y-101231086D01*
X138091972Y-101238949D01*
X138115105Y-101320255D01*
X138140785Y-101404910D01*
X138141628Y-101413473D01*
X138142446Y-101416347D01*
X138150943Y-101508047D01*
X138160000Y-101600000D01*
X138150942Y-101691960D01*
X138142446Y-101783652D01*
X138141628Y-101786524D01*
X138140785Y-101795090D01*
X138115100Y-101879759D01*
X138091972Y-101961050D01*
X138088057Y-101968911D01*
X138083880Y-101982683D01*
X138044705Y-102055972D01*
X138009762Y-102126149D01*
X138000979Y-102137778D01*
X137991470Y-102155570D01*
X137942288Y-102215498D01*
X137898611Y-102273336D01*
X137883566Y-102287050D01*
X137867107Y-102307107D01*
X137811564Y-102352689D01*
X137762311Y-102397590D01*
X137740081Y-102411354D01*
X137715570Y-102431470D01*
X137657233Y-102462651D01*
X137605501Y-102494683D01*
X137575727Y-102506217D01*
X137542683Y-102523880D01*
X137484856Y-102541421D01*
X137433518Y-102561310D01*
X137396445Y-102568240D01*
X137355090Y-102580785D01*
X137300655Y-102586146D01*
X137252218Y-102595201D01*
X137208724Y-102595201D01*
X137160000Y-102600000D01*
X137111276Y-102595201D01*
X137067782Y-102595201D01*
X137019343Y-102586146D01*
X136964910Y-102580785D01*
X136923555Y-102568240D01*
X136886481Y-102561310D01*
X136835139Y-102541419D01*
X136777317Y-102523880D01*
X136744275Y-102506218D01*
X136714498Y-102494683D01*
X136662759Y-102462647D01*
X136604430Y-102431470D01*
X136579921Y-102411356D01*
X136557688Y-102397590D01*
X136508425Y-102352681D01*
X136452893Y-102307107D01*
X136436436Y-102287054D01*
X136421388Y-102273336D01*
X136377699Y-102215482D01*
X136328530Y-102155570D01*
X136319022Y-102137783D01*
X136310237Y-102126149D01*
X136275279Y-102055945D01*
X136236120Y-101982683D01*
X136231943Y-101968916D01*
X136228027Y-101961050D01*
X136204882Y-101879706D01*
X136179215Y-101795090D01*
X136178371Y-101786530D01*
X136177553Y-101783652D01*
X136169040Y-101691788D01*
X136160000Y-101600000D01*
X136169039Y-101508219D01*
X136177553Y-101416347D01*
X136178372Y-101413468D01*
X136179215Y-101404910D01*
X136204878Y-101320308D01*
X136228027Y-101238949D01*
X136231944Y-101231081D01*
X136236120Y-101217317D01*
X136275272Y-101144068D01*
X136310237Y-101073850D01*
X136319024Y-101062213D01*
X136328530Y-101044430D01*
X136377689Y-100984528D01*
X136421388Y-100926663D01*
X136436439Y-100912941D01*
X136452893Y-100892893D01*
X136508414Y-100847327D01*
X136557688Y-100802409D01*
X136579926Y-100788639D01*
X136604430Y-100768530D01*
X136662747Y-100737358D01*
X136714498Y-100705316D01*
X136744282Y-100693777D01*
X136777317Y-100676120D01*
X136835127Y-100658583D01*
X136886481Y-100638689D01*
X136923562Y-100631757D01*
X136964910Y-100619215D01*
X137019340Y-100613853D01*
X137067782Y-100604799D01*
X137111276Y-100604799D01*
X137160000Y-100600000D01*
X137208724Y-100604799D01*
G37*
G36*
X134516043Y-96983743D02*
G01*
X134548727Y-96988046D01*
X134556948Y-96991879D01*
X134576537Y-96995776D01*
X134602480Y-97013111D01*
X134613608Y-97018300D01*
X134620378Y-97025070D01*
X134641421Y-97039131D01*
X134655481Y-97060173D01*
X134662251Y-97066943D01*
X134667438Y-97078068D01*
X134684776Y-97104015D01*
X134688672Y-97123605D01*
X134692505Y-97131824D01*
X134696806Y-97164497D01*
X134700000Y-97180552D01*
X134700000Y-100430552D01*
X134696805Y-100446610D01*
X134692505Y-100479279D01*
X134688673Y-100487496D01*
X134684776Y-100507089D01*
X134667437Y-100533037D01*
X134662251Y-100544160D01*
X134655483Y-100550927D01*
X134641421Y-100571973D01*
X134620375Y-100586035D01*
X134613608Y-100592803D01*
X134602485Y-100597989D01*
X134576537Y-100615328D01*
X134556944Y-100619225D01*
X134548727Y-100623057D01*
X134516056Y-100627358D01*
X134500000Y-100630552D01*
X123500000Y-100630552D01*
X123483943Y-100627358D01*
X123451272Y-100623057D01*
X123443053Y-100619224D01*
X123423463Y-100615328D01*
X123397516Y-100597990D01*
X123386391Y-100592803D01*
X123379621Y-100586033D01*
X123358579Y-100571973D01*
X123344518Y-100550930D01*
X123337748Y-100544160D01*
X123332559Y-100533032D01*
X123315224Y-100507089D01*
X123311327Y-100487500D01*
X123307494Y-100479279D01*
X123303190Y-100446593D01*
X123300000Y-100430552D01*
X123300000Y-97180552D01*
X123303190Y-97164510D01*
X123307494Y-97131824D01*
X123311327Y-97123601D01*
X123315224Y-97104015D01*
X123332557Y-97078073D01*
X123337748Y-97066943D01*
X123344520Y-97060170D01*
X123358579Y-97039131D01*
X123379618Y-97025072D01*
X123386391Y-97018300D01*
X123397521Y-97013109D01*
X123423463Y-96995776D01*
X123443049Y-96991879D01*
X123451272Y-96988046D01*
X123483960Y-96983742D01*
X123500000Y-96980552D01*
X134500000Y-96980552D01*
X134516043Y-96983743D01*
G37*
G36*
X153516043Y-97763191D02*
G01*
X153548727Y-97767494D01*
X153556948Y-97771327D01*
X153576537Y-97775224D01*
X153602480Y-97792559D01*
X153613608Y-97797748D01*
X153620378Y-97804518D01*
X153641421Y-97818579D01*
X153655481Y-97839621D01*
X153662251Y-97846391D01*
X153667438Y-97857516D01*
X153684776Y-97883463D01*
X153688672Y-97903053D01*
X153692505Y-97911272D01*
X153696806Y-97943945D01*
X153700000Y-97960000D01*
X153700000Y-100160000D01*
X153696805Y-100176058D01*
X153692505Y-100208727D01*
X153688673Y-100216944D01*
X153684776Y-100236537D01*
X153667437Y-100262485D01*
X153662251Y-100273608D01*
X153655483Y-100280375D01*
X153641421Y-100301421D01*
X153620375Y-100315483D01*
X153613608Y-100322251D01*
X153602485Y-100327437D01*
X153576537Y-100344776D01*
X153556944Y-100348673D01*
X153548727Y-100352505D01*
X153516056Y-100356806D01*
X153500000Y-100360000D01*
X151300000Y-100360000D01*
X151283943Y-100356806D01*
X151251272Y-100352505D01*
X151243053Y-100348672D01*
X151223463Y-100344776D01*
X151197516Y-100327438D01*
X151186391Y-100322251D01*
X151179621Y-100315481D01*
X151158579Y-100301421D01*
X151144518Y-100280378D01*
X151137748Y-100273608D01*
X151132559Y-100262480D01*
X151115224Y-100236537D01*
X151111327Y-100216948D01*
X151107494Y-100208727D01*
X151103190Y-100176041D01*
X151100000Y-100160000D01*
X151100000Y-97960000D01*
X151103190Y-97943958D01*
X151107494Y-97911272D01*
X151111327Y-97903049D01*
X151115224Y-97883463D01*
X151132557Y-97857521D01*
X151137748Y-97846391D01*
X151144520Y-97839618D01*
X151158579Y-97818579D01*
X151179618Y-97804520D01*
X151186391Y-97797748D01*
X151197521Y-97792557D01*
X151223463Y-97775224D01*
X151243049Y-97771327D01*
X151251272Y-97767494D01*
X151283960Y-97763190D01*
X151300000Y-97760000D01*
X153500000Y-97760000D01*
X153516043Y-97763191D01*
G37*
G36*
X139748724Y-96794799D02*
G01*
X139792218Y-96794799D01*
X139840658Y-96803853D01*
X139895090Y-96809215D01*
X139936438Y-96821757D01*
X139973518Y-96828689D01*
X140024868Y-96848582D01*
X140082683Y-96866120D01*
X140115720Y-96883778D01*
X140145501Y-96895316D01*
X140197245Y-96927354D01*
X140255570Y-96958530D01*
X140280076Y-96978641D01*
X140302311Y-96992409D01*
X140351575Y-97037319D01*
X140407107Y-97082893D01*
X140423563Y-97102945D01*
X140438611Y-97116663D01*
X140482297Y-97174513D01*
X140531470Y-97234430D01*
X140540977Y-97252218D01*
X140549762Y-97263850D01*
X140584713Y-97334040D01*
X140623880Y-97407317D01*
X140628056Y-97421086D01*
X140631972Y-97428949D01*
X140655105Y-97510255D01*
X140680785Y-97594910D01*
X140681628Y-97603473D01*
X140682446Y-97606347D01*
X140690943Y-97698047D01*
X140700000Y-97790000D01*
X140690942Y-97881960D01*
X140682446Y-97973652D01*
X140681628Y-97976524D01*
X140680785Y-97985090D01*
X140655100Y-98069759D01*
X140631972Y-98151050D01*
X140628057Y-98158911D01*
X140623880Y-98172683D01*
X140584705Y-98245972D01*
X140549762Y-98316149D01*
X140540979Y-98327778D01*
X140531470Y-98345570D01*
X140482288Y-98405498D01*
X140438611Y-98463336D01*
X140423566Y-98477050D01*
X140407107Y-98497107D01*
X140351564Y-98542689D01*
X140302311Y-98587590D01*
X140280081Y-98601354D01*
X140255570Y-98621470D01*
X140197233Y-98652651D01*
X140145501Y-98684683D01*
X140115727Y-98696217D01*
X140082683Y-98713880D01*
X140024856Y-98731421D01*
X139973518Y-98751310D01*
X139936445Y-98758240D01*
X139895090Y-98770785D01*
X139840655Y-98776146D01*
X139792218Y-98785201D01*
X139748724Y-98785201D01*
X139700000Y-98790000D01*
X139651276Y-98785201D01*
X139607782Y-98785201D01*
X139559343Y-98776146D01*
X139504910Y-98770785D01*
X139463555Y-98758240D01*
X139426481Y-98751310D01*
X139375139Y-98731419D01*
X139317317Y-98713880D01*
X139284275Y-98696218D01*
X139254498Y-98684683D01*
X139202759Y-98652647D01*
X139144430Y-98621470D01*
X139119921Y-98601356D01*
X139097688Y-98587590D01*
X139048425Y-98542681D01*
X138992893Y-98497107D01*
X138976436Y-98477054D01*
X138961388Y-98463336D01*
X138917699Y-98405482D01*
X138868530Y-98345570D01*
X138859022Y-98327783D01*
X138850237Y-98316149D01*
X138815279Y-98245945D01*
X138776120Y-98172683D01*
X138771943Y-98158916D01*
X138768027Y-98151050D01*
X138744882Y-98069706D01*
X138719215Y-97985090D01*
X138718371Y-97976530D01*
X138717553Y-97973652D01*
X138709040Y-97881788D01*
X138700000Y-97790000D01*
X138709039Y-97698219D01*
X138717553Y-97606347D01*
X138718372Y-97603468D01*
X138719215Y-97594910D01*
X138744878Y-97510308D01*
X138768027Y-97428949D01*
X138771944Y-97421081D01*
X138776120Y-97407317D01*
X138815272Y-97334068D01*
X138850237Y-97263850D01*
X138859024Y-97252213D01*
X138868530Y-97234430D01*
X138917689Y-97174528D01*
X138961388Y-97116663D01*
X138976439Y-97102941D01*
X138992893Y-97082893D01*
X139048414Y-97037327D01*
X139097688Y-96992409D01*
X139119926Y-96978639D01*
X139144430Y-96958530D01*
X139202747Y-96927358D01*
X139254498Y-96895316D01*
X139284282Y-96883777D01*
X139317317Y-96866120D01*
X139375127Y-96848583D01*
X139426481Y-96828689D01*
X139463562Y-96821757D01*
X139504910Y-96809215D01*
X139559340Y-96803853D01*
X139607782Y-96794799D01*
X139651276Y-96794799D01*
X139700000Y-96790000D01*
X139748724Y-96794799D01*
G37*
G36*
X147368724Y-96794799D02*
G01*
X147412218Y-96794799D01*
X147460658Y-96803853D01*
X147515090Y-96809215D01*
X147556438Y-96821757D01*
X147593518Y-96828689D01*
X147644868Y-96848582D01*
X147702683Y-96866120D01*
X147735720Y-96883778D01*
X147765501Y-96895316D01*
X147817245Y-96927354D01*
X147875570Y-96958530D01*
X147900076Y-96978641D01*
X147922311Y-96992409D01*
X147971575Y-97037319D01*
X148027107Y-97082893D01*
X148043563Y-97102945D01*
X148058611Y-97116663D01*
X148102297Y-97174513D01*
X148151470Y-97234430D01*
X148160977Y-97252218D01*
X148169762Y-97263850D01*
X148204713Y-97334040D01*
X148243880Y-97407317D01*
X148248056Y-97421086D01*
X148251972Y-97428949D01*
X148275105Y-97510255D01*
X148300785Y-97594910D01*
X148301628Y-97603473D01*
X148302446Y-97606347D01*
X148310943Y-97698047D01*
X148320000Y-97790000D01*
X148310942Y-97881960D01*
X148302446Y-97973652D01*
X148301628Y-97976524D01*
X148300785Y-97985090D01*
X148275100Y-98069759D01*
X148251972Y-98151050D01*
X148248057Y-98158911D01*
X148243880Y-98172683D01*
X148204705Y-98245972D01*
X148169762Y-98316149D01*
X148160979Y-98327778D01*
X148151470Y-98345570D01*
X148102288Y-98405498D01*
X148058611Y-98463336D01*
X148043566Y-98477050D01*
X148027107Y-98497107D01*
X147971564Y-98542689D01*
X147922311Y-98587590D01*
X147900081Y-98601354D01*
X147875570Y-98621470D01*
X147817233Y-98652651D01*
X147765501Y-98684683D01*
X147735727Y-98696217D01*
X147702683Y-98713880D01*
X147644856Y-98731421D01*
X147593518Y-98751310D01*
X147556445Y-98758240D01*
X147515090Y-98770785D01*
X147460655Y-98776146D01*
X147412218Y-98785201D01*
X147368724Y-98785201D01*
X147320000Y-98790000D01*
X147271276Y-98785201D01*
X147227782Y-98785201D01*
X147179343Y-98776146D01*
X147124910Y-98770785D01*
X147083555Y-98758240D01*
X147046481Y-98751310D01*
X146995139Y-98731419D01*
X146937317Y-98713880D01*
X146904275Y-98696218D01*
X146874498Y-98684683D01*
X146822759Y-98652647D01*
X146764430Y-98621470D01*
X146739921Y-98601356D01*
X146717688Y-98587590D01*
X146668425Y-98542681D01*
X146612893Y-98497107D01*
X146596436Y-98477054D01*
X146581388Y-98463336D01*
X146537699Y-98405482D01*
X146488530Y-98345570D01*
X146479022Y-98327783D01*
X146470237Y-98316149D01*
X146435279Y-98245945D01*
X146396120Y-98172683D01*
X146391943Y-98158916D01*
X146388027Y-98151050D01*
X146364882Y-98069706D01*
X146339215Y-97985090D01*
X146338371Y-97976530D01*
X146337553Y-97973652D01*
X146329040Y-97881788D01*
X146320000Y-97790000D01*
X146329039Y-97698219D01*
X146337553Y-97606347D01*
X146338372Y-97603468D01*
X146339215Y-97594910D01*
X146364878Y-97510308D01*
X146388027Y-97428949D01*
X146391944Y-97421081D01*
X146396120Y-97407317D01*
X146435272Y-97334068D01*
X146470237Y-97263850D01*
X146479024Y-97252213D01*
X146488530Y-97234430D01*
X146537689Y-97174528D01*
X146581388Y-97116663D01*
X146596439Y-97102941D01*
X146612893Y-97082893D01*
X146668414Y-97037327D01*
X146717688Y-96992409D01*
X146739926Y-96978639D01*
X146764430Y-96958530D01*
X146822747Y-96927358D01*
X146874498Y-96895316D01*
X146904282Y-96883777D01*
X146937317Y-96866120D01*
X146995127Y-96848583D01*
X147046481Y-96828689D01*
X147083562Y-96821757D01*
X147124910Y-96809215D01*
X147179340Y-96803853D01*
X147227782Y-96794799D01*
X147271276Y-96794799D01*
X147320000Y-96790000D01*
X147368724Y-96794799D01*
G37*
G36*
X134516043Y-92594855D02*
G01*
X134548727Y-92599158D01*
X134556948Y-92602991D01*
X134576537Y-92606888D01*
X134602480Y-92624223D01*
X134613608Y-92629412D01*
X134620378Y-92636182D01*
X134641421Y-92650243D01*
X134655481Y-92671285D01*
X134662251Y-92678055D01*
X134667438Y-92689180D01*
X134684776Y-92715127D01*
X134688672Y-92734717D01*
X134692505Y-92742936D01*
X134696806Y-92775609D01*
X134700000Y-92791664D01*
X134700000Y-96041664D01*
X134696805Y-96057722D01*
X134692505Y-96090391D01*
X134688673Y-96098608D01*
X134684776Y-96118201D01*
X134667437Y-96144149D01*
X134662251Y-96155272D01*
X134655483Y-96162039D01*
X134641421Y-96183085D01*
X134620375Y-96197147D01*
X134613608Y-96203915D01*
X134602485Y-96209101D01*
X134576537Y-96226440D01*
X134556944Y-96230337D01*
X134548727Y-96234169D01*
X134516056Y-96238470D01*
X134500000Y-96241664D01*
X123500000Y-96241664D01*
X123483943Y-96238470D01*
X123451272Y-96234169D01*
X123443053Y-96230336D01*
X123423463Y-96226440D01*
X123397516Y-96209102D01*
X123386391Y-96203915D01*
X123379621Y-96197145D01*
X123358579Y-96183085D01*
X123344518Y-96162042D01*
X123337748Y-96155272D01*
X123332559Y-96144144D01*
X123315224Y-96118201D01*
X123311327Y-96098612D01*
X123307494Y-96090391D01*
X123303190Y-96057705D01*
X123300000Y-96041664D01*
X123300000Y-92791664D01*
X123303190Y-92775622D01*
X123307494Y-92742936D01*
X123311327Y-92734713D01*
X123315224Y-92715127D01*
X123332557Y-92689185D01*
X123337748Y-92678055D01*
X123344520Y-92671282D01*
X123358579Y-92650243D01*
X123379618Y-92636184D01*
X123386391Y-92629412D01*
X123397521Y-92624221D01*
X123423463Y-92606888D01*
X123443049Y-92602991D01*
X123451272Y-92599158D01*
X123483960Y-92594854D01*
X123500000Y-92591664D01*
X134500000Y-92591664D01*
X134516043Y-92594855D01*
G37*
G36*
X139748724Y-92984799D02*
G01*
X139792218Y-92984799D01*
X139840658Y-92993853D01*
X139895090Y-92999215D01*
X139936438Y-93011757D01*
X139973518Y-93018689D01*
X140024868Y-93038582D01*
X140082683Y-93056120D01*
X140115720Y-93073778D01*
X140145501Y-93085316D01*
X140197245Y-93117354D01*
X140255570Y-93148530D01*
X140280076Y-93168641D01*
X140302311Y-93182409D01*
X140351575Y-93227319D01*
X140407107Y-93272893D01*
X140423563Y-93292945D01*
X140438611Y-93306663D01*
X140482297Y-93364513D01*
X140531470Y-93424430D01*
X140540977Y-93442218D01*
X140549762Y-93453850D01*
X140584713Y-93524040D01*
X140623880Y-93597317D01*
X140628056Y-93611086D01*
X140631972Y-93618949D01*
X140655105Y-93700255D01*
X140680785Y-93784910D01*
X140681628Y-93793473D01*
X140682446Y-93796347D01*
X140690943Y-93888047D01*
X140700000Y-93980000D01*
X140690942Y-94071960D01*
X140682446Y-94163652D01*
X140681628Y-94166524D01*
X140680785Y-94175090D01*
X140655100Y-94259759D01*
X140631972Y-94341050D01*
X140628057Y-94348911D01*
X140623880Y-94362683D01*
X140584705Y-94435972D01*
X140549762Y-94506149D01*
X140540979Y-94517778D01*
X140531470Y-94535570D01*
X140482288Y-94595498D01*
X140438611Y-94653336D01*
X140423566Y-94667050D01*
X140407107Y-94687107D01*
X140351564Y-94732689D01*
X140302311Y-94777590D01*
X140280081Y-94791354D01*
X140255570Y-94811470D01*
X140197233Y-94842651D01*
X140145501Y-94874683D01*
X140115727Y-94886217D01*
X140082683Y-94903880D01*
X140024856Y-94921421D01*
X139973518Y-94941310D01*
X139936445Y-94948240D01*
X139895090Y-94960785D01*
X139840655Y-94966146D01*
X139792218Y-94975201D01*
X139748724Y-94975201D01*
X139700000Y-94980000D01*
X139651276Y-94975201D01*
X139607782Y-94975201D01*
X139559343Y-94966146D01*
X139504910Y-94960785D01*
X139463555Y-94948240D01*
X139426481Y-94941310D01*
X139375139Y-94921419D01*
X139317317Y-94903880D01*
X139284275Y-94886218D01*
X139254498Y-94874683D01*
X139202759Y-94842647D01*
X139144430Y-94811470D01*
X139119921Y-94791356D01*
X139097688Y-94777590D01*
X139048425Y-94732681D01*
X138992893Y-94687107D01*
X138976436Y-94667054D01*
X138961388Y-94653336D01*
X138917699Y-94595482D01*
X138868530Y-94535570D01*
X138859022Y-94517783D01*
X138850237Y-94506149D01*
X138815279Y-94435945D01*
X138776120Y-94362683D01*
X138771943Y-94348916D01*
X138768027Y-94341050D01*
X138744882Y-94259706D01*
X138719215Y-94175090D01*
X138718371Y-94166530D01*
X138717553Y-94163652D01*
X138709040Y-94071788D01*
X138700000Y-93980000D01*
X138709039Y-93888219D01*
X138717553Y-93796347D01*
X138718372Y-93793468D01*
X138719215Y-93784910D01*
X138744878Y-93700308D01*
X138768027Y-93618949D01*
X138771944Y-93611081D01*
X138776120Y-93597317D01*
X138815272Y-93524068D01*
X138850237Y-93453850D01*
X138859024Y-93442213D01*
X138868530Y-93424430D01*
X138917689Y-93364528D01*
X138961388Y-93306663D01*
X138976439Y-93292941D01*
X138992893Y-93272893D01*
X139048414Y-93227327D01*
X139097688Y-93182409D01*
X139119926Y-93168639D01*
X139144430Y-93148530D01*
X139202747Y-93117358D01*
X139254498Y-93085316D01*
X139284282Y-93073777D01*
X139317317Y-93056120D01*
X139375127Y-93038583D01*
X139426481Y-93018689D01*
X139463562Y-93011757D01*
X139504910Y-92999215D01*
X139559340Y-92993853D01*
X139607782Y-92984799D01*
X139651276Y-92984799D01*
X139700000Y-92980000D01*
X139748724Y-92984799D01*
G37*
G36*
X147368724Y-92984799D02*
G01*
X147412218Y-92984799D01*
X147460658Y-92993853D01*
X147515090Y-92999215D01*
X147556438Y-93011757D01*
X147593518Y-93018689D01*
X147644868Y-93038582D01*
X147702683Y-93056120D01*
X147735720Y-93073778D01*
X147765501Y-93085316D01*
X147817245Y-93117354D01*
X147875570Y-93148530D01*
X147900076Y-93168641D01*
X147922311Y-93182409D01*
X147971575Y-93227319D01*
X148027107Y-93272893D01*
X148043563Y-93292945D01*
X148058611Y-93306663D01*
X148102297Y-93364513D01*
X148151470Y-93424430D01*
X148160977Y-93442218D01*
X148169762Y-93453850D01*
X148204713Y-93524040D01*
X148243880Y-93597317D01*
X148248056Y-93611086D01*
X148251972Y-93618949D01*
X148275105Y-93700255D01*
X148300785Y-93784910D01*
X148301628Y-93793473D01*
X148302446Y-93796347D01*
X148310943Y-93888047D01*
X148320000Y-93980000D01*
X148310942Y-94071960D01*
X148302446Y-94163652D01*
X148301628Y-94166524D01*
X148300785Y-94175090D01*
X148275100Y-94259759D01*
X148251972Y-94341050D01*
X148248057Y-94348911D01*
X148243880Y-94362683D01*
X148204705Y-94435972D01*
X148169762Y-94506149D01*
X148160979Y-94517778D01*
X148151470Y-94535570D01*
X148102288Y-94595498D01*
X148058611Y-94653336D01*
X148043566Y-94667050D01*
X148027107Y-94687107D01*
X147971564Y-94732689D01*
X147922311Y-94777590D01*
X147900081Y-94791354D01*
X147875570Y-94811470D01*
X147817233Y-94842651D01*
X147765501Y-94874683D01*
X147735727Y-94886217D01*
X147702683Y-94903880D01*
X147644856Y-94921421D01*
X147593518Y-94941310D01*
X147556445Y-94948240D01*
X147515090Y-94960785D01*
X147460655Y-94966146D01*
X147412218Y-94975201D01*
X147368724Y-94975201D01*
X147320000Y-94980000D01*
X147271276Y-94975201D01*
X147227782Y-94975201D01*
X147179343Y-94966146D01*
X147124910Y-94960785D01*
X147083555Y-94948240D01*
X147046481Y-94941310D01*
X146995139Y-94921419D01*
X146937317Y-94903880D01*
X146904275Y-94886218D01*
X146874498Y-94874683D01*
X146822759Y-94842647D01*
X146764430Y-94811470D01*
X146739921Y-94791356D01*
X146717688Y-94777590D01*
X146668425Y-94732681D01*
X146612893Y-94687107D01*
X146596436Y-94667054D01*
X146581388Y-94653336D01*
X146537699Y-94595482D01*
X146488530Y-94535570D01*
X146479022Y-94517783D01*
X146470237Y-94506149D01*
X146435279Y-94435945D01*
X146396120Y-94362683D01*
X146391943Y-94348916D01*
X146388027Y-94341050D01*
X146364882Y-94259706D01*
X146339215Y-94175090D01*
X146338371Y-94166530D01*
X146337553Y-94163652D01*
X146329040Y-94071788D01*
X146320000Y-93980000D01*
X146329039Y-93888219D01*
X146337553Y-93796347D01*
X146338372Y-93793468D01*
X146339215Y-93784910D01*
X146364878Y-93700308D01*
X146388027Y-93618949D01*
X146391944Y-93611081D01*
X146396120Y-93597317D01*
X146435272Y-93524068D01*
X146470237Y-93453850D01*
X146479024Y-93442213D01*
X146488530Y-93424430D01*
X146537689Y-93364528D01*
X146581388Y-93306663D01*
X146596439Y-93292941D01*
X146612893Y-93272893D01*
X146668414Y-93227327D01*
X146717688Y-93182409D01*
X146739926Y-93168639D01*
X146764430Y-93148530D01*
X146822747Y-93117358D01*
X146874498Y-93085316D01*
X146904282Y-93073777D01*
X146937317Y-93056120D01*
X146995127Y-93038583D01*
X147046481Y-93018689D01*
X147083562Y-93011757D01*
X147124910Y-92999215D01*
X147179340Y-92993853D01*
X147227782Y-92984799D01*
X147271276Y-92984799D01*
X147320000Y-92980000D01*
X147368724Y-92984799D01*
G37*
G36*
X152455630Y-90144867D02*
G01*
X152507318Y-90144867D01*
X152564284Y-90154373D01*
X152625743Y-90159750D01*
X152674009Y-90172682D01*
X152719026Y-90180195D01*
X152779419Y-90200927D01*
X152844626Y-90218400D01*
X152884564Y-90237023D01*
X152922032Y-90249886D01*
X152983587Y-90283198D01*
X153050000Y-90314167D01*
X153081268Y-90336061D01*
X153110796Y-90352041D01*
X153170903Y-90398824D01*
X153235624Y-90444142D01*
X153258433Y-90466951D01*
X153280177Y-90483875D01*
X153336033Y-90544551D01*
X153395858Y-90604376D01*
X153410958Y-90625942D01*
X153425543Y-90641785D01*
X153474201Y-90716261D01*
X153525833Y-90790000D01*
X153534450Y-90808480D01*
X153542937Y-90821470D01*
X153581459Y-90909292D01*
X153621600Y-90995374D01*
X153625338Y-91009324D01*
X153629158Y-91018033D01*
X153654736Y-91119039D01*
X153680250Y-91214257D01*
X153680989Y-91222711D01*
X153681847Y-91226097D01*
X153691891Y-91347321D01*
X153700000Y-91440000D01*
X153691890Y-91532686D01*
X153681847Y-91653902D01*
X153680989Y-91657286D01*
X153680250Y-91665743D01*
X153654731Y-91760977D01*
X153629158Y-91861966D01*
X153625338Y-91870673D01*
X153621600Y-91884626D01*
X153581452Y-91970723D01*
X153542937Y-92058529D01*
X153534452Y-92071515D01*
X153525833Y-92090000D01*
X153474191Y-92163751D01*
X153425543Y-92238214D01*
X153410961Y-92254053D01*
X153395858Y-92275624D01*
X153336021Y-92335460D01*
X153280177Y-92396124D01*
X153258437Y-92413044D01*
X153235624Y-92435858D01*
X153170890Y-92481184D01*
X153110796Y-92527958D01*
X153081274Y-92543934D01*
X153050000Y-92565833D01*
X152983573Y-92596807D01*
X152922032Y-92630113D01*
X152884573Y-92642972D01*
X152844626Y-92661600D01*
X152779406Y-92679075D01*
X152719026Y-92699804D01*
X152674016Y-92707314D01*
X152625743Y-92720250D01*
X152564280Y-92725627D01*
X152507318Y-92735133D01*
X152455630Y-92735133D01*
X152400000Y-92740000D01*
X152344370Y-92735133D01*
X152292682Y-92735133D01*
X152235718Y-92725627D01*
X152174257Y-92720250D01*
X152125984Y-92707315D01*
X152080973Y-92699804D01*
X152020588Y-92679074D01*
X151955374Y-92661600D01*
X151915429Y-92642973D01*
X151877967Y-92630113D01*
X151816418Y-92596804D01*
X151750000Y-92565833D01*
X151718728Y-92543936D01*
X151689203Y-92527958D01*
X151629099Y-92481177D01*
X151564376Y-92435858D01*
X151541565Y-92413047D01*
X151519822Y-92396124D01*
X151463965Y-92335447D01*
X151404142Y-92275624D01*
X151389041Y-92254057D01*
X151374456Y-92238214D01*
X151325793Y-92163730D01*
X151274167Y-92090000D01*
X151265550Y-92071521D01*
X151257062Y-92058529D01*
X151218530Y-91970687D01*
X151178400Y-91884626D01*
X151174662Y-91870678D01*
X151170841Y-91861966D01*
X151145250Y-91760909D01*
X151119750Y-91665743D01*
X151119010Y-91657293D01*
X151118152Y-91653902D01*
X151108090Y-91532470D01*
X151100000Y-91440000D01*
X151108089Y-91347537D01*
X151118152Y-91226097D01*
X151119010Y-91222705D01*
X151119750Y-91214257D01*
X151145245Y-91119107D01*
X151170841Y-91018033D01*
X151174663Y-91009318D01*
X151178400Y-90995374D01*
X151218523Y-90909328D01*
X151257062Y-90821470D01*
X151265551Y-90808475D01*
X151274167Y-90790000D01*
X151325783Y-90716283D01*
X151374456Y-90641785D01*
X151389044Y-90625937D01*
X151404142Y-90604376D01*
X151463953Y-90544564D01*
X151519822Y-90483875D01*
X151541570Y-90466947D01*
X151564376Y-90444142D01*
X151629086Y-90398831D01*
X151689203Y-90352041D01*
X151718735Y-90336058D01*
X151750000Y-90314167D01*
X151816405Y-90283201D01*
X151877967Y-90249886D01*
X151915437Y-90237022D01*
X151955374Y-90218400D01*
X152020575Y-90200929D01*
X152080973Y-90180195D01*
X152125992Y-90172682D01*
X152174257Y-90159750D01*
X152235715Y-90154373D01*
X152292682Y-90144867D01*
X152344370Y-90144867D01*
X152400000Y-90140000D01*
X152455630Y-90144867D01*
G37*
G36*
X134516043Y-88205967D02*
G01*
X134548727Y-88210270D01*
X134556948Y-88214103D01*
X134576537Y-88218000D01*
X134602480Y-88235335D01*
X134613608Y-88240524D01*
X134620378Y-88247294D01*
X134641421Y-88261355D01*
X134655481Y-88282397D01*
X134662251Y-88289167D01*
X134667438Y-88300292D01*
X134684776Y-88326239D01*
X134688672Y-88345829D01*
X134692505Y-88354048D01*
X134696806Y-88386721D01*
X134700000Y-88402776D01*
X134700000Y-91652776D01*
X134696805Y-91668834D01*
X134692505Y-91701503D01*
X134688673Y-91709720D01*
X134684776Y-91729313D01*
X134667437Y-91755261D01*
X134662251Y-91766384D01*
X134655483Y-91773151D01*
X134641421Y-91794197D01*
X134620375Y-91808259D01*
X134613608Y-91815027D01*
X134602485Y-91820213D01*
X134576537Y-91837552D01*
X134556944Y-91841449D01*
X134548727Y-91845281D01*
X134516056Y-91849582D01*
X134500000Y-91852776D01*
X123500000Y-91852776D01*
X123483943Y-91849582D01*
X123451272Y-91845281D01*
X123443053Y-91841448D01*
X123423463Y-91837552D01*
X123397516Y-91820214D01*
X123386391Y-91815027D01*
X123379621Y-91808257D01*
X123358579Y-91794197D01*
X123344518Y-91773154D01*
X123337748Y-91766384D01*
X123332559Y-91755256D01*
X123315224Y-91729313D01*
X123311327Y-91709724D01*
X123307494Y-91701503D01*
X123303190Y-91668817D01*
X123300000Y-91652776D01*
X123300000Y-88402776D01*
X123303190Y-88386734D01*
X123307494Y-88354048D01*
X123311327Y-88345825D01*
X123315224Y-88326239D01*
X123332557Y-88300297D01*
X123337748Y-88289167D01*
X123344520Y-88282394D01*
X123358579Y-88261355D01*
X123379618Y-88247296D01*
X123386391Y-88240524D01*
X123397521Y-88235333D01*
X123423463Y-88218000D01*
X123443049Y-88214103D01*
X123451272Y-88210270D01*
X123483960Y-88205966D01*
X123500000Y-88202776D01*
X134500000Y-88202776D01*
X134516043Y-88205967D01*
G37*
G36*
X140516043Y-89173191D02*
G01*
X140548727Y-89177494D01*
X140556948Y-89181327D01*
X140576537Y-89185224D01*
X140602480Y-89202559D01*
X140613608Y-89207748D01*
X140620378Y-89214518D01*
X140641421Y-89228579D01*
X140655481Y-89249621D01*
X140662251Y-89256391D01*
X140667438Y-89267516D01*
X140684776Y-89293463D01*
X140688672Y-89313053D01*
X140692505Y-89321272D01*
X140696806Y-89353945D01*
X140700000Y-89370000D01*
X140700000Y-90970000D01*
X140696805Y-90986058D01*
X140692505Y-91018727D01*
X140688673Y-91026944D01*
X140684776Y-91046537D01*
X140667437Y-91072485D01*
X140662251Y-91083608D01*
X140655483Y-91090375D01*
X140641421Y-91111421D01*
X140620375Y-91125483D01*
X140613608Y-91132251D01*
X140602485Y-91137437D01*
X140576537Y-91154776D01*
X140556944Y-91158673D01*
X140548727Y-91162505D01*
X140516056Y-91166806D01*
X140500000Y-91170000D01*
X138900000Y-91170000D01*
X138883943Y-91166806D01*
X138851272Y-91162505D01*
X138843053Y-91158672D01*
X138823463Y-91154776D01*
X138797516Y-91137438D01*
X138786391Y-91132251D01*
X138779621Y-91125481D01*
X138758579Y-91111421D01*
X138744518Y-91090378D01*
X138737748Y-91083608D01*
X138732559Y-91072480D01*
X138715224Y-91046537D01*
X138711327Y-91026948D01*
X138707494Y-91018727D01*
X138703190Y-90986041D01*
X138700000Y-90970000D01*
X138700000Y-89370000D01*
X138703190Y-89353958D01*
X138707494Y-89321272D01*
X138711327Y-89313049D01*
X138715224Y-89293463D01*
X138732557Y-89267521D01*
X138737748Y-89256391D01*
X138744520Y-89249618D01*
X138758579Y-89228579D01*
X138779618Y-89214520D01*
X138786391Y-89207748D01*
X138797521Y-89202557D01*
X138823463Y-89185224D01*
X138843049Y-89181327D01*
X138851272Y-89177494D01*
X138883960Y-89173190D01*
X138900000Y-89170000D01*
X140500000Y-89170000D01*
X140516043Y-89173191D01*
G37*
G36*
X147368724Y-89174799D02*
G01*
X147412218Y-89174799D01*
X147460658Y-89183853D01*
X147515090Y-89189215D01*
X147556438Y-89201757D01*
X147593518Y-89208689D01*
X147644868Y-89228582D01*
X147702683Y-89246120D01*
X147735720Y-89263778D01*
X147765501Y-89275316D01*
X147817245Y-89307354D01*
X147875570Y-89338530D01*
X147900076Y-89358641D01*
X147922311Y-89372409D01*
X147971575Y-89417319D01*
X148027107Y-89462893D01*
X148043563Y-89482945D01*
X148058611Y-89496663D01*
X148102297Y-89554513D01*
X148151470Y-89614430D01*
X148160977Y-89632218D01*
X148169762Y-89643850D01*
X148204713Y-89714040D01*
X148243880Y-89787317D01*
X148248056Y-89801086D01*
X148251972Y-89808949D01*
X148275105Y-89890255D01*
X148300785Y-89974910D01*
X148301628Y-89983473D01*
X148302446Y-89986347D01*
X148310943Y-90078047D01*
X148320000Y-90170000D01*
X148310942Y-90261960D01*
X148302446Y-90353652D01*
X148301628Y-90356524D01*
X148300785Y-90365090D01*
X148275100Y-90449759D01*
X148251972Y-90531050D01*
X148248057Y-90538911D01*
X148243880Y-90552683D01*
X148204705Y-90625972D01*
X148169762Y-90696149D01*
X148160979Y-90707778D01*
X148151470Y-90725570D01*
X148102288Y-90785498D01*
X148058611Y-90843336D01*
X148043566Y-90857050D01*
X148027107Y-90877107D01*
X147971564Y-90922689D01*
X147922311Y-90967590D01*
X147900081Y-90981354D01*
X147875570Y-91001470D01*
X147817233Y-91032651D01*
X147765501Y-91064683D01*
X147735727Y-91076217D01*
X147702683Y-91093880D01*
X147644856Y-91111421D01*
X147593518Y-91131310D01*
X147556445Y-91138240D01*
X147515090Y-91150785D01*
X147460655Y-91156146D01*
X147412218Y-91165201D01*
X147368724Y-91165201D01*
X147320000Y-91170000D01*
X147271276Y-91165201D01*
X147227782Y-91165201D01*
X147179343Y-91156146D01*
X147124910Y-91150785D01*
X147083555Y-91138240D01*
X147046481Y-91131310D01*
X146995139Y-91111419D01*
X146937317Y-91093880D01*
X146904275Y-91076218D01*
X146874498Y-91064683D01*
X146822759Y-91032647D01*
X146764430Y-91001470D01*
X146739921Y-90981356D01*
X146717688Y-90967590D01*
X146668425Y-90922681D01*
X146612893Y-90877107D01*
X146596436Y-90857054D01*
X146581388Y-90843336D01*
X146537699Y-90785482D01*
X146488530Y-90725570D01*
X146479022Y-90707783D01*
X146470237Y-90696149D01*
X146435279Y-90625945D01*
X146396120Y-90552683D01*
X146391943Y-90538916D01*
X146388027Y-90531050D01*
X146364882Y-90449706D01*
X146339215Y-90365090D01*
X146338371Y-90356530D01*
X146337553Y-90353652D01*
X146329040Y-90261788D01*
X146320000Y-90170000D01*
X146329039Y-90078219D01*
X146337553Y-89986347D01*
X146338372Y-89983468D01*
X146339215Y-89974910D01*
X146364878Y-89890308D01*
X146388027Y-89808949D01*
X146391944Y-89801081D01*
X146396120Y-89787317D01*
X146435272Y-89714068D01*
X146470237Y-89643850D01*
X146479024Y-89632213D01*
X146488530Y-89614430D01*
X146537689Y-89554528D01*
X146581388Y-89496663D01*
X146596439Y-89482941D01*
X146612893Y-89462893D01*
X146668414Y-89417327D01*
X146717688Y-89372409D01*
X146739926Y-89358639D01*
X146764430Y-89338530D01*
X146822747Y-89307358D01*
X146874498Y-89275316D01*
X146904282Y-89263777D01*
X146937317Y-89246120D01*
X146995127Y-89228583D01*
X147046481Y-89208689D01*
X147083562Y-89201757D01*
X147124910Y-89189215D01*
X147179340Y-89183853D01*
X147227782Y-89174799D01*
X147271276Y-89174799D01*
X147320000Y-89170000D01*
X147368724Y-89174799D01*
G37*
G36*
X151185630Y-86334867D02*
G01*
X151237318Y-86334867D01*
X151294284Y-86344373D01*
X151355743Y-86349750D01*
X151404009Y-86362682D01*
X151449026Y-86370195D01*
X151509419Y-86390927D01*
X151574626Y-86408400D01*
X151614564Y-86427023D01*
X151652032Y-86439886D01*
X151713587Y-86473198D01*
X151780000Y-86504167D01*
X151811268Y-86526061D01*
X151840796Y-86542041D01*
X151900903Y-86588824D01*
X151965624Y-86634142D01*
X151988433Y-86656951D01*
X152010177Y-86673875D01*
X152066033Y-86734551D01*
X152125858Y-86794376D01*
X152140958Y-86815942D01*
X152155543Y-86831785D01*
X152204201Y-86906261D01*
X152255833Y-86980000D01*
X152264450Y-86998480D01*
X152272937Y-87011470D01*
X152311459Y-87099292D01*
X152351600Y-87185374D01*
X152355338Y-87199324D01*
X152359158Y-87208033D01*
X152384736Y-87309039D01*
X152410250Y-87404257D01*
X152410989Y-87412711D01*
X152411847Y-87416097D01*
X152421891Y-87537321D01*
X152430000Y-87630000D01*
X152421890Y-87722686D01*
X152411847Y-87843902D01*
X152410989Y-87847286D01*
X152410250Y-87855743D01*
X152384731Y-87950977D01*
X152359158Y-88051966D01*
X152355338Y-88060673D01*
X152351600Y-88074626D01*
X152311452Y-88160723D01*
X152272937Y-88248529D01*
X152264452Y-88261515D01*
X152255833Y-88280000D01*
X152204191Y-88353751D01*
X152155543Y-88428214D01*
X152140961Y-88444053D01*
X152125858Y-88465624D01*
X152066021Y-88525460D01*
X152010177Y-88586124D01*
X151988437Y-88603044D01*
X151965624Y-88625858D01*
X151900890Y-88671184D01*
X151840796Y-88717958D01*
X151811274Y-88733934D01*
X151780000Y-88755833D01*
X151713573Y-88786807D01*
X151652032Y-88820113D01*
X151614573Y-88832972D01*
X151574626Y-88851600D01*
X151509406Y-88869075D01*
X151449026Y-88889804D01*
X151404016Y-88897314D01*
X151355743Y-88910250D01*
X151294280Y-88915627D01*
X151237318Y-88925133D01*
X151185630Y-88925133D01*
X151130000Y-88930000D01*
X151074370Y-88925133D01*
X151022682Y-88925133D01*
X150965718Y-88915627D01*
X150904257Y-88910250D01*
X150855984Y-88897315D01*
X150810973Y-88889804D01*
X150750588Y-88869074D01*
X150685374Y-88851600D01*
X150645429Y-88832973D01*
X150607967Y-88820113D01*
X150546418Y-88786804D01*
X150480000Y-88755833D01*
X150448728Y-88733936D01*
X150419203Y-88717958D01*
X150359099Y-88671177D01*
X150294376Y-88625858D01*
X150271565Y-88603047D01*
X150249822Y-88586124D01*
X150193965Y-88525447D01*
X150134142Y-88465624D01*
X150119041Y-88444057D01*
X150104456Y-88428214D01*
X150055793Y-88353730D01*
X150004167Y-88280000D01*
X149995550Y-88261521D01*
X149987062Y-88248529D01*
X149948530Y-88160687D01*
X149908400Y-88074626D01*
X149904662Y-88060678D01*
X149900841Y-88051966D01*
X149875250Y-87950909D01*
X149849750Y-87855743D01*
X149849010Y-87847293D01*
X149848152Y-87843902D01*
X149838090Y-87722470D01*
X149830000Y-87630000D01*
X149838089Y-87537537D01*
X149848152Y-87416097D01*
X149849010Y-87412705D01*
X149849750Y-87404257D01*
X149875245Y-87309107D01*
X149900841Y-87208033D01*
X149904663Y-87199318D01*
X149908400Y-87185374D01*
X149948523Y-87099328D01*
X149987062Y-87011470D01*
X149995551Y-86998475D01*
X150004167Y-86980000D01*
X150055783Y-86906283D01*
X150104456Y-86831785D01*
X150119044Y-86815937D01*
X150134142Y-86794376D01*
X150193953Y-86734564D01*
X150249822Y-86673875D01*
X150271570Y-86656947D01*
X150294376Y-86634142D01*
X150359086Y-86588831D01*
X150419203Y-86542041D01*
X150448735Y-86526058D01*
X150480000Y-86504167D01*
X150546405Y-86473201D01*
X150607967Y-86439886D01*
X150645437Y-86427022D01*
X150685374Y-86408400D01*
X150750575Y-86390929D01*
X150810973Y-86370195D01*
X150855992Y-86362682D01*
X150904257Y-86349750D01*
X150965715Y-86344373D01*
X151022682Y-86334867D01*
X151074370Y-86334867D01*
X151130000Y-86330000D01*
X151185630Y-86334867D01*
G37*
G36*
X154988724Y-86634799D02*
G01*
X155032218Y-86634799D01*
X155080658Y-86643853D01*
X155135090Y-86649215D01*
X155176438Y-86661757D01*
X155213518Y-86668689D01*
X155264868Y-86688582D01*
X155322683Y-86706120D01*
X155355720Y-86723778D01*
X155385501Y-86735316D01*
X155437245Y-86767354D01*
X155495570Y-86798530D01*
X155520076Y-86818641D01*
X155542311Y-86832409D01*
X155591575Y-86877319D01*
X155647107Y-86922893D01*
X155663563Y-86942945D01*
X155678611Y-86956663D01*
X155722297Y-87014513D01*
X155771470Y-87074430D01*
X155780977Y-87092218D01*
X155789762Y-87103850D01*
X155824713Y-87174040D01*
X155863880Y-87247317D01*
X155868056Y-87261086D01*
X155871972Y-87268949D01*
X155895105Y-87350255D01*
X155920785Y-87434910D01*
X155921628Y-87443473D01*
X155922446Y-87446347D01*
X155930943Y-87538047D01*
X155940000Y-87630000D01*
X155930942Y-87721960D01*
X155922446Y-87813652D01*
X155921628Y-87816524D01*
X155920785Y-87825090D01*
X155895100Y-87909759D01*
X155871972Y-87991050D01*
X155868057Y-87998911D01*
X155863880Y-88012683D01*
X155824705Y-88085972D01*
X155789762Y-88156149D01*
X155780979Y-88167778D01*
X155771470Y-88185570D01*
X155722288Y-88245498D01*
X155678611Y-88303336D01*
X155663566Y-88317050D01*
X155647107Y-88337107D01*
X155591564Y-88382689D01*
X155542311Y-88427590D01*
X155520081Y-88441354D01*
X155495570Y-88461470D01*
X155437233Y-88492651D01*
X155385501Y-88524683D01*
X155355727Y-88536217D01*
X155322683Y-88553880D01*
X155264856Y-88571421D01*
X155213518Y-88591310D01*
X155176445Y-88598240D01*
X155135090Y-88610785D01*
X155080655Y-88616146D01*
X155032218Y-88625201D01*
X154988724Y-88625201D01*
X154940000Y-88630000D01*
X154891276Y-88625201D01*
X154847782Y-88625201D01*
X154799343Y-88616146D01*
X154744910Y-88610785D01*
X154703555Y-88598240D01*
X154666481Y-88591310D01*
X154615139Y-88571419D01*
X154557317Y-88553880D01*
X154524275Y-88536218D01*
X154494498Y-88524683D01*
X154442759Y-88492647D01*
X154384430Y-88461470D01*
X154359921Y-88441356D01*
X154337688Y-88427590D01*
X154288425Y-88382681D01*
X154232893Y-88337107D01*
X154216436Y-88317054D01*
X154201388Y-88303336D01*
X154157699Y-88245482D01*
X154108530Y-88185570D01*
X154099022Y-88167783D01*
X154090237Y-88156149D01*
X154055279Y-88085945D01*
X154016120Y-88012683D01*
X154011943Y-87998916D01*
X154008027Y-87991050D01*
X153984882Y-87909706D01*
X153959215Y-87825090D01*
X153958371Y-87816530D01*
X153957553Y-87813652D01*
X153949040Y-87721788D01*
X153940000Y-87630000D01*
X153949039Y-87538219D01*
X153957553Y-87446347D01*
X153958372Y-87443468D01*
X153959215Y-87434910D01*
X153984878Y-87350308D01*
X154008027Y-87268949D01*
X154011944Y-87261081D01*
X154016120Y-87247317D01*
X154055272Y-87174068D01*
X154090237Y-87103850D01*
X154099024Y-87092213D01*
X154108530Y-87074430D01*
X154157689Y-87014528D01*
X154201388Y-86956663D01*
X154216439Y-86942941D01*
X154232893Y-86922893D01*
X154288414Y-86877327D01*
X154337688Y-86832409D01*
X154359926Y-86818639D01*
X154384430Y-86798530D01*
X154442747Y-86767358D01*
X154494498Y-86735316D01*
X154524282Y-86723777D01*
X154557317Y-86706120D01*
X154615127Y-86688583D01*
X154666481Y-86668689D01*
X154703562Y-86661757D01*
X154744910Y-86649215D01*
X154799340Y-86643853D01*
X154847782Y-86634799D01*
X154891276Y-86634799D01*
X154940000Y-86630000D01*
X154988724Y-86634799D01*
G37*
G36*
X134516043Y-83817079D02*
G01*
X134548727Y-83821382D01*
X134556948Y-83825215D01*
X134576537Y-83829112D01*
X134602480Y-83846447D01*
X134613608Y-83851636D01*
X134620378Y-83858406D01*
X134641421Y-83872467D01*
X134655481Y-83893509D01*
X134662251Y-83900279D01*
X134667438Y-83911404D01*
X134684776Y-83937351D01*
X134688672Y-83956941D01*
X134692505Y-83965160D01*
X134696806Y-83997833D01*
X134700000Y-84013888D01*
X134700000Y-87263888D01*
X134696805Y-87279946D01*
X134692505Y-87312615D01*
X134688673Y-87320832D01*
X134684776Y-87340425D01*
X134667437Y-87366373D01*
X134662251Y-87377496D01*
X134655483Y-87384263D01*
X134641421Y-87405309D01*
X134620375Y-87419371D01*
X134613608Y-87426139D01*
X134602485Y-87431325D01*
X134576537Y-87448664D01*
X134556944Y-87452561D01*
X134548727Y-87456393D01*
X134516056Y-87460694D01*
X134500000Y-87463888D01*
X123500000Y-87463888D01*
X123483943Y-87460694D01*
X123451272Y-87456393D01*
X123443053Y-87452560D01*
X123423463Y-87448664D01*
X123397516Y-87431326D01*
X123386391Y-87426139D01*
X123379621Y-87419369D01*
X123358579Y-87405309D01*
X123344518Y-87384266D01*
X123337748Y-87377496D01*
X123332559Y-87366368D01*
X123315224Y-87340425D01*
X123311327Y-87320836D01*
X123307494Y-87312615D01*
X123303190Y-87279929D01*
X123300000Y-87263888D01*
X123300000Y-84013888D01*
X123303190Y-83997846D01*
X123307494Y-83965160D01*
X123311327Y-83956937D01*
X123315224Y-83937351D01*
X123332557Y-83911409D01*
X123337748Y-83900279D01*
X123344520Y-83893506D01*
X123358579Y-83872467D01*
X123379618Y-83858408D01*
X123386391Y-83851636D01*
X123397521Y-83846445D01*
X123423463Y-83829112D01*
X123443049Y-83825215D01*
X123451272Y-83821382D01*
X123483960Y-83817078D01*
X123500000Y-83813888D01*
X134500000Y-83813888D01*
X134516043Y-83817079D01*
G37*
G36*
X139748724Y-84094799D02*
G01*
X139792218Y-84094799D01*
X139840658Y-84103853D01*
X139895090Y-84109215D01*
X139936438Y-84121757D01*
X139973518Y-84128689D01*
X140024868Y-84148582D01*
X140082683Y-84166120D01*
X140115720Y-84183778D01*
X140145501Y-84195316D01*
X140197245Y-84227354D01*
X140255570Y-84258530D01*
X140280076Y-84278641D01*
X140302311Y-84292409D01*
X140351575Y-84337319D01*
X140407107Y-84382893D01*
X140423563Y-84402945D01*
X140438611Y-84416663D01*
X140482297Y-84474513D01*
X140531470Y-84534430D01*
X140540977Y-84552218D01*
X140549762Y-84563850D01*
X140584713Y-84634040D01*
X140623880Y-84707317D01*
X140628056Y-84721086D01*
X140631972Y-84728949D01*
X140655105Y-84810255D01*
X140680785Y-84894910D01*
X140681628Y-84903473D01*
X140682446Y-84906347D01*
X140690943Y-84998047D01*
X140700000Y-85090000D01*
X140690942Y-85181960D01*
X140682446Y-85273652D01*
X140681628Y-85276524D01*
X140680785Y-85285090D01*
X140655100Y-85369759D01*
X140631972Y-85451050D01*
X140628057Y-85458911D01*
X140623880Y-85472683D01*
X140584705Y-85545972D01*
X140549762Y-85616149D01*
X140540979Y-85627778D01*
X140531470Y-85645570D01*
X140482288Y-85705498D01*
X140438611Y-85763336D01*
X140423566Y-85777050D01*
X140407107Y-85797107D01*
X140351564Y-85842689D01*
X140302311Y-85887590D01*
X140280081Y-85901354D01*
X140255570Y-85921470D01*
X140197233Y-85952651D01*
X140145501Y-85984683D01*
X140115727Y-85996217D01*
X140082683Y-86013880D01*
X140024856Y-86031421D01*
X139973518Y-86051310D01*
X139936445Y-86058240D01*
X139895090Y-86070785D01*
X139840655Y-86076146D01*
X139792218Y-86085201D01*
X139748724Y-86085201D01*
X139700000Y-86090000D01*
X139651276Y-86085201D01*
X139607782Y-86085201D01*
X139559343Y-86076146D01*
X139504910Y-86070785D01*
X139463555Y-86058240D01*
X139426481Y-86051310D01*
X139375139Y-86031419D01*
X139317317Y-86013880D01*
X139284275Y-85996218D01*
X139254498Y-85984683D01*
X139202759Y-85952647D01*
X139144430Y-85921470D01*
X139119921Y-85901356D01*
X139097688Y-85887590D01*
X139048425Y-85842681D01*
X138992893Y-85797107D01*
X138976436Y-85777054D01*
X138961388Y-85763336D01*
X138917699Y-85705482D01*
X138868530Y-85645570D01*
X138859022Y-85627783D01*
X138850237Y-85616149D01*
X138815279Y-85545945D01*
X138776120Y-85472683D01*
X138771943Y-85458916D01*
X138768027Y-85451050D01*
X138744882Y-85369706D01*
X138719215Y-85285090D01*
X138718371Y-85276530D01*
X138717553Y-85273652D01*
X138709040Y-85181788D01*
X138700000Y-85090000D01*
X138709039Y-84998219D01*
X138717553Y-84906347D01*
X138718372Y-84903468D01*
X138719215Y-84894910D01*
X138744878Y-84810308D01*
X138768027Y-84728949D01*
X138771944Y-84721081D01*
X138776120Y-84707317D01*
X138815272Y-84634068D01*
X138850237Y-84563850D01*
X138859024Y-84552213D01*
X138868530Y-84534430D01*
X138917689Y-84474528D01*
X138961388Y-84416663D01*
X138976439Y-84402941D01*
X138992893Y-84382893D01*
X139048414Y-84337327D01*
X139097688Y-84292409D01*
X139119926Y-84278639D01*
X139144430Y-84258530D01*
X139202747Y-84227358D01*
X139254498Y-84195316D01*
X139284282Y-84183777D01*
X139317317Y-84166120D01*
X139375127Y-84148583D01*
X139426481Y-84128689D01*
X139463562Y-84121757D01*
X139504910Y-84109215D01*
X139559340Y-84103853D01*
X139607782Y-84094799D01*
X139651276Y-84094799D01*
X139700000Y-84090000D01*
X139748724Y-84094799D01*
G37*
G36*
X147368724Y-84094799D02*
G01*
X147412218Y-84094799D01*
X147460658Y-84103853D01*
X147515090Y-84109215D01*
X147556438Y-84121757D01*
X147593518Y-84128689D01*
X147644868Y-84148582D01*
X147702683Y-84166120D01*
X147735720Y-84183778D01*
X147765501Y-84195316D01*
X147817245Y-84227354D01*
X147875570Y-84258530D01*
X147900076Y-84278641D01*
X147922311Y-84292409D01*
X147971575Y-84337319D01*
X148027107Y-84382893D01*
X148043563Y-84402945D01*
X148058611Y-84416663D01*
X148102297Y-84474513D01*
X148151470Y-84534430D01*
X148160977Y-84552218D01*
X148169762Y-84563850D01*
X148204713Y-84634040D01*
X148243880Y-84707317D01*
X148248056Y-84721086D01*
X148251972Y-84728949D01*
X148275105Y-84810255D01*
X148300785Y-84894910D01*
X148301628Y-84903473D01*
X148302446Y-84906347D01*
X148310943Y-84998047D01*
X148320000Y-85090000D01*
X148310942Y-85181960D01*
X148302446Y-85273652D01*
X148301628Y-85276524D01*
X148300785Y-85285090D01*
X148275100Y-85369759D01*
X148251972Y-85451050D01*
X148248057Y-85458911D01*
X148243880Y-85472683D01*
X148204705Y-85545972D01*
X148169762Y-85616149D01*
X148160979Y-85627778D01*
X148151470Y-85645570D01*
X148102288Y-85705498D01*
X148058611Y-85763336D01*
X148043566Y-85777050D01*
X148027107Y-85797107D01*
X147971564Y-85842689D01*
X147922311Y-85887590D01*
X147900081Y-85901354D01*
X147875570Y-85921470D01*
X147817233Y-85952651D01*
X147765501Y-85984683D01*
X147735727Y-85996217D01*
X147702683Y-86013880D01*
X147644856Y-86031421D01*
X147593518Y-86051310D01*
X147556445Y-86058240D01*
X147515090Y-86070785D01*
X147460655Y-86076146D01*
X147412218Y-86085201D01*
X147368724Y-86085201D01*
X147320000Y-86090000D01*
X147271276Y-86085201D01*
X147227782Y-86085201D01*
X147179343Y-86076146D01*
X147124910Y-86070785D01*
X147083555Y-86058240D01*
X147046481Y-86051310D01*
X146995139Y-86031419D01*
X146937317Y-86013880D01*
X146904275Y-85996218D01*
X146874498Y-85984683D01*
X146822759Y-85952647D01*
X146764430Y-85921470D01*
X146739921Y-85901356D01*
X146717688Y-85887590D01*
X146668425Y-85842681D01*
X146612893Y-85797107D01*
X146596436Y-85777054D01*
X146581388Y-85763336D01*
X146537699Y-85705482D01*
X146488530Y-85645570D01*
X146479022Y-85627783D01*
X146470237Y-85616149D01*
X146435279Y-85545945D01*
X146396120Y-85472683D01*
X146391943Y-85458916D01*
X146388027Y-85451050D01*
X146364882Y-85369706D01*
X146339215Y-85285090D01*
X146338371Y-85276530D01*
X146337553Y-85273652D01*
X146329040Y-85181788D01*
X146320000Y-85090000D01*
X146329039Y-84998219D01*
X146337553Y-84906347D01*
X146338372Y-84903468D01*
X146339215Y-84894910D01*
X146364878Y-84810308D01*
X146388027Y-84728949D01*
X146391944Y-84721081D01*
X146396120Y-84707317D01*
X146435272Y-84634068D01*
X146470237Y-84563850D01*
X146479024Y-84552213D01*
X146488530Y-84534430D01*
X146537689Y-84474528D01*
X146581388Y-84416663D01*
X146596439Y-84402941D01*
X146612893Y-84382893D01*
X146668414Y-84337327D01*
X146717688Y-84292409D01*
X146739926Y-84278639D01*
X146764430Y-84258530D01*
X146822747Y-84227358D01*
X146874498Y-84195316D01*
X146904282Y-84183777D01*
X146937317Y-84166120D01*
X146995127Y-84148583D01*
X147046481Y-84128689D01*
X147083562Y-84121757D01*
X147124910Y-84109215D01*
X147179340Y-84103853D01*
X147227782Y-84094799D01*
X147271276Y-84094799D01*
X147320000Y-84090000D01*
X147368724Y-84094799D01*
G37*
G36*
X134516043Y-79428191D02*
G01*
X134548727Y-79432494D01*
X134556948Y-79436327D01*
X134576537Y-79440224D01*
X134602480Y-79457559D01*
X134613608Y-79462748D01*
X134620378Y-79469518D01*
X134641421Y-79483579D01*
X134655481Y-79504621D01*
X134662251Y-79511391D01*
X134667438Y-79522516D01*
X134684776Y-79548463D01*
X134688672Y-79568053D01*
X134692505Y-79576272D01*
X134696806Y-79608945D01*
X134700000Y-79625000D01*
X134700000Y-82875000D01*
X134696805Y-82891058D01*
X134692505Y-82923727D01*
X134688673Y-82931944D01*
X134684776Y-82951537D01*
X134667437Y-82977485D01*
X134662251Y-82988608D01*
X134655483Y-82995375D01*
X134641421Y-83016421D01*
X134620375Y-83030483D01*
X134613608Y-83037251D01*
X134602485Y-83042437D01*
X134576537Y-83059776D01*
X134556944Y-83063673D01*
X134548727Y-83067505D01*
X134516056Y-83071806D01*
X134500000Y-83075000D01*
X123500000Y-83075000D01*
X123483943Y-83071806D01*
X123451272Y-83067505D01*
X123443053Y-83063672D01*
X123423463Y-83059776D01*
X123397516Y-83042438D01*
X123386391Y-83037251D01*
X123379621Y-83030481D01*
X123358579Y-83016421D01*
X123344518Y-82995378D01*
X123337748Y-82988608D01*
X123332559Y-82977480D01*
X123315224Y-82951537D01*
X123311327Y-82931948D01*
X123307494Y-82923727D01*
X123303190Y-82891041D01*
X123300000Y-82875000D01*
X123300000Y-79625000D01*
X123303190Y-79608958D01*
X123307494Y-79576272D01*
X123311327Y-79568049D01*
X123315224Y-79548463D01*
X123332557Y-79522521D01*
X123337748Y-79511391D01*
X123344520Y-79504618D01*
X123358579Y-79483579D01*
X123379618Y-79469520D01*
X123386391Y-79462748D01*
X123397521Y-79457557D01*
X123423463Y-79440224D01*
X123443049Y-79436327D01*
X123451272Y-79432494D01*
X123483960Y-79428190D01*
X123500000Y-79425000D01*
X134500000Y-79425000D01*
X134516043Y-79428191D01*
G37*
G36*
X152246043Y-78713191D02*
G01*
X152278727Y-78717494D01*
X152286948Y-78721327D01*
X152306537Y-78725224D01*
X152332480Y-78742559D01*
X152343608Y-78747748D01*
X152350378Y-78754518D01*
X152371421Y-78768579D01*
X152385481Y-78789621D01*
X152392251Y-78796391D01*
X152397438Y-78807516D01*
X152414776Y-78833463D01*
X152418672Y-78853053D01*
X152422505Y-78861272D01*
X152426806Y-78893945D01*
X152430000Y-78910000D01*
X152430000Y-81110000D01*
X152426805Y-81126058D01*
X152422505Y-81158727D01*
X152418673Y-81166944D01*
X152414776Y-81186537D01*
X152397437Y-81212485D01*
X152392251Y-81223608D01*
X152385483Y-81230375D01*
X152371421Y-81251421D01*
X152350375Y-81265483D01*
X152343608Y-81272251D01*
X152332485Y-81277437D01*
X152306537Y-81294776D01*
X152286944Y-81298673D01*
X152278727Y-81302505D01*
X152246056Y-81306806D01*
X152230000Y-81310000D01*
X150030000Y-81310000D01*
X150013943Y-81306806D01*
X149981272Y-81302505D01*
X149973053Y-81298672D01*
X149953463Y-81294776D01*
X149927516Y-81277438D01*
X149916391Y-81272251D01*
X149909621Y-81265481D01*
X149888579Y-81251421D01*
X149874518Y-81230378D01*
X149867748Y-81223608D01*
X149862559Y-81212480D01*
X149845224Y-81186537D01*
X149841327Y-81166948D01*
X149837494Y-81158727D01*
X149833190Y-81126041D01*
X149830000Y-81110000D01*
X149830000Y-78910000D01*
X149833190Y-78893958D01*
X149837494Y-78861272D01*
X149841327Y-78853049D01*
X149845224Y-78833463D01*
X149862557Y-78807521D01*
X149867748Y-78796391D01*
X149874520Y-78789618D01*
X149888579Y-78768579D01*
X149909618Y-78754520D01*
X149916391Y-78747748D01*
X149927521Y-78742557D01*
X149953463Y-78725224D01*
X149973049Y-78721327D01*
X149981272Y-78717494D01*
X150013960Y-78713190D01*
X150030000Y-78710000D01*
X152230000Y-78710000D01*
X152246043Y-78713191D01*
G37*
G36*
X139748724Y-79014799D02*
G01*
X139792218Y-79014799D01*
X139840658Y-79023853D01*
X139895090Y-79029215D01*
X139936438Y-79041757D01*
X139973518Y-79048689D01*
X140024868Y-79068582D01*
X140082683Y-79086120D01*
X140115720Y-79103778D01*
X140145501Y-79115316D01*
X140197245Y-79147354D01*
X140255570Y-79178530D01*
X140280076Y-79198641D01*
X140302311Y-79212409D01*
X140351575Y-79257319D01*
X140407107Y-79302893D01*
X140423563Y-79322945D01*
X140438611Y-79336663D01*
X140482297Y-79394513D01*
X140531470Y-79454430D01*
X140540977Y-79472218D01*
X140549762Y-79483850D01*
X140584713Y-79554040D01*
X140623880Y-79627317D01*
X140628056Y-79641086D01*
X140631972Y-79648949D01*
X140655105Y-79730255D01*
X140680785Y-79814910D01*
X140681628Y-79823473D01*
X140682446Y-79826347D01*
X140690943Y-79918047D01*
X140700000Y-80010000D01*
X140690942Y-80101960D01*
X140682446Y-80193652D01*
X140681628Y-80196524D01*
X140680785Y-80205090D01*
X140655100Y-80289759D01*
X140631972Y-80371050D01*
X140628057Y-80378911D01*
X140623880Y-80392683D01*
X140584705Y-80465972D01*
X140549762Y-80536149D01*
X140540979Y-80547778D01*
X140531470Y-80565570D01*
X140482288Y-80625498D01*
X140438611Y-80683336D01*
X140423566Y-80697050D01*
X140407107Y-80717107D01*
X140351564Y-80762689D01*
X140302311Y-80807590D01*
X140280081Y-80821354D01*
X140255570Y-80841470D01*
X140197233Y-80872651D01*
X140145501Y-80904683D01*
X140115727Y-80916217D01*
X140082683Y-80933880D01*
X140024856Y-80951421D01*
X139973518Y-80971310D01*
X139936445Y-80978240D01*
X139895090Y-80990785D01*
X139840655Y-80996146D01*
X139792218Y-81005201D01*
X139748724Y-81005201D01*
X139700000Y-81010000D01*
X139651276Y-81005201D01*
X139607782Y-81005201D01*
X139559343Y-80996146D01*
X139504910Y-80990785D01*
X139463555Y-80978240D01*
X139426481Y-80971310D01*
X139375139Y-80951419D01*
X139317317Y-80933880D01*
X139284275Y-80916218D01*
X139254498Y-80904683D01*
X139202759Y-80872647D01*
X139144430Y-80841470D01*
X139119921Y-80821356D01*
X139097688Y-80807590D01*
X139048425Y-80762681D01*
X138992893Y-80717107D01*
X138976436Y-80697054D01*
X138961388Y-80683336D01*
X138917699Y-80625482D01*
X138868530Y-80565570D01*
X138859022Y-80547783D01*
X138850237Y-80536149D01*
X138815279Y-80465945D01*
X138776120Y-80392683D01*
X138771943Y-80378916D01*
X138768027Y-80371050D01*
X138744882Y-80289706D01*
X138719215Y-80205090D01*
X138718371Y-80196530D01*
X138717553Y-80193652D01*
X138709040Y-80101788D01*
X138700000Y-80010000D01*
X138709039Y-79918219D01*
X138717553Y-79826347D01*
X138718372Y-79823468D01*
X138719215Y-79814910D01*
X138744878Y-79730308D01*
X138768027Y-79648949D01*
X138771944Y-79641081D01*
X138776120Y-79627317D01*
X138815272Y-79554068D01*
X138850237Y-79483850D01*
X138859024Y-79472213D01*
X138868530Y-79454430D01*
X138917689Y-79394528D01*
X138961388Y-79336663D01*
X138976439Y-79322941D01*
X138992893Y-79302893D01*
X139048414Y-79257327D01*
X139097688Y-79212409D01*
X139119926Y-79198639D01*
X139144430Y-79178530D01*
X139202747Y-79147358D01*
X139254498Y-79115316D01*
X139284282Y-79103777D01*
X139317317Y-79086120D01*
X139375127Y-79068583D01*
X139426481Y-79048689D01*
X139463562Y-79041757D01*
X139504910Y-79029215D01*
X139559340Y-79023853D01*
X139607782Y-79014799D01*
X139651276Y-79014799D01*
X139700000Y-79010000D01*
X139748724Y-79014799D01*
G37*
G36*
X147368724Y-79014799D02*
G01*
X147412218Y-79014799D01*
X147460658Y-79023853D01*
X147515090Y-79029215D01*
X147556438Y-79041757D01*
X147593518Y-79048689D01*
X147644868Y-79068582D01*
X147702683Y-79086120D01*
X147735720Y-79103778D01*
X147765501Y-79115316D01*
X147817245Y-79147354D01*
X147875570Y-79178530D01*
X147900076Y-79198641D01*
X147922311Y-79212409D01*
X147971575Y-79257319D01*
X148027107Y-79302893D01*
X148043563Y-79322945D01*
X148058611Y-79336663D01*
X148102297Y-79394513D01*
X148151470Y-79454430D01*
X148160977Y-79472218D01*
X148169762Y-79483850D01*
X148204713Y-79554040D01*
X148243880Y-79627317D01*
X148248056Y-79641086D01*
X148251972Y-79648949D01*
X148275105Y-79730255D01*
X148300785Y-79814910D01*
X148301628Y-79823473D01*
X148302446Y-79826347D01*
X148310943Y-79918047D01*
X148320000Y-80010000D01*
X148310942Y-80101960D01*
X148302446Y-80193652D01*
X148301628Y-80196524D01*
X148300785Y-80205090D01*
X148275100Y-80289759D01*
X148251972Y-80371050D01*
X148248057Y-80378911D01*
X148243880Y-80392683D01*
X148204705Y-80465972D01*
X148169762Y-80536149D01*
X148160979Y-80547778D01*
X148151470Y-80565570D01*
X148102288Y-80625498D01*
X148058611Y-80683336D01*
X148043566Y-80697050D01*
X148027107Y-80717107D01*
X147971564Y-80762689D01*
X147922311Y-80807590D01*
X147900081Y-80821354D01*
X147875570Y-80841470D01*
X147817233Y-80872651D01*
X147765501Y-80904683D01*
X147735727Y-80916217D01*
X147702683Y-80933880D01*
X147644856Y-80951421D01*
X147593518Y-80971310D01*
X147556445Y-80978240D01*
X147515090Y-80990785D01*
X147460655Y-80996146D01*
X147412218Y-81005201D01*
X147368724Y-81005201D01*
X147320000Y-81010000D01*
X147271276Y-81005201D01*
X147227782Y-81005201D01*
X147179343Y-80996146D01*
X147124910Y-80990785D01*
X147083555Y-80978240D01*
X147046481Y-80971310D01*
X146995139Y-80951419D01*
X146937317Y-80933880D01*
X146904275Y-80916218D01*
X146874498Y-80904683D01*
X146822759Y-80872647D01*
X146764430Y-80841470D01*
X146739921Y-80821356D01*
X146717688Y-80807590D01*
X146668425Y-80762681D01*
X146612893Y-80717107D01*
X146596436Y-80697054D01*
X146581388Y-80683336D01*
X146537699Y-80625482D01*
X146488530Y-80565570D01*
X146479022Y-80547783D01*
X146470237Y-80536149D01*
X146435279Y-80465945D01*
X146396120Y-80392683D01*
X146391943Y-80378916D01*
X146388027Y-80371050D01*
X146364882Y-80289706D01*
X146339215Y-80205090D01*
X146338371Y-80196530D01*
X146337553Y-80193652D01*
X146329040Y-80101788D01*
X146320000Y-80010000D01*
X146329039Y-79918219D01*
X146337553Y-79826347D01*
X146338372Y-79823468D01*
X146339215Y-79814910D01*
X146364878Y-79730308D01*
X146388027Y-79648949D01*
X146391944Y-79641081D01*
X146396120Y-79627317D01*
X146435272Y-79554068D01*
X146470237Y-79483850D01*
X146479024Y-79472213D01*
X146488530Y-79454430D01*
X146537689Y-79394528D01*
X146581388Y-79336663D01*
X146596439Y-79322941D01*
X146612893Y-79302893D01*
X146668414Y-79257327D01*
X146717688Y-79212409D01*
X146739926Y-79198639D01*
X146764430Y-79178530D01*
X146822747Y-79147358D01*
X146874498Y-79115316D01*
X146904282Y-79103777D01*
X146937317Y-79086120D01*
X146995127Y-79068583D01*
X147046481Y-79048689D01*
X147083562Y-79041757D01*
X147124910Y-79029215D01*
X147179340Y-79023853D01*
X147227782Y-79014799D01*
X147271276Y-79014799D01*
X147320000Y-79010000D01*
X147368724Y-79014799D01*
G37*
G36*
X155756043Y-79013191D02*
G01*
X155788727Y-79017494D01*
X155796948Y-79021327D01*
X155816537Y-79025224D01*
X155842480Y-79042559D01*
X155853608Y-79047748D01*
X155860378Y-79054518D01*
X155881421Y-79068579D01*
X155895481Y-79089621D01*
X155902251Y-79096391D01*
X155907438Y-79107516D01*
X155924776Y-79133463D01*
X155928672Y-79153053D01*
X155932505Y-79161272D01*
X155936806Y-79193945D01*
X155940000Y-79210000D01*
X155940000Y-80810000D01*
X155936805Y-80826058D01*
X155932505Y-80858727D01*
X155928673Y-80866944D01*
X155924776Y-80886537D01*
X155907437Y-80912485D01*
X155902251Y-80923608D01*
X155895483Y-80930375D01*
X155881421Y-80951421D01*
X155860375Y-80965483D01*
X155853608Y-80972251D01*
X155842485Y-80977437D01*
X155816537Y-80994776D01*
X155796944Y-80998673D01*
X155788727Y-81002505D01*
X155756056Y-81006806D01*
X155740000Y-81010000D01*
X154140000Y-81010000D01*
X154123943Y-81006806D01*
X154091272Y-81002505D01*
X154083053Y-80998672D01*
X154063463Y-80994776D01*
X154037516Y-80977438D01*
X154026391Y-80972251D01*
X154019621Y-80965481D01*
X153998579Y-80951421D01*
X153984518Y-80930378D01*
X153977748Y-80923608D01*
X153972559Y-80912480D01*
X153955224Y-80886537D01*
X153951327Y-80866948D01*
X153947494Y-80858727D01*
X153943190Y-80826041D01*
X153940000Y-80810000D01*
X153940000Y-79210000D01*
X153943190Y-79193958D01*
X153947494Y-79161272D01*
X153951327Y-79153049D01*
X153955224Y-79133463D01*
X153972557Y-79107521D01*
X153977748Y-79096391D01*
X153984520Y-79089618D01*
X153998579Y-79068579D01*
X154019618Y-79054520D01*
X154026391Y-79047748D01*
X154037521Y-79042557D01*
X154063463Y-79025224D01*
X154083049Y-79021327D01*
X154091272Y-79017494D01*
X154123960Y-79013190D01*
X154140000Y-79010000D01*
X155740000Y-79010000D01*
X155756043Y-79013191D01*
G37*
M02*
